<?xml version="1.0" encoding="UTF-8" standalone="no"?>
<!-- Created with Inkscape (http://www.inkscape.org/) -->

<svg
   xmlns:dc="http://purl.org/dc/elements/1.1/"
   xmlns:cc="http://creativecommons.org/ns#"
   xmlns:rdf="http://www.w3.org/1999/02/22-rdf-syntax-ns#"
   xmlns:svg="http://www.w3.org/2000/svg"
   xmlns="http://www.w3.org/2000/svg"
   xmlns:sodipodi="http://sodipodi.sourceforge.net/DTD/sodipodi-0.dtd"
   xmlns:inkscape="http://www.inkscape.org/namespaces/inkscape"
   width="692.51587"
   height="178.09666"
   id="svg2"
   version="1.1"
   inkscape:version="0.48.3.1 r9886"
   sodipodi:docname="qos.svg">
  <defs
     id="defs4">
    <marker
       inkscape:stockid="Arrow1Mstart"
       orient="auto"
       refY="0"
       refX="0"
       id="Arrow1Mstart"
       style="overflow:visible">
      <path
         id="path3800"
         d="M 0,0 5,-5 -12.5,0 5,5 0,0 z"
         style="fill-rule:evenodd;stroke:#000000;stroke-width:1pt"
         transform="matrix(0.4,0,0,0.4,4,0)"
         inkscape:connector-curvature="0" />
    </marker>
    <marker
       inkscape:stockid="Arrow1Mend"
       orient="auto"
       refY="0"
       refX="0"
       id="Arrow1Mend"
       style="overflow:visible">
      <path
         id="path3803"
         d="M 0,0 5,-5 -12.5,0 5,5 0,0 z"
         style="fill-rule:evenodd;stroke:#000000;stroke-width:1pt"
         transform="matrix(-0.4,0,0,-0.4,-4,0)"
         inkscape:connector-curvature="0" />
    </marker>
    <marker
       inkscape:stockid="Arrow2Lend"
       orient="auto"
       refY="0"
       refX="0"
       id="Arrow2Lend"
       style="overflow:visible">
      <path
         id="path3815"
         style="fill-rule:evenodd;stroke-width:0.625;stroke-linejoin:round"
         d="M 8.7185878,4.0337352 -2.2072895,0.01601326 8.7185884,-4.0017078 c -1.7454984,2.3720609 -1.7354408,5.6174519 -6e-7,8.035443 z"
         transform="matrix(-1.1,0,0,-1.1,-1.1,0)"
         inkscape:connector-curvature="0" />
    </marker>
  </defs>
  <sodipodi:namedview
     id="base"
     pagecolor="#ffffff"
     bordercolor="#666666"
     borderopacity="1.0"
     inkscape:pageopacity="0.0"
     inkscape:pageshadow="2"
     inkscape:zoom="0.98994949"
     inkscape:cx="375.35743"
     inkscape:cy="-61.187879"
     inkscape:document-units="px"
     inkscape:current-layer="layer1"
     showgrid="false"
     inkscape:window-width="1598"
     inkscape:window-height="1198"
     inkscape:window-x="0"
     inkscape:window-y="0"
     inkscape:window-maximized="0"
     fit-margin-top="10"
     fit-margin-left="10"
     fit-margin-right="10"
     fit-margin-bottom="10" />
  <metadata
     id="metadata7">
    <rdf:RDF>
      <cc:Work
         rdf:about="">
        <dc:format>image/svg+xml</dc:format>
        <dc:type
           rdf:resource="http://purl.org/dc/dcmitype/StillImage" />
        <dc:title></dc:title>
      </cc:Work>
    </rdf:RDF>
  </metadata>
  <g
     inkscape:label="Layer 1"
     inkscape:groupmode="layer"
     id="layer1"
     transform="translate(-50.857805,-293.07765)">
    <path
       style="fill:none;stroke:#000000;stroke-width:3.54330707;stroke-linecap:butt;stroke-miterlimit:4;stroke-opacity:1;stroke-dashoffset:0"
       d="m 62.629459,304.8493 126.269071,0 0,154.55335 -126.269071,0"
       id="rect2985"
       inkscape:connector-curvature="0"
       sodipodi:nodetypes="cccc" />
    <path
       sodipodi:nodetypes="cccc"
       inkscape:connector-curvature="0"
       id="path3756"
       d="m 643.46718,304.8493 -126.26908,0 0,154.55335 126.26908,0"
       style="fill:none;stroke:#000000;stroke-width:3.54330707;stroke-linecap:butt;stroke-miterlimit:4;stroke-opacity:1;stroke-dashoffset:0" />
    <g
       style="font-size:12px;font-style:normal;font-variant:normal;font-weight:normal;font-stretch:normal;text-align:center;line-height:125%;letter-spacing:0px;word-spacing:0px;writing-mode:lr-tb;text-anchor:middle;fill:#000000;fill-opacity:1;stroke:none;font-family:Myriad Pro;-inkscape-font-specification:Myriad Pro"
       id="text3758">
      <path
         d="m 76.607974,334.14371 2.088,0 0,-7.008 1.968,0 c 1.895998,0.072 2.784,0.912 3.264,3.144 0.431999,2.016 0.792,3.384 1.056,3.864 l 2.16,0 c -0.312,-0.624 -0.696001,-2.184 -1.224,-4.44 -0.408,-1.68 -1.152002,-2.832 -2.376,-3.264 l 0,-0.072 c 1.679998,-0.576 3.048,-1.992 3.048,-4.104 0,-1.272 -0.480001,-2.376 -1.272,-3.072 -1.007999,-0.912 -2.472003,-1.344 -4.704,-1.344 -1.415999,0 -2.952001,0.144 -4.008,0.36 l 0,15.936 m 2.088,-14.472 c 0.359999,-0.096 1.056001,-0.192 2.064,-0.192 2.207997,0 3.72,0.912 3.72,3 0,1.848 -1.416003,3.072 -3.648,3.072 l -2.136,0 0,-5.88"
         style="font-size:24px"
         id="path5944"
         inkscape:connector-curvature="0" />
      <path
         d="m 97.891849,327.01571 c 0,-2.328 -0.864004,-4.752 -4.44,-4.752 -1.463999,0 -2.880001,0.408 -3.84,1.008 l 0.48,1.416 c 0.815999,-0.552 1.944001,-0.864 3.048,-0.864 2.375997,-0.024 2.64,1.728 2.64,2.688 l 0,0.24 c -4.487996,-0.024 -6.984,1.512 -6.984,4.32 0,1.68 1.200002,3.336 3.552,3.336 1.655998,0 2.928,-0.816 3.552,-1.728 l 0.072,0 0.192,1.464 1.896,0 c -0.12,-0.792 -0.168,-1.776 -0.168,-2.784 l 0,-4.344 m -2.064,3.216 c 0,0.216 -0.024,0.456 -0.096,0.672 -0.336,0.984 -1.320002,1.944 -2.856,1.944 -1.055999,0 -1.968,-0.624 -1.968,-2.016 0,-2.256 2.616002,-2.664 4.92,-2.616 l 0,2.016"
         style="font-size:24px"
         id="path5946"
         inkscape:connector-curvature="0" />
      <path
         d="m 101.28597,331.14371 c 0,1.032 -0.024,2.208 -0.096,3 l 1.824,0 0.12,-1.92 0.048,0 c 0.888,1.536 2.20801,2.184 3.888,2.184 2.592,0 5.232,-2.06401 5.232,-6.24 0,-3.504 -2.016,-5.904 -4.896,-5.904 -1.87199,0 -3.216,0.816 -3.96,2.112 l -0.048,0 0,-7.272 -2.112,0 0,14.04 m 2.112,-3.744 c 0,-0.336 0.048,-0.624 0.12,-0.888 0.408,-1.584 1.75201,-2.592 3.192,-2.592 2.256,0 3.456,1.992 3.456,4.344 0,2.66399 -1.296,4.464 -3.528,4.464 -1.51199,0 -2.76,-1.008 -3.168,-2.472 -0.048,-0.24 -0.072,-0.504 -0.072,-0.768 l 0,-2.088"
         style="font-size:24px"
         id="path5948"
         inkscape:connector-curvature="0" />
      <path
         d="m 114.9266,331.14371 c 0,1.032 -0.024,2.208 -0.096,3 l 1.824,0 0.12,-1.92 0.048,0 c 0.888,1.536 2.208,2.184 3.888,2.184 2.592,0 5.232,-2.06401 5.232,-6.24 0,-3.504 -2.016,-5.904 -4.896,-5.904 -1.872,0 -3.216,0.816 -3.96,2.112 l -0.048,0 0,-7.272 -2.112,0 0,14.04 m 2.112,-3.744 c 0,-0.336 0.048,-0.624 0.12,-0.888 0.408,-1.584 1.752,-2.592 3.192,-2.592 2.256,0 3.456,1.992 3.456,4.344 0,2.66399 -1.296,4.464 -3.528,4.464 -1.512,0 -2.76,-1.008 -3.168,-2.472 -0.048,-0.24 -0.072,-0.504 -0.072,-0.768 l 0,-2.088"
         style="font-size:24px"
         id="path5950"
         inkscape:connector-curvature="0" />
      <path
         d="m 130.67922,334.14371 0,-11.616 -2.112,0 0,11.616 2.112,0 m -1.08,-13.584 c 0.816,0 1.32,-0.6 1.32,-1.296 0,-0.744 -0.528,-1.32 -1.296,-1.32 -0.792,0 -1.32,0.576 -1.32,1.32 0,0.696 0.504,1.296 1.272,1.296 l 0.024,0"
         style="font-size:24px"
         id="path5952"
         inkscape:connector-curvature="0" />
      <path
         d="m 134.67222,320.39171 0,2.136 -1.8,0 0,1.608 1.8,0 0,6.312 c 0,1.368 0.24,2.4 0.816,3.048 0.504,0.552 1.296,0.888 2.28,0.888 0.816,0 1.464,-0.144 1.872,-0.288 l -0.096,-1.608 c -0.312,0.096 -0.648,0.144 -1.224,0.144 -1.176,0 -1.584,-0.816 -1.584,-2.256 l 0,-6.24 3.024,0 0,-1.608 -3.024,0 0,-2.784 -2.064,0.648"
         style="font-size:24px"
         id="path5954"
         inkscape:connector-curvature="0" />
      <path
         d="m 156.2021,334.14371 2.064,0 -1.008,-16.176 -2.664,0 -2.88,7.824 c -0.72,2.04 -1.296,3.84 -1.728,5.472 l -0.048,0 c -0.432,-1.68 -0.96,-3.48 -1.632,-5.472 l -2.76,-7.824 -2.664,0 -1.128,16.176 1.992,0 0.432,-6.936 c 0.144,-2.424 0.264,-5.136 0.312,-7.152 l 0.048,0 c 0.456,1.92 1.08,4.008 1.848,6.288 l 2.64,7.704 1.584,0 2.856,-7.848 c 0.816,-2.208 1.464,-4.272 2.04,-6.144 l 0.048,0 c 0,1.992 0.144,4.752 0.264,6.984 l 0.384,7.104"
         style="font-size:24px"
         id="path5956"
         inkscape:connector-curvature="0" />
      <path
         d="m 175.4426,334.76771 c -1.368,-0.24 -3.12,-0.624 -4.728,-1.032 l 0,-0.096 c 2.688,-0.96 4.608,-3.60001 4.608,-7.752 0,-4.776 -2.85601,-8.184 -7.272,-8.184 -4.368,0 -7.512,3.336 -7.512,8.52 0,5.20799 3.264,8.04 7.128,8.184 0.312,0 0.624,0.12 0.984,0.24 1.872,0.624 4.008,1.296 6.192,1.848 l 0.6,-1.728 m -7.536,-2.064 c -3.288,0 -5.16,-3.09601 -5.16,-6.528 0,-3.504 1.728,-6.768 5.256,-6.768 3.432,0 5.112,3.336 5.112,6.576 0,3.67199 -1.872,6.72 -5.184,6.72 l -0.024,0"
         style="font-size:24px"
         id="path5958"
         inkscape:connector-curvature="0" />
    </g>
    <g
       style="font-size:24px;font-style:normal;font-variant:normal;font-weight:normal;font-stretch:normal;text-align:center;line-height:125%;letter-spacing:0px;word-spacing:0px;writing-mode:lr-tb;text-anchor:middle;fill:#000000;fill-opacity:1;stroke:none;font-family:Myriad Pro;-inkscape-font-specification:Myriad Pro"
       id="text3762">
      <path
         d="m 563.69447,330.92558 c -0.84,0.408 -2.136,0.672 -3.432,0.672 -3.91199,0 -6.192,-2.52001 -6.192,-6.48 0,-4.224 2.52001,-6.648 6.312,-6.648 1.344,0 2.472,0.288 3.24,0.672 l 0.528,-1.728 c -0.552,-0.264 -1.848,-0.696 -3.84,-0.696 -5.01599,0 -8.448,3.408 -8.448,8.472 0,5.30399 3.40801,8.184 7.968,8.184 1.968,0 3.528,-0.384 4.272,-0.768 l -0.408,-1.68"
         id="path5861"
         inkscape:connector-curvature="0" />
      <path
         d="m 566.67235,333.13358 2.112,0 0,-17.04 -2.112,0 0,17.04"
         id="path5863"
         inkscape:connector-curvature="0" />
      <path
         d="m 574.45622,333.13358 0,-11.616 -2.112,0 0,11.616 2.112,0 m -1.08,-13.584 c 0.816,0 1.32,-0.60001 1.32,-1.296 0,-0.744 -0.528,-1.32 -1.296,-1.32 -0.792,0 -1.32,0.576 -1.32,1.32 0,0.69599 0.504,1.296 1.272,1.296 l 0.024,0"
         id="path5865"
         inkscape:connector-curvature="0" />
      <path
         d="m 587.30522,327.70958 c 0.048,-0.24 0.072,-0.552 0.072,-0.984 0,-2.136 -0.984,-5.472 -4.776,-5.472 -3.38399,0 -5.472,2.76 -5.472,6.264 0,3.47999 2.16001,5.856 5.712,5.856 1.848,0 3.144,-0.408 3.888,-0.744 l -0.384,-1.512 c -0.768,0.336 -1.704,0.6 -3.216,0.6 -2.11199,0 -3.912,-1.17601 -3.96,-4.008 l 8.136,0 m -8.112,-1.512 c 0.168,-1.464 1.08001,-3.432 3.24,-3.432 2.352,0 2.928,2.088 2.904,3.432 l -6.144,0"
         id="path5867"
         inkscape:connector-curvature="0" />
      <path
         d="m 590.0161,333.13358 2.112,0 0,-7.008 c 0,-0.336 0.048,-0.72 0.144,-0.984 0.384,-1.176 1.464,-2.16 2.832,-2.16 1.992,0 2.688,1.584 2.688,3.456 l 0,6.696 2.112,0 0,-6.936 c 0,-3.984 -2.496,-4.944 -4.104,-4.944 -1.92,0 -3.264,1.08 -3.84,2.16 l -0.048,0 -0.12,-1.896 -1.872,0 c 0.072,0.95999 0.096,1.92 0.096,3.144 l 0,8.472"
         id="path5869"
         inkscape:connector-curvature="0" />
      <path
         d="m 603.71485,319.38158 0,2.136 -1.8,0 0,1.608 1.8,0 0,6.312 c 0,1.36799 0.24,2.4 0.816,3.048 0.504,0.55199 1.296,0.888 2.28,0.888 0.816,0 1.464,-0.144 1.872,-0.288 l -0.096,-1.608 c -0.312,0.096 -0.648,0.144 -1.224,0.144 -1.176,0 -1.584,-0.81601 -1.584,-2.256 l 0,-6.24 3.024,0 0,-1.608 -3.024,0 0,-2.784 -2.064,0.648"
         id="path5871"
         inkscape:connector-curvature="0" />
    </g>
    <rect
       style="fill:none;stroke:#000000;stroke-width:3.54330707;stroke-linecap:butt;stroke-miterlimit:4;stroke-opacity:1;stroke-dasharray:none;stroke-dashoffset:0"
       id="rect3766"
       width="96.974648"
       height="29.294424"
       x="77.276672"
       y="367.47876" />
    <g
       style="font-size:16px;font-style:normal;font-variant:normal;font-weight:normal;font-stretch:normal;text-align:center;line-height:125%;letter-spacing:0px;word-spacing:0px;writing-mode:lr-tb;text-anchor:middle;fill:#000000;fill-opacity:1;stroke:none;font-family:Myriad Pro;-inkscape-font-specification:Myriad Pro"
       id="text3768">
      <path
         d="m 113.92425,387.23796 c -0.91199,-0.16 -2.08,-0.416 -3.152,-0.688 l 0,-0.064 c 1.792,-0.64 3.072,-2.4 3.072,-5.168 0,-3.184 -1.904,-5.456 -4.848,-5.456 -2.91199,0 -5.008,2.224 -5.008,5.68 0,3.472 2.17601,5.36 4.752,5.456 0.208,0 0.416,0.08 0.656,0.16 1.248,0.416 2.67201,0.864 4.128,1.232 l 0.4,-1.152 m -5.024,-1.376 c -2.19199,0 -3.44,-2.064 -3.44,-4.352 0,-2.336 1.15201,-4.512 3.504,-4.512 2.288,0 3.408,2.224 3.408,4.384 0,2.448 -1.248,4.48 -3.456,4.48 l -0.016,0"
         id="path5961"
         inkscape:connector-curvature="0" />
      <path
         d="m 122.0915,379.07796 -1.408,0 0,4.736 c 0,0.272 -0.048,0.528 -0.128,0.72 -0.256,0.64 -0.912,1.296 -1.856,1.296 -1.26399,0 -1.728,-1.008 -1.728,-2.48 l 0,-4.272 -1.408,0 0,4.528 c 0,2.704 1.45601,3.392 2.672,3.392 1.376,0 2.208,-0.816 2.56,-1.44 l 0.032,0 0.08,1.264 1.248,0 c -0.048,-0.608 -0.064,-1.312 -0.064,-2.128 l 0,-5.616"
         id="path5963"
         inkscape:connector-curvature="0" />
      <path
         d="m 130.648,383.20596 c 0.032,-0.16 0.048,-0.368 0.048,-0.656 0,-1.424 -0.656,-3.648 -3.184,-3.648 -2.25599,0 -3.648,1.84 -3.648,4.176 0,2.32 1.44001,3.904 3.808,3.904 1.232,0 2.096,-0.272 2.592,-0.496 l -0.256,-1.008 c -0.512,0.224 -1.136,0.4 -2.144,0.4 -1.40799,0 -2.608,-0.784 -2.64,-2.672 l 5.424,0 m -5.408,-1.008 c 0.112,-0.976 0.72001,-2.288 2.16,-2.288 1.568,0 1.952,1.392 1.936,2.288 l -4.096,0"
         id="path5965"
         inkscape:connector-curvature="0" />
      <path
         d="m 138.93525,379.07796 -1.408,0 0,4.736 c 0,0.272 -0.048,0.528 -0.128,0.72 -0.256,0.64 -0.912,1.296 -1.856,1.296 -1.26399,0 -1.728,-1.008 -1.728,-2.48 l 0,-4.272 -1.408,0 0,4.528 c 0,2.704 1.45601,3.392 2.672,3.392 1.376,0 2.208,-0.816 2.56,-1.44 l 0.032,0 0.08,1.264 1.248,0 c -0.048,-0.608 -0.064,-1.312 -0.064,-2.128 l 0,-5.616"
         id="path5967"
         inkscape:connector-curvature="0" />
      <path
         d="m 147.49175,383.20596 c 0.032,-0.16 0.048,-0.368 0.048,-0.656 0,-1.424 -0.656,-3.648 -3.184,-3.648 -2.25599,0 -3.648,1.84 -3.648,4.176 0,2.32 1.44001,3.904 3.808,3.904 1.232,0 2.096,-0.272 2.592,-0.496 l -0.256,-1.008 c -0.512,0.224 -1.136,0.4 -2.144,0.4 -1.40799,0 -2.608,-0.784 -2.64,-2.672 l 5.424,0 m -5.408,-1.008 c 0.112,-0.976 0.72001,-2.288 2.16,-2.288 1.568,0 1.952,1.392 1.936,2.288 l -4.096,0"
         id="path5969"
         inkscape:connector-curvature="0" />
    </g>
    <rect
       y="367.47876"
       x="531.84534"
       height="29.294424"
       width="96.974648"
       id="rect3779"
       style="fill:#ffffff;fill-opacity:1;stroke:#000000;stroke-width:3.54330707;stroke-linecap:butt;stroke-miterlimit:4;stroke-opacity:1;stroke-dasharray:none;stroke-dashoffset:0" />
    <g
       style="font-size:16px;font-style:normal;font-variant:normal;font-weight:normal;font-stretch:normal;text-align:center;line-height:125%;letter-spacing:0px;word-spacing:0px;writing-mode:lr-tb;text-anchor:middle;fill:#000000;fill-opacity:1;stroke:none;font-family:Myriad Pro;-inkscape-font-specification:Myriad Pro"
       id="text3781">
      <path
         d="m 541.22815,386.82196 1.392,0 0,-4.336 c 0.32,0.08 0.704,0.096 1.12,0.096 1.35999,0 2.56,-0.4 3.296,-1.184 0.56,-0.56 0.848,-1.328 0.848,-2.304 0,-0.944 -0.368,-1.728 -0.96,-2.24 -0.64,-0.576 -1.64801,-0.896 -3.024,-0.896 -1.12,0 -2,0.096 -2.672,0.224 l 0,10.64 m 1.392,-9.648 c 0.24,-0.064 0.704,-0.112 1.312,-0.112 1.53599,0 2.544,0.688 2.544,2.112 0,1.472 -1.02401,2.288 -2.704,2.288 -0.464,0 -0.848,-0.032 -1.152,-0.112 l 0,-4.176"
         id="path5838"
         inkscape:connector-curvature="0" />
      <path
         d="m 549.43015,386.82196 1.408,0 0,-4.144 c 0,-0.224 0.016,-0.448 0.048,-0.656 0.192,-1.04 0.896,-1.792 1.888,-1.792 0.192,0 0.336,0.016 0.48,0.032 l 0,-1.328 c -0.128,-0.016 -0.24,-0.032 -0.384,-0.032 -0.944,0 -1.808,0.656 -2.16,1.696 l -0.048,0 -0.064,-1.52 -1.232,0 c 0.048,0.72 0.064,1.504 0.064,2.416 l 0,5.328"
         id="path5840"
         inkscape:connector-curvature="0" />
      <path
         d="m 560.71665,383.20596 c 0.032,-0.16 0.048,-0.368 0.048,-0.656 0,-1.424 -0.65601,-3.648 -3.184,-3.648 -2.256,0 -3.648,1.84 -3.648,4.176 0,2.32 1.44,3.904 3.808,3.904 1.23199,0 2.096,-0.272 2.592,-0.496 l -0.256,-1.008 c -0.512,0.224 -1.13601,0.4 -2.144,0.4 -1.408,0 -2.608,-0.784 -2.64,-2.672 l 5.424,0 m -5.408,-1.008 c 0.112,-0.976 0.72,-2.288 2.16,-2.288 1.56799,0 1.952,1.392 1.936,2.288 l -4.096,0"
         id="path5842"
         inkscape:connector-curvature="0" />
      <path
         d="m 564.0599,386.82196 0,-6.672 1.856,0 0,-1.072 -1.872,0 0,-0.416 c 0,-1.184 0.32,-2.24 1.504,-2.24 0.416,0 0.688,0.08 0.912,0.176 l 0.176,-1.088 c -0.272,-0.112 -0.688,-0.224 -1.2,-0.224 -0.64,0 -1.344,0.208 -1.872,0.72 -0.656,0.624 -0.912,1.616 -0.912,2.704 l 0,0.368 -1.072,0 0,1.072 1.072,0 0,6.672 1.408,0"
         id="path5844"
         inkscape:connector-curvature="0" />
      <path
         d="m 573.21665,383.20596 c 0.032,-0.16 0.048,-0.368 0.048,-0.656 0,-1.424 -0.65601,-3.648 -3.184,-3.648 -2.256,0 -3.648,1.84 -3.648,4.176 0,2.32 1.44,3.904 3.808,3.904 1.23199,0 2.096,-0.272 2.592,-0.496 l -0.256,-1.008 c -0.512,0.224 -1.13601,0.4 -2.144,0.4 -1.408,0 -2.608,-0.784 -2.64,-2.672 l 5.424,0 m -5.408,-1.008 c 0.112,-0.976 0.72,-2.288 2.16,-2.288 1.56799,0 1.952,1.392 1.936,2.288 l -4.096,0"
         id="path5846"
         inkscape:connector-curvature="0" />
      <path
         d="m 575.3439,377.65396 0,1.424 -1.2,0 0,1.072 1.2,0 0,4.208 c 0,0.912 0.16,1.6 0.544,2.032 0.336,0.368 0.864,0.592 1.52,0.592 0.544,0 0.976,-0.096 1.248,-0.192 l -0.064,-1.072 c -0.208,0.064 -0.432,0.096 -0.816,0.096 -0.784,0 -1.056,-0.544 -1.056,-1.504 l 0,-4.16 2.016,0 0,-1.072 -2.016,0 0,-1.856 -1.376,0.432"
         id="path5848"
         inkscape:connector-curvature="0" />
      <path
         d="m 585.4914,385.47796 c -0.4,0.176 -0.928,0.368 -1.728,0.368 -1.536,0 -2.688,-1.104 -2.688,-2.896 0,-1.6 0.96,-2.928 2.736,-2.928 0.768,0 1.296,0.192 1.632,0.368 l 0.32,-1.072 c -0.384,-0.208 -1.12,-0.416 -1.952,-0.416 -2.528,0 -4.16,1.744 -4.16,4.128 0,2.368 1.52,3.952 3.856,3.952 1.03999,0 1.856,-0.272 2.224,-0.448 l -0.24,-1.056"
         id="path5850"
         inkscape:connector-curvature="0" />
      <path
         d="m 587.36765,386.82196 1.408,0 0,-4.672 c 0,-0.272 0.016,-0.48 0.096,-0.672 0.272,-0.768 0.976,-1.408 1.888,-1.408 1.32799,0 1.792,1.04 1.792,2.288 l 0,4.464 1.408,0 0,-4.608 c 0,-2.672 -1.66401,-3.312 -2.704,-3.312 -0.528,0 -1.024,0.144 -1.44,0.4 -0.432,0.224 -0.784,0.592 -1.008,0.992 l -0.032,0 0,-4.832 -1.408,0 0,11.36"
         id="path5852"
         inkscape:connector-curvature="0" />
      <path
         d="m 599.6969,386.78996 c 0.464,0.064 1.2,0.128 2.16,0.128 1.75999,0 2.976,-0.32 3.712,-1.008 0.56,-0.528 0.928,-1.232 0.928,-2.16 0,-1.6 -1.20001,-2.448 -2.224,-2.688 l 0,-0.048 c 1.11999,-0.4 1.824,-1.312 1.824,-2.368 0,-0.848 -0.352,-1.488 -0.912,-1.904 -0.656,-0.544 -1.55201,-0.784 -2.944,-0.784 -0.96,0 -1.936,0.096 -2.544,0.24 l 0,10.592 m 1.392,-9.664 c 0.224,-0.048 0.592,-0.096 1.232,-0.096 1.40799,0 2.352,0.512 2.352,1.76 0,1.04 -0.86401,1.824 -2.32,1.824 l -1.264,0 0,-3.488 m 0,4.528 1.152,0 c 1.51999,0 2.784,0.624 2.784,2.08 0,1.568 -1.32801,2.096 -2.768,2.096 -0.496,0 -0.88,-0.016 -1.168,-0.064 l 0,-4.112"
         id="path5854"
         inkscape:connector-curvature="0" />
      <path
         d="m 614.8164,379.07796 -1.408,0 0,4.736 c 0,0.272 -0.048,0.528 -0.128,0.72 -0.256,0.64 -0.912,1.296 -1.856,1.296 -1.264,0 -1.728,-1.008 -1.728,-2.48 l 0,-4.272 -1.408,0 0,4.528 c 0,2.704 1.456,3.392 2.672,3.392 1.37599,0 2.208,-0.816 2.56,-1.44 l 0.032,0 0.08,1.264 1.248,0 c -0.048,-0.608 -0.064,-1.312 -0.064,-2.128 l 0,-5.616"
         id="path5856"
         inkscape:connector-curvature="0" />
      <path
         d="m 618.6849,386.82196 0,-6.672 1.856,0 0,-1.072 -1.872,0 0,-0.416 c 0,-1.184 0.32,-2.24 1.504,-2.24 0.416,0 0.688,0.08 0.912,0.176 l 0.176,-1.088 c -0.272,-0.112 -0.688,-0.224 -1.2,-0.224 -0.64,0 -1.344,0.208 -1.872,0.72 -0.656,0.624 -0.912,1.616 -0.912,2.704 l 0,0.368 -1.072,0 0,1.072 1.072,0 0,6.672 1.408,0"
         id="path5858"
         inkscape:connector-curvature="0" />
    </g>
    <path
       sodipodi:type="arc"
       style="fill:#ffffff;fill-opacity:1;stroke:#000000;stroke-width:3.54299998;stroke-linecap:butt;stroke-miterlimit:4;stroke-opacity:1;stroke-dasharray:none;stroke-dashoffset:0"
       id="path5344"
       sodipodi:cx="238.396"
       sodipodi:cy="229.33961"
       sodipodi:rx="34.596943"
       sodipodi:ry="34.596943"
       d="m 272.99294,229.33961 c 0,19.10737 -15.48958,34.59695 -34.59694,34.59695 -19.10737,0 -34.59695,-15.48958 -34.59695,-34.59695 0,-19.10736 15.48958,-34.59694 34.59695,-34.59694 19.10736,0 34.59694,15.48958 34.59694,34.59694 z"
       transform="translate(458.60926,152.78636)" />
    <g
       style="font-size:16px;font-style:normal;font-variant:normal;font-weight:normal;font-stretch:normal;text-align:center;line-height:125%;letter-spacing:0px;word-spacing:0px;writing-mode:lr-tb;text-anchor:middle;fill:#000000;fill-opacity:1;stroke:none;font-family:Myriad Pro;-inkscape-font-specification:Myriad Pro"
       id="text5346">
      <path
         d="m 671.8855,382.46197 1.152,3.392 1.488,0 -3.68,-10.784 -1.68,0 -3.664,10.784 1.44,0 1.12,-3.392 3.824,0 m -3.536,-1.088 1.056,-3.12 c 0.208,-0.656 0.384,-1.328 0.528,-1.952 l 0.048,0 c 0.16,0.624 0.32,1.264 0.544,1.968 l 1.072,3.104 -3.248,0"
         id="path5821"
         inkscape:connector-curvature="0" />
      <path
         d="m 676.05075,389.02197 1.408,0 0,-4.208 0.032,0 c 0.464,0.768 1.344,1.216 2.384,1.216 1.808,0 3.52,-1.376 3.52,-4.16 0,-2.35199 -1.408,-3.936 -3.296,-3.936 -1.248,0 -2.176,0.544 -2.736,1.504 l -0.032,0 -0.08,-1.328 -1.264,0 c 0.048,0.736 0.064,1.536 0.064,2.528 l 0,8.384 m 1.408,-7.664 c 0,-0.176 0.048,-0.384 0.08,-0.56 0.272,-1.072 1.184,-1.744 2.144,-1.744 1.488,0 2.288,1.328 2.288,2.88 0,1.776 -0.864,2.992 -2.352,2.992 -0.992,0 -1.856,-0.672 -2.096,-1.648 -0.048,-0.176 -0.064,-0.384 -0.064,-0.576 l 0,-1.344"
         id="path5823"
         inkscape:connector-curvature="0" />
      <path
         d="m 685.1445,389.02197 1.408,0 0,-4.208 0.032,0 c 0.464,0.768 1.344,1.216 2.384,1.216 1.808,0 3.52,-1.376 3.52,-4.16 0,-2.35199 -1.408,-3.936 -3.296,-3.936 -1.248,0 -2.176,0.544 -2.736,1.504 l -0.032,0 -0.08,-1.328 -1.264,0 c 0.048,0.736 0.064,1.536 0.064,2.528 l 0,8.384 m 1.408,-7.664 c 0,-0.176 0.048,-0.384 0.08,-0.56 0.272,-1.072 1.184,-1.744 2.144,-1.744 1.488,0 2.288,1.328 2.288,2.88 0,1.776 -0.864,2.992 -2.352,2.992 -0.992,0 -1.856,-0.672 -2.096,-1.648 -0.048,-0.176 -0.064,-0.384 -0.064,-0.576 l 0,-1.344"
         id="path5825"
         inkscape:connector-curvature="0" />
      <path
         d="m 694.27025,385.85397 6.016,0 0,-1.168 -4.608,0 0,-9.616 -1.408,0 0,10.784"
         id="path5827"
         inkscape:connector-curvature="0" />
      <path
         d="m 704.75,386.02997 c 1.84,0 3.84,-1.248 3.84,-4.128 0,-2.35199 -1.504,-3.968 -3.728,-3.968 -2.128,0 -3.84,1.52001 -3.84,4.112 0,2.448 1.632,3.984 3.712,3.984 l 0.016,0 m 0.032,-1.056 c -1.36,0 -2.32,-1.28 -2.32,-2.976 0,-1.472 0.72,-3.008 2.368,-3.008 1.664,0 2.32,1.648 2.32,2.96 0,1.76 -1.008,3.024 -2.352,3.024 l -0.016,0"
         id="path5829"
         inkscape:connector-curvature="0" />
      <path
         d="m 716.98725,380.22197 c 0,-0.928 0.016,-1.568 0.064,-2.112 l -1.248,0 -0.048,1.168 -0.032,0 c -0.352,-0.656 -1.072,-1.344 -2.416,-1.344 -1.792,0 -3.504,1.47201 -3.504,4.096 0,2.16 1.376,3.792 3.296,3.792 1.2,0 2.048,-0.576 2.464,-1.296 l 0.032,0 0,0.848 c 0,1.968 -1.056,2.72 -2.496,2.72 -0.96,0 -1.76,-0.288 -2.272,-0.624 l -0.352,1.088 c 0.624,0.416 1.648,0.64 2.576,0.64 0.976,0 2.064,-0.24 2.832,-0.928 0.736,-0.688 1.104,-1.76 1.104,-3.552 l 0,-4.496 m -1.408,2.32 c 0,0.256 -0.032,0.528 -0.112,0.752 -0.288,0.912 -1.072,1.456 -1.952,1.456 -1.504,0 -2.288,-1.28 -2.288,-2.784 0,-1.80799 0.96,-2.944 2.304,-2.944 1.04,0 1.712,0.672 1.968,1.504 0.064,0.192 0.08,0.4 0.08,0.624 l 0,1.392"
         id="path5831"
         inkscape:connector-curvature="0" />
      <path
         d="m 720.615,385.85397 0,-7.744 -1.408,0 0,7.744 1.408,0 m -0.72,-9.056 c 0.544,0 0.88,-0.4 0.88,-0.864 0,-0.496 -0.352,-0.88 -0.864,-0.88 -0.528,0 -0.88,0.384 -0.88,0.88 0,0.464 0.336,0.864 0.848,0.864 l 0.016,0"
         id="path5833"
         inkscape:connector-curvature="0" />
      <path
         d="m 728.237,384.50997 c -0.4,0.176 -0.928,0.368 -1.728,0.368 -1.536,0 -2.688,-1.104 -2.688,-2.896 0,-1.6 0.96,-2.928 2.736,-2.928 0.768,0 1.296,0.192 1.632,0.368 l 0.32,-1.072 c -0.384,-0.208 -1.12,-0.416 -1.952,-0.416 -2.528,0 -4.16,1.74401 -4.16,4.128 0,2.368 1.52,3.952 3.856,3.952 1.04,0 1.856,-0.272 2.224,-0.448 l -0.24,-1.056"
         id="path5835"
         inkscape:connector-curvature="0" />
    </g>
    <path
       style="fill:none;stroke:#000000;stroke-width:1.77165353;stroke-linecap:butt;stroke-linejoin:miter;stroke-miterlimit:4;stroke-opacity:1;stroke-dasharray:none;marker-end:url(#Arrow1Mend)"
       d="m 630.33519,382.63105 27.27412,0"
       id="path5360"
       inkscape:connector-curvature="0" />
    <path
       inkscape:connector-curvature="0"
       id="path5736"
       d="M 672.13092,418.4001 C 638.78574,431.53215 584.87983,431.11313 518.55729,409.30893 447.62707,385.98991 290.91596,391.12618 197.29834,391.12618"
       style="fill:none;stroke:#000000;stroke-width:1.77165353;stroke-linecap:butt;stroke-linejoin:miter;stroke-miterlimit:4;stroke-opacity:1;stroke-dasharray:none;marker-end:url(#Arrow1Mend)"
       sodipodi:nodetypes="csc" />
    <path
       style="fill:none;stroke:#000000;stroke-width:1.77165353;stroke-linecap:butt;stroke-linejoin:miter;stroke-miterlimit:4;stroke-opacity:1;stroke-dasharray:none;marker-end:url(#Arrow1Mend)"
       d="m 195.9696,379.12598 314.21833,0"
       id="path5548"
       inkscape:connector-curvature="0" />
    <g
       style="font-size:16px;font-style:normal;font-variant:normal;font-weight:normal;font-stretch:normal;text-align:center;line-height:125%;letter-spacing:0px;word-spacing:0px;writing-mode:lr-tb;text-anchor:middle;fill:#000000;fill-opacity:1;stroke:none;font-family:Myriad Pro;-inkscape-font-specification:Myriad Pro"
       id="text5746">
      <path
         d="m 289.27902,371.64508 c 0,0.688 -0.016,1.472 -0.064,2 l 1.216,0 0.08,-1.28 0.032,0 c 0.592,1.024 1.472,1.456 2.592,1.456 1.728,0 3.488,-1.376 3.488,-4.16 0,-2.336 -1.344,-3.936 -3.264,-3.936 -1.248,0 -2.144,0.544 -2.64,1.408 l -0.032,0 0,-4.848 -1.408,0 0,9.36 m 1.408,-2.496 c 0,-0.224 0.032,-0.416 0.08,-0.592 0.272,-1.056 1.168,-1.728 2.128,-1.728 1.504,0 2.304,1.328 2.304,2.896 0,1.776 -0.864,2.976 -2.352,2.976 -1.008,0 -1.84,-0.672 -2.112,-1.648 -0.032,-0.16 -0.048,-0.336 -0.048,-0.512 l 0,-1.392"
         id="path5905"
         inkscape:connector-curvature="0" />
      <path
         d="m 303.82877,368.89308 c 0,-1.552 -0.576,-3.168 -2.96,-3.168 -0.976,0 -1.92,0.272 -2.56,0.672 l 0.32,0.944 c 0.544,-0.368 1.296,-0.576 2.032,-0.576 1.584,-0.016 1.76,1.152 1.76,1.792 l 0,0.16 c -2.99199,-0.016 -4.656,1.008 -4.656,2.88 0,1.12 0.8,2.224 2.368,2.224 1.104,0 1.952,-0.544 2.368,-1.152 l 0.048,0 0.128,0.976 1.264,0 c -0.08,-0.528 -0.112,-1.184 -0.112,-1.856 l 0,-2.896 m -1.376,2.144 c 0,0.144 -0.016,0.304 -0.064,0.448 -0.224,0.656 -0.88,1.296 -1.904,1.296 -0.704,0 -1.312,-0.416 -1.312,-1.344 0,-1.504 1.744,-1.776 3.28,-1.744 l 0,1.344"
         id="path5907"
         inkscape:connector-curvature="0" />
      <path
         d="m 305.56352,373.26108 c 0.544,0.32 1.328,0.544 2.176,0.544 1.808,0 2.88,-0.96 2.88,-2.336 0,-1.152 -0.704,-1.824 -2.032,-2.32 -1.008,-0.4 -1.456,-0.688 -1.456,-1.328 0,-0.576 0.448,-1.056 1.28,-1.056 0.72,0 1.28,0.272 1.584,0.448 l 0.336,-1.008 c -0.416,-0.272 -1.104,-0.48 -1.888,-0.48 -1.648,0 -2.672,1.024 -2.672,2.272 0,0.912 0.656,1.68 2.064,2.192 1.024,0.384 1.424,0.736 1.424,1.408 0,0.656 -0.48,1.152 -1.488,1.152 -0.704,0 -1.44,-0.288 -1.872,-0.544 l -0.336,1.056"
         id="path5909"
         inkscape:connector-curvature="0" />
      <path
         d="m 313.84327,373.64508 0,-7.744 -1.408,0 0,7.744 1.408,0 m -0.72,-9.056 c 0.544,0 0.88,-0.4 0.88,-0.864 0,-0.496 -0.352,-0.88 -0.864,-0.88 -0.528,0 -0.88,0.384 -0.88,0.88 0,0.464 0.336,0.864 0.848,0.864 l 0.016,0"
         id="path5911"
         inkscape:connector-curvature="0" />
      <path
         d="m 321.46527,372.30108 c -0.4,0.176 -0.928,0.368 -1.728,0.368 -1.536,0 -2.688,-1.104 -2.688,-2.896 0,-1.6 0.96,-2.928 2.736,-2.928 0.768,0 1.296,0.192 1.632,0.368 l 0.32,-1.072 c -0.384,-0.208 -1.12,-0.416 -1.952,-0.416 -2.52799,0 -4.16,1.744 -4.16,4.128 0,2.368 1.52001,3.952 3.856,3.952 1.04,0 1.856,-0.272 2.224,-0.448 l -0.24,-1.056"
         id="path5913"
         inkscape:connector-curvature="0" />
      <path
         d="m 323.79327,373.82108 c 0.576,0 0.96,-0.432 0.96,-1.008 0,-0.592 -0.384,-1.008 -0.944,-1.008 -0.56,0 -0.96,0.432 -0.96,1.008 0,0.576 0.384,1.008 0.928,1.008 l 0.016,0"
         id="path5915"
         inkscape:connector-curvature="0" />
      <path
         d="m 331.77777,362.28508 0,4.608 -0.032,0 c -0.336,-0.608 -1.136,-1.168 -2.336,-1.168 -1.872,0 -3.488,1.568 -3.472,4.16 0,2.352 1.456,3.936 3.328,3.936 1.264,0 2.192,-0.656 2.624,-1.52 l 0.032,0 0.064,1.344 1.264,0 c -0.048,-0.528 -0.064,-1.312 -0.064,-2 l 0,-9.36 -1.408,0 m 0,8.112 c 0,0.224 -0.016,0.416 -0.064,0.592 -0.256,1.056 -1.12,1.696 -2.064,1.696 -1.504,0 -2.288,-1.296 -2.288,-2.88 0,-1.696 0.864,-2.976 2.32,-2.976 1.056,0 1.824,0.736 2.032,1.616 0.048,0.192 0.064,0.416 0.064,0.608 l 0,1.344"
         id="path5917"
         inkscape:connector-curvature="0" />
      <path
         d="m 341.75302,370.02908 c 0.032,-0.16 0.048,-0.368 0.048,-0.656 0,-1.424 -0.656,-3.648 -3.184,-3.648 -2.25599,0 -3.648,1.84 -3.648,4.176 0,2.32 1.44001,3.904 3.808,3.904 1.232,0 2.096,-0.272 2.592,-0.496 l -0.256,-1.008 c -0.512,0.224 -1.136,0.4 -2.144,0.4 -1.408,0 -2.608,-0.784 -2.64,-2.672 l 5.424,0 m -5.408,-1.008 c 0.112,-0.976 0.72,-2.288 2.16,-2.288 1.568,0 1.952,1.392 1.936,2.288 l -4.096,0"
         id="path5919"
         inkscape:connector-curvature="0" />
      <path
         d="m 343.56027,373.64508 1.408,0 0,-11.36 -1.408,0 0,11.36"
         id="path5921"
         inkscape:connector-curvature="0" />
      <path
         d="m 348.74952,373.64508 0,-7.744 -1.408,0 0,7.744 1.408,0 m -0.72,-9.056 c 0.544,0 0.88,-0.4 0.88,-0.864 0,-0.496 -0.352,-0.88 -0.864,-0.88 -0.528,0 -0.88,0.384 -0.88,0.88 0,0.464 0.336,0.864 0.848,0.864 l 0.016,0"
         id="path5923"
         inkscape:connector-curvature="0" />
      <path
         d="m 350.13152,365.90108 2.944,7.744 1.344,0 3.04,-7.744 -1.472,0 -1.504,4.336 c -0.256,0.72 -0.48,1.36 -0.656,2 l -0.048,0 c -0.16,-0.64 -0.368,-1.28 -0.624,-2 l -1.52,-4.336 -1.504,0"
         id="path5925"
         inkscape:connector-curvature="0" />
      <path
         d="m 364.84677,370.02908 c 0.032,-0.16 0.048,-0.368 0.048,-0.656 0,-1.424 -0.656,-3.648 -3.184,-3.648 -2.25599,0 -3.648,1.84 -3.648,4.176 0,2.32 1.44001,3.904 3.808,3.904 1.232,0 2.096,-0.272 2.592,-0.496 l -0.256,-1.008 c -0.512,0.224 -1.136,0.4 -2.144,0.4 -1.408,0 -2.608,-0.784 -2.64,-2.672 l 5.424,0 m -5.408,-1.008 c 0.112,-0.976 0.72,-2.288 2.16,-2.288 1.568,0 1.952,1.392 1.936,2.288 l -4.096,0"
         id="path5927"
         inkscape:connector-curvature="0" />
      <path
         d="m 366.65402,373.64508 1.408,0 0,-4.144 c 0,-0.224 0.016,-0.448 0.048,-0.656 0.192,-1.04 0.896,-1.792 1.888,-1.792 0.192,0 0.336,0.016 0.48,0.032 l 0,-1.328 c -0.128,-0.016 -0.24,-0.032 -0.384,-0.032 -0.944,0 -1.808,0.656 -2.16,1.696 l -0.048,0 -0.064,-1.52 -1.232,0 c 0.048,0.72 0.064,1.504 0.064,2.416 l 0,5.328"
         id="path5929"
         inkscape:connector-curvature="0" />
      <path
         d="m 377.23102,362.54108 c -1.008,1.344 -2.08,3.408 -2.096,6.544 0,3.12 1.088,5.168 2.096,6.496 l 1.088,0 c -1.12,-1.6 -2,-3.632 -2,-6.48 0,-2.912 0.832,-4.976 2,-6.56 l -1.088,0"
         id="path5931"
         inkscape:connector-curvature="0" />
      <path
         d="m 385.57027,363.24508 -4.976,0 -0.672,4.992 c 0.384,-0.064 0.848,-0.112 1.456,-0.112 2.064,0 2.976,0.96 2.976,2.288 0.016,1.408 -1.136,2.272 -2.448,2.272 -0.96,0 -1.808,-0.32 -2.24,-0.576 l -0.352,1.072 c 0.512,0.32 1.456,0.64 2.592,0.64 2.256,0 3.872,-1.52 3.872,-3.552 0,-1.312 -0.672,-2.224 -1.488,-2.672 -0.64,-0.384 -1.424,-0.56 -2.24,-0.56 -0.384,0 -0.608,0.032 -0.848,0.064 l 0.4,-2.672 3.968,0 0,-1.184"
         id="path5933"
         inkscape:connector-curvature="0" />
      <path
         d="m 390.90902,373.82108 c 2.272,0 3.6,-1.952 3.6,-5.488 0,-3.312 -1.264,-5.264 -3.44,-5.264 -2.11199,0 -3.632,1.904 -3.632,5.408 0.032,3.44 1.424,5.344 3.456,5.344 l 0.016,0 m 0.048,-1.088 c -1.296,0 -2.128,-1.632 -2.096,-4.336 0,-2.608 0.832,-4.24 2.112,-4.24 1.472,0 2.112,1.68 2.112,4.24 0,2.656 -0.688,4.336 -2.112,4.336 l -0.016,0"
         id="path5935"
         inkscape:connector-curvature="0" />
      <path
         d="m 396.24777,373.64508 1.376,0 0,-4.672 c 0,-0.24 0.032,-0.48 0.112,-0.688 0.224,-0.704 0.88,-1.408 1.744,-1.408 1.072,0 1.616,0.88 1.616,2.112 l 0,4.656 1.376,0 0,-4.8 c 0,-0.24 0.048,-0.496 0.112,-0.704 0.256,-0.672 0.864,-1.264 1.68,-1.264 1.12,0 1.68,0.88 1.68,2.384 l 0,4.384 1.376,0 0,-4.56 c 0,-2.688 -1.52,-3.36 -2.56,-3.36 -0.736,0 -1.232,0.192 -1.696,0.544 -0.32,0.24 -0.64,0.56 -0.88,1.008 l -0.032,0 c -0.336,-0.912 -1.136,-1.552 -2.176,-1.552 -1.296,0 -2.016,0.688 -2.448,1.424 l -0.048,0 -0.064,-1.248 -1.232,0 c 0.032,0.64 0.064,1.28 0.064,2.096 l 0,5.648"
         id="path5937"
         inkscape:connector-curvature="0" />
      <path
         d="m 409.06352,373.26108 c 0.544,0.32 1.328,0.544 2.176,0.544 1.808,0 2.88,-0.96 2.88,-2.336 0,-1.152 -0.704,-1.824 -2.032,-2.32 -1.008,-0.4 -1.456,-0.688 -1.456,-1.328 0,-0.576 0.448,-1.056 1.28,-1.056 0.72,0 1.28,0.272 1.584,0.448 l 0.336,-1.008 c -0.416,-0.272 -1.104,-0.48 -1.888,-0.48 -1.648,0 -2.672,1.024 -2.672,2.272 0,0.912 0.656,1.68 2.064,2.192 1.024,0.384 1.424,0.736 1.424,1.408 0,0.656 -0.48,1.152 -1.488,1.152 -0.704,0 -1.44,-0.288 -1.872,-0.544 l -0.336,1.056"
         id="path5939"
         inkscape:connector-curvature="0" />
      <path
         d="m 416.17527,375.58108 c 1.008,-1.36 2.08,-3.392 2.096,-6.528 0,-3.136 -1.088,-5.2 -2.096,-6.512 l -1.088,0 c 1.136,1.6 2,3.632 2,6.512 0,2.88 -0.88,4.944 -2,6.528 l 1.088,0"
         id="path5941"
         inkscape:connector-curvature="0" />
    </g>
    <g
       style="font-size:16px;font-style:normal;font-variant:normal;font-weight:normal;font-stretch:normal;text-align:center;line-height:125%;letter-spacing:0px;word-spacing:0px;writing-mode:lr-tb;text-anchor:middle;fill:#000000;fill-opacity:1;stroke:none;font-family:Myriad Pro;-inkscape-font-specification:Myriad Pro"
       id="text5750">
      <path
         d="m 300.77902,404.03088 c 0,0.688 -0.016,1.472 -0.064,2 l 1.216,0 0.08,-1.28 0.032,0 c 0.592,1.024 1.472,1.456 2.592,1.456 1.728,0 3.488,-1.376 3.488,-4.16 0,-2.33599 -1.344,-3.936 -3.264,-3.936 -1.248,0 -2.144,0.544 -2.64,1.408 l -0.032,0 0,-4.848 -1.408,0 0,9.36 m 1.408,-2.496 c 0,-0.224 0.032,-0.416 0.08,-0.592 0.272,-1.056 1.168,-1.728 2.128,-1.728 1.504,0 2.304,1.32801 2.304,2.896 0,1.776 -0.864,2.976 -2.352,2.976 -1.008,0 -1.84,-0.672 -2.112,-1.648 -0.032,-0.16 -0.048,-0.336 -0.048,-0.512 l 0,-1.392"
         id="path5874"
         inkscape:connector-curvature="0" />
      <path
         d="m 315.32877,401.27888 c 0,-1.55199 -0.576,-3.168 -2.96,-3.168 -0.976,0 -1.92,0.272 -2.56,0.672 l 0.32,0.944 c 0.544,-0.368 1.296,-0.576 2.032,-0.576 1.584,-0.016 1.76,1.152 1.76,1.792 l 0,0.16 c -2.99199,-0.016 -4.656,1.00801 -4.656,2.88 0,1.12 0.8,2.224 2.368,2.224 1.104,0 1.952,-0.544 2.368,-1.152 l 0.048,0 0.128,0.976 1.264,0 c -0.08,-0.528 -0.112,-1.184 -0.112,-1.856 l 0,-2.896 m -1.376,2.144 c 0,0.144 -0.016,0.304 -0.064,0.448 -0.224,0.656 -0.88,1.296 -1.904,1.296 -0.704,0 -1.312,-0.416 -1.312,-1.344 0,-1.50399 1.744,-1.776 3.28,-1.744 l 0,1.344"
         id="path5876"
         inkscape:connector-curvature="0" />
      <path
         d="m 317.06352,405.64688 c 0.544,0.32 1.328,0.544 2.176,0.544 1.808,0 2.88,-0.96 2.88,-2.336 0,-1.152 -0.704,-1.824 -2.032,-2.32 -1.008,-0.4 -1.456,-0.688 -1.456,-1.328 0,-0.576 0.448,-1.056 1.28,-1.056 0.72,0 1.28,0.272 1.584,0.448 l 0.336,-1.008 c -0.416,-0.272 -1.104,-0.48 -1.888,-0.48 -1.648,0 -2.672,1.02401 -2.672,2.272 0,0.912 0.656,1.68 2.064,2.192 1.024,0.384 1.424,0.736 1.424,1.408 0,0.656 -0.48,1.152 -1.488,1.152 -0.704,0 -1.44,-0.288 -1.872,-0.544 l -0.336,1.056"
         id="path5878"
         inkscape:connector-curvature="0" />
      <path
         d="m 325.34327,406.03088 0,-7.744 -1.408,0 0,7.744 1.408,0 m -0.72,-9.056 c 0.544,0 0.88,-0.4 0.88,-0.864 0,-0.496 -0.352,-0.88 -0.864,-0.88 -0.528,0 -0.88,0.384 -0.88,0.88 0,0.464 0.336,0.864 0.848,0.864 l 0.016,0"
         id="path5880"
         inkscape:connector-curvature="0" />
      <path
         d="m 332.96527,404.68688 c -0.4,0.176 -0.928,0.368 -1.728,0.368 -1.536,0 -2.688,-1.104 -2.688,-2.896 0,-1.59999 0.96,-2.928 2.736,-2.928 0.768,0 1.296,0.192 1.632,0.368 l 0.32,-1.072 c -0.384,-0.208 -1.12,-0.416 -1.952,-0.416 -2.52799,0 -4.16,1.74401 -4.16,4.128 0,2.368 1.52001,3.952 3.856,3.952 1.04,0 1.856,-0.272 2.224,-0.448 l -0.24,-1.056"
         id="path5882"
         inkscape:connector-curvature="0" />
      <path
         d="m 335.29327,406.20688 c 0.576,0 0.96,-0.432 0.96,-1.008 0,-0.592 -0.384,-1.008 -0.944,-1.008 -0.56,0 -0.96,0.432 -0.96,1.008 0,0.576 0.384,1.008 0.928,1.008 l 0.016,0"
         id="path5884"
         inkscape:connector-curvature="0" />
      <path
         d="m 343.45377,401.27888 c 0,-1.55199 -0.576,-3.168 -2.96,-3.168 -0.976,0 -1.92,0.272 -2.56,0.672 l 0.32,0.944 c 0.544,-0.368 1.296,-0.576 2.032,-0.576 1.584,-0.016 1.76,1.152 1.76,1.792 l 0,0.16 c -2.99199,-0.016 -4.656,1.00801 -4.656,2.88 0,1.12 0.8,2.224 2.368,2.224 1.104,0 1.952,-0.544 2.368,-1.152 l 0.048,0 0.128,0.976 1.264,0 c -0.08,-0.528 -0.112,-1.184 -0.112,-1.856 l 0,-2.896 m -1.376,2.144 c 0,0.144 -0.016,0.304 -0.064,0.448 -0.224,0.656 -0.88,1.296 -1.904,1.296 -0.704,0 -1.312,-0.416 -1.312,-1.344 0,-1.50399 1.744,-1.776 3.28,-1.744 l 0,1.344"
         id="path5886"
         inkscape:connector-curvature="0" />
      <path
         d="m 350.99652,404.68688 c -0.4,0.176 -0.928,0.368 -1.728,0.368 -1.536,0 -2.688,-1.104 -2.688,-2.896 0,-1.59999 0.96,-2.928 2.736,-2.928 0.768,0 1.296,0.192 1.632,0.368 l 0.32,-1.072 c -0.384,-0.208 -1.12,-0.416 -1.952,-0.416 -2.52799,0 -4.16,1.74401 -4.16,4.128 0,2.368 1.52001,3.952 3.856,3.952 1.04,0 1.856,-0.272 2.224,-0.448 l -0.24,-1.056"
         id="path5888"
         inkscape:connector-curvature="0" />
      <path
         d="m 354.28077,394.67088 -1.408,0 0,11.36 1.408,0 0,-2.912 0.72,-0.8 2.656,3.712 1.712,0 -3.408,-4.56 2.992,-3.184 -1.68,0 -2.288,2.672 c -0.224,0.272 -0.48,0.608 -0.672,0.88 l -0.032,0 0,-7.168"
         id="path5890"
         inkscape:connector-curvature="0" />
      <path
         d="m 365.73102,394.92688 c -1.008,1.344 -2.08,3.40801 -2.096,6.544 0,3.12 1.088,5.16801 2.096,6.496 l 1.088,0 c -1.12,-1.59999 -2,-3.632 -2,-6.48 0,-2.91199 0.832,-4.976 2,-6.56 l -1.088,0"
         id="path5892"
         inkscape:connector-curvature="0" />
      <path
         d="m 374.07027,395.63088 -4.976,0 -0.672,4.992 c 0.384,-0.064 0.848,-0.112 1.456,-0.112 2.064,0 2.976,0.96001 2.976,2.288 0.016,1.408 -1.136,2.272 -2.448,2.272 -0.96,0 -1.808,-0.32 -2.24,-0.576 l -0.352,1.072 c 0.512,0.32 1.456,0.64 2.592,0.64 2.256,0 3.872,-1.52 3.872,-3.552 0,-1.31199 -0.672,-2.224 -1.488,-2.672 -0.64,-0.384 -1.424,-0.56 -2.24,-0.56 -0.384,0 -0.608,0.032 -0.848,0.064 l 0.4,-2.672 3.968,0 0,-1.184"
         id="path5894"
         inkscape:connector-curvature="0" />
      <path
         d="m 379.40902,406.20688 c 2.272,0 3.6,-1.952 3.6,-5.488 0,-3.31199 -1.264,-5.264 -3.44,-5.264 -2.11199,0 -3.632,1.90401 -3.632,5.408 0.032,3.44 1.424,5.344 3.456,5.344 l 0.016,0 m 0.048,-1.088 c -1.296,0 -2.128,-1.632 -2.096,-4.336 0,-2.60799 0.832,-4.24 2.112,-4.24 1.472,0 2.112,1.68001 2.112,4.24 0,2.656 -0.688,4.336 -2.112,4.336 l -0.016,0"
         id="path5896"
         inkscape:connector-curvature="0" />
      <path
         d="m 384.74777,406.03088 1.376,0 0,-4.672 c 0,-0.24 0.032,-0.48 0.112,-0.688 0.224,-0.704 0.88,-1.408 1.744,-1.408 1.072,0 1.616,0.88001 1.616,2.112 l 0,4.656 1.376,0 0,-4.8 c 0,-0.24 0.048,-0.496 0.112,-0.704 0.256,-0.672 0.864,-1.264 1.68,-1.264 1.12,0 1.68,0.88001 1.68,2.384 l 0,4.384 1.376,0 0,-4.56 c 0,-2.68799 -1.52,-3.36 -2.56,-3.36 -0.736,0 -1.232,0.192 -1.696,0.544 -0.32,0.24 -0.64,0.56 -0.88,1.008 l -0.032,0 c -0.336,-0.912 -1.136,-1.552 -2.176,-1.552 -1.296,0 -2.016,0.688 -2.448,1.424 l -0.048,0 -0.064,-1.248 -1.232,0 c 0.032,0.64 0.064,1.28 0.064,2.096 l 0,5.648"
         id="path5898"
         inkscape:connector-curvature="0" />
      <path
         d="m 397.56352,405.64688 c 0.544,0.32 1.328,0.544 2.176,0.544 1.808,0 2.88,-0.96 2.88,-2.336 0,-1.152 -0.704,-1.824 -2.032,-2.32 -1.008,-0.4 -1.456,-0.688 -1.456,-1.328 0,-0.576 0.448,-1.056 1.28,-1.056 0.72,0 1.28,0.272 1.584,0.448 l 0.336,-1.008 c -0.416,-0.272 -1.104,-0.48 -1.888,-0.48 -1.648,0 -2.672,1.02401 -2.672,2.272 0,0.912 0.656,1.68 2.064,2.192 1.024,0.384 1.424,0.736 1.424,1.408 0,0.656 -0.48,1.152 -1.488,1.152 -0.704,0 -1.44,-0.288 -1.872,-0.544 l -0.336,1.056"
         id="path5900"
         inkscape:connector-curvature="0" />
      <path
         d="m 404.67527,407.96688 c 1.008,-1.35999 2.08,-3.392 2.096,-6.528 0,-3.13599 -1.088,-5.2 -2.096,-6.512 l -1.088,0 c 1.136,1.6 2,3.63201 2,6.512 0,2.88 -0.88,4.94401 -2,6.528 l 1.088,0"
         id="path5902"
         inkscape:connector-curvature="0" />
    </g>
    <g
       style="font-size:16px;font-style:normal;font-variant:normal;font-weight:normal;font-stretch:normal;text-align:center;line-height:125%;letter-spacing:0px;word-spacing:0px;writing-mode:lr-tb;text-anchor:middle;fill:#000000;fill-opacity:1;stroke:none;font-family:Myriad Pro;-inkscape-font-specification:Myriad Pro"
       id="text5971">
      <path
         d="m 689.65598,403.84424 0,-2.848 1.456,0 0,-1.088 -1.456,0 0,-6.464 -1.52,0 -4.64,6.64 0,0.912 4.832,0 0,2.848 1.328,0 m -4.736,-3.936 0,-0.032 2.544,-3.536 c 0.288,-0.48 0.544,-0.928 0.864,-1.536 l 0.048,0 c -0.032,0.544 -0.048,1.088 -0.048,1.632 l 0,3.472 -3.408,0"
         id="path5976"
         inkscape:connector-curvature="0" />
      <path
         d="m 692.64273,403.84424 1.376,0 0,-4.672 c 0,-0.24 0.032,-0.48 0.112,-0.688 0.224,-0.704 0.88,-1.408 1.744,-1.408 1.072,0 1.616,0.88 1.616,2.112 l 0,4.656 1.376,0 0,-4.8 c 0,-0.24 0.048,-0.496 0.112,-0.704 0.256,-0.672 0.864,-1.264 1.68,-1.264 1.12,0 1.68,0.88 1.68,2.384 l 0,4.384 1.376,0 0,-4.56 c 0,-2.688 -1.52,-3.36 -2.56,-3.36 -0.736,0 -1.232,0.192 -1.696,0.544 -0.32,0.24 -0.64,0.56 -0.88,1.008 l -0.032,0 c -0.336,-0.912 -1.136,-1.552 -2.176,-1.552 -1.296,0 -2.016,0.688 -2.448,1.424 l -0.048,0 -0.064,-1.248 -1.232,0 c 0.032,0.64 0.064,1.28 0.064,2.096 l 0,5.648"
         id="path5978"
         inkscape:connector-curvature="0" />
      <path
         d="m 705.45848,403.46024 c 0.544,0.32 1.328,0.544 2.176,0.544 1.808,0 2.88,-0.96 2.88,-2.336 0,-1.152 -0.704,-1.824 -2.032,-2.32 -1.008,-0.4 -1.456,-0.688 -1.456,-1.328 0,-0.576 0.448,-1.056 1.28,-1.056 0.72,0 1.28,0.272 1.584,0.448 l 0.336,-1.008 c -0.416,-0.272 -1.104,-0.48 -1.888,-0.48 -1.648,0 -2.672,1.024 -2.672,2.272 0,0.912 0.656,1.68 2.064,2.192 1.024,0.384 1.424,0.736 1.424,1.408 0,0.656 -0.48,1.152 -1.488,1.152 -0.704,0 -1.44,-0.288 -1.872,-0.544 l -0.336,1.056"
         id="path5980"
         inkscape:connector-curvature="0" />
    </g>
  </g>
</svg>
