<?xml version="1.0" encoding="UTF-8"?>
<svg width="260px" height="399px" viewBox="0 0 260 399" version="1.1" xmlns="http://www.w3.org/2000/svg" xmlns:xlink="http://www.w3.org/1999/xlink">
    <!-- Generator: Sketch 49.1 (51147) - http://www.bohemiancoding.com/sketch -->
    <title>hero-iphone_2</title>
    <desc>Created with Sketch.</desc>
    <defs>
        <path d="M202,367.577514 C202.406088,363.705528 202.997806,360.950606 203.775152,359.312748 C204.552498,357.674889 206.388379,355.893925 209.282795,353.969856 C209.922057,351.895779 210.917512,350.188879 212.26916,348.849155 C214.296632,346.839569 216.642325,346.744948 220.025056,346.96996 C223.407786,347.194971 225.881049,347.275936 227.237719,346.558529 C228.142165,346.080258 228.716467,345.560748 228.960624,345 L229.903043,345.426871 C229.657945,346.320334 229.343806,346.995687 228.960624,347.452932 C228.385852,348.138799 226.326841,349.366488 224.635475,349.253982 C222.94411,349.141477 216.657389,348.611899 214.518822,349.360847 C213.093111,349.860145 212.119153,351.104309 211.596948,353.093338 C211.852088,353.44451 213.006184,353.679094 215.059234,353.797091 C218.138809,353.974087 219.222452,356.942567 219.381562,357.90005 C219.540673,358.857533 217.799882,362.000188 214.241565,361.902747 C211.869354,361.837787 210.231966,360.076439 209.3294,356.618705 C208.009762,357.756325 206.892228,358.925955 205.976799,360.127595 C205.061369,361.329236 204.241029,363.892567 203.51578,367.81759 L202,367.577514 Z M211.164811,355.821742 C211.600089,357.651661 212.333501,358.907279 213.365048,359.588595 C214.912367,360.610568 216.843809,359.207294 217.242995,358.648997 C217.642182,358.0907 216.638094,355.600962 214.467987,355.568012 C213.021249,355.546045 211.92019,355.630622 211.164811,355.821742 Z" id="path-1"></path>
        <circle id="path-2" cx="44.6900684" cy="371.690068" r="2.69006842"></circle>
    </defs>
    <g id="hero-iphone_2" stroke="none" stroke-width="1" fill="none" fill-rule="evenodd">
        <path d="M4,398 L256,398" id="Path-11" stroke="#F06823" stroke-width="3" stroke-linecap="round"></path>
        <path d="M31.0524034,350.392393 C32.4982766,347.77813 33.8700694,346.043475 35.1677816,345.18843 C36.6596928,344.20543 37.5989584,343.756114 37.9855786,343.840481 C38.6496796,341.368279 39.6079072,339.832633 40.8602614,339.233545 C42.7387927,338.334912 50.6616017,338.007493 52.0745635,337.100734 C53.016538,336.496228 54.748006,335.129316 57.2689675,333 L58.870018,334.657936 C55.7066263,338.017936 53.6566521,339.844999 52.7200953,340.139126 C51.31526,340.580316 45.9571469,340.719645 44.3235902,340.923987 C42.6900335,341.128329 41.2770717,342.035089 41.4976666,342.737506 C41.7182616,343.439924 42.7840778,342.410677 45.20597,343.733658 C47.6278622,345.056638 49.0617294,349.622353 47.403793,351.223403 C45.7458567,352.824454 43.1649077,353.943682 40.4121231,351.567075 C38.5769334,349.98267 37.8253638,348.572417 38.1574143,347.336316 C37.0792119,346.851784 36.2216044,347.06967 35.5845919,347.989974 C35.1032007,348.685449 34.6202626,349.46955 34.1357774,350.342278 C35.5699565,350.475941 37.1178405,350.852239 38.5417184,352.000138 C40.6083385,353.666201 41.7194398,356.712719 40.7557945,358.558744 C39.7921492,360.40477 36.4818743,361.716728 33.7559981,359.367985 C31.9387473,357.802157 30.808684,355.841967 30.3658082,353.487417 L24.7545939,354.786607 L24.3296571,352.450633 C27.3505518,351.348877 29.5914673,350.662797 31.0524034,350.392393 Z M37.341225,354.074885 C36.3306698,353.028424 34.8752101,352.794513 34.0903647,353.552429 C33.3055193,354.310346 33.4884932,355.773082 34.4990484,356.819543 C35.5096036,357.866003 36.9650634,358.099914 37.7499088,357.341998 C38.5347542,356.584082 38.3517802,355.121345 37.341225,354.074885 Z M44.4629197,346.2821 C43.4523645,345.23564 41.9969047,345.001729 41.2120593,345.759645 C40.4272139,346.517561 40.6101879,347.980298 41.620743,349.026758 C42.6312982,350.073219 44.086758,350.30713 44.8716034,349.549214 C45.6564488,348.791297 45.4734748,347.328561 44.4629197,346.2821 Z" id="Combined-Shape" fill="#876E8C" transform="translate(41.599838, 346.815700) rotate(-300.000000) translate(-41.599838, -346.815700) "></path>
        <circle id="Oval-5" fill="#876E8C" cx="155.842955" cy="364.842955" r="3.84295489"></circle>
        <g id="Combined-Shape" stroke-linecap="round">
            <use fill="#FFFFFF" fill-rule="evenodd" xlink:href="#path-1"></use>
            <path stroke="#8B7490" stroke-width="2" d="M208.436583,353.333486 C209.1258,351.259056 210.168535,349.523259 211.565193,348.138922 C213.622155,346.100106 215.753625,345.683624 220.091426,345.972165 C224.070475,346.236841 225.819719,346.17716 226.770253,345.674518 C227.492517,345.292584 227.905022,344.919435 228.043766,344.600787 L228.44887,343.670399 L231.093249,344.868177 L230.867415,345.69142 C230.58736,346.712314 230.214824,347.513211 229.727075,348.095235 C228.781471,349.22361 226.362751,350.371087 224.569104,350.251777 C224.661535,350.257926 223.193932,350.154547 222.620692,350.118526 C221.464191,350.045854 220.406925,349.996974 219.409845,349.976934 C217.229794,349.933116 215.605,350.040007 214.849349,350.304643 C213.953622,350.618336 213.276701,351.341735 212.818465,352.545554 C212.82985,352.54794 212.841383,352.55032 212.853064,352.552694 C213.3756,352.658906 214.133662,352.742244 215.116613,352.798739 C218.136367,352.972296 219.976365,355.379159 220.368035,357.736122 C220.728943,359.907971 217.752118,362.999255 214.214191,362.902372 C211.737234,362.834544 209.943562,361.27571 208.84984,358.410324 C208.063613,359.172848 207.371214,359.947381 206.772264,360.733594 C205.981097,361.772122 205.197114,364.221848 204.499134,367.99929 L204.322033,368.957753 L200.906494,368.416785 L201.005455,367.473208 C201.422406,363.497646 202.034432,360.648172 202.871738,358.883977 C203.714529,357.108227 205.571226,355.275884 208.436583,353.333486 Z M212.4434,356.628068 C212.814322,357.65342 213.311237,358.354624 213.916169,358.754169 C214.57912,359.192035 215.793458,358.754802 216.317214,358.202474 C216.314739,358.18952 216.311831,358.175652 216.308454,358.160976 C216.261365,357.956371 216.149929,357.706538 215.991429,357.472895 C215.612096,356.913726 215.076322,356.577364 214.452805,356.567896 C213.667797,356.555977 212.996567,356.576803 212.4434,356.628068 Z M216.329127,358.299246 C216.328999,358.300926 216.328892,358.302579 216.328805,358.304204 C216.32904,358.299815 216.329007,358.29421 216.328671,358.287484 Z"></path>
        </g>
        <path d="M83.2499558,339.358318 L87.0018904,334 L87.676948,336.602134 C88.065878,338.101336 89.4862836,339.095915 91.028095,338.948632 C92.6110699,338.797417 94.1017049,339.716608 94.6773674,341.198933 L94.9157135,341.812672 C95.5515011,343.449819 97.1476725,344.51067 98.9032904,344.462904 C100.678022,344.414617 102.309628,345.432221 103.04698,347.04725 L103.604328,348.268016 C104.250161,349.682589 105.737433,350.516314 107.281158,350.329149 C108.800044,350.144996 110.246066,351.029912 110.773288,352.466215 L110.92553,352.880966 C111.556663,354.600351 113.199107,355.738569 115.030623,355.725804 L118,355.70511 L114.248065,361.063428 L111.658226,361.133891 C109.690373,361.187432 107.892029,360.025778 107.131706,358.209953 L106.835474,357.502482 C106.269433,356.150646 104.850003,355.363569 103.403555,355.599474 C101.947115,355.837009 100.511813,355.070667 99.8989348,353.728273 L99.295045,352.405568 C98.5576933,350.790539 96.9260875,349.772935 95.1513557,349.821222 C93.40903,349.868626 91.837386,348.780118 91.2690912,347.132396 L91.2156304,346.977391 C90.6655781,345.382562 89.128746,344.342318 87.4437177,344.424275 C85.7872759,344.504842 84.301597,343.412063 83.8851526,341.806801 L83.2499558,339.358318 Z" id="Rectangle-2" fill="#F27535"></path>
        <circle id="Oval-5" fill="#F06823" cx="163.842955" cy="340.842955" r="3.84295489"></circle>
        <g id="Oval-7" stroke-linecap="round">
            <use fill="#FFFFFF" fill-rule="evenodd" xlink:href="#path-2"></use>
            <circle stroke="#876E8C" stroke-width="2" cx="44.6900684" cy="371.690068" r="3.69006842"></circle>
        </g>
    </g>
</svg>