<?xml version="1.0" encoding="UTF-8" standalone="no"?>
<svg
   width="70.007996"
   height="70"
   viewBox="0 0 70.007996 70"
   fill="none"
   version="1.1"
   id="svg1"
   sodipodi:docname="commercial-support-icon.svg"
   inkscape:version="1.3.2 (091e20ef0f, 2023-11-25)"
   xmlns:inkscape="http://www.inkscape.org/namespaces/inkscape"
   xmlns:sodipodi="http://sodipodi.sourceforge.net/DTD/sodipodi-0.dtd"
   xmlns="http://www.w3.org/2000/svg"
   xmlns:svg="http://www.w3.org/2000/svg">
  <defs
     id="defs1" />
  <sodipodi:namedview
     id="namedview1"
     pagecolor="#ffffff"
     bordercolor="#666666"
     borderopacity="1.0"
     inkscape:showpageshadow="2"
     inkscape:pageopacity="0.0"
     inkscape:pagecheckerboard="0"
     inkscape:deskcolor="#d1d1d1"
     inkscape:zoom="6.8644795"
     inkscape:cx="11.872714"
     inkscape:cy="32.704592"
     inkscape:window-width="1916"
     inkscape:window-height="1029"
     inkscape:window-x="0"
     inkscape:window-y="0"
     inkscape:window-maximized="0"
     inkscape:current-layer="svg1" />
  <rect
     style="font-variation-settings:'wght' 500;fill:#00c1d5;fill-opacity:1;fill-rule:evenodd;stroke-width:4.6672;stroke-linecap:round;stroke-linejoin:round"
     id="rect2"
     width="13.009497"
     height="23.676506"
     x="53.622555"
     y="43.173656"
     rx="0"
     ry="0" />
  <rect
     style="font-variation-settings:'wght' 500;fill:#00c1d5;fill-opacity:1;fill-rule:evenodd;stroke-width:4.6672;stroke-linecap:round;stroke-linejoin:round"
     id="rect1"
     width="13.009497"
     height="23.676506"
     x="3.5535684"
     y="42.925335"
     rx="0"
     ry="0" />
  <path
     fill-rule="evenodd"
     clip-rule="evenodd"
     d="M 35.003973,0 C 15.339908,0.36951477 -0.31563432,16.584182 0.00483341,36.249064 V 69.998261 H 13.004559 c 3.773779,0.08389 6.904301,-2.901246 6.999745,-6.674791 V 46.67383 C 19.90886,42.900286 16.778338,39.915147 13.004559,39.99904 H 5.0047047 V 36.249064 C 4.6837649,19.345296 18.101138,5.3688627 35.003973,4.9998741 51.906808,5.3688627 65.32418,19.345296 65.003194,36.249064 v 3.749976 h -7.999808 c -3.773778,-0.08389 -6.9043,2.901246 -6.999744,6.67479 v 16.67461 c 0.108979,3.763743 3.235417,6.73383 6.999744,6.649821 H 70.003161 V 36.249064 C 70.323565,16.584182 54.668038,0.36951477 35.003973,0 Z M 13.004559,44.999007 c 1.009398,-0.07304 1.894649,0.668343 1.999894,1.67494 v 16.674609 c -0.105245,1.006598 -0.990496,1.747865 -1.999894,1.67494 H 5.0047163 V 44.999007 Z m 41.998933,1.67494 V 63.32347 c 0.105362,1.006598 0.990496,1.747982 1.999894,1.675057 h 7.999808 v -19.99952 h -7.999808 c -1.009398,-0.07304 -1.894532,0.668343 -1.999894,1.67494 z"
     fill="#FD6721"
     id="path1"
     style="fill:#1d428a;fill-opacity:1;stroke-width:1.1668" />
</svg>
