<?xml version="1.0" encoding="UTF-8" standalone="no"?>
<!-- Created with Inkscape (http://www.inkscape.org/) -->

<svg
   width="72.709274"
   height="70.000008"
   id="svg2"
   version="1.1"
   inkscape:version="1.3.2 (091e20ef0f, 2023-11-25)"
   sodipodi:docname="OSI_Keyhole.min.svg"
   xmlns:inkscape="http://www.inkscape.org/namespaces/inkscape"
   xmlns:sodipodi="http://sodipodi.sourceforge.net/DTD/sodipodi-0.dtd"
   xmlns="http://www.w3.org/2000/svg"
   xmlns:svg="http://www.w3.org/2000/svg">
  <defs
     id="defs4">
    <linearGradient
       id="linearGradient3840"
       inkscape:swatch="solid">
      <stop
         style="stop-color:#1f800b;stop-opacity:1;"
         offset="0"
         id="stop3842" />
    </linearGradient>
  </defs>
  <sodipodi:namedview
     id="base"
     pagecolor="#ffffff"
     bordercolor="#666666"
     borderopacity="1.0"
     inkscape:pageopacity="0.0"
     inkscape:pageshadow="2"
     inkscape:zoom="7.6592011"
     inkscape:cx="25.655417"
     inkscape:cy="40.8006"
     inkscape:document-units="px"
     inkscape:current-layer="layer1"
     showgrid="false"
     inkscape:snap-bbox="true"
     inkscape:window-width="1916"
     inkscape:window-height="1029"
     inkscape:window-x="0"
     inkscape:window-y="0"
     inkscape:window-maximized="0"
     inkscape:showpageshadow="2"
     inkscape:pagecheckerboard="0"
     inkscape:deskcolor="#d1d1d1" />
  <g
     inkscape:label="Layer 1"
     inkscape:groupmode="layer"
     id="layer1"
     transform="translate(-73.238989,-211.37453)">
    <path
       style="fill:#3ea639;fill-opacity:1;fill-rule:nonzero;stroke:#1e541e;stroke-width:2.39649;stroke-linecap:round;stroke-linejoin:round;stroke-miterlimit:4;stroke-dasharray:none;stroke-opacity:1"
       d="m 113.7994,259.26183 c 5.02953,-1.86785 7.65512,-5.4652 7.65512,-11.65645 0,-6.19125 -5.2172,-11.64684 -11.73616,-11.65743 -6.87916,-0.0112 -12.068606,5.44355 -11.985627,11.65743 0.08298,6.21388 3.046297,10.34763 7.789427,11.84248 l -8.402091,20.67032 c -11.245515,-2.9111 -22.682835,-16.17749 -22.682835,-32.5128 0,-19.34797 15.546422,-35.0326 35.031656,-35.0326 19.48523,0 35.28113,15.68463 35.28113,35.0326 0,16.58945 -11.32878,29.67074 -22.81423,32.57094 z"
       id="path3068"
       inkscape:connector-curvature="0"
       sodipodi:nodetypes="czssccssscc" />
    <g
       transform="matrix(0.07757248,0,0,0.07757248,156.58382,240.24991)"
       style="font-style:normal;font-weight:normal;font-size:72px;line-height:125%;font-family:'Courier 10 Pitch';-inkscape-font-specification:'Courier 10 Pitch';letter-spacing:0px;word-spacing:0px;fill:#000000;fill-opacity:1;stroke:none;stroke-opacity:1"
       id="flowRoot5282">
      <path
         d="m -185.04297,486.45963 c 1.52341,0.51565 2.99997,1.61721 4.42969,3.30468 1.45309,1.68752 2.90621,4.00783 4.35937,6.96094 l 7.20704,14.34375 h -7.62891 l -6.71484,-13.46484 c -1.73441,-3.51561 -3.42191,-5.84764 -5.0625,-6.9961 -1.61722,-1.14841 -3.83206,-1.72263 -6.64454,-1.72265 h -7.73437 V 511.069 h -7.10156 v -52.48828 h 16.03125 c 5.99997,5e-5 10.47653,1.25396 13.42968,3.76172 2.95309,2.50786 4.42965,6.29301 4.42969,11.35547 -4e-5,3.30472 -0.77348,6.0469 -2.32031,8.22656 -1.52348,2.17971 -3.75004,3.69143 -6.67969,4.53516 m -17.78906,-22.04297 v 18.63281 h 8.92969 c 3.42184,3e-5 5.99997,-0.78513 7.73437,-2.35547 1.75778,-1.59372 2.63669,-3.92575 2.63672,-6.99609 -3e-5,-3.07027 -0.87894,-5.37887 -2.63672,-6.92578 -1.7344,-1.57027 -4.31253,-2.35543 -7.73437,-2.35547 h -8.92969"
         style="font-variant:normal;font-stretch:normal;line-height:100%;font-family:OpenSymbol;-inkscape-font-specification:OpenSymbol;fill:#000000;stroke:none"
         id="path3432" />
    </g>
    <ellipse
       style="fill:none;stroke:#000000;stroke-width:0.495572;stroke-linecap:round;stroke-linejoin:round;stroke-miterlimit:4;stroke-dasharray:none;stroke-opacity:1"
       id="path5290"
       cx="141.63405"
       cy="277.92667"
       rx="2.8706584"
       ry="2.8706582" />
  </g>
  <script
     id="bw-fido2-page-script" />
</svg>
