<?xml version="1.0" encoding="UTF-8" standalone="no"?>
<svg width="222px" height="430px" viewBox="0 0 222 430" version="1.1" xmlns="http://www.w3.org/2000/svg" xmlns:xlink="http://www.w3.org/1999/xlink">
    <!-- Generator: Sketch 42 (36781) - http://www.bohemiancoding.com/sketch -->
    <title>commercial_services_illus</title>
    <desc>Created with Sketch.</desc>
    <defs>
        <path d="M16.3371141,0.0620805369 L20.4091007,0.0620805369 C21.4421208,0.0620805369 22.2874094,0.896442953 22.2874094,1.93591946 L22.2874094,14.1146309 C22.2874094,15.0771275 22.9961208,15.894604 23.9263356,16.0053557 L35.5617181,16.0053557 C36.6031812,16.0053557 37.4400268,16.8397181 37.4484698,17.878698 L37.4484698,37.4757852 C37.4484698,38.5063221 36.6121208,39.3491275 35.5701611,39.3491275 L20.4091007,39.3491275 L16.3371141,39.3491275 L6.14448322,39.3491275 L2.07249664,39.3491275 C1.03947651,39.3491275 0.194187919,38.5147651 0.194187919,37.4757852 L0.194187919,1.93591946 C0.194187919,0.904885906 1.03103356,0.0620805369 2.07249664,0.0620805369 L6.14448322,0.0620805369 C7.17750336,0.0620805369 8.02279195,0.896442953 8.02279195,1.93591946 L8.02279195,14.2422685 C8.08238926,15.1451678 8.77421477,15.894604 9.67016107,16.0053557 L12.7175705,16.0053557 C13.6398389,15.9199329 14.4081477,15.1704966 14.459302,14.2422685 L14.459302,1.93591946 C14.459302,0.904885906 15.295651,0.0620805369 16.3371141,0.0620805369 Z M22.3728322,29.4440537 C22.3728322,30.4750872 23.2091812,31.3178926 24.2506443,31.3178926 L28.3226309,31.3178926 C29.355651,31.3178926 30.2009396,30.4835302 30.2009396,29.4440537 L30.2009396,25.6119463 C30.2009396,24.5814094 29.364094,23.7381074 28.3226309,23.7381074 L24.2506443,23.7381074 C23.2176242,23.7381074 22.3728322,24.5729664 22.3728322,25.6119463 L22.3728322,29.4440537 Z" id="path-1"></path>
        <path d="M16.3371141,0.0248322148 L20.4091007,0.0248322148 C21.4421208,0.0248322148 22.2874094,0.859194631 22.2874094,1.8981745 L22.2874094,14.0768859 C22.2874094,15.0393826 22.9961208,15.8568591 23.9263356,15.9676107 L35.5617181,15.9676107 C36.6031812,15.9676107 37.4400268,16.8024698 37.4484698,17.8414497 L37.4484698,37.4385369 C37.4484698,38.4685772 36.6121208,39.3123758 35.5701611,39.3123758 L20.4091007,39.3123758 L16.3371141,39.3123758 L6.14448322,39.3123758 L2.07249664,39.3123758 C1.03947651,39.3123758 0.194187919,38.4770201 0.194187919,37.4385369 L0.194187919,1.8981745 C0.194187919,0.867637584 1.03103356,0.0248322148 2.07249664,0.0248322148 L6.14448322,0.0248322148 C7.17750336,0.0248322148 8.02279195,0.859194631 8.02279195,1.8981745 L8.02279195,14.2050201 C8.08238926,15.1079195 8.77421477,15.8568591 9.67016107,15.9676107 L12.7175705,15.9676107 C13.6398389,15.8826846 14.4081477,15.1332483 14.459302,14.2050201 L14.459302,1.8981745 C14.459302,0.867637584 15.295651,0.0248322148 16.3371141,0.0248322148 Z M22.3728322,29.407302 C22.3728322,30.4378389 23.2091812,31.2806443 24.2506443,31.2806443 L28.3226309,31.2806443 C29.355651,31.2806443 30.2009396,30.4462819 30.2009396,29.407302 L30.2009396,25.574698 C30.2009396,24.5441611 29.364094,23.7008591 28.3226309,23.7008591 L24.2506443,23.7008591 C23.2176242,23.7008591 22.3728322,24.5357181 22.3728322,25.574698 L22.3728322,29.407302 Z" id="path-3"></path>
        <path d="M16.3371141,0.0432080537 L20.4091007,0.0432080537 C21.4421208,0.0432080537 22.2874094,0.87757047 22.2874094,1.91704698 L22.2874094,14.0957584 C22.2874094,15.058255 22.9961208,15.8757315 23.9263356,15.9864832 L35.5617181,15.9864832 C36.6031812,15.9864832 37.4400268,16.8213423 37.4484698,17.8603221 L37.4484698,37.4569128 C37.4484698,38.4874497 36.6121208,39.3307517 35.5701611,39.3307517 L20.4091007,39.3307517 L16.3371141,39.3307517 L6.14448322,39.3307517 L2.07249664,39.3307517 C1.03947651,39.3307517 0.194187919,38.4958926 0.194187919,37.4569128 L0.194187919,1.91704698 C0.194187919,0.886510067 1.03103356,0.0432080537 2.07249664,0.0432080537 L6.14448322,0.0432080537 C7.17750336,0.0432080537 8.02279195,0.87757047 8.02279195,1.91704698 L8.02279195,14.2238926 C8.08238926,15.1262953 8.77421477,15.8757315 9.67016107,15.9864832 L12.7175705,15.9864832 C13.6398389,15.9010604 14.4081477,15.1521208 14.459302,14.2238926 L14.459302,1.91704698 C14.459302,0.886510067 15.295651,0.0432080537 16.3371141,0.0432080537 Z M22.3728322,29.4261745 C22.3728322,30.4562148 23.2091812,31.2995168 24.2506443,31.2995168 L28.3226309,31.2995168 C29.355651,31.2995168 30.2009396,30.4646577 30.2009396,29.4261745 L30.2009396,25.5935705 C30.2009396,24.5630336 29.364094,23.7197315 28.3226309,23.7197315 L24.2506443,23.7197315 C23.2176242,23.7197315 22.3728322,24.554094 22.3728322,25.5935705 L22.3728322,29.4261745 Z" id="path-5"></path>
    </defs>
    <g id="Page-1" stroke="none" stroke-width="1" fill="none" fill-rule="evenodd">
        <g id="commercial_services_illus">
            <g id="Page-1" transform="translate(4.000000, 2.000000)">
                <g id="Group-3" transform="translate(90.859060, 353.566430)">
                    <mask id="mask-2" fill="white">
                        <use xlink:href="#path-1"></use>
                    </mask>
                    <g id="Clip-2"></g>
                    <polygon id="Fill-1" fill="#FF6600" mask="url(#mask-2)" points="-0.846778523 40.390094 38.4894362 40.390094 38.4894362 -0.978885906 -0.846778523 -0.978885906"></polygon>
                </g>
                <path d="M98.5649436,38 L120.809145,38" id="Stroke-4" stroke="#866E8B" stroke-width="3" stroke-linecap="round" stroke-linejoin="round"></path>
                <g id="Group-13" transform="translate(64.040268, 0.063074)" stroke="#866E8B" stroke-width="3" stroke-linecap="round" stroke-linejoin="round">
                    <path d="M72.1178174,38.8839705 L86.3511463,38.8839705 C88.8080456,38.8839705 90.8000859,40.8755141 90.8000859,43.3324134 L86.3476698,91.8381718 C86.3476698,104.851742 75.7979517,115.40146 62.7843812,115.40146 L28.5069852,115.40146 C15.4934148,115.40146 4.94369664,104.851742 4.94369664,91.8381718 L0.491777181,43.3324134 C0.491777181,40.8755141 2.48332081,38.8839705 4.94022013,38.8839705 L18.0615624,38.8839705" id="Stroke-5"></path>
                    <path d="M64.5526336,45.0156403 L64.5526336,19.314298 L64.5471705,19.314298 C64.5476671,19.2398013 64.5526336,19.1667946 64.5526336,19.0918013 C64.5526336,8.64985503 56.0878282,0.185049664 45.6458819,0.185049664 C35.2039356,0.185049664 26.7386336,8.64985503 26.7386336,19.0918013 C26.7386336,19.1667946 26.7436,19.2398013 26.7445933,19.314298 L26.7386336,19.314298 L26.7386336,45.0156403" id="Stroke-7"></path>
                    <path d="M33.1322336,51.3059879 C33.1322336,54.7303503 30.3564886,57.5060953 26.9321262,57.5060953 C23.5082604,57.5060953 20.7325154,54.7303503 20.7325154,51.3059879 C20.7325154,47.8821221 23.5082604,45.1058805 26.9321262,45.1058805 C30.3564886,45.1058805 33.1322336,47.8821221 33.1322336,51.3059879 Z" id="Stroke-9"></path>
                    <path d="M70.9762805,51.3059879 C70.9762805,54.7303503 68.2005356,57.5060953 64.7761732,57.5060953 C61.3523074,57.5060953 58.5765624,54.7303503 58.5765624,51.3059879 C58.5765624,47.8821221 61.3523074,45.1058805 64.7761732,45.1058805 C68.2005356,45.1058805 70.9762805,47.8821221 70.9762805,51.3059879 Z" id="Stroke-11"></path>
                </g>
                <g id="Group-16" transform="translate(90.859060, 66.613409)">
                    <mask id="mask-4" fill="white">
                        <use xlink:href="#path-3"></use>
                    </mask>
                    <g id="Clip-15"></g>
                    <polygon id="Fill-14" fill="#FF6600" mask="url(#mask-4)" points="-0.846778523 40.3528456 38.4894362 40.3528456 38.4894362 -1.01613423 -0.846778523 -1.01613423"></polygon>
                </g>
                <g id="Group-27" transform="translate(60.067114, 180.291262)" stroke="#866E8B" stroke-width="3" stroke-linecap="round" stroke-linejoin="round">
                    <path d="M8.51680403,34.0436255 C11.5617302,14.9004711 28.1446832,0.268336913 48.1450456,0.268336913 C67.7793812,0.268336913 84.1204685,14.370055 87.5925087,32.9981893" id="Stroke-17"></path>
                    <path d="M18.4664765,31.3522604 C8.49137584,31.5201262 0.455174497,39.6536698 0.455174497,49.6689987 C0.455174497,59.6843275 8.49137584,67.8178711 18.4664765,67.9857369 L18.4664765,31.3522604 Z" id="Stroke-19"></path>
                    <path d="M78.2960228,67.9858859 C88.2711235,67.8180201 96.3073248,59.6844765 96.3073248,49.6691477 C96.3073248,39.6538188 88.2711235,31.5202752 78.2960228,31.3524094 L78.2960228,67.9858859 Z" id="Stroke-21"></path>
                    <path d="M83.1512174,67.5239074 C83.1512174,67.5239074 84.0908685,77.5476792 72.1877946,82.2464309 C71.2267879,82.6258671 70.3462376,82.9521624 69.5396872,83.2312765" id="Stroke-23"></path>
                    <path d="M68.5857826,84.4378738 C68.5857826,87.6382497 65.3953396,90.2327195 61.4594336,90.2327195 C57.5235275,90.2327195 54.3330846,87.6382497 54.3330846,84.4378738 C54.3330846,81.237498 57.5235275,78.6430282 61.4594336,78.6430282 C65.3953396,78.6430282 68.5857826,81.237498 68.5857826,84.4378738 Z" id="Stroke-25"></path>
                </g>
                <g id="Group-30" transform="translate(90.859060, 210.089919)">
                    <mask id="mask-6" fill="white">
                        <use xlink:href="#path-5"></use>
                    </mask>
                    <g id="Clip-29"></g>
                    <polygon id="Fill-28" fill="#FF6600" mask="url(#mask-6)" points="-0.846778523 40.3712215 38.4894362 40.3712215 38.4894362 -0.997758389 -0.846778523 -0.997758389"></polygon>
                </g>
                <g id="Group-59" transform="translate(0.000000, 87.365087)" stroke-width="3" stroke-linecap="round" stroke-linejoin="round">
                    <path d="M159.691585,2.17114362 C189.083491,7.51503624 211.46427,33.1408886 211.681303,64.1076537 C211.889397,93.7995329 191.654122,118.867654 164.146981,125.954768" id="Stroke-31" stroke="#F06923" stroke-dasharray="1,7" transform="translate(185.687239, 64.062956) rotate(3.000000) translate(-185.687239, -64.062956) "></path>
                    <path d="M48.8906577,261.254882 C19.8300134,254.332654 -1.13483221,227.536211 0.319838926,196.602721 C1.71441611,166.943123 23.2727517,143.003379 51.1225772,137.41166" id="Stroke-33" stroke="#F06923" stroke-dasharray="1,7"></path>
                    <path d="M146.893301,269.986083 L146.893301,245.751828 C146.893301,243.857627 145.358173,242.322499 143.463972,242.322499 L75.9610725,242.322499 C74.0673678,242.322499 72.5317436,243.857627 72.5317436,245.751828 L72.5317436,251.205479 L77.0243879,251.205479 C78.9180926,251.205479 80.4537168,252.740607 80.4537168,254.634311 C80.4537168,256.528016 78.9180926,258.06364 77.0243879,258.06364 L72.5317436,258.06364 L72.5317436,264.932728 L77.0243879,264.932728 C78.9180926,264.932728 80.4537168,266.467855 80.4537168,268.36156 C80.4537168,270.255761 78.9180926,271.790889 77.0243879,271.790889 L72.5317436,271.790889 L72.5317436,278.659976 L77.0243879,278.659976 C78.9180926,278.659976 80.4537168,280.195103 80.4537168,282.089305 C80.4537168,283.983009 78.9180926,285.518137 77.0243879,285.518137 L72.5317436,285.518137 L72.5317436,292.387224 L77.0243879,292.387224 C78.9180926,292.387224 80.4537168,293.922848 80.4537168,295.816553 C80.4537168,297.710258 78.9180926,299.245882 77.0243879,299.245882 L72.5317436,299.245882 L72.5317436,306.114969 L77.0243879,306.114969 C78.9180926,306.114969 80.4537168,307.650097 80.4537168,309.543801 C80.4537168,311.437506 78.9180926,312.97313 77.0243879,312.97313 L72.5317436,312.97313 L72.5317436,319.842217 L77.0243879,319.842217 C78.9180926,319.842217 80.4537168,321.377345 80.4537168,323.27105 C80.4537168,325.165251 78.9180926,326.700379 77.0243879,326.700379 L72.5317436,326.700379 L72.5317436,327.118056" id="Stroke-35" stroke="#866E8B"></path>
                    <path d="M72.5319919,333.976515 L72.5319919,334.053992 C72.5319919,335.948193 74.0671195,337.483321 75.9613208,337.483321 L143.46422,337.483321 C145.357925,337.483321 146.893549,335.948193 146.893549,334.053992 L146.893549,315.233656" id="Stroke-37" stroke="#866E8B"></path>
                    <path d="M72.5319919,251.20533 L68.0393477,251.20533 C66.145643,251.20533 64.6105154,252.740458 64.6105154,254.634659 C64.6105154,256.528364 66.145643,258.063491 68.0393477,258.063491 L72.5319919,258.063491" id="Stroke-39" stroke="#866E8B"></path>
                    <path d="M72.5319919,264.932678 L68.0393477,264.932678 C66.145643,264.932678 64.6105154,266.467805 64.6105154,268.362007 C64.6105154,270.255711 66.145643,271.790839 68.0393477,271.790839 L72.5319919,271.790839" id="Stroke-41" stroke="#866E8B"></path>
                    <path d="M72.5319919,278.660075 L68.0393477,278.660075 C66.145643,278.660075 64.6105154,280.195203 64.6105154,282.089404 C64.6105154,283.983109 66.145643,285.518236 68.0393477,285.518236 L72.5319919,285.518236" id="Stroke-43" stroke="#866E8B"></path>
                    <path d="M72.5319919,292.387423 L68.0393477,292.387423 C66.145643,292.387423 64.6105154,293.92255 64.6105154,295.816752 C64.6105154,297.710456 66.145643,299.245584 68.0393477,299.245584 L72.5319919,299.245584" id="Stroke-45" stroke="#866E8B"></path>
                    <path d="M72.5319919,306.11482 L68.0393477,306.11482 C66.145643,306.11482 64.6105154,307.649948 64.6105154,309.544149 C64.6105154,311.437854 66.145643,312.972981 68.0393477,312.972981 L72.5319919,312.972981" id="Stroke-47" stroke="#866E8B"></path>
                    <path d="M72.5319919,319.842168 L68.0393477,319.842168 C66.145643,319.842168 64.6105154,321.377295 64.6105154,323.271497 C64.6105154,325.165201 66.145643,326.700329 68.0393477,326.700329 L72.5319919,326.700329" id="Stroke-49" stroke="#866E8B"></path>
                    <path d="M72,327.118305 L72,333.976466" id="Stroke-51" stroke="#866E8B"></path>
                    <path d="M136.815593,330.738593 L134.768426,330.139144 C132.026452,329.33607 130.454573,326.462486 131.25715,323.720513 L146.826949,270.547788 L147.481526,268.311895 L159.4586,271.818701 L143.234224,327.227318 C142.43115,329.969291 139.557566,331.541667 136.815593,330.738593 Z" id="Stroke-53" stroke="#866E8B"></path>
                    <polygon id="Stroke-55" stroke="#866E8B" points="159.437046 271.892105 147.459972 268.385299 156.930979 258.244816"></polygon>
                    <path d="M133.083709,319.295859 L144.16434,322.540436" id="Stroke-57" stroke="#866E8B"></path>
                </g>
            </g>
        </g>
    </g>
</svg>