<svg width="73" height="38" viewBox="0 0 73 38" fill="none" xmlns="http://www.w3.org/2000/svg">
<path d="M34.96 19L15.3963 37.2428C14.3033 38.2524 12.5421 38.2524 11.449 37.2428C10.3704 36.2346 10.3704 34.6025 11.449 33.5943L27.273 19L11.6221 4.40573C10.5435 3.39749 10.5435 1.7654 11.6221 0.757158C12.7152 -0.252388 14.4764 -0.252388 15.5695 0.757158L34.96 19Z" fill="#FD6721"/>
<path d="M22.8 19L4.45906 37.2428C3.43429 38.2524 1.78317 38.2524 0.758406 37.2428C-0.252802 36.2346 -0.252802 34.6025 0.758406 33.5943L15.5935 19L0.920714 4.40573C-0.0904942 3.39749 -0.0904943 1.7654 0.920714 0.757158C1.94548 -0.252388 3.5966 -0.252388 4.62136 0.757158L22.8 19Z" fill="#FD6721"/>
<path d="M38 19L57.5637 0.757159C58.6568 -0.252387 60.418 -0.252387 61.511 0.757159C62.5897 1.7654 62.5897 3.39749 61.511 4.40573L45.687 19L61.3379 33.5943C62.4165 34.6025 62.4165 36.2346 61.3379 37.2428C60.2448 38.2524 58.4836 38.2524 57.3905 37.2428L38 19Z" fill="#FD6721"/>
<path d="M50.16 19L68.501 0.757159C69.5257 -0.252387 71.1768 -0.252387 72.2016 0.757159C73.2128 1.7654 73.2128 3.39749 72.2016 4.40573L57.3666 19L72.0393 33.5943C73.0505 34.6025 73.0505 36.2346 72.0393 37.2428C71.0145 38.2524 69.3634 38.2524 68.3387 37.2428L50.16 19Z" fill="#FD6721"/>
</svg>
