<?xml version="1.0" encoding="utf-8"?>
<svg width="73" height="73px" viewBox="0 0 73 73" fill="none" xmlns="http://www.w3.org/2000/svg">
  <path d="M 34.96 34.183 L 15.396 52.426 C 14.303 53.436 12.542 53.436 11.449 52.426 C 10.37 51.418 10.37 49.786 11.449 48.778 L 27.273 34.183 L 11.622 19.589 C 10.543 18.581 10.543 16.949 11.622 15.941 C 12.715 14.931 14.476 14.931 15.569 15.941 L 34.96 34.183 Z" fill="#FD6721"/>
  <path d="M 22.8 34.183 L 4.459 52.426 C 3.434 53.436 1.783 53.436 0.758 52.426 C -0.253 51.418 -0.253 49.786 0.758 48.778 L 15.594 34.183 L 0.921 19.589 C -0.09 18.581 -0.09 16.949 0.921 15.941 C 1.945 14.931 3.597 14.931 4.621 15.941 L 22.8 34.183 Z" fill="#FD6721"/>
  <path d="M 38 34.183 L 57.564 15.941 C 58.657 14.931 60.418 14.931 61.511 15.941 C 62.59 16.949 62.59 18.581 61.511 19.589 L 45.687 34.183 L 61.338 48.778 C 62.417 49.786 62.417 51.418 61.338 52.426 C 60.245 53.436 58.484 53.436 57.391 52.426 L 38 34.183 Z" fill="#FD6721"/>
  <path d="M 50.16 34.183 L 68.501 15.941 C 69.526 14.931 71.177 14.931 72.202 15.941 C 73.213 16.949 73.213 18.581 72.202 19.589 L 57.367 34.183 L 72.039 48.778 C 73.051 49.786 73.051 51.418 72.039 52.426 C 71.015 53.436 69.363 53.436 68.339 52.426 L 50.16 34.183 Z" fill="#FD6721"/>
</svg>