<svg width="70" height="70" viewBox="0 0 70 70" fill="none" xmlns="http://www.w3.org/2000/svg">
<path fill-rule="evenodd" clip-rule="evenodd" d="M33.0555 38.8888C33.0555 39.9627 33.9261 40.8333 35 40.8333C36.0739 40.8333 36.9444 39.9627 36.9444 38.8888V7.7777C36.9444 6.70381 36.0739 5.83325 35 5.83325C33.9261 5.83325 33.0555 6.70381 33.0555 7.7777V38.8888ZM34.9611 66.4028C21.756 66.4177 10.186 57.5576 6.76003 44.8014C3.3307 32.0326 8.91926 18.5541 20.3777 11.9583C21.3011 11.4752 22.441 11.806 22.9625 12.7081C23.484 13.6103 23.2016 14.7631 22.3222 15.3221C12.4141 21.0426 7.58351 32.7047 10.5446 43.7557C13.5057 54.8067 23.5202 62.4911 34.9611 62.4911C46.4019 62.4911 56.4164 54.8067 59.3775 43.7557C62.3386 32.7047 57.508 21.0426 47.6 15.3221C46.9671 14.9911 46.5667 14.3397 46.557 13.6255C46.5473 12.9113 46.93 12.2494 47.5537 11.9013C48.1773 11.5532 48.9417 11.5751 49.5444 11.9583C61.0029 18.5541 66.5915 32.0326 63.1621 44.8014C59.7362 57.5576 48.1662 66.4177 34.9611 66.4028Z" fill="#866F8A"/>
<path d="M20.8787 45.2718C21.0279 45.2607 21.1728 45.2165 21.3027 45.1422C21.7541 44.8867 21.9159 44.3156 21.6657 43.8613C18.7097 38.5865 20.3175 31.9249 25.3541 28.5791L24.5311 31.0123C24.425 31.3816 24.5527 31.7785 24.8542 32.0167C25.1558 32.2549 25.5714 32.2873 25.9062 32.0986C26.0883 31.9858 26.2269 31.8147 26.2992 31.613L28.2463 25.8087L22.1883 24.9415C21.8266 24.8106 21.4217 24.9116 21.1637 25.1969C20.9058 25.4822 20.8461 25.8952 21.0126 26.2419C21.1792 26.5886 21.5389 26.8001 21.9229 26.7771L24.1771 27.0947C18.4113 31.0192 16.6037 38.7009 20.0142 44.7848C20.1875 45.0972 20.5218 45.2855 20.8787 45.2718Z" fill="#866F8A"/>
<path d="M41.7312 25.4311C41.6264 25.5378 41.5468 25.6667 41.4982 25.8082C41.3277 26.298 41.5829 26.8339 42.0708 27.0101C47.7728 29.0223 50.9612 35.0882 49.3854 40.9259L48.3978 38.5547C48.2338 38.2072 47.876 37.9933 47.4922 38.0133C47.1084 38.0333 46.7748 38.2833 46.6479 38.646C46.5854 38.851 46.5943 39.071 46.6731 39.2702L49.0408 44.916L54.1645 41.5695C54.5226 41.4291 54.7602 41.0861 54.7657 40.7015C54.7712 40.3169 54.5435 39.9672 54.1895 39.8166C53.8356 39.666 53.4257 39.7446 53.1525 40.0153L51.2493 41.2643C52.991 34.5106 49.2795 27.5464 42.7021 25.2264C42.3657 25.106 41.9903 25.1852 41.7312 25.4311Z" fill="#866F8A"/>
<path d="M45.518 50.0153C45.4579 49.8783 45.3679 49.7564 45.2547 49.6587C44.8635 49.318 44.2711 49.3555 43.926 49.7427C39.9362 54.2862 33.1193 54.9879 28.2876 51.3526L30.856 51.3185C31.2396 51.2956 31.5713 51.0431 31.6955 50.6795C31.8198 50.3158 31.7119 49.9131 31.4225 49.6603C31.2556 49.526 31.048 49.4524 30.8338 49.4514L24.7123 49.5477L25.9115 55.5488C25.9085 55.9334 26.1385 56.2816 26.4934 56.4299C26.8483 56.5781 27.2577 56.497 27.5291 56.2245C27.8006 55.952 27.8803 55.5423 27.7307 55.188L27.2798 52.9566C32.9 57.0869 40.7452 56.234 45.3466 50.9926C45.5835 50.7252 45.6498 50.3473 45.518 50.0153Z" fill="#866F8A"/>
</svg>
