<svg xmlns="http://www.w3.org/2000/svg" viewBox="0 0 960 60">
  <rect width="960" height="60"/>
  <g>
    <path d="M163.59,22.67h6.07c2.14,0,3.65,1.3,3.65,3.1a3,3,0,0,1-1.74,2.74,3.55,3.55,0,0,1,2.27,3.17c0,2-1.64,3.36-4,3.36h-6.3Zm5.53,5.06a1.58,1.58,0,1,0,0-3.11h-3.3v3.11Zm.32,5.37a1.79,1.79,0,1,0,0-3.53h-3.62V33.1Z" style="fill: #80ea6e"/>
    <path d="M184.46,25.73V35h-2.2V33.8a3.46,3.46,0,0,1-2.88,1.46,3.39,3.39,0,0,1-3.45-3.6V25.73h2.12v5.49a2,2,0,0,0,2,2.17,2.2,2.2,0,0,0,2.25-1.77V25.73Z" style="fill: #80ea6e"/>
    <path d="M186.81,23.07a1.25,1.25,0,0,1,2.5,0,1.25,1.25,0,1,1-2.5,0Zm.15,2.66h2.19V35H187Z" style="fill: #80ea6e"/>
    <path d="M191.64,22.46h2.2V35h-2.2Z" style="fill: #80ea6e"/>
    <path d="M205.58,22.46V35h-2.2V33.6a3.8,3.8,0,0,1-3.22,1.66c-2.47,0-4.27-2-4.27-4.88s1.8-4.86,4.27-4.86a3.81,3.81,0,0,1,3.22,1.65V22.46Zm-2.2,7.92a2.71,2.71,0,0,0-2.62-3,2.74,2.74,0,0,0-2.69,3,2.76,2.76,0,0,0,2.69,3A2.73,2.73,0,0,0,203.38,30.38Z" style="fill: #80ea6e"/>
    <path d="M213,37.8l.47-1.59a2.64,2.64,0,0,0,1.19.34,1.25,1.25,0,0,0,1.19-.61l.39-.83-3.94-9.38h2.32l2.72,7,2.56-6.95h2.27l-3.94,10c-.71,1.76-1.79,2.58-3.19,2.59A4.58,4.58,0,0,1,213,37.8Z" style="fill: #80ea6e"/>
    <path d="M222.84,30.38a5,5,0,1,1,5,4.88A5,5,0,0,1,222.84,30.38Zm7.82,0a2.84,2.84,0,1,0-2.83,3A3,3,0,0,0,230.66,30.38Z" style="fill: #80ea6e"/>
    <path d="M243.21,25.73V35H241V33.8a3.46,3.46,0,0,1-2.88,1.46,3.39,3.39,0,0,1-3.45-3.6V25.73h2.12v5.49a2,2,0,0,0,2,2.17A2.2,2.2,0,0,0,241,31.62V25.73Z" style="fill: #80ea6e"/>
    <path d="M251.25,25.52v1.87c-2,0-3.33,1.19-3.33,2.95V35h-2.2V25.73h2.2v1.8A3.55,3.55,0,0,1,251.25,25.52Z" style="fill: #80ea6e"/>
    <path d="M267.72,30.38c0,2.86-1.8,4.88-4.27,4.88a3.83,3.83,0,0,1-3.24-1.69v4.57H258V25.73h2.2v1.48a3.83,3.83,0,0,1,3.24-1.69C265.92,25.52,267.72,27.53,267.72,30.38Zm-2.18,0a2.74,2.74,0,0,0-2.68-3,2.71,2.71,0,0,0-2.63,3,2.73,2.73,0,0,0,2.63,3A2.76,2.76,0,0,0,265.54,30.38Z" style="fill: #80ea6e"/>
    <path d="M277.64,29.44V35h-2.15V33.93a3.82,3.82,0,0,1-2.93,1.33c-2,0-3.48-1.17-3.48-3s1.72-3.1,3.8-3.1a7.5,7.5,0,0,1,2.61.5v-.25a2,2,0,0,0-2.28-2.12,5.64,5.64,0,0,0-2.52.7l-.76-1.53a8.38,8.38,0,0,1,3.71-1A3.7,3.7,0,0,1,277.64,29.44Zm-2.15,2.69V31.08a7.13,7.13,0,0,0-2.28-.36c-1.1,0-2,.61-2,1.5s.77,1.44,1.82,1.44A2.41,2.41,0,0,0,275.49,32.13Z" style="fill: #80ea6e"/>
    <path d="M285.06,34.52a3.16,3.16,0,0,1-2,.74,2.55,2.55,0,0,1-2.63-2.68v-5H279.1V25.73h1.35V23.18h2.14v2.55h2.11v1.82h-2.11v4.76a1,1,0,0,0,.92,1.08,1.33,1.33,0,0,0,.92-.35Z" style="fill: #80ea6e"/>
    <path d="M295.25,29.12V35h-2.13V29.55a2,2,0,0,0-2-2.16,2.16,2.16,0,0,0-2.27,2V35H286.7V22.46h2.19V27a3.5,3.5,0,0,1,6.36,2.11Z" style="fill: #80ea6e"/>
    <path d="M297.62,33.82a1.42,1.42,0,1,1,1.44,1.44A1.42,1.42,0,0,1,297.62,33.82Z" style="fill: #80ea6e"/>
    <path d="M313.59,28.24h5.28v5a7.1,7.1,0,0,1-4.92,2,6.56,6.56,0,0,1-6.54-6.41A6.54,6.54,0,0,1,314,22.46a7,7,0,0,1,4.92,2L317.26,26A4.53,4.53,0,0,0,314,24.51a4.35,4.35,0,0,0,0,8.7,4.8,4.8,0,0,0,2.72-.89V30.07h-3.08Z" style="fill: #80ea6e"/>
    <path d="M328.1,32.38l1.38,1.44a5.66,5.66,0,0,1-3.78,1.44,4.8,4.8,0,0,1-4.86-4.9,4.7,4.7,0,0,1,4.74-4.84c2.88,0,4.55,2.18,4.55,5.61h-7a2.59,2.59,0,0,0,2.57,2.18A3.69,3.69,0,0,0,328.1,32.38Zm-5-2.92H328a2.31,2.31,0,0,0-2.35-2A2.57,2.57,0,0,0,323.13,29.46Z" style="fill: #80ea6e"/>
    <path d="M337.05,34.52a3.16,3.16,0,0,1-2,.74,2.55,2.55,0,0,1-2.63-2.68v-5h-1.35V25.73h1.35V23.18h2.15v2.55h2.1v1.82h-2.1v4.76a1,1,0,0,0,.91,1.08,1.33,1.33,0,0,0,.92-.35Z" style="fill: #80ea6e"/>
    <path d="M349.13,34.52a3.16,3.16,0,0,1-2,.74,2.55,2.55,0,0,1-2.63-2.68v-5h-1.35V25.73h1.35V23.18h2.14v2.55h2.11v1.82h-2.11v4.76a1,1,0,0,0,.92,1.08,1.33,1.33,0,0,0,.92-.35Z" style="fill: #80ea6e"/>
    <path d="M350,30.38a5,5,0,1,1,5,4.88A5,5,0,0,1,350,30.38Zm7.81,0a2.84,2.84,0,1,0-2.83,3A3,3,0,0,0,357.84,30.38Z" style="fill: #80ea6e"/>
    <path d="M376.76,30.38c0,2.86-1.8,4.88-4.27,4.88a3.82,3.82,0,0,1-3.24-1.69v4.57h-2.2V25.73h2.2v1.48a3.82,3.82,0,0,1,3.24-1.69C375,25.52,376.76,27.53,376.76,30.38Zm-2.18,0a2.74,2.74,0,0,0-2.68-3,2.71,2.71,0,0,0-2.63,3,2.73,2.73,0,0,0,2.63,3A2.76,2.76,0,0,0,374.58,30.38Z" style="fill: #80ea6e"/>
    <path d="M384.36,25.52v1.87c-2,0-3.34,1.19-3.34,2.95V35h-2.19V25.73H381v1.8A3.57,3.57,0,0,1,384.36,25.52Z" style="fill: #80ea6e"/>
    <path d="M385.16,30.38a5,5,0,1,1,5,4.88A5,5,0,0,1,385.16,30.38Zm7.81,0a2.84,2.84,0,1,0-2.83,3A2.95,2.95,0,0,0,393,30.38Z" style="fill: #80ea6e"/>
    <path d="M406.33,22.46V35h-2.19V33.6a3.83,3.83,0,0,1-3.23,1.66c-2.46,0-4.26-2-4.26-4.88s1.8-4.86,4.26-4.86a3.84,3.84,0,0,1,3.23,1.65V22.46Zm-2.19,7.92a2.71,2.71,0,0,0-2.63-3,2.74,2.74,0,0,0-2.69,3,2.76,2.76,0,0,0,2.69,3A2.73,2.73,0,0,0,404.14,30.38Z" style="fill: #80ea6e"/>
    <path d="M408.76,33.82a1.42,1.42,0,1,1,1.44,1.44A1.41,1.41,0,0,1,408.76,33.82Z" style="fill: #80ea6e"/>
  </g>
  <g>
    <path d="M607.86,33.42l1-1.15a3.48,3.48,0,0,0,2.4,1.13A1.62,1.62,0,0,0,613,31.82a1.58,1.58,0,0,0-1.78-1.52,3,3,0,0,0-1.82.63l-1.1-.47.13-4.74h5.72V27.2H610l-.08,2.3a3.11,3.11,0,0,1,1.81-.55,2.77,2.77,0,0,1,2.95,2.81c0,1.85-1.39,3-3.43,3A4.43,4.43,0,0,1,607.86,33.42Z" style="fill: #80ea6e"/>
    <path d="M623.61,34.27a2.33,2.33,0,0,1-1.43.53,1.84,1.84,0,0,1-1.9-1.94V29.24h-1V27.93h1V26.08h1.55v1.85h1.52v1.31h-1.52v3.43a.7.7,0,0,0,.66.78.92.92,0,0,0,.66-.25Z" style="fill: #80ea6e"/>
    <path d="M628.83,27.77v1.35a2.16,2.16,0,0,0-2.41,2.13v3.4h-1.58V27.93h1.58v1.29A2.58,2.58,0,0,1,628.83,27.77Z" style="fill: #80ea6e"/>
    <path d="M635.6,30.6v4h-1.55v-.81a2.77,2.77,0,0,1-2.12,1,2.25,2.25,0,0,1-2.51-2.14,2.47,2.47,0,0,1,2.74-2.24,5.46,5.46,0,0,1,1.89.36V30.6a1.46,1.46,0,0,0-1.65-1.53,4.05,4.05,0,0,0-1.82.51L630,28.47a6,6,0,0,1,2.68-.7A2.68,2.68,0,0,1,635.6,30.6Zm-1.55,1.94v-.75a5.05,5.05,0,0,0-1.65-.26c-.79,0-1.43.44-1.43,1.08s.56,1,1.31,1A1.75,1.75,0,0,0,634.05,32.54Z" style="fill: #80ea6e"/>
    <path d="M637,31.28a3.6,3.6,0,0,1,3.62-3.51,3.51,3.51,0,0,1,2.54,1.09l-1.06.94a2.05,2.05,0,0,0-1.5-.68,2.17,2.17,0,0,0,0,4.33,2.08,2.08,0,0,0,1.54-.7l1.06.92a3.52,3.52,0,0,1-2.61,1.13A3.61,3.61,0,0,1,637,31.28Z" style="fill: #80ea6e"/>
    <path d="M647.94,30.93l2.68,3.72h-1.85L646.88,32l-1,1v1.68h-1.59V25.56h1.59v5.55l2.91-3.18h1.87Z" style="fill: #80ea6e"/>
    <path d="M651.19,33.79l.71-1.11a3.83,3.83,0,0,0,2.25.78c.64,0,1.08-.27,1.08-.69s-.58-.68-1.35-.89c-1.46-.38-2.38-.8-2.39-2A2.24,2.24,0,0,1,654,27.77a4.79,4.79,0,0,1,2.58.8l-.67,1.16a3.69,3.69,0,0,0-1.91-.61c-.56,0-1,.22-1,.6s.36.56,1.38.86,2.36.7,2.36,2.1-1.07,2.12-2.64,2.12A4.8,4.8,0,0,1,651.19,33.79Z" style="fill: #80ea6e"/>
    <path d="M666,25h1.14V35.61H666Z" style="fill: #80ea6e"/>
    <path d="M676.42,30.17c0-2.7,1.63-4.61,3.93-4.61s3.9,1.91,3.9,4.61-1.61,4.63-3.9,4.63S676.42,32.89,676.42,30.17Zm6.18,0c0-1.84-.94-3.13-2.25-3.13s-2.27,1.29-2.27,3.13.94,3.15,2.27,3.15S682.6,32,682.6,30.17Z" style="fill: #80ea6e"/>
    <path d="M696.14,25.56v9.09h-1.58v-1a2.78,2.78,0,0,1-2.33,1.19c-1.78,0-3.08-1.45-3.08-3.52s1.3-3.51,3.08-3.51a2.76,2.76,0,0,1,2.33,1.2V25.56Zm-1.58,5.72a2,2,0,0,0-1.9-2.16,2,2,0,0,0-1.94,2.16,2,2,0,0,0,1.94,2.17A2,2,0,0,0,694.56,31.28Z" style="fill: #80ea6e"/>
    <path d="M697.59,31.28a3.61,3.61,0,1,1,3.61,3.52A3.61,3.61,0,0,1,697.59,31.28Zm5.65,0a2.05,2.05,0,1,0-2,2.17A2.14,2.14,0,0,0,703.24,31.28Z" style="fill: #80ea6e"/>
    <path d="M706.22,25.56h1.58v9.09h-1.58Z" style="fill: #80ea6e"/>
    <path d="M709.61,25.56h1.58v9.09h-1.58Z" style="fill: #80ea6e"/>
    <path d="M718.78,30.6v4h-1.55v-.81a2.77,2.77,0,0,1-2.12,1,2.25,2.25,0,0,1-2.51-2.14c0-1.33,1.24-2.24,2.75-2.24a5.45,5.45,0,0,1,1.88.36V30.6a1.46,1.46,0,0,0-1.65-1.53,4.05,4.05,0,0,0-1.82.51l-.55-1.11a6,6,0,0,1,2.68-.7A2.68,2.68,0,0,1,718.78,30.6Zm-1.55,1.94v-.75a5.05,5.05,0,0,0-1.65-.26c-.79,0-1.43.44-1.43,1.08s.56,1,1.31,1A1.75,1.75,0,0,0,717.23,32.54Z" style="fill: #80ea6e"/>
    <path d="M724.57,27.77v1.35a2.15,2.15,0,0,0-2.4,2.13v3.4h-1.59V27.93h1.59v1.29A2.56,2.56,0,0,1,724.57,27.77Z" style="fill: #80ea6e"/>
    <path d="M725.24,33.79l.72-1.11a3.8,3.8,0,0,0,2.25.78c.63,0,1.08-.27,1.08-.69s-.59-.68-1.36-.89c-1.45-.38-2.38-.8-2.39-2s1-2.12,2.54-2.12a4.79,4.79,0,0,1,2.57.8L730,29.73a3.75,3.75,0,0,0-1.91-.61c-.56,0-1,.22-1,.6s.35.56,1.38.86,2.35.7,2.35,2.1-1.07,2.12-2.64,2.12A4.82,4.82,0,0,1,725.24,33.79Z" style="fill: #80ea6e"/>
    <path d="M740,25h1.14V35.61H740Z" style="fill: #80ea6e"/>
    <path d="M750.24,33.35l.94-1.16a4.27,4.27,0,0,0,2.94,1.21c1.1,0,1.67-.55,1.67-1.18s-.63-1-2.07-1.33c-1.84-.43-3.13-1-3.13-2.64s1.33-2.7,3.21-2.7a5,5,0,0,1,3.38,1.24L756.3,28a3.94,3.94,0,0,0-2.56-1c-.9,0-1.51.54-1.51,1.17s.66,1,2.08,1.31c1.86.42,3.11,1,3.11,2.64s-1.22,2.73-3.36,2.73A5.48,5.48,0,0,1,750.24,33.35Z" style="fill: #80ea6e"/>
    <path d="M763.73,32.72l1,1a4,4,0,0,1-2.73,1,3.46,3.46,0,0,1-3.51-3.53,3.39,3.39,0,0,1,3.42-3.5c2.08,0,3.29,1.57,3.29,4.05h-5.07A1.87,1.87,0,0,0,762,33.4,2.66,2.66,0,0,0,763.73,32.72Zm-3.59-2.1h3.54A1.68,1.68,0,0,0,762,29.17,1.86,1.86,0,0,0,760.14,30.62Z" style="fill: #80ea6e"/>
    <path d="M773.65,31.28c0,2.07-1.3,3.52-3.09,3.52a2.76,2.76,0,0,1-2.34-1.22v3.3h-1.58v-9h1.58V29a2.76,2.76,0,0,1,2.34-1.22C772.35,27.77,773.65,29.22,773.65,31.28Zm-1.58,0a1.93,1.93,0,1,0-3.83,0,1.93,1.93,0,1,0,3.83,0Z" style="fill: #80ea6e"/>
    <path d="M778.47,33.32l3.29-2.63c1.13-.91,1.53-1.58,1.53-2.31A1.41,1.41,0,0,0,781.77,27a2.89,2.89,0,0,0-2.26,1.27l-1-1a4,4,0,0,1,3.36-1.74,2.87,2.87,0,0,1,3.12,2.78c0,1.18-.54,2.13-2.08,3.32L781,33.16h4v1.49h-6.56Z" style="fill: #80ea6e"/>
    <path d="M786.25,30.38h3.5v1.39h-3.5Z" style="fill: #80ea6e"/>
    <path d="M790.45,33.29l1-1.06a3.25,3.25,0,0,0,2.45,1.13c1.06,0,1.72-.53,1.72-1.31s-.66-1.21-1.92-1.21h-1v-1.4h1c1,0,1.74-.42,1.74-1.2s-.7-1.24-1.66-1.24a2.84,2.84,0,0,0-2.17,1.11l-1-1a4,4,0,0,1,3.27-1.57c1.9,0,3.16,1,3.16,2.43a2.15,2.15,0,0,1-1.69,2.07,2.21,2.21,0,0,1,1.88,2.12c0,1.53-1.31,2.62-3.32,2.62A4.43,4.43,0,0,1,790.45,33.29Z" style="fill: #80ea6e"/>
  </g>
  <g>
    <path d="M565.56,8.65H454a21.35,21.35,0,0,0,0,42.7H565.56a21.35,21.35,0,0,0,0-42.7ZM585.29,30a19.75,19.75,0,0,1-19.73,19.73H454a19.73,19.73,0,1,1,0-39.46H565.56A19.75,19.75,0,0,1,585.29,30Z" style="fill: #fff"/>
    <path d="M457.86,27.77c-3.28-.78-4.05-1.36-4.05-2.67v-.05c0-1.11,1-2,2.76-2a7.05,7.05,0,0,1,3.9,1.29,1.52,1.52,0,0,0,.78.21,1.38,1.38,0,0,0,1.4-1.38A1.33,1.33,0,0,0,462,22a9.33,9.33,0,0,0-5.38-1.58c-3.37,0-5.79,2-5.79,4.92v.05c0,3.12,2,4.19,5.64,5.06,3.15.73,3.83,1.38,3.83,2.6v0c0,1.26-1.16,2.14-3,2.14a7.33,7.33,0,0,1-4.75-1.75,1.43,1.43,0,0,0-.87-.26,1.38,1.38,0,0,0-1.41,1.38,1.41,1.41,0,0,0,.58,1.14,10.6,10.6,0,0,0,6.38,2.13c3.56,0,6-1.89,6-5.07v0C463.28,29.92,461.44,28.64,457.86,27.77Z" style="fill: #fff"/>
    <path d="M472.54,24.54a5.12,5.12,0,0,0-4.36,2.4v-.8a1.47,1.47,0,0,0-1.48-1.47,1.44,1.44,0,0,0-1.45,1.47v14a1.47,1.47,0,0,0,2.93,0V35.62a5.22,5.22,0,0,0,4.36,2.25c3,0,5.94-2.4,5.94-6.64v-.05C478.48,26.92,475.55,24.54,472.54,24.54Zm3,6.69c0,2.52-1.65,4.1-3.66,4.1a3.86,3.86,0,0,1-3.73-4.1v-.05a3.85,3.85,0,0,1,3.73-4.09,3.78,3.78,0,0,1,3.66,4.09Z" style="fill: #fff"/>
    <path d="M486.45,24.64c-1.28,0-2.54,1.21-3.22,2.81V26.14a1.47,1.47,0,0,0-1.48-1.47,1.44,1.44,0,0,0-1.45,1.47V36.27a1.44,1.44,0,0,0,1.45,1.46,1.47,1.47,0,0,0,1.48-1.46V32.49c0-3,1.43-4.63,3.51-5a1.44,1.44,0,0,0-.29-2.86Z" style="fill: #fff"/>
    <path d="M490.72,19.94A1.51,1.51,0,0,0,489,21.37v.15a1.69,1.69,0,0,0,3.35,0v-.15A1.5,1.5,0,0,0,490.72,19.94Z" style="fill: #fff"/>
    <path d="M490.72,24.67a1.45,1.45,0,0,0-1.46,1.47V36.27a1.47,1.47,0,0,0,2.93,0V26.14A1.46,1.46,0,0,0,490.72,24.67Z" style="fill: #fff"/>
    <path d="M501.74,24.54a4.67,4.67,0,0,0-4,2.23v-.63a1.46,1.46,0,0,0-1.47-1.47,1.45,1.45,0,0,0-1.46,1.47V36.27a1.47,1.47,0,0,0,2.93,0V30.39a2.85,2.85,0,0,1,2.89-3.18c1.74,0,2.74,1.14,2.74,3.13v5.93a1.45,1.45,0,0,0,1.48,1.46,1.43,1.43,0,0,0,1.45-1.46V29.44C506.3,26.48,504.63,24.54,501.74,24.54Z" style="fill: #fff"/>
    <path d="M519.72,24.67a1.45,1.45,0,0,0-1.45,1.45v.61a5.52,5.52,0,0,0-4.48-2.19,5.77,5.77,0,0,0-5.82,6v.05a5.75,5.75,0,0,0,5.82,6,5.34,5.34,0,0,0,4.5-2.35v1c0,2.57-1.43,3.93-4,3.93a7.9,7.9,0,0,1-3.93-1,1.15,1.15,0,0,0-.53-.12,1.24,1.24,0,0,0-1.24,1.21,1.19,1.19,0,0,0,.83,1.16,11.06,11.06,0,0,0,4.94,1.14,7.22,7.22,0,0,0,5.26-1.72A6.51,6.51,0,0,0,521.2,35V26.14A1.46,1.46,0,0,0,519.72,24.67Zm-1.4,5.91a3.57,3.57,0,0,1-3.76,3.51,3.48,3.48,0,0,1-3.63-3.51v0A3.45,3.45,0,0,1,514.56,27a3.57,3.57,0,0,1,3.76,3.51Z" style="fill: #fff"/>
    <path d="M532.16,20.35a8.7,8.7,0,0,0-8.9,8.77v.05A8.87,8.87,0,0,0,541,29.12v0A8.61,8.61,0,0,0,532.16,20.35Zm5.72,8.82a5.71,5.71,0,0,1-5.72,6,5.79,5.79,0,0,1-5.77-6v0a5.73,5.73,0,0,1,5.72-6,5.81,5.81,0,0,1,5.77,6Z" style="fill: #fff"/>
    <path d="M550,24.54a4.67,4.67,0,0,0-4,2.23v-.63a1.46,1.46,0,0,0-1.47-1.47,1.45,1.45,0,0,0-1.46,1.47V36.27a1.47,1.47,0,0,0,2.93,0V30.39a2.85,2.85,0,0,1,2.89-3.18c1.74,0,2.74,1.14,2.74,3.13v5.93a1.47,1.47,0,0,0,2.93,0V29.44C554.55,26.48,552.88,24.54,550,24.54Z" style="fill: #fff"/>
    <path d="M562.42,24.54a6.35,6.35,0,0,0-6.25,6.67v.05a6.39,6.39,0,0,0,6.57,6.64,6.56,6.56,0,0,0,4.6-1.7,1.27,1.27,0,0,0,.39-.9,1.15,1.15,0,0,0-1.16-1.18,1.09,1.09,0,0,0-.75.26,4.62,4.62,0,0,1-3,1.12,3.59,3.59,0,0,1-3.69-3.25h8a1.37,1.37,0,0,0,1.38-1.4A6.06,6.06,0,0,0,562.42,24.54Zm-3.34,5.77c.27-2,1.53-3.37,3.32-3.37,1.94,0,3.05,1.48,3.25,3.37Z" style="fill: #fff"/>
  </g>
</svg>
