<svg id="Dieline_-_DO_NOT_PRINT" data-name="Dieline - DO NOT PRINT" xmlns="http://www.w3.org/2000/svg" viewBox="0 0 200.36 34.1"><title>S1P</title><path d="M183.31,0H17.05a17.05,17.05,0,0,0,0,34.1H183.31a17,17,0,1,0,0-34.1Zm15.27,17.05a15.29,15.29,0,0,1-15.27,15.27H17.05a15.28,15.28,0,1,1,0-30.55H183.31A15.3,15.3,0,0,1,198.58,17.05Z" fill="#13377d"/><path d="M20.06,15.29c-2.58-.61-3.19-1.07-3.19-2.1v0c0-.88.8-1.59,2.17-1.59a5.58,5.58,0,0,1,3.07,1,1.14,1.14,0,0,0,.61.18,1.1,1.1,0,0,0,.6-2,7.39,7.39,0,0,0-4.24-1.24c-2.65,0-4.56,1.59-4.56,3.88v0c0,2.46,1.61,3.3,4.45,4,2.48.57,3,1.09,3,2v0c0,1-.91,1.68-2.36,1.68a5.79,5.79,0,0,1-3.74-1.38,1.11,1.11,0,0,0-.69-.21,1.09,1.09,0,0,0-1.1,1.09,1.12,1.12,0,0,0,.45.9,8.36,8.36,0,0,0,5,1.67c2.8,0,4.77-1.48,4.77-4v0C24.33,17,22.88,16,20.06,15.29Z" fill="#13377d"/><path d="M31.61,12.76a4,4,0,0,0-3.43,1.88V14A1.16,1.16,0,0,0,27,12.85,1.15,1.15,0,0,0,25.87,14V25a1.16,1.16,0,0,0,2.31,0V21.47a4.11,4.11,0,0,0,3.43,1.77c2.38,0,4.67-1.88,4.67-5.22v0C36.28,14.62,34,12.76,31.61,12.76ZM33.94,18a3,3,0,0,1-2.88,3.22A3,3,0,0,1,28.12,18v0a3,3,0,0,1,2.94-3.22A3,3,0,0,1,33.94,18Z" fill="#13377d"/><path d="M42.56,12.83A3.21,3.21,0,0,0,40,15V14a1.16,1.16,0,1,0-2.31,0v8A1.16,1.16,0,0,0,40,22V19c0-2.38,1.13-3.64,2.77-3.93a1.14,1.14,0,0,0-.23-2.25Z" fill="#13377d"/><path d="M45.91,9.13a1.18,1.18,0,0,0-1.31,1.13v.11a1.33,1.33,0,0,0,2.63,0v-.11A1.18,1.18,0,0,0,45.91,9.13Z" fill="#13377d"/><path d="M45.91,12.85A1.14,1.14,0,0,0,44.77,14v8a1.13,1.13,0,0,0,1.14,1.14A1.15,1.15,0,0,0,47.08,22V14A1.16,1.16,0,0,0,45.91,12.85Z" fill="#13377d"/><path d="M54.59,12.76a3.67,3.67,0,0,0-3.15,1.75V14a1.15,1.15,0,0,0-1.16-1.16A1.14,1.14,0,0,0,49.14,14v8a1.15,1.15,0,0,0,2.3,0V17.35a2.25,2.25,0,0,1,2.27-2.5c1.37,0,2.16.9,2.16,2.46V22A1.14,1.14,0,0,0,57,23.13,1.12,1.12,0,0,0,58.17,22V16.61C58.17,14.28,56.86,12.76,54.59,12.76Z" fill="#13377d"/><path d="M68.74,12.85A1.15,1.15,0,0,0,67.59,14v.48a4.34,4.34,0,0,0-3.52-1.71,4.54,4.54,0,0,0-4.58,4.72v0a4.52,4.52,0,0,0,4.58,4.71,4.2,4.2,0,0,0,3.54-1.85v.78c0,2-1.12,3.09-3.18,3.09a6.1,6.1,0,0,1-3.09-.8,1,1,0,0,0-.42-.09,1,1,0,0,0-1,.95,1,1,0,0,0,.65.92,8.68,8.68,0,0,0,3.89.89,5.66,5.66,0,0,0,4.13-1.35A5.16,5.16,0,0,0,69.9,21V14A1.15,1.15,0,0,0,68.74,12.85ZM67.63,17.5a2.81,2.81,0,0,1-2.95,2.77,2.74,2.74,0,0,1-2.86-2.77v0a2.72,2.72,0,0,1,2.86-2.77,2.81,2.81,0,0,1,2.95,2.77Z" fill="#13377d"/><path d="M78.52,9.46a6.84,6.84,0,0,0-7,6.9v0a7,7,0,0,0,14,0v0A6.77,6.77,0,0,0,78.52,9.46ZM83,16.4a4.5,4.5,0,0,1-4.5,4.69A4.56,4.56,0,0,1,74,16.36v0a4.51,4.51,0,0,1,4.5-4.71A4.58,4.58,0,0,1,83,16.36Z" fill="#13377d"/><path d="M92.55,12.76a3.65,3.65,0,0,0-3.14,1.75V14a1.16,1.16,0,0,0-1.16-1.16A1.15,1.15,0,0,0,87.1,14v8a1.16,1.16,0,0,0,2.31,0V17.35a2.24,2.24,0,0,1,2.27-2.5c1.37,0,2.15.9,2.15,2.46V22A1.15,1.15,0,0,0,95,23.13,1.13,1.13,0,0,0,96.14,22V16.61C96.14,14.28,94.82,12.76,92.55,12.76Z" fill="#13377d"/><path d="M102.34,12.76A5,5,0,0,0,97.42,18v0a5,5,0,0,0,5.17,5.22,5.17,5.17,0,0,0,3.62-1.33,1,1,0,0,0,.3-.71.91.91,0,0,0-.91-.93.82.82,0,0,0-.59.21,3.64,3.64,0,0,1-2.39.87,2.8,2.8,0,0,1-2.89-2.55H106a1.08,1.08,0,0,0,1.08-1.11A4.76,4.76,0,0,0,102.34,12.76Zm-2.63,4.53a2.73,2.73,0,0,1,2.61-2.65,2.62,2.62,0,0,1,2.55,2.65Z" fill="#13377d"/><path d="M118.83,9.69h-4.08a1.16,1.16,0,0,0-1.18,1.18V22a1.17,1.17,0,0,0,2.34,0V18.74h2.65c2.94,0,5.34-1.56,5.34-4.55v0C123.9,11.46,122,9.69,118.83,9.69Zm2.69,4.55c0,1.39-1.11,2.39-2.88,2.39h-2.73V11.82h2.73c1.76,0,2.88.82,2.88,2.38Z" fill="#13377d"/><path d="M126.36,9a1.13,1.13,0,0,0-1.14,1.14V22a1.13,1.13,0,0,0,1.14,1.14A1.15,1.15,0,0,0,127.53,22V10.16A1.15,1.15,0,0,0,126.36,9Z" fill="#13377d"/><path d="M133.59,12.83a8.68,8.68,0,0,0-3.24.59,1,1,0,0,0-.63.92,1,1,0,0,0,1,.95,1.18,1.18,0,0,0,.36-.06,6.18,6.18,0,0,1,2.24-.4c1.62,0,2.49.77,2.49,2.2v.24a8.6,8.6,0,0,0-2.7-.42c-2.46,0-4.16,1.07-4.16,3.25v0c0,2,1.68,3.1,3.56,3.1a4.08,4.08,0,0,0,3.28-1.47v.39a1,1,0,0,0,1.13,1A1.11,1.11,0,0,0,138,22V17.07A4.18,4.18,0,0,0,136.93,14,4.5,4.5,0,0,0,133.59,12.83Zm2.23,6.58c0,1.28-1.16,2.16-2.69,2.16-1.1,0-2-.56-2-1.53v0c0-1.05.88-1.68,2.36-1.68a6.58,6.58,0,0,1,2.29.4Z" fill="#13377d"/><path d="M144.33,15a1,1,0,1,0,0-2h-1.81V11.25a1.16,1.16,0,0,0-2.31,0V13h-.38a1,1,0,0,0,0,2h.38v5.3c0,2.21,1.2,3,2.9,3a4.63,4.63,0,0,0,1.58-.27,1,1,0,0,0,.61-.9,1,1,0,0,0-1-.95,5.46,5.46,0,0,1-.58.06,1.1,1.1,0,0,1-1.23-1.26V15Z" fill="#13377d"/><path d="M151.19,13H149.4v-.55c0-1.05.46-1.53,1.33-1.53a3.45,3.45,0,0,1,.48,0,.94.94,0,0,0,1-.95,1,1,0,0,0-.8-1A7.39,7.39,0,0,0,150.22,9a3.06,3.06,0,0,0-2.27.8,3.41,3.41,0,0,0-.82,2.48V13h-.4a1,1,0,0,0-1,1,1,1,0,0,0,1,1h.4v7a1.16,1.16,0,0,0,2.31,0V15h1.75a1,1,0,0,0,1-1A.94.94,0,0,0,151.19,13Z" fill="#13377d"/><path d="M157.47,12.76A5.26,5.26,0,0,0,152.09,18v0a5.37,5.37,0,0,0,10.73,0v0A5.21,5.21,0,0,0,157.47,12.76Zm3.05,5.3a3,3,0,0,1-3.05,3.18A3.11,3.11,0,0,1,154.39,18v0a3,3,0,0,1,3-3.2A3.11,3.11,0,0,1,160.52,18Z" fill="#13377d"/><path d="M169.06,12.83A3.23,3.23,0,0,0,166.52,15V14a1.15,1.15,0,0,0-1.16-1.16A1.14,1.14,0,0,0,164.22,14v8a1.13,1.13,0,0,0,1.14,1.14A1.15,1.15,0,0,0,166.52,22V19c0-2.38,1.13-3.64,2.77-3.93a1.14,1.14,0,0,0-.23-2.25Z" fill="#13377d"/><path d="M182.92,12.76a4,4,0,0,0-3.39,1.77,3.2,3.2,0,0,0-3-1.77,3.58,3.58,0,0,0-3.07,1.73V14a1.16,1.16,0,0,0-1.17-1.16A1.14,1.14,0,0,0,171.14,14v8a1.13,1.13,0,0,0,1.14,1.14A1.15,1.15,0,0,0,173.45,22V17.35a2.2,2.2,0,0,1,2.15-2.5c1.28,0,2,.88,2,2.44V22A1.16,1.16,0,0,0,180,22V17.35c0-1.62.89-2.5,2.15-2.5s2,.86,2,2.46V22a1.15,1.15,0,0,0,1.17,1.14A1.13,1.13,0,0,0,186.45,22V16.61C186.45,14.15,185.12,12.76,182.92,12.76Z" fill="#13377d"/></svg>