<svg xmlns="http://www.w3.org/2000/svg" viewBox="0 0 450.76 19.7"><title>Rabbit-Tagline</title><g id="Layer_2" data-name="Layer 2"><g id="Layer_1-2" data-name="Layer 1"><path d="M13.58,17.33a6.63,6.63,0,0,1-5,2.23C3.83,19.56,0,15,0,10A9,9,0,0,1,8.85.66a7.49,7.49,0,0,1,7.09,4.07l-2.7,2A4.93,4.93,0,0,0,8.72,3.86c-3.05,0-5.07,2.89-5.07,6.25,0,3.52,2.23,6.25,5.28,6.25a6,6,0,0,0,4.65-2.55V12.5H9.82V9.85h6.75v9.58h-3Z" fill="#13377d"/><path d="M18.71,12.63A7,7,0,0,1,26,5.44a6.89,6.89,0,0,1,7.17,7.06,7.62,7.62,0,0,1-.08,1.18H22.43a3.62,3.62,0,0,0,3.65,3.44,3.5,3.5,0,0,0,3.26-1.86l3,.84A6.85,6.85,0,0,1,26,19.7,7,7,0,0,1,18.71,12.63ZM29.52,11.4a3.57,3.57,0,0,0-7.14,0Z" fill="#13377d"/><path d="M43.18,18.72a10,10,0,0,1-3.91,1c-1.94,0-3.57-1-3.57-3.39V8.38H33.91V5.67H35.7V1.21h3.52V5.67h2.91V8.38H39.22V15.1a1.21,1.21,0,0,0,1.34,1.34,5.14,5.14,0,0,0,1.91-.5Z" fill="#13377d"/><path d="M64,19.43H60.49V11.71c0-2.15-.87-3.18-2.31-3.18a4.08,4.08,0,0,0-3.44,2.87v8H51.22V.26h3.52v8a5.6,5.6,0,0,1,4.94-2.78c3.54,0,4.33,2.7,4.33,5.41Z" fill="#13377d"/><path d="M66,15.34c0-2.63,2.42-4.44,5.86-4.44a8.81,8.81,0,0,1,3.36.6v-.79c0-1.81-1-2.83-3.07-2.83a7.37,7.37,0,0,0-4.31,1.55L66.79,7.2a10.09,10.09,0,0,1,5.73-1.76c3.94,0,6.25,2,6.25,5.67v4.28c0,.73.26,1,.94,1.05v3a9.13,9.13,0,0,1-1.68.19A2,2,0,0,1,75.85,18l-.08-.76a6.25,6.25,0,0,1-5,2.47A4.44,4.44,0,0,1,66,15.34Zm8.64.63a1.35,1.35,0,0,0,.58-1V13.39a8.55,8.55,0,0,0-2.78-.52c-1.82,0-3.1.92-3.1,2.18a2.18,2.18,0,0,0,2.36,2.07A4,4,0,0,0,74.67,16Z" fill="#13377d"/><path d="M94.82,19.43H91.3V11.71c0-2.2-.82-3.18-2.18-3.18a4.1,4.1,0,0,0-3.57,2.87v8H82V5.67h3.18V8.22a6.14,6.14,0,0,1,5.46-2.78c3.44,0,4.15,2.73,4.15,5.41Z" fill="#13377d"/><path d="M96.94,12.55c0-4,2.54-7.11,6.14-7.11a5.34,5.34,0,0,1,4.62,2.65V.26h3.52V15.39c0,.73.27,1,1,1.05v3a9.71,9.71,0,0,1-1.68.19A2,2,0,0,1,108.31,18l-.08-.95a5.44,5.44,0,0,1-4.78,2.66C99.64,19.7,96.94,16.54,96.94,12.55Zm10.79,1.84V11.11a4.14,4.14,0,0,0-3.57-2.68c-2.13,0-3.6,2-3.6,4.2a3.87,3.87,0,0,0,3.81,4.07A3.8,3.8,0,0,0,107.73,14.39Z" fill="#13377d"/><path d="M113.55,17.86,115,15.47a9.25,9.25,0,0,0,5.07,1.7c1.47,0,2.36-.55,2.36-1.52s-.92-1.31-3.25-1.86c-3.6-.84-4.92-1.74-4.92-3.84,0-2.81,2.39-4.54,5.55-4.54a10.92,10.92,0,0,1,5.64,1.71L124,9.3a7.67,7.67,0,0,0-4.23-1.4c-1.26,0-2.23.48-2.23,1.55s.71,1.21,2.81,1.74c3.91.94,5.49,1.83,5.49,4.15,0,2.67-2.24,4.36-5.7,4.36A12.56,12.56,0,0,1,113.55,17.86Z" fill="#13377d"/><path d="M127.67,13.81V10.63h8v3.18Z" fill="#13377d"/><path d="M138.14,12.58a7.21,7.21,0,0,1,14.41,0,7.21,7.21,0,0,1-14.41,0Zm7.22,4.12c2,0,3.6-1.73,3.6-4.15s-1.58-4.12-3.6-4.12-3.6,1.76-3.6,4.15S143.34,16.7,145.36,16.7Z" fill="#13377d"/><path d="M167.53,19.43H164V11.71c0-2.2-.82-3.18-2.18-3.18a4.1,4.1,0,0,0-3.57,2.87v8h-3.52V5.67h3.18V8.22a6.14,6.14,0,0,1,5.46-2.78c3.44,0,4.15,2.73,4.15,5.41Z" fill="#13377d"/><path d="M194,5.67h3.36l-5.75,13.76H188.7l-2.36-6-2.34,6h-2.89L175.36,5.67h3.33l4.1,10.45,1.68-4.46-2.41-6h2.83l1.45,4.23,1.47-4.23h2.83l-2.39,6,1.66,4.46Z" fill="#13377d"/><path d="M198.83,3.75V.26h3.52V3.75Zm0,15.68V5.67h3.52V19.43Z" fill="#13377d"/><path d="M213.56,18.72a10.12,10.12,0,0,1-3.92,1c-1.94,0-3.57-1-3.57-3.39V8.38h-1.78V5.67h1.78V1.21h3.52V5.67h2.91V8.38h-2.91V15.1a1.21,1.21,0,0,0,1.34,1.34,5.2,5.2,0,0,0,1.92-.5Z" fill="#13377d"/><path d="M227.89,19.43h-3.52V11.71c0-2.15-.86-3.18-2.31-3.18a4.09,4.09,0,0,0-3.44,2.87v8H215.1V.26h3.52v8a5.62,5.62,0,0,1,4.94-2.78c3.54,0,4.33,2.7,4.33,5.41Z" fill="#13377d"/><path d="M258.57,19.43h-3.52V11.71c0-2.18-.81-3.18-2.15-3.18a3.78,3.78,0,0,0-3.26,2.89v8h-3.52V11.71c0-2.2-.81-3.18-2.12-3.18a3.78,3.78,0,0,0-3.29,2.87v8h-3.52V5.67h3.18V8.22a5.64,5.64,0,0,1,5.12-2.78,3.65,3.65,0,0,1,3.89,2.91,5.64,5.64,0,0,1,5.07-2.91c3.39,0,4.12,2.75,4.12,5.41Z" fill="#13377d"/><path d="M260.67,12.58a7.21,7.21,0,0,1,14.42,0,7.21,7.21,0,0,1-14.42,0Zm7.23,4.12c2,0,3.59-1.73,3.59-4.15s-1.57-4.12-3.59-4.12-3.6,1.76-3.6,4.15S265.87,16.7,267.9,16.7Z" fill="#13377d"/><path d="M276.54,12.55c0-4,2.55-7.11,6.14-7.11a5.37,5.37,0,0,1,4.63,2.65V.26h3.51V15.39c0,.73.27,1,.95,1.05v3a9.71,9.71,0,0,1-1.68.19A2,2,0,0,1,287.91,18l-.08-.95a5.44,5.44,0,0,1-4.78,2.66C279.24,19.7,276.54,16.54,276.54,12.55Zm10.79,1.84V11.11a4.13,4.13,0,0,0-3.57-2.68c-2.13,0-3.6,2-3.6,4.2A3.87,3.87,0,0,0,284,16.7,3.8,3.8,0,0,0,287.33,14.39Z" fill="#13377d"/><path d="M293.3,12.63a7,7,0,0,1,7.27-7.19,6.89,6.89,0,0,1,7.17,7.06,7.62,7.62,0,0,1-.08,1.18H297a3.62,3.62,0,0,0,3.65,3.44,3.5,3.5,0,0,0,3.26-1.86l3,.84a6.85,6.85,0,0,1-6.41,3.6A6.94,6.94,0,0,1,293.3,12.63Zm10.81-1.23a3.57,3.57,0,0,0-7.14,0Z" fill="#13377d"/><path d="M318,8.72c-2.13,0-3.94.84-4.68,2.39v8.32H309.8V5.67H313V8.61a5.16,5.16,0,0,1,4.25-3.15,4.64,4.64,0,0,1,.71,0Z" fill="#13377d"/><path d="M332.36,19.43h-3.51V11.71c0-2.2-.82-3.18-2.18-3.18a4.13,4.13,0,0,0-3.58,2.87v8h-3.52V5.67h3.18V8.22a6.16,6.16,0,0,1,5.46-2.78c3.44,0,4.15,2.73,4.15,5.41Z" fill="#13377d"/><path d="M340.54,17.86,342,15.47a9.3,9.3,0,0,0,5.07,1.7c1.47,0,2.37-.55,2.37-1.52s-.92-1.31-3.26-1.86c-3.6-.84-4.91-1.74-4.91-3.84,0-2.81,2.39-4.54,5.54-4.54a11,11,0,0,1,5.65,1.71L351,9.3a7.62,7.62,0,0,0-4.23-1.4c-1.26,0-2.23.48-2.23,1.55s.71,1.21,2.81,1.74c3.92.94,5.49,1.83,5.49,4.15,0,2.67-2.23,4.36-5.7,4.36A12.49,12.49,0,0,1,340.54,17.86Z" fill="#13377d"/><path d="M354,12.58a7.21,7.21,0,0,1,14.42,0,7.21,7.21,0,0,1-14.42,0Zm7.22,4.12c2,0,3.6-1.73,3.6-4.15s-1.57-4.12-3.6-4.12-3.59,1.76-3.59,4.15S359.21,16.7,361.23,16.7Z" fill="#13377d"/><path d="M371.39,19.43V10H369.6V7.27h1.79V5.57C371.39,2.15,373.2,0,376,0a8,8,0,0,1,3.39.81l-.71,2.66a4.42,4.42,0,0,0-1.92-.5c-1.21,0-1.84.86-1.84,2.47V7.27h3.37V10H374.9v9.45Z" fill="#13377d"/><path d="M388.76,18.72a10,10,0,0,1-3.91,1c-1.94,0-3.57-1-3.57-3.39V8.38h-1.79V5.67h1.79V1.21h3.52V5.67h2.91V8.38H384.8V15.1a1.21,1.21,0,0,0,1.34,1.34,5.14,5.14,0,0,0,1.91-.5Z" fill="#13377d"/><path d="M407.61,5.67H411l-5.75,13.76h-2.89l-2.36-6-2.34,6h-2.89L389,5.67h3.34l4.09,10.45,1.68-4.46-2.41-6h2.83L400,9.93l1.47-4.23h2.83l-2.39,6,1.66,4.46Z" fill="#13377d"/><path d="M411.41,15.34c0-2.63,2.41-4.44,5.85-4.44a8.77,8.77,0,0,1,3.36.6v-.79c0-1.81-1.05-2.83-3.07-2.83a7.35,7.35,0,0,0-4.3,1.55L412.17,7.2a10.06,10.06,0,0,1,5.72-1.76c3.94,0,6.25,2,6.25,5.67v4.28c0,.73.27,1,.95,1.05v3a9.22,9.22,0,0,1-1.68.19A2,2,0,0,1,421.23,18l-.08-.76a6.26,6.26,0,0,1-5,2.47A4.44,4.44,0,0,1,411.41,15.34Zm8.64.63a1.36,1.36,0,0,0,.57-1V13.39a8.55,8.55,0,0,0-2.78-.52c-1.81,0-3.1.92-3.1,2.18a2.19,2.19,0,0,0,2.37,2.07A4,4,0,0,0,420.05,16Z" fill="#13377d"/><path d="M435.6,8.72c-2.13,0-3.94.84-4.68,2.39v8.32H427.4V5.67h3.23V8.61a5.19,5.19,0,0,1,4.26-3.15,4.64,4.64,0,0,1,.71,0Z" fill="#13377d"/><path d="M436.32,12.63a7,7,0,0,1,7.27-7.19,6.89,6.89,0,0,1,7.17,7.06,7.62,7.62,0,0,1-.08,1.18H440.05a3.61,3.61,0,0,0,3.65,3.44A3.48,3.48,0,0,0,447,15.26l3,.84a6.85,6.85,0,0,1-6.41,3.6A7,7,0,0,1,436.32,12.63Zm10.82-1.23A3.57,3.57,0,0,0,443.54,8,3.53,3.53,0,0,0,440,11.4Z" fill="#13377d"/></g></g></svg>