<svg version="1" viewBox="0 0 313.52 684.98" xmlns="http://www.w3.org/2000/svg">
 <g stroke="#4d3d36" stroke-width="14.362">
  <path d="m243.54 36.109v92.57c0 15.976-38.854 28.928-86.784 28.928-47.93 0-86.784-12.952-86.784-28.928v-92.57" fill="#fff" stroke-linecap="round" stroke-linejoin="round"/>
  <path d="m243.54 36.109c0 15.976-38.854 28.928-86.784 28.928-47.93 0-86.784-12.952-86.784-28.928 0-15.976 38.854-28.928 86.784-28.928 47.93 0 86.784 12.952 86.784 28.928z" fill="#f60"/>
  <g fill="none" stroke-linecap="round" stroke-linejoin="round">
   <path d="m156.76 192.32v-34.714"/>
   <path d="m133.62 215.46h-80.998"/>
   <path d="m179.9 215.46h80.998"/>
  </g>
  <path d="m179.9 215.46c0 12.781-10.361 23.142-23.142 23.142-12.781 0-23.142-10.361-23.142-23.142 0-12.781 10.361-23.142 23.142-23.142 12.781 0 23.142 10.361 23.142 23.142z" fill="#f60" stroke-linecap="round" stroke-linejoin="round"/>
  <path d="m243.54 82.394c0 15.976-38.854 28.928-86.784 28.928-47.93 0-86.784-12.952-86.784-28.928" fill="none" stroke-linecap="round" stroke-linejoin="round"/>
 </g>
 <path d="m258.5 534.2c-1.477-0.999-2.549-2.491-3.024-4.209-0.054-0.193-2.315-8.354-5.204-18.859l-25.144 7.83-2.87 13.239c-0.762 3.513-3.869 5.912-7.323 5.913-0.526 0-1.061-0.056-1.596-0.172-4.049-0.878-6.618-4.871-5.741-8.919l3.797-17.512c0.573-2.641 2.521-4.769 5.101-5.572l29.807-9.281c-2.983-10.91-5.918-21.744-7.45-27.676-2.604-10.077-6.936-19.471-12.876-27.921-2.041-2.903-1.768-6.84 0.655-9.433 20.751-22.216 37.581-48.204 50.024-77.244 16.344-38.145 23.685-78.409 21.48-117.29-29.672 25.223-53.761 58.31-70.106 96.456-9.873 23.043-16.479 46.917-19.664 71.037 3.58 2.156 7.039 4.527 10.313 7.117 3.249 2.569 3.8 7.286 1.229 10.534-1.479 1.872-3.673 2.848-5.887 2.848-1.63 0-3.271-0.528-4.647-1.618-3.899-3.083-8.096-5.821-12.473-8.157-0.036-0.019-0.074-0.031-0.11-0.05-12.315-6.551-25.784-9.872-40.031-9.872s-27.716 3.321-40.031 9.872c-0.034 0.018-0.07 0.03-0.105 0.048-4.378 2.337-8.577 5.074-12.478 8.159-1.377 1.09-3.019 1.618-4.647 1.618-2.214 0-4.407-0.976-5.887-2.848-2.57-3.248-2.02-7.965 1.229-10.534 3.274-2.59 6.734-4.961 10.313-7.117-3.185-24.121-9.791-47.995-19.664-71.038-16.346-38.146-40.435-71.233-70.106-96.456-2.205 38.882 5.137 79.146 21.483 117.29 12.444 29.041 29.275 55.03 50.025 77.245 2.422 2.593 2.695 6.529 0.654 9.433-5.94 8.449-10.272 17.843-12.876 27.92-1.533 5.932-4.468 16.765-7.45 27.676l29.807 9.281c2.58 0.804 4.527 2.932 5.101 5.572l3.797 17.512c0.877 4.048-1.692 8.041-5.741 8.919-0.535 0.115-1.069 0.172-1.596 0.172-3.454 0-6.562-2.4-7.323-5.913l-2.87-13.239-25.144-7.83c-2.89 10.505-5.151 18.666-5.204 18.859-0.476 1.718-1.548 3.21-3.024 4.209-17.987 12.172-28.727 32.385-28.727 54.07 0 35.972 29.266 65.236 65.237 65.236h20.768c1.792 0 3.524 0.642 4.884 1.809 11.017 9.454 25.072 14.66 39.577 14.66s28.561-5.206 39.577-14.66c1.359-1.167 3.092-1.809 4.884-1.809h20.768c35.972 0 65.237-29.265 65.237-65.236-2e-3 -21.686-10.741-41.899-28.728-54.071zm-109.24-57.818c0-4.143 3.357-7.5 7.5-7.5s7.5 3.357 7.5 7.5v10.877c0 4.143-3.357 7.5-7.5 7.5s-7.5-3.357-7.5-7.5zm-20-21.754v-10.877c0-4.143 3.357-7.5 7.5-7.5s7.5 3.357 7.5 7.5v10.877c0 4.143-3.357 7.5-7.5 7.5s-7.5-3.357-7.5-7.5zm43.831 185.32h-32.66c-4.143 0-7.5-3.357-7.5-7.5s3.357-7.5 7.5-7.5h8.83v-15.816l-13.419-10.382c-3.276-2.534-3.878-7.245-1.343-10.521 1.471-1.902 3.676-2.895 5.907-2.904 0.024-7e-3 32.685-7e-3 32.685-7e-3 2.255 0.015 4.461 1.008 5.932 2.911 2.535 3.275 1.934 7.986-1.343 10.521l-13.42 10.383v15.816h8.83c4.143 0 7.5 3.357 7.5 7.5s-3.357 7.499-7.499 7.499zm11.169-185.32c0 4.143-3.357 7.5-7.5 7.5s-7.5-3.357-7.5-7.5v-10.877c0-4.143 3.357-7.5 7.5-7.5s7.5 3.357 7.5 7.5z" fill="#fff"/>
 <path d="m269.21 523.4c-2.74-9.907-12.56-45.468-15.841-58.168-2.546-9.855-6.504-19.158-11.791-27.731 20.114-22.501 36.535-48.445 48.858-77.206 19.311-45.067 26.714-93.023 21.409-138.68-0.311-2.67-2.025-4.97-4.496-6.028-2.472-1.061-5.319-0.715-7.466 0.902-36.718 27.653-66.335 66.09-85.645 111.16-9.723 22.691-16.444 46.163-20.031 69.914-11.791-4.709-24.555-7.167-37.451-7.167s-25.66 2.458-37.451 7.167c-3.587-23.751-10.309-47.223-20.031-69.914-19.312-45.067-48.928-83.504-85.647-111.16-2.146-1.617-4.993-1.963-7.466-0.902-2.471 1.059-4.186 3.358-4.496 6.028-5.305 45.659 2.099 93.615 21.409 138.68 12.324 28.76 28.747 54.707 48.857 77.206-5.286 8.573-9.244 17.876-11.79 27.731-3.281 12.7-13.101 48.261-15.841 58.168-20.724 15.102-33.012 39.143-33.012 64.872 0 44.242 35.994 80.236 80.237 80.236h18.072c13.383 10.641 30.017 16.469 47.156 16.469s33.773-5.828 47.156-16.469h18.072c44.243 0 80.237-35.994 80.237-80.236 3e-3 -25.73-12.285-49.771-33.008-64.872zm-47.226 130.11h-20.768c-1.792 0-3.524 0.642-4.884 1.809-11.017 9.454-25.072 14.66-39.577 14.66s-28.561-5.206-39.577-14.66c-1.359-1.167-3.092-1.809-4.884-1.809h-20.768c-35.972 0-65.237-29.265-65.237-65.236 0-21.686 10.739-41.898 28.727-54.07 1.477-0.999 2.549-2.491 3.024-4.209 0.054-0.193 2.315-8.354 5.204-18.859l25.144 7.83 2.87 13.239c0.762 3.513 3.869 5.913 7.323 5.913 0.526 0 1.061-0.057 1.596-0.172 4.049-0.878 6.618-4.871 5.741-8.919l-3.797-17.512c-0.573-2.641-2.521-4.769-5.101-5.572l-29.807-9.281c2.983-10.91 5.918-21.744 7.45-27.676 2.604-10.077 6.936-19.471 12.876-27.92 2.041-2.903 1.768-6.84-0.654-9.433-20.75-22.215-37.581-48.204-50.025-77.245-16.344-38.146-23.686-78.41-21.481-117.29 29.672 25.223 53.761 58.31 70.106 96.456 9.873 23.043 16.479 46.917 19.664 71.038-3.579 2.155-7.039 4.527-10.313 7.117-3.249 2.569-3.8 7.286-1.229 10.534 1.479 1.872 3.673 2.848 5.887 2.848 1.629 0 3.271-0.528 4.647-1.618 3.901-3.085 8.1-5.823 12.478-8.159 0.034-0.018 0.071-0.03 0.105-0.048 12.315-6.551 25.784-9.872 40.031-9.872s27.716 3.321 40.031 9.872c0.036 0.019 0.074 0.031 0.11 0.05 4.377 2.336 8.574 5.073 12.473 8.157 1.377 1.09 3.018 1.618 4.647 1.618 2.214 0 4.407-0.976 5.887-2.848 2.57-3.248 2.02-7.965-1.229-10.534-3.274-2.59-6.733-4.961-10.313-7.117 3.185-24.121 9.791-47.995 19.664-71.037 16.346-38.146 40.435-71.233 70.106-96.456 2.205 38.881-5.137 79.145-21.482 117.29-12.443 29.04-29.273 55.028-50.024 77.244-2.423 2.593-2.696 6.529-0.655 9.433 5.94 8.45 10.272 17.844 12.876 27.921 1.533 5.932 4.468 16.765 7.45 27.676l-29.807 9.281c-2.58 0.804-4.527 2.932-5.101 5.572l-3.797 17.512c-0.877 4.048 1.692 8.041 5.741 8.919 0.535 0.116 1.069 0.172 1.596 0.172 3.454-1e-3 6.562-2.4 7.323-5.913l2.87-13.239 25.144-7.83c2.89 10.505 5.151 18.666 5.204 18.859 0.476 1.718 1.548 3.21 3.024 4.209 17.987 12.172 28.727 32.385 28.727 54.07 1e-3 35.97-29.264 65.235-65.236 65.235z" fill="#4d3d36"/>
 <path d="m156.76 595.98 11.741-9.083c1.373-1.063 3-1.567 4.612-1.561-0.023-7e-3 -32.684-7e-3 -32.684-7e-3 1.589 1e-3 3.216 0.505 4.589 1.568z" fill="#f60"/>
 <path d="m173.09 624.95h-8.83v-15.816l13.419-10.382c3.276-2.534 3.878-7.245 1.343-10.521-1.471-1.903-3.677-2.896-5.908-2.904-1.613-6e-3 -3.239 0.499-4.612 1.561l-11.743 9.085-11.741-9.083c-1.373-1.063-3-1.567-4.613-1.561-2.231 9e-3 -4.436 1.002-5.907 2.904-2.535 3.275-1.934 7.986 1.343 10.521l13.419 10.382v15.816h-8.83c-4.143 0-7.5 3.357-7.5 7.5s3.357 7.5 7.5 7.5h32.66c4.143 0 7.5-3.357 7.5-7.5s-3.358-7.502-7.5-7.502z" fill="#4d3d36" stroke-width="1.0016"/>
 <g fill="#f60">
  <path d="m144.26 454.63v-10.877c0-4.143-3.357-7.5-7.5-7.5s-7.5 3.357-7.5 7.5v10.877c0 4.143 3.357 7.5 7.5 7.5s7.5-3.357 7.5-7.5z"/>
  <path d="m156.76 494.76c4.143 0 7.5-3.357 7.5-7.5v-10.877c0-4.143-3.357-7.5-7.5-7.5s-7.5 3.357-7.5 7.5v10.877c0 4.143 3.358 7.5 7.5 7.5z"/>
  <path d="m176.76 436.25c-4.143 0-7.5 3.357-7.5 7.5v10.877c0 4.143 3.357 7.5 7.5 7.5s7.5-3.357 7.5-7.5v-10.877c0-4.142-3.357-7.5-7.5-7.5z"/>
 </g>
</svg>
