<?xml version="1.0" encoding="UTF-8" standalone="no"?>
<svg width="84px" height="80px" viewBox="0 0 84 80" version="1.1" xmlns="http://www.w3.org/2000/svg" xmlns:xlink="http://www.w3.org/1999/xlink">
    <!-- Generator: Sketch 42 (36781) - http://www.bohemiancoding.com/sketch -->
    <title>quotes</title>
    <desc>Created with Sketch.</desc>
    <defs></defs>
    <g id="Page-1" stroke="none" stroke-width="1" fill="none" fill-rule="evenodd" stroke-linecap="round" stroke-linejoin="round">
        <g id="quotes" stroke="#FF6600" stroke-width="3">
            <g id="Page-1" transform="translate(2.000000, 5.000000)">
                <path d="M76.6544382,0.15936255 L3.34670916,0.15936255 C1.58639044,0.15936255 0.159458167,1.58629482 0.159458167,3.34661355 L0.159458167,21.4658167 C0.159458167,23.2258167 1.58639044,24.6530677 3.34670916,24.6530677 L54.9690199,24.6530677 L64.7965896,37.9671713 L64.7965896,24.6530677 L76.6544382,24.6530677 C78.414757,24.6530677 79.8416892,23.2258167 79.8416892,21.4658167 L79.8416892,3.34661355 C79.8416892,1.58629482 78.414757,0.15936255 76.6544382,0.15936255 Z" id="Stroke-1"></path>
                <path d="M52.8280478,31.1962709 L3.34661355,31.1962709 C1.58629482,31.1962709 0.15936255,32.6232032 0.15936255,34.3835219 L0.15936255,52.5027251 C0.15936255,54.2627251 1.58629482,55.6899761 3.34661355,55.6899761 L14.2495618,55.6899761 L14.2495618,69.0040797 L24.0771315,55.6899761 L76.6543426,55.6899761 C78.4146614,55.6899761 79.8415936,54.2627251 79.8415936,52.5027251 L79.8415936,34.3835219 C79.8415936,32.6232032 78.4146614,31.1962709 76.6543426,31.1962709 L70.0478088,31.1962709" id="Stroke-3"></path>
                <path d="M67.018008,6.37730677 L70.0720319,6.37730677 C71.8323506,6.37730677 73.2592829,7.80423904 73.2592829,9.56455777 L73.2592829,12.6192191" id="Stroke-5"></path>
                <path d="M6.86049402,43.6546614 L6.86049402,40.6015936 C6.86049402,38.8415936 8.28742629,37.4143426 10.047745,37.4143426 L13.1036813,37.4143426" id="Stroke-7"></path>
            </g>
        </g>
    </g>
</svg>