<?xml version="1.0" encoding="UTF-8" standalone="no"?>
<svg width="84px" height="80px" viewBox="0 0 84 80" version="1.1" xmlns="http://www.w3.org/2000/svg" xmlns:xlink="http://www.w3.org/1999/xlink">
    <!-- Generator: Sketch 42 (36781) - http://www.bohemiancoding.com/sketch -->
    <title>network</title>
    <desc>Created with Sketch.</desc>
    <defs></defs>
    <g id="Page-1" stroke="none" stroke-width="1" fill="none" fill-rule="evenodd" stroke-linecap="round" stroke-linejoin="round">
        <g id="network" stroke="#FF6600" stroke-width="3">
            <path d="M80.6283525,21.7368582 L80.6283525,10.0798467 C80.6283525,8.37900383 79.2689655,7 77.5923372,7 L63.0188506,7 C61.3419157,7 59.9825287,8.37900383 59.9825287,10.0798467 L59.9825287,21.7368582 C59.9825287,23.4377011 61.3419157,24.816705 63.0188506,24.816705 L64.536705,24.816705 C66.2136398,24.816705 67.5730268,26.1954023 67.5730268,27.8962452 L67.5730268,35.2252874 C67.5730268,36.2456705 66.7573946,37.0729502 65.7514176,37.0729502 L46.84659,37.0729502 C45.840613,37.0729502 45.0249808,36.2456705 45.0249808,35.2252874 L45.0249808,27.8962452 C45.0249808,26.1954023 46.3843678,24.816705 48.0609962,24.816705 L49.5368582,24.816705 C51.2137931,24.816705 52.5728736,23.4377011 52.5728736,21.7368582 L52.5728736,10.0798467 C52.5728736,8.37900383 51.2137931,7 49.5368582,7 L34.9633716,7 C33.2867433,7 31.9273563,8.37900383 31.9273563,10.0798467 L31.9273563,21.7368582 C31.9273563,23.4377011 33.2867433,24.816705 34.9633716,24.816705 L36.5238314,24.816705 C38.2004598,24.816705 39.5598467,26.1954023 39.5598467,27.8962452 L39.5598467,35.2252874 C39.5598467,36.2456705 38.7442146,37.0729502 37.7382375,37.0729502 L18.8769349,37.0729502 C17.8709579,37.0729502 17.0553257,36.2456705 17.0553257,35.2252874 L17.0553257,27.8962452 C17.0553257,26.1954023 18.4147126,24.816705 20.0916475,24.816705 L21.6095019,24.816705 C23.2864368,24.816705 24.6458238,23.4377011 24.6458238,21.7368582 L24.6458238,10.0798467 C24.6458238,8.37900383 23.2864368,7 21.6095019,7 L7.03601533,7 C5.35938697,7 4,8.37900383 4,10.0798467 L4,21.7368582 C4,23.4377011 5.35938697,24.816705 7.03601533,24.816705 L8.55417625,24.816705 C10.2311111,24.816705 11.5901916,26.1954023 11.5901916,27.8962452 L11.5901916,52.3106513 C11.5901916,54.0114943 10.2311111,55.3904981 8.55417625,55.3904981 L7.03601533,55.3904981 C5.35938697,55.3904981 4,56.7691954 4,58.4700383 L4,70.1273563 C4,71.8281992 5.35938697,73.2068966 7.03601533,73.2068966 L21.6095019,73.2068966 C23.2864368,73.2068966 24.6458238,71.8281992 24.6458238,70.1273563 L24.6458238,58.4700383 C24.6458238,56.7691954 23.2864368,55.3904981 21.6095019,55.3904981 L20.0916475,55.3904981 C18.4147126,55.3904981 17.0553257,54.0114943 17.0553257,52.3106513 L17.0553257,44.4645211 C17.0553257,43.4438314 17.8709579,42.6165517 18.8769349,42.6165517 L37.7382375,42.6165517 C38.7442146,42.6165517 39.5598467,43.4438314 39.5598467,44.4645211 L39.5598467,52.3106513 C39.5598467,54.0114943 38.2004598,55.3904981 36.5238314,55.3904981 L34.9633716,55.3904981 C33.2867433,55.3904981 31.9273563,56.7691954 31.9273563,58.4700383 L31.9273563,70.1273563 C31.9273563,71.8281992 33.2867433,73.2068966 34.9633716,73.2068966 L49.5368582,73.2068966 C51.2137931,73.2068966 52.5728736,71.8281992 52.5728736,70.1273563 L52.5728736,58.4700383 C52.5728736,56.7691954 51.2137931,55.3904981 49.5368582,55.3904981 L48.0609962,55.3904981 C46.3843678,55.3904981 45.0249808,54.0114943 45.0249808,52.3106513 L45.0249808,44.4645211 C45.0249808,43.4438314 45.840613,42.6165517 46.84659,42.6165517 L65.7514176,42.6165517 C66.7573946,42.6165517 67.5730268,43.4438314 67.5730268,44.4645211 L67.5730268,52.3106513 C67.5730268,54.0114943 66.2136398,55.3904981 64.536705,55.3904981 L63.0188506,55.3904981 C61.3419157,55.3904981 59.9825287,56.7691954 59.9825287,58.4700383 L59.9825287,70.1273563 C59.9825287,71.8281992 61.3419157,73.2068966 63.0188506,73.2068966 L77.5923372,73.2068966 C79.2689655,73.2068966 80.6283525,71.8281992 80.6283525,70.1273563 L80.6283525,58.4700383 C80.6283525,56.7691954 79.2689655,55.3904981 77.5923372,55.3904981 L76.0741762,55.3904981 C74.3972414,55.3904981 73.0381609,54.0114943 73.0381609,52.3106513 L73.0381609,27.8962452 C73.0381609,26.1954023 74.3972414,24.816705 76.0741762,24.816705 L77.5923372,24.816705 C79.2689655,24.816705 80.6283525,23.4377011 80.6283525,21.7368582 Z" id="Page-1"></path>
        </g>
    </g>
</svg>