<?xml version="1.0" encoding="UTF-8"?>
<svg id="Layer_2" data-name="Layer 2" xmlns="http://www.w3.org/2000/svg" viewBox="0 0 1060.37 97.45">
  <defs>
    <style>
      .cls-1 {
        fill: #f60;
      }

      .cls-2 {
        fill: #a9b5af;
      }
    </style>
  </defs>
  <g id="Layer_1-2" data-name="Layer 1">
    <g>
      <g>
        <path class="cls-2" d="M610.83,82.63l-4.33,13.51h-1.33l-4.35-13.51h0v13.51h-1.17v-14.67h2.12l4.11,12.86h0l4.11-12.86h2.07v14.67h-1.17v-13.51h-.07Z"/>
        <polygon class="cls-2" points="598.25 81.46 592.21 81.46 591.04 81.46 585.03 81.46 585.03 82.63 591.04 82.63 591.04 96.13 592.21 96.13 592.21 82.63 598.25 82.63 598.25 81.46"/>
        <path class="cls-2" d="M458.65,95.92h-8.61l-28.3-86.74v86.74h-7.54V1.64h13.53l26.35,82.53h.29L480.81,1.64h13.22v94.28h-7.47V9.18l-27.92,86.74Z"/>
        <path class="cls-1" d="M111.02,1.62v94.3h8.18v-42.63h11.32c2.99-.06,5.97.43,8.8,1.43,8.35,3.16,9.3,12.84,10.8,19.02l4.76,22.3h8.23l-5.35-25.44c-1.57-7.66-2.62-10.94-4.76-14.27-2.83-4.4-10.91-6.78-10.91-6.78,13.27-2.59,19.02-11.48,19.02-23.61,0-11.13-5.4-24.13-30.17-24.13h-19.9v-.19ZM119.2,9.13h10.8c21.57,0,22.83,11.46,22.83,16.64,0,4.3-.78,20-26.16,20h-7.47V9.15h0v-.02Z"/>
        <path class="cls-1" d="M172.82,46.46h8.37c.76-3.8,2.38-10.56,13.53-10.56,14.6,0,14.12,12.65,14.12,17.55v5.71s-4.76,0-7.7.29c-11.15.86-29.37,3.76-29.37,20.57s13.93,17.38,16.64,17.38c4,.07,7.96-.87,11.51-2.73,3.5-1.9,6.49-4.63,8.7-7.94h.29v9.2h6.78v-44.42c0-6.63.62-22.11-20.33-22.11s-22.54,13.98-22.54,17.07ZM208.82,65.67c0,2.51-.16,5.02-.48,7.51-1.41,9.22-9.36,16.03-18.69,16-4.85.46-9.15-3.1-9.61-7.95-.03-.29-.04-.58-.04-.87,0-3.45,1.33-11.51,14.58-14.05,2.78-.52,14.24-.64,14.24-.64Z"/>
        <path class="cls-1" d="M226.91,1.62v67.67c0,3.66.12,28.13,22.66,28.13,5.42,0,25.2-1.9,25.2-33.29s-17.36-34.69-22.59-34.69c-8.46-.04-15.9,5.59-18.17,13.74h-.24V1.62h-6.9.02ZM266.55,63.94c0,26.32-14.69,26.87-16.98,26.87s-15.53,0-15.53-25.8c0-21.4,10.3-29.13,17.38-29.13s15.12,7.3,15.12,28.08v-.02Z"/>
        <path class="cls-1" d="M285.38,1.62v67.67c0,3.66.12,28.13,22.66,28.13,5.42,0,25.2-1.9,25.2-33.29s-17.36-34.69-22.59-34.69c-8.46-.04-15.9,5.59-18.17,13.74h-.29V1.62h-6.9.07ZM325.02,63.94c0,26.32-14.69,26.87-16.98,26.87s-15.53,0-15.53-25.8c0-21.4,10.3-29.13,17.38-29.13s15.1,7.3,15.1,28.08l.02-.02Z"/>
        <path class="cls-1" d="M351.65,30.86v65.06h-6.82V30.86h6.82Z"/>
        <path class="cls-1" d="M353.22,1.64v11.06h-10.08V1.64h10.08Z"/>
        <path class="cls-1" d="M399.2,96.82c-2.3.32-4.62.52-6.94.59-4.62.28-9.2-1.04-12.96-3.73-2.85-2.38-4.26-6.56-4.26-12.29v-44.01h-10.41v-6.52h10.41v-15.03l6.78-4.54v19.55h17.38v6.52h-17.36v41.85c0,1.88-.45,11.58,9.84,11.58,2.55-.03,5.08-.42,7.51-1.17v7.13h0v.07Z"/>
        <path class="cls-1" d="M91.09,39h-30.36c-2.09.01-3.79-1.67-3.8-3.76,0-.02,0-.03,0-.05V4.83c0-2.09-1.69-3.78-3.78-3.78,0,0-.02,0-.02,0h-11.37c-2.09-.01-3.79,1.67-3.8,3.76,0,0,0,.02,0,.02v30.36c.01,2.09-1.67,3.79-3.76,3.8-.02,0-.03,0-.05,0h-11.37c-2.09.01-3.79-1.67-3.8-3.76,0-.02,0-.03,0-.05V4.83c.01-2.09-1.67-3.79-3.76-3.8-.02,0-.03,0-.05,0H3.78C1.69,1.02,0,2.72,0,4.8c0,0,0,.02,0,.02v87.31c-.01,2.09,1.67,3.79,3.76,3.8.02,0,.03,0,.05,0h87.29c2.09.01,3.79-1.67,3.8-3.76,0-.02,0-.03,0-.05v-49.27c.05-2.09-1.6-3.82-3.68-3.87-.04,0-.08,0-.12,0ZM75.83,71.24c.01,3.14-2.52,5.69-5.66,5.71,0,0-.02,0-.02,0h-7.61c-3.14,0-5.68-2.54-5.68-5.68,0,0,0-.02,0-.02v-7.59c-.01-3.14,2.52-5.69,5.66-5.71,0,0,.02,0,.02,0h7.61c3.14,0,5.68,2.54,5.68,5.68,0,0,0,.02,0,.02v7.59Z"/>
        <path class="cls-2" d="M556.76,89.52c8.73-7.47,13.39-21.4,13.39-41.49,0-29.27-11.06-48.03-31.7-48.03-19.36,0-32.84,15.72-32.84,48.03s11.46,47.94,32.27,47.94h38.92v-7.92l-20.04,1.47ZM514.57,48.05c0-26.87,7.68-39.92,23.78-39.92s22.73,15.6,22.73,39.92-5.85,39.99-23.14,39.99-23.37-13.13-23.37-39.99Z"/>
      </g>
      <g>
        <path class="cls-1" d="M662.67,65.69c0,7.85-5.02,13.39-11.78,13.39-4.08,0-7.38-2.04-9.3-5.38v4.79h-3.69v-34.54h3.69v13.78c1.92-3.38,5.18-5.38,9.3-5.38,6.71,0,11.78,5.53,11.78,13.35ZM658.74,65.69c0-5.89-3.57-10.05-8.56-10.05s-8.6,4.16-8.6,10.05,3.57,10.09,8.6,10.09c5.02,0,8.56-4.2,8.56-10.09Z"/>
        <path class="cls-1" d="M668.83,86.58l.9-3.18c.9.43,1.92.63,3.02.63,1.65,0,2.71-.55,3.69-2.28l1.49-3.18-11.11-25.63h4.08l8.95,21.24,8.44-21.24h4l-11.66,28.42c-1.77,4.36-4.24,5.97-7.77,6.05-1.45,0-2.87-.31-4.04-.82Z"/>
        <path class="cls-1" d="M744.71,44.54l-14.96,33.96h-4.2l-14.96-33.96h4.2l12.92,29.21,12.84-29.21h4.16Z"/>
        <path class="cls-1" d="M750.92,44.54h3.85l12.6,23.67,12.6-23.67h3.85v33.96h-3.85v-25.63l-12.6,23.67-12.6-23.67v25.63h-3.85v-33.96Z"/>
        <path class="cls-1" d="M790.21,52.94h3.96l6.36,20.61,6.99-20.61h3.22l6.99,20.61,6.36-20.61h3.96l-8.6,25.56h-3.49l-6.75-20.41-6.87,20.41h-3.49l-8.64-25.56Z"/>
        <path class="cls-1" d="M854.16,62.95v15.58h-3.69v-4c-1.84,3.02-5.65,4.59-8.99,4.59-5.38,0-9.34-3.1-9.34-8.17s4.55-8.52,10.05-8.52c2.75,0,5.69.59,8.32,1.45v-.94c0-3.45-1.37-7.42-6.91-7.42-2.55,0-5.14,1.14-7.46,2.32l-1.49-3.02c3.65-1.85,6.71-2.47,9.19-2.47,6.91,0,10.32,4.4,10.32,10.6ZM850.47,70.48v-3.89c-2.32-.63-4.95-1.02-7.69-1.02-3.81,0-7.03,2.16-7.03,5.22s2.75,5.02,6.36,5.02c3.38,0,7.38-1.73,8.36-5.34Z"/>
        <path class="cls-1" d="M875.67,52.35v3.3c-5.77,0-9.89,3.57-9.89,8.56v14.29h-3.69v-25.56h3.69v4.99c1.53-3.38,5.18-5.57,9.89-5.57Z"/>
        <path class="cls-1" d="M900.36,72.72l2.28,2.43c-2.24,2.43-6.71,3.96-10.28,3.96-6.83,0-12.95-5.57-12.95-13.43s5.73-13.31,12.6-13.31c7.69,0,12.09,5.85,12.09,14.76h-20.92c.55,4.99,4.04,8.64,9.11,8.64,3.06,0,6.52-1.33,8.09-3.06ZM883.29,63.81h17.19c-.51-4.59-3.22-8.17-8.32-8.17-4.51.04-8.17,3.22-8.87,8.17Z"/>
        <path class="cls-1" d="M934.44,48.23h-11.42v-3.65h26.69v3.65h-11.42v30.31h-3.85v-30.31h0Z"/>
        <path class="cls-1" d="M976.44,62.95v15.58h-3.69v-4c-1.84,3.02-5.65,4.59-8.99,4.59-5.38,0-9.34-3.1-9.34-8.17s4.55-8.52,10.05-8.52c2.75,0,5.69.59,8.32,1.45v-.94c0-3.45-1.37-7.42-6.91-7.42-2.55,0-5.14,1.14-7.46,2.32l-1.49-3.02c3.65-1.85,6.71-2.47,9.19-2.47,6.91,0,10.32,4.4,10.32,10.6ZM972.75,70.48v-3.89c-2.32-.63-4.95-1.02-7.69-1.02-3.81,0-7.03,2.16-7.03,5.22s2.75,5.02,6.36,5.02c3.34,0,7.34-1.73,8.36-5.34Z"/>
        <path class="cls-1" d="M1005.76,62.24v16.25h-3.69v-15.78c0-4.16-2.63-7.07-6.36-7.07-4.32,0-7.89,3.02-7.89,6.56v16.25h-3.69v-25.56h3.69v4.08c1.49-2.71,4.79-4.71,8.4-4.71,5.57.08,9.54,4.2,9.54,9.97Z"/>
        <path class="cls-1" d="M1012.16,75.59l15.07-19.12h-14.76v-3.49h19.78v2.9l-15.11,19.12h15.23v3.49h-20.18l-.04-2.9h0Z"/>
        <path class="cls-1" d="M1060.37,52.94v25.56h-3.69v-4.08c-1.49,2.71-4.79,4.71-8.4,4.71-5.65,0-9.58-4.08-9.58-9.89v-16.25h3.69v15.78c0,4.16,2.63,7.07,6.36,7.07,4.32,0,7.89-3.02,7.89-6.56v-16.25h3.73v-.08h0Z"/>
      </g>
    </g>
  </g>
</svg>