<?xml version="1.0" encoding="UTF-8" standalone="no"?>
<svg width="84px" height="80px" viewBox="0 0 84 80" version="1.1" xmlns="http://www.w3.org/2000/svg" xmlns:xlink="http://www.w3.org/1999/xlink">
    <!-- Generator: Sketch 42 (36781) - http://www.bohemiancoding.com/sketch -->
    <title>tools</title>
    <desc>Created with Sketch.</desc>
    <defs></defs>
    <g id="Page-1" stroke="none" stroke-width="1" fill="none" fill-rule="evenodd" stroke-linecap="round" stroke-linejoin="round">
        <g id="tools" stroke="#FF6600" stroke-width="3">
            <g id="Page-1" transform="translate(2.000000, 5.000000)">
                <path d="M15.916239,46.455745 L14.0038884,46.455745 C12.2435697,46.455745 10.8166375,45.0288127 10.8166375,43.268494 L10.8166375,33.4941514 C10.8166375,31.7338327 12.2435697,30.3069004 14.0038884,30.3069004 L15.916239,30.3069004 C17.6765578,30.3069004 19.10349,31.7338327 19.10349,33.4941514 L19.10349,43.268494 C19.10349,45.0288127 17.6765578,46.455745 15.916239,46.455745 Z" id="Stroke-1"></path>
                <path d="M65.9961116,46.5711873 L64.083761,46.5711873 C62.3234422,46.5711873 60.89651,45.144255 60.89651,43.3839363 L60.89651,33.3950916 C60.89651,31.6347729 62.3234422,30.2078406 64.083761,30.2078406 L65.9961116,30.2078406 C67.7564303,30.2078406 69.1833625,31.6347729 69.1833625,33.3950916 L69.1833625,43.3839363 C69.1833625,45.144255 67.7564303,46.5711873 65.9961116,46.5711873 Z" id="Stroke-3"></path>
                <path d="M48.0743586,37.7014502 L48.0743586,39.7240797 C48.0743586,41.4840797 46.6474263,42.9113307 44.8871076,42.9113307 L35.1127649,42.9113307 C33.3527649,42.9113307 31.9255139,41.4840797 31.9255139,39.7240797 L31.9255139,37.7014502 C31.9255139,35.9411315 33.3527649,34.5141992 35.1127649,34.5141992 L44.8871076,34.5141992 C46.6474263,34.5141992 48.0743586,35.9411315 48.0743586,37.7014502 Z" id="Stroke-5"></path>
                <path d="M68.3321116,19.0396813 L11.6168924,19.0396813 C5.28924303,19.0396813 0.15936255,24.8235857 0.15936255,31.958247 L0.15936255,38.4302789 L0.15936255,39.9244622 L0.15936255,65.7743426 C0.15936255,67.5579283 1.44191235,69.0039841 3.02374502,69.0039841 L76.925259,69.0039841 C78.5070916,69.0039841 79.7896414,67.5579283 79.7896414,65.7743426 L79.7896414,39.9244622 L79.7896414,38.4302789 L79.7896414,31.958247 C79.7896414,24.8235857 74.6600797,19.0396813 68.3321116,19.0396813 Z" id="Stroke-7"></path>
                <path d="M0.15936255,38 L10.5192032,38" id="Stroke-9"></path>
                <path d="M48.5221673,38 L60.8781833,38" id="Stroke-11"></path>
                <path d="M55.0605259,10.3318566 C55.0605259,8.54827092 53.6335936,7.10221514 51.8732749,7.10221514 L28.1266614,7.10221514 C26.3663426,7.10221514 24.9394104,8.54827092 24.9394104,10.3318566 L24.9394104,19.039745 L55.0605259,19.039745 L55.0605259,10.3318566 Z" id="Stroke-13"></path>
                <path d="M61.9123506,19.0396813 L61.9123506,6.61864542 C61.9123506,3.05115538 59.0584861,0.15936255 55.5378486,0.15936255 L24.4621514,0.15936255 C20.9415139,0.15936255 18.0876494,3.05115538 18.0876494,6.61864542 L18.0876494,19.0396813" id="Stroke-15"></path>
                <path d="M19.6171474,38 L30.6150757,38" id="Stroke-17"></path>
                <path d="M70.2127809,38 L79.7898327,38" id="Stroke-19"></path>
            </g>
        </g>
    </g>
</svg>