<svg id="Layer_1" data-name="Layer 1" xmlns="http://www.w3.org/2000/svg" viewBox="0 0 147.95 11.1"><title>date-location</title><path d="M8.84,4.77A5,5,0,0,1,7.69,8.32,4.24,4.24,0,0,1,4.42,9.55,4.26,4.26,0,0,1,1.14,8.32,5.08,5.08,0,0,1,0,4.76,5,5,0,0,1,1.15,1.22,4.28,4.28,0,0,1,4.43,0,4.21,4.21,0,0,1,7.7,1.23,5,5,0,0,1,8.84,4.77Zm-6.78,0a3.93,3.93,0,0,0,.59,2.35,2.08,2.08,0,0,0,1.77.78c1.57,0,2.35-1,2.35-3.13S6,1.64,4.43,1.64a2.08,2.08,0,0,0-1.77.79A3.83,3.83,0,0,0,2.06,4.77Z" fill="#243c7b"/><path d="M14.69,1.65A2,2,0,0,0,13,2.48a4,4,0,0,0-.61,2.33c0,2.07.78,3.11,2.33,3.11a7.52,7.52,0,0,0,2.37-.49V9.08a6.7,6.7,0,0,1-2.55.47,3.93,3.93,0,0,1-3.1-1.22A5.24,5.24,0,0,1,10.34,4.8a5.65,5.65,0,0,1,.53-2.54A3.83,3.83,0,0,1,12.38.59,4.55,4.55,0,0,1,14.69,0a6.18,6.18,0,0,1,2.72.66l-.63,1.6c-.35-.17-.7-.31-1.05-.44A3.21,3.21,0,0,0,14.69,1.65Z" fill="#243c7b"/><path d="M23,9.43H21V1.78H18.52V.15h7V1.78H23Z" fill="#243c7b"/><path d="M30.61,9.43l3.48-7.62H29.52V.16h6.66V1.39l-3.51,8Z" fill="#243c7b"/><path d="M36.77,6.66V5.2h5.46V6.66Z" fill="#243c7b"/><path d="M47.39,9.43h-2V4.06l0-.89,0-1c-.33.32-.55.54-.68.64l-1.07.86-.94-1.18,3-2.38h1.61Z" fill="#243c7b"/><path d="M56.13,4.79a6.49,6.49,0,0,1-.79,3.6,2.78,2.78,0,0,1-2.46,1.16,2.74,2.74,0,0,1-2.42-1.2,6.42,6.42,0,0,1-.81-3.56,6.56,6.56,0,0,1,.79-3.63,3.09,3.09,0,0,1,4.87.06A6.37,6.37,0,0,1,56.13,4.79Zm-4.53,0a7.14,7.14,0,0,0,.29,2.44,1,1,0,0,0,1,.74,1,1,0,0,0,1-.75,7.1,7.1,0,0,0,.3-2.43,6.92,6.92,0,0,0-.31-2.46,1,1,0,0,0-2,0A7.54,7.54,0,0,0,51.6,4.79Z" fill="#243c7b"/><path d="M68.66.15,65.2,9.43H63.44L66.9.15Z" fill="#243c7b"/><path d="M82.33,9.43l-.68-2.21H78.27L77.6,9.43H75.48L78.75.11h2.41l3.29,9.32ZM81.18,5.57l-1.05-3.4c-.08-.26-.13-.47-.17-.62q-.21.81-1.2,4Z" fill="#243c7b"/><path d="M93,.15v6A3.4,3.4,0,0,1,92.5,8a2.92,2.92,0,0,1-1.33,1.19,4.66,4.66,0,0,1-2,.41,3.93,3.93,0,0,1-2.78-.91,3.27,3.27,0,0,1-1-2.51v-6h2V5.83a2.36,2.36,0,0,0,.43,1.57,1.77,1.77,0,0,0,1.43.5,1.75,1.75,0,0,0,1.4-.5A2.42,2.42,0,0,0,91,5.81V.15Z" fill="#243c7b"/><path d="M100.73,6.85a2.4,2.4,0,0,1-.9,2,4,4,0,0,1-2.52.72A6,6,0,0,1,94.68,9V7.17a11.8,11.8,0,0,0,1.59.59,4.94,4.94,0,0,0,1.19.17,1.68,1.68,0,0,0,1-.25.84.84,0,0,0,.34-.74.81.81,0,0,0-.15-.48,1.66,1.66,0,0,0-.45-.41A11.79,11.79,0,0,0,97,5.42a5.78,5.78,0,0,1-1.28-.77A2.93,2.93,0,0,1,95,3.8a2.6,2.6,0,0,1-.25-1.15A2.4,2.4,0,0,1,95.62.72,3.49,3.49,0,0,1,97.93,0a5.55,5.55,0,0,1,1.38.17,10,10,0,0,1,1.38.49l-.64,1.53a8,8,0,0,0-1.23-.43,3.93,3.93,0,0,0-.95-.12,1.3,1.3,0,0,0-.86.26.85.85,0,0,0-.3.68.84.84,0,0,0,.12.45,1.42,1.42,0,0,0,.39.38,10.63,10.63,0,0,0,1.25.65,4.9,4.9,0,0,1,1.78,1.25A2.41,2.41,0,0,1,100.73,6.85Z" fill="#243c7b"/><path d="M106.33,9.43h-2V1.78h-2.53V.15h7V1.78h-2.52Z" fill="#243c7b"/><path d="M110.33,9.43V.15h2V9.43Z" fill="#243c7b"/><path d="M122.82,9.43h-2.5l-4-7h0c.08,1.24.12,2.12.12,2.65V9.43h-1.76V.15h2.48l4,7h.05c-.07-1.21-.1-2.06-.1-2.56V.15h1.77Z" fill="#243c7b"/><path d="M127,8.06a19.76,19.76,0,0,1-1.11,3h-1.4c.27-1.12.49-2.19.64-3.18h1.78Z" fill="#243c7b"/><path d="M136,9.43h-2V1.78h-2.52V.15h7V1.78H136Z" fill="#243c7b"/><path d="M148,9.43H145.7l-2.16-3.51-2.15,3.51h-2.11l3.08-4.79L139.48.15h2.17l2,3.33,2-3.33h2.12l-2.92,4.6Z" fill="#243c7b"/></svg>