<?xml version="1.0" encoding="UTF-8"?>
<svg width="984px" height="303px" viewBox="0 0 984 303" version="1.1" xmlns="http://www.w3.org/2000/svg" xmlns:xlink="http://www.w3.org/1999/xlink">
    <!-- Generator: Sketch 49.1 (51147) - http://www.bohemiancoding.com/sketch -->
    <title>hero_2</title>
    <desc>Created with Sketch.</desc>
    <defs>
        <path d="M10.905097,14.4773224 C10.9674077,14.8086867 11,15.1505372 11,15.5 L11,91.1161644 C11,94.1537306 8.53756612,96.6161644 5.5,96.6161644 C2.46243388,96.6161644 0,94.1537306 0,91.1161644 L0,15.5 C0,15.1548395 0.0317947479,14.817105 0.0926152144,14.4895656 C0.0617078189,14.4517336 0.0308360807,14.4135451 0,14.375 L5,0 L11,14.375 C10.96836,14.4093913 10.9367256,14.4434988 10.905097,14.4773224 Z" id="path-1"></path>
        <circle id="path-2" cx="8.33896484" cy="8.33896484" r="8.33896484"></circle>
        <circle id="path-3" cx="15.8389648" cy="8.33896484" r="8.33896484"></circle>
        <circle id="path-4" cx="23.3389648" cy="8.33896484" r="8.33896484"></circle>
        <circle id="path-5" cx="30.8389648" cy="8.33896484" r="8.33896484"></circle>
        <circle id="path-6" cx="38.3389648" cy="8.33896484" r="8.33896484"></circle>
        <circle id="path-7" cx="8.33896484" cy="40.3389648" r="8.33896484"></circle>
        <circle id="path-8" cx="8.33896484" cy="32.3389648" r="8.33896484"></circle>
        <circle id="path-9" cx="8.33896484" cy="24.3389648" r="8.33896484"></circle>
        <circle id="path-10" cx="8.33896484" cy="16.3389648" r="8.33896484"></circle>
        <circle id="path-11" cx="8.33896484" cy="8.33896484" r="8.33896484"></circle>
        <path d="M17.4345703,16.1875 L17.4345703,36.3269468 C17.4345703,38.8122281 19.4492889,40.8269468 21.9345703,40.8269468 C24.4198517,40.8269468 26.4345703,38.8122281 26.4345703,36.3269468 L26.4345703,16.4580727 C35.4955057,18.7396059 42.203125,26.9420908 42.203125,36.7112241 C42.203125,48.245292 32.8529155,57.5955015 21.3188477,57.5955015 C9.78477977,57.5955015 0.434570312,48.245292 0.434570312,36.7112241 C0.434570312,26.5044767 7.75659303,18.0078792 17.4345703,16.1875 Z" id="path-12"></path>
        <rect id="path-13" x="0" y="6" width="90" height="124.616164" rx="10"></rect>
        <path d="M32.6064912,10.5 C33.7762332,4.51581791 39.0481547,0 45.374802,0 C51.7014493,0 56.9733708,4.51581791 58.1431128,10.5 L71.8351436,10.5 C75.8752904,10.5 79.3733711,13.306061 80.249802,17.25 C80.3375945,17.6450662 80.3818862,18.0485541 80.3818862,18.4532574 C80.3818862,21.5166388 77.898525,24 74.8351436,24 L15.1644603,24 C14.759757,24 14.3562691,23.9557082 13.9612029,23.8679158 C10.9707697,23.203375 9.08526126,20.2404332 9.74980198,17.25 C10.6262329,13.306061 14.1243136,10.5 18.1644603,10.5 L32.6064912,10.5 Z" id="path-14"></path>
        <circle id="path-15" cx="8.33896484" cy="47.3389648" r="8.33896484"></circle>
        <circle id="path-16" cx="16.3389648" cy="47.3389648" r="8.33896484"></circle>
        <circle id="path-17" cx="23.8389648" cy="47.3389648" r="8.33896484"></circle>
        <circle id="path-18" cx="31.3389648" cy="47.3389648" r="8.33896484"></circle>
        <circle id="path-19" cx="38.8389648" cy="47.3389648" r="8.33896484"></circle>
        <circle id="path-20" cx="46.3389648" cy="47.3389648" r="8.33896484"></circle>
        <circle id="path-21" cx="46.3389648" cy="40.3389648" r="8.33896484"></circle>
        <circle id="path-22" cx="46.3389648" cy="32.3389648" r="8.33896484"></circle>
        <circle id="path-23" cx="46.3389648" cy="24.3389648" r="8.33896484"></circle>
        <circle id="path-24" cx="46.3389648" cy="16.3389648" r="8.33896484"></circle>
        <circle id="path-25" cx="46.3389648" cy="8.33896484" r="8.33896484"></circle>
        <path d="M17.0850727,0.1875 L17.0850727,20.3269468 C17.0850727,22.8122281 19.0997913,24.8269468 21.5850727,24.8269468 C22.8649128,24.8269468 24.0199634,24.2926597 24.8393465,23.4349636 C27.2681593,23.3364532 29.6238139,23.3220099 32.4536993,23.5171848 C36.0851276,23.7676415 39.474969,22.8815211 40.0284234,25.4853196 C41.5877611,32.8214266 32.5034179,41.5955015 20.96935,41.5955015 C9.43528214,41.5955015 0.0850726822,32.245292 0.0850726822,20.7112241 C0.0850726822,10.5044767 7.4070954,2.00787923 17.0850727,0.1875 Z" id="path-26"></path>
        <path d="M110.088867,60.6161644 L110.088867,135.616164 C110.088867,148.318714 99.7914164,158.616164 87.0888672,158.616164 L23,158.616164 C10.2974508,158.616164 7.19667869e-15,148.318714 0,135.616164 L0,60.6161644 L0,55.0444336 C-3.72295091e-15,24.6442324 24.6442324,5.58442637e-15 55.0444336,0 C85.4446348,-5.58442637e-15 110.088867,24.6442324 110.088867,55.0444336 L110.088867,60.6161644 Z" id="path-27"></path>
        <circle id="path-29" cx="8.33896484" cy="8.33896484" r="8.33896484"></circle>
        <circle id="path-30" cx="8.33896484" cy="16.6779297" r="8.33896484"></circle>
        <circle id="path-31" cx="8.33896484" cy="8.33896484" r="8.33896484"></circle>
        <circle id="path-32" cx="8.33896484" cy="8.33896484" r="8.33896484"></circle>
        <circle id="path-33" cx="10" cy="10" r="10"></circle>
        <rect id="path-34" x="73" y="76" width="112.511719" height="86.6161644" rx="23"></rect>
        <circle id="path-35" cx="10" cy="10" r="10"></circle>
        <circle id="path-36" cx="70" cy="10" r="10"></circle>
        <path d="M164.175339,243.983496 C164.175634,243.924617 164.175781,243.865704 164.175781,243.806756 L164.175781,238.587891 C164.175781,219.485526 148.690255,204 129.587891,204 C110.485526,204 95,219.485526 95,238.587891 L95,243.806756 C95,243.865704 95.0001475,243.924617 95.000442,243.983496 C95.0001475,244.0315 95,244.07954 95,244.127614 L95,286.517613 C95,299.220162 105.297451,309.517613 118,309.517613 L141.175781,309.517613 C153.87833,309.517613 164.175781,299.220162 164.175781,286.517613 L164.175781,244.127614 C164.175781,244.07954 164.175634,244.0315 164.175339,243.983496 Z M185.511719,241.616164 L185.511719,316.616164 C185.511719,329.318714 175.214268,339.616164 162.511719,339.616164 L96,339.616164 C83.2974508,339.616164 73,329.318714 73,316.616164 L73,241.616164 L73,237.255859 C73,206.186606 98.1866062,181 129.255859,181 C160.325113,181 185.511719,206.186606 185.511719,237.255859 L185.511719,241.616164 Z" id="path-37"></path>
    </defs>
    <g id="hero_2" stroke="none" stroke-width="1" fill="none" fill-rule="evenodd">
        <g id="Group-12" transform="translate(240.000000, 77.000000)">
            <g id="Group-7" transform="translate(80.756286, 45.456203) rotate(28.000000) translate(-80.756286, -45.456203) translate(75.256286, -3.043797)">
                <g id="Combined-Shape">
                    <use fill="#FFFFFF" fill-rule="evenodd" xlink:href="#path-1"></use>
                    <path stroke="#F06823" stroke-width="3" d="M9.34725501,14.30953 L5.12743561,4.19954599 L1.69200861,14.0763986 L1.6944272,14.0793591 L1.56740501,14.7634178 C1.52271108,15.0041102 1.5,15.2502189 1.5,15.5 L1.5,91.1161644 C1.5,93.3253034 3.290861,95.1161644 5.5,95.1161644 C7.709139,95.1161644 9.5,93.3253034 9.5,91.1161644 L9.5,15.5 C9.5,15.247141 9.47672573,14.9980464 9.43093387,14.7545285 L9.34725501,14.30953 Z"></path>
                </g>
                <path d="M2.20800781,14.6293945 C5,16.5 7,16 9.00195312,14.6801758" id="Path-6" stroke="#F06823" stroke-width="3"></path>
                <path d="M2,86 C4.79199219,87.8706055 6.79199219,87.3706055 8.79394531,86.0507812" id="Path-6" stroke="#F06823" stroke-width="3"></path>
            </g>
            <g id="Group-11" transform="translate(19.661512, 155.433444) rotate(-58.000000) translate(-19.661512, -155.433444) translate(-3.838488, 146.933444)">
                <g id="Oval-15">
                    <use fill="#FFFFFF" fill-rule="evenodd" xlink:href="#path-2"></use>
                    <circle stroke="#F06823" stroke-width="3" cx="8.33896484" cy="8.33896484" r="6.83896484"></circle>
                </g>
                <g id="Oval-15">
                    <use fill="#FFFFFF" fill-rule="evenodd" xlink:href="#path-3"></use>
                    <circle stroke="#F06823" stroke-width="3" cx="15.8389648" cy="8.33896484" r="6.83896484"></circle>
                </g>
                <g id="Oval-15">
                    <use fill="#FFFFFF" fill-rule="evenodd" xlink:href="#path-4"></use>
                    <circle stroke="#F06823" stroke-width="3" cx="23.3389648" cy="8.33896484" r="6.83896484"></circle>
                </g>
                <g id="Oval-15">
                    <use fill="#FFFFFF" fill-rule="evenodd" xlink:href="#path-5"></use>
                    <circle stroke="#F06823" stroke-width="3" cx="30.8389648" cy="8.33896484" r="6.83896484"></circle>
                </g>
                <g id="Oval-15">
                    <use fill="#FFFFFF" fill-rule="evenodd" xlink:href="#path-6"></use>
                    <circle stroke="#F06823" stroke-width="3" cx="38.3389648" cy="8.33896484" r="6.83896484"></circle>
                </g>
            </g>
            <g id="Group-3" transform="translate(49.290176, 101.486051) scale(-1, 1) rotate(-28.000000) translate(-49.290176, -101.486051) translate(27.790176, 52.486051)">
                <g id="Group-9" transform="translate(21.203125, 21.187500) scale(-1, 1) translate(-21.203125, -21.187500) translate(0.203125, 0.187500)"></g>
                <g id="Group-2" transform="translate(20.669336, 73.314746) scale(-1, 1) translate(-20.669336, -73.314746) translate(12.169336, 48.814746)">
                    <g id="Oval-15">
                        <use fill="#FFFFFF" fill-rule="evenodd" xlink:href="#path-7"></use>
                        <circle stroke="#F06823" stroke-width="3" cx="8.33896484" cy="40.3389648" r="6.83896484"></circle>
                    </g>
                    <g id="Oval-15">
                        <use fill="#FFFFFF" fill-rule="evenodd" xlink:href="#path-8"></use>
                        <circle stroke="#F06823" stroke-width="3" cx="8.33896484" cy="32.3389648" r="6.83896484"></circle>
                    </g>
                    <g id="Oval-15">
                        <use fill="#FFFFFF" fill-rule="evenodd" xlink:href="#path-9"></use>
                        <circle stroke="#F06823" stroke-width="3" cx="8.33896484" cy="24.3389648" r="6.83896484"></circle>
                    </g>
                    <g id="Oval-15">
                        <use fill="#FFFFFF" fill-rule="evenodd" xlink:href="#path-10"></use>
                        <circle stroke="#F06823" stroke-width="3" cx="8.33896484" cy="16.3389648" r="6.83896484"></circle>
                    </g>
                    <g id="Oval-15">
                        <use fill="#FFFFFF" fill-rule="evenodd" xlink:href="#path-11"></use>
                        <circle stroke="#F06823" stroke-width="3" cx="8.33896484" cy="8.33896484" r="6.83896484"></circle>
                    </g>
                </g>
                <g id="Combined-Shape" transform="translate(21.318848, 36.891501) scale(-1, 1) translate(-21.318848, -36.891501) ">
                    <use fill="#FFFFFF" fill-rule="evenodd" xlink:href="#path-12"></use>
                    <path stroke="#F06823" stroke-width="3" d="M15.9345703,18.0835707 C7.76238365,20.4367986 1.93457031,27.9705391 1.93457031,36.7112241 C1.93457031,47.4168649 10.6132069,56.0955015 21.3188477,56.0955015 C32.0244884,56.0955015 40.703125,47.4168649 40.703125,36.7112241 C40.703125,28.4436405 35.4832783,21.2193263 27.9345703,18.4840427 L27.9345703,36.3269468 C27.9345703,39.6406553 25.2482788,42.3269468 21.9345703,42.3269468 C18.6208618,42.3269468 15.9345703,39.6406553 15.9345703,36.3269468 L15.9345703,18.0835707 Z"></path>
                </g>
            </g>
        </g>
        <g id="Group-8" transform="translate(82.000000, 164.500000) rotate(-12.000000) translate(-82.000000, -164.500000) translate(37.000000, 99.000000)">
            <g id="Rectangle-2" transform="translate(45.000000, 68.308082) scale(-1, 1) translate(-45.000000, -68.308082) ">
                <use fill="#FFFFFF" fill-rule="evenodd" xlink:href="#path-13"></use>
                <rect stroke="#F06823" stroke-width="3" x="1.5" y="7.5" width="87" height="121.616164" rx="10"></rect>
            </g>
            <g id="Group" transform="translate(13.000000, 38.000000)" stroke="#F06823" stroke-width="3">
                <rect id="Rectangle-4" x="0" y="0" width="18" height="17" rx="5"></rect>
            </g>
            <g id="Group" transform="translate(13.000000, 66.000000)" stroke="#F06823" stroke-width="3">
                <rect id="Rectangle-4" x="0" y="0" width="18" height="17" rx="5"></rect>
            </g>
            <g id="Group" transform="translate(13.000000, 94.000000)" stroke="#F06823" stroke-width="3">
                <rect id="Rectangle-4" x="0" y="0" width="18" height="17" rx="5"></rect>
            </g>
            <g id="Group-19" transform="translate(57.000000, 74.500000) scale(-1, 1) rotate(-270.000000) translate(-57.000000, -74.500000) translate(56.000000, 56.000000)" stroke="#F06823" stroke-width="3">
                <g id="Group-17">
                    <path d="M1,1.08823529 L1,35.9117647" id="Path-18"></path>
                </g>
            </g>
            <g id="Group-19" transform="translate(57.000000, 46.500000) scale(-1, 1) rotate(-270.000000) translate(-57.000000, -46.500000) translate(56.000000, 28.000000)" stroke="#F06823" stroke-width="3">
                <g id="Group-17">
                    <path d="M1,1.08823529 L1,35.9117647" id="Path-18"></path>
                </g>
            </g>
            <g id="Group-19" transform="translate(56.500000, 103.000000) scale(-1, 1) rotate(-270.000000) translate(-56.500000, -103.000000) translate(55.500000, 84.500000)" stroke="#F06823" stroke-width="3">
                <g id="Group-17">
                    <path d="M1,1.08823529 L1,35.9117647" id="Path-18"></path>
                </g>
            </g>
            <polyline id="Path-7" stroke="#F06823" stroke-width="3" stroke-linecap="round" stroke-linejoin="round" points="13 40.1642003 21.5 49.3284006 37 31"></polyline>
            <polyline id="Path-7" stroke="#F06823" stroke-width="3" stroke-linecap="round" stroke-linejoin="round" points="13 96.3357997 21.5 105.5 37 87.1715994"></polyline>
            <polyline id="Path-7" stroke="#F06823" stroke-width="3" stroke-linecap="round" stroke-linejoin="round" points="13 67.8357997 21.5 77 37 58.6715994"></polyline>
            <g id="Combined-Shape">
                <use fill="#FFFFFF" fill-rule="evenodd" xlink:href="#path-14"></use>
                <path stroke="#F06823" stroke-width="3" d="M34.07863,10.7877624 L33.8416711,12 L18.1644603,12 C14.8273615,12 11.9380009,14.317763 11.2140826,17.5753957 C10.7292529,19.7571291 12.1048652,21.9188055 14.2865986,22.4036352 C14.5748274,22.467686 14.8692005,22.5 15.1644603,22.5 L74.8351436,22.5 C77.0700979,22.5 78.8818862,20.6882116 78.8818862,18.4532574 C78.8818862,18.1579976 78.8495722,17.8636245 78.7855214,17.5753957 C78.061603,14.317763 75.1722424,12 71.8351436,12 L56.9079328,12 L56.6709739,10.7877624 C55.6233329,5.42822585 50.9039025,1.5 45.374802,1.5 C39.8457015,1.5 35.1262711,5.42822585 34.07863,10.7877624 Z"></path>
            </g>
        </g>
        <g id="Group-10" transform="translate(70.000000, 37.000000)">
            <g id="Group-6" transform="translate(41.978148, 205.292088) rotate(-12.000000) translate(-41.978148, -205.292088) translate(8.978148, 160.792088)">
                <g id="Group-2" transform="translate(37.669336, 60.814746) scale(-1, 1) translate(-37.669336, -60.814746) translate(10.169336, 32.814746)">
                    <g id="Oval-15">
                        <use fill="#FFFFFF" fill-rule="evenodd" xlink:href="#path-15"></use>
                        <circle stroke="#F06823" stroke-width="3" cx="8.33896484" cy="47.3389648" r="6.83896484"></circle>
                    </g>
                    <g id="Oval-15">
                        <use fill="#FFFFFF" fill-rule="evenodd" xlink:href="#path-16"></use>
                        <circle stroke="#F06823" stroke-width="3" cx="16.3389648" cy="47.3389648" r="6.83896484"></circle>
                    </g>
                    <g id="Oval-15">
                        <use fill="#FFFFFF" fill-rule="evenodd" xlink:href="#path-17"></use>
                        <circle stroke="#F06823" stroke-width="3" cx="23.8389648" cy="47.3389648" r="6.83896484"></circle>
                    </g>
                    <g id="Oval-15">
                        <use fill="#FFFFFF" fill-rule="evenodd" xlink:href="#path-18"></use>
                        <circle stroke="#F06823" stroke-width="3" cx="31.3389648" cy="47.3389648" r="6.83896484"></circle>
                    </g>
                    <g id="Oval-15">
                        <use fill="#FFFFFF" fill-rule="evenodd" xlink:href="#path-19"></use>
                        <circle stroke="#F06823" stroke-width="3" cx="38.8389648" cy="47.3389648" r="6.83896484"></circle>
                    </g>
                    <g id="Oval-15">
                        <use fill="#FFFFFF" fill-rule="evenodd" xlink:href="#path-20"></use>
                        <circle stroke="#F06823" stroke-width="3" cx="46.3389648" cy="47.3389648" r="6.83896484"></circle>
                    </g>
                    <g id="Oval-15">
                        <use fill="#FFFFFF" fill-rule="evenodd" xlink:href="#path-21"></use>
                        <circle stroke="#F06823" stroke-width="3" cx="46.3389648" cy="40.3389648" r="6.83896484"></circle>
                    </g>
                    <g id="Oval-15">
                        <use fill="#FFFFFF" fill-rule="evenodd" xlink:href="#path-22"></use>
                        <circle stroke="#F06823" stroke-width="3" cx="46.3389648" cy="32.3389648" r="6.83896484"></circle>
                    </g>
                    <g id="Oval-15">
                        <use fill="#FFFFFF" fill-rule="evenodd" xlink:href="#path-23"></use>
                        <circle stroke="#F06823" stroke-width="3" cx="46.3389648" cy="24.3389648" r="6.83896484"></circle>
                    </g>
                    <g id="Oval-15">
                        <use fill="#FFFFFF" fill-rule="evenodd" xlink:href="#path-24"></use>
                        <circle stroke="#F06823" stroke-width="3" cx="46.3389648" cy="16.3389648" r="6.83896484"></circle>
                    </g>
                    <g id="Oval-15">
                        <use fill="#FFFFFF" fill-rule="evenodd" xlink:href="#path-25"></use>
                        <circle stroke="#F06823" stroke-width="3" cx="46.3389648" cy="8.33896484" r="6.83896484"></circle>
                    </g>
                </g>
                <g id="Combined-Shape" transform="translate(20.144099, 20.891501) scale(-1, 1) translate(-20.144099, -20.891501) ">
                    <use fill="#FFFFFF" fill-rule="evenodd" xlink:href="#path-26"></use>
                    <path stroke="#F06823" stroke-width="3" d="M15.5850727,2.08357069 C7.41288602,4.43679864 1.58507268,11.9705391 1.58507268,20.7112241 C1.58507268,31.4168649 10.2637093,40.0955015 20.96935,40.0955015 C31.229586,40.0955015 39.9596605,32.3764169 38.561202,25.7971871 C38.4326606,25.1924471 37.871384,25.0404385 35.0607069,25.0645266 C33.7707589,25.0755817 33.1430059,25.0682891 32.3504907,25.01363 C29.9992719,24.8514683 27.9087487,24.8271292 25.4545069,24.9127859 C24.3854798,25.8159106 23.0246576,26.3269468 21.5850727,26.3269468 C18.2713642,26.3269468 15.5850727,23.6406553 15.5850727,20.3269468 L15.5850727,2.08357069 Z"></path>
                </g>
            </g>
            <path d="M112.552161,80.0987506 C114.290278,79.914149 116.539702,79.8399138 118.791862,79.8399138 C120.360314,79.8399138 124.6203,79.8758284 129.318728,79.9350612 C134.017155,79.8758284 138.277142,79.8399138 139.845594,79.8399138 C142.097753,79.8399138 144.347177,79.914149 146.085294,80.0987506 C146.552079,78.8357004 148.659663,73.0015055 148.715033,70.4822126 C148.989372,58 148.989372,65.5 148.989372,47.3273505 C148.989372,17.6346265 158.341229,-2.27373675e-13 167.641141,-2.27373675e-13 C168.42682,-2.27373675e-13 169.223863,0.126988794 170.024152,0.382682445 C176.778722,2.54664013 184.483143,14.8308404 178.470205,42.2100453 C173.245528,66 168.523608,74.487217 166.745528,79 C165.325757,82.6033892 165.704538,78.8188553 164.31499,85.3948155 C170.48517,89.8497196 156.418437,95.8387857 157.700848,102.167633 L129.318728,88.8911769 C122.031924,92.2997641 112.571217,96.7252493 100.936608,102.167633 C102.219018,95.8387857 88.152285,89.8497196 94.3224655,85.3948155 C92.9329168,78.8188553 93.3116981,82.6033892 91.8919276,79 C90.1138471,74.487217 85.3919276,66 80.1672501,42.2100453 C74.1543123,14.8308404 81.8587334,2.54664013 88.6133035,0.382682445 C89.4135926,0.126988794 90.2106351,-2.27373675e-13 90.9963145,-2.27373675e-13 C100.296226,-2.27373675e-13 109.648083,17.6346265 109.648083,47.3273505 C109.648083,65.5 109.648083,58 109.922422,70.4822126 C109.977792,73.0015055 112.085376,78.8357004 112.552161,80.0987506 Z" id="Combined-Shape" stroke="#F06823" stroke-width="3" fill="#FFFFFF"></path>
            <g id="Group-9" transform="translate(42.203125, 166.187500) scale(-1, 1) translate(-42.203125, -166.187500) translate(21.203125, 145.187500)"></g>
            <g id="Group-15" transform="translate(128.500000, 262.500000) scale(-1, 1) translate(-128.500000, -262.500000) translate(73.000000, 183.000000)">
                <mask id="mask-28" fill="white">
                    <use xlink:href="#path-27"></use>
                </mask>
                <use id="Mask" fill="#FFFFFF" xlink:href="#path-27"></use>
                <g mask="url(#mask-28)" id="Path-10" stroke="#F06823" stroke-width="3">
                    <g transform="translate(-100.000000, 0.000000)">
                        <path d="M88,127 L215,0"></path>
                        <path d="M99,127 L226,0"></path>
                        <path d="M110,127 L237,0"></path>
                        <path d="M121,127 L248,0"></path>
                        <path d="M132,127 L259,0"></path>
                        <path d="M143,127 L270,0"></path>
                        <path d="M154,127 L281,0"></path>
                        <path d="M165,127 L292,0"></path>
                        <path d="M0,127 L127,0"></path>
                        <path d="M11,127 L138,0"></path>
                        <path d="M22,127 L149,0"></path>
                        <path d="M33,127 L160,0"></path>
                        <path d="M44,127 L171,0"></path>
                        <path d="M55,127 L182,0"></path>
                        <path d="M66,127 L193,0"></path>
                        <path d="M77,127 L204,0"></path>
                        <path d="M176,127 L303,0"></path>
                        <path d="M187,127 L314,0"></path>
                        <path d="M198,127 L325,0"></path>
                        <path d="M209,127 L336,0"></path>
                        <path d="M220,127 L347,0"></path>
                        <path d="M231,127 L358,0"></path>
                        <path d="M242,127 L369,0"></path>
                    </g>
                </g>
            </g>
            <g id="Group-5" transform="translate(129.338965, 170.677930) scale(-1, 1) translate(-129.338965, -170.677930) translate(121.000000, 154.000000)">
                <g id="Group-21" transform="translate(0.000000, 8.338965)">
                    <g id="Oval-15">
                        <use fill="#FFFFFF" fill-rule="evenodd" xlink:href="#path-29"></use>
                        <circle stroke="#F06823" stroke-width="3" cx="8.33896484" cy="8.33896484" r="6.83896484"></circle>
                    </g>
                    <g id="Oval-15">
                        <use fill="#FFFFFF" fill-rule="evenodd" xlink:href="#path-30"></use>
                        <circle stroke="#F06823" stroke-width="3" cx="8.33896484" cy="16.6779297" r="6.83896484"></circle>
                    </g>
                </g>
                <g id="Group-21" transform="translate(0.000000, 8.338965)">
                    <g id="Oval-15">
                        <use fill="#FFFFFF" fill-rule="evenodd" xlink:href="#path-31"></use>
                        <circle stroke="#F06823" stroke-width="3" cx="8.33896484" cy="8.33896484" r="6.83896484"></circle>
                    </g>
                </g>
                <g id="Oval-15">
                    <use fill="#FFFFFF" fill-rule="evenodd" xlink:href="#path-32"></use>
                    <circle stroke="#F06823" stroke-width="3" cx="8.33896484" cy="8.33896484" r="6.83896484"></circle>
                </g>
            </g>
            <g id="Group-18" transform="translate(130.000000, 66.000000) scale(-1, 1) translate(-130.000000, -66.000000) translate(120.000000, 42.000000)">
                <path d="M10,10 L10,47.0540146" id="Path-19" stroke="#F06823" stroke-width="3"></path>
                <g id="Oval-15">
                    <use fill="#FFFFFF" fill-rule="evenodd" xlink:href="#path-33"></use>
                    <circle stroke="#F06823" stroke-width="3" cx="10" cy="10" r="8.5"></circle>
                </g>
            </g>
            <g id="Rectangle-2" transform="translate(129.255859, 119.308082) scale(-1, 1) translate(-129.255859, -119.308082) ">
                <use fill="#FFFFFF" fill-rule="evenodd" xlink:href="#path-34"></use>
                <rect stroke="#F06823" stroke-width="3" x="74.5" y="77.5" width="109.511719" height="83.6161644" rx="23"></rect>
            </g>
            <g id="Group-20" transform="translate(130.000000, 109.000000) scale(-1, 1) translate(-130.000000, -109.000000) translate(90.000000, 99.000000)">
                <g id="Oval-15">
                    <use fill="#FFFFFF" fill-rule="evenodd" xlink:href="#path-35"></use>
                    <circle stroke="#F06823" stroke-width="3" cx="10" cy="10" r="8.5"></circle>
                </g>
                <g id="Oval-15">
                    <use fill="#FFFFFF" fill-rule="evenodd" xlink:href="#path-36"></use>
                    <circle stroke="#F06823" stroke-width="3" cx="70" cy="10" r="8.5"></circle>
                </g>
            </g>
            <g id="Group-20" transform="translate(20.000000, 63.000000) scale(-1, 1) translate(-20.000000, -63.000000) translate(8.000000, 51.000000)"></g>
            <path d="M184.011719,316.616164 L184.011719,237.255859 C184.011719,207.015033 159.496685,182.5 129.255859,182.5 C99.0150333,182.5 74.5,207.015033 74.5,237.255859 L74.5,316.616164 C74.5,328.490287 84.1258779,338.116164 96,338.116164 L162.511719,338.116164 C174.385841,338.116164 184.011719,328.490287 184.011719,316.616164 Z" id="Combined-Shape" stroke="#F06823" stroke-width="3" transform="translate(129.255859, 260.308082) scale(-1, 1) translate(-129.255859, -260.308082) "></path>
            <g id="Combined-Shape" transform="translate(129.255859, 260.308082) scale(-1, 1) translate(-129.255859, -260.308082) ">
                <use fill="#FFFFFF" fill-rule="evenodd" xlink:href="#path-37"></use>
                <path stroke="#F06823" stroke-width="3" d="M165.675355,243.982973 C165.675703,244.051036 165.675706,244.053929 165.675781,244.127614 L165.675781,286.517613 C165.675781,300.048589 154.706758,311.017613 141.175781,311.017613 L118,311.017613 C104.469024,311.017613 93.5,300.048589 93.5,286.517613 L93.5,244.127614 C93.5000785,244.050918 93.5000785,244.050918 93.5004608,243.991001 C93.5000769,243.898913 93.5000769,243.898913 93.5,243.806756 L93.5,238.587891 C93.5,218.657099 109.657099,202.5 129.587891,202.5 C149.518682,202.5 165.675781,218.657099 165.675781,238.587891 L165.675781,243.806756 C165.675707,243.895943 165.675704,243.898817 165.675356,243.982378 Z M184.011719,316.616164 L184.011719,237.255859 C184.011719,207.015033 159.496685,182.5 129.255859,182.5 C99.0150333,182.5 74.5,207.015033 74.5,237.255859 L74.5,316.616164 C74.5,328.490287 84.1258779,338.116164 96,338.116164 L162.511719,338.116164 C174.385841,338.116164 184.011719,328.490287 184.011719,316.616164 Z"></path>
            </g>
            <g id="Group" transform="translate(120.000000, 128.000000)" stroke="#F06823" stroke-width="3">
                <g id="Group-19" transform="translate(10.000000, 8.500000) scale(-1, 1) translate(-10.000000, -8.500000) translate(9.000000, 0.000000)">
                    <g id="Group-17">
                        <path d="M1,0.5 L1,16.5" id="Path-18"></path>
                    </g>
                </g>
                <path d="M0,0 L20,0 L20,13.5 C20,15.1568542 18.6568542,16.5 17,16.5 L3,16.5 C1.34314575,16.5 2.02906125e-16,15.1568542 0,13.5 L0,0 Z" id="Rectangle-4"></path>
            </g>
            <path d="M104,128 L155,128 C157.209139,128 159,129.790861 159,132 L159,139.5 C159,145.851275 153.851275,151 147.5,151 L111.5,151 C105.148725,151 100,145.851275 100,139.5 L100,132 C100,129.790861 101.790861,128 104,128 Z" id="Rectangle-9" stroke="#F06823" stroke-width="3"></path>
        </g>
        <path d="M3,302 L982,302" id="Path-11" stroke="#F06823" stroke-width="3" stroke-linecap="round"></path>
        <g id="Group-19" transform="translate(200.500000, 135.000000) scale(-1, 1) rotate(-270.000000) translate(-200.500000, -135.000000) translate(199.500000, 119.500000)" stroke="#F06823" stroke-width="3">
            <g id="Group-17">
                <path d="M1,0.911764706 L1,30.0882353" id="Path-18"></path>
            </g>
        </g>
        <path d="M158,132 L182,132 C184.209139,132 186,133.790861 186,136 L186,146.5 C186,154.508129 179.508129,161 171.5,161 L168.5,161 C160.491871,161 154,154.508129 154,146.5 L154,136 C154,133.790861 155.790861,132 158,132 Z" id="Rectangle-9" stroke="#F06823" stroke-width="3"></path>
        <path d="M217,132 L241,132 C243.209139,132 245,133.790861 245,136 L245,146.5 C245,154.508129 238.508129,161 230.5,161 L227.5,161 C219.491871,161 213,154.508129 213,146.5 L213,136 C213,133.790861 214.790861,132 217,132 Z" id="Rectangle-9" stroke="#F06823" stroke-width="3"></path>
    </g>
</svg>