<?xml version="1.0" encoding="UTF-8"?>
<svg width="628px" height="248px" viewBox="0 0 628 248" version="1.1" xmlns="http://www.w3.org/2000/svg" xmlns:xlink="http://www.w3.org/1999/xlink">
    <!-- Generator: Sketch 49.1 (51147) - https://www.bohemiancoding.com/sketch -->
    <title>hero-tablet_2</title>
    <desc>Created with Sketch.</desc>
    <defs>
        <rect id="path-1" x="0" y="3.79648775" width="56.9473162" height="78.8506236" rx="10"></rect>
        <path d="M20.6316907,6.64385356 C21.3718426,2.85737456 24.7076401,0 28.7108133,0 C32.7139865,0 36.049784,2.85737456 36.7899359,6.64385356 L45.4535404,6.64385356 C48.0099351,6.64385356 50.2233385,8.41938293 50.7778983,10.9149023 C50.8334488,11.1648796 50.8614744,11.4201857 50.8614744,11.6762609 C50.8614744,13.6146092 49.2901326,15.185951 47.3517843,15.185951 L9.5952813,15.185951 C9.33920608,15.185951 9.08389995,15.1579255 8.83392263,15.102375 C6.94173211,14.6818882 5.74868051,12.8070928 6.16916729,10.9149023 C6.72372715,8.41938293 8.93713056,6.64385356 11.4935252,6.64385356 L20.6316907,6.64385356 Z" id="path-2"></path>
        <circle id="path-3" cx="5.50985719" cy="31.2785748" r="5.50985719"></circle>
        <circle id="path-4" cx="10.4653798" cy="31.2785748" r="5.50985719"></circle>
        <circle id="path-5" cx="15.4209024" cy="31.2785748" r="5.50985719"></circle>
        <circle id="path-6" cx="20.3764251" cy="31.2785748" r="5.50985719"></circle>
        <circle id="path-7" cx="25.3319477" cy="31.2785748" r="5.50985719"></circle>
        <circle id="path-8" cx="25.3319477" cy="26.6534204" r="5.50985719"></circle>
        <circle id="path-9" cx="25.3319477" cy="21.3675296" r="5.50985719"></circle>
        <circle id="path-10" cx="25.3319477" cy="16.0816388" r="5.50985719"></circle>
        <circle id="path-11" cx="25.3319477" cy="10.795748" r="5.50985719"></circle>
        <circle id="path-12" cx="25.3319477" cy="5.50985719" r="5.50985719"></circle>
        <path d="M16.0848141,5 L16.0848141,18.1318838 C16.0848141,19.7524063 17.3985072,21.0660993 19.0190296,21.0660993 C19.8535467,21.0660993 20.606695,20.7177185 21.140972,20.1584596 C22.7246743,20.0942261 24.2606739,20.0848084 26.1058947,20.2120718 C28.4737599,20.3753815 30.6840988,19.7975886 31.0449776,21.4953899 C32.0617404,26.278883 26.1383136,32 18.617549,32 C11.0967844,32 5,25.9032156 5,18.382451 C5,11.7271629 9.77430947,6.18697444 16.0848141,5 Z" id="path-13"></path>
        <circle id="path-14" cx="5.50985719" cy="6.27857485" r="5.50985719"></circle>
        <circle id="path-15" cx="10.4653798" cy="6.27857485" r="5.50985719"></circle>
        <circle id="path-16" cx="15.4209024" cy="6.27857485" r="5.50985719"></circle>
        <circle id="path-17" cx="20.3764251" cy="6.27857485" r="5.50985719"></circle>
        <circle id="path-18" cx="5.50985719" cy="6.27857485" r="5.50985719"></circle>
        <circle id="path-19" cx="10.4653798" cy="6.27857485" r="5.50985719"></circle>
        <circle id="path-20" cx="15.4209024" cy="6.27857485" r="5.50985719"></circle>
        <circle id="path-21" cx="20.3764251" cy="6.27857485" r="5.50985719"></circle>
        <circle id="path-22" cx="10.3319477" cy="31.2785748" r="5.50985719"></circle>
        <circle id="path-23" cx="10.3319477" cy="26.6534204" r="5.50985719"></circle>
        <circle id="path-24" cx="10.3319477" cy="21.3675296" r="5.50985719"></circle>
        <circle id="path-25" cx="10.3319477" cy="16.0816388" r="5.50985719"></circle>
        <circle id="path-26" cx="10.3319477" cy="10.795748" r="5.50985719"></circle>
        <circle id="path-27" cx="10.3319477" cy="5.50985719" r="5.50985719"></circle>
        <path d="M11.4650359,3.55271368e-15 L11.4650359,13.3068646 C11.4650359,14.9489803 12.7962337,16.2801781 14.4383495,16.2801781 C16.0804652,16.2801781 17.4116631,14.9489803 17.4116631,13.3068646 L17.4116631,0.178777242 C23.3985524,1.68626912 27.8305203,7.10594905 27.8305203,13.5607706 C27.8305203,21.1817485 21.6524971,27.3597718 14.0315191,27.3597718 C6.41054122,27.3597718 0.232517952,21.1817485 0.232517952,13.5607706 C0.232517952,6.8168015 5.07044452,1.20279073 11.4650359,3.44169138e-15 Z" id="path-28"></path>
        <path d="M72.6629425,45.961499 C72.7137927,46.5857357 72.7397163,47.217024 72.7397163,47.8543672 L72.7397163,81.8034656 C72.7397163,94.5060148 62.4422655,104.803466 49.7397163,104.803466 L23,104.803466 C10.2974508,104.803466 1.55561363e-15,94.5060148 0,81.8034656 L0,47.8543672 C-7.80520247e-17,47.217024 0.0259235571,46.5857357 0.0767737663,45.961499 C0.025854456,45.1739777 9.80192702e-17,44.3796283 0,43.5792402 L0,36.3698581 C-2.459889e-15,16.2833401 16.2833401,3.6898335e-15 36.3698581,0 C56.4563762,-3.6898335e-15 72.7397163,16.2833401 72.7397163,36.3698581 L72.7397163,43.5792402 C72.7397163,44.3796283 72.7138618,45.1739777 72.6629425,45.961499 Z" id="path-29"></path>
        <circle id="path-31" cx="5.50985719" cy="5.50985719" r="5.50985719"></circle>
        <circle id="path-32" cx="5.50985719" cy="11.0197144" r="5.50985719"></circle>
        <circle id="path-33" cx="5.50985719" cy="5.50985719" r="5.50985719"></circle>
        <circle id="path-34" cx="5.50985719" cy="5.50985719" r="5.50985719"></circle>
        <circle id="path-35" cx="6.6073635" cy="6.6073635" r="6.6073635"></circle>
        <rect id="path-36" x="34.3582902" y="50.2159626" width="74.3405824" height="57.2304483" rx="19"></rect>
        <circle id="path-37" cx="6.6073635" cy="6.6073635" r="6.6073635"></circle>
        <circle id="path-38" cx="46.2515445" cy="6.6073635" r="6.6073635"></circle>
        <path d="M49.2318625,165.026257 C49.0100865,166.304404 48.8944899,167.618967 48.8944899,168.960529 L48.8944899,203.202674 C48.8944899,212.795345 54.804696,221.007614 63.1823732,224.396745 L57.3582902,224.396745 C44.655741,224.396745 34.3582902,214.099294 34.3582902,201.396745 L34.3582902,167.447647 C34.3582902,166.694185 34.3945204,165.949185 34.4653336,165.214295 C34.3944011,164.276186 34.3582902,163.328353 34.3582902,162.372087 L34.3582902,156.763571 C34.3582902,136.234986 50.9999964,119.593279 71.5285814,119.593279 C92.0571664,119.593279 108.698873,136.234986 108.698873,156.763571 L108.698873,162.372087 C108.698873,163.328353 108.662762,164.276186 108.591829,165.214295 C108.662642,165.949185 108.698873,166.694185 108.698873,167.447647 L108.698873,201.396745 C108.698873,214.099294 98.4014218,224.396745 85.6988726,224.396745 L80.3135598,224.396745 C88.691237,221.007614 94.6014431,212.795345 94.6014431,203.202674 L94.6014431,168.960529 C94.6014431,167.618967 94.4858466,166.304404 94.2640705,165.026257 C94.4858466,163.748111 94.6014431,162.433548 94.6014431,161.091986 L94.6014431,157.643692 C94.6014431,145.022065 84.3695931,134.790215 71.7479665,134.790215 C59.1263399,134.790215 48.8944899,145.022065 48.8944899,157.643692 L48.8944899,161.091986 C48.8944899,162.433548 49.0100865,163.748111 49.2318625,165.026257 Z" id="path-39"></path>
        <path d="M7.5219207,9.98590581 C7.56490027,10.2144683 7.5873812,10.4502637 7.5873812,10.6913099 L7.5873812,62.8484612 C7.5873812,64.9436587 5.88888807,66.6421518 3.7936906,66.6421518 C1.69849314,66.6421518 1.77635684e-15,64.9436587 6.21724894e-15,62.8484612 L0,10.6913099 C1.00924271e-16,10.4532313 0.0219308066,10.2202749 0.0638824488,9.99435068 C0.0425637041,9.96825564 0.0212695545,9.94191465 0,9.91532771 L3.44880964,0 L7.5873812,9.91532771 C7.56555712,9.93904954 7.54373695,9.96257557 7.5219207,9.98590581 Z" id="path-40"></path>
    </defs>
    <g id="hero-tablet_2" stroke="none" stroke-width="1" fill="none" fill-rule="evenodd">
        <g id="Group-8" transform="translate(191.647076, 150.022265) rotate(28.000000) translate(-191.647076, -150.022265) translate(163.147076, 108.522265)">
            <g id="Rectangle-2" transform="translate(28.473658, 43.221800) scale(-1, 1) translate(-28.473658, -43.221800) ">
                <use fill="#FFFFFF" fill-rule="evenodd" xlink:href="#path-1"></use>
                <rect stroke="#F06823" stroke-width="2" x="1" y="4.79648775" width="54.9473162" height="76.8506236" rx="10"></rect>
            </g>
            <g id="Group" transform="translate(8.225723, 24.044422)" stroke="#F06823" stroke-width="2">
                <rect id="Rectangle-4" x="0" y="0" width="11.3894632" height="10.7567153" rx="5"></rect>
            </g>
            <g id="Group" transform="translate(8.225723, 41.761365)" stroke="#F06823" stroke-width="2">
                <rect id="Rectangle-4" x="0" y="0" width="11.3894632" height="10.7567153" rx="5"></rect>
            </g>
            <g id="Group" transform="translate(8.225723, 59.478308)" stroke="#F06823" stroke-width="2">
                <rect id="Rectangle-4" x="0" y="0" width="11.3894632" height="10.7567153" rx="5"></rect>
            </g>
            <g id="Group-19" transform="translate(35.860796, 47.506975) scale(-1, 1) rotate(-270.000000) translate(-35.860796, -47.506975) translate(34.860796, 36.006975)" stroke="#F06823" stroke-width="2">
                <g id="Group-17">
                    <path d="M0.632747958,0.68857866 L0.632747958,22.7230958" id="Path-18"></path>
                </g>
            </g>
            <g id="Group-19" transform="translate(35.860796, 29.790032) scale(-1, 1) rotate(-270.000000) translate(-35.860796, -29.790032) translate(34.860796, 18.290032)" stroke="#F06823" stroke-width="2">
                <g id="Group-17">
                    <path d="M0.632747958,0.68857866 L0.632747958,22.7230958" id="Path-18"></path>
                </g>
            </g>
            <g id="Group-19" transform="translate(35.544422, 65.540292) scale(-1, 1) rotate(-270.000000) translate(-35.544422, -65.540292) translate(34.544422, 54.040292)" stroke="#F06823" stroke-width="2">
                <g id="Group-17">
                    <path d="M0.632747958,0.68857866 L0.632747958,22.7230958" id="Path-18"></path>
                </g>
            </g>
            <polyline id="Path-7" stroke="#F06823" stroke-width="2" stroke-linecap="round" stroke-linejoin="round" points="8.22572345 25.4138157 13.6040811 31.2124447 23.4116744 19.6151867"></polyline>
            <polyline id="Path-7" stroke="#F06823" stroke-width="2" stroke-linecap="round" stroke-linejoin="round" points="8.22572345 60.9562805 13.6040811 66.7549096 23.4116744 55.1576515"></polyline>
            <polyline id="Path-7" stroke="#F06823" stroke-width="2" stroke-linecap="round" stroke-linejoin="round" points="8.22572345 42.9229637 13.6040811 48.7215928 23.4116744 37.1243347"></polyline>
            <g id="Combined-Shape">
                <use fill="#FFFFFF" fill-rule="evenodd" xlink:href="#path-2"></use>
                <path stroke="#F06823" stroke-width="2" d="M21.6131166,6.83569516 L21.455144,7.64385356 L11.4935252,7.64385356 C9.40582921,7.64385356 7.59823919,9.09385095 7.14535435,11.1318327 C6.84467495,12.48489 7.6977958,13.8255085 9.05085309,14.1261879 C9.22960551,14.1659107 9.41216843,14.185951 9.5952813,14.185951 L47.3517843,14.185951 C48.7378479,14.185951 49.8614744,13.0623245 49.8614744,11.6762609 C49.8614744,11.4931481 49.841434,11.3105852 49.8017113,11.1318327 C49.3488264,9.09385095 47.5412364,7.64385356 45.4535404,7.64385356 L35.9664826,7.64385356 L35.80851,6.83569516 C35.1502644,3.46823357 32.184891,1 28.7108133,1 C25.2367356,1 22.2713622,3.46823357 21.6131166,6.83569516 Z"></path>
            </g>
        </g>
        <g id="Group-3" transform="translate(160.500000, 195.500000) scale(-1, 1) translate(-160.500000, -195.500000) translate(130.000000, 164.000000)">
            <g id="Group-2" transform="translate(38.595331, 38.927155) scale(-1, 1) rotate(28.000000) translate(-38.595331, -38.927155) translate(23.095331, 20.427155)">
                <g id="Oval-15">
                    <use fill="#FFFFFF" fill-rule="evenodd" xlink:href="#path-3"></use>
                    <circle stroke="#F06823" stroke-width="2" cx="5.50985719" cy="31.2785748" r="4.50985719"></circle>
                </g>
                <g id="Oval-15">
                    <use fill="#FFFFFF" fill-rule="evenodd" xlink:href="#path-4"></use>
                    <circle stroke="#F06823" stroke-width="2" cx="10.4653798" cy="31.2785748" r="4.50985719"></circle>
                </g>
                <g id="Oval-15">
                    <use fill="#FFFFFF" fill-rule="evenodd" xlink:href="#path-5"></use>
                    <circle stroke="#F06823" stroke-width="2" cx="15.4209024" cy="31.2785748" r="4.50985719"></circle>
                </g>
                <g id="Oval-15">
                    <use fill="#FFFFFF" fill-rule="evenodd" xlink:href="#path-6"></use>
                    <circle stroke="#F06823" stroke-width="2" cx="20.3764251" cy="31.2785748" r="4.50985719"></circle>
                </g>
                <g id="Oval-15">
                    <use fill="#FFFFFF" fill-rule="evenodd" xlink:href="#path-7"></use>
                    <circle stroke="#F06823" stroke-width="2" cx="25.3319477" cy="31.2785748" r="4.50985719"></circle>
                </g>
                <g id="Oval-15">
                    <use fill="#FFFFFF" fill-rule="evenodd" xlink:href="#path-8"></use>
                    <circle stroke="#F06823" stroke-width="2" cx="25.3319477" cy="26.6534204" r="4.50985719"></circle>
                </g>
                <g id="Oval-15">
                    <use fill="#FFFFFF" fill-rule="evenodd" xlink:href="#path-9"></use>
                    <circle stroke="#F06823" stroke-width="2" cx="25.3319477" cy="21.3675296" r="4.50985719"></circle>
                </g>
                <g id="Oval-15">
                    <use fill="#FFFFFF" fill-rule="evenodd" xlink:href="#path-10"></use>
                    <circle stroke="#F06823" stroke-width="2" cx="25.3319477" cy="16.0816388" r="4.50985719"></circle>
                </g>
                <g id="Oval-15">
                    <use fill="#FFFFFF" fill-rule="evenodd" xlink:href="#path-11"></use>
                    <circle stroke="#F06823" stroke-width="2" cx="25.3319477" cy="10.795748" r="4.50985719"></circle>
                </g>
                <g id="Oval-15">
                    <use fill="#FFFFFF" fill-rule="evenodd" xlink:href="#path-12"></use>
                    <circle stroke="#F06823" stroke-width="2" cx="25.3319477" cy="5.50985719" r="4.50985719"></circle>
                </g>
            </g>
            <g id="Combined-Shape" transform="translate(18.079446, 18.500000) scale(-1, 1) rotate(27.000000) translate(-18.079446, -18.500000) ">
                <use fill="#FFFFFF" fill-rule="evenodd" xlink:href="#path-13"></use>
                <path stroke="#F06823" stroke-width="2" d="M15.0848141,6.26549836 C9.78012187,7.80637048 6,12.7029846 6,18.382451 C6,25.3509309 11.6490691,31 18.617549,31 C25.2952242,31 30.9753699,25.9776459 30.06683,21.7033016 C29.9862961,21.3244195 29.627791,21.2273267 27.8059764,21.2429401 C26.9643138,21.2501533 26.5545905,21.2453935 26.037089,21.2097019 C24.5072103,21.1041874 23.1467163,21.0882085 21.5504256,21.1437215 C20.8503464,21.7328492 19.9603538,22.0660993 19.0190296,22.0660993 C16.8462224,22.0660993 15.0848141,20.304691 15.0848141,18.1318838 L15.0848141,6.26549836 Z"></path>
            </g>
        </g>
        <g id="Group-12" transform="translate(51.053624, 176.123995) scale(-1, 1) rotate(-338.000000) translate(-51.053624, -176.123995) translate(37.053624, 126.623995)">
            <g id="Group-2" transform="translate(4.022326, 21.558007)">
                <g id="Group-6" transform="translate(8.072158, 63.196974) rotate(-87.000000) translate(-8.072158, -63.196974) translate(-4.927842, 57.196974)">
                    <g id="Oval-15">
                        <use fill="#FFFFFF" fill-rule="evenodd" xlink:href="#path-14"></use>
                        <circle stroke="#F06823" stroke-width="2" cx="5.50985719" cy="6.27857485" r="4.50985719"></circle>
                    </g>
                    <g id="Oval-15">
                        <use fill="#FFFFFF" fill-rule="evenodd" xlink:href="#path-15"></use>
                        <circle stroke="#F06823" stroke-width="2" cx="10.4653798" cy="6.27857485" r="4.50985719"></circle>
                    </g>
                    <g id="Oval-15">
                        <use fill="#FFFFFF" fill-rule="evenodd" xlink:href="#path-16"></use>
                        <circle stroke="#F06823" stroke-width="2" cx="15.4209024" cy="6.27857485" r="4.50985719"></circle>
                    </g>
                    <g id="Oval-15">
                        <use fill="#FFFFFF" fill-rule="evenodd" xlink:href="#path-17"></use>
                        <circle stroke="#F06823" stroke-width="2" cx="20.3764251" cy="6.27857485" r="4.50985719"></circle>
                    </g>
                </g>
                <g id="Group-6" transform="translate(9.169660, 43.914054) rotate(-87.000000) translate(-9.169660, -43.914054) translate(-3.830340, 37.914054)">
                    <g id="Oval-15">
                        <use fill="#FFFFFF" fill-rule="evenodd" xlink:href="#path-18"></use>
                        <circle stroke="#F06823" stroke-width="2" cx="5.50985719" cy="6.27857485" r="4.50985719"></circle>
                    </g>
                    <g id="Oval-15">
                        <use fill="#FFFFFF" fill-rule="evenodd" xlink:href="#path-19"></use>
                        <circle stroke="#F06823" stroke-width="2" cx="10.4653798" cy="6.27857485" r="4.50985719"></circle>
                    </g>
                    <g id="Oval-15">
                        <use fill="#FFFFFF" fill-rule="evenodd" xlink:href="#path-20"></use>
                        <circle stroke="#F06823" stroke-width="2" cx="15.4209024" cy="6.27857485" r="4.50985719"></circle>
                    </g>
                    <g id="Oval-15">
                        <use fill="#FFFFFF" fill-rule="evenodd" xlink:href="#path-21"></use>
                        <circle stroke="#F06823" stroke-width="2" cx="20.3764251" cy="6.27857485" r="4.50985719"></circle>
                    </g>
                </g>
                <g id="Oval-15">
                    <use fill="#FFFFFF" fill-rule="evenodd" xlink:href="#path-22"></use>
                    <circle stroke="#F06823" stroke-width="2" cx="10.3319477" cy="31.2785748" r="4.50985719"></circle>
                </g>
                <g id="Oval-15">
                    <use fill="#FFFFFF" fill-rule="evenodd" xlink:href="#path-23"></use>
                    <circle stroke="#F06823" stroke-width="2" cx="10.3319477" cy="26.6534204" r="4.50985719"></circle>
                </g>
                <g id="Oval-15">
                    <use fill="#FFFFFF" fill-rule="evenodd" xlink:href="#path-24"></use>
                    <circle stroke="#F06823" stroke-width="2" cx="10.3319477" cy="21.3675296" r="4.50985719"></circle>
                </g>
                <g id="Oval-15">
                    <use fill="#FFFFFF" fill-rule="evenodd" xlink:href="#path-25"></use>
                    <circle stroke="#F06823" stroke-width="2" cx="10.3319477" cy="16.0816388" r="4.50985719"></circle>
                </g>
                <g id="Oval-15">
                    <use fill="#FFFFFF" fill-rule="evenodd" xlink:href="#path-26"></use>
                    <circle stroke="#F06823" stroke-width="2" cx="10.3319477" cy="10.795748" r="4.50985719"></circle>
                </g>
                <g id="Oval-15">
                    <use fill="#FFFFFF" fill-rule="evenodd" xlink:href="#path-27"></use>
                    <circle stroke="#F06823" stroke-width="2" cx="10.3319477" cy="5.50985719" r="4.50985719"></circle>
                </g>
            </g>
            <g id="Group-9" transform="translate(0.232518, 0.000000)"></g>
            <g id="Combined-Shape">
                <use fill="#FFFFFF" fill-rule="evenodd" xlink:href="#path-28"></use>
                <path stroke="#F06823" stroke-width="2" d="M10.4650359,1.26462726 C5.0750956,2.82211484 1.23251795,7.79354513 1.23251795,13.5607706 C1.23251795,20.6294637 6.96282597,26.3597718 14.0315191,26.3597718 C21.1002123,26.3597718 26.8305203,20.6294637 26.8305203,13.5607706 C26.8305203,8.10622735 23.3894676,3.33942865 18.4116631,1.53010091 L18.4116631,13.3068646 C18.4116631,15.501265 16.63275,17.2801781 14.4383495,17.2801781 C12.243949,17.2801781 10.4650359,15.501265 10.4650359,13.3068646 L10.4650359,1.26462726 Z"></path>
            </g>
        </g>
        <g id="Group-10" transform="translate(29.000000, 62.938489)">
            <path d="M60.4918406,52.9241561 C61.6402779,52.8021831 63.1265539,52.7531332 64.6146378,52.7531332 C65.650971,52.7531332 68.4656989,52.7768634 71.5701208,52.8160006 C74.6745427,52.7768634 77.4892705,52.7531332 78.5256038,52.7531332 C80.0136876,52.7531332 81.4999637,52.8021831 82.6484009,52.9241561 C82.9568227,52.0896129 84.3493801,48.2347483 84.385965,46.5701599 C84.5672304,38.3227083 84.5672304,43.2782309 84.5672304,31.2709008 C84.5672304,11.6518388 90.7463425,-2.27373675e-13 96.8911321,-2.27373675e-13 C97.4102591,-2.27373675e-13 97.936894,0.083906112 98.4656742,0.252852202 C102.928664,1.6826577 108.019255,9.79927537 104.046289,27.8897113 C100.594154,43.6085991 97.4742105,49.2164119 96.299368,52.1981717 C95.361274,54.5790619 95.6115486,52.0784827 94.6934233,56.4234587 C98.7702858,59.3669758 89.4758839,63.3241695 90.3232192,67.5058687 L71.5701208,58.7336318 C66.7554646,60.9858092 60.5044317,63.9098882 52.8170223,67.5058687 C53.6643576,63.3241695 44.3699557,59.3669758 48.4468182,56.4234587 C47.5286929,52.0784827 47.7789675,54.5790619 46.8408735,52.1981717 C45.6660311,49.2164119 42.5460872,43.6085991 39.0939529,27.8897113 C35.1209863,9.79927537 40.2115774,1.6826577 44.6745674,0.252852202 C45.2033475,0.083906112 45.7299825,-2.27373675e-13 46.2491094,-2.27373675e-13 C52.393899,-2.27373675e-13 58.5730111,11.6518388 58.5730111,31.2709008 C58.5730111,43.2782309 58.5730111,38.3227083 58.7542765,46.5701599 C58.7908614,48.2347483 60.1834188,52.0896129 60.4918406,52.9241561 Z" id="Combined-Shape" stroke="#F06823" stroke-width="2" fill="#FFFFFF"></path>
            <g id="Group-9" transform="translate(14.009675, 109.806122) scale(-1, 1) translate(-14.009675, -109.806122) translate(0.134212, 95.930659)"></g>
            <g id="Group-15" transform="translate(71.200025, 173.414752) scale(-1, 1) translate(-71.200025, -173.414752) translate(34.700025, 120.914752)">
                <mask id="mask-30" fill="white">
                    <use xlink:href="#path-29"></use>
                </mask>
                <use id="Mask" fill="#FFFFFF" xlink:href="#path-29"></use>
                <g mask="url(#mask-30)" id="Path-10" stroke="#F06823" stroke-width="2">
                    <g transform="translate(-66.073635, 0.000000)">
                        <path d="M58.1447988,84.0866511 L142.23145,0"></path>
                        <path d="M65.4128987,84.0866511 L149.49955,0"></path>
                        <path d="M72.6809985,84.0866511 L156.76765,0"></path>
                        <path d="M79.9490984,84.0866511 L164.035749,0"></path>
                        <path d="M87.2171982,84.0866511 L171.303849,0"></path>
                        <path d="M94.4852981,84.0866511 L178.571949,0"></path>
                        <path d="M101.753398,84.0866511 L185.840049,0"></path>
                        <path d="M109.021498,84.0866511 L193.108149,0"></path>
                        <path d="M0,84.0866511 L84.0866511,0"></path>
                        <path d="M7.26809985,84.0866511 L91.3547509,0"></path>
                        <path d="M14.5361997,84.0866511 L98.6228508,0"></path>
                        <path d="M21.8042996,84.0866511 L105.890951,0"></path>
                        <path d="M29.0723994,84.0866511 L113.15905,0"></path>
                        <path d="M36.3404993,84.0866511 L120.42715,0"></path>
                        <path d="M43.6085991,84.0866511 L127.69525,0"></path>
                        <path d="M50.876699,84.0866511 L134.96335,0"></path>
                        <path d="M116.289598,84.0866511 L200.376249,0"></path>
                        <path d="M123.557697,84.0866511 L207.644349,0"></path>
                        <path d="M130.825797,84.0866511 L214.912448,0"></path>
                        <path d="M138.093897,84.0866511 L222.180548,0"></path>
                        <path d="M145.361997,84.0866511 L229.448648,0"></path>
                        <path d="M152.630097,84.0866511 L236.716748,0"></path>
                        <path d="M159.898197,84.0866511 L243.984848,0"></path>
                    </g>
                </g>
            </g>
            <g id="Group-5" transform="translate(71.093349, 113.253398) scale(-1, 1) translate(-71.093349, -113.253398) translate(65.093349, 101.753398)">
                <g id="Group-21" transform="translate(0.000000, 5.509857)">
                    <g id="Oval-15">
                        <use fill="#FFFFFF" fill-rule="evenodd" xlink:href="#path-31"></use>
                        <circle stroke="#F06823" stroke-width="2" cx="5.50985719" cy="5.50985719" r="4.50985719"></circle>
                    </g>
                    <g id="Oval-15">
                        <use fill="#FFFFFF" fill-rule="evenodd" xlink:href="#path-32"></use>
                        <circle stroke="#F06823" stroke-width="2" cx="5.50985719" cy="11.0197144" r="4.50985719"></circle>
                    </g>
                </g>
                <g id="Group-21" transform="translate(0.000000, 5.509857)">
                    <g id="Oval-15">
                        <use fill="#FFFFFF" fill-rule="evenodd" xlink:href="#path-33"></use>
                        <circle stroke="#F06823" stroke-width="2" cx="5.50985719" cy="5.50985719" r="4.50985719"></circle>
                    </g>
                </g>
                <g id="Oval-15">
                    <use fill="#FFFFFF" fill-rule="evenodd" xlink:href="#path-34"></use>
                    <circle stroke="#F06823" stroke-width="2" cx="5.50985719" cy="5.50985719" r="4.50985719"></circle>
                </g>
            </g>
            <g id="Group-18" transform="translate(71.627626, 43.750927) scale(-1, 1) translate(-71.627626, -43.750927) translate(64.627626, 27.750927)">
                <path d="M6,6.6073635 L6,31.0902979" id="Path-19" stroke="#F06823" stroke-width="2"></path>
                <g id="Oval-15">
                    <use fill="#FFFFFF" fill-rule="evenodd" xlink:href="#path-35"></use>
                    <circle stroke="#F06823" stroke-width="2" cx="6.6073635" cy="6.6073635" r="5.6073635"></circle>
                </g>
            </g>
            <g id="Rectangle-2" transform="translate(71.528581, 78.831187) scale(-1, 1) translate(-71.528581, -78.831187) ">
                <use fill="#FFFFFF" fill-rule="evenodd" xlink:href="#path-36"></use>
                <rect stroke="#F06823" stroke-width="2" x="35.3582902" y="51.2159626" width="72.3405824" height="55.2304483" rx="19"></rect>
            </g>
            <g id="Group-20" transform="translate(71.949716, 72.412899) scale(-1, 1) translate(-71.949716, -72.412899) translate(45.449716, 65.412899)">
                <g id="Oval-15">
                    <use fill="#FFFFFF" fill-rule="evenodd" xlink:href="#path-37"></use>
                    <circle stroke="#F06823" stroke-width="2" cx="6.6073635" cy="6.6073635" r="5.6073635"></circle>
                </g>
                <g id="Oval-15">
                    <use fill="#FFFFFF" fill-rule="evenodd" xlink:href="#path-38"></use>
                    <circle stroke="#F06823" stroke-width="2" cx="46.2515445" cy="6.6073635" r="5.6073635"></circle>
                </g>
            </g>
            <path d="M107.098745,165.358167 L107.086375,165.229797 L107.096099,165.1012 C107.164497,164.196614 107.198873,163.2865 107.198873,162.372087 L107.198873,156.763571 C107.198873,137.063413 91.2287393,121.093279 71.5285814,121.093279 C51.8284236,121.093279 35.8582902,137.063413 35.8582902,156.763571 L35.8582902,162.372087 C35.8582902,163.2865 35.8926663,164.196614 35.961064,165.1012 L35.9707875,165.229797 L35.9584179,165.358167 C35.8918194,166.049318 35.8582902,166.746318 35.8582902,167.447647 L35.8582902,201.396745 C35.8582902,213.270867 45.4841681,222.896745 57.3582902,222.896745 L85.6988726,222.896745 C97.5729947,222.896745 107.198873,213.270867 107.198873,201.396745 L107.198873,167.447647 C107.198873,166.746318 107.165343,166.049318 107.098745,165.358167 Z" id="Combined-Shape" stroke="#F06823" stroke-width="3" transform="translate(71.528581, 171.995012) scale(-1, 1) translate(-71.528581, -171.995012) "></path>
            <g id="Combined-Shape" transform="translate(71.528581, 171.995012) scale(-1, 1) translate(-71.528581, -171.995012) ">
                <use fill="#FFFFFF" fill-rule="evenodd" xlink:href="#path-39"></use>
                <path stroke="#F06823" stroke-width="2" d="M48.2175623,165.026257 C48.0030836,163.734314 47.8944899,162.419834 47.8944899,161.091986 L47.8944899,157.643692 C47.8944899,144.469781 58.5740552,133.790215 71.7479665,133.790215 C84.9218779,133.790215 95.6014431,144.469781 95.6014431,157.643692 L95.6014431,161.091986 C95.6014431,162.419834 95.4928494,163.734314 95.2783707,165.026257 C95.4928494,166.318201 95.6014431,167.632681 95.6014431,168.960529 L95.6014431,203.202674 C95.6014431,211.558339 91.2651881,219.108345 84.4535117,223.396745 L85.6988726,223.396745 C97.8491371,223.396745 107.698873,213.547009 107.698873,201.396745 L107.698873,167.447647 C107.698873,166.730298 107.664574,166.017295 107.59644,165.31021 L107.594676,165.138898 C107.664022,164.221772 107.698873,163.299082 107.698873,162.372087 L107.698873,156.763571 C107.698873,136.78727 91.5048816,120.593279 71.5285814,120.593279 C51.5522812,120.593279 35.3582902,136.78727 35.3582902,156.763571 L35.3582902,162.372087 C35.3582902,163.299082 35.3931413,164.221772 35.4624872,165.138898 L35.4607231,165.31021 C35.3925892,166.017295 35.3582902,166.730298 35.3582902,167.447647 L35.3582902,201.396745 C35.3582902,213.547009 45.2080257,223.396745 57.3582902,223.396745 L59.0424213,223.396745 C52.230745,219.108345 47.8944899,211.558339 47.8944899,203.202674 L47.8944899,168.960529 C47.8944899,167.632681 48.0030836,166.318201 48.2175623,165.026257 Z"></path>
            </g>
            <g id="Group" transform="translate(65.412899, 84.574253)" stroke="#F06823" stroke-width="2">
                <g id="Group-19" transform="translate(6.268100, 5.500000) scale(-1, 1) translate(-6.268100, -5.500000) translate(5.268100, 0.000000)">
                    <g id="Group-17">
                        <path d="M1,0.330368175 L1,10.9021498" id="Path-18"></path>
                    </g>
                </g>
                <path d="M0,0 L13.214727,0 L13.214727,7.90214978 C13.214727,9.55900403 11.8715813,10.9021498 10.214727,10.9021498 L3,10.9021498 C1.34314575,10.9021498 1.38278643e-15,9.55900403 4.4408921e-16,7.90214978 L0,0 Z" id="Rectangle-4"></path>
            </g>
            <path d="M56.1981717,84.5742528 L87.1816163,84.5742528 C89.3907553,84.5742528 91.1816163,86.3651138 91.1816163,88.5742528 L91.1816163,92.1727208 C91.1816163,96.3692389 87.7796663,99.7711889 83.5831483,99.7711889 L59.7966397,99.7711889 C55.6001217,99.7711889 52.1981717,96.3692389 52.1981717,92.1727208 L52.1981717,88.5742528 C52.1981717,86.3651138 53.9890327,84.5742528 56.1981717,84.5742528 Z" id="Rectangle-9" stroke="#F06823" stroke-width="2"></path>
        </g>
        <g id="Group-7" transform="translate(34.166696, 116.619191) rotate(2.000000) translate(-34.166696, -116.619191) translate(30.166696, 83.119191)">
            <g id="Combined-Shape">
                <use fill="#FFFFFF" fill-rule="evenodd" xlink:href="#path-40"></use>
                <path stroke="#F06823" stroke-width="2" d="M6.48075361,9.86018677 L3.53376671,2.79969733 L1.12799897,9.71627958 L1.13175711,9.72087969 L1.04707565,10.1769189 C1.01586061,10.3450227 1,10.5168962 1,10.6913099 L1,62.8484612 C1,64.3913739 2.25077789,65.6421518 3.7936906,65.6421518 C5.33660332,65.6421518 6.5873812,64.3913739 6.5873812,62.8484612 L6.5873812,10.6913099 C6.5873812,10.5147468 6.57112724,10.3407876 6.53914531,10.1707099 L6.48075361,9.86018677 Z"></path>
            </g>
            <path d="M1.52299972,10.0907994 C3.44880964,11.3810718 4.82833349,11.0361908 6.20920454,10.1258263" id="Path-6" stroke="#F06823" stroke-width="2"></path>
            <path d="M1.37952386,59.3195258 C3.30533377,60.6097982 4.68485762,60.2649172 6.06572867,59.3545527" id="Path-6" stroke="#F06823" stroke-width="2"></path>
        </g>
        <path d="M3,247 L625,247" id="Path-11" stroke="#F06823" stroke-width="3" stroke-linecap="round"></path>
        <g id="Group-22" transform="translate(71.000000, 125.000000)" stroke="#F06823" stroke-width="2">
            <path d="M4,0 L18,0 C20.209139,-4.05812251e-16 22,1.790861 22,4 L22,10 C22,15.5228475 17.5228475,20 12,20 L10,20 C4.4771525,20 6.76353751e-16,15.5228475 0,10 L0,4 C-2.705415e-16,1.790861 1.790861,4.05812251e-16 4,0 Z" id="Rectangle-9"></path>
            <path d="M43,0 L57,0 C59.209139,-4.05812251e-16 61,1.790861 61,4 L61,10 C61,15.5228475 56.5228475,20 51,20 L49,20 C43.4771525,20 39,15.5228475 39,10 L39,4 C39,1.790861 40.790861,4.05812251e-16 43,0 Z" id="Rectangle-9"></path>
            <path d="M22,3 L39.5,3" id="Path-2"></path>
        </g>
    </g>
</svg>