<svg xmlns="http://www.w3.org/2000/svg" xmlns:xlink="http://www.w3.org/1999/xlink" viewBox="0 0 260 399"><defs><style>.a,.b,.h,.k,.t{fill:none;}.b{clip-rule:evenodd;}.c,.d,.g{fill:#fff;}.c,.d,.h,.k,.t{stroke:#ef6924;stroke-width:2px;}.c,.d,.h,.k{stroke-miterlimit:10;}.d,.k,.t{stroke-linecap:round;}.e{clip-path:url(#a);}.f{clip-path:url(#b);}.i{clip-path:url(#c);}.j{clip-path:url(#e);}.l{clip-path:url(#g);}.m{clip-path:url(#h);}.n{clip-path:url(#i);}.o{clip-path:url(#k);}.p{clip-path:url(#m);}.q{clip-path:url(#n);}.r{clip-path:url(#o);}.s{clip-path:url(#q);}.t{stroke-linejoin:round;}.u{clip-path:url(#s);}.v{clip-path:url(#t);}.w{clip-path:url(#u);}.x{clip-path:url(#w);}.y{clip-path:url(#y);}.z{clip-path:url(#z);}.aa{clip-path:url(#aa);}.ab{fill:#ef6924;}</style><clipPath id="a"><circle class="a" cx="212.32" cy="388.81" r="4.35" transform="translate(-230.58 379.27) rotate(-60.13)"/></clipPath><clipPath id="b"><rect class="a" x="-224.55" y="278.93" width="513.19" height="159.07"/></clipPath><clipPath id="c"><circle class="a" cx="212.32" cy="393.16" r="4.35" transform="translate(-226.65 476.59) rotate(-72.39)"/></clipPath><clipPath id="e"><path class="b" d="M208,388.81a4.35,4.35,0,0,1,8.7,0"/></clipPath><clipPath id="g"><circle class="a" cx="35.29" cy="393.64" r="3.81" transform="translate(-323.63 228.18) rotate(-60.13)"/></clipPath><clipPath id="h"><rect class="a" x="-347.35" y="297.41" width="449.48" height="139.32"/></clipPath><clipPath id="i"><circle class="a" cx="35.29" cy="397.45" r="3.81" transform="translate(-354.22 310.85) rotate(-72.39)"/></clipPath><clipPath id="k"><path class="b" d="M31.48,393.64a3.81,3.81,0,0,1,7.62,0"/></clipPath><clipPath id="m"><circle class="a" cx="97.74" cy="392.4" r="3.68" transform="translate(-291.21 281.72) rotate(-60.13)"/></clipPath><clipPath id="n"><rect class="a" x="-272.2" y="299.36" width="434.57" height="134.7"/></clipPath><clipPath id="o"><circle class="a" cx="97.74" cy="396.08" r="3.68" transform="translate(-309.35 369.42) rotate(-72.39)"/></clipPath><clipPath id="q"><path class="b" d="M94.06,392.4a3.68,3.68,0,0,1,7.36,0"/></clipPath><clipPath id="s"><circle class="a" cx="155.05" cy="391.14" r="3.68" transform="translate(-261.35 330.78) rotate(-60.13)"/></clipPath><clipPath id="t"><rect class="a" x="-214.89" y="298.1" width="434.57" height="134.7"/></clipPath><clipPath id="u"><circle class="a" cx="155.05" cy="394.83" r="3.68" transform="matrix(0.3, -0.95, 0.95, 0.3, -268.18, 423.17)"/></clipPath><clipPath id="w"><path class="b" d="M151.37,391.14a3.68,3.68,0,1,1,7.36,0"/></clipPath><clipPath id="y"><circle class="a" cx="-51.9" cy="176.26" r="4.67" transform="translate(-178.89 43.47) rotate(-60.13)"/></clipPath><clipPath id="z"><circle class="a" cx="-51.9" cy="180.92" r="4.67" transform="translate(-208.65 76.72) rotate(-72.39)"/></clipPath><clipPath id="aa"><path class="b" d="M-56.57,176.26a4.67,4.67,0,0,1,4.67-4.67,4.66,4.66,0,0,1,4.66,4.67"/></clipPath></defs><path class="c" d="M225.28,357.77a18.55,18.55,0,0,1,2.94-3c4.48-2.75,1.75-1.16,8.36-5,10.8-6.3,15.22-13.47,13.24-16.87a3.46,3.46,0,0,0-.65-.79c-2.23-2-8.34-2.22-17,5.8A76.53,76.53,0,0,0,221.27,350c-3,3.47-3.92,7.35-6.5,8.22"/><path class="d" d="M200.68,352.08a13,13,0,0,1,25.91,0H186.66"/><g class="e"><g class="f"><rect class="g" x="205.36" y="381.85" width="13.91" height="13.91"/></g></g><circle class="h" cx="212.32" cy="388.81" r="3.57"/><g class="i"><g class="f"><rect class="g" x="205.36" y="386.2" width="13.91" height="13.91"/></g></g><circle class="c" cx="212.32" cy="393.16" r="3.57"/><g class="j"><g class="f"><rect class="g" x="205.36" y="381.85" width="13.91" height="13.91"/></g></g><circle class="c" cx="212.32" cy="388.81" r="3.57"/><circle class="c" cx="212.32" cy="384.46" r="3.57"/><path class="c" d="M199.05,476.81h25.87c4.61,0,8.36-5,8.36-11.21V424.21c0-15.77-9.54-28.56-21.3-28.56s-21.29,12.79-21.29,28.56V465.6C190.69,471.79,194.43,476.81,199.05,476.81Z"/><path class="c" d="M218.62,363.06c.24-.51,6.38-7.31,7.12-8.08,3.64-3.78,1.4-1.56,6.83-7,8.87-8.82,11.35-16.86,8.58-19.66a3.68,3.68,0,0,0-.83-.6c-2.66-1.38-8.63,0-15,9.88a69.87,69.87,0,0,0-7.49,14.45c-.65,1.49.36.26-1.19,2.63-3.17-.53-.76,5.47-3,7"/><rect class="c" x="195.83" y="352.25" width="34.09" height="36.74" rx="11.04" transform="translate(425.75 741.24) rotate(-180)"/><path class="h" d="M202.32,352.65c5.41,0,10.2,3.65,10.18,8.62l0,9.15,0,9.73c0,3.88-2.7,6.92-6.45,8.05l-2.54.12"/><path class="k" d="M201.56,372.6a5.33,5.33,0,0,1-5.73,3"/><path class="h" d="M198.29,375.59V378a1.45,1.45,0,0,1-1.45,1.45h-.55"/><circle class="k" cx="201.15" cy="366.3" r="2.96"/><path class="c" d="M38.69,359.18c.06-.58,3.74-9.25,4.19-10.24,2.27-4.9.84-2,4.3-9.05,5.65-11.54,5.35-20.18,1.72-21.95a3.39,3.39,0,0,0-1-.31c-3-.45-8.39,2.85-11.25,14.64a71.22,71.22,0,0,0-2.42,16.53c-.13,1.68.44.13-.27,2.95-3.25.56,1.1,5.57-.6,7.79"/><g class="l"><g class="m"><rect class="g" x="29.19" y="387.55" width="12.19" height="12.19"/></g></g><circle class="h" cx="35.29" cy="393.64" r="3.12"/><g class="n"><g class="m"><rect class="g" x="29.19" y="391.36" width="12.19" height="12.19"/></g></g><circle class="c" cx="35.29" cy="397.45" r="3.12"/><g class="o"><g class="m"><rect class="g" x="29.19" y="387.55" width="12.19" height="12.19"/></g></g><circle class="c" cx="35.29" cy="393.64" r="3.12"/><circle class="c" cx="35.29" cy="389.83" r="3.12"/><path class="c" d="M23.66,470.72H46.32c4,0,7.32-4.39,7.32-9.82V424.65c0-13.81-8.35-25-18.65-25s-18.65,11.2-18.65,25V460.9C16.34,466.33,19.62,470.72,23.66,470.72Z"/><rect class="c" x="17.44" y="351.09" width="35.02" height="37.73" rx="12.39" transform="translate(69.9 739.91) rotate(-180)"/><path class="h" d="M25,351.52c5.07,0,9.58,3.71,9.58,8.81v19.39a8.65,8.65,0,0,1-6,8.3l-1.56.25"/><path class="k" d="M28.93,376.48c-2.68,2.74-6.05,3.33-10.32,3.13"/><path class="h" d="M21.59,379.55V382a1.5,1.5,0,0,1-1.5,1.5h-.56"/><line class="h" x1="28.14" y1="339.59" x2="28.14" y2="351.26"/><circle class="c" cx="28.14" cy="340.02" r="3.68"/><path class="k" d="M25.7,367.27a2.89,2.89,0,0,0-5.78,0"/><path class="c" d="M23.87,333.16H48.15a0,0,0,0,1,0,0v13.16a5.41,5.41,0,0,1-5.41,5.41H35.6A11.73,11.73,0,0,1,23.87,340v-6.84a0,0,0,0,1,0,0Z" transform="translate(72.02 684.89) rotate(-180)"/><path class="c" d="M42.44,352.35A19.34,19.34,0,0,1,46,349.9c5.06-1.88,2-.82,9.42-3.4,12.13-4.22,18-10.56,16.68-14.38a3.49,3.49,0,0,0-.5-.93c-1.85-2.47-8-3.89-18.3,2.47a78.64,78.64,0,0,0-13.36,10c-3.72,2.9-5.41,6.63-8.17,7"/><path class="c" d="M23.51,348.91H47.42a5.72,5.72,0,0,1,5.72,5.72V355a0,0,0,0,1,0,0H17.79a0,0,0,0,1,0,0v-.36A5.72,5.72,0,0,1,23.51,348.91Z" transform="translate(70.93 703.89) rotate(-180)"/><path class="c" d="M98.72,358.55c.11-.59,4.51-9.11,5-10.08,2.68-4.81,1-2,5.06-8.87,6.62-11.29,7-20.09,3.43-22.18a3.36,3.36,0,0,0-1-.39c-3.06-.69-8.75,2.25-12.56,14A72.54,72.54,0,0,0,95,347.67c-.27,1.68.43.16-.5,3-3.35.31.69,5.75-1.22,7.86"/><g class="p"><g class="q"><rect class="g" x="91.85" y="386.51" width="11.78" height="11.78"/></g></g><circle class="h" cx="97.74" cy="392.4" r="3.02"/><g class="r"><g class="q"><rect class="g" x="91.85" y="390.19" width="11.78" height="11.78"/></g></g><circle class="c" cx="97.74" cy="396.08" r="3.02"/><g class="s"><g class="q"><rect class="g" x="91.85" y="386.51" width="11.78" height="11.78"/></g></g><circle class="c" cx="97.74" cy="392.4" r="3.02"/><circle class="c" cx="97.74" cy="388.72" r="3.02"/><path class="c" d="M86.51,466.92h21.9c3.91,0,7.08-4.25,7.08-9.49V422.38c0-13.36-8.07-24.18-18-24.18s-18,10.82-18,24.18v35.05C79.42,462.67,82.59,466.92,86.51,466.92Z"/><path class="c" d="M105.53,355.07a19.91,19.91,0,0,1,3.08-3.15c4.69-2.88,1.83-1.21,8.75-5.25,11.31-6.6,15.93-14.1,13.85-17.66a3.49,3.49,0,0,0-.67-.83c-2.34-2.1-8.74-2.32-17.82,6.07a81.09,81.09,0,0,0-11.39,12.66c-3.14,3.64-4.1,7.7-6.8,8.62"/><rect class="c" x="79.28" y="349.29" width="35.69" height="38.45" rx="11.14" transform="translate(194.25 737.02) rotate(-180)"/><path class="h" d="M86.93,349.73c5.17,0,9.76,3.77,9.76,9v19.75a8.8,8.8,0,0,1-6.13,8.46L88,387.5"/><path class="k" d="M79.24,365.19a3.22,3.22,0,1,1,6.36,0"/><path class="k" d="M85.81,375.17a5.57,5.57,0,0,1-6,3.18"/><path class="h" d="M82.84,378.29v2.5a1.53,1.53,0,0,1-1.52,1.53h-.57"/><line class="h" x1="90.18" y1="337.56" x2="90.18" y2="349.46"/><circle class="c" cx="90.18" cy="338.01" r="3.75"/><path class="t" d="M73.95,358.56H89.48a0,0,0,0,1,0,0v3.31a7.31,7.31,0,0,1-7.31,7.31h-.91a7.31,7.31,0,0,1-7.31-7.31v-3.31A0,0,0,0,1,73.95,358.56Z"/><path class="k" d="M89.72,360.45h14.36a5,5,0,0,1,4.21,7.67,4.84,4.84,0,0,1-.33.46"/><path class="c" d="M162,360.15c-.06-.59,2-10,2.22-11,1.33-5.34.46-2.15,2.56-9.89,3.43-12.63,1.47-21.22-2.51-22.3a3.35,3.35,0,0,0-1.06-.11c-3.14.13-7.85,4.47-8.45,16.81a73.25,73.25,0,0,0,.77,17c.19,1.7.46,0,.3,3-3.15,1.18,2.17,5.36.89,7.91"/><g class="u"><g class="v"><rect class="g" x="149.16" y="385.25" width="11.78" height="11.78"/></g></g><circle class="h" cx="155.05" cy="391.14" r="3.02"/><g class="w"><g class="v"><rect class="g" x="149.16" y="388.93" width="11.78" height="11.78"/></g></g><circle class="c" cx="155.05" cy="394.83" r="3.02"/><g class="x"><g class="v"><rect class="g" x="149.16" y="385.25" width="11.78" height="11.78"/></g></g><circle class="c" cx="155.05" cy="391.14" r="3.02"/><circle class="c" cx="155.05" cy="387.46" r="3.02"/><path class="c" d="M143.82,465.67h21.9c3.91,0,7.08-4.26,7.08-9.5V421.12c0-13.35-8.07-24.18-18-24.18s-18,10.83-18,24.18v35.05C136.74,461.41,139.91,465.67,143.82,465.67Z"/><path class="c" d="M167.63,355a19.88,19.88,0,0,1,2.14-3.84c3.77-4,1.45-1.65,7.07-7.36,9.18-9.34,11.68-17.79,8.74-20.68a3.56,3.56,0,0,0-.88-.62c-2.8-1.42-9,.05-15.59,10.53a79.41,79.41,0,0,0-7.67,15.21c-2.09,4.33-1.95,8.5-4.31,10.09"/><rect class="c" x="136.59" y="348.03" width="35.69" height="38.45" rx="11.14" transform="translate(308.87 734.51) rotate(-180)"/><path class="h" d="M145.44,386.08l1.84-.42c3.92-1.2,6.72-4.39,6.72-8.46V357.45c0-4.56-3.85-8-8.61-8.81h-1.13"/><path class="k" d="M143.12,371.29a5.57,5.57,0,0,1-6,3.18"/><path class="h" d="M140.15,374.41v2.5a1.53,1.53,0,0,1-1.52,1.53h-.57"/><line class="h" x1="147.49" y1="336.31" x2="147.49" y2="348.2"/><circle class="c" cx="147.49" cy="336.75" r="3.75"/><circle class="h" cx="141.12" cy="363.23" r="2.47"/><path class="ab" d="M256,399H4a1.5,1.5,0,0,1,0-3H256a1.5,1.5,0,0,1,0,3Z"/></svg>