<svg version="1.1" viewBox="0.0 0.0 1104.6535433070867 433.63254593175856" fill="none" stroke="none" stroke-linecap="square" stroke-miterlimit="10" xmlns:xlink="http://www.w3.org/1999/xlink" xmlns="http://www.w3.org/2000/svg"><clipPath id="p.0"><path d="m0 0l1104.6536 0l0 433.63254l-1104.6536 0l0 -433.63254z" clip-rule="nonzero"/></clipPath><g clip-path="url(#p.0)"><path fill="#000000" fill-opacity="0.0" d="m0 0l1104.6536 0l0 433.63254l-1104.6536 0z" fill-rule="evenodd"/><path fill="#0091da" d="m28.692913 23.414698l262.17325 0l0 151.49606l-262.17325 0z" fill-rule="evenodd"/><path fill="#ffffff" d="m142.26 162.27077l-2.203125 0l0 -4.234375q0 -1.34375 -0.140625 -1.734375q-0.140625 -0.40625 -0.453125 -0.625q-0.3125 -0.21875 -0.765625 -0.21875q-0.5625 0 -1.015625 0.3125q-0.453125 0.3125 -0.625 0.828125q-0.171875 0.515625 -0.171875 1.90625l0 3.765625l-2.1875 0l0 -8.296875l2.03125 0l0 1.21875q1.09375 -1.40625 2.734375 -1.40625q0.734375 0 1.328125 0.265625q0.609375 0.25 0.90625 0.65625q0.3125 0.40625 0.4375 0.921875q0.125 0.515625 0.125 1.484375l0 5.15625zm1.7109375 -4.265625q0 -1.09375 0.53125 -2.109375q0.546875 -1.03125 1.53125 -1.5625q1.0 -0.546875 2.21875 -0.546875q1.875 0 3.078125 1.21875q1.203125 1.21875 1.203125 3.09375q0 1.875 -1.21875 3.125q-1.203125 1.234375 -3.046875 1.234375q-1.140625 0 -2.1875 -0.515625q-1.03125 -0.515625 -1.578125 -1.515625q-0.53125 -1.0 -0.53125 -2.421875zm2.25 0.109375q0 1.234375 0.578125 1.890625q0.59375 0.65625 1.453125 0.65625q0.859375 0 1.4375 -0.65625q0.59375 -0.65625 0.59375 -1.90625q0 -1.21875 -0.59375 -1.875q-0.578125 -0.65625 -1.4375 -0.65625q-0.859375 0 -1.453125 0.65625q-0.578125 0.65625 -0.578125 1.890625zm15.6484375 4.15625l-2.046875 0l0 -1.21875q-0.5 0.703125 -1.203125 1.0625q-0.6875 0.34375 -1.390625 0.34375q-1.421875 0 -2.453125 -1.15625q-1.015625 -1.15625 -1.015625 -3.21875q0 -2.109375 0.984375 -3.203125q1.0 -1.09375 2.515625 -1.09375q1.390625 0 2.40625 1.15625l0 -4.125l2.203125 0l0 11.453125zm-5.859375 -4.328125q0 1.328125 0.359375 1.921875q0.53125 0.859375 1.484375 0.859375q0.765625 0 1.296875 -0.640625q0.53125 -0.65625 0.53125 -1.9375q0 -1.421875 -0.515625 -2.046875q-0.515625 -0.640625 -1.328125 -0.640625q-0.78125 0 -1.3125 0.625q-0.515625 0.625 -0.515625 1.859375zm12.8203125 1.6875l2.1875 0.359375q-0.421875 1.203125 -1.328125 1.84375q-0.90625 0.625 -2.28125 0.625q-2.15625 0 -3.203125 -1.421875q-0.8125 -1.125 -0.8125 -2.859375q0 -2.0625 1.078125 -3.21875q1.078125 -1.171875 2.71875 -1.171875q1.859375 0 2.921875 1.21875q1.078125 1.21875 1.03125 3.75l-5.5 0q0.015625 0.96875 0.515625 1.515625q0.515625 0.546875 1.28125 0.546875q0.515625 0 0.859375 -0.28125q0.359375 -0.28125 0.53125 -0.90625zm0.125 -2.21875q-0.015625 -0.953125 -0.484375 -1.453125q-0.46875 -0.5 -1.140625 -0.5q-0.71875 0 -1.1875 0.53125q-0.46875 0.515625 -0.46875 1.421875l3.28125 0zm3.7265625 1.796875l0 -2.1875l4.3125 0l0 2.1875l-4.3125 0zm10.71875 3.0625l-2.1875 0l0 -8.28125q-1.203125 1.125 -2.84375 1.671875l0 -2.0q0.859375 -0.28125 1.859375 -1.0625q1.015625 -0.78125 1.390625 -1.828125l1.78125 0l0 11.5z" fill-rule="nonzero"/><path fill="#1a428a" d="m55.204723 104.40945l0 0c2.7353325 0 4.952759 -8.869698 4.952759 -19.81102c0 -10.94133 -2.2174263 -19.811028 -4.952759 -19.811028l209.14961 0c2.735321 0 4.952759 8.869698 4.952759 19.811028c0 10.941322 -2.2174377 19.81102 -4.952759 19.81102z" fill-rule="evenodd"/><path fill="#758db8" d="m55.204723 104.40945l0 0c-2.7353287 0 -4.952755 -8.869698 -4.952755 -19.81102c0 -10.94133 2.2174263 -19.811028 4.952755 -19.811028l0 0c2.7353325 0 4.952759 8.869698 4.952759 19.811028c0 10.941322 -2.2174263 19.81102 -4.952759 19.81102z" fill-rule="evenodd"/><path fill="#000000" fill-opacity="0.0" d="m55.204723 64.7874l0 0c2.7353325 0 4.952759 8.869698 4.952759 19.811028c0 10.941322 -2.2174263 19.81102 -4.952759 19.81102l0 0c-2.7353287 0 -4.952755 -8.869698 -4.952755 -19.81102c0 -10.94133 2.2174263 -19.811028 4.952755 -19.811028l209.14961 0c2.735321 0 4.952759 8.869698 4.952759 19.811028c0 10.941322 -2.2174377 19.81102 -4.952759 19.81102l-209.14961 0" fill-rule="evenodd"/><path fill="#000000" fill-opacity="0.0" d="m36.850395 63.59055l245.85825 0l0 42.01575l-245.85825 0z" fill-rule="evenodd"/><path fill="#ffffff" d="m93.05023 86.97468l2.625 -0.25q0.234375 1.3125 0.953125 1.9375q0.734375 0.609375 1.96875 0.609375q1.296875 0 1.953125 -0.546875q0.671875 -0.546875 0.671875 -1.28125q0 -0.484375 -0.28125 -0.8125q-0.28125 -0.328125 -0.96875 -0.578125q-0.484375 -0.15625 -2.171875 -0.578125q-2.15625 -0.546875 -3.03125 -1.328125q-1.234375 -1.09375 -1.234375 -2.6875q0 -1.015625 0.578125 -1.90625q0.578125 -0.890625 1.65625 -1.34375q1.09375 -0.46875 2.640625 -0.46875q2.515625 0 3.78125 1.109375q1.28125 1.09375 1.34375 2.9375l-2.703125 0.109375q-0.171875 -1.03125 -0.75 -1.46875q-0.5625 -0.453125 -1.703125 -0.453125q-1.171875 0 -1.84375 0.46875q-0.421875 0.3125 -0.421875 0.84375q0 0.46875 0.40625 0.796875q0.5 0.4375 2.46875 0.90625q1.96875 0.453125 2.90625 0.953125q0.953125 0.5 1.484375 1.359375q0.53125 0.859375 0.53125 2.125q0 1.15625 -0.640625 2.15625q-0.640625 1.0 -1.8125 1.484375q-1.15625 0.484375 -2.890625 0.484375q-2.53125 0 -3.890625 -1.171875q-1.359375 -1.171875 -1.625 -3.40625zm17.552948 -5.328125l0 2.03125l-1.75 0l0 3.90625q0 1.1875 0.046875 1.390625q0.046875 0.1875 0.21875 0.3125q0.1875 0.125 0.4375 0.125q0.359375 0 1.03125 -0.25l0.21875 2.0q-0.890625 0.375 -2.015625 0.375q-0.703125 0 -1.265625 -0.234375q-0.546875 -0.234375 -0.8125 -0.59375q-0.25 -0.375 -0.34375 -1.0q-0.09375 -0.453125 -0.09375 -1.8125l0 -4.21875l-1.171875 0l0 -2.03125l1.171875 0l0 -1.921875l2.578125 -1.5l0 3.421875l1.75 0zm4.228302 9.671875l-2.5625 0l0 -9.671875l2.375 0l0 1.375q0.609375 -0.984375 1.09375 -1.28125q0.484375 -0.3125 1.109375 -0.3125q0.875 0 1.6875 0.484375l-0.796875 2.234375q-0.640625 -0.421875 -1.203125 -0.421875q-0.53125 0 -0.90625 0.296875q-0.375 0.296875 -0.59375 1.078125q-0.203125 0.765625 -0.203125 3.234375l0 2.984375zm10.400894 -3.078125l2.546875 0.421875q-0.484375 1.40625 -1.546875 2.140625q-1.0625 0.734375 -2.65625 0.734375q-2.515625 0 -3.734375 -1.65625q-0.953125 -1.3125 -0.953125 -3.328125q0 -2.40625 1.25 -3.765625q1.265625 -1.359375 3.1875 -1.359375q2.15625 0 3.40625 1.421875q1.25 1.421875 1.1875 4.375l-6.40625 0q0.03125 1.140625 0.609375 1.78125q0.59375 0.625 1.484375 0.625q0.59375 0 1.0 -0.328125q0.421875 -0.328125 0.625 -1.0625zm0.15625 -2.59375q-0.03125 -1.109375 -0.578125 -1.6875q-0.546875 -0.578125 -1.328125 -0.578125q-0.84375 0 -1.390625 0.609375q-0.546875 0.609375 -0.53125 1.65625l3.828125 0zm6.531967 -1.046875l-2.328125 -0.421875q0.40625 -1.40625 1.359375 -2.078125q0.953125 -0.671875 2.84375 -0.671875q1.703125 0 2.546875 0.40625q0.84375 0.40625 1.171875 1.03125q0.34375 0.625 0.34375 2.28125l-0.015625 3.0q0 1.265625 0.109375 1.875q0.125 0.609375 0.46875 1.296875l-2.53125 0q-0.109375 -0.25 -0.25 -0.75q-0.0625 -0.234375 -0.09375 -0.3125q-0.65625 0.640625 -1.40625 0.96875q-0.734375 0.3125 -1.59375 0.3125q-1.484375 0 -2.34375 -0.8125q-0.859375 -0.8125 -0.859375 -2.046875q0 -0.828125 0.390625 -1.46875q0.390625 -0.640625 1.09375 -0.96875q0.703125 -0.34375 2.03125 -0.609375q1.796875 -0.328125 2.484375 -0.625l0 -0.25q0 -0.75 -0.359375 -1.0625q-0.359375 -0.3125 -1.375 -0.3125q-0.6875 0 -1.078125 0.28125q-0.375 0.265625 -0.609375 0.9375zm3.421875 2.078125q-0.484375 0.15625 -1.5625 0.390625q-1.0625 0.21875 -1.390625 0.4375q-0.5 0.359375 -0.5 0.90625q0 0.53125 0.40625 0.9375q0.40625 0.390625 1.015625 0.390625q0.703125 0 1.328125 -0.46875q0.46875 -0.34375 0.609375 -0.84375q0.09375 -0.328125 0.09375 -1.25l0 -0.5zm4.844467 -5.03125l2.359375 0l0 1.3125q1.265625 -1.53125 3.015625 -1.53125q0.9375 0 1.609375 0.390625q0.6875 0.375 1.125 1.140625q0.640625 -0.765625 1.375 -1.140625q0.75 -0.390625 1.578125 -0.390625q1.0625 0 1.796875 0.4375q0.75 0.421875 1.109375 1.265625q0.265625 0.625 0.265625 2.0l0 6.1875l-2.5625 0l0 -5.53125q0 -1.4375 -0.265625 -1.859375q-0.34375 -0.546875 -1.09375 -0.546875q-0.53125 0 -1.015625 0.328125q-0.46875 0.328125 -0.671875 0.96875q-0.203125 0.625 -0.203125 2.0l0 4.640625l-2.5625 0l0 -5.296875q0 -1.421875 -0.140625 -1.828125q-0.140625 -0.40625 -0.421875 -0.609375q-0.28125 -0.203125 -0.78125 -0.203125q-0.59375 0 -1.0625 0.328125q-0.46875 0.3125 -0.6875 0.921875q-0.203125 0.59375 -0.203125 1.984375l0 4.703125l-2.5625 0l0 -9.671875zm21.990448 9.671875l0 -13.359375l5.6875 0q2.140625 0 3.109375 0.359375q0.96875 0.359375 1.546875 1.28125q0.578125 0.921875 0.578125 2.109375q0 1.5 -0.890625 2.484375q-0.875 0.96875 -2.625 1.234375q0.875 0.5 1.4375 1.125q0.578125 0.609375 1.53125 2.15625l1.640625 2.609375l-3.234375 0l-1.9375 -2.90625q-1.046875 -1.5625 -1.4375 -1.96875q-0.375 -0.40625 -0.8125 -0.546875q-0.421875 -0.15625 -1.34375 -0.15625l-0.546875 0l0 5.578125l-2.703125 0zm2.703125 -7.703125l2.0 0q1.9375 0 2.421875 -0.15625q0.484375 -0.171875 0.75 -0.578125q0.28125 -0.40625 0.28125 -1.0q0 -0.671875 -0.359375 -1.078125q-0.359375 -0.421875 -1.015625 -0.53125q-0.328125 -0.046875 -1.96875 -0.046875l-2.109375 0l0 3.390625zm16.34793 4.625l2.546875 0.421875q-0.484375 1.40625 -1.546875 2.140625q-1.0625 0.734375 -2.65625 0.734375q-2.515625 0 -3.734375 -1.65625q-0.953125 -1.3125 -0.953125 -3.328125q0 -2.40625 1.25 -3.765625q1.265625 -1.359375 3.1875 -1.359375q2.15625 0 3.40625 1.421875q1.25 1.421875 1.1875 4.375l-6.40625 0q0.03125 1.140625 0.609375 1.78125q0.59375 0.625 1.484375 0.625q0.59375 0 1.0 -0.328125q0.421875 -0.328125 0.625 -1.0625zm0.15625 -2.59375q-0.03125 -1.109375 -0.578125 -1.6875q-0.546875 -0.578125 -1.328125 -0.578125q-0.84375 0 -1.390625 0.609375q-0.546875 0.609375 -0.53125 1.65625l3.828125 0zm4.5476074 -4.0l2.390625 0l0 1.421875q0.46875 -0.734375 1.25 -1.1875q0.796875 -0.453125 1.765625 -0.453125q1.6875 0 2.859375 1.328125q1.171875 1.3125 1.171875 3.671875q0 2.421875 -1.1875 3.765625q-1.1875 1.34375 -2.859375 1.34375q-0.8125 0 -1.46875 -0.3125q-0.640625 -0.328125 -1.359375 -1.09375l0 4.875l-2.5625 0l0 -13.359375zm2.53125 4.671875q0 1.625 0.640625 2.40625q0.65625 0.78125 1.578125 0.78125q0.90625 0 1.484375 -0.71875q0.59375 -0.71875 0.59375 -2.34375q0 -1.515625 -0.609375 -2.25q-0.609375 -0.75 -1.515625 -0.75q-0.9375 0 -1.5625 0.734375q-0.609375 0.71875 -0.609375 2.140625zm8.942841 5.0l0 -13.359375l2.5625 0l0 13.359375l-2.5625 0zm5.183319 -10.984375l0 -2.375l2.5625 0l0 2.375l-2.5625 0zm0 10.984375l0 -9.671875l2.5625 0l0 9.671875l-2.5625 0zm13.620789 -6.8125l-2.53125 0.453125q-0.125 -0.75 -0.578125 -1.125q-0.453125 -0.390625 -1.171875 -0.390625q-0.953125 0 -1.53125 0.65625q-0.5625 0.65625 -0.5625 2.203125q0 1.734375 0.578125 2.4375q0.578125 0.703125 1.546875 0.703125q0.734375 0 1.203125 -0.40625q0.46875 -0.421875 0.65625 -1.421875l2.515625 0.421875q-0.390625 1.734375 -1.515625 2.625q-1.109375 0.875 -2.96875 0.875q-2.125 0 -3.390625 -1.328125q-1.25 -1.34375 -1.25 -3.71875q0 -2.390625 1.265625 -3.71875q1.265625 -1.34375 3.421875 -1.34375q1.765625 0 2.796875 0.765625q1.046875 0.75 1.515625 2.3125zm3.8444824 0.09375l-2.328125 -0.421875q0.40625 -1.40625 1.359375 -2.078125q0.953125 -0.671875 2.84375 -0.671875q1.703125 0 2.546875 0.40625q0.84375 0.40625 1.171875 1.03125q0.34375 0.625 0.34375 2.28125l-0.015625 3.0q0 1.265625 0.109375 1.875q0.125 0.609375 0.46875 1.296875l-2.53125 0q-0.109375 -0.25 -0.25 -0.75q-0.0625 -0.234375 -0.09375 -0.3125q-0.65625 0.640625 -1.40625 0.96875q-0.734375 0.3125 -1.59375 0.3125q-1.484375 0 -2.34375 -0.8125q-0.859375 -0.8125 -0.859375 -2.046875q0 -0.828125 0.390625 -1.46875q0.390625 -0.640625 1.09375 -0.96875q0.703125 -0.34375 2.03125 -0.609375q1.796875 -0.328125 2.484375 -0.625l0 -0.25q0 -0.75 -0.359375 -1.0625q-0.359375 -0.3125 -1.375 -0.3125q-0.6875 0 -1.078125 0.28125q-0.375 0.265625 -0.609375 0.9375zm3.421875 2.078125q-0.484375 0.15625 -1.5625 0.390625q-1.0625 0.21875 -1.390625 0.4375q-0.5 0.359375 -0.5 0.90625q0 0.53125 0.40625 0.9375q0.40625 0.390625 1.015625 0.390625q0.703125 0 1.328125 -0.46875q0.46875 -0.34375 0.609375 -0.84375q0.09375 -0.328125 0.09375 -1.25l0 -0.5z" fill-rule="nonzero"/><path fill="#0091da" d="m418.74277 23.414698l262.17325 0l0 151.49606l-262.17325 0z" fill-rule="evenodd"/><path fill="#ffffff" d="m532.3099 162.27077l-2.203125 0l0 -4.234375q0 -1.34375 -0.140625 -1.734375q-0.140625 -0.40625 -0.453125 -0.625q-0.3125 -0.21875 -0.765625 -0.21875q-0.5625 0 -1.015625 0.3125q-0.453125 0.3125 -0.625 0.828125q-0.171875 0.515625 -0.171875 1.90625l0 3.765625l-2.1875 0l0 -8.296875l2.03125 0l0 1.21875q1.09375 -1.40625 2.734375 -1.40625q0.734375 0 1.328125 0.265625q0.609375 0.25 0.90625 0.65625q0.3125 0.40625 0.4375 0.921875q0.125 0.515625 0.125 1.484375l0 5.15625zm1.7109375 -4.265625q0 -1.09375 0.53125 -2.109375q0.546875 -1.03125 1.53125 -1.5625q1.0 -0.546875 2.21875 -0.546875q1.875 0 3.078125 1.21875q1.203125 1.21875 1.203125 3.09375q0 1.875 -1.21875 3.125q-1.203125 1.234375 -3.046875 1.234375q-1.140625 0 -2.1875 -0.515625q-1.03125 -0.515625 -1.578125 -1.515625q-0.53125 -1.0 -0.53125 -2.421875zm2.25 0.109375q0 1.234375 0.578125 1.890625q0.59375 0.65625 1.453125 0.65625q0.859375 0 1.4375 -0.65625q0.59375 -0.65625 0.59375 -1.90625q0 -1.21875 -0.59375 -1.875q-0.578125 -0.65625 -1.4375 -0.65625q-0.859375 0 -1.453125 0.65625q-0.578125 0.65625 -0.578125 1.890625zm15.6484375 4.15625l-2.046875 0l0 -1.21875q-0.5 0.703125 -1.203125 1.0625q-0.6875 0.34375 -1.390625 0.34375q-1.421875 0 -2.453125 -1.15625q-1.015625 -1.15625 -1.015625 -3.21875q0 -2.109375 0.984375 -3.203125q1.0 -1.09375 2.515625 -1.09375q1.390625 0 2.40625 1.15625l0 -4.125l2.203125 0l0 11.453125zm-5.859375 -4.328125q0 1.328125 0.359375 1.921875q0.53125 0.859375 1.484375 0.859375q0.765625 0 1.296875 -0.640625q0.53125 -0.65625 0.53125 -1.9375q0 -1.421875 -0.515625 -2.046875q-0.515625 -0.640625 -1.328125 -0.640625q-0.78125 0 -1.3125 0.625q-0.515625 0.625 -0.515625 1.859375zm12.8203125 1.6875l2.1875 0.359375q-0.421875 1.203125 -1.328125 1.84375q-0.90625 0.625 -2.28125 0.625q-2.15625 0 -3.203125 -1.421875q-0.8125 -1.125 -0.8125 -2.859375q0 -2.0625 1.078125 -3.21875q1.078125 -1.171875 2.71875 -1.171875q1.859375 0 2.921875 1.21875q1.078125 1.21875 1.03125 3.75l-5.5 0q0.015625 0.96875 0.515625 1.515625q0.515625 0.546875 1.28125 0.546875q0.515625 0 0.859375 -0.28125q0.359375 -0.28125 0.53125 -0.90625zm0.125 -2.21875q-0.015625 -0.953125 -0.484375 -1.453125q-0.46875 -0.5 -1.140625 -0.5q-0.71875 0 -1.1875 0.53125q-0.46875 0.515625 -0.46875 1.421875l3.28125 0zm3.7265625 1.796875l0 -2.1875l4.3125 0l0 2.1875l-4.3125 0zm12.515625 1.015625l0 2.046875l-7.6875 0q0.125 -1.15625 0.75 -2.1875q0.625 -1.046875 2.46875 -2.75q1.484375 -1.390625 1.8125 -1.875q0.453125 -0.6875 0.453125 -1.34375q0 -0.734375 -0.390625 -1.125q-0.390625 -0.40625 -1.09375 -0.40625q-0.6875 0 -1.09375 0.421875q-0.40625 0.40625 -0.46875 1.375l-2.1875 -0.21875q0.203125 -1.8125 1.234375 -2.59375q1.03125 -0.796875 2.578125 -0.796875q1.6875 0 2.65625 0.921875q0.96875 0.90625 0.96875 2.265625q0 0.765625 -0.28125 1.46875q-0.265625 0.703125 -0.875 1.46875q-0.390625 0.5 -1.4375 1.453125q-1.03125 0.953125 -1.3125 1.265625q-0.28125 0.3125 -0.453125 0.609375l4.359375 0z" fill-rule="nonzero"/><path fill="#1a428a" d="m445.2546 104.40945l0 0c2.735321 0 4.9527283 -8.869698 4.9527283 -19.81102c0 -10.94133 -2.2174072 -19.811028 -4.9527283 -19.811028l209.14957 0c2.7353516 0 4.952759 8.869698 4.952759 19.811028c0 10.941322 -2.2174072 19.81102 -4.952759 19.81102z" fill-rule="evenodd"/><path fill="#758db8" d="m445.2546 104.40945l0 0c-2.7353516 0 -4.952759 -8.869698 -4.952759 -19.81102c0 -10.94133 2.2174072 -19.811028 4.952759 -19.811028l0 0c2.735321 0 4.9527283 8.869698 4.9527283 19.811028c0 10.941322 -2.2174072 19.81102 -4.9527283 19.81102z" fill-rule="evenodd"/><path fill="#000000" fill-opacity="0.0" d="m445.2546 64.7874l0 0c2.735321 0 4.9527283 8.869698 4.9527283 19.811028c0 10.941322 -2.2174072 19.81102 -4.9527283 19.81102l0 0c-2.7353516 0 -4.952759 -8.869698 -4.952759 -19.81102c0 -10.94133 2.2174072 -19.811028 4.952759 -19.811028l209.14957 0c2.7353516 0 4.952759 8.869698 4.952759 19.811028c0 10.941322 -2.2174072 19.81102 -4.952759 19.81102l-209.14957 0" fill-rule="evenodd"/><path fill="#000000" fill-opacity="0.0" d="m426.90027 63.59055l245.85828 0l0 42.01575l-245.85828 0z" fill-rule="evenodd"/><path fill="#ffffff" d="m485.69174 86.97468l2.625 -0.25q0.234375 1.3125 0.953125 1.9375q0.734375 0.609375 1.96875 0.609375q1.296875 0 1.953125 -0.546875q0.671875 -0.546875 0.671875 -1.28125q0 -0.484375 -0.28125 -0.8125q-0.28125 -0.328125 -0.96875 -0.578125q-0.484375 -0.15625 -2.171875 -0.578125q-2.15625 -0.546875 -3.03125 -1.328125q-1.234375 -1.09375 -1.234375 -2.6875q0 -1.015625 0.578125 -1.90625q0.578125 -0.890625 1.65625 -1.34375q1.09375 -0.46875 2.640625 -0.46875q2.515625 0 3.78125 1.109375q1.28125 1.09375 1.34375 2.9375l-2.703125 0.109375q-0.171875 -1.03125 -0.75 -1.46875q-0.5625 -0.453125 -1.703125 -0.453125q-1.171875 0 -1.84375 0.46875q-0.421875 0.3125 -0.421875 0.84375q0 0.46875 0.40625 0.796875q0.5 0.4375 2.46875 0.90625q1.96875 0.453125 2.90625 0.953125q0.953125 0.5 1.484375 1.359375q0.53125 0.859375 0.53125 2.125q0 1.15625 -0.640625 2.15625q-0.640625 1.0 -1.8125 1.484375q-1.15625 0.484375 -2.890625 0.484375q-2.53125 0 -3.890625 -1.171875q-1.359375 -1.171875 -1.625 -3.40625zm17.552948 -5.328125l0 2.03125l-1.75 0l0 3.90625q0 1.1875 0.046875 1.390625q0.046875 0.1875 0.21875 0.3125q0.1875 0.125 0.4375 0.125q0.359375 0 1.03125 -0.25l0.21875 2.0q-0.890625 0.375 -2.015625 0.375q-0.703125 0 -1.265625 -0.234375q-0.546875 -0.234375 -0.8125 -0.59375q-0.25 -0.375 -0.34375 -1.0q-0.09375 -0.453125 -0.09375 -1.8125l0 -4.21875l-1.171875 0l0 -2.03125l1.171875 0l0 -1.921875l2.578125 -1.5l0 3.421875l1.75 0zm4.228302 9.671875l-2.5625 0l0 -9.671875l2.375 0l0 1.375q0.609375 -0.984375 1.09375 -1.28125q0.484375 -0.3125 1.109375 -0.3125q0.875 0 1.6875 0.484375l-0.796875 2.234375q-0.640625 -0.421875 -1.203125 -0.421875q-0.53125 0 -0.90625 0.296875q-0.375 0.296875 -0.59375 1.078125q-0.203125 0.765625 -0.203125 3.234375l0 2.984375zm10.400909 -3.078125l2.546875 0.421875q-0.484375 1.40625 -1.546875 2.140625q-1.0625 0.734375 -2.65625 0.734375q-2.515625 0 -3.734375 -1.65625q-0.953125 -1.3125 -0.953125 -3.328125q0 -2.40625 1.25 -3.765625q1.265625 -1.359375 3.1875 -1.359375q2.15625 0 3.40625 1.421875q1.25 1.421875 1.1875 4.375l-6.40625 0q0.03125 1.140625 0.609375 1.78125q0.59375 0.625 1.484375 0.625q0.59375 0 1.0 -0.328125q0.421875 -0.328125 0.625 -1.0625zm0.15625 -2.59375q-0.03125 -1.109375 -0.578125 -1.6875q-0.546875 -0.578125 -1.328125 -0.578125q-0.84375 0 -1.390625 0.609375q-0.546875 0.609375 -0.53125 1.65625l3.828125 0zm6.5319824 -1.046875l-2.328125 -0.421875q0.40625 -1.40625 1.359375 -2.078125q0.953125 -0.671875 2.84375 -0.671875q1.703125 0 2.546875 0.40625q0.84375 0.40625 1.171875 1.03125q0.34375 0.625 0.34375 2.28125l-0.015625 3.0q0 1.265625 0.109375 1.875q0.125 0.609375 0.46875 1.296875l-2.53125 0q-0.109375 -0.25 -0.25 -0.75q-0.0625 -0.234375 -0.09375 -0.3125q-0.65625 0.640625 -1.40625 0.96875q-0.734375 0.3125 -1.59375 0.3125q-1.484375 0 -2.34375 -0.8125q-0.859375 -0.8125 -0.859375 -2.046875q0 -0.828125 0.390625 -1.46875q0.390625 -0.640625 1.09375 -0.96875q0.703125 -0.34375 2.03125 -0.609375q1.796875 -0.328125 2.484375 -0.625l0 -0.25q0 -0.75 -0.359375 -1.0625q-0.359375 -0.3125 -1.375 -0.3125q-0.6875 0 -1.078125 0.28125q-0.375 0.265625 -0.609375 0.9375zm3.421875 2.078125q-0.484375 0.15625 -1.5625 0.390625q-1.0625 0.21875 -1.390625 0.4375q-0.5 0.359375 -0.5 0.90625q0 0.53125 0.40625 0.9375q0.40625 0.390625 1.015625 0.390625q0.703125 0 1.328125 -0.46875q0.46875 -0.34375 0.609375 -0.84375q0.09375 -0.328125 0.09375 -1.25l0 -0.5zm4.8444214 -5.03125l2.359375 0l0 1.3125q1.265625 -1.53125 3.015625 -1.53125q0.9375 0 1.609375 0.390625q0.6875 0.375 1.125 1.140625q0.640625 -0.765625 1.375 -1.140625q0.75 -0.390625 1.578125 -0.390625q1.0625 0 1.796875 0.4375q0.75 0.421875 1.109375 1.265625q0.265625 0.625 0.265625 2.0l0 6.1875l-2.5625 0l0 -5.53125q0 -1.4375 -0.265625 -1.859375q-0.34375 -0.546875 -1.09375 -0.546875q-0.53125 0 -1.015625 0.328125q-0.46875 0.328125 -0.671875 0.96875q-0.203125 0.625 -0.203125 2.0l0 4.640625l-2.5625 0l0 -5.296875q0 -1.421875 -0.140625 -1.828125q-0.140625 -0.40625 -0.421875 -0.609375q-0.28125 -0.203125 -0.78125 -0.203125q-0.59375 0 -1.0625 0.328125q-0.46875 0.3125 -0.6875 0.921875q-0.203125 0.59375 -0.203125 1.984375l0 4.703125l-2.5625 0l0 -9.671875zm22.068604 9.671875l0 -13.25l2.6875 0l0 11.0l6.703125 0l0 2.25l-9.390625 0zm16.895996 -3.078125l2.546875 0.421875q-0.484375 1.40625 -1.546875 2.140625q-1.0625 0.734375 -2.65625 0.734375q-2.515625 0 -3.734375 -1.65625q-0.953125 -1.3125 -0.953125 -3.328125q0 -2.40625 1.25 -3.765625q1.265625 -1.359375 3.1875 -1.359375q2.15625 0 3.40625 1.421875q1.25 1.421875 1.1875 4.375l-6.40625 0q0.03125 1.140625 0.609375 1.78125q0.59375 0.625 1.484375 0.625q0.59375 0 1.0 -0.328125q0.421875 -0.328125 0.625 -1.0625zm0.15625 -2.59375q-0.03125 -1.109375 -0.578125 -1.6875q-0.546875 -0.578125 -1.328125 -0.578125q-0.84375 0 -1.390625 0.609375q-0.546875 0.609375 -0.53125 1.65625l3.828125 0zm6.5319214 -1.046875l-2.328125 -0.421875q0.40625 -1.40625 1.359375 -2.078125q0.953125 -0.671875 2.84375 -0.671875q1.703125 0 2.546875 0.40625q0.84375 0.40625 1.171875 1.03125q0.34375 0.625 0.34375 2.28125l-0.015625 3.0q0 1.265625 0.109375 1.875q0.125 0.609375 0.46875 1.296875l-2.53125 0q-0.109375 -0.25 -0.25 -0.75q-0.0625 -0.234375 -0.09375 -0.3125q-0.65625 0.640625 -1.40625 0.96875q-0.734375 0.3125 -1.59375 0.3125q-1.484375 0 -2.34375 -0.8125q-0.859375 -0.8125 -0.859375 -2.046875q0 -0.828125 0.390625 -1.46875q0.390625 -0.640625 1.09375 -0.96875q0.703125 -0.34375 2.03125 -0.609375q1.796875 -0.328125 2.484375 -0.625l0 -0.25q0 -0.75 -0.359375 -1.0625q-0.359375 -0.3125 -1.375 -0.3125q-0.6875 0 -1.078125 0.28125q-0.375 0.265625 -0.609375 0.9375zm3.421875 2.078125q-0.484375 0.15625 -1.5625 0.390625q-1.0625 0.21875 -1.390625 0.4375q-0.5 0.359375 -0.5 0.90625q0 0.53125 0.40625 0.9375q0.40625 0.390625 1.015625 0.390625q0.703125 0 1.328125 -0.46875q0.46875 -0.34375 0.609375 -0.84375q0.09375 -0.328125 0.09375 -1.25l0 -0.5zm13.922607 4.640625l-2.390625 0l0 -1.421875q-0.59375 0.828125 -1.40625 1.234375q-0.796875 0.40625 -1.609375 0.40625q-1.671875 0 -2.859375 -1.34375q-1.1875 -1.34375 -1.1875 -3.75q0 -2.453125 1.15625 -3.734375q1.15625 -1.28125 2.921875 -1.28125q1.625 0 2.8125 1.34375l0 -4.8125l2.5625 0l0 13.359375zm-6.84375 -5.046875q0 1.546875 0.4375 2.234375q0.609375 1.015625 1.71875 1.015625q0.890625 0 1.5 -0.75q0.625 -0.765625 0.625 -2.25q0 -1.671875 -0.609375 -2.40625q-0.59375 -0.734375 -1.53125 -0.734375q-0.90625 0 -1.53125 0.734375q-0.609375 0.71875 -0.609375 2.15625zm14.958496 1.96875l2.546875 0.421875q-0.484375 1.40625 -1.546875 2.140625q-1.0625 0.734375 -2.65625 0.734375q-2.515625 0 -3.734375 -1.65625q-0.953125 -1.3125 -0.953125 -3.328125q0 -2.40625 1.25 -3.765625q1.265625 -1.359375 3.1875 -1.359375q2.15625 0 3.40625 1.421875q1.25 1.421875 1.1875 4.375l-6.40625 0q0.03125 1.140625 0.609375 1.78125q0.59375 0.625 1.484375 0.625q0.59375 0 1.0 -0.328125q0.421875 -0.328125 0.625 -1.0625zm0.15625 -2.59375q-0.03125 -1.109375 -0.578125 -1.6875q-0.546875 -0.578125 -1.328125 -0.578125q-0.84375 0 -1.390625 0.609375q-0.546875 0.609375 -0.53125 1.65625l3.828125 0zm7.0788574 5.671875l-2.5625 0l0 -9.671875l2.375 0l0 1.375q0.609375 -0.984375 1.09375 -1.28125q0.484375 -0.3125 1.109375 -0.3125q0.875 0 1.6875 0.484375l-0.796875 2.234375q-0.640625 -0.421875 -1.203125 -0.421875q-0.53125 0 -0.90625 0.296875q-0.375 0.296875 -0.59375 1.078125q-0.203125 0.765625 -0.203125 3.234375l0 2.984375z" fill-rule="nonzero"/><path fill="#0091da" d="m808.79266 23.414698l262.17316 0l0 151.49606l-262.17316 0z" fill-rule="evenodd"/><path fill="#ffffff" d="m922.35974 162.27077l-2.203125 0l0 -4.234375q0 -1.34375 -0.140625 -1.734375q-0.140625 -0.40625 -0.453125 -0.625q-0.3125 -0.21875 -0.765625 -0.21875q-0.5625 0 -1.015625 0.3125q-0.453125 0.3125 -0.625 0.828125q-0.171875 0.515625 -0.171875 1.90625l0 3.765625l-2.1875 0l0 -8.296875l2.03125 0l0 1.21875q1.09375 -1.40625 2.734375 -1.40625q0.734375 0 1.328125 0.265625q0.609375 0.25 0.90625 0.65625q0.3125 0.40625 0.4375 0.921875q0.125 0.515625 0.125 1.484375l0 5.15625zm1.7109375 -4.265625q0 -1.09375 0.53125 -2.109375q0.546875 -1.03125 1.53125 -1.5625q1.0 -0.546875 2.21875 -0.546875q1.875 0 3.078125 1.21875q1.203125 1.21875 1.203125 3.09375q0 1.875 -1.21875 3.125q-1.203125 1.234375 -3.046875 1.234375q-1.140625 0 -2.1875 -0.515625q-1.03125 -0.515625 -1.578125 -1.515625q-0.53125 -1.0 -0.53125 -2.421875zm2.25 0.109375q0 1.234375 0.578125 1.890625q0.59375 0.65625 1.453125 0.65625q0.859375 0 1.4375 -0.65625q0.59375 -0.65625 0.59375 -1.90625q0 -1.21875 -0.59375 -1.875q-0.578125 -0.65625 -1.4375 -0.65625q-0.859375 0 -1.453125 0.65625q-0.578125 0.65625 -0.578125 1.890625zm15.6484375 4.15625l-2.046875 0l0 -1.21875q-0.5 0.703125 -1.203125 1.0625q-0.6875 0.34375 -1.390625 0.34375q-1.421875 0 -2.453125 -1.15625q-1.015625 -1.15625 -1.015625 -3.21875q0 -2.109375 0.984375 -3.203125q1.0 -1.09375 2.515625 -1.09375q1.390625 0 2.40625 1.15625l0 -4.125l2.203125 0l0 11.453125zm-5.859375 -4.328125q0 1.328125 0.359375 1.921875q0.53125 0.859375 1.484375 0.859375q0.765625 0 1.296875 -0.640625q0.53125 -0.65625 0.53125 -1.9375q0 -1.421875 -0.515625 -2.046875q-0.515625 -0.640625 -1.328125 -0.640625q-0.78125 0 -1.3125 0.625q-0.515625 0.625 -0.515625 1.859375zm12.8203125 1.6875l2.1875 0.359375q-0.421875 1.203125 -1.328125 1.84375q-0.90625 0.625 -2.28125 0.625q-2.15625 0 -3.203125 -1.421875q-0.8125 -1.125 -0.8125 -2.859375q0 -2.0625 1.078125 -3.21875q1.078125 -1.171875 2.71875 -1.171875q1.859375 0 2.921875 1.21875q1.078125 1.21875 1.03125 3.75l-5.5 0q0.015625 0.96875 0.515625 1.515625q0.515625 0.546875 1.28125 0.546875q0.515625 0 0.859375 -0.28125q0.359375 -0.28125 0.53125 -0.90625zm0.125 -2.21875q-0.015625 -0.953125 -0.484375 -1.453125q-0.46875 -0.5 -1.140625 -0.5q-0.71875 0 -1.1875 0.53125q-0.46875 0.515625 -0.46875 1.421875l3.28125 0zm3.7265625 1.796875l0 -2.1875l4.3125 0l0 2.1875l-4.3125 0zm5.03125 0.015625l2.125 -0.25q0.09375 0.8125 0.53125 1.25q0.453125 0.421875 1.09375 0.421875q0.671875 0 1.140625 -0.515625q0.46875 -0.515625 0.46875 -1.390625q0 -0.828125 -0.453125 -1.3125q-0.4375 -0.484375 -1.078125 -0.484375q-0.421875 0 -1.015625 0.15625l0.25 -1.78125q0.890625 0.015625 1.359375 -0.390625q0.46875 -0.40625 0.46875 -1.09375q0 -0.578125 -0.34375 -0.921875q-0.34375 -0.34375 -0.921875 -0.34375q-0.5625 0 -0.96875 0.390625q-0.390625 0.390625 -0.46875 1.140625l-2.03125 -0.34375q0.21875 -1.03125 0.640625 -1.65625q0.421875 -0.625 1.1875 -0.96875q0.765625 -0.359375 1.703125 -0.359375q1.625 0 2.59375 1.03125q0.8125 0.84375 0.8125 1.90625q0 1.5 -1.65625 2.40625q0.984375 0.203125 1.578125 0.9375q0.59375 0.734375 0.59375 1.78125q0 1.5 -1.109375 2.578125q-1.09375 1.0625 -2.734375 1.0625q-1.5625 0 -2.59375 -0.890625q-1.015625 -0.90625 -1.171875 -2.359375z" fill-rule="nonzero"/><path fill="#1a428a" d="m835.30444 104.40945l0 0c2.7353516 0 4.952759 -8.869698 4.952759 -19.81102c0 -10.94133 -2.2174072 -19.811028 -4.952759 -19.811028l209.14966 0c2.7353516 0 4.952759 8.869698 4.952759 19.811028c0 10.941322 -2.2174072 19.81102 -4.952759 19.81102z" fill-rule="evenodd"/><path fill="#758db8" d="m835.30444 104.40945l0 0c-2.7352905 0 -4.952759 -8.869698 -4.952759 -19.81102c0 -10.94133 2.2174683 -19.811028 4.952759 -19.811028l0 0c2.7353516 0 4.952759 8.869698 4.952759 19.811028c0 10.941322 -2.2174072 19.81102 -4.952759 19.81102z" fill-rule="evenodd"/><path fill="#000000" fill-opacity="0.0" d="m835.30444 64.7874l0 0c2.7353516 0 4.952759 8.869698 4.952759 19.811028c0 10.941322 -2.2174072 19.81102 -4.952759 19.81102l0 0c-2.7352905 0 -4.952759 -8.869698 -4.952759 -19.81102c0 -10.94133 2.2174683 -19.811028 4.952759 -19.811028l209.14966 0c2.7353516 0 4.952759 8.869698 4.952759 19.811028c0 10.941322 -2.2174072 19.81102 -4.952759 19.81102l-209.14966 0" fill-rule="evenodd"/><path fill="#000000" fill-opacity="0.0" d="m816.95013 63.59055l245.85822 0l0 42.01575l-245.85822 0z" fill-rule="evenodd"/><path fill="#ffffff" d="m873.14996 86.97468l2.625 -0.25q0.234375 1.3125 0.953125 1.9375q0.734375 0.609375 1.96875 0.609375q1.296875 0 1.953125 -0.546875q0.671875 -0.546875 0.671875 -1.28125q0 -0.484375 -0.28125 -0.8125q-0.28125 -0.328125 -0.96875 -0.578125q-0.484375 -0.15625 -2.171875 -0.578125q-2.15625 -0.546875 -3.03125 -1.328125q-1.234375 -1.09375 -1.234375 -2.6875q0 -1.015625 0.578125 -1.90625q0.578125 -0.890625 1.65625 -1.34375q1.09375 -0.46875 2.640625 -0.46875q2.515625 0 3.78125 1.109375q1.28125 1.09375 1.34375 2.9375l-2.703125 0.109375q-0.171875 -1.03125 -0.75 -1.46875q-0.5625 -0.453125 -1.703125 -0.453125q-1.171875 0 -1.84375 0.46875q-0.421875 0.3125 -0.421875 0.84375q0 0.46875 0.40625 0.796875q0.5 0.4375 2.46875 0.90625q1.96875 0.453125 2.90625 0.953125q0.953125 0.5 1.484375 1.359375q0.53125 0.859375 0.53125 2.125q0 1.15625 -0.640625 2.15625q-0.640625 1.0 -1.8125 1.484375q-1.15625 0.484375 -2.890625 0.484375q-2.53125 0 -3.890625 -1.171875q-1.359375 -1.171875 -1.625 -3.40625zm17.552979 -5.328125l0 2.03125l-1.75 0l0 3.90625q0 1.1875 0.046875 1.390625q0.046875 0.1875 0.21875 0.3125q0.1875 0.125 0.4375 0.125q0.359375 0 1.03125 -0.25l0.21875 2.0q-0.890625 0.375 -2.015625 0.375q-0.703125 0 -1.265625 -0.234375q-0.546875 -0.234375 -0.8125 -0.59375q-0.25 -0.375 -0.34375 -1.0q-0.09375 -0.453125 -0.09375 -1.8125l0 -4.21875l-1.171875 0l0 -2.03125l1.171875 0l0 -1.921875l2.578125 -1.5l0 3.421875l1.75 0zm4.2282715 9.671875l-2.5625 0l0 -9.671875l2.375 0l0 1.375q0.609375 -0.984375 1.09375 -1.28125q0.484375 -0.3125 1.109375 -0.3125q0.875 0 1.6875 0.484375l-0.796875 2.234375q-0.640625 -0.421875 -1.203125 -0.421875q-0.53125 0 -0.90625 0.296875q-0.375 0.296875 -0.59375 1.078125q-0.203125 0.765625 -0.203125 3.234375l0 2.984375zm10.400879 -3.078125l2.546875 0.421875q-0.484375 1.40625 -1.546875 2.140625q-1.0625 0.734375 -2.65625 0.734375q-2.515625 0 -3.734375 -1.65625q-0.953125 -1.3125 -0.953125 -3.328125q0 -2.40625 1.25 -3.765625q1.265625 -1.359375 3.1875 -1.359375q2.15625 0 3.40625 1.421875q1.25 1.421875 1.1875 4.375l-6.40625 0q0.03125 1.140625 0.609375 1.78125q0.59375 0.625 1.484375 0.625q0.59375 0 1.0 -0.328125q0.421875 -0.328125 0.625 -1.0625zm0.15625 -2.59375q-0.03125 -1.109375 -0.578125 -1.6875q-0.546875 -0.578125 -1.328125 -0.578125q-0.84375 0 -1.390625 0.609375q-0.546875 0.609375 -0.53125 1.65625l3.828125 0zm6.5319824 -1.046875l-2.328125 -0.421875q0.40625 -1.40625 1.359375 -2.078125q0.953125 -0.671875 2.84375 -0.671875q1.703125 0 2.546875 0.40625q0.84375 0.40625 1.171875 1.03125q0.34375 0.625 0.34375 2.28125l-0.015625 3.0q0 1.265625 0.109375 1.875q0.125 0.609375 0.46875 1.296875l-2.53125 0q-0.109375 -0.25 -0.25 -0.75q-0.0625 -0.234375 -0.09375 -0.3125q-0.65625 0.640625 -1.40625 0.96875q-0.734375 0.3125 -1.59375 0.3125q-1.484375 0 -2.34375 -0.8125q-0.859375 -0.8125 -0.859375 -2.046875q0 -0.828125 0.390625 -1.46875q0.390625 -0.640625 1.09375 -0.96875q0.703125 -0.34375 2.03125 -0.609375q1.796875 -0.328125 2.484375 -0.625l0 -0.25q0 -0.75 -0.359375 -1.0625q-0.359375 -0.3125 -1.375 -0.3125q-0.6875 0 -1.078125 0.28125q-0.375 0.265625 -0.609375 0.9375zm3.421875 2.078125q-0.484375 0.15625 -1.5625 0.390625q-1.0625 0.21875 -1.390625 0.4375q-0.5 0.359375 -0.5 0.90625q0 0.53125 0.40625 0.9375q0.40625 0.390625 1.015625 0.390625q0.703125 0 1.328125 -0.46875q0.46875 -0.34375 0.609375 -0.84375q0.09375 -0.328125 0.09375 -1.25l0 -0.5zm4.8444824 -5.03125l2.359375 0l0 1.3125q1.265625 -1.53125 3.015625 -1.53125q0.9375 0 1.609375 0.390625q0.6875 0.375 1.125 1.140625q0.640625 -0.765625 1.375 -1.140625q0.75 -0.390625 1.578125 -0.390625q1.0625 0 1.796875 0.4375q0.75 0.421875 1.109375 1.265625q0.265625 0.625 0.265625 2.0l0 6.1875l-2.5625 0l0 -5.53125q0 -1.4375 -0.265625 -1.859375q-0.34375 -0.546875 -1.09375 -0.546875q-0.53125 0 -1.015625 0.328125q-0.46875 0.328125 -0.671875 0.96875q-0.203125 0.625 -0.203125 2.0l0 4.640625l-2.5625 0l0 -5.296875q0 -1.421875 -0.140625 -1.828125q-0.140625 -0.40625 -0.421875 -0.609375q-0.28125 -0.203125 -0.78125 -0.203125q-0.59375 0 -1.0625 0.328125q-0.46875 0.3125 -0.6875 0.921875q-0.203125 0.59375 -0.203125 1.984375l0 4.703125l-2.5625 0l0 -9.671875zm21.990417 9.671875l0 -13.359375l5.6875 0q2.140625 0 3.109375 0.359375q0.96875 0.359375 1.546875 1.28125q0.578125 0.921875 0.578125 2.109375q0 1.5 -0.890625 2.484375q-0.875 0.96875 -2.625 1.234375q0.875 0.5 1.4375 1.125q0.578125 0.609375 1.53125 2.15625l1.640625 2.609375l-3.234375 0l-1.9375 -2.90625q-1.046875 -1.5625 -1.4375 -1.96875q-0.375 -0.40625 -0.8125 -0.546875q-0.421875 -0.15625 -1.34375 -0.15625l-0.546875 0l0 5.578125l-2.703125 0zm2.703125 -7.703125l2.0 0q1.9375 0 2.421875 -0.15625q0.484375 -0.171875 0.75 -0.578125q0.28125 -0.40625 0.28125 -1.0q0 -0.671875 -0.359375 -1.078125q-0.359375 -0.421875 -1.015625 -0.53125q-0.328125 -0.046875 -1.96875 -0.046875l-2.109375 0l0 3.390625zm16.347961 4.625l2.546875 0.421875q-0.484375 1.40625 -1.546875 2.140625q-1.0625 0.734375 -2.65625 0.734375q-2.515625 0 -3.734375 -1.65625q-0.953125 -1.3125 -0.953125 -3.328125q0 -2.40625 1.25 -3.765625q1.265625 -1.359375 3.1875 -1.359375q2.15625 0 3.40625 1.421875q1.25 1.421875 1.1875 4.375l-6.40625 0q0.03125 1.140625 0.609375 1.78125q0.59375 0.625 1.484375 0.625q0.59375 0 1.0 -0.328125q0.421875 -0.328125 0.625 -1.0625zm0.15625 -2.59375q-0.03125 -1.109375 -0.578125 -1.6875q-0.546875 -0.578125 -1.328125 -0.578125q-0.84375 0 -1.390625 0.609375q-0.546875 0.609375 -0.53125 1.65625l3.828125 0zm4.5476074 -4.0l2.390625 0l0 1.421875q0.46875 -0.734375 1.25 -1.1875q0.796875 -0.453125 1.765625 -0.453125q1.6875 0 2.859375 1.328125q1.171875 1.3125 1.171875 3.671875q0 2.421875 -1.1875 3.765625q-1.1875 1.34375 -2.859375 1.34375q-0.8125 0 -1.46875 -0.3125q-0.640625 -0.328125 -1.359375 -1.09375l0 4.875l-2.5625 0l0 -13.359375zm2.53125 4.671875q0 1.625 0.640625 2.40625q0.65625 0.78125 1.578125 0.78125q0.90625 0 1.484375 -0.71875q0.59375 -0.71875 0.59375 -2.34375q0 -1.515625 -0.609375 -2.25q-0.609375 -0.75 -1.515625 -0.75q-0.9375 0 -1.5625 0.734375q-0.609375 0.71875 -0.609375 2.140625zm8.94281 5.0l0 -13.359375l2.5625 0l0 13.359375l-2.5625 0zm5.1833496 -10.984375l0 -2.375l2.5625 0l0 2.375l-2.5625 0zm0 10.984375l0 -9.671875l2.5625 0l0 9.671875l-2.5625 0zm13.620789 -6.8125l-2.53125 0.453125q-0.125 -0.75 -0.578125 -1.125q-0.453125 -0.390625 -1.171875 -0.390625q-0.953125 0 -1.53125 0.65625q-0.5625 0.65625 -0.5625 2.203125q0 1.734375 0.578125 2.4375q0.578125 0.703125 1.546875 0.703125q0.734375 0 1.203125 -0.40625q0.46875 -0.421875 0.65625 -1.421875l2.515625 0.421875q-0.390625 1.734375 -1.515625 2.625q-1.109375 0.875 -2.96875 0.875q-2.125 0 -3.390625 -1.328125q-1.25 -1.34375 -1.25 -3.71875q0 -2.390625 1.265625 -3.71875q1.265625 -1.34375 3.421875 -1.34375q1.765625 0 2.796875 0.765625q1.046875 0.75 1.515625 2.3125zm3.8444824 0.09375l-2.328125 -0.421875q0.40625 -1.40625 1.359375 -2.078125q0.953125 -0.671875 2.84375 -0.671875q1.703125 0 2.546875 0.40625q0.84375 0.40625 1.171875 1.03125q0.34375 0.625 0.34375 2.28125l-0.015625 3.0q0 1.265625 0.109375 1.875q0.125 0.609375 0.46875 1.296875l-2.53125 0q-0.109375 -0.25 -0.25 -0.75q-0.0625 -0.234375 -0.09375 -0.3125q-0.65625 0.640625 -1.40625 0.96875q-0.734375 0.3125 -1.59375 0.3125q-1.484375 0 -2.34375 -0.8125q-0.859375 -0.8125 -0.859375 -2.046875q0 -0.828125 0.390625 -1.46875q0.390625 -0.640625 1.09375 -0.96875q0.703125 -0.34375 2.03125 -0.609375q1.796875 -0.328125 2.484375 -0.625l0 -0.25q0 -0.75 -0.359375 -1.0625q-0.359375 -0.3125 -1.375 -0.3125q-0.6875 0 -1.078125 0.28125q-0.375 0.265625 -0.609375 0.9375zm3.421875 2.078125q-0.484375 0.15625 -1.5625 0.390625q-1.0625 0.21875 -1.390625 0.4375q-0.5 0.359375 -0.5 0.90625q0 0.53125 0.40625 0.9375q0.40625 0.390625 1.015625 0.390625q0.703125 0 1.328125 -0.46875q0.46875 -0.34375 0.609375 -0.84375q0.09375 -0.328125 0.09375 -1.25l0 -0.5z" fill-rule="nonzero"/><path fill="#000000" fill-opacity="0.0" d="m290.86615 99.16273l127.87399 0" fill-rule="evenodd"/><path stroke="#0091da" stroke-width="3.0" stroke-linejoin="round" stroke-linecap="butt" d="m308.86615 99.16273l91.87399 0" fill-rule="evenodd"/><path fill="#0091da" stroke="#0091da" stroke-width="3.0" stroke-linecap="butt" d="m308.86615 94.207535l-13.614288 4.9551926l13.614288 4.9552z" fill-rule="evenodd"/><path fill="#0091da" stroke="#0091da" stroke-width="3.0" stroke-linecap="butt" d="m400.74017 104.11793l13.614288 -4.9552l-13.614288 -4.9551926z" fill-rule="evenodd"/><path fill="#000000" fill-opacity="0.0" d="m676.9816 99.16273l131.81104 0" fill-rule="evenodd"/><path stroke="#0091da" stroke-width="3.0" stroke-linejoin="round" stroke-linecap="butt" d="m694.9816 99.16273l95.811035 0" fill-rule="evenodd"/><path fill="#0091da" stroke="#0091da" stroke-width="3.0" stroke-linecap="butt" d="m694.9816 94.207535l-13.614319 4.9551926l13.614319 4.9552z" fill-rule="evenodd"/><path fill="#0091da" stroke="#0091da" stroke-width="3.0" stroke-linecap="butt" d="m790.79266 104.11793l13.614258 -4.9552l-13.614258 -4.9551926z" fill-rule="evenodd"/><path fill="#0091da" d="m516.6011 363.63516l0 0c0 -18.351501 14.876831 -33.228333 33.228333 -33.228333l0 0c8.812683 0 17.264465 3.500824 23.495972 9.732361c6.2315063 6.2315063 9.732361 14.683289 9.732361 23.495972l0 0c0 18.351532 -14.876831 33.228363 -33.228333 33.228363l0 0c-18.351501 0 -33.228333 -14.876831 -33.228333 -33.228363z" fill-rule="evenodd"/><path fill="#ffffff" d="m559.34485 373.23517l-4.1875 0l-1.65625 -4.328125l-7.640625 0l-1.5625 4.328125l-4.09375 0l7.4375 -19.078125l4.0625 0l7.640625 19.078125zm-7.09375 -7.546875l-2.625 -7.078125l-2.578125 7.078125l5.203125 0z" fill-rule="nonzero"/><path fill="#000000" fill-opacity="0.0" d="m586.5748 360.0l322.8346 0l0 64.62991l-322.8346 0z" fill-rule="evenodd"/><path fill="#000000" d="m602.1061 375.10748l0 9.9375l2.234375 0q0.6875 0 0.96875 0.265625q0.28125 0.265625 0.28125 0.6875q0 0.40625 -0.28125 0.671875q-0.28125 0.25 -0.96875 0.25l-6.34375 0q-0.671875 0 -0.96875 -0.25q-0.28125 -0.265625 -0.28125 -0.6875q0 -0.40625 0.28125 -0.671875q0.296875 -0.265625 0.96875 -0.265625l2.25 0l0 -8.078125l-1.515625 0q-0.65625 0 -0.953125 -0.25q-0.296875 -0.265625 -0.296875 -0.6875q0 -0.40625 0.28125 -0.65625q0.296875 -0.265625 0.96875 -0.265625l3.375 0zm14.945557 8.625l-7.65625 0q0.296875 0.734375 1.03125 1.1875q0.75 0.4375 2.015625 0.4375q1.03125 0 2.75 -0.453125q0.71875 -0.1875 0.984375 -0.1875q0.375 0 0.625 0.265625q0.265625 0.265625 0.265625 0.671875q0 0.359375 -0.28125 0.625q-0.359375 0.328125 -1.78125 0.640625q-1.40625 0.296875 -2.703125 0.296875q-2.25 0 -3.59375 -1.265625q-1.34375 -1.265625 -1.34375 -3.109375q0 -1.96875 1.453125 -3.203125q1.453125 -1.234375 3.359375 -1.234375q1.140625 0 2.078125 0.40625q0.953125 0.390625 1.421875 0.859375q0.65625 0.671875 1.09375 1.671875q0.28125 0.6875 0.28125 1.59375l0 0.796875zm-2.0625 -1.875q-0.4375 -0.796875 -1.125 -1.1875q-0.6875 -0.40625 -1.640625 -0.40625q-0.953125 0 -1.65625 0.40625q-0.6875 0.390625 -1.125 1.1875l5.546875 0zm10.258057 5.0625l0 -0.4375q-0.703125 0.375 -1.5625 0.5625q-0.84375 0.1875 -1.53125 0.1875q-1.5 0 -2.4375 -0.796875q-0.9375 -0.796875 -0.9375 -1.765625q0 -1.171875 1.1875 -2.171875q1.203125 -1.015625 3.3125 -1.015625q0.859375 0 1.96875 0.1875l0 -0.453125q0 -0.421875 -0.359375 -0.6875q-0.359375 -0.265625 -1.375 -0.265625q-0.828125 0 -2.15625 0.328125q-0.484375 0.125 -0.765625 0.125q-0.359375 0 -0.625 -0.265625q-0.265625 -0.265625 -0.265625 -0.6875q0 -0.234375 0.09375 -0.40625q0.09375 -0.1875 0.25 -0.28125q0.171875 -0.109375 0.6875 -0.25q0.703125 -0.203125 1.421875 -0.3125q0.71875 -0.109375 1.296875 -0.109375q1.734375 0 2.6875 0.75q0.96875 0.75 0.96875 2.046875l0 3.84375l0.328125 0q0.671875 0 0.953125 0.265625q0.296875 0.265625 0.296875 0.6875q0 0.40625 -0.296875 0.671875q-0.28125 0.25 -0.953125 0.25l-2.1875 0zm0 -3.34375q-1.125 -0.21875 -2.078125 -0.21875q-1.125 0 -1.953125 0.5625q-0.515625 0.34375 -0.515625 0.71875q0 0.265625 0.25 0.421875q0.453125 0.296875 1.25 0.296875q0.671875 0 1.515625 -0.265625q0.859375 -0.265625 1.53125 -0.71875l0 -0.796875zm13.804932 -8.46875l0 9.9375l0.3125 0q0.671875 0 0.953125 0.265625q0.296875 0.265625 0.296875 0.6875q0 0.40625 -0.296875 0.671875q-0.28125 0.25 -0.953125 0.25l-2.1875 0l0 -0.453125q-0.640625 0.375 -1.34375 0.5625q-0.6875 0.1875 -1.4375 0.1875q-2.09375 0 -3.390625 -1.203125q-1.28125 -1.21875 -1.28125 -3.03125q0 -1.90625 1.34375 -3.234375q1.359375 -1.34375 3.296875 -1.34375q0.734375 0 1.421875 0.21875q0.703125 0.21875 1.390625 0.671875l0 -2.328125l-0.3125 0q-0.6875 0 -0.96875 -0.25q-0.28125 -0.265625 -0.28125 -0.671875q0 -0.421875 0.28125 -0.671875q0.28125 -0.265625 0.96875 -0.265625l2.1875 0zm-1.875 7.921875q0 -1.15625 -0.8125 -1.953125q-0.8125 -0.8125 -1.984375 -0.8125q-1.171875 0 -1.984375 0.8125q-0.796875 0.796875 -0.796875 1.921875q0 1.03125 0.71875 1.703125q0.734375 0.65625 2.0625 0.65625q1.328125 0 2.0625 -0.65625q0.734375 -0.671875 0.734375 -1.671875zm13.461243 0.703125l-7.65625 0q0.296875 0.734375 1.03125 1.1875q0.75 0.4375 2.015625 0.4375q1.03125 0 2.75 -0.453125q0.71875 -0.1875 0.984375 -0.1875q0.375 0 0.625 0.265625q0.265625 0.265625 0.265625 0.671875q0 0.359375 -0.28125 0.625q-0.359375 0.328125 -1.78125 0.640625q-1.40625 0.296875 -2.703125 0.296875q-2.25 0 -3.59375 -1.265625q-1.34375 -1.265625 -1.34375 -3.109375q0 -1.96875 1.453125 -3.203125q1.453125 -1.234375 3.359375 -1.234375q1.140625 0 2.078125 0.40625q0.953125 0.390625 1.421875 0.859375q0.65625 0.671875 1.09375 1.671875q0.28125 0.6875 0.28125 1.59375l0 0.796875zm-2.0625 -1.875q-0.4375 -0.796875 -1.125 -1.1875q-0.6875 -0.40625 -1.640625 -0.40625q-0.953125 0 -1.65625 0.40625q-0.6875 0.390625 -1.125 1.1875l5.546875 0zm8.179932 -3.203125l0 1.15625q1.1875 -0.84375 1.859375 -1.125q0.6875 -0.28125 1.265625 -0.28125q0.921875 0 1.78125 0.671875q0.578125 0.453125 0.578125 0.921875q0 0.40625 -0.28125 0.6875q-0.28125 0.28125 -0.671875 0.28125q-0.34375 0 -0.734375 -0.34375q-0.375 -0.359375 -0.671875 -0.359375q-0.390625 0 -1.171875 0.5q-0.78125 0.484375 -1.953125 1.46875l0 2.8125l2.671875 0q0.671875 0 0.953125 0.265625q0.296875 0.265625 0.296875 0.6875q0 0.40625 -0.296875 0.671875q-0.28125 0.25 -0.953125 0.25l-5.640625 0q-0.671875 0 -0.96875 -0.25q-0.28125 -0.265625 -0.28125 -0.6875q0 -0.40625 0.28125 -0.671875q0.296875 -0.265625 0.96875 -0.265625l1.109375 0l0 -4.53125l-0.671875 0q-0.671875 0 -0.96875 -0.25q-0.28125 -0.265625 -0.28125 -0.6875q0 -0.40625 0.28125 -0.65625q0.296875 -0.265625 0.96875 -0.265625l2.53125 0zm12.992432 1.25q0 0.515625 -0.375 0.875q-0.359375 0.359375 -1.015625 0.359375q-0.65625 0 -1.03125 -0.359375q-0.375 -0.359375 -0.375 -0.875q0 -0.53125 0.375 -0.890625q0.375 -0.359375 1.03125 -0.359375q0.65625 0 1.015625 0.359375q0.375 0.359375 0.375 0.890625zm0.015625 6.109375q0 0.53125 -0.375 0.890625q-0.359375 0.34375 -1.015625 0.34375q-0.65625 0 -1.03125 -0.34375q-0.375 -0.359375 -0.375 -0.890625q0 -0.53125 0.375 -0.890625q0.375 -0.359375 1.03125 -0.359375q0.65625 0 1.015625 0.359375q0.375 0.359375 0.375 0.890625zm19.078674 -7.359375l0 0.625q0.515625 -0.4375 1.125 -0.65625q0.625 -0.21875 1.34375 -0.21875q1.65625 0 2.625 1.03125q0.765625 0.8125 0.765625 2.140625l0 3.46875q0.578125 0 0.859375 0.265625q0.296875 0.265625 0.296875 0.6875q0 0.40625 -0.296875 0.671875q-0.28125 0.25 -0.953125 0.25l-1.6875 0q-0.671875 0 -0.96875 -0.25q-0.28125 -0.265625 -0.28125 -0.6875q0 -0.40625 0.28125 -0.671875q0.28125 -0.265625 0.875 -0.265625l0 -3.515625q0 -0.609375 -0.328125 -0.890625q-0.421875 -0.375 -1.28125 -0.375q-0.65625 0 -1.140625 0.25q-0.484375 0.25 -1.234375 1.0625l0 3.46875q0.71875 0 0.9375 0.140625q0.4375 0.28125 0.4375 0.8125q0 0.40625 -0.28125 0.671875q-0.28125 0.25 -0.96875 0.25l-2.109375 0q-0.6875 0 -0.96875 -0.25q-0.28125 -0.265625 -0.28125 -0.6875q0 -0.515625 0.4375 -0.796875q0.21875 -0.140625 0.9375 -0.140625l0 -4.53125q-0.59375 0 -0.875 -0.265625q-0.28125 -0.265625 -0.28125 -0.671875q0 -0.40625 0.28125 -0.65625q0.28125 -0.265625 0.96875 -0.265625l1.765625 0zm17.945557 4.28125q0 1.078125 -0.609375 2.09375q-0.59375 1.0 -1.78125 1.59375q-1.171875 0.59375 -2.453125 0.59375q-1.265625 0 -2.4375 -0.578125q-1.171875 -0.59375 -1.78125 -1.59375q-0.609375 -1.015625 -0.609375 -2.125q0 -1.125 0.609375 -2.203125q0.625 -1.078125 1.78125 -1.6875q1.171875 -0.625 2.4375 -0.625q1.28125 0 2.453125 0.640625q1.1875 0.625 1.78125 1.703125q0.609375 1.0625 0.609375 2.1875zm-1.875 0.015625q0 -0.90625 -0.640625 -1.65625q-0.890625 -1.03125 -2.328125 -1.03125q-1.265625 0 -2.109375 0.8125q-0.84375 0.8125 -0.84375 1.875q0 0.875 0.84375 1.640625q0.859375 0.765625 2.109375 0.765625q1.265625 0 2.109375 -0.765625q0.859375 -0.765625 0.859375 -1.640625zm12.508057 -7.84375l0 9.9375l0.3125 0q0.671875 0 0.953125 0.265625q0.296875 0.265625 0.296875 0.6875q0 0.40625 -0.296875 0.671875q-0.28125 0.25 -0.953125 0.25l-2.1875 0l0 -0.453125q-0.640625 0.375 -1.34375 0.5625q-0.6875 0.1875 -1.4375 0.1875q-2.09375 0 -3.390625 -1.203125q-1.28125 -1.21875 -1.28125 -3.03125q0 -1.90625 1.34375 -3.234375q1.359375 -1.34375 3.296875 -1.34375q0.734375 0 1.421875 0.21875q0.703125 0.21875 1.390625 0.671875l0 -2.328125l-0.3125 0q-0.6875 0 -0.96875 -0.25q-0.28125 -0.265625 -0.28125 -0.671875q0 -0.421875 0.28125 -0.671875q0.28125 -0.265625 0.96875 -0.265625l2.1875 0zm-1.875 7.921875q0 -1.15625 -0.8125 -1.953125q-0.8125 -0.8125 -1.984375 -0.8125q-1.171875 0 -1.984375 0.8125q-0.796875 0.796875 -0.796875 1.921875q0 1.03125 0.71875 1.703125q0.734375 0.65625 2.0625 0.65625q1.328125 0 2.0625 -0.65625q0.734375 -0.671875 0.734375 -1.671875zm13.461182 0.703125l-7.65625 0q0.296875 0.734375 1.03125 1.1875q0.75 0.4375 2.015625 0.4375q1.03125 0 2.75 -0.453125q0.71875 -0.1875 0.984375 -0.1875q0.375 0 0.625 0.265625q0.265625 0.265625 0.265625 0.671875q0 0.359375 -0.28125 0.625q-0.359375 0.328125 -1.78125 0.640625q-1.40625 0.296875 -2.703125 0.296875q-2.25 0 -3.59375 -1.265625q-1.34375 -1.265625 -1.34375 -3.109375q0 -1.96875 1.453125 -3.203125q1.453125 -1.234375 3.359375 -1.234375q1.140625 0 2.078125 0.40625q0.953125 0.390625 1.421875 0.859375q0.65625 0.671875 1.09375 1.671875q0.28125 0.6875 0.28125 1.59375l0 0.796875zm-2.0625 -1.875q-0.4375 -0.796875 -1.125 -1.1875q-0.6875 -0.40625 -1.640625 -0.40625q-0.953125 0 -1.65625 0.40625q-0.6875 0.390625 -1.125 1.1875l5.546875 0zm12.492493 0.609375l-7.796875 0l0 -1.703125l7.796875 0l0 1.703125zm5.5393066 2.578125l4.078125 0q0.34375 -0.265625 0.640625 -0.265625q0.4375 0 0.6875 0.28125q0.25 0.28125 0.25 0.96875l0 0.890625l-8.515625 0l0 -1.984375q5.046875 -4.15625 6.09375 -5.34375q0.53125 -0.609375 0.53125 -1.15625q0 -0.6875 -0.59375 -1.203125q-0.59375 -0.53125 -1.59375 -0.53125q-1.0 0 -1.671875 0.578125q-0.34375 0.3125 -0.546875 0.921875q-0.125 0.390625 -0.359375 0.5625q-0.21875 0.15625 -0.546875 0.15625q-0.375 0 -0.65625 -0.265625q-0.28125 -0.28125 -0.28125 -0.65625q0 -0.546875 0.5 -1.359375q0.515625 -0.828125 1.484375 -1.3125q0.96875 -0.5 2.109375 -0.5q1.765625 0 2.890625 1.078125q1.125 1.0625 1.125 2.59375q0 0.765625 -0.328125 1.4375q-0.3125 0.65625 -1.546875 1.8125q-0.953125 0.921875 -3.75 3.296875z" fill-rule="nonzero"/><path fill="#000000" d="m600.77795 401.05438l0 1.15625q1.1875 -0.84375 1.859375 -1.125q0.6875 -0.28125 1.265625 -0.28125q0.921875 0 1.78125 0.671875q0.578125 0.453125 0.578125 0.921875q0 0.40625 -0.28125 0.6875q-0.28125 0.28125 -0.671875 0.28125q-0.34375 0 -0.734375 -0.34375q-0.375 -0.359375 -0.671875 -0.359375q-0.390625 0 -1.171875 0.5q-0.78125 0.484375 -1.953125 1.46875l0 2.8125l2.671875 0q0.671875 0 0.953125 0.265625q0.296875 0.265625 0.296875 0.6875q0 0.40625 -0.296875 0.671875q-0.28125 0.25 -0.953125 0.25l-5.640625 0q-0.671875 0 -0.96875 -0.25q-0.28125 -0.265625 -0.28125 -0.6875q0 -0.40625 0.28125 -0.671875q0.296875 -0.265625 0.96875 -0.265625l1.109375 0l0 -4.53125l-0.671875 0q-0.671875 0 -0.96875 -0.25q-0.28125 -0.265625 -0.28125 -0.6875q0 -0.40625 0.28125 -0.65625q0.296875 -0.265625 0.96875 -0.265625l2.53125 0zm16.273682 5.078125l-7.65625 0q0.296875 0.734375 1.03125 1.1875q0.75 0.4375 2.015625 0.4375q1.03125 0 2.75 -0.453125q0.71875 -0.1875 0.984375 -0.1875q0.375 0 0.625 0.265625q0.265625 0.265625 0.265625 0.671875q0 0.359375 -0.28125 0.625q-0.359375 0.328125 -1.78125 0.640625q-1.40625 0.296875 -2.703125 0.296875q-2.25 0 -3.59375 -1.265625q-1.34375 -1.265625 -1.34375 -3.109375q0 -1.96875 1.453125 -3.203125q1.453125 -1.234375 3.359375 -1.234375q1.140625 0 2.078125 0.40625q0.953125 0.390625 1.421875 0.859375q0.65625 0.671875 1.09375 1.671875q0.28125 0.6875 0.28125 1.59375l0 0.796875zm-2.0625 -1.875q-0.4375 -0.796875 -1.125 -1.1875q-0.6875 -0.40625 -1.640625 -0.40625q-0.953125 0 -1.65625 0.40625q-0.6875 0.390625 -1.125 1.1875l5.546875 0zm6.2580566 4.03125l0 3.0625l1.125 0q0.671875 0 0.953125 0.25q0.28125 0.265625 0.28125 0.6875q0 0.40625 -0.28125 0.671875q-0.28125 0.265625 -0.953125 0.265625l-3.3125 0q-0.671875 0 -0.96875 -0.265625q-0.28125 -0.265625 -0.28125 -0.671875q0 -0.421875 0.28125 -0.6875q0.296875 -0.25 0.96875 -0.25l0.3125 0l0 -8.4375l-0.3125 0q-0.671875 0 -0.96875 -0.25q-0.28125 -0.265625 -0.28125 -0.6875q0 -0.40625 0.28125 -0.65625q0.296875 -0.265625 0.96875 -0.265625l2.1875 0l0 0.625q0.65625 -0.4375 1.359375 -0.65625q0.703125 -0.21875 1.4375 -0.21875q1.90625 0 3.25 1.296875q1.359375 1.296875 1.359375 2.96875q0 1.859375 -1.59375 3.0625q-1.328125 1.0 -3.0 1.0q-0.71875 0 -1.421875 -0.203125q-0.703125 -0.21875 -1.390625 -0.640625zm5.53125 -3.203125q0 -0.390625 -0.3125 -1.0q-0.296875 -0.609375 -0.9375 -1.015625q-0.640625 -0.40625 -1.515625 -0.40625q-1.390625 0 -2.21875 1.046875q-0.546875 0.734375 -0.546875 1.390625q0 0.75 0.796875 1.453125q0.796875 0.703125 1.96875 0.703125q1.1875 0 1.96875 -0.703125q0.796875 -0.703125 0.796875 -1.46875zm8.914307 -7.578125l0 9.9375l2.234375 0q0.6875 0 0.96875 0.265625q0.28125 0.265625 0.28125 0.6875q0 0.40625 -0.28125 0.671875q-0.28125 0.25 -0.96875 0.25l-6.34375 0q-0.671875 0 -0.96875 -0.25q-0.28125 -0.265625 -0.28125 -0.6875q0 -0.40625 0.28125 -0.671875q0.296875 -0.265625 0.96875 -0.265625l2.25 0l0 -8.078125l-1.515625 0q-0.65625 0 -0.953125 -0.25q-0.296875 -0.265625 -0.296875 -0.6875q0 -0.40625 0.28125 -0.65625q0.296875 -0.265625 0.96875 -0.265625l3.375 0zm10.929993 0l0 1.96875l-2.21875 0l0 -1.96875l2.21875 0zm0.25 3.546875l0 6.390625l2.25 0q0.671875 0 0.953125 0.265625q0.296875 0.265625 0.296875 0.6875q0 0.40625 -0.296875 0.671875q-0.28125 0.25 -0.953125 0.25l-6.359375 0q-0.671875 0 -0.953125 -0.25q-0.28125 -0.265625 -0.28125 -0.6875q0 -0.40625 0.28125 -0.671875q0.28125 -0.265625 0.953125 -0.265625l2.25 0l0 -4.53125l-1.5 0q-0.671875 0 -0.96875 -0.25q-0.28125 -0.265625 -0.28125 -0.6875q0 -0.40625 0.28125 -0.65625q0.296875 -0.265625 0.96875 -0.265625l3.359375 0zm13.195557 0.328125q0.328125 -0.3125 0.6875 -0.3125q0.390625 0 0.65625 0.296875q0.265625 0.28125 0.265625 0.9375l0 1.203125q0 0.671875 -0.265625 0.953125q-0.265625 0.28125 -0.671875 0.28125q-0.390625 0 -0.65625 -0.21875q-0.1875 -0.15625 -0.296875 -0.65625q-0.109375 -0.515625 -0.53125 -0.765625q-0.734375 -0.4375 -1.875 -0.4375q-1.328125 0 -2.125 0.78125q-0.796875 0.78125 -0.796875 1.953125q0 1.09375 0.765625 1.734375q0.765625 0.625 2.546875 0.625q1.15625 0 1.890625 -0.234375q0.4375 -0.140625 0.828125 -0.484375q0.40625 -0.359375 0.71875 -0.359375q0.375 0 0.65625 0.28125q0.28125 0.28125 0.28125 0.671875q0 0.609375 -0.84375 1.171875q-1.265625 0.828125 -3.6875 0.828125q-2.171875 0 -3.390625 -0.90625q-1.640625 -1.203125 -1.640625 -3.3125q0 -2.0 1.328125 -3.296875q1.34375 -1.3125 3.484375 -1.3125q0.765625 0 1.421875 0.15625q0.671875 0.140625 1.25 0.421875zm9.961182 7.9375l0 -0.4375q-0.703125 0.375 -1.5625 0.5625q-0.84375 0.1875 -1.53125 0.1875q-1.5 0 -2.4375 -0.796875q-0.9375 -0.796875 -0.9375 -1.765625q0 -1.171875 1.1875 -2.171875q1.203125 -1.015625 3.3125 -1.015625q0.859375 0 1.96875 0.1875l0 -0.453125q0 -0.421875 -0.359375 -0.6875q-0.359375 -0.265625 -1.375 -0.265625q-0.828125 0 -2.15625 0.328125q-0.484375 0.125 -0.765625 0.125q-0.359375 0 -0.625 -0.265625q-0.265625 -0.265625 -0.265625 -0.6875q0 -0.234375 0.09375 -0.40625q0.09375 -0.1875 0.25 -0.28125q0.171875 -0.109375 0.6875 -0.25q0.703125 -0.203125 1.421875 -0.3125q0.71875 -0.109375 1.296875 -0.109375q1.734375 0 2.6875 0.75q0.96875 0.75 0.96875 2.046875l0 3.84375l0.328125 0q0.671875 0 0.953125 0.265625q0.296875 0.265625 0.296875 0.6875q0 0.40625 -0.296875 0.671875q-0.28125 0.25 -0.953125 0.25l-2.1875 0zm0 -3.34375q-1.125 -0.21875 -2.078125 -0.21875q-1.125 0 -1.953125 0.5625q-0.515625 0.34375 -0.515625 0.71875q0 0.265625 0.25 0.421875q0.453125 0.296875 1.25 0.296875q0.671875 0 1.515625 -0.265625q0.859375 -0.265625 1.53125 -0.71875l0 -0.796875zm11.523682 -2.734375q-0.453125 -0.296875 -0.953125 -0.4375q-0.5 -0.140625 -1.046875 -0.140625q-1.078125 0 -1.71875 0.359375q-0.28125 0.15625 -0.28125 0.34375q0 0.203125 0.375 0.40625q0.296875 0.140625 1.3125 0.28125q1.859375 0.25 2.578125 0.515625q0.96875 0.328125 1.484375 1.0q0.515625 0.65625 0.515625 1.40625q0 1.0 -0.890625 1.671875q-1.265625 0.96875 -3.28125 0.96875q-0.8125 0 -1.5 -0.140625q-0.6875 -0.140625 -1.265625 -0.40625q-0.125 0.109375 -0.28125 0.171875q-0.15625 0.0625 -0.328125 0.0625q-0.4375 0 -0.703125 -0.28125q-0.25 -0.28125 -0.25 -0.953125l0 -0.640625q0 -0.671875 0.25 -0.953125q0.265625 -0.296875 0.6875 -0.296875q0.34375 0 0.5625 0.1875q0.234375 0.1875 0.359375 0.640625q0.421875 0.375 1.015625 0.5625q0.609375 0.1875 1.390625 0.1875q1.296875 0 2.0 -0.40625q0.34375 -0.203125 0.34375 -0.421875q0 -0.359375 -0.484375 -0.59375q-0.484375 -0.234375 -2.0 -0.40625q-2.25 -0.234375 -3.0 -0.90625q-0.765625 -0.671875 -0.765625 -1.640625q0 -1.0 0.859375 -1.671875q1.140625 -0.90625 3.0 -0.90625q0.640625 0 1.234375 0.125q0.609375 0.125 1.15625 0.375q0.171875 -0.125 0.3125 -0.1875q0.15625 -0.0625 0.28125 -0.0625q0.390625 0 0.640625 0.28125q0.25 0.28125 0.25 0.96875l0 0.453125q0 0.609375 -0.140625 0.828125q-0.296875 0.421875 -0.796875 0.421875q-0.328125 0 -0.59375 -0.203125q-0.25 -0.21875 -0.328125 -0.5625zm10.586243 -0.9375q0 0.515625 -0.375 0.875q-0.359375 0.359375 -1.015625 0.359375q-0.65625 0 -1.03125 -0.359375q-0.375 -0.359375 -0.375 -0.875q0 -0.53125 0.375 -0.890625q0.375 -0.359375 1.03125 -0.359375q0.65625 0 1.015625 0.359375q0.375 0.359375 0.375 0.890625zm0.015625 6.109375q0 0.53125 -0.375 0.890625q-0.359375 0.34375 -1.015625 0.34375q-0.65625 0 -1.03125 -0.34375q-0.375 -0.359375 -0.375 -0.890625q0 -0.53125 0.375 -0.890625q0.375 -0.359375 1.03125 -0.359375q0.65625 0 1.015625 0.359375q0.375 0.359375 0.375 0.890625zm21.891113 -9.015625l0 10.96875l1.125 0q0.671875 0 0.953125 0.25q0.296875 0.265625 0.296875 0.6875q0 0.40625 -0.296875 0.671875q-0.28125 0.265625 -0.953125 0.265625l-3.0 0l0 -14.703125l3.0 0q0.671875 0 0.953125 0.265625q0.28125 0.25 0.28125 0.671875q0 0.40625 -0.28125 0.671875q-0.28125 0.25 -0.953125 0.25l-1.125 0zm8.383057 1.65625l0 0.625q0.515625 -0.4375 1.125 -0.65625q0.625 -0.21875 1.34375 -0.21875q1.65625 0 2.625 1.03125q0.765625 0.8125 0.765625 2.140625l0 3.46875q0.578125 0 0.859375 0.265625q0.296875 0.265625 0.296875 0.6875q0 0.40625 -0.296875 0.671875q-0.28125 0.25 -0.953125 0.25l-1.6875 0q-0.671875 0 -0.96875 -0.25q-0.28125 -0.265625 -0.28125 -0.6875q0 -0.40625 0.28125 -0.671875q0.28125 -0.265625 0.875 -0.265625l0 -3.515625q0 -0.609375 -0.328125 -0.890625q-0.421875 -0.375 -1.28125 -0.375q-0.65625 0 -1.140625 0.25q-0.484375 0.25 -1.234375 1.0625l0 3.46875q0.71875 0 0.9375 0.140625q0.4375 0.28125 0.4375 0.8125q0 0.40625 -0.28125 0.671875q-0.28125 0.25 -0.96875 0.25l-2.109375 0q-0.6875 0 -0.96875 -0.25q-0.28125 -0.265625 -0.28125 -0.6875q0 -0.515625 0.4375 -0.796875q0.21875 -0.140625 0.9375 -0.140625l0 -4.53125q-0.59375 0 -0.875 -0.265625q-0.28125 -0.265625 -0.28125 -0.671875q0 -0.40625 0.28125 -0.65625q0.28125 -0.265625 0.96875 -0.265625l1.765625 0zm17.945618 4.28125q0 1.078125 -0.609375 2.09375q-0.59375 1.0 -1.78125 1.59375q-1.171875 0.59375 -2.453125 0.59375q-1.265625 0 -2.4375 -0.578125q-1.171875 -0.59375 -1.78125 -1.59375q-0.609375 -1.015625 -0.609375 -2.125q0 -1.125 0.609375 -2.203125q0.625 -1.078125 1.78125 -1.6875q1.171875 -0.625 2.4375 -0.625q1.28125 0 2.453125 0.640625q1.1875 0.625 1.78125 1.703125q0.609375 1.0625 0.609375 2.1875zm-1.875 0.015625q0 -0.90625 -0.640625 -1.65625q-0.890625 -1.03125 -2.328125 -1.03125q-1.265625 0 -2.109375 0.8125q-0.84375 0.8125 -0.84375 1.875q0 0.875 0.84375 1.640625q0.859375 0.765625 2.109375 0.765625q1.265625 0 2.109375 -0.765625q0.859375 -0.765625 0.859375 -1.640625zm12.508057 -7.84375l0 9.9375l0.3125 0q0.671875 0 0.953125 0.265625q0.296875 0.265625 0.296875 0.6875q0 0.40625 -0.296875 0.671875q-0.28125 0.25 -0.953125 0.25l-2.1875 0l0 -0.453125q-0.640625 0.375 -1.34375 0.5625q-0.6875 0.1875 -1.4375 0.1875q-2.09375 0 -3.390625 -1.203125q-1.28125 -1.21875 -1.28125 -3.03125q0 -1.90625 1.34375 -3.234375q1.359375 -1.34375 3.296875 -1.34375q0.734375 0 1.421875 0.21875q0.703125 0.21875 1.390625 0.671875l0 -2.328125l-0.3125 0q-0.6875 0 -0.96875 -0.25q-0.28125 -0.265625 -0.28125 -0.671875q0 -0.421875 0.28125 -0.671875q0.28125 -0.265625 0.96875 -0.265625l2.1875 0zm-1.875 7.921875q0 -1.15625 -0.8125 -1.953125q-0.8125 -0.8125 -1.984375 -0.8125q-1.171875 0 -1.984375 0.8125q-0.796875 0.796875 -0.796875 1.921875q0 1.03125 0.71875 1.703125q0.734375 0.65625 2.0625 0.65625q1.328125 0 2.0625 -0.65625q0.734375 -0.671875 0.734375 -1.671875zm13.461182 0.703125l-7.65625 0q0.296875 0.734375 1.03125 1.1875q0.75 0.4375 2.015625 0.4375q1.03125 0 2.75 -0.453125q0.71875 -0.1875 0.984375 -0.1875q0.375 0 0.625 0.265625q0.265625 0.265625 0.265625 0.671875q0 0.359375 -0.28125 0.625q-0.359375 0.328125 -1.78125 0.640625q-1.40625 0.296875 -2.703125 0.296875q-2.25 0 -3.59375 -1.265625q-1.34375 -1.265625 -1.34375 -3.109375q0 -1.96875 1.453125 -3.203125q1.453125 -1.234375 3.359375 -1.234375q1.140625 0 2.078125 0.40625q0.953125 0.390625 1.421875 0.859375q0.65625 0.671875 1.09375 1.671875q0.28125 0.6875 0.28125 1.59375l0 0.796875zm-2.0625 -1.875q-0.4375 -0.796875 -1.125 -1.1875q-0.6875 -0.40625 -1.640625 -0.40625q-0.953125 0 -1.65625 0.40625q-0.6875 0.390625 -1.125 1.1875l5.546875 0zm12.492432 0.609375l-7.796875 0l0 -1.703125l7.796875 0l0 1.703125zm8.226868 -7.640625l0 10.21875l1.890625 0q0.671875 0 0.953125 0.265625q0.296875 0.265625 0.296875 0.6875q0 0.40625 -0.296875 0.671875q-0.28125 0.25 -0.953125 0.25l-5.640625 0q-0.671875 0 -0.96875 -0.25q-0.28125 -0.265625 -0.28125 -0.6875q0 -0.40625 0.28125 -0.671875q0.296875 -0.265625 0.96875 -0.265625l1.890625 0l0 -7.78125l-1.671875 0.4375q-0.40625 0.109375 -0.609375 0.109375q-0.34375 0 -0.609375 -0.28125q-0.25 -0.28125 -0.25 -0.6875q0 -0.375 0.1875 -0.59375q0.1875 -0.21875 0.796875 -0.375l4.015625 -1.046875zm9.804932 9.578125l2.5 0l-2.6875 5.0625q-0.234375 0.453125 -0.59375 0.453125q-0.234375 0 -0.40625 -0.15625q-0.171875 -0.15625 -0.171875 -0.34375q0 -0.140625 0.0625 -0.375l1.296875 -4.640625zm20.937988 -5.75l0 0.625q0.515625 -0.4375 1.125 -0.65625q0.625 -0.21875 1.34375 -0.21875q1.65625 0 2.625 1.03125q0.765625 0.8125 0.765625 2.140625l0 3.46875q0.578125 0 0.859375 0.265625q0.296875 0.265625 0.296875 0.6875q0 0.40625 -0.296875 0.671875q-0.28125 0.25 -0.953125 0.25l-1.6875 0q-0.671875 0 -0.96875 -0.25q-0.28125 -0.265625 -0.28125 -0.6875q0 -0.40625 0.28125 -0.671875q0.28125 -0.265625 0.875 -0.265625l0 -3.515625q0 -0.609375 -0.328125 -0.890625q-0.421875 -0.375 -1.28125 -0.375q-0.65625 0 -1.140625 0.25q-0.484375 0.25 -1.234375 1.0625l0 3.46875q0.71875 0 0.9375 0.140625q0.4375 0.28125 0.4375 0.8125q0 0.40625 -0.28125 0.671875q-0.28125 0.25 -0.96875 0.25l-2.109375 0q-0.6875 0 -0.96875 -0.25q-0.28125 -0.265625 -0.28125 -0.6875q0 -0.515625 0.4375 -0.796875q0.21875 -0.140625 0.9375 -0.140625l0 -4.53125q-0.59375 0 -0.875 -0.265625q-0.28125 -0.265625 -0.28125 -0.671875q0 -0.40625 0.28125 -0.65625q0.28125 -0.265625 0.96875 -0.265625l1.765625 0zm17.945618 4.28125q0 1.078125 -0.609375 2.09375q-0.59375 1.0 -1.78125 1.59375q-1.171875 0.59375 -2.453125 0.59375q-1.265625 0 -2.4375 -0.578125q-1.171875 -0.59375 -1.78125 -1.59375q-0.609375 -1.015625 -0.609375 -2.125q0 -1.125 0.609375 -2.203125q0.625 -1.078125 1.78125 -1.6875q1.171875 -0.625 2.4375 -0.625q1.28125 0 2.453125 0.640625q1.1875 0.625 1.78125 1.703125q0.609375 1.0625 0.609375 2.1875zm-1.875 0.015625q0 -0.90625 -0.640625 -1.65625q-0.890625 -1.03125 -2.328125 -1.03125q-1.265625 0 -2.109375 0.8125q-0.84375 0.8125 -0.84375 1.875q0 0.875 0.84375 1.640625q0.859375 0.765625 2.109375 0.765625q1.265625 0 2.109375 -0.765625q0.859375 -0.765625 0.859375 -1.640625zm12.508057 -7.84375l0 9.9375l0.3125 0q0.671875 0 0.953125 0.265625q0.296875 0.265625 0.296875 0.6875q0 0.40625 -0.296875 0.671875q-0.28125 0.25 -0.953125 0.25l-2.1875 0l0 -0.453125q-0.640625 0.375 -1.34375 0.5625q-0.6875 0.1875 -1.4375 0.1875q-2.09375 0 -3.390625 -1.203125q-1.28125 -1.21875 -1.28125 -3.03125q0 -1.90625 1.34375 -3.234375q1.359375 -1.34375 3.296875 -1.34375q0.734375 0 1.421875 0.21875q0.703125 0.21875 1.390625 0.671875l0 -2.328125l-0.3125 0q-0.6875 0 -0.96875 -0.25q-0.28125 -0.265625 -0.28125 -0.671875q0 -0.421875 0.28125 -0.671875q0.28125 -0.265625 0.96875 -0.265625l2.1875 0zm-1.875 7.921875q0 -1.15625 -0.8125 -1.953125q-0.8125 -0.8125 -1.984375 -0.8125q-1.171875 0 -1.984375 0.8125q-0.796875 0.796875 -0.796875 1.921875q0 1.03125 0.71875 1.703125q0.734375 0.65625 2.0625 0.65625q1.328125 0 2.0625 -0.65625q0.734375 -0.671875 0.734375 -1.671875zm13.461182 0.703125l-7.65625 0q0.296875 0.734375 1.03125 1.1875q0.75 0.4375 2.015625 0.4375q1.03125 0 2.75 -0.453125q0.71875 -0.1875 0.984375 -0.1875q0.375 0 0.625 0.265625q0.265625 0.265625 0.265625 0.671875q0 0.359375 -0.28125 0.625q-0.359375 0.328125 -1.78125 0.640625q-1.40625 0.296875 -2.703125 0.296875q-2.25 0 -3.59375 -1.265625q-1.34375 -1.265625 -1.34375 -3.109375q0 -1.96875 1.453125 -3.203125q1.453125 -1.234375 3.359375 -1.234375q1.140625 0 2.078125 0.40625q0.953125 0.390625 1.421875 0.859375q0.65625 0.671875 1.09375 1.671875q0.28125 0.6875 0.28125 1.59375l0 0.796875zm-2.0625 -1.875q-0.4375 -0.796875 -1.125 -1.1875q-0.6875 -0.40625 -1.640625 -0.40625q-0.953125 0 -1.65625 0.40625q-0.6875 0.390625 -1.125 1.1875l5.546875 0zm12.492493 0.609375l-7.796875 0l0 -1.703125l7.796875 0l0 1.703125zm9.945557 -1.78125q0.828125 0.5625 1.234375 1.3125q0.40625 0.734375 0.40625 1.65625q0 0.984375 -0.546875 1.828125q-0.53125 0.84375 -1.5625 1.28125q-1.03125 0.421875 -2.703125 0.421875q-2.15625 0 -3.25 -0.671875q-0.609375 -0.375 -0.609375 -0.90625q0 -0.40625 0.265625 -0.671875q0.265625 -0.28125 0.65625 -0.28125q0.25 0 0.546875 0.171875q0.390625 0.28125 0.75 0.375q0.546875 0.125 1.5 0.125q1.640625 0 2.359375 -0.421875q0.734375 -0.421875 0.734375 -1.203125q0 -0.578125 -0.421875 -1.109375q-0.421875 -0.53125 -1.140625 -0.8125q-0.40625 -0.171875 -1.390625 -0.234375q-0.453125 -0.03125 -0.703125 -0.28125q-0.25 -0.265625 -0.25 -0.640625q0 -0.40625 0.265625 -0.671875q0.28125 -0.28125 0.6875 -0.28125q0.9375 0 1.0 -0.015625q0.359375 -0.03125 0.71875 -0.234375q0.375 -0.203125 0.59375 -0.546875q0.234375 -0.359375 0.234375 -0.71875q0 -0.59375 -0.53125 -1.03125q-0.515625 -0.4375 -1.578125 -0.4375q-1.34375 0 -2.046875 0.78125q-0.21875 0.234375 -0.34375 0.296875q-0.1875 0.09375 -0.421875 0.09375q-0.390625 0 -0.671875 -0.265625q-0.265625 -0.265625 -0.265625 -0.671875q0 -0.625 0.84375 -1.21875q1.21875 -0.875 3.046875 -0.875q1.734375 0 2.78125 0.984375q1.046875 0.984375 1.046875 2.375q0 0.71875 -0.3125 1.34375q-0.3125 0.625 -0.921875 1.15625zm7.6174316 7.28125l0 -10.96875l-1.140625 0q-0.671875 0 -0.953125 -0.25q-0.28125 -0.265625 -0.28125 -0.671875q0 -0.421875 0.28125 -0.671875q0.28125 -0.265625 0.953125 -0.265625l3.0 0l0 14.703125l-2.984375 0q-0.671875 0 -0.96875 -0.265625q-0.28125 -0.265625 -0.28125 -0.671875q0 -0.421875 0.28125 -0.6875q0.296875 -0.25 0.96875 -0.25l1.125 0z" fill-rule="nonzero"/><path fill="#000000" fill-opacity="0.0" d="m516.6011 363.63516c-178.40948 0 -356.8189 -94.36218 -356.8189 -188.7244" fill-rule="evenodd"/><path stroke="#0091da" stroke-width="3.0" stroke-linejoin="round" stroke-linecap="butt" stroke-dasharray="12.0,9.0" d="m516.6011 363.63516c-89.20474 0 -178.40948 -23.590546 -245.31302 -58.97638c-33.451767 -17.692902 -61.328247 -38.334625 -80.84178 -60.450775c-9.75676 -11.058075 -17.42279 -22.484741 -22.649628 -34.09572c-1.3067169 -2.9027405 -2.460968 -5.8170166 -3.4573517 -8.739914c-0.4981842 -1.4614563 -0.95687866 -2.9250488 -1.3754425 -4.390457c-0.20927429 -0.7327118 -0.40852356 -1.4658661 -0.59762573 -2.1994324c-0.094558716 -0.3667755 -0.18658447 -0.73365784 -0.27607727 -1.100647l-0.2116394 -0.89356995" fill-rule="evenodd"/><path fill="#0091da" stroke="#0091da" stroke-width="3.0" stroke-linecap="butt" d="m166.79999 192.21117l-6.507065 -12.94455l-3.3358917 14.098755z" fill-rule="evenodd"/><path fill="#000000" fill-opacity="0.0" d="m526.33344 340.1392c0 -43.74008 5.8739624 -66.8266 11.747986 -87.48016c5.8740234 -20.653534 11.748047 -38.8741 11.748047 -77.7482" fill-rule="evenodd"/><path stroke="#0091da" stroke-width="3.0" stroke-linejoin="round" stroke-linecap="butt" stroke-dasharray="12.0,9.0" d="m526.33344 340.1392c0 -43.74008 5.8740234 -66.8266 11.747986 -87.48015c2.9370117 -10.326782 5.8740234 -20.045303 8.076782 -32.04138c1.1013794 -5.998047 2.019226 -12.565491 2.6616821 -20.06305c0.1605835 -1.8743896 0.3040161 -3.8069305 0.42877197 -5.8032227c0.031188965 -0.49905396 0.06121826 -1.002121 0.09008789 -1.5092468l0.018249512 -0.33750916" fill-rule="evenodd"/><path fill="#0091da" stroke="#0091da" stroke-width="3.0" stroke-linecap="butt" d="m554.3105 193.03471l-4.5961304 -13.73967l-5.310852 13.479523z" fill-rule="evenodd"/><path fill="#000000" fill-opacity="0.0" d="m573.3254 340.1392c0 -43.74008 91.63782 -66.8266 183.27557 -87.48016c91.63782 -20.653534 183.27563 -38.8741 183.27563 -77.7482" fill-rule="evenodd"/><path stroke="#0091da" stroke-width="3.0" stroke-linejoin="round" stroke-linecap="butt" stroke-dasharray="12.0,9.0" d="m573.3254 340.1392c0 -43.74008 91.63782 -66.8266 183.27557 -87.48015c45.81891 -10.326782 91.63782 -20.045303 126.002014 -32.04138c17.182068 -5.998047 31.500488 -12.565491 41.523376 -20.06305c2.5057373 -1.8743896 4.74292 -3.8069305 6.689331 -5.8032227c0.4866333 -0.49905396 0.9550781 -1.002121 1.4049683 -1.5092468c0.22491455 -0.25357056 0.44519043 -0.50816345 0.6609497 -0.7637787c0.10772705 -0.12780762 0.21435547 -0.25585938 0.31982422 -0.3841858l0.2878418 -0.35473633" fill-rule="evenodd"/><path fill="#0091da" stroke="#0091da" stroke-width="3.0" stroke-linecap="butt" d="m938.12195 193.4978l0.19830322 -14.486664l-9.463745 10.96994z" fill-rule="evenodd"/><path fill="#000000" fill-opacity="0.0" d="m195.30971 314.94226l122.20473 0l0 42.015747l-122.20473 0z" fill-rule="evenodd"/><path fill="#000000" d="m225.7432 333.92474q0.328125 -0.3125 0.6875 -0.3125q0.390625 0 0.65625 0.296875q0.265625 0.28125 0.265625 0.9375l0 1.203125q0 0.671875 -0.265625 0.953125q-0.265625 0.28125 -0.671875 0.28125q-0.390625 0 -0.65625 -0.21875q-0.1875 -0.15625 -0.296875 -0.65625q-0.109375 -0.515625 -0.53125 -0.765625q-0.734375 -0.4375 -1.875 -0.4375q-1.328125 0 -2.125 0.78125q-0.796875 0.78125 -0.796875 1.953125q0 1.09375 0.765625 1.734375q0.765625 0.625 2.546875 0.625q1.15625 0 1.890625 -0.234375q0.4375 -0.140625 0.828125 -0.484375q0.40625 -0.359375 0.71875 -0.359375q0.375 0 0.65625 0.28125q0.28125 0.28125 0.28125 0.671875q0 0.609375 -0.84375 1.171875q-1.265625 0.828125 -3.6875 0.828125q-2.171875 0 -3.390625 -0.90625q-1.640625 -1.203125 -1.640625 -3.3125q0 -2.0 1.328125 -3.296875q1.34375 -1.3125 3.484375 -1.3125q0.765625 0 1.421875 0.15625q0.671875 0.140625 1.25 0.421875zm13.133072 3.953125q0 1.078125 -0.609375 2.09375q-0.59375 1.0 -1.78125 1.59375q-1.171875 0.59375 -2.453125 0.59375q-1.265625 0 -2.4375 -0.578125q-1.171875 -0.59375 -1.78125 -1.59375q-0.609375 -1.015625 -0.609375 -2.125q0 -1.125 0.609375 -2.203125q0.625 -1.078125 1.78125 -1.6875q1.171875 -0.625 2.4375 -0.625q1.28125 0 2.453125 0.640625q1.1875 0.625 1.78125 1.703125q0.609375 1.0625 0.609375 2.1875zm-1.875 0.015625q0 -0.90625 -0.640625 -1.65625q-0.890625 -1.03125 -2.328125 -1.03125q-1.265625 0 -2.109375 0.8125q-0.84375 0.8125 -0.84375 1.875q0 0.875 0.84375 1.640625q0.859375 0.765625 2.109375 0.765625q1.265625 0 2.109375 -0.765625q0.859375 -0.765625 0.859375 -1.640625zm6.320572 -4.296875l0 0.625q0.515625 -0.4375 1.125 -0.65625q0.625 -0.21875 1.34375 -0.21875q1.65625 0 2.625 1.03125q0.765625 0.8125 0.765625 2.140625l0 3.46875q0.578125 0 0.859375 0.265625q0.296875 0.265625 0.296875 0.6875q0 0.40625 -0.296875 0.671875q-0.28125 0.25 -0.953125 0.25l-1.6875 0q-0.671875 0 -0.96875 -0.25q-0.28125 -0.265625 -0.28125 -0.6875q0 -0.40625 0.28125 -0.671875q0.28125 -0.265625 0.875 -0.265625l0 -3.515625q0 -0.609375 -0.328125 -0.890625q-0.421875 -0.375 -1.28125 -0.375q-0.65625 0 -1.140625 0.25q-0.484375 0.25 -1.234375 1.0625l0 3.46875q0.71875 0 0.9375 0.140625q0.4375 0.28125 0.4375 0.8125q0 0.40625 -0.28125 0.671875q-0.28125 0.25 -0.96875 0.25l-2.109375 0q-0.6875 0 -0.96875 -0.25q-0.28125 -0.265625 -0.28125 -0.6875q0 -0.515625 0.4375 -0.796875q0.21875 -0.140625 0.9375 -0.140625l0 -4.53125q-0.59375 0 -0.875 -0.265625q-0.28125 -0.265625 -0.28125 -0.671875q0 -0.40625 0.28125 -0.65625q0.28125 -0.265625 0.96875 -0.265625l1.765625 0zm15.101837 2.1875q-0.453125 -0.296875 -0.953125 -0.4375q-0.5 -0.140625 -1.046875 -0.140625q-1.0781403 0 -1.7187653 0.359375q-0.28125 0.15625 -0.28125 0.34375q0 0.203125 0.375 0.40625q0.296875 0.140625 1.3125153 0.28125q1.859375 0.25 2.578125 0.515625q0.96875 0.328125 1.484375 1.0q0.515625 0.65625 0.515625 1.40625q0 1.0 -0.890625 1.671875q-1.265625 0.96875 -3.28125 0.96875q-0.81251526 0 -1.5000153 -0.140625q-0.6875 -0.140625 -1.265625 -0.40625q-0.125 0.109375 -0.28125 0.171875q-0.15625 0.0625 -0.328125 0.0625q-0.4375 0 -0.703125 -0.28125q-0.25 -0.28125 -0.25 -0.953125l0 -0.640625q0 -0.671875 0.25 -0.953125q0.265625 -0.296875 0.6875 -0.296875q0.34375 0 0.5625 0.1875q0.234375 0.1875 0.359375 0.640625q0.421875 0.375 1.015625 0.5625q0.609375 0.1875 1.3906403 0.1875q1.296875 0 2.0 -0.40625q0.34375 -0.203125 0.34375 -0.421875q0 -0.359375 -0.484375 -0.59375q-0.484375 -0.234375 -2.0 -0.40625q-2.2500153 -0.234375 -3.0000153 -0.90625q-0.765625 -0.671875 -0.765625 -1.640625q0 -1.0 0.859375 -1.671875q1.140625 -0.90625 3.0000153 -0.90625q0.640625 0 1.234375 0.125q0.609375 0.125 1.15625 0.375q0.171875 -0.125 0.3125 -0.1875q0.15625 -0.0625 0.28125 -0.0625q0.390625 0 0.640625 0.28125q0.25 0.28125 0.25 0.96875l0 0.453125q0 0.609375 -0.140625 0.828125q-0.296875 0.421875 -0.796875 0.421875q-0.328125 0 -0.59375 -0.203125q-0.25 -0.21875 -0.328125 -0.5625zm13.148682 -2.1875l0 6.390625q0.59375 0 0.875 0.265625q0.28125 0.265625 0.28125 0.6875q0 0.40625 -0.296875 0.671875q-0.28125 0.25 -0.953125 0.25l-1.765625 0l0 -0.421875q-0.8125 0.359375 -1.546875 0.53125q-0.71875 0.1875 -1.375 0.1875q-0.921875 0 -1.59375 -0.375q-0.671875 -0.390625 -1.0625 -1.078125q-0.28125 -0.5 -0.28125 -1.234375l0 -4.015625l-0.328125 0q-0.671875 0 -0.96875 -0.25q-0.28125 -0.265625 -0.28125 -0.6875q0 -0.40625 0.28125 -0.65625q0.296875 -0.265625 0.96875 -0.265625l2.1875 0l0 5.546875q0 0.59375 0.28125 0.875q0.296875 0.28125 0.890625 0.28125q0.5625 0 1.203125 -0.21875q0.65625 -0.234375 1.625 -0.8125l0 -3.8125l-0.6875 0q-0.671875 0 -0.953125 -0.25q-0.28125 -0.265625 -0.28125 -0.6875q0 -0.40625 0.28125 -0.65625q0.28125 -0.265625 0.953125 -0.265625l2.546875 0zm4.351837 0l0 0.515625q0.453125 -0.4375 0.8125 -0.609375q0.375 -0.171875 0.859375 -0.171875q0.40625 0 0.8125 0.203125q0.40625 0.203125 0.78125 0.609375q0.484375 -0.40625 0.96875 -0.59375q0.5 -0.203125 1.03125 -0.203125q1.03125 0 1.6875 0.546875q0.84375 0.734375 0.84375 1.921875l0 4.171875q0.59375 0 0.875 0.265625q0.28125 0.265625 0.28125 0.6875q0 0.40625 -0.28125 0.671875q-0.28125 0.25 -0.953125 0.25l-1.78125 0l0 -5.890625q0 -0.4375 -0.15625 -0.59375q-0.15625 -0.171875 -0.46875 -0.171875q-0.3125 0 -0.578125 0.171875q-0.34375 0.21875 -0.828125 0.859375l0 3.75q0.59375 0 0.875 0.265625q0.28125 0.265625 0.28125 0.6875q0 0.40625 -0.28125 0.671875q-0.28125 0.25 -0.953125 0.25l-1.78125 0l0 -5.890625q0 -0.421875 -0.15625 -0.59375q-0.15625 -0.171875 -0.484375 -0.171875q-0.328125 0 -0.65625 0.21875q-0.3125 0.203125 -0.75 0.8125l0 3.75q0.578125 0 0.859375 0.265625q0.296875 0.265625 0.296875 0.6875q0 0.40625 -0.296875 0.671875q-0.28125 0.25 -0.953125 0.25l-1.6875 0q-0.671875 0 -0.953125 -0.25q-0.296875 -0.265625 -0.296875 -0.6875q0 -0.40625 0.28125 -0.671875q0.28125 -0.265625 0.875 -0.265625l0 -4.53125q-0.59375 0 -0.875 -0.265625q-0.28125 -0.265625 -0.28125 -0.671875q0 -0.40625 0.296875 -0.65625q0.28125 -0.265625 0.953125 -0.265625l1.78125 0zm18.758057 5.078125l-7.65625 0q0.296875 0.734375 1.03125 1.1875q0.75 0.4375 2.015625 0.4375q1.03125 0 2.75 -0.453125q0.71875 -0.1875 0.984375 -0.1875q0.375 0 0.625 0.265625q0.265625 0.265625 0.265625 0.671875q0 0.359375 -0.28125 0.625q-0.359375 0.328125 -1.78125 0.640625q-1.40625 0.296875 -2.703125 0.296875q-2.25 0 -3.59375 -1.265625q-1.34375 -1.265625 -1.34375 -3.109375q0 -1.96875 1.453125 -3.203125q1.453125 -1.234375 3.359375 -1.234375q1.140625 0 2.078125 0.40625q0.953125 0.390625 1.421875 0.859375q0.65625 0.671875 1.09375 1.671875q0.28125 0.6875 0.28125 1.59375l0 0.796875zm-2.0625 -1.875q-0.4375 -0.796875 -1.125 -1.1875q-0.6875 -0.40625 -1.640625 -0.40625q-0.953125 0 -1.65625 0.40625q-0.6875 0.390625 -1.125 1.1875l5.546875 0z" fill-rule="nonzero"/><path fill="#000000" fill-opacity="0.0" d="m418.89764 226.31496l122.20471 0l0 42.015762l-122.20471 0z" fill-rule="evenodd"/><path fill="#000000" d="m444.09674 252.2037l0 3.0625l1.125 0q0.671875 0 0.953125 0.25q0.28125 0.265625 0.28125 0.6875q0 0.40625 -0.28125 0.671875q-0.28125 0.265625 -0.953125 0.265625l-3.3125 0q-0.671875 0 -0.96875 -0.265625q-0.28125 -0.265625 -0.28125 -0.671875q0 -0.421875 0.28125 -0.6875q0.296875 -0.25 0.96875 -0.25l0.3125 0l0 -8.4375l-0.3125 0q-0.671875 0 -0.96875 -0.25q-0.28125 -0.265625 -0.28125 -0.6875q0 -0.40625 0.28125 -0.65625q0.296875 -0.265625 0.96875 -0.265625l2.1875 0l0 0.625q0.65625 -0.4375 1.359375 -0.65625q0.703125 -0.21875 1.4375 -0.21875q1.90625 0 3.25 1.296875q1.359375 1.296875 1.359375 2.96875q0 1.859375 -1.59375 3.0625q-1.328125 1.0 -3.0 1.0q-0.71875 0 -1.421875 -0.203125q-0.703125 -0.21875 -1.390625 -0.640625zm5.53125 -3.203125q0 -0.390625 -0.3125 -1.0q-0.296875 -0.609375 -0.9375 -1.015625q-0.640625 -0.40625 -1.515625 -0.40625q-1.390625 0 -2.21875 1.046875q-0.546875 0.734375 -0.546875 1.390625q0 0.75 0.796875 1.453125q0.796875 0.703125 1.96875 0.703125q1.1875 0 1.96875 -0.703125q0.796875 -0.703125 0.796875 -1.46875zm11.945587 -4.03125l0 6.390625q0.59375 0 0.875 0.265625q0.28125 0.265625 0.28125 0.6875q0 0.40625 -0.296875 0.671875q-0.28125 0.25 -0.953125 0.25l-1.765625 0l0 -0.421875q-0.8125 0.359375 -1.546875 0.53125q-0.71875 0.1875 -1.375 0.1875q-0.921875 0 -1.59375 -0.375q-0.671875 -0.390625 -1.0625 -1.078125q-0.28125 -0.5 -0.28125 -1.234375l0 -4.015625l-0.328125 0q-0.671875 0 -0.96875 -0.25q-0.28125 -0.265625 -0.28125 -0.6875q0 -0.40625 0.28125 -0.65625q0.296875 -0.265625 0.96875 -0.265625l2.1875 0l0 5.546875q0 0.59375 0.28125 0.875q0.296875 0.28125 0.890625 0.28125q0.5625 0 1.203125 -0.21875q0.65625 -0.234375 1.625 -0.8125l0 -3.8125l-0.6875 0q-0.671875 0 -0.953125 -0.25q-0.28125 -0.265625 -0.28125 -0.6875q0 -0.40625 0.28125 -0.65625q0.28125 -0.265625 0.953125 -0.265625l2.546875 0zm4.8830566 -3.546875l0 4.1875q0.671875 -0.453125 1.375 -0.671875q0.71875 -0.21875 1.4375 -0.21875q1.9375 0 3.28125 1.34375q1.34375 1.328125 1.34375 3.234375q0 1.8125 -1.28125 3.03125q-1.28125 1.203125 -3.390625 1.203125q-0.734375 0 -1.4375 -0.1875q-0.6875 -0.1875 -1.328125 -0.5625l0 0.453125l-2.1875 0q-0.6875 0 -0.96875 -0.25q-0.28125 -0.265625 -0.28125 -0.6875q0 -0.40625 0.28125 -0.671875q0.296875 -0.265625 0.96875 -0.265625l0.3125 0l0 -8.078125l-0.3125 0q-0.6875 0 -0.96875 -0.25q-0.28125 -0.265625 -0.28125 -0.6875q0 -0.40625 0.28125 -0.65625q0.28125 -0.265625 0.96875 -0.265625l2.1875 0zm5.578125 7.921875q0 -1.15625 -0.8125 -1.953125q-0.8125 -0.8125 -1.984375 -0.8125q-1.171875 0 -1.984375 0.8125q-0.796875 0.796875 -0.796875 1.921875q0 1.03125 0.71875 1.703125q0.734375 0.65625 2.0625 0.65625q1.328125 0 2.0625 -0.65625q0.734375 -0.671875 0.734375 -1.671875zm8.898712 -7.921875l0 9.9375l2.234375 0q0.6875 0 0.96875 0.265625q0.28125 0.265625 0.28125 0.6875q0 0.40625 -0.28125 0.671875q-0.28125 0.25 -0.96875 0.25l-6.34375 0q-0.671875 0 -0.96875 -0.25q-0.28125 -0.265625 -0.28125 -0.6875q0 -0.40625 0.28125 -0.671875q0.296875 -0.265625 0.96875 -0.265625l2.25 0l0 -8.078125l-1.515625 0q-0.65625 0 -0.953125 -0.25q-0.296875 -0.265625 -0.296875 -0.6875q0 -0.40625 0.28125 -0.65625q0.296875 -0.265625 0.96875 -0.265625l3.375 0zm10.929932 0l0 1.96875l-2.21875 0l0 -1.96875l2.21875 0zm0.25 3.546875l0 6.390625l2.25 0q0.671875 0 0.953125 0.265625q0.296875 0.265625 0.296875 0.6875q0 0.40625 -0.296875 0.671875q-0.28125 0.25 -0.953125 0.25l-6.359375 0q-0.671875 0 -0.953125 -0.25q-0.28125 -0.265625 -0.28125 -0.6875q0 -0.40625 0.28125 -0.671875q0.28125 -0.265625 0.953125 -0.265625l2.25 0l0 -4.53125l-1.5 0q-0.671875 0 -0.96875 -0.25q-0.28125 -0.265625 -0.28125 -0.6875q0 -0.40625 0.28125 -0.65625q0.296875 -0.265625 0.96875 -0.265625l3.359375 0zm12.289337 2.1875q-0.453125 -0.296875 -0.953125 -0.4375q-0.5 -0.140625 -1.046875 -0.140625q-1.078125 0 -1.71875 0.359375q-0.28125 0.15625 -0.28125 0.34375q0 0.203125 0.375 0.40625q0.296875 0.140625 1.3125 0.28125q1.859375 0.25 2.578125 0.515625q0.96875 0.328125 1.484375 1.0q0.515625 0.65625 0.515625 1.40625q0 1.0 -0.890625 1.671875q-1.265625 0.96875 -3.28125 0.96875q-0.8125 0 -1.5 -0.140625q-0.6875 -0.140625 -1.265625 -0.40625q-0.125 0.109375 -0.28125 0.171875q-0.15625 0.0625 -0.328125 0.0625q-0.4375 0 -0.703125 -0.28125q-0.25 -0.28125 -0.25 -0.953125l0 -0.640625q0 -0.671875 0.25 -0.953125q0.265625 -0.296875 0.6875 -0.296875q0.34375 0 0.5625 0.1875q0.234375 0.1875 0.359375 0.640625q0.421875 0.375 1.015625 0.5625q0.609375 0.1875 1.390625 0.1875q1.296875 0 2.0 -0.40625q0.34375 -0.203125 0.34375 -0.421875q0 -0.359375 -0.484375 -0.59375q-0.484375 -0.234375 -2.0 -0.40625q-2.25 -0.234375 -3.0 -0.90625q-0.765625 -0.671875 -0.765625 -1.640625q0 -1.0 0.859375 -1.671875q1.140625 -0.90625 3.0 -0.90625q0.640625 0 1.234375 0.125q0.609375 0.125 1.15625 0.375q0.171875 -0.125 0.3125 -0.1875q0.15625 -0.0625 0.28125 -0.0625q0.390625 0 0.640625 0.28125q0.25 0.28125 0.25 0.96875l0 0.453125q0 0.609375 -0.140625 0.828125q-0.296875 0.421875 -0.796875 0.421875q-0.328125 0 -0.59375 -0.203125q-0.25 -0.21875 -0.328125 -0.5625zm7.2580566 -5.734375l0 3.984375q0.5781555 -0.359375 1.1719055 -0.515625q0.609375 -0.171875 1.21875 -0.171875q0.953125 0 1.703125 0.328125q0.765625 0.328125 1.265625 1.03125q0.5 0.703125 0.5 1.78125l0 3.5q0.703125 0 0.921875 0.140625q0.4375 0.28125 0.4375 0.8125q0 0.40625 -0.28125 0.671875q-0.28125 0.25 -0.953125 0.25l-2.125 0q-0.671875 0 -0.96875 -0.25q-0.28125 -0.265625 -0.28125 -0.6875q0 -0.515625 0.4375 -0.796875q0.234375 -0.140625 0.9375 -0.140625l0 -3.375q0 -0.71875 -0.328125 -1.015625q-0.4375 -0.390625 -1.265625 -0.390625q-0.625 0 -1.109375 0.25q-0.46875 0.234375 -1.2812805 1.046875l0 3.484375q0.7187805 0 0.9219055 0.140625q0.453125 0.28125 0.453125 0.8125q0 0.40625 -0.296875 0.671875q-0.28125 0.25 -0.9531555 0.25l-2.125 0q-0.671875 0 -0.96875 -0.25q-0.28125 -0.265625 -0.28125 -0.6875q0 -0.515625 0.453125 -0.796875q0.21875 -0.140625 0.921875 -0.140625l0 -8.078125l-0.3125 0q-0.671875 0 -0.96875 -0.25q-0.28125 -0.265625 -0.28125 -0.6875q0 -0.40625 0.28125 -0.65625q0.296875 -0.265625 0.96875 -0.265625l2.1875 0z" fill-rule="nonzero"/><path fill="#000000" fill-opacity="0.0" d="m758.2546 239.08923l122.20471 0l0 42.015747l-122.20471 0z" fill-rule="evenodd"/><path fill="#000000" d="m788.6881 258.07175q0.328125 -0.3125 0.6875 -0.3125q0.390625 0 0.65625 0.296875q0.265625 0.28125 0.265625 0.9375l0 1.203125q0 0.671875 -0.265625 0.953125q-0.265625 0.28125 -0.671875 0.28125q-0.390625 0 -0.65625 -0.21875q-0.1875 -0.15625 -0.296875 -0.65625q-0.109375 -0.515625 -0.53125 -0.765625q-0.734375 -0.4375 -1.875 -0.4375q-1.328125 0 -2.125 0.78125q-0.796875 0.78125 -0.796875 1.953125q0 1.09375 0.765625 1.734375q0.765625 0.625 2.546875 0.625q1.15625 0 1.890625 -0.234375q0.4375 -0.140625 0.828125 -0.484375q0.40625 -0.359375 0.71875 -0.359375q0.375 0 0.65625 0.28125q0.28125 0.28125 0.28125 0.671875q0 0.609375 -0.84375 1.171875q-1.265625 0.828125 -3.6875 0.828125q-2.171875 0 -3.390625 -0.90625q-1.640625 -1.203125 -1.640625 -3.3125q0 -2.0 1.328125 -3.296875q1.34375 -1.3125 3.484375 -1.3125q0.765625 0 1.421875 0.15625q0.671875 0.140625 1.25 0.421875zm13.133057 3.953125q0 1.078125 -0.609375 2.09375q-0.59375 1.0 -1.78125 1.59375q-1.171875 0.59375 -2.453125 0.59375q-1.265625 0 -2.4375 -0.578125q-1.171875 -0.59375 -1.78125 -1.59375q-0.609375 -1.015625 -0.609375 -2.125q0 -1.125 0.609375 -2.203125q0.625 -1.078125 1.78125 -1.6875q1.171875 -0.625 2.4375 -0.625q1.28125 0 2.453125 0.640625q1.1875 0.625 1.78125 1.703125q0.609375 1.0625 0.609375 2.1875zm-1.875 0.015625q0 -0.90625 -0.640625 -1.65625q-0.890625 -1.03125 -2.328125 -1.03125q-1.265625 0 -2.109375 0.8125q-0.84375 0.8125 -0.84375 1.875q0 0.875 0.84375 1.640625q0.859375 0.765625 2.109375 0.765625q1.265625 0 2.109375 -0.765625q0.859375 -0.765625 0.859375 -1.640625zm6.3205566 -4.296875l0 0.625q0.515625 -0.4375 1.125 -0.65625q0.625 -0.21875 1.34375 -0.21875q1.65625 0 2.625 1.03125q0.765625 0.8125 0.765625 2.140625l0 3.46875q0.578125 0 0.859375 0.265625q0.296875 0.265625 0.296875 0.6875q0 0.40625 -0.296875 0.671875q-0.28125 0.25 -0.953125 0.25l-1.6875 0q-0.671875 0 -0.96875 -0.25q-0.28125 -0.265625 -0.28125 -0.6875q0 -0.40625 0.28125 -0.671875q0.28125 -0.265625 0.875 -0.265625l0 -3.515625q0 -0.609375 -0.328125 -0.890625q-0.421875 -0.375 -1.28125 -0.375q-0.65625 0 -1.140625 0.25q-0.484375 0.25 -1.234375 1.0625l0 3.46875q0.71875 0 0.9375 0.140625q0.4375 0.28125 0.4375 0.8125q0 0.40625 -0.28125 0.671875q-0.28125 0.25 -0.96875 0.25l-2.109375 0q-0.6875 0 -0.96875 -0.25q-0.28125 -0.265625 -0.28125 -0.6875q0 -0.515625 0.4375 -0.796875q0.21875 -0.140625 0.9375 -0.140625l0 -4.53125q-0.59375 0 -0.875 -0.265625q-0.28125 -0.265625 -0.28125 -0.671875q0 -0.40625 0.28125 -0.65625q0.28125 -0.265625 0.96875 -0.265625l1.765625 0zm15.101807 2.1875q-0.453125 -0.296875 -0.953125 -0.4375q-0.5 -0.140625 -1.046875 -0.140625q-1.078125 0 -1.71875 0.359375q-0.28125 0.15625 -0.28125 0.34375q0 0.203125 0.375 0.40625q0.296875 0.140625 1.3125 0.28125q1.859375 0.25 2.578125 0.515625q0.96875 0.328125 1.484375 1.0q0.515625 0.65625 0.515625 1.40625q0 1.0 -0.890625 1.671875q-1.265625 0.96875 -3.28125 0.96875q-0.8125 0 -1.5 -0.140625q-0.6875 -0.140625 -1.265625 -0.40625q-0.125 0.109375 -0.28125 0.171875q-0.15625 0.0625 -0.328125 0.0625q-0.4375 0 -0.703125 -0.28125q-0.25 -0.28125 -0.25 -0.953125l0 -0.640625q0 -0.671875 0.25 -0.953125q0.265625 -0.296875 0.6875 -0.296875q0.34375 0 0.5625 0.1875q0.234375 0.1875 0.359375 0.640625q0.421875 0.375 1.015625 0.5625q0.609375 0.1875 1.390625 0.1875q1.296875 0 2.0 -0.40625q0.34375 -0.203125 0.34375 -0.421875q0 -0.359375 -0.484375 -0.59375q-0.484375 -0.234375 -2.0 -0.40625q-2.25 -0.234375 -3.0 -0.90625q-0.765625 -0.671875 -0.765625 -1.640625q0 -1.0 0.859375 -1.671875q1.140625 -0.90625 3.0 -0.90625q0.640625 0 1.234375 0.125q0.609375 0.125 1.15625 0.375q0.171875 -0.125 0.3125 -0.1875q0.15625 -0.0625 0.28125 -0.0625q0.390625 0 0.640625 0.28125q0.25 0.28125 0.25 0.96875l0 0.453125q0 0.609375 -0.140625 0.828125q-0.296875 0.421875 -0.796875 0.421875q-0.328125 0 -0.59375 -0.203125q-0.25 -0.21875 -0.328125 -0.5625zm13.148743 -2.1875l0 6.390625q0.59375 0 0.875 0.265625q0.28125 0.265625 0.28125 0.6875q0 0.40625 -0.296875 0.671875q-0.28125 0.25 -0.953125 0.25l-1.765625 0l0 -0.421875q-0.8125 0.359375 -1.546875 0.53125q-0.71875 0.1875 -1.375 0.1875q-0.921875 0 -1.59375 -0.375q-0.671875 -0.390625 -1.0625 -1.078125q-0.28125 -0.5 -0.28125 -1.234375l0 -4.015625l-0.328125 0q-0.671875 0 -0.96875 -0.25q-0.28125 -0.265625 -0.28125 -0.6875q0 -0.40625 0.28125 -0.65625q0.296875 -0.265625 0.96875 -0.265625l2.1875 0l0 5.546875q0 0.59375 0.28125 0.875q0.296875 0.28125 0.890625 0.28125q0.5625 0 1.203125 -0.21875q0.65625 -0.234375 1.625 -0.8125l0 -3.8125l-0.6875 0q-0.671875 0 -0.953125 -0.25q-0.28125 -0.265625 -0.28125 -0.6875q0 -0.40625 0.28125 -0.65625q0.28125 -0.265625 0.953125 -0.265625l2.546875 0zm4.3518066 0l0 0.515625q0.453125 -0.4375 0.8125 -0.609375q0.375 -0.171875 0.859375 -0.171875q0.40625 0 0.8125 0.203125q0.40625 0.203125 0.78125 0.609375q0.484375 -0.40625 0.96875 -0.59375q0.5 -0.203125 1.03125 -0.203125q1.03125 0 1.6875 0.546875q0.84375 0.734375 0.84375 1.921875l0 4.171875q0.59375 0 0.875 0.265625q0.28125 0.265625 0.28125 0.6875q0 0.40625 -0.28125 0.671875q-0.28125 0.25 -0.953125 0.25l-1.78125 0l0 -5.890625q0 -0.4375 -0.15625 -0.59375q-0.15625 -0.171875 -0.46875 -0.171875q-0.3125 0 -0.578125 0.171875q-0.34375 0.21875 -0.828125 0.859375l0 3.75q0.59375 0 0.875 0.265625q0.28125 0.265625 0.28125 0.6875q0 0.40625 -0.28125 0.671875q-0.28125 0.25 -0.953125 0.25l-1.78125 0l0 -5.890625q0 -0.421875 -0.15625 -0.59375q-0.15625 -0.171875 -0.484375 -0.171875q-0.328125 0 -0.65625 0.21875q-0.3125 0.203125 -0.75 0.8125l0 3.75q0.578125 0 0.859375 0.265625q0.296875 0.265625 0.296875 0.6875q0 0.40625 -0.296875 0.671875q-0.28125 0.25 -0.953125 0.25l-1.6875 0q-0.671875 0 -0.953125 -0.25q-0.296875 -0.265625 -0.296875 -0.6875q0 -0.40625 0.28125 -0.671875q0.28125 -0.265625 0.875 -0.265625l0 -4.53125q-0.59375 0 -0.875 -0.265625q-0.28125 -0.265625 -0.28125 -0.671875q0 -0.40625 0.296875 -0.65625q0.28125 -0.265625 0.953125 -0.265625l1.78125 0zm18.758057 5.078125l-7.65625 0q0.296875 0.734375 1.03125 1.1875q0.75 0.4375 2.015625 0.4375q1.03125 0 2.75 -0.453125q0.71875 -0.1875 0.984375 -0.1875q0.375 0 0.625 0.265625q0.265625 0.265625 0.265625 0.671875q0 0.359375 -0.28125 0.625q-0.359375 0.328125 -1.78125 0.640625q-1.40625 0.296875 -2.703125 0.296875q-2.25 0 -3.59375 -1.265625q-1.34375 -1.265625 -1.34375 -3.109375q0 -1.96875 1.453125 -3.203125q1.453125 -1.234375 3.359375 -1.234375q1.140625 0 2.078125 0.40625q0.953125 0.390625 1.421875 0.859375q0.65625 0.671875 1.09375 1.671875q0.28125 0.6875 0.28125 1.59375l0 0.796875zm-2.0625 -1.875q-0.4375 -0.796875 -1.125 -1.1875q-0.6875 -0.40625 -1.640625 -0.40625q-0.953125 0 -1.65625 0.40625q-0.6875 0.390625 -1.125 1.1875l5.546875 0z" fill-rule="nonzero"/></g></svg>