<svg version="1.1" viewBox="0.0 0.0 600.0 371.0" fill="none" stroke="none" stroke-linecap="square" stroke-miterlimit="10" width="600" height="371" xmlns:xlink="http://www.w3.org/1999/xlink" xmlns="http://www.w3.org/2000/svg"><path fill="#ffffff" d="M0 0L600.0 0L600.0 371.0L0 371.0L0 0Z" fill-rule="nonzero"/><path stroke="#333333" stroke-width="1.0" stroke-linecap="butt" d="M106.5 326.5L581.5 326.5" fill-rule="nonzero"/><path stroke="#cccccc" stroke-width="1.0" stroke-linecap="butt" d="M106.5 252.5L581.5 252.5" fill-rule="nonzero"/><path stroke="#cccccc" stroke-width="1.0" stroke-linecap="butt" d="M106.5 177.5L581.5 177.5" fill-rule="nonzero"/><path stroke="#cccccc" stroke-width="1.0" stroke-linecap="butt" d="M106.5 102.5L581.5 102.5" fill-rule="nonzero"/><path stroke="#cccccc" stroke-width="1.0" stroke-linecap="butt" d="M106.5 27.5L581.5 27.5" fill-rule="nonzero"/><clipPath id="id_0"><path d="M106.55 27.55L581.45 27.55L581.45 326.95L106.55 326.95L106.55 27.55Z" clip-rule="nonzero"/></clipPath><path stroke="#000000" stroke-width="2.0" stroke-linecap="butt" stroke-opacity="0.0" clip-path="url(#id_0)" d="M309.0 327.0L178.0 327.0L178.0 131.0C178.0 129.89543 178.89543 129.0 180.0 129.0L307.0 129.0C308.10458 129.0 309.0 129.89543 309.0 131.0Z" fill-rule="nonzero"/><path fill="#4285f4" clip-path="url(#id_0)" d="M309.0 327.0L178.0 327.0L178.0 131.0C178.0 129.89543 178.89543 129.0 180.0 129.0L307.0 129.0C308.10458 129.0 309.0 129.89543 309.0 131.0Z" fill-rule="nonzero"/><path stroke="#000000" stroke-width="2.0" stroke-linecap="butt" stroke-opacity="0.0" clip-path="url(#id_0)" d="M511.0 327.0L380.0 327.0L380.0 60.0C380.0 58.89543 380.89542 58.0 382.0 58.0L509.0 58.0C510.10458 58.0 511.0 58.89543 511.0 60.0Z" fill-rule="nonzero"/><path fill="#4285f4" clip-path="url(#id_0)" d="M511.0 327.0L380.0 327.0L380.0 60.0C380.0 58.89543 380.89542 58.0 382.0 58.0L509.0 58.0C510.10458 58.0 511.0 58.89543 511.0 60.0Z" fill-rule="nonzero"/><path fill="#000000" d="M32.55001 302.10938L23.081263 302.10938L23.081263 305.64062L21.815638 305.64062L21.815638 297.14062L23.081263 297.14062L23.081263 300.6875L32.55001 300.6875L32.55001 302.10938ZM28.659388 296.5Q26.503138 296.5 25.456263 295.29688Q24.596888 294.29688 24.596888 292.85938Q24.596888 291.25 25.643763 290.23438Q26.690638 289.21875 28.550013 289.21875Q30.050013 289.21875 30.909388 289.67188Q31.768763 290.10938 32.253136 290.98438Q32.721886 291.84375 32.721886 292.85938Q32.721886 294.48438 31.675013 295.5Q30.628138 296.5 28.659388 296.5ZM28.659388 295.14062Q30.159388 295.14062 30.909388 294.5Q31.643763 293.84375 31.643763 292.85938Q31.643763 291.875 30.893763 291.21875Q30.143763 290.5625 28.612513 290.5625Q27.175013 290.5625 26.440638 291.21875Q25.690638 291.875 25.690638 292.85938Q25.690638 293.84375 26.425013 294.5Q27.159388 295.14062 28.659388 295.14062ZM31.378138 285.125L32.534386 284.9375Q32.659386 285.5 32.659386 285.9375Q32.659386 286.65625 32.42501 287.0625Q32.190636 287.45312 31.831263 287.60938Q31.456263 287.76562 30.268763 287.76562L25.800013 287.76562L25.800013 288.73438L24.768763 288.73438L24.768763 287.76562L22.846888 287.76562L22.050013 286.45312L24.768763 286.45312L24.768763 285.125L25.800013 285.125L25.800013 286.45312L30.346888 286.45312Q30.909388 286.45312 31.081263 286.39062Q31.237513 286.3125 31.331263 286.15625Q31.425013 286.0 31.425013 285.71875Q31.425013 285.48438 31.378138 285.125ZM31.596888 278.9375Q32.20626 279.67188 32.471886 280.34375Q32.721886 281.01562 32.721886 281.79688Q32.721886 283.07812 32.096886 283.76562Q31.471888 284.45312 30.503138 284.45312Q29.925013 284.45312 29.456263 284.20312Q28.987513 283.9375 28.706263 283.51562Q28.409388 283.09375 28.268763 282.5625Q28.159388 282.1875 28.065638 281.39062Q27.878138 279.79688 27.612513 279.04688Q27.346888 279.03125 27.268763 279.03125Q26.456263 279.03125 26.128138 279.40625Q25.690638 279.92188 25.690638 280.90625Q25.690638 281.84375 26.018763 282.29688Q26.331263 282.73438 27.159388 282.9375L26.987513 284.23438Q26.159388 284.0625 25.659388 283.65625Q25.143763 283.25 24.878138 282.48438Q24.596888 281.71875 24.596888 280.71875Q24.596888 279.71875 24.831263 279.10938Q25.065638 278.48438 25.425013 278.1875Q25.768763 277.89062 26.315638 277.78125Q26.659388 277.71875 27.534388 277.71875L29.284388 277.71875Q31.128138 277.71875 31.612513 277.64062Q32.096886 277.54688 32.55001 277.29688L32.55001 278.67188Q32.14376 278.875 31.596888 278.9375ZM28.643763 279.04688Q28.940638 279.76562 29.143763 281.20312Q29.268763 282.01562 29.409388 282.35938Q29.550013 282.6875 29.831263 282.875Q30.112513 283.04688 30.456263 283.04688Q30.987513 283.04688 31.346888 282.65625Q31.690638 282.25 31.690638 281.48438Q31.690638 280.71875 31.362513 280.125Q31.018763 279.53125 30.440638 279.25Q30.003138 279.04688 29.128138 279.04688L28.643763 279.04688ZM32.55001 276.04688L21.815638 276.04688L21.815638 274.71875L32.55001 274.71875L32.55001 276.04688ZM32.55001 268.90625L21.815638 268.90625L21.815638 264.875Q21.815638 263.64062 22.143763 262.90625Q22.471888 262.15625 23.143763 261.73438Q23.815638 261.3125 24.565638 261.3125Q25.253138 261.3125 25.862513 261.6875Q26.456263 262.0625 26.831263 262.8125Q27.128138 261.84375 27.815638 261.32812Q28.503138 260.79688 29.440638 260.79688Q30.190638 260.79688 30.846888 261.125Q31.487513 261.4375 31.846888 261.90625Q32.190636 262.375 32.378136 263.07812Q32.55001 263.78125 32.55001 264.8125L32.55001 268.90625ZM26.331263 267.48438L26.331263 265.15625Q26.331263 264.21875 26.206263 263.79688Q26.034388 263.26562 25.659388 263.0Q25.284388 262.71875 24.721888 262.71875Q24.190638 262.71875 23.784388 262.96875Q23.378138 263.21875 23.237513 263.70312Q23.081263 264.17188 23.081263 265.32812L23.081263 267.48438L26.331263 267.48438ZM31.284388 267.48438L31.284388 264.8125Q31.284388 264.125 31.237513 263.84375Q31.143763 263.34375 30.940638 263.01562Q30.737513 262.6875 30.346888 262.48438Q29.956263 262.26562 29.440638 262.26562Q28.831263 262.26562 28.393763 262.57812Q27.956263 262.875 27.784388 263.42188Q27.596888 263.96875 27.596888 265.0L27.596888 267.48438L31.284388 267.48438ZM31.596888 253.9375Q32.20626 254.67188 32.471886 255.34375Q32.721886 256.01562 32.721886 256.79688Q32.721886 258.07812 32.096886 258.76562Q31.471888 259.45312 30.503138 259.45312Q29.925013 259.45312 29.456263 259.20312Q28.987513 258.9375 28.706263 258.51562Q28.409388 258.09375 28.268763 257.5625Q28.159388 257.1875 28.065638 256.39062Q27.878138 254.79688 27.612513 254.04688Q27.346888 254.03125 27.268763 254.03125Q26.456263 254.03125 26.128138 254.40625Q25.690638 254.92188 25.690638 255.90625Q25.690638 256.84375 26.018763 257.29688Q26.331263 257.73438 27.159388 257.9375L26.987513 259.23438Q26.159388 259.0625 25.659388 258.65625Q25.143763 258.25 24.878138 257.48438Q24.596888 256.71875 24.596888 255.71875Q24.596888 254.71875 24.831263 254.10938Q25.065638 253.48438 25.425013 253.1875Q25.768763 252.89062 26.315638 252.78125Q26.659388 252.71875 27.534388 252.71875L29.284388 252.71875Q31.128138 252.71875 31.612513 252.64062Q32.096886 252.54688 32.55001 252.29688L32.55001 253.67188Q32.14376 253.875 31.596888 253.9375ZM28.643763 254.04688Q28.940638 254.76562 29.143763 256.20312Q29.268763 257.01562 29.409388 257.35938Q29.550013 257.6875 29.831263 257.875Q30.112513 258.04688 30.456263 258.04688Q30.987513 258.04688 31.346888 257.65625Q31.690638 257.25 31.690638 256.48438Q31.690638 255.71875 31.362513 255.125Q31.018763 254.53125 30.440638 254.25Q30.003138 254.04688 29.128138 254.04688L28.643763 254.04688ZM32.55001 251.01562L24.768763 251.01562L24.768763 249.82812L25.878138 249.82812Q24.596888 248.96875 24.596888 247.34375Q24.596888 246.64062 24.846888 246.0625Q25.096888 245.46875 25.518763 245.17188Q25.925013 244.875 26.487513 244.76562Q26.846888 244.6875 27.768763 244.6875L32.55001 244.6875L32.55001 246.01562L27.815638 246.01562Q27.018763 246.01562 26.628138 246.17188Q26.221888 246.3125 25.987513 246.70312Q25.737513 247.09375 25.737513 247.625Q25.737513 248.46875 26.268763 249.07812Q26.800013 249.6875 28.300013 249.6875L32.55001 249.6875L32.55001 251.01562ZM32.55001 237.96875L31.565638 237.96875Q32.721886 238.70312 32.721886 240.14062Q32.721886 241.0625 32.221886 241.84375Q31.706263 242.625 30.784388 243.0625Q29.862513 243.48438 28.675013 243.48438Q27.503138 243.48438 26.565638 243.09375Q25.612513 242.70312 25.112513 241.9375Q24.596888 241.15625 24.596888 240.20312Q24.596888 239.5 24.893763 238.95312Q25.190638 238.39062 25.659388 238.04688L21.815638 238.04688L21.815638 236.73438L32.55001 236.73438L32.55001 237.96875ZM28.675013 242.125Q30.159388 242.125 30.909388 241.5Q31.643763 240.875 31.643763 240.01562Q31.643763 239.15625 30.940638 238.54688Q30.221888 237.9375 28.784388 237.9375Q27.175013 237.9375 26.440638 238.5625Q25.690638 239.17188 25.690638 240.07812Q25.690638 240.95312 26.409388 241.54688Q27.128138 242.125 28.675013 242.125ZM32.55001 233.57812L24.768763 235.95312L24.768763 234.59375L29.268763 233.35938L30.925013 232.89062Q30.800013 232.85938 29.331263 232.48438L24.768763 231.25L24.768763 229.90625L29.284388 228.73438L30.768763 228.34375L29.268763 227.90625L24.768763 226.5625L24.768763 225.28125L32.55001 227.71875L32.55001 229.07812L27.893763 230.32812L26.565638 230.625L32.55001 232.20312L32.55001 233.57812ZM23.331263 224.0L21.815638 224.0L21.815638 222.6875L23.331263 222.6875L23.331263 224.0ZM32.55001 224.0L24.768763 224.0L24.768763 222.6875L32.55001 222.6875L32.55001 224.0ZM32.55001 215.96875L31.565638 215.96875Q32.721886 216.70312 32.721886 218.14062Q32.721886 219.0625 32.221886 219.84375Q31.706263 220.625 30.784388 221.0625Q29.862513 221.48438 28.675013 221.48438Q27.503138 221.48438 26.565638 221.09375Q25.612513 220.70312 25.112513 219.9375Q24.596888 219.15625 24.596888 218.20312Q24.596888 217.5 24.893763 216.95312Q25.190638 216.39062 25.659388 216.04688L21.815638 216.04688L21.815638 214.73438L32.55001 214.73438L32.55001 215.96875ZM28.675013 220.125Q30.159388 220.125 30.909388 219.5Q31.643763 218.875 31.643763 218.01562Q31.643763 217.15625 30.940638 216.54688Q30.221888 215.9375 28.784388 215.9375Q27.175013 215.9375 26.440638 216.5625Q25.690638 217.17188 25.690638 218.07812Q25.690638 218.95312 26.409388 219.54688Q27.128138 220.125 28.675013 220.125ZM31.378138 210.125L32.534386 209.9375Q32.659386 210.5 32.659386 210.9375Q32.659386 211.65625 32.42501 212.0625Q32.190636 212.45312 31.831263 212.60938Q31.456263 212.76562 30.268763 212.76562L25.800013 212.76562L25.800013 213.73438L24.768763 213.73438L24.768763 212.76562L22.846888 212.76562L22.050013 211.45312L24.768763 211.45312L24.768763 210.125L25.800013 210.125L25.800013 211.45312L30.346888 211.45312Q30.909388 211.45312 31.081263 211.39062Q31.237513 211.3125 31.331263 211.15625Q31.425013 211.0 31.425013 210.71875Q31.425013 210.48438 31.378138 210.125ZM32.55001 209.01562L21.815638 209.01562L21.815638 207.6875L25.659388 207.6875Q24.596888 206.76562 24.596888 205.35938Q24.596888 204.5 24.940638 203.85938Q25.284388 203.21875 25.878138 202.95312Q26.471888 202.67188 27.628138 202.67188L32.55001 202.67188L32.55001 204.0L27.628138 204.0Q26.628138 204.0 26.190638 204.42188Q25.737513 204.84375 25.737513 205.64062Q25.737513 206.21875 26.034388 206.73438Q26.331263 207.25 26.862513 207.46875Q27.378138 207.6875 28.300013 207.6875L32.55001 207.6875L32.55001 209.01562ZM26.268763 200.64062L24.768763 200.64062L24.768763 199.14062L26.268763 199.14062L26.268763 200.64062ZM32.55001 200.64062L31.050013 200.64062L31.050013 199.14062L32.55001 199.14062L32.55001 200.64062ZM32.55001 193.01562L24.768763 193.01562L24.768763 191.82812L25.862513 191.82812Q25.284388 191.46875 24.940638 190.85938Q24.596888 190.25 24.596888 189.46875Q24.596888 188.60938 24.956263 188.0625Q25.315638 187.5 25.956263 187.28125Q24.596888 186.35938 24.596888 184.875Q24.596888 183.71875 25.237513 183.09375Q25.878138 182.46875 27.206263 182.46875L32.55001 182.46875L32.55001 183.78125L27.643763 183.78125Q26.862513 183.78125 26.518763 183.90625Q26.159388 184.03125 25.956263 184.375Q25.737513 184.71875 25.737513 185.17188Q25.737513 185.98438 26.284388 186.53125Q26.831263 187.07812 28.034388 187.07812L32.55001 187.07812L32.55001 188.39062L27.503138 188.39062Q26.612513 188.39062 26.175013 188.71875Q25.737513 189.03125 25.737513 189.76562Q25.737513 190.32812 26.034388 190.79688Q26.331263 191.26562 26.893763 191.48438Q27.456263 191.6875 28.518763 191.6875L32.55001 191.6875L32.55001 193.01562ZM30.050013 174.6875L30.206263 173.32812Q31.409388 173.64062 32.065636 174.51562Q32.721886 175.39062 32.721886 176.75Q32.721886 178.45312 31.675013 179.45312Q30.628138 180.45312 28.721888 180.45312Q26.768763 180.45312 25.690638 179.4375Q24.596888 178.42188 24.596888 176.8125Q24.596888 175.25 25.659388 174.26562Q26.721888 173.28125 28.643763 173.28125Q28.768763 173.28125 29.003138 173.28125L29.003138 179.09375Q30.284388 179.01562 30.971888 178.375Q31.643763 177.71875 31.643763 176.73438Q31.643763 176.01562 31.268763 175.5Q30.878138 174.98438 30.050013 174.6875ZM27.909388 179.01562L27.909388 174.67188Q26.925013 174.76562 26.440638 175.17188Q25.675013 175.79688 25.675013 176.79688Q25.675013 177.71875 26.284388 178.34375Q26.893763 178.95312 27.909388 179.01562ZM30.221888 172.53125L30.018763 171.23438Q30.800013 171.125 31.221888 170.625Q31.643763 170.125 31.643763 169.21875Q31.643763 168.3125 31.284388 167.875Q30.909388 167.4375 30.409388 167.4375Q29.956263 167.4375 29.706263 167.82812Q29.518763 168.09375 29.253138 169.17188Q28.893763 170.625 28.628138 171.1875Q28.346888 171.73438 27.878138 172.03125Q27.409388 172.3125 26.831263 172.3125Q26.315638 172.3125 25.878138 172.07812Q25.425013 171.84375 25.143763 171.4375Q24.909388 171.125 24.753138 170.59375Q24.596888 170.0625 24.596888 169.45312Q24.596888 168.54688 24.862513 167.85938Q25.128138 167.15625 25.581263 166.82812Q26.018763 166.5 26.784388 166.375L26.956263 167.65625Q26.346888 167.75 26.018763 168.17188Q25.675013 168.59375 25.675013 169.35938Q25.675013 170.26562 25.987513 170.65625Q26.284388 171.04688 26.690638 171.04688Q26.940638 171.04688 27.143763 170.89062Q27.362513 170.71875 27.503138 170.375Q27.565638 170.1875 27.831263 169.21875Q28.206263 167.8125 28.440638 167.26562Q28.675013 166.70312 29.143763 166.39062Q29.596888 166.07812 30.268763 166.07812Q30.925013 166.07812 31.503138 166.46875Q32.08126 166.84375 32.409386 167.57812Q32.721886 168.29688 32.721886 169.21875Q32.721886 170.73438 32.096886 171.53125Q31.471888 172.3125 30.221888 172.53125ZM30.221888 164.53125L30.018763 163.23438Q30.800013 163.125 31.221888 162.625Q31.643763 162.125 31.643763 161.21875Q31.643763 160.3125 31.284388 159.875Q30.909388 159.4375 30.409388 159.4375Q29.956263 159.4375 29.706263 159.82812Q29.518763 160.09375 29.253138 161.17188Q28.893763 162.625 28.628138 163.1875Q28.346888 163.73438 27.878138 164.03125Q27.409388 164.3125 26.831263 164.3125Q26.315638 164.3125 25.878138 164.07812Q25.425013 163.84375 25.143763 163.4375Q24.909388 163.125 24.753138 162.59375Q24.596888 162.0625 24.596888 161.45312Q24.596888 160.54688 24.862513 159.85938Q25.128138 159.15625 25.581263 158.82812Q26.018763 158.5 26.784388 158.375L26.956263 159.65625Q26.346888 159.75 26.018763 160.17188Q25.675013 160.59375 25.675013 161.35938Q25.675013 162.26562 25.987513 162.65625Q26.284388 163.04688 26.690638 163.04688Q26.940638 163.04688 27.143763 162.89062Q27.362513 162.71875 27.503138 162.375Q27.565638 162.1875 27.831263 161.21875Q28.206263 159.8125 28.440638 159.26562Q28.675013 158.70312 29.143763 158.39062Q29.596888 158.07812 30.268763 158.07812Q30.925013 158.07812 31.503138 158.46875Q32.08126 158.84375 32.409386 159.57812Q32.721886 160.29688 32.721886 161.21875Q32.721886 162.73438 32.096886 163.53125Q31.471888 164.3125 30.221888 164.53125ZM31.596888 150.9375Q32.20626 151.67188 32.471886 152.34375Q32.721886 153.01562 32.721886 153.79688Q32.721886 155.07812 32.096886 155.76562Q31.471888 156.45312 30.503138 156.45312Q29.925013 156.45312 29.456263 156.20312Q28.987513 155.9375 28.706263 155.51562Q28.409388 155.09375 28.268763 154.5625Q28.159388 154.1875 28.065638 153.39062Q27.878138 151.79688 27.612513 151.04688Q27.346888 151.03125 27.268763 151.03125Q26.456263 151.03125 26.128138 151.40625Q25.690638 151.92188 25.690638 152.90625Q25.690638 153.84375 26.018763 154.29688Q26.331263 154.73438 27.159388 154.9375L26.987513 156.23438Q26.159388 156.0625 25.659388 155.65625Q25.143763 155.25 24.878138 154.48438Q24.596888 153.71875 24.596888 152.71875Q24.596888 151.71875 24.831263 151.10938Q25.065638 150.48438 25.425013 150.1875Q25.768763 149.89062 26.315638 149.78125Q26.659388 149.71875 27.534388 149.71875L29.284388 149.71875Q31.128138 149.71875 31.612513 149.64062Q32.096886 149.54688 32.55001 149.29688L32.55001 150.67188Q32.14376 150.875 31.596888 150.9375ZM28.643763 151.04688Q28.940638 151.76562 29.143763 153.20312Q29.268763 154.01562 29.409388 154.35938Q29.550013 154.6875 29.831263 154.875Q30.112513 155.04688 30.456263 155.04688Q30.987513 155.04688 31.346888 154.65625Q31.690638 154.25 31.690638 153.48438Q31.690638 152.71875 31.362513 152.125Q31.018763 151.53125 30.440638 151.25Q30.003138 151.04688 29.128138 151.04688L28.643763 151.04688ZM33.190636 148.25L33.378136 146.96875Q33.971886 146.89062 34.253136 146.53125Q34.61251 146.03125 34.61251 145.1875Q34.61251 144.26562 34.23751 143.76562Q33.878136 143.26562 33.221886 143.09375Q32.815636 143.0 31.534388 143.0Q32.55001 143.85938 32.55001 145.15625Q32.55001 146.76562 31.393763 147.64062Q30.237513 148.51562 28.612513 148.51562Q27.503138 148.51562 26.565638 148.10938Q25.628138 147.70312 25.112513 146.95312Q24.596888 146.1875 24.596888 145.14062Q24.596888 143.76562 25.706263 142.875L24.768763 142.875L24.768763 141.65625L31.487513 141.65625Q33.315636 141.65625 34.065636 142.03125Q34.83126 142.40625 35.26876 143.20312Q35.70626 144.0 35.70626 145.17188Q35.70626 146.5625 35.08126 147.42188Q34.45626 148.28125 33.190636 148.25ZM28.518763 147.15625Q30.050013 147.15625 30.753138 146.5625Q31.456263 145.95312 31.456263 145.03125Q31.456263 144.125 30.768763 143.51562Q30.065638 142.89062 28.565638 142.89062Q27.143763 142.89062 26.425013 143.53125Q25.690638 144.15625 25.690638 145.04688Q25.690638 145.9375 26.409388 146.54688Q27.112513 147.15625 28.518763 147.15625ZM30.050013 134.6875L30.206263 133.32812Q31.409388 133.64062 32.065636 134.51562Q32.721886 135.39062 32.721886 136.75Q32.721886 138.45312 31.675013 139.45312Q30.628138 140.45312 28.721888 140.45312Q26.768763 140.45312 25.690638 139.4375Q24.596888 138.42188 24.596888 136.8125Q24.596888 135.25 25.659388 134.26562Q26.721888 133.28125 28.643763 133.28125Q28.768763 133.28125 29.003138 133.28125L29.003138 139.09375Q30.284388 139.01562 30.971888 138.375Q31.643763 137.71875 31.643763 136.73438Q31.643763 136.01562 31.268763 135.5Q30.878138 134.98438 30.050013 134.6875ZM27.909388 139.01562L27.909388 134.67188Q26.925013 134.76562 26.440638 135.17188Q25.675013 135.79688 25.675013 136.79688Q25.675013 137.71875 26.284388 138.34375Q26.893763 138.95312 27.909388 139.01562ZM30.221888 132.53125L30.018763 131.23438Q30.800013 131.125 31.221888 130.625Q31.643763 130.125 31.643763 129.21875Q31.643763 128.3125 31.284388 127.875Q30.909388 127.4375 30.409388 127.4375Q29.956263 127.4375 29.706263 127.828125Q29.518763 128.09375 29.253138 129.17188Q28.893763 130.625 28.628138 131.1875Q28.346888 131.73438 27.878138 132.03125Q27.409388 132.3125 26.831263 132.3125Q26.315638 132.3125 25.878138 132.07812Q25.425013 131.84375 25.143763 131.4375Q24.909388 131.125 24.753138 130.59375Q24.596888 130.0625 24.596888 129.45312Q24.596888 128.54688 24.862513 127.859375Q25.128138 127.15625 25.581263 126.828125Q26.018763 126.5 26.784388 126.375L26.956263 127.65625Q26.346888 127.75 26.018763 128.17188Q25.675013 128.59375 25.675013 129.35938Q25.675013 130.26562 25.987513 130.65625Q26.284388 131.04688 26.690638 131.04688Q26.940638 131.04688 27.143763 130.89062Q27.362513 130.71875 27.503138 130.375Q27.565638 130.1875 27.831263 129.21875Q28.206263 127.8125 28.440638 127.265625Q28.675013 126.703125 29.143763 126.390625Q29.596888 126.078125 30.268763 126.078125Q30.925013 126.078125 31.503138 126.46875Q32.08126 126.84375 32.409386 127.578125Q32.721886 128.29688 32.721886 129.21875Q32.721886 130.73438 32.096886 131.53125Q31.471888 132.3125 30.221888 132.53125ZM32.73751 121.0L21.628138 117.890625L21.628138 116.828125L32.73751 119.9375L32.73751 121.0ZM30.221888 112.53125L30.018763 111.234375Q30.800013 111.125 31.221888 110.625Q31.643763 110.125 31.643763 109.21875Q31.643763 108.3125 31.284388 107.875Q30.909388 107.4375 30.409388 107.4375Q29.956263 107.4375 29.706263 107.828125Q29.518763 108.09375 29.253138 109.171875Q28.893763 110.625 28.628138 111.1875Q28.346888 111.734375 27.878138 112.03125Q27.409388 112.3125 26.831263 112.3125Q26.315638 112.3125 25.878138 112.078125Q25.425013 111.84375 25.143763 111.4375Q24.909388 111.125 24.753138 110.59375Q24.596888 110.0625 24.596888 109.453125Q24.596888 108.546875 24.862513 107.859375Q25.128138 107.15625 25.581263 106.828125Q26.018763 106.5 26.784388 106.375L26.956263 107.65625Q26.346888 107.75 26.018763 108.171875Q25.675013 108.59375 25.675013 109.359375Q25.675013 110.265625 25.987513 110.65625Q26.284388 111.046875 26.690638 111.046875Q26.940638 111.046875 27.143763 110.890625Q27.362513 110.71875 27.503138 110.375Q27.565638 110.1875 27.831263 109.21875Q28.206263 107.8125 28.440638 107.265625Q28.675013 106.703125 29.143763 106.390625Q29.596888 106.078125 30.268763 106.078125Q30.925013 106.078125 31.503138 106.46875Q32.08126 106.84375 32.409386 107.578125Q32.721886 108.296875 32.721886 109.21875Q32.721886 110.734375 32.096886 111.53125Q31.471888 112.3125 30.221888 112.53125ZM30.050013 98.6875L30.206263 97.328125Q31.409388 97.640625 32.065636 98.515625Q32.721886 99.390625 32.721886 100.75Q32.721886 102.453125 31.675013 103.453125Q30.628138 104.453125 28.721888 104.453125Q26.768763 104.453125 25.690638 103.4375Q24.596888 102.421875 24.596888 100.8125Q24.596888 99.25 25.659388 98.265625Q26.721888 97.28125 28.643763 97.28125Q28.768763 97.28125 29.003138 97.28125L29.003138 103.09375Q30.284388 103.015625 30.971888 102.375Q31.643763 101.71875 31.643763 100.734375Q31.643763 100.015625 31.268763 99.5Q30.878138 98.984375 30.050013 98.6875ZM27.909388 103.015625L27.909388 98.671875Q26.925013 98.765625 26.440638 99.171875Q25.675013 99.796875 25.675013 100.796875Q25.675013 101.71875 26.284388 102.34375Q26.893763 102.953125 27.909388 103.015625ZM29.706263 90.9375L29.862513 89.640625Q31.206263 89.84375 31.971888 90.734375Q32.721886 91.609375 32.721886 92.875Q32.721886 94.46875 31.690638 95.4375Q30.643763 96.40625 28.690638 96.40625Q27.425013 96.40625 26.487513 96.0Q25.534388 95.578125 25.065638 94.734375Q24.596888 93.875 24.596888 92.875Q24.596888 91.609375 25.237513 90.796875Q25.878138 89.984375 27.050013 89.765625L27.253138 91.046875Q26.471888 91.234375 26.081263 91.703125Q25.675013 92.15625 25.675013 92.8125Q25.675013 93.8125 26.393763 94.4375Q27.112513 95.0625 28.659388 95.0625Q30.221888 95.0625 30.940638 94.46875Q31.643763 93.859375 31.643763 92.890625Q31.643763 92.109375 31.175013 91.59375Q30.690638 91.078125 29.706263 90.9375ZM28.659388 88.5Q26.503138 88.5 25.456263 87.296875Q24.596888 86.296875 24.596888 84.859375Q24.596888 83.25 25.643763 82.234375Q26.690638 81.21875 28.550013 81.21875Q30.050013 81.21875 30.909388 81.671875Q31.768763 82.109375 32.253136 82.984375Q32.721886 83.84375 32.721886 84.859375Q32.721886 86.484375 31.675013 87.5Q30.628138 88.5 28.659388 88.5ZM28.659388 87.140625Q30.159388 87.140625 30.909388 86.5Q31.643763 85.84375 31.643763 84.859375Q31.643763 83.875 30.893763 83.21875Q30.143763 82.5625 28.612513 82.5625Q27.175013 82.5625 26.440638 83.21875Q25.690638 83.875 25.690638 84.859375Q25.690638 85.84375 26.425013 86.5Q27.159388 87.140625 28.659388 87.140625ZM32.55001 80.015625L24.768763 80.015625L24.768763 78.828125L25.878138 78.828125Q24.596888 77.96875 24.596888 76.34375Q24.596888 75.640625 24.846888 75.0625Q25.096888 74.46875 25.518763 74.171875Q25.925013 73.875 26.487513 73.765625Q26.846888 73.6875 27.768763 73.6875L32.55001 73.6875L32.55001 75.015625L27.815638 75.015625Q27.018763 75.015625 26.628138 75.171875Q26.221888 75.3125 25.987513 75.703125Q25.737513 76.09375 25.737513 76.625Q25.737513 77.46875 26.268763 78.078125Q26.800013 78.6875 28.300013 78.6875L32.55001 78.6875L32.55001 80.015625ZM32.55001 66.96875L31.565638 66.96875Q32.721886 67.703125 32.721886 69.140625Q32.721886 70.0625 32.221886 70.84375Q31.706263 71.625 30.784388 72.0625Q29.862513 72.484375 28.675013 72.484375Q27.503138 72.484375 26.565638 72.09375Q25.612513 71.703125 25.112513 70.9375Q24.596888 70.15625 24.596888 69.203125Q24.596888 68.5 24.893763 67.953125Q25.190638 67.390625 25.659388 67.046875L21.815638 67.046875L21.815638 65.734375L32.55001 65.734375L32.55001 66.96875ZM28.675013 71.125Q30.159388 71.125 30.909388 70.5Q31.643763 69.875 31.643763 69.015625Q31.643763 68.15625 30.940638 67.546875Q30.221888 66.9375 28.784388 66.9375Q27.175013 66.9375 26.440638 67.5625Q25.690638 68.171875 25.690638 69.078125Q25.690638 69.953125 26.409388 70.546875Q27.128138 71.125 28.675013 71.125Z" fill-rule="nonzero"/><path fill="#000000" d="M91.675 326.65314Q91.675 324.7469 92.06563 323.59064Q92.45625 322.4344 93.22188 321.8094Q94.00313 321.16876 95.175 321.16876Q96.03438 321.16876 96.69063 321.52814Q97.34688 321.8719 97.76875 322.52814Q98.19063 323.16876 98.425 324.1219Q98.675 325.0594 98.675 326.65314Q98.675 328.54376 98.28438 329.71564Q97.89375 330.8719 97.1125 331.5125Q96.34688 332.1375 95.175 332.1375Q93.62813 332.1375 92.7375 331.0125Q91.675 329.6844 91.675 326.65314ZM93.03438 326.65314Q93.03438 329.29376 93.64375 330.16876Q94.26875 331.04376 95.175 331.04376Q96.08125 331.04376 96.69063 330.16876Q97.31563 329.29376 97.31563 326.65314Q97.31563 323.9969 96.69063 323.1375Q96.08125 322.2625 95.15938 322.2625Q94.25313 322.2625 93.70625 323.02814Q93.03438 324.0125 93.03438 326.65314Z" fill-rule="nonzero"/><path fill="#000000" d="M67.675 254.2875L69.05 254.1625Q69.20625 255.17813 69.76875 255.69376Q70.33125 256.19376 71.12813 256.19376Q72.08125 256.19376 72.7375 255.475Q73.39375 254.75626 73.39375 253.58438Q73.39375 252.44376 72.75313 251.80313Q72.12813 251.14688 71.09688 251.14688Q70.45625 251.14688 69.94063 251.44376Q69.44063 251.725 69.14375 252.17813L67.90938 252.02188L68.94063 246.50626L74.28438 246.50626L74.28438 247.77188L70.00313 247.77188L69.425 250.64688Q70.39375 249.975 71.45625 249.975Q72.8625 249.975 73.81563 250.95938Q74.78438 251.92813 74.78438 253.45938Q74.78438 254.9125 73.94063 255.975Q72.90938 257.2875 71.12813 257.2875Q69.65938 257.2875 68.72188 256.475Q67.8 255.64688 67.675 254.2875ZM75.675 251.80313Q75.675 249.89688 76.06563 248.74063Q76.45625 247.58438 77.22188 246.95938Q78.00313 246.31876 79.175 246.31876Q80.03438 246.31876 80.69063 246.67813Q81.34688 247.02188 81.76875 247.67813Q82.19063 248.31876 82.425 249.27188Q82.675 250.20938 82.675 251.80313Q82.675 253.69376 82.28438 254.86563Q81.89375 256.02188 81.1125 256.6625Q80.34688 257.2875 79.175 257.2875Q77.62813 257.2875 76.7375 256.1625Q75.675 254.83438 75.675 251.80313ZM77.03438 251.80313Q77.03438 254.44376 77.64375 255.31876Q78.26875 256.19376 79.175 256.19376Q80.08125 256.19376 80.69063 255.31876Q81.31563 254.44376 81.31563 251.80313Q81.31563 249.14688 80.69063 248.2875Q80.08125 247.4125 79.15938 247.4125Q78.25313 247.4125 77.70625 248.17813Q77.03438 249.1625 77.03438 251.80313ZM83.675 251.80313Q83.675 249.89688 84.06563 248.74063Q84.45625 247.58438 85.22188 246.95938Q86.00313 246.31876 87.175 246.31876Q88.03438 246.31876 88.69063 246.67813Q89.34688 247.02188 89.76875 247.67813Q90.19063 248.31876 90.425 249.27188Q90.675 250.20938 90.675 251.80313Q90.675 253.69376 90.28438 254.86563Q89.89375 256.02188 89.1125 256.6625Q88.34688 257.2875 87.175 257.2875Q85.62813 257.2875 84.7375 256.1625Q83.675 254.83438 83.675 251.80313ZM85.03438 251.80313Q85.03438 254.44376 85.64375 255.31876Q86.26875 256.19376 87.175 256.19376Q88.08125 256.19376 88.69063 255.31876Q89.31563 254.44376 89.31563 251.80313Q89.31563 249.14688 88.69063 248.2875Q88.08125 247.4125 87.15938 247.4125Q86.25313 247.4125 85.70625 248.17813Q85.03438 249.1625 85.03438 251.80313ZM91.675 251.80313Q91.675 249.89688 92.06563 248.74063Q92.45625 247.58438 93.22188 246.95938Q94.00313 246.31876 95.175 246.31876Q96.03438 246.31876 96.69063 246.67813Q97.34688 247.02188 97.76875 247.67813Q98.19063 248.31876 98.425 249.27188Q98.675 250.20938 98.675 251.80313Q98.675 253.69376 98.28438 254.86563Q97.89375 256.02188 97.1125 256.6625Q96.34688 257.2875 95.175 257.2875Q93.62813 257.2875 92.7375 256.1625Q91.675 254.83438 91.675 251.80313ZM93.03438 251.80313Q93.03438 254.44376 93.64375 255.31876Q94.26875 256.19376 95.175 256.19376Q96.08125 256.19376 96.69063 255.31876Q97.31563 254.44376 97.31563 251.80313Q97.31563 249.14688 96.69063 248.2875Q96.08125 247.4125 95.15938 247.4125Q94.25313 247.4125 93.70625 248.17813Q93.03438 249.1625 93.03438 251.80313Z" fill-rule="nonzero"/><path fill="#000000" d="M64.64375 182.25L63.315624 182.25L63.315624 173.84375Q62.846874 174.29688 62.065624 174.76562Q61.3 175.21875 60.690624 175.4375L60.690624 174.15625Q61.784374 173.64062 62.6125 172.90625Q63.440624 172.17188 63.784374 171.46875L64.64375 171.46875L64.64375 182.25ZM67.675 176.95312Q67.675 175.04688 68.06563 173.89062Q68.45625 172.73438 69.22188 172.10938Q70.00313 171.46875 71.175 171.46875Q72.03438 171.46875 72.69063 171.82812Q73.34688 172.17188 73.76875 172.82812Q74.19063 173.46875 74.425 174.42188Q74.675 175.35938 74.675 176.95312Q74.675 178.84375 74.28438 180.01562Q73.89375 181.17188 73.1125 181.8125Q72.34688 182.4375 71.175 182.4375Q69.62813 182.4375 68.7375 181.3125Q67.675 179.98438 67.675 176.95312ZM69.03438 176.95312Q69.03438 179.59375 69.64375 180.46875Q70.26875 181.34375 71.175 181.34375Q72.08125 181.34375 72.69063 180.46875Q73.31563 179.59375 73.31563 176.95312Q73.31563 174.29688 72.69063 173.4375Q72.08125 172.5625 71.15938 172.5625Q70.25313 172.5625 69.70625 173.32812Q69.03438 174.3125 69.03438 176.95312ZM75.675 176.95312Q75.675 175.04688 76.06563 173.89062Q76.45625 172.73438 77.22188 172.10938Q78.00313 171.46875 79.175 171.46875Q80.03438 171.46875 80.69063 171.82812Q81.34688 172.17188 81.76875 172.82812Q82.19063 173.46875 82.425 174.42188Q82.675 175.35938 82.675 176.95312Q82.675 178.84375 82.28438 180.01562Q81.89375 181.17188 81.1125 181.8125Q80.34688 182.4375 79.175 182.4375Q77.62813 182.4375 76.7375 181.3125Q75.675 179.98438 75.675 176.95312ZM77.03438 176.95312Q77.03438 179.59375 77.64375 180.46875Q78.26875 181.34375 79.175 181.34375Q80.08125 181.34375 80.69063 180.46875Q81.31563 179.59375 81.31563 176.95312Q81.31563 174.29688 80.69063 173.4375Q80.08125 172.5625 79.15938 172.5625Q78.25313 172.5625 77.70625 173.32812Q77.03438 174.3125 77.03438 176.95312ZM83.675 176.95312Q83.675 175.04688 84.06563 173.89062Q84.45625 172.73438 85.22188 172.10938Q86.00313 171.46875 87.175 171.46875Q88.03438 171.46875 88.69063 171.82812Q89.34688 172.17188 89.76875 172.82812Q90.19063 173.46875 90.425 174.42188Q90.675 175.35938 90.675 176.95312Q90.675 178.84375 90.28438 180.01562Q89.89375 181.17188 89.1125 181.8125Q88.34688 182.4375 87.175 182.4375Q85.62813 182.4375 84.7375 181.3125Q83.675 179.98438 83.675 176.95312ZM85.03438 176.95312Q85.03438 179.59375 85.64375 180.46875Q86.26875 181.34375 87.175 181.34375Q88.08125 181.34375 88.69063 180.46875Q89.31563 179.59375 89.31563 176.95312Q89.31563 174.29688 88.69063 173.4375Q88.08125 172.5625 87.15938 172.5625Q86.25313 172.5625 85.70625 173.32812Q85.03438 174.3125 85.03438 176.95312ZM91.675 176.95312Q91.675 175.04688 92.06563 173.89062Q92.45625 172.73438 93.22188 172.10938Q94.00313 171.46875 95.175 171.46875Q96.03438 171.46875 96.69063 171.82812Q97.34688 172.17188 97.76875 172.82812Q98.19063 173.46875 98.425 174.42188Q98.675 175.35938 98.675 176.95312Q98.675 178.84375 98.28438 180.01562Q97.89375 181.17188 97.1125 181.8125Q96.34688 182.4375 95.175 182.4375Q93.62813 182.4375 92.7375 181.3125Q91.675 179.98438 91.675 176.95312ZM93.03438 176.95312Q93.03438 179.59375 93.64375 180.46875Q94.26875 181.34375 95.175 181.34375Q96.08125 181.34375 96.69063 180.46875Q97.31563 179.59375 97.31563 176.95312Q97.31563 174.29688 96.69063 173.4375Q96.08125 172.5625 95.15938 172.5625Q94.25313 172.5625 93.70625 173.32812Q93.03438 174.3125 93.03438 176.95312Z" fill-rule="nonzero"/><path fill="#000000" d="M64.64375 107.4L63.315624 107.4L63.315624 98.99375Q62.846874 99.44688 62.065624 99.91563Q61.3 100.36875 60.690624 100.5875L60.690624 99.30625Q61.784374 98.79063 62.6125 98.05625Q63.440624 97.32188 63.784374 96.61875L64.64375 96.61875L64.64375 107.4ZM67.675 104.5875L69.05 104.4625Q69.20625 105.47813 69.76875 105.99375Q70.33125 106.49375 71.12813 106.49375Q72.08125 106.49375 72.7375 105.775Q73.39375 105.05625 73.39375 103.88438Q73.39375 102.74375 72.75313 102.10313Q72.12813 101.44688 71.09688 101.44688Q70.45625 101.44688 69.94063 101.74375Q69.44063 102.025 69.14375 102.47813L67.90938 102.32188L68.94063 96.80625L74.28438 96.80625L74.28438 98.07188L70.00313 98.07188L69.425 100.94688Q70.39375 100.275 71.45625 100.275Q72.8625 100.275 73.81563 101.25938Q74.78438 102.22813 74.78438 103.75938Q74.78438 105.2125 73.94063 106.275Q72.90938 107.5875 71.12813 107.5875Q69.65938 107.5875 68.72188 106.775Q67.8 105.94688 67.675 104.5875ZM75.675 102.10313Q75.675 100.19688 76.06563 99.04063Q76.45625 97.88438 77.22188 97.25938Q78.00313 96.61875 79.175 96.61875Q80.03438 96.61875 80.69063 96.97813Q81.34688 97.32188 81.76875 97.97813Q82.19063 98.61875 82.425 99.57188Q82.675 100.50938 82.675 102.10313Q82.675 103.99375 82.28438 105.16563Q81.89375 106.32188 81.1125 106.9625Q80.34688 107.5875 79.175 107.5875Q77.62813 107.5875 76.7375 106.4625Q75.675 105.13438 75.675 102.10313ZM77.03438 102.10313Q77.03438 104.74375 77.64375 105.61875Q78.26875 106.49375 79.175 106.49375Q80.08125 106.49375 80.69063 105.61875Q81.31563 104.74375 81.31563 102.10313Q81.31563 99.44688 80.69063 98.5875Q80.08125 97.7125 79.15938 97.7125Q78.25313 97.7125 77.70625 98.47813Q77.03438 99.4625 77.03438 102.10313ZM83.675 102.10313Q83.675 100.19688 84.06563 99.04063Q84.45625 97.88438 85.22188 97.25938Q86.00313 96.61875 87.175 96.61875Q88.03438 96.61875 88.69063 96.97813Q89.34688 97.32188 89.76875 97.97813Q90.19063 98.61875 90.425 99.57188Q90.675 100.50938 90.675 102.10313Q90.675 103.99375 90.28438 105.16563Q89.89375 106.32188 89.1125 106.9625Q88.34688 107.5875 87.175 107.5875Q85.62813 107.5875 84.7375 106.4625Q83.675 105.13438 83.675 102.10313ZM85.03438 102.10313Q85.03438 104.74375 85.64375 105.61875Q86.26875 106.49375 87.175 106.49375Q88.08125 106.49375 88.69063 105.61875Q89.31563 104.74375 89.31563 102.10313Q89.31563 99.44688 88.69063 98.5875Q88.08125 97.7125 87.15938 97.7125Q86.25313 97.7125 85.70625 98.47813Q85.03438 99.4625 85.03438 102.10313ZM91.675 102.10313Q91.675 100.19688 92.06563 99.04063Q92.45625 97.88438 93.22188 97.25938Q94.00313 96.61875 95.175 96.61875Q96.03438 96.61875 96.69063 96.97813Q97.34688 97.32188 97.76875 97.97813Q98.19063 98.61875 98.425 99.57188Q98.675 100.50938 98.675 102.10313Q98.675 103.99375 98.28438 105.16563Q97.89375 106.32188 97.1125 106.9625Q96.34688 107.5875 95.175 107.5875Q93.62813 107.5875 92.7375 106.4625Q91.675 105.13438 91.675 102.10313ZM93.03438 102.10313Q93.03438 104.74375 93.64375 105.61875Q94.26875 106.49375 95.175 106.49375Q96.08125 106.49375 96.69063 105.61875Q97.31563 104.74375 97.31563 102.10313Q97.31563 99.44688 96.69063 98.5875Q96.08125 97.7125 95.15938 97.7125Q94.25313 97.7125 93.70625 98.47813Q93.03438 99.4625 93.03438 102.10313Z" fill-rule="nonzero"/><path fill="#000000" d="M66.59688 31.284374L66.59688 32.55L59.503124 32.55Q59.4875 32.08125 59.659374 31.628124Q59.925 30.909374 60.51875 30.20625Q61.128124 29.503124 62.253124 28.58125Q64.00313 27.14375 64.6125 26.315624Q65.2375 25.471874 65.2375 24.721874Q65.2375 23.940624 64.675 23.409374Q64.1125 22.8625 63.20625 22.8625Q62.253124 22.8625 61.675 23.440624Q61.1125 24.003124 61.1125 25.01875L59.753124 24.878124Q59.89375 23.3625 60.8 22.565624Q61.70625 21.76875 63.2375 21.76875Q64.78438 21.76875 65.675 22.628124Q66.58125 23.4875 66.58125 24.753124Q66.58125 25.39375 66.31563 26.01875Q66.06563 26.64375 65.44063 27.33125Q64.83125 28.01875 63.409374 29.221874Q62.221874 30.20625 61.878124 30.565624Q61.55 30.925 61.33125 31.284374L66.59688 31.284374ZM67.675 27.253124Q67.675 25.346874 68.06563 24.190624Q68.45625 23.034374 69.22188 22.409374Q70.00313 21.76875 71.175 21.76875Q72.03438 21.76875 72.69063 22.128124Q73.34688 22.471874 73.76875 23.128124Q74.19063 23.76875 74.425 24.721874Q74.675 25.659374 74.675 27.253124Q74.675 29.14375 74.28438 30.315624Q73.89375 31.471874 73.1125 32.1125Q72.34688 32.7375 71.175 32.7375Q69.62813 32.7375 68.7375 31.6125Q67.675 30.284374 67.675 27.253124ZM69.03438 27.253124Q69.03438 29.89375 69.64375 30.76875Q70.26875 31.64375 71.175 31.64375Q72.08125 31.64375 72.69063 30.76875Q73.31563 29.89375 73.31563 27.253124Q73.31563 24.596874 72.69063 23.7375Q72.08125 22.8625 71.15938 22.8625Q70.25313 22.8625 69.70625 23.628124Q69.03438 24.6125 69.03438 27.253124ZM75.675 27.253124Q75.675 25.346874 76.06563 24.190624Q76.45625 23.034374 77.22188 22.409374Q78.00313 21.76875 79.175 21.76875Q80.03438 21.76875 80.69063 22.128124Q81.34688 22.471874 81.76875 23.128124Q82.19063 23.76875 82.425 24.721874Q82.675 25.659374 82.675 27.253124Q82.675 29.14375 82.28438 30.315624Q81.89375 31.471874 81.1125 32.1125Q80.34688 32.7375 79.175 32.7375Q77.62813 32.7375 76.7375 31.6125Q75.675 30.284374 75.675 27.253124ZM77.03438 27.253124Q77.03438 29.89375 77.64375 30.76875Q78.26875 31.64375 79.175 31.64375Q80.08125 31.64375 80.69063 30.76875Q81.31563 29.89375 81.31563 27.253124Q81.31563 24.596874 80.69063 23.7375Q80.08125 22.8625 79.15938 22.8625Q78.25313 22.8625 77.70625 23.628124Q77.03438 24.6125 77.03438 27.253124ZM83.675 27.253124Q83.675 25.346874 84.06563 24.190624Q84.45625 23.034374 85.22188 22.409374Q86.00313 21.76875 87.175 21.76875Q88.03438 21.76875 88.69063 22.128124Q89.34688 22.471874 89.76875 23.128124Q90.19063 23.76875 90.425 24.721874Q90.675 25.659374 90.675 27.253124Q90.675 29.14375 90.28438 30.315624Q89.89375 31.471874 89.1125 32.1125Q88.34688 32.7375 87.175 32.7375Q85.62813 32.7375 84.7375 31.6125Q83.675 30.284374 83.675 27.253124ZM85.03438 27.253124Q85.03438 29.89375 85.64375 30.76875Q86.26875 31.64375 87.175 31.64375Q88.08125 31.64375 88.69063 30.76875Q89.31563 29.89375 89.31563 27.253124Q89.31563 24.596874 88.69063 23.7375Q88.08125 22.8625 87.15938 22.8625Q86.25313 22.8625 85.70625 23.628124Q85.03438 24.6125 85.03438 27.253124ZM91.675 27.253124Q91.675 25.346874 92.06563 24.190624Q92.45625 23.034374 93.22188 22.409374Q94.00313 21.76875 95.175 21.76875Q96.03438 21.76875 96.69063 22.128124Q97.34688 22.471874 97.76875 23.128124Q98.19063 23.76875 98.425 24.721874Q98.675 25.659374 98.675 27.253124Q98.675 29.14375 98.28438 30.315624Q97.89375 31.471874 97.1125 32.1125Q96.34688 32.7375 95.175 32.7375Q93.62813 32.7375 92.7375 31.6125Q91.675 30.284374 91.675 27.253124ZM93.03438 27.253124Q93.03438 29.89375 93.64375 30.76875Q94.26875 31.64375 95.175 31.64375Q96.08125 31.64375 96.69063 30.76875Q97.31563 29.89375 97.31563 27.253124Q97.31563 24.596874 96.69063 23.7375Q96.08125 22.8625 95.15938 22.8625Q94.25313 22.8625 93.70625 23.628124Q93.03438 24.6125 93.03438 27.253124Z" fill-rule="nonzero"/><path fill="#000000" d="M218.6137 348.45L215.64494 340.66876L217.03557 340.66876L218.70744 345.325Q218.97307 346.09064 219.20744 346.90314Q219.37932 346.27814 219.69182 345.41876L221.4262 340.66876L222.78557 340.66876L219.83244 348.45L218.6137 348.45ZM223.08244 345.6219L224.41057 345.4344Q224.62932 346.5594 225.1762 347.0594Q225.72307 347.54376 226.50432 347.54376Q227.44182 347.54376 228.08244 346.90314Q228.72307 346.2625 228.72307 345.3094Q228.72307 344.40314 228.12932 343.8094Q227.53557 343.21564 226.6137 343.21564Q226.2387 343.21564 225.69182 343.3719L225.83244 342.21564Q225.97307 342.23126 226.0512 342.23126Q226.89494 342.23126 227.56682 341.79376Q228.2387 341.34064 228.2387 340.4344Q228.2387 339.7 227.7387 339.23126Q227.25432 338.7469 226.47307 338.7469Q225.70744 338.7469 225.19182 339.23126Q224.69182 339.71564 224.53557 340.6844L223.22307 340.45Q223.45744 339.1219 224.31682 338.40314Q225.1762 337.66876 226.44182 337.66876Q227.33244 337.66876 228.06682 338.04376Q228.8012 338.41876 229.19182 339.075Q229.59807 339.73126 229.59807 340.46564Q229.59807 341.15314 229.22307 341.73126Q228.84807 342.29376 228.1137 342.6375Q229.06682 342.85626 229.58244 343.54376Q230.1137 344.23126 230.1137 345.27814Q230.1137 346.6844 229.08244 347.66876Q228.06682 348.6375 226.50432 348.6375Q225.08244 348.6375 224.14494 347.79376Q223.22307 346.95 223.08244 345.6219ZM231.81682 348.45L231.81682 346.95L233.31682 346.95L233.31682 348.45L231.81682 348.45ZM240.0512 348.45L238.72307 348.45L238.72307 340.04376Q238.25432 340.4969 237.47307 340.96564Q236.70744 341.41876 236.09807 341.6375L236.09807 340.35626Q237.19182 339.84064 238.01994 339.10626Q238.84807 338.3719 239.19182 337.66876L240.0512 337.66876L240.0512 348.45ZM248.0512 348.45L246.72307 348.45L246.72307 340.04376Q246.25432 340.4969 245.47307 340.96564Q244.70744 341.41876 244.09807 341.6375L244.09807 340.35626Q245.19182 339.84064 246.01994 339.10626Q246.84807 338.3719 247.19182 337.66876L248.0512 337.66876L248.0512 348.45ZM251.81682 348.45L251.81682 346.95L253.31682 346.95L253.31682 348.45L251.81682 348.45ZM260.0512 348.45L258.72308 348.45L258.72308 340.04376Q258.25433 340.4969 257.47308 340.96564Q256.70746 341.41876 256.09808 341.6375L256.09808 340.35626Q257.19183 339.84064 258.01996 339.10626Q258.84808 338.3719 259.19183 337.66876L260.0512 337.66876L260.0512 348.45ZM263.08246 343.15314Q263.08246 341.2469 263.47308 340.09064Q263.8637 338.9344 264.62933 338.3094Q265.41058 337.66876 266.58246 337.66876Q267.44183 337.66876 268.09808 338.02814Q268.75433 338.3719 269.1762 339.02814Q269.59808 339.66876 269.83246 340.6219Q270.08246 341.5594 270.08246 343.15314Q270.08246 345.04376 269.69183 346.21564Q269.3012 347.3719 268.51996 348.0125Q267.75433 348.6375 266.58246 348.6375Q265.03558 348.6375 264.14496 347.5125Q263.08246 346.1844 263.08246 343.15314ZM264.44183 343.15314Q264.44183 345.79376 265.0512 346.66876Q265.6762 347.54376 266.58246 347.54376Q267.4887 347.54376 268.09808 346.66876Q268.72308 345.79376 268.72308 343.15314Q268.72308 340.4969 268.09808 339.6375Q267.4887 338.7625 266.56683 338.7625Q265.66058 338.7625 265.1137 339.52814Q264.44183 340.5125 264.44183 343.15314Z" fill-rule="nonzero"/><path fill="#000000" d="M402.1988 348.45L399.23004 340.66876L400.62067 340.66876L402.29254 345.325Q402.55817 346.09064 402.79254 346.90314Q402.96442 346.27814 403.27692 345.41876L405.0113 340.66876L406.37067 340.66876L403.41754 348.45L402.1988 348.45ZM406.66754 345.6219L407.99567 345.4344Q408.21442 346.5594 408.7613 347.0594Q409.30817 347.54376 410.08942 347.54376Q411.02692 347.54376 411.66754 346.90314Q412.30817 346.2625 412.30817 345.3094Q412.30817 344.40314 411.71442 343.8094Q411.12067 343.21564 410.1988 343.21564Q409.8238 343.21564 409.27692 343.3719L409.41754 342.21564Q409.55817 342.23126 409.6363 342.23126Q410.48004 342.23126 411.15192 341.79376Q411.8238 341.34064 411.8238 340.4344Q411.8238 339.7 411.3238 339.23126Q410.83942 338.7469 410.05817 338.7469Q409.29254 338.7469 408.77692 339.23126Q408.27692 339.71564 408.12067 340.6844L406.80817 340.45Q407.04254 339.1219 407.90192 338.40314Q408.7613 337.66876 410.02692 337.66876Q410.91754 337.66876 411.65192 338.04376Q412.3863 338.41876 412.77692 339.075Q413.18317 339.73126 413.18317 340.46564Q413.18317 341.15314 412.80817 341.73126Q412.43317 342.29376 411.6988 342.6375Q412.65192 342.85626 413.16754 343.54376Q413.6988 344.23126 413.6988 345.27814Q413.6988 346.6844 412.66754 347.66876Q411.65192 348.6375 410.08942 348.6375Q408.66754 348.6375 407.73004 347.79376Q406.80817 346.95 406.66754 345.6219ZM415.40192 348.45L415.40192 346.95L416.90192 346.95L416.90192 348.45L415.40192 348.45ZM423.6363 348.45L422.30817 348.45L422.30817 340.04376Q421.83942 340.4969 421.05817 340.96564Q420.29254 341.41876 419.68317 341.6375L419.68317 340.35626Q420.77692 339.84064 421.60504 339.10626Q422.43317 338.3719 422.77692 337.66876L423.6363 337.66876L423.6363 348.45ZM433.58942 347.1844L433.58942 348.45L426.49567 348.45Q426.48004 347.98126 426.65192 347.52814Q426.91754 346.8094 427.5113 346.10626Q428.12067 345.40314 429.24567 344.48126Q430.99567 343.04376 431.60504 342.21564Q432.23004 341.3719 432.23004 340.6219Q432.23004 339.84064 431.66754 339.3094Q431.10504 338.7625 430.1988 338.7625Q429.24567 338.7625 428.66754 339.34064Q428.10504 339.90314 428.10504 340.91876L426.74567 340.77814Q426.8863 339.2625 427.79254 338.46564Q428.6988 337.66876 430.23004 337.66876Q431.77692 337.66876 432.66754 338.52814Q433.5738 339.3875 433.5738 340.65314Q433.5738 341.29376 433.30817 341.91876Q433.05817 342.54376 432.43317 343.23126Q431.8238 343.91876 430.40192 345.1219Q429.21442 346.10626 428.87067 346.46564Q428.54254 346.825 428.3238 347.1844L433.58942 347.1844ZM435.40192 348.45L435.40192 346.95L436.90192 346.95L436.90192 348.45L435.40192 348.45ZM438.66754 343.15314Q438.66754 341.2469 439.05817 340.09064Q439.4488 338.9344 440.21442 338.3094Q440.99567 337.66876 442.16754 337.66876Q443.02692 337.66876 443.68317 338.02814Q444.33942 338.3719 444.7613 339.02814Q445.18317 339.66876 445.41754 340.6219Q445.66754 341.5594 445.66754 343.15314Q445.66754 345.04376 445.27692 346.21564Q444.8863 347.3719 444.10504 348.0125Q443.33942 348.6375 442.16754 348.6375Q440.62067 348.6375 439.73004 347.5125Q438.66754 346.1844 438.66754 343.15314ZM440.02692 343.15314Q440.02692 345.79376 440.6363 346.66876Q441.2613 347.54376 442.16754 347.54376Q443.0738 347.54376 443.68317 346.66876Q444.30817 345.79376 444.30817 343.15314Q444.30817 340.4969 443.68317 339.6375Q443.0738 338.7625 442.15192 338.7625Q441.24567 338.7625 440.6988 339.52814Q440.02692 340.5125 440.02692 343.15314ZM446.5113 345.23126L446.5113 343.90314L450.5738 343.90314L450.5738 345.23126L446.5113 345.23126ZM453.24567 348.45L452.02692 348.45L452.02692 337.71564L453.33942 337.71564L453.33942 341.54376Q454.18317 340.4969 455.48004 340.4969Q456.1988 340.4969 456.83942 340.79376Q457.48004 341.075 457.8863 341.60626Q458.30817 342.1219 458.54254 342.8719Q458.77692 343.60626 458.77692 344.45Q458.77692 346.45 457.77692 347.54376Q456.79254 348.6219 455.40192 348.6219Q454.02692 348.6219 453.24567 347.48126L453.24567 348.45ZM453.23004 344.4969Q453.23004 345.90314 453.62067 346.52814Q454.23004 347.54376 455.29254 347.54376Q456.16754 347.54376 456.79254 346.79376Q457.41754 346.04376 457.41754 344.5594Q457.41754 343.02814 456.80817 342.3094Q456.21442 341.575 455.35504 341.575Q454.49567 341.575 453.85504 342.325Q453.23004 343.075 453.23004 344.4969ZM465.35504 345.95L466.71442 346.10626Q466.40192 347.3094 465.52692 347.96564Q464.65192 348.6219 463.29254 348.6219Q461.58942 348.6219 460.58942 347.575Q459.58942 346.52814 459.58942 344.6219Q459.58942 342.66876 460.60504 341.59064Q461.62067 340.4969 463.23004 340.4969Q464.79254 340.4969 465.77692 341.5594Q466.7613 342.6219 466.7613 344.54376Q466.7613 344.66876 466.7613 344.90314L460.9488 344.90314Q461.02692 346.1844 461.66754 346.8719Q462.3238 347.54376 463.30817 347.54376Q464.02692 347.54376 464.54254 347.16876Q465.05817 346.77814 465.35504 345.95ZM461.02692 343.8094L465.37067 343.8094Q465.27692 342.825 464.87067 342.34064Q464.24567 341.575 463.24567 341.575Q462.3238 341.575 461.6988 342.1844Q461.08942 342.79376 461.02692 343.8094ZM470.91754 347.27814L471.10504 348.4344Q470.54254 348.5594 470.10504 348.5594Q469.3863 348.5594 468.98004 348.325Q468.58942 348.09064 468.43317 347.73126Q468.27692 347.35626 468.27692 346.16876L468.27692 341.7L467.30817 341.7L467.30817 340.66876L468.27692 340.66876L468.27692 338.7469L469.58942 337.95L469.58942 340.66876L470.91754 340.66876L470.91754 341.7L469.58942 341.7L469.58942 346.2469Q469.58942 346.8094 469.65192 346.98126Q469.73004 347.1375 469.8863 347.23126Q470.04254 347.325 470.3238 347.325Q470.55817 347.325 470.91754 347.27814ZM477.10504 347.4969Q476.37067 348.10626 475.6988 348.3719Q475.02692 348.6219 474.24567 348.6219Q472.96442 348.6219 472.27692 347.9969Q471.58942 347.3719 471.58942 346.40314Q471.58942 345.825 471.83942 345.35626Q472.10504 344.8875 472.52692 344.60626Q472.9488 344.3094 473.48004 344.16876Q473.85504 344.0594 474.65192 343.96564Q476.24567 343.77814 476.99567 343.5125Q477.0113 343.2469 477.0113 343.16876Q477.0113 342.35626 476.6363 342.02814Q476.12067 341.59064 475.1363 341.59064Q474.1988 341.59064 473.74567 341.91876Q473.30817 342.23126 473.10504 343.0594L471.80817 342.8875Q471.98004 342.0594 472.3863 341.5594Q472.79254 341.04376 473.55817 340.77814Q474.3238 340.4969 475.3238 340.4969Q476.3238 340.4969 476.93317 340.73126Q477.55817 340.96564 477.85504 341.325Q478.15192 341.66876 478.2613 342.21564Q478.3238 342.5594 478.3238 343.4344L478.3238 345.1844Q478.3238 347.02814 478.40192 347.5125Q478.49567 347.9969 478.74567 348.45L477.37067 348.45Q477.16754 348.04376 477.10504 347.4969ZM476.99567 344.54376Q476.27692 344.84064 474.83942 345.04376Q474.02692 345.16876 473.68317 345.3094Q473.35504 345.45 473.16754 345.73126Q472.99567 346.0125 472.99567 346.35626Q472.99567 346.8875 473.3863 347.2469Q473.79254 347.59064 474.55817 347.59064Q475.3238 347.59064 475.91754 347.2625Q476.5113 346.91876 476.79254 346.34064Q476.99567 345.90314 476.99567 345.02814L476.99567 344.54376ZM480.40192 348.45L480.40192 346.95L481.90192 346.95L481.90192 348.45L480.40192 348.45ZM490.58942 347.1844L490.58942 348.45L483.49567 348.45Q483.48004 347.98126 483.65192 347.52814Q483.91754 346.8094 484.5113 346.10626Q485.12067 345.40314 486.24567 344.48126Q487.99567 343.04376 488.60504 342.21564Q489.23004 341.3719 489.23004 340.6219Q489.23004 339.84064 488.66754 339.3094Q488.10504 338.7625 487.1988 338.7625Q486.24567 338.7625 485.66754 339.34064Q485.10504 339.90314 485.10504 340.91876L483.74567 340.77814Q483.8863 339.2625 484.79254 338.46564Q485.6988 337.66876 487.23004 337.66876Q488.77692 337.66876 489.66754 338.52814Q490.5738 339.3875 490.5738 340.65314Q490.5738 341.29376 490.30817 341.91876Q490.05817 342.54376 489.43317 343.23126Q488.8238 343.91876 487.40192 345.1219Q486.21442 346.10626 485.87067 346.46564Q485.54254 346.825 485.3238 347.1844L490.58942 347.1844Z" fill-rule="nonzero"/></svg>