<svg version="1.1" viewBox="0.0 0.0 1248.0 192.0" fill="none" stroke="none" stroke-linecap="square" stroke-miterlimit="10" xmlns:xlink="http://www.w3.org/1999/xlink" xmlns="http://www.w3.org/2000/svg"><clipPath id="g1dedc90ab22_0_60.0"><path d="m0 0l1248.0 0l0 192.0l-1248.0 0l0 -192.0z" clip-rule="nonzero"/></clipPath><g clip-path="url(#g1dedc90ab22_0_60.0)"><path fill="#ffffff" d="m0 0l1248.0 0l0 192.0l-1248.0 0z" fill-rule="evenodd"/><path fill="#d6d5d5" d="m107.67979 76.651115l0 0c0 -5.3432083 4.3315277 -9.674736 9.674736 -9.674736l106.91824 0c2.5659027 0 5.026718 1.0192947 6.8410797 2.833664c1.8143616 1.8143616 2.833664 4.2751694 2.833664 6.841072l0 38.69777c0 5.3432083 -4.3315277 9.674736 -9.674744 9.674736l-106.91824 0c-5.3432083 0 -9.674736 -4.3315277 -9.674736 -9.674736z" fill-rule="evenodd"/><path stroke="#5e5e5e" stroke-width="1.0" stroke-linejoin="round" stroke-linecap="butt" d="m107.67979 76.651115l0 0c0 -5.3432083 4.3315277 -9.674736 9.674736 -9.674736l106.91824 0c2.5659027 0 5.026718 1.0192947 6.8410797 2.833664c1.8143616 1.8143616 2.833664 4.2751694 2.833664 6.841072l0 38.69777c0 5.3432083 -4.3315277 9.674736 -9.674744 9.674736l-106.91824 0c-5.3432083 0 -9.674736 -4.3315277 -9.674736 -9.674736z" fill-rule="evenodd"/><path fill="#000000" d="m143.97282 91.2l0 -14.3125l2.859375 0l3.375 10.125q0.46875 1.421875 0.6875 2.125q0.25 -0.78125 0.765625 -2.296875l3.421875 -9.953125l2.546875 0l0 14.3125l-1.8125 0l0 -11.984375l-4.171875 11.984375l-1.703125 0l-4.140625 -12.1875l0 12.1875l-1.828125 0zm27.566406 -1.53125q1.328125 0.90625 2.4375 1.328125l-0.5625 1.3125q-1.546875 -0.546875 -3.078125 -1.75q-1.59375 0.890625 -3.515625 0.890625q-1.9375 0 -3.53125 -0.9375q-1.578125 -0.9375 -2.4375 -2.640625q-0.84375 -1.703125 -0.84375 -3.828125q0 -2.125 0.859375 -3.859375q0.859375 -1.734375 2.4375 -2.640625q1.59375 -0.921875 3.5625 -0.921875q1.984375 0 3.5625 0.953125q1.59375 0.9375 2.421875 2.640625q0.84375 1.6875 0.84375 3.8125q0 1.765625 -0.53125 3.1875q-0.53125 1.40625 -1.625 2.453125zm-4.171875 -2.421875q1.640625 0.453125 2.703125 1.359375q1.671875 -1.515625 1.671875 -4.578125q0 -1.734375 -0.59375 -3.03125q-0.578125 -1.296875 -1.71875 -2.015625q-1.140625 -0.71875 -2.5625 -0.71875q-2.109375 0 -3.515625 1.453125q-1.390625 1.4375 -1.390625 4.328125q0 2.796875 1.375 4.296875q1.390625 1.484375 3.53125 1.484375q1.015625 0 1.921875 -0.390625q-0.890625 -0.5625 -1.875 -0.8125l0.453125 -1.375zm12.525391 3.953125l0 -12.625l-4.71875 0l0 -1.6875l11.34375 0l0 1.6875l-4.734375 0l0 12.625l-1.890625 0zm12.216797 0l0 -12.625l-4.71875 0l0 -1.6875l11.34375 0l0 1.6875l-4.734375 0l0 12.625l-1.890625 0z" fill-rule="nonzero"/><path fill="#000000" d="m131.54509 119.16875l0 -14.34375l1.609375 0l0 1.34375q0.5625 -0.78125 1.265625 -1.171875q0.71875 -0.40625 1.734375 -0.40625q1.328125 0 2.34375 0.6875q1.015625 0.6875 1.53125 1.9375q0.53125 1.234375 0.53125 2.71875q0 1.59375 -0.578125 2.875q-0.5625 1.265625 -1.65625 1.953125q-1.09375 0.671875 -2.296875 0.671875q-0.875 0 -1.578125 -0.375q-0.6875 -0.375 -1.140625 -0.9375l0 5.046875l-1.765625 0zm1.59375 -9.09375q0 2.0 0.8125 2.953125q0.8125 0.953125 1.96875 0.953125q1.171875 0 2.0 -0.984375q0.84375 -0.984375 0.84375 -3.078125q0 -1.96875 -0.828125 -2.953125q-0.8125 -1.0 -1.9375 -1.0q-1.125 0 -2.0 1.0625q-0.859375 1.046875 -0.859375 3.046875zm16.326172 5.125l0 -1.53125q-1.203125 1.765625 -3.28125 1.765625q-0.921875 0 -1.71875 -0.34375q-0.796875 -0.359375 -1.1875 -0.890625q-0.375 -0.53125 -0.53125 -1.3125q-0.109375 -0.515625 -0.109375 -1.640625l0 -6.421875l1.75 0l0 5.75q0 1.375 0.109375 1.859375q0.171875 0.6875 0.703125 1.09375q0.546875 0.390625 1.328125 0.390625q0.796875 0 1.484375 -0.40625q0.703125 -0.40625 0.984375 -1.09375q0.296875 -0.703125 0.296875 -2.03125l0 -5.5625l1.75 0l0 10.375l-1.578125 0zm5.951172 0l-1.625 0l0 -14.3125l1.75 0l0 5.109375q1.125 -1.40625 2.84375 -1.40625q0.953125 0 1.8125 0.390625q0.859375 0.390625 1.40625 1.09375q0.546875 0.6875 0.859375 1.671875q0.3125 0.984375 0.3125 2.109375q0 2.671875 -1.3125 4.125q-1.3125 1.453125 -3.15625 1.453125q-1.84375 0 -2.890625 -1.53125l0 1.296875zm-0.015625 -5.265625q0 1.859375 0.5 2.703125q0.84375 1.34375 2.25 1.34375q1.15625 0 1.984375 -1.0q0.84375 -1.0 0.84375 -2.984375q0 -2.03125 -0.8125 -2.984375q-0.796875 -0.96875 -1.9375 -0.96875q-1.15625 0 -2.0 1.0q-0.828125 1.0 -0.828125 2.890625zm9.482422 5.265625l0 -14.3125l1.75 0l0 14.3125l-1.75 0zm4.4902344 -12.296875l0 -2.015625l1.765625 0l0 2.015625l-1.765625 0zm0 12.296875l0 -10.375l1.765625 0l0 10.375l-1.765625 0zm3.7246094 -3.09375l1.75 -0.28125q0.140625 1.046875 0.8125 1.609375q0.671875 0.546875 1.875 0.546875q1.203125 0 1.78125 -0.484375q0.59375 -0.5 0.59375 -1.15625q0 -0.59375 -0.515625 -0.9375q-0.359375 -0.234375 -1.796875 -0.59375q-1.9375 -0.5 -2.6875 -0.84375q-0.734375 -0.359375 -1.125 -0.984375q-0.390625 -0.640625 -0.390625 -1.40625q0 -0.6875 0.3125 -1.28125q0.328125 -0.59375 0.875 -0.984375q0.40625 -0.296875 1.109375 -0.5q0.71875 -0.21875 1.53125 -0.21875q1.21875 0 2.140625 0.359375q0.921875 0.34375 1.359375 0.953125q0.4375 0.59375 0.609375 1.59375l-1.71875 0.234375q-0.125 -0.796875 -0.6875 -1.234375q-0.5625 -0.453125 -1.578125 -0.453125q-1.21875 0 -1.734375 0.40625q-0.515625 0.390625 -0.515625 0.921875q0 0.34375 0.21875 0.625q0.203125 0.28125 0.671875 0.46875q0.265625 0.09375 1.546875 0.4375q1.875 0.5 2.609375 0.828125q0.734375 0.3125 1.15625 0.921875q0.421875 0.59375 0.421875 1.5q0 0.875 -0.515625 1.65625q-0.515625 0.78125 -1.484375 1.203125q-0.96875 0.421875 -2.1875 0.421875q-2.015625 0 -3.078125 -0.84375q-1.0625 -0.84375 -1.359375 -2.484375zm10.703125 3.09375l0 -14.3125l1.765625 0l0 5.125q1.234375 -1.421875 3.109375 -1.421875q1.140625 0 1.984375 0.453125q0.859375 0.453125 1.21875 1.265625q0.375 0.796875 0.375 2.3125l0 6.578125l-1.75 0l0 -6.578125q0 -1.3125 -0.578125 -1.90625q-0.578125 -0.609375 -1.609375 -0.609375q-0.78125 0 -1.484375 0.40625q-0.6875 0.40625 -0.984375 1.109375q-0.28125 0.6875 -0.28125 1.90625l0 5.671875l-1.765625 0zm18.232422 -3.34375l1.8125 0.234375q-0.421875 1.578125 -1.59375 2.46875q-1.15625 0.875 -2.96875 0.875q-2.265625 0 -3.609375 -1.390625q-1.328125 -1.40625 -1.328125 -3.9375q0 -2.625 1.34375 -4.0625q1.34375 -1.453125 3.5 -1.453125q2.078125 0 3.390625 1.421875q1.328125 1.40625 1.328125 3.984375q0 0.15625 -0.015625 0.46875l-7.734375 0q0.09375 1.703125 0.96875 2.609375q0.875 0.90625 2.171875 0.90625q0.96875 0 1.640625 -0.5q0.6875 -0.515625 1.09375 -1.625zm-5.78125 -2.84375l5.796875 0q-0.109375 -1.296875 -0.65625 -1.953125q-0.84375 -1.015625 -2.1875 -1.015625q-1.203125 0 -2.03125 0.8125q-0.828125 0.796875 -0.921875 2.15625zm9.779297 6.1875l0 -10.375l1.578125 0l0 1.578125q0.609375 -1.109375 1.125 -1.453125q0.515625 -0.359375 1.125 -0.359375q0.890625 0 1.8125 0.5625l-0.609375 1.640625q-0.640625 -0.390625 -1.28125 -0.390625q-0.578125 0 -1.046875 0.359375q-0.453125 0.34375 -0.65625 0.953125q-0.28125 0.9375 -0.28125 2.046875l0 5.4375l-1.765625 0z" fill-rule="nonzero"/><path fill="#000000" fill-opacity="0.0" d="m233.94751 96.0l355.40155 0" fill-rule="evenodd"/><path stroke="#595959" stroke-width="3.0" stroke-linejoin="round" stroke-linecap="butt" d="m233.94751 96.0l337.40155 0" fill-rule="evenodd"/><path fill="#595959" stroke="#595959" stroke-width="3.0" stroke-linecap="butt" d="m571.34906 100.9552l13.614319 -4.9552l-13.614319 -4.9552z" fill-rule="evenodd"/><path fill="#000000" fill-opacity="0.0" d="m308.7819 57.701836l118.58267 0l0 76.59843l-118.58267 0z" fill-rule="evenodd"/><path fill="#000000" d="m335.68564 94.416214l0 -15.296875l1.703125 0l0 1.4375q0.609375 -0.84375 1.359375 -1.265625q0.765625 -0.421875 1.859375 -0.421875q1.40625 0 2.484375 0.734375q1.09375 0.71875 1.640625 2.046875q0.546875 1.328125 0.546875 2.921875q0 1.6875 -0.609375 3.046875q-0.59375 1.359375 -1.765625 2.09375q-1.15625 0.71875 -2.4375 0.71875q-0.9375 0 -1.6875 -0.390625q-0.734375 -0.40625 -1.21875 -1.0l0 5.375l-1.875 0zm1.703125 -9.703125q0 2.140625 0.859375 3.15625q0.859375 1.015625 2.09375 1.015625q1.25 0 2.140625 -1.046875q0.890625 -1.0625 0.890625 -3.28125q0 -2.109375 -0.875 -3.15625q-0.859375 -1.0625 -2.078125 -1.0625q-1.1875 0 -2.109375 1.125q-0.921875 1.109375 -0.921875 3.25zm17.40857 5.46875l0 -1.625q-1.296875 1.875 -3.515625 1.875q-0.96875 0 -1.828125 -0.375q-0.84375 -0.375 -1.265625 -0.9375q-0.40625 -0.578125 -0.5625 -1.390625q-0.125 -0.5625 -0.125 -1.75l0 -6.859375l1.875 0l0 6.140625q0 1.46875 0.125 1.96875q0.171875 0.75 0.734375 1.171875q0.578125 0.421875 1.421875 0.421875q0.84375 0 1.578125 -0.4375q0.75 -0.4375 1.046875 -1.171875q0.3125 -0.75 0.3125 -2.171875l0 -5.921875l1.875 0l0 11.0625l-1.671875 0zm6.3460693 0l-1.75 0l0 -15.265625l1.875 0l0 5.4375q1.1875 -1.484375 3.03125 -1.484375q1.03125 0 1.9375 0.421875q0.90625 0.40625 1.5 1.15625q0.59375 0.734375 0.921875 1.796875q0.328125 1.046875 0.328125 2.234375q0 2.84375 -1.40625 4.40625q-1.40625 1.546875 -3.375 1.546875q-1.953125 0 -3.0625 -1.640625l0 1.390625zm-0.03125 -5.609375q0 1.984375 0.546875 2.875q0.890625 1.4375 2.390625 1.4375q1.234375 0 2.125 -1.0625q0.90625 -1.0625 0.90625 -3.1875q0 -2.15625 -0.859375 -3.1875q-0.859375 -1.03125 -2.078125 -1.03125q-1.234375 0 -2.140625 1.0625q-0.890625 1.0625 -0.890625 3.09375zm10.111694 5.609375l0 -15.265625l1.8749695 0l0 15.265625l-1.8749695 0zm4.8009033 -13.109375l0 -2.15625l1.875 0l0 2.15625l-1.875 0zm0 13.109375l0 -11.0625l1.875 0l0 11.0625l-1.875 0zm3.9728088 -3.296875l1.859375 -0.296875q0.15625 1.109375 0.859375 1.703125q0.71875 0.59375 2.0 0.59375q1.296875 0 1.921875 -0.515625q0.625 -0.53125 0.625 -1.234375q0 -0.640625 -0.5625 -1.0q-0.375 -0.25 -1.90625 -0.640625q-2.0625 -0.515625 -2.859375 -0.890625q-0.796875 -0.390625 -1.21875 -1.0625q-0.40625 -0.671875 -0.40625 -1.484375q0 -0.734375 0.328125 -1.359375q0.34375 -0.640625 0.9375 -1.0625q0.4375 -0.3125 1.1875 -0.53125q0.75 -0.234375 1.625 -0.234375q1.296875 0 2.28125 0.375q0.984375 0.375 1.453125 1.015625q0.46875 0.640625 0.640625 1.71875l-1.828125 0.25q-0.125 -0.859375 -0.734375 -1.328125q-0.59375 -0.484375 -1.6875 -0.484375q-1.28125 0 -1.84375 0.421875q-0.546875 0.421875 -0.546875 1.0q0 0.359375 0.234375 0.65625q0.21875 0.296875 0.71875 0.5q0.28125 0.109375 1.65625 0.484375q1.984375 0.53125 2.765625 0.875q0.796875 0.328125 1.234375 0.984375q0.453125 0.640625 0.453125 1.59375q0 0.9375 -0.546875 1.765625q-0.546875 0.828125 -1.578125 1.28125q-1.03125 0.453125 -2.328125 0.453125q-2.15625 0 -3.296875 -0.890625q-1.125 -0.90625 -1.4375 -2.65625zm11.4140625 3.296875l0 -15.265625l1.875 0l0 5.46875q1.3125 -1.515625 3.3125 -1.515625q1.234375 0 2.140625 0.484375q0.90625 0.484375 1.296875 1.34375q0.390625 0.84375 0.390625 2.46875l0 7.015625l-1.875 0l0 -7.015625q0 -1.40625 -0.609375 -2.046875q-0.609375 -0.640625 -1.734375 -0.640625q-0.828125 0 -1.5625 0.4375q-0.734375 0.4375 -1.046875 1.171875q-0.3125 0.734375 -0.3125 2.046875l0 6.046875l-1.875 0z" fill-rule="nonzero"/><path fill="#000000" d="m325.26627 115.78184l-4.21875 -11.0625l1.984375 0l2.375 6.625q0.390625 1.078125 0.703125 2.234375q0.25 -0.875 0.703125 -2.109375l2.453125 -6.75l1.9375 0l-4.1875 11.0625l-1.75 0zm7.6015625 -13.109375l0 -2.15625l1.875 0l0 2.15625l-1.875 0zm0 13.109375l0 -11.0625l1.875 0l0 11.0625l-1.875 0zm11.941559 -1.359375q-1.046875 0.875 -2.015625 1.25q-0.953125 0.359375 -2.0625 0.359375q-1.8125 0 -2.796875 -0.890625q-0.984375 -0.890625 -0.984375 -2.28125q0 -0.8125 0.375 -1.484375q0.375 -0.671875 0.96875 -1.078125q0.59375 -0.40625 1.34375 -0.609375q0.5625 -0.140625 1.671875 -0.28125q2.265625 -0.265625 3.34375 -0.640625q0.015625 -0.390625 0.015625 -0.5q0 -1.140625 -0.53125 -1.609375q-0.71875 -0.640625 -2.140625 -0.640625q-1.328125 0 -1.953125 0.46875q-0.625 0.46875 -0.9375 1.640625l-1.828125 -0.25q0.25 -1.171875 0.8125 -1.890625q0.578125 -0.734375 1.65625 -1.125q1.09375 -0.390625 2.515625 -0.390625q1.421875 0 2.296875 0.34375q0.890625 0.328125 1.3125 0.828125q0.421875 0.5 0.578125 1.28125q0.09375 0.46875 0.09375 1.71875l0 2.5q0 2.625 0.125 3.3125q0.125 0.6875 0.46875 1.328125l-1.953125 0q-0.296875 -0.578125 -0.375 -1.359375zm-0.15625 -4.1875q-1.015625 0.40625 -3.0625 0.703125q-1.15625 0.171875 -1.640625 0.375q-0.46875 0.203125 -0.734375 0.609375q-0.265625 0.40625 -0.265625 0.890625q0 0.75 0.5625 1.25q0.578125 0.5 1.671875 0.5q1.078125 0 1.921875 -0.46875q0.84375 -0.484375 1.25 -1.296875q0.296875 -0.640625 0.296875 -1.875l0 -0.6875zm10.896698 5.546875l0 -15.265625l3.046875 0l3.609375 10.8125q0.5 1.5 0.734375 2.25q0.265625 -0.828125 0.8125 -2.4375l3.65625 -10.625l2.71875 0l0 15.265625l-1.953125 0l0 -12.78125l-4.4375 12.78125l-1.8125 0l-4.421875 -13.0l0 13.0l-1.953125 0zm29.407135 -1.640625q1.40625 0.96875 2.59375 1.421875l-0.59375 1.40625q-1.65625 -0.59375 -3.28125 -1.875q-1.703125 0.953125 -3.75 0.953125q-2.078125 0 -3.765625 -1.0q-1.6875 -1.0 -2.59375 -2.8125q-0.90625 -1.8125 -0.90625 -4.09375q0 -2.25 0.90625 -4.09375q0.921875 -1.859375 2.609375 -2.828125q1.703125 -0.96875 3.796875 -0.96875q2.109375 0 3.796875 1.0q1.703125 1.0 2.59375 2.8125q0.890625 1.796875 0.890625 4.078125q0 1.875 -0.578125 3.390625q-0.5625 1.5 -1.71875 2.609375zm-4.453125 -2.578125q1.75 0.484375 2.890625 1.453125q1.78125 -1.625 1.78125 -4.875q0 -1.859375 -0.640625 -3.234375q-0.625 -1.390625 -1.84375 -2.15625q-1.203125 -0.765625 -2.71875 -0.765625q-2.25 0 -3.75 1.546875q-1.484375 1.546875 -1.484375 4.609375q0 2.984375 1.46875 4.578125q1.484375 1.59375 3.765625 1.59375q1.09375 0 2.046875 -0.40625q-0.953125 -0.609375 -2.0 -0.875l0.484375 -1.46875zm13.355316 4.21875l0 -13.46875l-5.03125 0l0 -1.796875l12.09375 0l0 1.796875l-5.046875 0l0 13.46875l-2.015625 0zm13.028076 0l0 -13.46875l-5.03125 0l0 -1.796875l12.09375 0l0 1.796875l-5.046875 0l0 13.46875l-2.015625 0z" fill-rule="nonzero"/><path fill="#000000" fill-opacity="0.0" d="m839.86334 54.07874l87.33862 0l0 50.74016l-87.33862 0z" fill-rule="evenodd"/><path fill="#000000" d="m853.25397 86.55874l0 -11.0625l1.6875 0l0 1.671875q0.640625 -1.171875 1.1875 -1.546875q0.546875 -0.375 1.203125 -0.375q0.953125 0 1.921875 0.609375l-0.640625 1.734375q-0.6875 -0.40625 -1.375 -0.40625q-0.609375 0 -1.109375 0.375q-0.484375 0.359375 -0.6875 1.015625q-0.3125 1.0 -0.3125 2.1875l0 5.796875l-1.875 0zm6.414978 -5.53125q0 -3.078125 1.71875 -4.546875q1.421875 -1.234375 3.46875 -1.234375q2.28125 0 3.71875 1.5q1.453125 1.484375 1.453125 4.125q0 2.140625 -0.640625 3.359375q-0.625 1.21875 -1.859375 1.90625q-1.21875 0.671875 -2.671875 0.671875q-2.3125 0 -3.75 -1.484375q-1.4375 -1.5 -1.4375 -4.296875zm1.9375 0q0 2.125 0.921875 3.1875q0.921875 1.046875 2.328125 1.046875q1.40625 0 2.328125 -1.0625q0.921875 -1.0625 0.921875 -3.234375q0 -2.046875 -0.9375 -3.109375q-0.921875 -1.0625 -2.3125 -1.0625q-1.40625 0 -2.328125 1.0625q-0.921875 1.046875 -0.921875 3.171875zm17.87732 5.53125l0 -1.625q-1.296875 1.875 -3.515625 1.875q-0.96875 0 -1.828125 -0.375q-0.84375 -0.375 -1.265625 -0.9375q-0.40625 -0.578125 -0.5625 -1.390625q-0.125 -0.5625 -0.125 -1.75l0 -6.859375l1.875 0l0 6.140625q0 1.46875 0.125 1.96875q0.171875 0.75 0.734375 1.171875q0.578125 0.421875 1.421875 0.421875q0.84375 0 1.578125 -0.4375q0.75 -0.4375 1.046875 -1.171875q0.3125 -0.75 0.3125 -2.171875l0 -5.921875l1.875 0l0 11.0625l-1.671875 0zm8.705444 -1.671875l0.265625 1.65625q-0.78125 0.15625 -1.40625 0.15625q-1.03125 0 -1.59375 -0.3125q-0.5625 -0.328125 -0.796875 -0.84375q-0.21875 -0.53125 -0.21875 -2.21875l0 -6.375l-1.375 0l0 -1.453125l1.375 0l0 -2.734375l1.859375 -1.125l0 3.859375l1.890625 0l0 1.453125l-1.890625 0l0 6.46875q0 0.8125 0.09375 1.046875q0.109375 0.21875 0.328125 0.359375q0.234375 0.125 0.640625 0.125q0.3125 0 0.828125 -0.0625zm9.409973 -1.890625l1.921875 0.234375q-0.453125 1.703125 -1.6875 2.640625q-1.234375 0.9375 -3.171875 0.9375q-2.421875 0 -3.84375 -1.484375q-1.421875 -1.5 -1.421875 -4.203125q0 -2.796875 1.4375 -4.328125q1.4375 -1.546875 3.734375 -1.546875q2.21875 0 3.609375 1.515625q1.40625 1.5 1.40625 4.25q0 0.15625 0 0.5l-8.25 0q0.109375 1.8125 1.03125 2.78125q0.921875 0.96875 2.3125 0.96875q1.03125 0 1.75 -0.53125q0.734375 -0.546875 1.171875 -1.734375zm-6.15625 -3.03125l6.171875 0q-0.125 -1.390625 -0.703125 -2.09375q-0.90625 -1.078125 -2.328125 -1.078125q-1.296875 0 -2.171875 0.859375q-0.875 0.859375 -0.96875 2.3125z" fill-rule="nonzero"/><path fill="#000000" fill-opacity="0.0" d="m540.1732 9.496063l614.45667 0l0 173.00787l-614.45667 0z" fill-rule="evenodd"/><path stroke="#ff9900" stroke-width="4.0" stroke-linejoin="round" stroke-linecap="butt" d="m540.1732 9.496063l614.45667 0l0 173.00787l-614.45667 0z" fill-rule="evenodd"/><path fill="#000000" fill-opacity="0.0" d="m815.8714 138.0158l143.71655 0l0 53.984253l-143.71655 0z" fill-rule="evenodd"/><path fill="#ff9900" d="m829.637 173.0558l0 -17.1875l7.296875 0q2.75 0 4.0 0.46875q1.25 0.46875 2.0 1.65625q0.75 1.171875 0.75 2.703125q0 1.921875 -1.140625 3.1875q-1.140625 1.265625 -3.390625 1.59375q1.125 0.65625 1.84375 1.4375q0.734375 0.78125 1.984375 2.78125l2.09375 3.359375l-4.140625 0l-2.515625 -3.734375q-1.328125 -2.015625 -1.828125 -2.53125q-0.484375 -0.515625 -1.046875 -0.703125q-0.546875 -0.203125 -1.734375 -0.203125l-0.703125 0l0 7.171875l-3.46875 0zm3.46875 -9.921875l2.5625 0q2.5 0 3.109375 -0.203125q0.625 -0.21875 0.96875 -0.734375q0.359375 -0.515625 0.359375 -1.28125q0 -0.875 -0.46875 -1.40625q-0.453125 -0.53125 -1.296875 -0.671875q-0.421875 -0.0625 -2.53125 -0.0625l-2.703125 0l0 4.359375zm16.285156 1.265625l-2.984375 -0.53125q0.5 -1.8125 1.71875 -2.671875q1.234375 -0.875 3.671875 -0.875q2.203125 0 3.28125 0.53125q1.078125 0.515625 1.515625 1.328125q0.4375 0.796875 0.4375 2.9375l-0.03125 3.84375q0 1.640625 0.15625 2.421875q0.15625 0.78125 0.59375 1.671875l-3.265625 0q-0.125 -0.328125 -0.3125 -0.96875q-0.078125 -0.296875 -0.125 -0.390625q-0.84375 0.8125 -1.8125 1.234375q-0.953125 0.40625 -2.03125 0.40625q-1.921875 0 -3.03125 -1.046875q-1.109375 -1.046875 -1.109375 -2.640625q0 -1.046875 0.5 -1.875q0.5 -0.828125 1.40625 -1.265625q0.921875 -0.4375 2.625 -0.765625q2.3125 -0.4375 3.203125 -0.8125l0 -0.328125q0 -0.953125 -0.46875 -1.34375q-0.46875 -0.40625 -1.765625 -0.40625q-0.890625 0 -1.390625 0.34375q-0.484375 0.34375 -0.78125 1.203125zm4.40625 2.671875q-0.640625 0.21875 -2.015625 0.515625q-1.359375 0.28125 -1.78125 0.5625q-0.640625 0.46875 -0.640625 1.171875q0 0.6875 0.515625 1.1875q0.515625 0.5 1.3125 0.5q0.890625 0 1.6875 -0.578125q0.609375 -0.453125 0.796875 -1.09375q0.125 -0.421875 0.125 -1.609375l0 -0.65625zm6.3320312 5.984375l0 -17.1875l3.296875 0l0 6.1875q1.53125 -1.734375 3.609375 -1.734375q2.28125 0 3.765625 1.65625q1.484375 1.640625 1.484375 4.71875q0 3.1875 -1.515625 4.921875q-1.515625 1.71875 -3.6875 1.71875q-1.0625 0 -2.109375 -0.53125q-1.03125 -0.53125 -1.78125 -1.578125l0 1.828125l-3.0625 0zm3.28125 -6.5q0 1.9375 0.609375 2.859375q0.84375 1.3125 2.265625 1.3125q1.09375 0 1.859375 -0.921875q0.765625 -0.9375 0.765625 -2.9375q0 -2.140625 -0.78125 -3.078125q-0.765625 -0.9375 -1.96875 -0.9375q-1.1875 0 -1.96875 0.921875q-0.78125 0.90625 -0.78125 2.78125zm11.378906 6.5l0 -17.1875l3.296875 0l0 6.1875q1.53125 -1.734375 3.609375 -1.734375q2.28125 0 3.765625 1.65625q1.484375 1.640625 1.484375 4.71875q0 3.1875 -1.515625 4.921875q-1.515625 1.71875 -3.6875 1.71875q-1.0625 0 -2.109375 -0.53125q-1.03125 -0.53125 -1.78125 -1.578125l0 1.828125l-3.0625 0zm3.28125 -6.5q0 1.9375 0.609375 2.859375q0.84375 1.3125 2.265625 1.3125q1.09375 0 1.859375 -0.921875q0.765625 -0.9375 0.765625 -2.9375q0 -2.140625 -0.78125 -3.078125q-0.765625 -0.9375 -1.96875 -0.9375q-1.1875 0 -1.96875 0.921875q-0.78125 0.90625 -0.78125 2.78125zm11.519531 -7.640625l0 -3.046875l3.296875 0l0 3.046875l-3.296875 0zm0 14.140625l0 -12.453125l3.296875 0l0 12.453125l-3.296875 0zm12.386719 -12.453125l0 2.625l-2.25 0l0 5.015625q0 1.53125 0.0625 1.78125q0.0625 0.25 0.28125 0.421875q0.234375 0.15625 0.5625 0.15625q0.453125 0 1.328125 -0.3125l0.28125 2.546875q-1.15625 0.5 -2.609375 0.5q-0.890625 0 -1.609375 -0.296875q-0.703125 -0.296875 -1.046875 -0.765625q-0.328125 -0.484375 -0.453125 -1.296875q-0.109375 -0.578125 -0.109375 -2.3125l0 -5.4375l-1.515625 0l0 -2.625l1.515625 0l0 -2.46875l3.3125 -1.921875l0 4.390625l2.25 0zm2.2578125 12.453125l0 -17.1875l5.1875 0l3.125 11.71875l3.078125 -11.71875l5.203125 0l0 17.1875l-3.21875 0l0 -13.53125l-3.421875 13.53125l-3.328125 0l-3.40625 -13.53125l0 13.53125l-3.21875 0zm33.867188 -2.1875q1.28125 0.921875 2.78125 1.453125l-1.28125 2.453125q-0.78125 -0.234375 -1.53125 -0.640625q-0.171875 -0.078125 -2.3125 -1.53125q-1.6875 0.75 -3.734375 0.75q-3.96875 0 -6.21875 -2.328125q-2.234375 -2.34375 -2.234375 -6.5625q0 -4.203125 2.25 -6.53125q2.25 -2.34375 6.109375 -2.34375q3.8125 0 6.046875 2.34375q2.25 2.328125 2.25 6.53125q0 2.234375 -0.625 3.921875q-0.46875 1.28125 -1.5 2.484375zm-2.796875 -1.953125q0.671875 -0.78125 1.0 -1.890625q0.34375 -1.125 0.34375 -2.5625q0 -2.96875 -1.3125 -4.4375q-1.3125 -1.484375 -3.4375 -1.484375q-2.125 0 -3.4375 1.484375q-1.3125 1.46875 -1.3125 4.4375q0 3.015625 1.3125 4.515625q1.3125 1.484375 3.328125 1.484375q0.75 0 1.421875 -0.25q-1.046875 -0.6875 -2.140625 -1.078125l0.96875 -1.96875q1.71875 0.578125 3.265625 1.75z" fill-rule="nonzero"/><path fill="#d6d5d5" d="m589.34644 76.6498l0 0c0 -5.3432083 4.331543 -9.674736 9.674744 -9.674736l106.918274 0c2.565857 0 5.0266724 1.0192947 6.8410645 2.833664c1.814331 1.8143616 2.8336792 4.2751694 2.8336792 6.841072l0 38.69777c0 5.3432083 -4.331543 9.674736 -9.674744 9.674736l-106.918274 0c-5.3432007 0 -9.674744 -4.3315277 -9.674744 -9.674736z" fill-rule="evenodd"/><path stroke="#5e5e5e" stroke-width="1.0" stroke-linejoin="round" stroke-linecap="butt" d="m589.34644 76.6498l0 0c0 -5.3432083 4.331543 -9.674736 9.674744 -9.674736l106.918274 0c2.565857 0 5.0266724 1.0192947 6.8410645 2.833664c1.814331 1.8143616 2.8336792 4.2751694 2.8336792 6.841072l0 38.69777c0 5.3432083 -4.331543 9.674736 -9.674744 9.674736l-106.918274 0c-5.3432007 0 -9.674744 -4.3315277 -9.674744 -9.674736z" fill-rule="evenodd"/><path fill="#000000" d="m625.63947 91.198685l0 -14.3125l2.859375 0l3.375 10.125q0.46875 1.421875 0.6875 2.125q0.25 -0.78125 0.765625 -2.296875l3.421875 -9.953125l2.546875 0l0 14.3125l-1.8125 0l0 -11.984375l-4.171875 11.984375l-1.703125 0l-4.140625 -12.1875l0 12.1875l-1.828125 0zm27.566406 -1.53125q1.328125 0.90625 2.4375 1.328125l-0.5625 1.3125q-1.546875 -0.546875 -3.078125 -1.75q-1.59375 0.890625 -3.515625 0.890625q-1.9375 0 -3.53125 -0.9375q-1.578125 -0.9375 -2.4375 -2.640625q-0.84375 -1.703125 -0.84375 -3.828125q0 -2.125 0.859375 -3.859375q0.859375 -1.734375 2.4375 -2.640625q1.59375 -0.921875 3.5625 -0.921875q1.984375 0 3.5625 0.953125q1.59375 0.9375 2.421875 2.640625q0.84375 1.6875 0.84375 3.8125q0 1.765625 -0.53125 3.1875q-0.53125 1.40625 -1.625 2.453125zm-4.171875 -2.421875q1.640625 0.453125 2.703125 1.359375q1.671875 -1.515625 1.671875 -4.578125q0 -1.734375 -0.59375 -3.03125q-0.578125 -1.296875 -1.71875 -2.015625q-1.140625 -0.71875 -2.5625 -0.71875q-2.109375 0 -3.515625 1.453125q-1.390625 1.4375 -1.390625 4.328125q0 2.796875 1.375 4.296875q1.390625 1.484375 3.53125 1.484375q1.015625 0 1.921875 -0.390625q-0.890625 -0.5625 -1.875 -0.8125l0.453125 -1.375zm12.525391 3.953125l0 -12.625l-4.71875 0l0 -1.6875l11.34375 0l0 1.6875l-4.734375 0l0 12.625l-1.890625 0zm12.216797 0l0 -12.625l-4.71875 0l0 -1.6875l11.34375 0l0 1.6875l-4.734375 0l0 12.625l-1.890625 0z" fill-rule="nonzero"/><path fill="#000000" d="m627.10333 119.167435l0 -14.34375l1.609375 0l0 1.34375q0.5625 -0.78125 1.265625 -1.171875q0.71875 -0.40625 1.734375 -0.40625q1.328125 0 2.34375 0.6875q1.015625 0.6875 1.53125 1.9375q0.53125 1.234375 0.53125 2.71875q0 1.59375 -0.578125 2.875q-0.5625 1.265625 -1.65625 1.953125q-1.09375 0.671875 -2.296875 0.671875q-0.875 0 -1.578125 -0.375q-0.6875 -0.375 -1.140625 -0.9375l0 5.046875l-1.765625 0zm1.59375 -9.09375q0 2.0 0.8125 2.953125q0.8125 0.953125 1.96875 0.953125q1.171875 0 2.0 -0.984375q0.84375 -0.984375 0.84375 -3.078125q0 -1.96875 -0.828125 -2.953125q-0.8125 -1.0 -1.9375 -1.0q-1.125 0 -2.0 1.0625q-0.859375 1.046875 -0.859375 3.046875zm9.498047 5.125l0 -14.3125l1.75 0l0 14.3125l-1.75 0zm11.271484 0l0 -1.53125q-1.203125 1.765625 -3.28125 1.765625q-0.921875 0 -1.71875 -0.34375q-0.796875 -0.359375 -1.1875 -0.890625q-0.375 -0.53125 -0.53125 -1.3125q-0.109375 -0.515625 -0.109375 -1.640625l0 -6.421875l1.75 0l0 5.75q0 1.375 0.109375 1.859375q0.171875 0.6875 0.703125 1.09375q0.546875 0.390625 1.328125 0.390625q0.796875 0 1.484375 -0.40625q0.703125 -0.40625 0.984375 -1.09375q0.296875 -0.703125 0.296875 -2.03125l0 -5.5625l1.75 0l0 10.375l-1.578125 0zm4.013672 0.859375l1.703125 0.25q0.109375 0.796875 0.59375 1.15625q0.65625 0.484375 1.796875 0.484375q1.21875 0 1.875 -0.484375q0.671875 -0.484375 0.90625 -1.359375q0.140625 -0.546875 0.125 -2.265625q-1.15625 1.359375 -2.875 1.359375q-2.140625 0 -3.3125 -1.546875q-1.171875 -1.546875 -1.171875 -3.703125q0 -1.484375 0.53125 -2.734375q0.546875 -1.25 1.5625 -1.9375q1.03125 -0.6875 2.40625 -0.6875q1.828125 0 3.03125 1.484375l0 -1.25l1.609375 0l0 8.96875q0 2.421875 -0.5 3.421875q-0.484375 1.015625 -1.5625 1.59375q-1.0625 0.59375 -2.625 0.59375q-1.84375 0 -3.0 -0.828125q-1.140625 -0.828125 -1.09375 -2.515625zm1.453125 -6.234375q0 2.046875 0.8125 2.984375q0.8125 0.9375 2.03125 0.9375q1.203125 0 2.015625 -0.9375q0.828125 -0.9375 0.828125 -2.921875q0 -1.90625 -0.84375 -2.875q-0.84375 -0.96875 -2.03125 -0.96875q-1.171875 0 -2.0 0.953125q-0.8125 0.953125 -0.8125 2.828125zm9.998047 -6.921875l0 -2.015625l1.765625 0l0 2.015625l-1.765625 0zm0 12.296875l0 -10.375l1.765625 0l0 10.375l-1.765625 0zm4.4277344 0l0 -10.375l1.59375 0l0 1.484375q1.140625 -1.71875 3.296875 -1.71875q0.9375 0 1.71875 0.34375q0.796875 0.328125 1.1875 0.875q0.390625 0.546875 0.546875 1.296875q0.09375 0.5 0.09375 1.71875l0 6.375l-1.765625 0l0 -6.3125q0 -1.078125 -0.203125 -1.609375q-0.203125 -0.53125 -0.734375 -0.84375q-0.515625 -0.3125 -1.21875 -0.3125q-1.125 0 -1.9375 0.71875q-0.8125 0.703125 -0.8125 2.6875l0 5.671875l-1.765625 0z" fill-rule="nonzero"/><path fill="#d6d5d5" d="m1005.92126 76.651115l0 0c0 -5.3432083 4.331543 -9.674736 9.674744 -9.674736l106.918274 0c2.565918 0 5.0266113 1.0192947 6.8410645 2.833664c1.814331 1.8143616 2.8336182 4.2751694 2.8336182 6.841072l0 38.69777c0 5.3432083 -4.331543 9.674736 -9.674683 9.674736l-106.918274 0c-5.3432007 0 -9.674744 -4.3315277 -9.674744 -9.674736z" fill-rule="evenodd"/><path stroke="#5e5e5e" stroke-width="1.0" stroke-linejoin="round" stroke-linecap="butt" d="m1005.92126 76.651115l0 0c0 -5.3432083 4.331543 -9.674736 9.674744 -9.674736l106.918274 0c2.565918 0 5.0266113 1.0192947 6.8410645 2.833664c1.814331 1.8143616 2.8336182 4.2751694 2.8336182 6.841072l0 38.69777c0 5.3432083 -4.331543 9.674736 -9.674683 9.674736l-106.918274 0c-5.3432007 0 -9.674744 -4.3315277 -9.674744 -9.674736z" fill-rule="evenodd"/><path fill="#000000" d="m1043.6737 100.811874q1.140625 0.78125 2.109375 1.15625l-0.484375 1.140625q-1.328125 -0.484375 -2.65625 -1.53125q-1.390625 0.78125 -3.046875 0.78125q-1.6875 0 -3.0625 -0.8125q-1.375 -0.8125 -2.109375 -2.28125q-0.734375 -1.484375 -0.734375 -3.328125q0 -1.828125 0.734375 -3.328125q0.75 -1.515625 2.125 -2.296875q1.375 -0.796875 3.078125 -0.796875q1.71875 0 3.09375 0.828125q1.375 0.8125 2.09375 2.28125q0.734375 1.453125 0.734375 3.3125q0 1.53125 -0.46875 2.75q-0.46875 1.21875 -1.40625 2.125zm-3.609375 -2.09375q1.421875 0.390625 2.34375 1.1875q1.453125 -1.328125 1.453125 -3.96875q0 -1.515625 -0.515625 -2.640625q-0.515625 -1.125 -1.5 -1.734375q-0.984375 -0.625 -2.21875 -0.625q-1.828125 0 -3.046875 1.25q-1.203125 1.25 -1.203125 3.75q0 2.421875 1.1875 3.71875q1.203125 1.296875 3.0625 1.296875q0.890625 0 1.65625 -0.328125q-0.765625 -0.5 -1.625 -0.71875l0.40625 -1.1875zm13.384644 3.421875l0 -1.3125q-1.046875 1.515625 -2.84375 1.515625q-0.796875 0 -1.5 -0.296875q-0.6875 -0.3125 -1.015625 -0.765625q-0.328125 -0.46875 -0.46875 -1.140625q-0.09375 -0.4375 -0.09375 -1.421875l0 -5.5625l1.515625 0l0 4.984375q0 1.1875 0.09375 1.609375q0.15625 0.59375 0.609375 0.9375q0.46875 0.34375 1.15625 0.34375q0.6875 0 1.28125 -0.34375q0.609375 -0.359375 0.859375 -0.953125q0.25 -0.609375 0.25 -1.765625l0 -4.8125l1.515625 0l0 8.984375l-1.359375 0zm9.90271 -2.890625l1.5625 0.1875q-0.359375 1.390625 -1.375 2.15625q-1.0 0.75 -2.5625 0.75q-1.984375 0 -3.140625 -1.203125q-1.140625 -1.21875 -1.140625 -3.421875q0 -2.265625 1.15625 -3.515625q1.171875 -1.25 3.03125 -1.25q1.8125 0 2.953125 1.234375q1.140625 1.21875 1.140625 3.4375q0 0.140625 -0.015625 0.40625l-6.703125 0q0.09375 1.484375 0.84375 2.28125q0.75 0.78125 1.875 0.78125q0.84375 0 1.4375 -0.4375q0.59375 -0.4375 0.9375 -1.40625zm-5.0 -2.46875l5.015625 0q-0.109375 -1.125 -0.578125 -1.703125q-0.734375 -0.875 -1.890625 -0.875q-1.046875 0 -1.765625 0.703125q-0.703125 0.703125 -0.78125 1.875zm14.37146 5.359375l0 -1.3125q-1.046875 1.515625 -2.84375 1.515625q-0.796875 0 -1.5 -0.296875q-0.6875 -0.3125 -1.015625 -0.765625q-0.328125 -0.46875 -0.46875 -1.140625q-0.09375 -0.4375 -0.09375 -1.421875l0 -5.5625l1.515625 0l0 4.984375q0 1.1875 0.09375 1.609375q0.15625 0.59375 0.609375 0.9375q0.46875 0.34375 1.15625 0.34375q0.6875 0 1.28125 -0.34375q0.609375 -0.359375 0.859375 -0.953125q0.25 -0.609375 0.25 -1.765625l0 -4.8125l1.515625 0l0 8.984375l-1.359375 0zm9.90271 -2.890625l1.5625 0.1875q-0.359375 1.390625 -1.375 2.15625q-1.0 0.75 -2.5625 0.75q-1.984375 0 -3.140625 -1.203125q-1.140625 -1.21875 -1.140625 -3.421875q0 -2.265625 1.15625 -3.515625q1.171875 -1.25 3.03125 -1.25q1.8125 0 2.953125 1.234375q1.140625 1.21875 1.140625 3.4375q0 0.140625 -0.015625 0.40625l-6.703125 0q0.09375 1.484375 0.84375 2.28125q0.75 0.78125 1.875 0.78125q0.84375 0 1.4375 -0.4375q0.59375 -0.4375 0.9375 -1.40625zm-5.0 -2.46875l5.015625 0q-0.109375 -1.125 -0.578125 -1.703125q-0.734375 -0.875 -1.890625 -0.875q-1.046875 0 -1.765625 0.703125q-0.703125 0.703125 -0.78125 1.875zm11.387085 9.0q-1.25 -1.578125 -2.125 -3.703125q-0.875 -2.140625 -0.875 -4.4375q0 -2.0 0.65625 -3.84375q0.765625 -2.140625 2.34375 -4.265625l1.09375 0q-1.015625 1.75 -1.34375 2.5q-0.515625 1.171875 -0.8125 2.4375q-0.375 1.59375 -0.375 3.1875q0 4.0625 2.53125 8.125l-1.09375 0zm2.2547607 -6.328125l1.515625 -0.234375q0.125 0.90625 0.703125 1.390625q0.578125 0.484375 1.609375 0.484375q1.0625 0 1.5625 -0.421875q0.515625 -0.4375 0.515625 -1.015625q0 -0.515625 -0.453125 -0.8125q-0.3125 -0.203125 -1.5625 -0.515625q-1.671875 -0.421875 -2.328125 -0.71875q-0.640625 -0.3125 -0.984375 -0.859375q-0.328125 -0.546875 -0.328125 -1.203125q0 -0.609375 0.28125 -1.109375q0.28125 -0.515625 0.75 -0.859375q0.359375 -0.265625 0.96875 -0.4375q0.609375 -0.1875 1.3125 -0.1875q1.0625 0 1.859375 0.3125q0.796875 0.296875 1.171875 0.828125q0.390625 0.515625 0.53125 1.375l-1.484375 0.203125q-0.109375 -0.6875 -0.59375 -1.078125q-0.484375 -0.390625 -1.375 -0.390625q-1.046875 0 -1.5 0.34375q-0.4375 0.34375 -0.4375 0.8125q0 0.296875 0.171875 0.53125q0.1875 0.25 0.59375 0.40625q0.21875 0.09375 1.34375 0.390625q1.609375 0.4375 2.25 0.71875q0.640625 0.265625 1.0 0.796875q0.375 0.515625 0.375 1.296875q0 0.765625 -0.453125 1.4375q-0.4375 0.671875 -1.28125 1.046875q-0.828125 0.359375 -1.890625 0.359375q-1.75 0 -2.671875 -0.71875q-0.921875 -0.734375 -1.171875 -2.171875zm10.2734375 6.328125l-1.09375 0q2.53125 -4.0625 2.53125 -8.125q0 -1.59375 -0.359375 -3.15625q-0.296875 -1.265625 -0.8125 -2.4375q-0.328125 -0.765625 -1.359375 -2.53125l1.09375 0q1.59375 2.125 2.359375 4.265625q0.640625 1.84375 0.640625 3.84375q0 2.296875 -0.875 4.4375q-0.875 2.125 -2.125 3.703125z" fill-rule="nonzero"/><path fill="#0091da" d="m634.6378 51.368767l0 0c0 -8.619122 7.9883423 -15.6063 17.842468 -15.6063l0 0c9.854187 0 17.84253 6.987179 17.84253 15.6063l0 0c0 8.619122 -7.9883423 15.6063 -17.84253 15.6063l0 0c-9.854126 0 -17.842468 -6.987179 -17.842468 -15.6063z" fill-rule="evenodd"/><path stroke="#1a428a" stroke-width="3.0" stroke-linejoin="round" stroke-linecap="butt" d="m634.6378 51.368767l0 0c0 -8.619122 7.9883423 -15.6063 17.842468 -15.6063l0 0c9.854187 0 17.84253 6.987179 17.84253 15.6063l0 0c0 8.619122 -7.9883423 15.6063 -17.84253 15.6063l0 0c-9.854126 0 -17.842468 -6.987179 -17.842468 -15.6063z" fill-rule="evenodd"/><path fill="#ffffff" d="m649.70776 55.108765l0 -7.625l2.46875 0q1.40625 0 1.828125 0.109375q0.65625 0.171875 1.09375 0.75q0.453125 0.578125 0.453125 1.484375q0 0.703125 -0.265625 1.1875q-0.25 0.46875 -0.640625 0.75q-0.390625 0.265625 -0.796875 0.359375q-0.5625 0.109375 -1.609375 0.109375l-1.0 0l0 2.875l-1.53125 0zm1.53125 -6.34375l0 2.171875l0.84375 0q0.90625 0 1.21875 -0.109375q0.3125 -0.125 0.484375 -0.375q0.171875 -0.265625 0.171875 -0.609375q0 -0.40625 -0.25 -0.671875q-0.234375 -0.28125 -0.609375 -0.34375q-0.28125 -0.0625 -1.109375 -0.0625l-0.75 0z" fill-rule="nonzero"/><path fill="#000000" fill-opacity="0.0" d="m715.6142 95.99869l290.2992 0" fill-rule="evenodd"/><path stroke="#595959" stroke-width="3.0" stroke-linejoin="round" stroke-linecap="butt" d="m715.6142 95.99869l272.2992 0" fill-rule="evenodd"/><path fill="#595959" stroke="#595959" stroke-width="3.0" stroke-linecap="butt" d="m987.9134 100.95389l13.614258 -4.9552l-13.614258 -4.9552z" fill-rule="evenodd"/></g></svg>