<svg version="1.1" viewBox="0.0 0.0 600.0 371.0" fill="none" stroke="none" stroke-linecap="square" stroke-miterlimit="10" width="600" height="371" xmlns:xlink="http://www.w3.org/1999/xlink" xmlns="http://www.w3.org/2000/svg"><path fill="#ffffff" d="M0 0L600.0 0L600.0 371.0L0 371.0L0 0Z" fill-rule="nonzero"/><path stroke="#333333" stroke-width="1.0" stroke-linecap="butt" d="M98.5 326.5L581.5 326.5" fill-rule="nonzero"/><path stroke="#cccccc" stroke-width="1.0" stroke-linecap="butt" d="M98.5 252.5L581.5 252.5" fill-rule="nonzero"/><path stroke="#cccccc" stroke-width="1.0" stroke-linecap="butt" d="M98.5 177.5L581.5 177.5" fill-rule="nonzero"/><path stroke="#cccccc" stroke-width="1.0" stroke-linecap="butt" d="M98.5 102.5L581.5 102.5" fill-rule="nonzero"/><path stroke="#cccccc" stroke-width="1.0" stroke-linecap="butt" d="M98.5 27.5L581.5 27.5" fill-rule="nonzero"/><clipPath id="id_0"><path d="M98.55 27.55L581.45 27.55L581.45 326.95L98.55 326.95L98.55 27.55Z" clip-rule="nonzero"/></clipPath><path stroke="#000000" stroke-width="2.0" stroke-linecap="butt" stroke-opacity="0.0" clip-path="url(#id_0)" d="M304.0 327.0L170.0 327.0L170.0 77.0C170.0 75.89543 170.89543 75.0 172.0 75.0L302.0 75.0C303.10458 75.0 304.0 75.89543 304.0 77.0Z" fill-rule="nonzero"/><path fill="#4285f4" clip-path="url(#id_0)" d="M304.0 327.0L170.0 327.0L170.0 77.0C170.0 75.89543 170.89543 75.0 172.0 75.0L302.0 75.0C303.10458 75.0 304.0 75.89543 304.0 77.0Z" fill-rule="nonzero"/><path stroke="#000000" stroke-width="2.0" stroke-linecap="butt" stroke-opacity="0.0" clip-path="url(#id_0)" d="M510.0 327.0L376.0 327.0L376.0 221.0C376.0 219.89543 376.89542 219.0 378.0 219.0L508.0 219.0C509.10458 219.0 510.0 219.89543 510.0 221.0Z" fill-rule="nonzero"/><path fill="#4285f4" clip-path="url(#id_0)" d="M510.0 327.0L376.0 327.0L376.0 221.0C376.0 219.89543 376.89542 219.0 378.0 219.0L508.0 219.0C509.10458 219.0 510.0 219.89543 510.0 221.0Z" fill-rule="nonzero"/><path fill="#000000" d="M32.55001 324.10938L23.081263 324.10938L23.081263 327.64062L21.815638 327.64062L21.815638 319.14062L23.081263 319.14062L23.081263 322.6875L32.55001 322.6875L32.55001 324.10938ZM28.659388 318.5Q26.503138 318.5 25.456263 317.29688Q24.596888 316.29688 24.596888 314.85938Q24.596888 313.25 25.643763 312.23438Q26.690638 311.21875 28.550013 311.21875Q30.050013 311.21875 30.909388 311.67188Q31.768763 312.10938 32.253136 312.98438Q32.721886 313.84375 32.721886 314.85938Q32.721886 316.48438 31.675013 317.5Q30.628138 318.5 28.659388 318.5ZM28.659388 317.14062Q30.159388 317.14062 30.909388 316.5Q31.643763 315.84375 31.643763 314.85938Q31.643763 313.875 30.893763 313.21875Q30.143763 312.5625 28.612513 312.5625Q27.175013 312.5625 26.440638 313.21875Q25.690638 313.875 25.690638 314.85938Q25.690638 315.84375 26.425013 316.5Q27.159388 317.14062 28.659388 317.14062ZM31.378138 307.125L32.534386 306.9375Q32.659386 307.5 32.659386 307.9375Q32.659386 308.65625 32.42501 309.0625Q32.190636 309.45312 31.831263 309.60938Q31.456263 309.76562 30.268763 309.76562L25.800013 309.76562L25.800013 310.73438L24.768763 310.73438L24.768763 309.76562L22.846888 309.76562L22.050013 308.45312L24.768763 308.45312L24.768763 307.125L25.800013 307.125L25.800013 308.45312L30.346888 308.45312Q30.909388 308.45312 31.081263 308.39062Q31.237513 308.3125 31.331263 308.15625Q31.425013 308.0 31.425013 307.71875Q31.425013 307.48438 31.378138 307.125ZM31.596888 300.9375Q32.20626 301.67188 32.471886 302.34375Q32.721886 303.01562 32.721886 303.79688Q32.721886 305.07812 32.096886 305.76562Q31.471888 306.45312 30.503138 306.45312Q29.925013 306.45312 29.456263 306.20312Q28.987513 305.9375 28.706263 305.51562Q28.409388 305.09375 28.268763 304.5625Q28.159388 304.1875 28.065638 303.39062Q27.878138 301.79688 27.612513 301.04688Q27.346888 301.03125 27.268763 301.03125Q26.456263 301.03125 26.128138 301.40625Q25.690638 301.92188 25.690638 302.90625Q25.690638 303.84375 26.018763 304.29688Q26.331263 304.73438 27.159388 304.9375L26.987513 306.23438Q26.159388 306.0625 25.659388 305.65625Q25.143763 305.25 24.878138 304.48438Q24.596888 303.71875 24.596888 302.71875Q24.596888 301.71875 24.831263 301.10938Q25.065638 300.48438 25.425013 300.1875Q25.768763 299.89062 26.315638 299.78125Q26.659388 299.71875 27.534388 299.71875L29.284388 299.71875Q31.128138 299.71875 31.612513 299.64062Q32.096886 299.54688 32.55001 299.29688L32.55001 300.67188Q32.14376 300.875 31.596888 300.9375ZM28.643763 301.04688Q28.940638 301.76562 29.143763 303.20312Q29.268763 304.01562 29.409388 304.35938Q29.550013 304.6875 29.831263 304.875Q30.112513 305.04688 30.456263 305.04688Q30.987513 305.04688 31.346888 304.65625Q31.690638 304.25 31.690638 303.48438Q31.690638 302.71875 31.362513 302.125Q31.018763 301.53125 30.440638 301.25Q30.003138 301.04688 29.128138 301.04688L28.643763 301.04688ZM32.55001 298.04688L21.815638 298.04688L21.815638 296.71875L32.55001 296.71875L32.55001 298.04688ZM32.55001 290.89062L21.815638 290.89062L21.815638 288.75L29.409388 286.20312Q30.471888 285.85938 31.003138 285.6875Q30.425013 285.51562 29.284388 285.125L21.815638 282.54688L21.815638 280.64062L32.55001 280.64062L32.55001 282.01562L23.565638 282.01562L32.55001 285.125L32.55001 286.40625L23.409388 289.51562L32.55001 289.51562L32.55001 290.89062ZM30.050013 274.6875L30.206263 273.32812Q31.409388 273.64062 32.065636 274.51562Q32.721886 275.39062 32.721886 276.75Q32.721886 278.45312 31.675013 279.45312Q30.628138 280.45312 28.721888 280.45312Q26.768763 280.45312 25.690638 279.4375Q24.596888 278.42188 24.596888 276.8125Q24.596888 275.25 25.659388 274.26562Q26.721888 273.28125 28.643763 273.28125Q28.768763 273.28125 29.003138 273.28125L29.003138 279.09375Q30.284388 279.01562 30.971888 278.375Q31.643763 277.71875 31.643763 276.73438Q31.643763 276.01562 31.268763 275.5Q30.878138 274.98438 30.050013 274.6875ZM27.909388 279.01562L27.909388 274.67188Q26.925013 274.76562 26.440638 275.17188Q25.675013 275.79688 25.675013 276.79688Q25.675013 277.71875 26.284388 278.34375Q26.893763 278.95312 27.909388 279.01562ZM31.596888 266.9375Q32.20626 267.67188 32.471886 268.34375Q32.721886 269.01562 32.721886 269.79688Q32.721886 271.07812 32.096886 271.76562Q31.471888 272.45312 30.503138 272.45312Q29.925013 272.45312 29.456263 272.20312Q28.987513 271.9375 28.706263 271.51562Q28.409388 271.09375 28.268763 270.5625Q28.159388 270.1875 28.065638 269.39062Q27.878138 267.79688 27.612513 267.04688Q27.346888 267.03125 27.268763 267.03125Q26.456263 267.03125 26.128138 267.40625Q25.690638 267.92188 25.690638 268.90625Q25.690638 269.84375 26.018763 270.29688Q26.331263 270.73438 27.159388 270.9375L26.987513 272.23438Q26.159388 272.0625 25.659388 271.65625Q25.143763 271.25 24.878138 270.48438Q24.596888 269.71875 24.596888 268.71875Q24.596888 267.71875 24.831263 267.10938Q25.065638 266.48438 25.425013 266.1875Q25.768763 265.89062 26.315638 265.78125Q26.659388 265.71875 27.534388 265.71875L29.284388 265.71875Q31.128138 265.71875 31.612513 265.64062Q32.096886 265.54688 32.55001 265.29688L32.55001 266.67188Q32.14376 266.875 31.596888 266.9375ZM28.643763 267.04688Q28.940638 267.76562 29.143763 269.20312Q29.268763 270.01562 29.409388 270.35938Q29.550013 270.6875 29.831263 270.875Q30.112513 271.04688 30.456263 271.04688Q30.987513 271.04688 31.346888 270.65625Q31.690638 270.25 31.690638 269.48438Q31.690638 268.71875 31.362513 268.125Q31.018763 267.53125 30.440638 267.25Q30.003138 267.04688 29.128138 267.04688L28.643763 267.04688ZM32.55001 264.01562L24.768763 264.01562L24.768763 262.82812L25.878138 262.82812Q24.596888 261.96875 24.596888 260.34375Q24.596888 259.64062 24.846888 259.0625Q25.096888 258.46875 25.518763 258.17188Q25.925013 257.875 26.487513 257.76562Q26.846888 257.6875 27.768763 257.6875L32.55001 257.6875L32.55001 259.01562L27.815638 259.01562Q27.018763 259.01562 26.628138 259.17188Q26.221888 259.3125 25.987513 259.70312Q25.737513 260.09375 25.737513 260.625Q25.737513 261.46875 26.268763 262.07812Q26.800013 262.6875 28.300013 262.6875L32.55001 262.6875L32.55001 264.01562ZM32.55001 251.76562L21.815638 251.76562L21.815638 244.53125L23.081263 244.53125L23.081263 250.34375L26.409388 250.34375L26.409388 245.3125L27.675013 245.3125L27.675013 250.34375L32.55001 250.34375L32.55001 251.76562ZM28.659388 243.5Q26.503138 243.5 25.456263 242.29688Q24.596888 241.29688 24.596888 239.85938Q24.596888 238.25 25.643763 237.23438Q26.690638 236.21875 28.550013 236.21875Q30.050013 236.21875 30.909388 236.67188Q31.768763 237.10938 32.253136 237.98438Q32.721886 238.84375 32.721886 239.85938Q32.721886 241.48438 31.675013 242.5Q30.628138 243.5 28.659388 243.5ZM28.659388 242.14062Q30.159388 242.14062 30.909388 241.5Q31.643763 240.84375 31.643763 239.85938Q31.643763 238.875 30.893763 238.21875Q30.143763 237.5625 28.612513 237.5625Q27.175013 237.5625 26.440638 238.21875Q25.690638 238.875 25.690638 239.85938Q25.690638 240.84375 26.425013 241.5Q27.159388 242.14062 28.659388 242.14062ZM32.55001 235.03125L24.768763 235.03125L24.768763 233.84375L25.956263 233.84375Q25.128138 233.39062 24.862513 233.0Q24.596888 232.60938 24.596888 232.15625Q24.596888 231.48438 25.018763 230.79688L26.237513 231.25Q25.956263 231.73438 25.956263 232.21875Q25.956263 232.65625 26.221888 233.0Q26.471888 233.34375 26.940638 233.48438Q27.643763 233.70312 28.471888 233.70312L32.55001 233.70312L32.55001 235.03125ZM32.55001 228.57812L24.768763 230.95312L24.768763 229.59375L29.268763 228.35938L30.925013 227.89062Q30.800013 227.85938 29.331263 227.48438L24.768763 226.25L24.768763 224.90625L29.284388 223.73438L30.768763 223.34375L29.268763 222.90625L24.768763 221.5625L24.768763 220.28125L32.55001 222.71875L32.55001 224.07812L27.893763 225.32812L26.565638 225.625L32.55001 227.20312L32.55001 228.57812ZM31.596888 213.9375Q32.20626 214.67188 32.471886 215.34375Q32.721886 216.01562 32.721886 216.79688Q32.721886 218.07812 32.096886 218.76562Q31.471888 219.45312 30.503138 219.45312Q29.925013 219.45312 29.456263 219.20312Q28.987513 218.9375 28.706263 218.51562Q28.409388 218.09375 28.268763 217.5625Q28.159388 217.1875 28.065638 216.39062Q27.878138 214.79688 27.612513 214.04688Q27.346888 214.03125 27.268763 214.03125Q26.456263 214.03125 26.128138 214.40625Q25.690638 214.92188 25.690638 215.90625Q25.690638 216.84375 26.018763 217.29688Q26.331263 217.73438 27.159388 217.9375L26.987513 219.23438Q26.159388 219.0625 25.659388 218.65625Q25.143763 218.25 24.878138 217.48438Q24.596888 216.71875 24.596888 215.71875Q24.596888 214.71875 24.831263 214.10938Q25.065638 213.48438 25.425013 213.1875Q25.768763 212.89062 26.315638 212.78125Q26.659388 212.71875 27.534388 212.71875L29.284388 212.71875Q31.128138 212.71875 31.612513 212.64062Q32.096886 212.54688 32.55001 212.29688L32.55001 213.67188Q32.14376 213.875 31.596888 213.9375ZM28.643763 214.04688Q28.940638 214.76562 29.143763 216.20312Q29.268763 217.01562 29.409388 217.35938Q29.550013 217.6875 29.831263 217.875Q30.112513 218.04688 30.456263 218.04688Q30.987513 218.04688 31.346888 217.65625Q31.690638 217.25 31.690638 216.48438Q31.690638 215.71875 31.362513 215.125Q31.018763 214.53125 30.440638 214.25Q30.003138 214.04688 29.128138 214.04688L28.643763 214.04688ZM32.55001 211.03125L24.768763 211.03125L24.768763 209.84375L25.956263 209.84375Q25.128138 209.39062 24.862513 209.0Q24.596888 208.60938 24.596888 208.15625Q24.596888 207.48438 25.018763 206.79688L26.237513 207.25Q25.956263 207.73438 25.956263 208.21875Q25.956263 208.65625 26.221888 209.0Q26.471888 209.34375 26.940638 209.48438Q27.643763 209.70312 28.471888 209.70312L32.55001 209.70312L32.55001 211.03125ZM32.55001 200.96875L31.565638 200.96875Q32.721886 201.70312 32.721886 203.14062Q32.721886 204.0625 32.221886 204.84375Q31.706263 205.625 30.784388 206.0625Q29.862513 206.48438 28.675013 206.48438Q27.503138 206.48438 26.565638 206.09375Q25.612513 205.70312 25.112513 204.9375Q24.596888 204.15625 24.596888 203.20312Q24.596888 202.5 24.893763 201.95312Q25.190638 201.39062 25.659388 201.04688L21.815638 201.04688L21.815638 199.73438L32.55001 199.73438L32.55001 200.96875ZM28.675013 205.125Q30.159388 205.125 30.909388 204.5Q31.643763 203.875 31.643763 203.01562Q31.643763 202.15625 30.940638 201.54688Q30.221888 200.9375 28.784388 200.9375Q27.175013 200.9375 26.440638 201.5625Q25.690638 202.17188 25.690638 203.07812Q25.690638 203.95312 26.409388 204.54688Q27.128138 205.125 28.675013 205.125ZM32.55001 193.90625L21.815638 193.90625L21.815638 192.48438L31.284388 192.48438L31.284388 187.1875L32.55001 187.1875L32.55001 193.90625ZM31.596888 180.9375Q32.20626 181.67188 32.471886 182.34375Q32.721886 183.01562 32.721886 183.79688Q32.721886 185.07812 32.096886 185.76562Q31.471888 186.45312 30.503138 186.45312Q29.925013 186.45312 29.456263 186.20312Q28.987513 185.9375 28.706263 185.51562Q28.409388 185.09375 28.268763 184.5625Q28.159388 184.1875 28.065638 183.39062Q27.878138 181.79688 27.612513 181.04688Q27.346888 181.03125 27.268763 181.03125Q26.456263 181.03125 26.128138 181.40625Q25.690638 181.92188 25.690638 182.90625Q25.690638 183.84375 26.018763 184.29688Q26.331263 184.73438 27.159388 184.9375L26.987513 186.23438Q26.159388 186.0625 25.659388 185.65625Q25.143763 185.25 24.878138 184.48438Q24.596888 183.71875 24.596888 182.71875Q24.596888 181.71875 24.831263 181.10938Q25.065638 180.48438 25.425013 180.1875Q25.768763 179.89062 26.315638 179.78125Q26.659388 179.71875 27.534388 179.71875L29.284388 179.71875Q31.128138 179.71875 31.612513 179.64062Q32.096886 179.54688 32.55001 179.29688L32.55001 180.67188Q32.14376 180.875 31.596888 180.9375ZM28.643763 181.04688Q28.940638 181.76562 29.143763 183.20312Q29.268763 184.01562 29.409388 184.35938Q29.550013 184.6875 29.831263 184.875Q30.112513 185.04688 30.456263 185.04688Q30.987513 185.04688 31.346888 184.65625Q31.690638 184.25 31.690638 183.48438Q31.690638 182.71875 31.362513 182.125Q31.018763 181.53125 30.440638 181.25Q30.003138 181.04688 29.128138 181.04688L28.643763 181.04688ZM31.378138 175.125L32.534386 174.9375Q32.659386 175.5 32.659386 175.9375Q32.659386 176.65625 32.42501 177.0625Q32.190636 177.45312 31.831263 177.60938Q31.456263 177.76562 30.268763 177.76562L25.800013 177.76562L25.800013 178.73438L24.768763 178.73438L24.768763 177.76562L22.846888 177.76562L22.050013 176.45312L24.768763 176.45312L24.768763 175.125L25.800013 175.125L25.800013 176.45312L30.346888 176.45312Q30.909388 176.45312 31.081263 176.39062Q31.237513 176.3125 31.331263 176.15625Q31.425013 176.0 31.425013 175.71875Q31.425013 175.48438 31.378138 175.125ZM30.050013 168.6875L30.206263 167.32812Q31.409388 167.64062 32.065636 168.51562Q32.721886 169.39062 32.721886 170.75Q32.721886 172.45312 31.675013 173.45312Q30.628138 174.45312 28.721888 174.45312Q26.768763 174.45312 25.690638 173.4375Q24.596888 172.42188 24.596888 170.8125Q24.596888 169.25 25.659388 168.26562Q26.721888 167.28125 28.643763 167.28125Q28.768763 167.28125 29.003138 167.28125L29.003138 173.09375Q30.284388 173.01562 30.971888 172.375Q31.643763 171.71875 31.643763 170.73438Q31.643763 170.01562 31.268763 169.5Q30.878138 168.98438 30.050013 168.6875ZM27.909388 173.01562L27.909388 168.67188Q26.925013 168.76562 26.440638 169.17188Q25.675013 169.79688 25.675013 170.79688Q25.675013 171.71875 26.284388 172.34375Q26.893763 172.95312 27.909388 173.01562ZM32.55001 166.01562L24.768763 166.01562L24.768763 164.82812L25.878138 164.82812Q24.596888 163.96875 24.596888 162.34375Q24.596888 161.64062 24.846888 161.0625Q25.096888 160.46875 25.518763 160.17188Q25.925013 159.875 26.487513 159.76562Q26.846888 159.6875 27.768763 159.6875L32.55001 159.6875L32.55001 161.01562L27.815638 161.01562Q27.018763 161.01562 26.628138 161.17188Q26.221888 161.3125 25.987513 161.70312Q25.737513 162.09375 25.737513 162.625Q25.737513 163.46875 26.268763 164.07812Q26.800013 164.6875 28.300013 164.6875L32.55001 164.6875L32.55001 166.01562ZM29.706263 152.9375L29.862513 151.64062Q31.206263 151.84375 31.971888 152.73438Q32.721886 153.60938 32.721886 154.875Q32.721886 156.46875 31.690638 157.4375Q30.643763 158.40625 28.690638 158.40625Q27.425013 158.40625 26.487513 158.0Q25.534388 157.57812 25.065638 156.73438Q24.596888 155.875 24.596888 154.875Q24.596888 153.60938 25.237513 152.79688Q25.878138 151.98438 27.050013 151.76562L27.253138 153.04688Q26.471888 153.23438 26.081263 153.70312Q25.675013 154.15625 25.675013 154.8125Q25.675013 155.8125 26.393763 156.4375Q27.112513 157.0625 28.659388 157.0625Q30.221888 157.0625 30.940638 156.46875Q31.643763 155.85938 31.643763 154.89062Q31.643763 154.10938 31.175013 153.59375Q30.690638 153.07812 29.706263 152.9375ZM35.55001 150.0625L34.315636 150.21875Q34.42501 149.78125 34.42501 149.46875Q34.42501 149.01562 34.26876 148.76562Q34.128136 148.5 33.86251 148.32812Q33.67501 148.20312 32.89376 147.92188Q32.784386 147.89062 32.565636 147.8125L24.768763 150.76562L24.768763 149.34375L29.268763 147.71875Q30.128138 147.40625 31.081263 147.15625Q30.175013 146.92188 29.300013 146.60938L24.768763 144.95312L24.768763 143.625L32.67501 146.59375Q33.95626 147.0625 34.440636 147.32812Q35.096886 147.6875 35.39376 148.14062Q35.70626 148.59375 35.70626 149.21875Q35.70626 149.59375 35.55001 150.0625ZM26.268763 142.64062L24.768763 142.64062L24.768763 141.14062L26.268763 141.14062L26.268763 142.64062ZM32.55001 142.64062L31.050013 142.64062L31.050013 141.14062L32.55001 141.14062L32.55001 142.64062ZM32.55001 135.01562L24.768763 135.01562L24.768763 133.82812L25.862513 133.82812Q25.284388 133.46875 24.940638 132.85938Q24.596888 132.25 24.596888 131.46875Q24.596888 130.60938 24.956263 130.0625Q25.315638 129.5 25.956263 129.28125Q24.596888 128.35938 24.596888 126.875Q24.596888 125.71875 25.237513 125.09375Q25.878138 124.46875 27.206263 124.46875L32.55001 124.46875L32.55001 125.78125L27.643763 125.78125Q26.862513 125.78125 26.518763 125.90625Q26.159388 126.03125 25.956263 126.375Q25.737513 126.71875 25.737513 127.171875Q25.737513 127.984375 26.284388 128.53125Q26.831263 129.07812 28.034388 129.07812L32.55001 129.07812L32.55001 130.39062L27.503138 130.39062Q26.612513 130.39062 26.175013 130.71875Q25.737513 131.03125 25.737513 131.76562Q25.737513 132.32812 26.034388 132.79688Q26.331263 133.26562 26.893763 133.48438Q27.456263 133.6875 28.518763 133.6875L32.55001 133.6875L32.55001 135.01562ZM23.331263 122.0L21.815638 122.0L21.815638 120.6875L23.331263 120.6875L23.331263 122.0ZM32.55001 122.0L24.768763 122.0L24.768763 120.6875L32.55001 120.6875L32.55001 122.0ZM29.706263 113.9375L29.862513 112.640625Q31.206263 112.84375 31.971888 113.734375Q32.721886 114.609375 32.721886 115.875Q32.721886 117.46875 31.690638 118.4375Q30.643763 119.40625 28.690638 119.40625Q27.425013 119.40625 26.487513 119.0Q25.534388 118.578125 25.065638 117.734375Q24.596888 116.875 24.596888 115.875Q24.596888 114.609375 25.237513 113.796875Q25.878138 112.984375 27.050013 112.765625L27.253138 114.046875Q26.471888 114.234375 26.081263 114.703125Q25.675013 115.15625 25.675013 115.8125Q25.675013 116.8125 26.393763 117.4375Q27.112513 118.0625 28.659388 118.0625Q30.221888 118.0625 30.940638 117.46875Q31.643763 116.859375 31.643763 115.890625Q31.643763 115.109375 31.175013 114.59375Q30.690638 114.078125 29.706263 113.9375ZM32.55001 111.03125L24.768763 111.03125L24.768763 109.84375L25.956263 109.84375Q25.128138 109.390625 24.862513 109.0Q24.596888 108.609375 24.596888 108.15625Q24.596888 107.484375 25.018763 106.796875L26.237513 107.25Q25.956263 107.734375 25.956263 108.21875Q25.956263 108.65625 26.221888 109.0Q26.471888 109.34375 26.940638 109.484375Q27.643763 109.703125 28.471888 109.703125L32.55001 109.703125L32.55001 111.03125ZM28.659388 106.5Q26.503138 106.5 25.456263 105.296875Q24.596888 104.296875 24.596888 102.859375Q24.596888 101.25 25.643763 100.234375Q26.690638 99.21875 28.550013 99.21875Q30.050013 99.21875 30.909388 99.671875Q31.768763 100.109375 32.253136 100.984375Q32.721886 101.84375 32.721886 102.859375Q32.721886 104.484375 31.675013 105.5Q30.628138 106.5 28.659388 106.5ZM28.659388 105.140625Q30.159388 105.140625 30.909388 104.5Q31.643763 103.84375 31.643763 102.859375Q31.643763 101.875 30.893763 101.21875Q30.143763 100.5625 28.612513 100.5625Q27.175013 100.5625 26.440638 101.21875Q25.690638 101.875 25.690638 102.859375Q25.690638 103.84375 26.425013 104.5Q27.159388 105.140625 28.659388 105.140625ZM30.221888 98.53125L30.018763 97.234375Q30.800013 97.125 31.221888 96.625Q31.643763 96.125 31.643763 95.21875Q31.643763 94.3125 31.284388 93.875Q30.909388 93.4375 30.409388 93.4375Q29.956263 93.4375 29.706263 93.828125Q29.518763 94.09375 29.253138 95.171875Q28.893763 96.625 28.628138 97.1875Q28.346888 97.734375 27.878138 98.03125Q27.409388 98.3125 26.831263 98.3125Q26.315638 98.3125 25.878138 98.078125Q25.425013 97.84375 25.143763 97.4375Q24.909388 97.125 24.753138 96.59375Q24.596888 96.0625 24.596888 95.453125Q24.596888 94.546875 24.862513 93.859375Q25.128138 93.15625 25.581263 92.828125Q26.018763 92.5 26.784388 92.375L26.956263 93.65625Q26.346888 93.75 26.018763 94.171875Q25.675013 94.59375 25.675013 95.359375Q25.675013 96.265625 25.987513 96.65625Q26.284388 97.046875 26.690638 97.046875Q26.940638 97.046875 27.143763 96.890625Q27.362513 96.71875 27.503138 96.375Q27.565638 96.1875 27.831263 95.21875Q28.206263 93.8125 28.440638 93.265625Q28.675013 92.703125 29.143763 92.390625Q29.596888 92.078125 30.268763 92.078125Q30.925013 92.078125 31.503138 92.46875Q32.08126 92.84375 32.409386 93.578125Q32.721886 94.296875 32.721886 95.21875Q32.721886 96.734375 32.096886 97.53125Q31.471888 98.3125 30.221888 98.53125ZM30.050013 84.6875L30.206263 83.328125Q31.409388 83.640625 32.065636 84.515625Q32.721886 85.390625 32.721886 86.75Q32.721886 88.453125 31.675013 89.453125Q30.628138 90.453125 28.721888 90.453125Q26.768763 90.453125 25.690638 89.4375Q24.596888 88.421875 24.596888 86.8125Q24.596888 85.25 25.659388 84.265625Q26.721888 83.28125 28.643763 83.28125Q28.768763 83.28125 29.003138 83.28125L29.003138 89.09375Q30.284388 89.015625 30.971888 88.375Q31.643763 87.71875 31.643763 86.734375Q31.643763 86.015625 31.268763 85.5Q30.878138 84.984375 30.050013 84.6875ZM27.909388 89.015625L27.909388 84.671875Q26.925013 84.765625 26.440638 85.171875Q25.675013 85.796875 25.675013 86.796875Q25.675013 87.71875 26.284388 88.34375Q26.893763 88.953125 27.909388 89.015625ZM29.706263 76.9375L29.862513 75.640625Q31.206263 75.84375 31.971888 76.734375Q32.721886 77.609375 32.721886 78.875Q32.721886 80.46875 31.690638 81.4375Q30.643763 82.40625 28.690638 82.40625Q27.425013 82.40625 26.487513 82.0Q25.534388 81.578125 25.065638 80.734375Q24.596888 79.875 24.596888 78.875Q24.596888 77.609375 25.237513 76.796875Q25.878138 75.984375 27.050013 75.765625L27.253138 77.046875Q26.471888 77.234375 26.081263 77.703125Q25.675013 78.15625 25.675013 78.8125Q25.675013 79.8125 26.393763 80.4375Q27.112513 81.0625 28.659388 81.0625Q30.221888 81.0625 30.940638 80.46875Q31.643763 79.859375 31.643763 78.890625Q31.643763 78.109375 31.175013 77.59375Q30.690638 77.078125 29.706263 76.9375ZM28.659388 74.5Q26.503138 74.5 25.456263 73.296875Q24.596888 72.296875 24.596888 70.859375Q24.596888 69.25 25.643763 68.234375Q26.690638 67.21875 28.550013 67.21875Q30.050013 67.21875 30.909388 67.671875Q31.768763 68.109375 32.253136 68.984375Q32.721886 69.84375 32.721886 70.859375Q32.721886 72.484375 31.675013 73.5Q30.628138 74.5 28.659388 74.5ZM28.659388 73.140625Q30.159388 73.140625 30.909388 72.5Q31.643763 71.84375 31.643763 70.859375Q31.643763 69.875 30.893763 69.21875Q30.143763 68.5625 28.612513 68.5625Q27.175013 68.5625 26.440638 69.21875Q25.690638 69.875 25.690638 70.859375Q25.690638 71.84375 26.425013 72.5Q27.159388 73.140625 28.659388 73.140625ZM32.55001 66.015625L24.768763 66.015625L24.768763 64.828125L25.878138 64.828125Q24.596888 63.96875 24.596888 62.34375Q24.596888 61.640625 24.846888 61.0625Q25.096888 60.46875 25.518763 60.171875Q25.925013 59.875 26.487513 59.765625Q26.846888 59.6875 27.768763 59.6875L32.55001 59.6875L32.55001 61.015625L27.815638 61.015625Q27.018763 61.015625 26.628138 61.171875Q26.221888 61.3125 25.987513 61.703125Q25.737513 62.09375 25.737513 62.625Q25.737513 63.46875 26.268763 64.078125Q26.800013 64.6875 28.300013 64.6875L32.55001 64.6875L32.55001 66.015625ZM32.55001 52.96875L31.565638 52.96875Q32.721886 53.703125 32.721886 55.140625Q32.721886 56.0625 32.221886 56.84375Q31.706263 57.625 30.784388 58.0625Q29.862513 58.484375 28.675013 58.484375Q27.503138 58.484375 26.565638 58.09375Q25.612513 57.703125 25.112513 56.9375Q24.596888 56.15625 24.596888 55.203125Q24.596888 54.5 24.893763 53.953125Q25.190638 53.390625 25.659388 53.046875L21.815638 53.046875L21.815638 51.734375L32.55001 51.734375L32.55001 52.96875ZM28.675013 57.125Q30.159388 57.125 30.909388 56.5Q31.643763 55.875 31.643763 55.015625Q31.643763 54.15625 30.940638 53.546875Q30.221888 52.9375 28.784388 52.9375Q27.175013 52.9375 26.440638 53.5625Q25.690638 54.171875 25.690638 55.078125Q25.690638 55.953125 26.409388 56.546875Q27.128138 57.125 28.675013 57.125ZM30.221888 50.53125L30.018763 49.234375Q30.800013 49.125 31.221888 48.625Q31.643763 48.125 31.643763 47.21875Q31.643763 46.3125 31.284388 45.875Q30.909388 45.4375 30.409388 45.4375Q29.956263 45.4375 29.706263 45.828125Q29.518763 46.09375 29.253138 47.171875Q28.893763 48.625 28.628138 49.1875Q28.346888 49.734375 27.878138 50.03125Q27.409388 50.3125 26.831263 50.3125Q26.315638 50.3125 25.878138 50.078125Q25.425013 49.84375 25.143763 49.4375Q24.909388 49.125 24.753138 48.59375Q24.596888 48.0625 24.596888 47.453125Q24.596888 46.546875 24.862513 45.859375Q25.128138 45.15625 25.581263 44.828125Q26.018763 44.5 26.784388 44.375L26.956263 45.65625Q26.346888 45.75 26.018763 46.171875Q25.675013 46.59375 25.675013 47.359375Q25.675013 48.265625 25.987513 48.65625Q26.284388 49.046875 26.690638 49.046875Q26.940638 49.046875 27.143763 48.890625Q27.362513 48.71875 27.503138 48.375Q27.565638 48.1875 27.831263 47.21875Q28.206263 45.8125 28.440638 45.265625Q28.675013 44.703125 29.143763 44.390625Q29.596888 44.078125 30.268763 44.078125Q30.925013 44.078125 31.503138 44.46875Q32.08126 44.84375 32.409386 45.578125Q32.721886 46.296875 32.721886 47.21875Q32.721886 48.734375 32.096886 49.53125Q31.471888 50.3125 30.221888 50.53125Z" fill-rule="nonzero"/><path fill="#000000" d="M83.675 326.65314Q83.675 324.7469 84.06563 323.59064Q84.45625 322.4344 85.22188 321.8094Q86.00313 321.16876 87.175 321.16876Q88.03438 321.16876 88.69063 321.52814Q89.34688 321.8719 89.76875 322.52814Q90.19063 323.16876 90.425 324.1219Q90.675 325.0594 90.675 326.65314Q90.675 328.54376 90.28438 329.71564Q89.89375 330.8719 89.1125 331.5125Q88.34688 332.1375 87.175 332.1375Q85.62813 332.1375 84.7375 331.0125Q83.675 329.6844 83.675 326.65314ZM85.03438 326.65314Q85.03438 329.29376 85.64375 330.16876Q86.26875 331.04376 87.175 331.04376Q88.08125 331.04376 88.69063 330.16876Q89.31563 329.29376 89.31563 326.65314Q89.31563 323.9969 88.69063 323.1375Q88.08125 322.2625 87.15938 322.2625Q86.25313 322.2625 85.70625 323.02814Q85.03438 324.0125 85.03438 326.65314Z" fill-rule="nonzero"/><path fill="#000000" d="M66.59688 255.83438L66.59688 257.1L59.503124 257.1Q59.4875 256.63126 59.659374 256.17813Q59.925 255.45938 60.51875 254.75626Q61.128124 254.05313 62.253124 253.13126Q64.00313 251.69376 64.6125 250.86563Q65.2375 250.02188 65.2375 249.27188Q65.2375 248.49063 64.675 247.95938Q64.1125 247.4125 63.20625 247.4125Q62.253124 247.4125 61.675 247.99063Q61.1125 248.55313 61.1125 249.56876L59.753124 249.42813Q59.89375 247.9125 60.8 247.11563Q61.70625 246.31876 63.2375 246.31876Q64.78438 246.31876 65.675 247.17813Q66.58125 248.0375 66.58125 249.30313Q66.58125 249.94376 66.31563 250.56876Q66.06563 251.19376 65.44063 251.88126Q64.83125 252.56876 63.409374 253.77188Q62.221874 254.75626 61.878124 255.11563Q61.55 255.475 61.33125 255.83438L66.59688 255.83438ZM67.675 251.80313Q67.675 249.89688 68.06563 248.74063Q68.45625 247.58438 69.22188 246.95938Q70.00313 246.31876 71.175 246.31876Q72.03438 246.31876 72.69063 246.67813Q73.34688 247.02188 73.76875 247.67813Q74.19063 248.31876 74.425 249.27188Q74.675 250.20938 74.675 251.80313Q74.675 253.69376 74.28438 254.86563Q73.89375 256.02188 73.1125 256.6625Q72.34688 257.2875 71.175 257.2875Q69.62813 257.2875 68.7375 256.1625Q67.675 254.83438 67.675 251.80313ZM69.03438 251.80313Q69.03438 254.44376 69.64375 255.31876Q70.26875 256.19376 71.175 256.19376Q72.08125 256.19376 72.69063 255.31876Q73.31563 254.44376 73.31563 251.80313Q73.31563 249.14688 72.69063 248.2875Q72.08125 247.4125 71.15938 247.4125Q70.25313 247.4125 69.70625 248.17813Q69.03438 249.1625 69.03438 251.80313ZM75.675 251.80313Q75.675 249.89688 76.06563 248.74063Q76.45625 247.58438 77.22188 246.95938Q78.00313 246.31876 79.175 246.31876Q80.03438 246.31876 80.69063 246.67813Q81.34688 247.02188 81.76875 247.67813Q82.19063 248.31876 82.425 249.27188Q82.675 250.20938 82.675 251.80313Q82.675 253.69376 82.28438 254.86563Q81.89375 256.02188 81.1125 256.6625Q80.34688 257.2875 79.175 257.2875Q77.62813 257.2875 76.7375 256.1625Q75.675 254.83438 75.675 251.80313ZM77.03438 251.80313Q77.03438 254.44376 77.64375 255.31876Q78.26875 256.19376 79.175 256.19376Q80.08125 256.19376 80.69063 255.31876Q81.31563 254.44376 81.31563 251.80313Q81.31563 249.14688 80.69063 248.2875Q80.08125 247.4125 79.15938 247.4125Q78.25313 247.4125 77.70625 248.17813Q77.03438 249.1625 77.03438 251.80313ZM83.675 251.80313Q83.675 249.89688 84.06563 248.74063Q84.45625 247.58438 85.22188 246.95938Q86.00313 246.31876 87.175 246.31876Q88.03438 246.31876 88.69063 246.67813Q89.34688 247.02188 89.76875 247.67813Q90.19063 248.31876 90.425 249.27188Q90.675 250.20938 90.675 251.80313Q90.675 253.69376 90.28438 254.86563Q89.89375 256.02188 89.1125 256.6625Q88.34688 257.2875 87.175 257.2875Q85.62813 257.2875 84.7375 256.1625Q83.675 254.83438 83.675 251.80313ZM85.03438 251.80313Q85.03438 254.44376 85.64375 255.31876Q86.26875 256.19376 87.175 256.19376Q88.08125 256.19376 88.69063 255.31876Q89.31563 254.44376 89.31563 251.80313Q89.31563 249.14688 88.69063 248.2875Q88.08125 247.4125 87.15938 247.4125Q86.25313 247.4125 85.70625 248.17813Q85.03438 249.1625 85.03438 251.80313Z" fill-rule="nonzero"/><path fill="#000000" d="M63.89375 182.25L63.89375 179.67188L59.2375 179.67188L59.2375 178.46875L64.14375 171.51562L65.22188 171.51562L65.22188 178.46875L66.675 178.46875L66.675 179.67188L65.22188 179.67188L65.22188 182.25L63.89375 182.25ZM63.89375 178.46875L63.89375 173.625L60.534374 178.46875L63.89375 178.46875ZM67.675 176.95312Q67.675 175.04688 68.06563 173.89062Q68.45625 172.73438 69.22188 172.10938Q70.00313 171.46875 71.175 171.46875Q72.03438 171.46875 72.69063 171.82812Q73.34688 172.17188 73.76875 172.82812Q74.19063 173.46875 74.425 174.42188Q74.675 175.35938 74.675 176.95312Q74.675 178.84375 74.28438 180.01562Q73.89375 181.17188 73.1125 181.8125Q72.34688 182.4375 71.175 182.4375Q69.62813 182.4375 68.7375 181.3125Q67.675 179.98438 67.675 176.95312ZM69.03438 176.95312Q69.03438 179.59375 69.64375 180.46875Q70.26875 181.34375 71.175 181.34375Q72.08125 181.34375 72.69063 180.46875Q73.31563 179.59375 73.31563 176.95312Q73.31563 174.29688 72.69063 173.4375Q72.08125 172.5625 71.15938 172.5625Q70.25313 172.5625 69.70625 173.32812Q69.03438 174.3125 69.03438 176.95312ZM75.675 176.95312Q75.675 175.04688 76.06563 173.89062Q76.45625 172.73438 77.22188 172.10938Q78.00313 171.46875 79.175 171.46875Q80.03438 171.46875 80.69063 171.82812Q81.34688 172.17188 81.76875 172.82812Q82.19063 173.46875 82.425 174.42188Q82.675 175.35938 82.675 176.95312Q82.675 178.84375 82.28438 180.01562Q81.89375 181.17188 81.1125 181.8125Q80.34688 182.4375 79.175 182.4375Q77.62813 182.4375 76.7375 181.3125Q75.675 179.98438 75.675 176.95312ZM77.03438 176.95312Q77.03438 179.59375 77.64375 180.46875Q78.26875 181.34375 79.175 181.34375Q80.08125 181.34375 80.69063 180.46875Q81.31563 179.59375 81.31563 176.95312Q81.31563 174.29688 80.69063 173.4375Q80.08125 172.5625 79.15938 172.5625Q78.25313 172.5625 77.70625 173.32812Q77.03438 174.3125 77.03438 176.95312ZM83.675 176.95312Q83.675 175.04688 84.06563 173.89062Q84.45625 172.73438 85.22188 172.10938Q86.00313 171.46875 87.175 171.46875Q88.03438 171.46875 88.69063 171.82812Q89.34688 172.17188 89.76875 172.82812Q90.19063 173.46875 90.425 174.42188Q90.675 175.35938 90.675 176.95312Q90.675 178.84375 90.28438 180.01562Q89.89375 181.17188 89.1125 181.8125Q88.34688 182.4375 87.175 182.4375Q85.62813 182.4375 84.7375 181.3125Q83.675 179.98438 83.675 176.95312ZM85.03438 176.95312Q85.03438 179.59375 85.64375 180.46875Q86.26875 181.34375 87.175 181.34375Q88.08125 181.34375 88.69063 180.46875Q89.31563 179.59375 89.31563 176.95312Q89.31563 174.29688 88.69063 173.4375Q88.08125 172.5625 87.15938 172.5625Q86.25313 172.5625 85.70625 173.32812Q85.03438 174.3125 85.03438 176.95312Z" fill-rule="nonzero"/><path fill="#000000" d="M66.51875 99.29063L65.20625 99.4Q65.03438 98.61875 64.70625 98.25938Q64.175 97.69688 63.39375 97.69688Q62.753124 97.69688 62.284374 98.05625Q61.659374 98.50938 61.3 99.38438Q60.940624 100.24375 60.925 101.86875Q61.39375 101.13438 62.08125 100.79063Q62.784374 100.43125 63.534374 100.43125Q64.84688 100.43125 65.76875 101.4Q66.70625 102.36875 66.70625 103.91563Q66.70625 104.93125 66.26875 105.80625Q65.83125 106.66563 65.06563 107.13438Q64.31563 107.5875 63.346874 107.5875Q61.690624 107.5875 60.64375 106.38438Q59.6125 105.16563 59.6125 102.36875Q59.6125 99.25938 60.76875 97.85313Q61.76875 96.61875 63.471874 96.61875Q64.7375 96.61875 65.53438 97.3375Q66.34688 98.04063 66.51875 99.29063ZM61.128124 103.91563Q61.128124 104.60313 61.409374 105.22813Q61.70625 105.85313 62.221874 106.18125Q62.753124 106.49375 63.315624 106.49375Q64.15938 106.49375 64.75313 105.82188Q65.3625 105.15 65.3625 103.99375Q65.3625 102.88438 64.76875 102.24375Q64.175 101.60313 63.26875 101.60313Q62.378124 101.60313 61.753124 102.24375Q61.128124 102.88438 61.128124 103.91563ZM67.675 102.10313Q67.675 100.19688 68.06563 99.04063Q68.45625 97.88438 69.22188 97.25938Q70.00313 96.61875 71.175 96.61875Q72.03438 96.61875 72.69063 96.97813Q73.34688 97.32188 73.76875 97.97813Q74.19063 98.61875 74.425 99.57188Q74.675 100.50938 74.675 102.10313Q74.675 103.99375 74.28438 105.16563Q73.89375 106.32188 73.1125 106.9625Q72.34688 107.5875 71.175 107.5875Q69.62813 107.5875 68.7375 106.4625Q67.675 105.13438 67.675 102.10313ZM69.03438 102.10313Q69.03438 104.74375 69.64375 105.61875Q70.26875 106.49375 71.175 106.49375Q72.08125 106.49375 72.69063 105.61875Q73.31563 104.74375 73.31563 102.10313Q73.31563 99.44688 72.69063 98.5875Q72.08125 97.7125 71.15938 97.7125Q70.25313 97.7125 69.70625 98.47813Q69.03438 99.4625 69.03438 102.10313ZM75.675 102.10313Q75.675 100.19688 76.06563 99.04063Q76.45625 97.88438 77.22188 97.25938Q78.00313 96.61875 79.175 96.61875Q80.03438 96.61875 80.69063 96.97813Q81.34688 97.32188 81.76875 97.97813Q82.19063 98.61875 82.425 99.57188Q82.675 100.50938 82.675 102.10313Q82.675 103.99375 82.28438 105.16563Q81.89375 106.32188 81.1125 106.9625Q80.34688 107.5875 79.175 107.5875Q77.62813 107.5875 76.7375 106.4625Q75.675 105.13438 75.675 102.10313ZM77.03438 102.10313Q77.03438 104.74375 77.64375 105.61875Q78.26875 106.49375 79.175 106.49375Q80.08125 106.49375 80.69063 105.61875Q81.31563 104.74375 81.31563 102.10313Q81.31563 99.44688 80.69063 98.5875Q80.08125 97.7125 79.15938 97.7125Q78.25313 97.7125 77.70625 98.47813Q77.03438 99.4625 77.03438 102.10313ZM83.675 102.10313Q83.675 100.19688 84.06563 99.04063Q84.45625 97.88438 85.22188 97.25938Q86.00313 96.61875 87.175 96.61875Q88.03438 96.61875 88.69063 96.97813Q89.34688 97.32188 89.76875 97.97813Q90.19063 98.61875 90.425 99.57188Q90.675 100.50938 90.675 102.10313Q90.675 103.99375 90.28438 105.16563Q89.89375 106.32188 89.1125 106.9625Q88.34688 107.5875 87.175 107.5875Q85.62813 107.5875 84.7375 106.4625Q83.675 105.13438 83.675 102.10313ZM85.03438 102.10313Q85.03438 104.74375 85.64375 105.61875Q86.26875 106.49375 87.175 106.49375Q88.08125 106.49375 88.69063 105.61875Q89.31563 104.74375 89.31563 102.10313Q89.31563 99.44688 88.69063 98.5875Q88.08125 97.7125 87.15938 97.7125Q86.25313 97.7125 85.70625 98.47813Q85.03438 99.4625 85.03438 102.10313Z" fill-rule="nonzero"/><path fill="#000000" d="M61.70625 26.721874Q60.878124 26.425 60.4875 25.878124Q60.096874 25.315624 60.096874 24.534374Q60.096874 23.3625 60.925 22.565624Q61.76875 21.76875 63.175 21.76875Q64.58125 21.76875 65.44063 22.596874Q66.3 23.409374 66.3 24.58125Q66.3 25.315624 65.89375 25.878124Q65.50313 26.425 64.70625 26.721874Q65.70625 27.05 66.22188 27.76875Q66.7375 28.4875 66.7375 29.4875Q66.7375 30.8625 65.75313 31.8Q64.78438 32.7375 63.190624 32.7375Q61.6125 32.7375 60.628124 31.8Q59.659374 30.846874 59.659374 29.440624Q59.659374 28.39375 60.190624 27.690624Q60.721874 26.9875 61.70625 26.721874ZM61.440624 24.4875Q61.440624 25.253124 61.925 25.7375Q62.425 26.221874 63.20625 26.221874Q63.971874 26.221874 64.45625 25.753124Q64.94063 25.26875 64.94063 24.565624Q64.94063 23.846874 64.44063 23.346874Q63.940624 22.846874 63.190624 22.846874Q62.440624 22.846874 61.940624 23.33125Q61.440624 23.815624 61.440624 24.4875ZM61.01875 29.45625Q61.01875 30.01875 61.284374 30.55Q61.55 31.065624 62.065624 31.3625Q62.596874 31.64375 63.20625 31.64375Q64.15938 31.64375 64.76875 31.05Q65.37813 30.440624 65.37813 29.503124Q65.37813 28.55 64.7375 27.925Q64.1125 27.3 63.159374 27.3Q62.2375 27.3 61.628124 27.925Q61.01875 28.534374 61.01875 29.45625ZM67.675 27.253124Q67.675 25.346874 68.06563 24.190624Q68.45625 23.034374 69.22188 22.409374Q70.00313 21.76875 71.175 21.76875Q72.03438 21.76875 72.69063 22.128124Q73.34688 22.471874 73.76875 23.128124Q74.19063 23.76875 74.425 24.721874Q74.675 25.659374 74.675 27.253124Q74.675 29.14375 74.28438 30.315624Q73.89375 31.471874 73.1125 32.1125Q72.34688 32.7375 71.175 32.7375Q69.62813 32.7375 68.7375 31.6125Q67.675 30.284374 67.675 27.253124ZM69.03438 27.253124Q69.03438 29.89375 69.64375 30.76875Q70.26875 31.64375 71.175 31.64375Q72.08125 31.64375 72.69063 30.76875Q73.31563 29.89375 73.31563 27.253124Q73.31563 24.596874 72.69063 23.7375Q72.08125 22.8625 71.15938 22.8625Q70.25313 22.8625 69.70625 23.628124Q69.03438 24.6125 69.03438 27.253124ZM75.675 27.253124Q75.675 25.346874 76.06563 24.190624Q76.45625 23.034374 77.22188 22.409374Q78.00313 21.76875 79.175 21.76875Q80.03438 21.76875 80.69063 22.128124Q81.34688 22.471874 81.76875 23.128124Q82.19063 23.76875 82.425 24.721874Q82.675 25.659374 82.675 27.253124Q82.675 29.14375 82.28438 30.315624Q81.89375 31.471874 81.1125 32.1125Q80.34688 32.7375 79.175 32.7375Q77.62813 32.7375 76.7375 31.6125Q75.675 30.284374 75.675 27.253124ZM77.03438 27.253124Q77.03438 29.89375 77.64375 30.76875Q78.26875 31.64375 79.175 31.64375Q80.08125 31.64375 80.69063 30.76875Q81.31563 29.89375 81.31563 27.253124Q81.31563 24.596874 80.69063 23.7375Q80.08125 22.8625 79.15938 22.8625Q78.25313 22.8625 77.70625 23.628124Q77.03438 24.6125 77.03438 27.253124ZM83.675 27.253124Q83.675 25.346874 84.06563 24.190624Q84.45625 23.034374 85.22188 22.409374Q86.00313 21.76875 87.175 21.76875Q88.03438 21.76875 88.69063 22.128124Q89.34688 22.471874 89.76875 23.128124Q90.19063 23.76875 90.425 24.721874Q90.675 25.659374 90.675 27.253124Q90.675 29.14375 90.28438 30.315624Q89.89375 31.471874 89.1125 32.1125Q88.34688 32.7375 87.175 32.7375Q85.62813 32.7375 84.7375 31.6125Q83.675 30.284374 83.675 27.253124ZM85.03438 27.253124Q85.03438 29.89375 85.64375 30.76875Q86.26875 31.64375 87.175 31.64375Q88.08125 31.64375 88.69063 30.76875Q89.31563 29.89375 89.31563 27.253124Q89.31563 24.596874 88.69063 23.7375Q88.08125 22.8625 87.15938 22.8625Q86.25313 22.8625 85.70625 23.628124Q85.03438 24.6125 85.03438 27.253124Z" fill-rule="nonzero"/><path fill="#000000" d="M212.91158 348.45L209.94283 340.66876L211.33345 340.66876L213.00533 345.325Q213.27095 346.09064 213.50533 346.90314Q213.6772 346.27814 213.9897 345.41876L215.72408 340.66876L217.08345 340.66876L214.13033 348.45L212.91158 348.45ZM217.38033 345.6219L218.70845 345.4344Q218.9272 346.5594 219.47408 347.0594Q220.02095 347.54376 220.8022 347.54376Q221.7397 347.54376 222.38033 346.90314Q223.02095 346.2625 223.02095 345.3094Q223.02095 344.40314 222.4272 343.8094Q221.83345 343.21564 220.91158 343.21564Q220.53658 343.21564 219.9897 343.3719L220.13033 342.21564Q220.27095 342.23126 220.34908 342.23126Q221.19283 342.23126 221.8647 341.79376Q222.53658 341.34064 222.53658 340.4344Q222.53658 339.7 222.03658 339.23126Q221.5522 338.7469 220.77095 338.7469Q220.00533 338.7469 219.4897 339.23126Q218.9897 339.71564 218.83345 340.6844L217.52095 340.45Q217.75533 339.1219 218.6147 338.40314Q219.47408 337.66876 220.7397 337.66876Q221.63033 337.66876 222.3647 338.04376Q223.09908 338.41876 223.4897 339.075Q223.89595 339.73126 223.89595 340.46564Q223.89595 341.15314 223.52095 341.73126Q223.14595 342.29376 222.41158 342.6375Q223.3647 342.85626 223.88033 343.54376Q224.41158 344.23126 224.41158 345.27814Q224.41158 346.6844 223.38033 347.66876Q222.3647 348.6375 220.8022 348.6375Q219.38033 348.6375 218.44283 347.79376Q217.52095 346.95 217.38033 345.6219ZM226.1147 348.45L226.1147 346.95L227.6147 346.95L227.6147 348.45L226.1147 348.45ZM234.34908 348.45L233.02095 348.45L233.02095 340.04376Q232.5522 340.4969 231.77095 340.96564Q231.00533 341.41876 230.39595 341.6375L230.39595 340.35626Q231.4897 339.84064 232.31783 339.10626Q233.14595 338.3719 233.4897 337.66876L234.34908 337.66876L234.34908 348.45ZM242.34908 348.45L241.02095 348.45L241.02095 340.04376Q240.5522 340.4969 239.77095 340.96564Q239.00533 341.41876 238.39595 341.6375L238.39595 340.35626Q239.4897 339.84064 240.31783 339.10626Q241.14595 338.3719 241.4897 337.66876L242.34908 337.66876L242.34908 348.45ZM246.1147 348.45L246.1147 346.95L247.6147 346.95L247.6147 348.45L246.1147 348.45ZM254.34908 348.45L253.02095 348.45L253.02095 340.04376Q252.5522 340.4969 251.77095 340.96564Q251.00533 341.41876 250.39595 341.6375L250.39595 340.35626Q251.4897 339.84064 252.31783 339.10626Q253.14595 338.3719 253.4897 337.66876L254.34908 337.66876L254.34908 348.45ZM257.3803 343.15314Q257.3803 341.2469 257.77094 340.09064Q258.16156 338.9344 258.9272 338.3094Q259.70844 337.66876 260.8803 337.66876Q261.7397 337.66876 262.39594 338.02814Q263.0522 338.3719 263.47406 339.02814Q263.89594 339.66876 264.1303 340.6219Q264.3803 341.5594 264.3803 343.15314Q264.3803 345.04376 263.9897 346.21564Q263.59906 347.3719 262.8178 348.0125Q262.0522 348.6375 260.8803 348.6375Q259.33344 348.6375 258.4428 347.5125Q257.3803 346.1844 257.3803 343.15314ZM258.7397 343.15314Q258.7397 345.79376 259.34906 346.66876Q259.97406 347.54376 260.8803 347.54376Q261.78656 347.54376 262.39594 346.66876Q263.02094 345.79376 263.02094 343.15314Q263.02094 340.4969 262.39594 339.6375Q261.78656 338.7625 260.8647 338.7625Q259.95844 338.7625 259.41156 339.52814Q258.7397 340.5125 258.7397 343.15314Z" fill-rule="nonzero"/><path fill="#000000" d="M399.90094 348.45L396.9322 340.66876L398.3228 340.66876L399.9947 345.325Q400.2603 346.09064 400.4947 346.90314Q400.66656 346.27814 400.97906 345.41876L402.71344 340.66876L404.0728 340.66876L401.1197 348.45L399.90094 348.45ZM404.3697 345.6219L405.6978 345.4344Q405.91656 346.5594 406.46344 347.0594Q407.0103 347.54376 407.79156 347.54376Q408.72906 347.54376 409.3697 346.90314Q410.0103 346.2625 410.0103 345.3094Q410.0103 344.40314 409.41656 343.8094Q408.8228 343.21564 407.90094 343.21564Q407.52594 343.21564 406.97906 343.3719L407.1197 342.21564Q407.2603 342.23126 407.33844 342.23126Q408.1822 342.23126 408.85406 341.79376Q409.52594 341.34064 409.52594 340.4344Q409.52594 339.7 409.02594 339.23126Q408.54156 338.7469 407.7603 338.7469Q406.9947 338.7469 406.47906 339.23126Q405.97906 339.71564 405.8228 340.6844L404.5103 340.45Q404.7447 339.1219 405.60406 338.40314Q406.46344 337.66876 407.72906 337.66876Q408.6197 337.66876 409.35406 338.04376Q410.08844 338.41876 410.47906 339.075Q410.8853 339.73126 410.8853 340.46564Q410.8853 341.15314 410.5103 341.73126Q410.1353 342.29376 409.40094 342.6375Q410.35406 342.85626 410.8697 343.54376Q411.40094 344.23126 411.40094 345.27814Q411.40094 346.6844 410.3697 347.66876Q409.35406 348.6375 407.79156 348.6375Q406.3697 348.6375 405.4322 347.79376Q404.5103 346.95 404.3697 345.6219ZM413.10406 348.45L413.10406 346.95L414.60406 346.95L414.60406 348.45L413.10406 348.45ZM421.33844 348.45L420.0103 348.45L420.0103 340.04376Q419.54156 340.4969 418.7603 340.96564Q417.9947 341.41876 417.3853 341.6375L417.3853 340.35626Q418.47906 339.84064 419.3072 339.10626Q420.1353 338.3719 420.47906 337.66876L421.33844 337.66876L421.33844 348.45ZM431.29156 347.1844L431.29156 348.45L424.1978 348.45Q424.1822 347.98126 424.35406 347.52814Q424.6197 346.8094 425.21344 346.10626Q425.8228 345.40314 426.9478 344.48126Q428.6978 343.04376 429.3072 342.21564Q429.9322 341.3719 429.9322 340.6219Q429.9322 339.84064 429.3697 339.3094Q428.8072 338.7625 427.90094 338.7625Q426.9478 338.7625 426.3697 339.34064Q425.8072 339.90314 425.8072 340.91876L424.4478 340.77814Q424.58844 339.2625 425.4947 338.46564Q426.40094 337.66876 427.9322 337.66876Q429.47906 337.66876 430.3697 338.52814Q431.27594 339.3875 431.27594 340.65314Q431.27594 341.29376 431.0103 341.91876Q430.7603 342.54376 430.1353 343.23126Q429.52594 343.91876 428.10406 345.1219Q426.91656 346.10626 426.5728 346.46564Q426.2447 346.825 426.02594 347.1844L431.29156 347.1844ZM433.10406 348.45L433.10406 346.95L434.60406 346.95L434.60406 348.45L433.10406 348.45ZM436.3697 343.15314Q436.3697 341.2469 436.7603 340.09064Q437.15094 338.9344 437.91656 338.3094Q438.6978 337.66876 439.8697 337.66876Q440.72906 337.66876 441.3853 338.02814Q442.04156 338.3719 442.46344 339.02814Q442.8853 339.66876 443.1197 340.6219Q443.3697 341.5594 443.3697 343.15314Q443.3697 345.04376 442.97906 346.21564Q442.58844 347.3719 441.8072 348.0125Q441.04156 348.6375 439.8697 348.6375Q438.3228 348.6375 437.4322 347.5125Q436.3697 346.1844 436.3697 343.15314ZM437.72906 343.15314Q437.72906 345.79376 438.33844 346.66876Q438.96344 347.54376 439.8697 347.54376Q440.77594 347.54376 441.3853 346.66876Q442.0103 345.79376 442.0103 343.15314Q442.0103 340.4969 441.3853 339.6375Q440.77594 338.7625 439.85406 338.7625Q438.9478 338.7625 438.40094 339.52814Q437.72906 340.5125 437.72906 343.15314ZM444.21344 345.23126L444.21344 343.90314L448.27594 343.90314L448.27594 345.23126L444.21344 345.23126ZM450.9478 348.45L449.72906 348.45L449.72906 337.71564L451.04156 337.71564L451.04156 341.54376Q451.8853 340.4969 453.1822 340.4969Q453.90094 340.4969 454.54156 340.79376Q455.1822 341.075 455.58844 341.60626Q456.0103 342.1219 456.2447 342.8719Q456.47906 343.60626 456.47906 344.45Q456.47906 346.45 455.47906 347.54376Q454.4947 348.6219 453.10406 348.6219Q451.72906 348.6219 450.9478 347.48126L450.9478 348.45ZM450.9322 344.4969Q450.9322 345.90314 451.3228 346.52814Q451.9322 347.54376 452.9947 347.54376Q453.8697 347.54376 454.4947 346.79376Q455.1197 346.04376 455.1197 344.5594Q455.1197 343.02814 454.5103 342.3094Q453.91656 341.575 453.0572 341.575Q452.1978 341.575 451.5572 342.325Q450.9322 343.075 450.9322 344.4969ZM463.0572 345.95L464.41656 346.10626Q464.10406 347.3094 463.22906 347.96564Q462.35406 348.6219 460.9947 348.6219Q459.29156 348.6219 458.29156 347.575Q457.29156 346.52814 457.29156 344.6219Q457.29156 342.66876 458.3072 341.59064Q459.3228 340.4969 460.9322 340.4969Q462.4947 340.4969 463.47906 341.5594Q464.46344 342.6219 464.46344 344.54376Q464.46344 344.66876 464.46344 344.90314L458.65094 344.90314Q458.72906 346.1844 459.3697 346.8719Q460.02594 347.54376 461.0103 347.54376Q461.72906 347.54376 462.2447 347.16876Q462.7603 346.77814 463.0572 345.95ZM458.72906 343.8094L463.0728 343.8094Q462.97906 342.825 462.5728 342.34064Q461.9478 341.575 460.9478 341.575Q460.02594 341.575 459.40094 342.1844Q458.79156 342.79376 458.72906 343.8094ZM468.6197 347.27814L468.8072 348.4344Q468.2447 348.5594 467.8072 348.5594Q467.08844 348.5594 466.6822 348.325Q466.29156 348.09064 466.1353 347.73126Q465.97906 347.35626 465.97906 346.16876L465.97906 341.7L465.0103 341.7L465.0103 340.66876L465.97906 340.66876L465.97906 338.7469L467.29156 337.95L467.29156 340.66876L468.6197 340.66876L468.6197 341.7L467.29156 341.7L467.29156 346.2469Q467.29156 346.8094 467.35406 346.98126Q467.4322 347.1375 467.58844 347.23126Q467.7447 347.325 468.02594 347.325Q468.2603 347.325 468.6197 347.27814ZM474.8072 347.4969Q474.0728 348.10626 473.40094 348.3719Q472.72906 348.6219 471.9478 348.6219Q470.66656 348.6219 469.97906 347.9969Q469.29156 347.3719 469.29156 346.40314Q469.29156 345.825 469.54156 345.35626Q469.8072 344.8875 470.22906 344.60626Q470.65094 344.3094 471.1822 344.16876Q471.5572 344.0594 472.35406 343.96564Q473.9478 343.77814 474.6978 343.5125Q474.71344 343.2469 474.71344 343.16876Q474.71344 342.35626 474.33844 342.02814Q473.8228 341.59064 472.83844 341.59064Q471.90094 341.59064 471.4478 341.91876Q471.0103 342.23126 470.8072 343.0594L469.5103 342.8875Q469.6822 342.0594 470.08844 341.5594Q470.4947 341.04376 471.2603 340.77814Q472.02594 340.4969 473.02594 340.4969Q474.02594 340.4969 474.6353 340.73126Q475.2603 340.96564 475.5572 341.325Q475.85406 341.66876 475.96344 342.21564Q476.02594 342.5594 476.02594 343.4344L476.02594 345.1844Q476.02594 347.02814 476.10406 347.5125Q476.1978 347.9969 476.4478 348.45L475.0728 348.45Q474.8697 348.04376 474.8072 347.4969ZM474.6978 344.54376Q473.97906 344.84064 472.54156 345.04376Q471.72906 345.16876 471.3853 345.3094Q471.0572 345.45 470.8697 345.73126Q470.6978 346.0125 470.6978 346.35626Q470.6978 346.8875 471.08844 347.2469Q471.4947 347.59064 472.2603 347.59064Q473.02594 347.59064 473.6197 347.2625Q474.21344 346.91876 474.4947 346.34064Q474.6978 345.90314 474.6978 345.02814L474.6978 344.54376ZM478.10406 348.45L478.10406 346.95L479.60406 346.95L479.60406 348.45L478.10406 348.45ZM488.29156 347.1844L488.29156 348.45L481.1978 348.45Q481.1822 347.98126 481.35406 347.52814Q481.6197 346.8094 482.21344 346.10626Q482.8228 345.40314 483.9478 344.48126Q485.6978 343.04376 486.3072 342.21564Q486.9322 341.3719 486.9322 340.6219Q486.9322 339.84064 486.3697 339.3094Q485.8072 338.7625 484.90094 338.7625Q483.9478 338.7625 483.3697 339.34064Q482.8072 339.90314 482.8072 340.91876L481.4478 340.77814Q481.58844 339.2625 482.4947 338.46564Q483.40094 337.66876 484.9322 337.66876Q486.47906 337.66876 487.3697 338.52814Q488.27594 339.3875 488.27594 340.65314Q488.27594 341.29376 488.0103 341.91876Q487.7603 342.54376 487.1353 343.23126Q486.52594 343.91876 485.10406 345.1219Q483.91656 346.10626 483.5728 346.46564Q483.2447 346.825 483.02594 347.1844L488.29156 347.1844Z" fill-rule="nonzero"/></svg>