<svg id="Layer_1" data-name="Layer 1" xmlns="http://www.w3.org/2000/svg" xmlns:xlink="http://www.w3.org/1999/xlink" viewBox="0 0 260 399"><defs><style>.cls-1,.cls-18,.cls-2,.cls-20,.cls-7{fill:none;}.cls-2{clip-rule:evenodd;}.cls-3{clip-path:url(#clip-path);}.cls-4,.cls-6{fill:#fff;}.cls-18,.cls-4,.cls-7{stroke:#ef6924;stroke-miterlimit:10;}.cls-20,.cls-4,.cls-6,.cls-7{stroke-width:2px;}.cls-5{clip-path:url(#clip-path-2);}.cls-20,.cls-6{stroke:#866e8b;stroke-linejoin:round;}.cls-18,.cls-20,.cls-6{stroke-linecap:round;}.cls-8{fill:#ef6924;}.cls-9{clip-path:url(#clip-path-3);}.cls-10{clip-path:url(#clip-path-4);}.cls-11{clip-path:url(#clip-path-5);}.cls-12{clip-path:url(#clip-path-6);}.cls-13{clip-path:url(#clip-path-7);}.cls-14{clip-path:url(#clip-path-8);}.cls-15{clip-path:url(#clip-path-9);}.cls-16{clip-path:url(#clip-path-10);}.cls-17{clip-path:url(#clip-path-11);}.cls-18{stroke-width:3px;}.cls-19{clip-path:url(#clip-path-12);}</style><clipPath id="clip-path"><polygon class="cls-1" points="270.21 426.55 16.95 426.55 16.95 299.94 270.21 260.04 270.21 426.55"/></clipPath><clipPath id="clip-path-2"><polygon class="cls-1" points="272.1 398.44 -21.16 408.44 -21.16 281.83 272.1 231.93 272.1 398.44"/></clipPath><clipPath id="clip-path-3"><circle class="cls-1" cx="-168.85" cy="217.16" r="5.43" transform="translate(-248.32 -46.19) rotate(-54.66)"/></clipPath><clipPath id="clip-path-4"><circle class="cls-1" cx="-168.69" cy="218.88" r="5.43" transform="translate(-218.24 -52.98) rotate(-47.95)"/></clipPath><clipPath id="clip-path-5"><path class="cls-2" d="M-168.82,219.06a5.43,5.43,0,0,0,7.61-1,5.42,5.42,0,0,0-1-7.61,5.43,5.43,0,0,0-7.61,1A5.43,5.43,0,0,0-168.82,219.06Z"/></clipPath><clipPath id="clip-path-6"><path class="cls-2" d="M-165.63,214.94a5.42,5.42,0,0,0,7.61-1,5.42,5.42,0,0,0-1-7.61,5.42,5.42,0,0,0-7.61,1A5.42,5.42,0,0,0-165.63,214.94Z"/></clipPath><clipPath id="clip-path-7"><circle class="cls-1" cx="-235.2" cy="252.74" r="5.43"/></clipPath><clipPath id="clip-path-8"><circle class="cls-1" cx="-205.98" cy="215.8" r="5.43" transform="translate(-346.68 -47.26) rotate(-71.81)"/></clipPath><clipPath id="clip-path-9"><circle class="cls-1" cx="-205.98" cy="221.23" r="5.43" transform="translate(-301.45 -65.57) rotate(-61.37)"/></clipPath><clipPath id="clip-path-10"><circle class="cls-1" cx="-172.56" cy="271.08" r="5.43"/></clipPath><clipPath id="clip-path-11"><circle class="cls-1" cx="-167.39" cy="271.73" r="5.43"/></clipPath><clipPath id="clip-path-12"><rect class="cls-1" x="-184.89" y="62.48" width="90.05" height="148.46"/></clipPath></defs><title>pipeline-3</title><g class="cls-3"><path class="cls-4" d="M-57.53,440.77h-79.2V394.42h79.2A77.41,77.41,0,0,0-2.43,371.6a124.28,124.28,0,0,1,87.88-36.4H180a77.42,77.42,0,0,0,55.1-22.83l4.61-4.6a124.28,124.28,0,0,1,87.87-36.4h98.74v46.35H327.61a77.41,77.41,0,0,0-55.1,22.82l-4.61,4.61A124.24,124.24,0,0,1,180,381.55H85.45a77.38,77.38,0,0,0-55.1,22.82A123.75,123.75,0,0,1-10,431.31,123.65,123.65,0,0,1-57.53,440.77Z"/><path class="cls-4" d="M180,335.2a77.42,77.42,0,0,0,55.1-22.83l4.61-4.6a124.28,124.28,0,0,1,87.87-36.4h98.74v46.35H327.61a77.41,77.41,0,0,0-55.1,22.82l-4.61,4.61A124.24,124.24,0,0,1,180,381.55H85.45a77.38,77.38,0,0,0-55.1,22.82A123.75,123.75,0,0,1-10,431.31a123.65,123.65,0,0,1-47.56,9.46h-79.2V394.42h79.2A77.41,77.41,0,0,0-2.43,371.6a124.28,124.28,0,0,1,87.88-36.4Z"/><rect class="cls-4" x="54.61" y="344.62" width="54.32" height="27.49" transform="translate(-276.59 440.14) rotate(-90)"/><rect class="cls-4" x="158.67" y="342.46" width="54.32" height="27.49" transform="translate(-170.37 542.03) rotate(-90)"/></g><g class="cls-5"><path class="cls-6" d="M-65.64,412.66h-79.21V366.31h79.21a77.41,77.41,0,0,0,55.1-22.82,124.28,124.28,0,0,1,87.88-36.4h94.58A77.42,77.42,0,0,0,227,284.26l4.61-4.6a124.24,124.24,0,0,1,87.87-36.4h98.74v46.35H319.5a77.41,77.41,0,0,0-55.1,22.82L259.79,317a124.28,124.28,0,0,1-87.87,36.4H77.34a77.42,77.42,0,0,0-55.11,22.82A123.61,123.61,0,0,1-18.08,403.2,123.65,123.65,0,0,1-65.64,412.66Z"/><path class="cls-6" d="M171.92,307.09A77.42,77.42,0,0,0,227,284.26l4.61-4.6a124.24,124.24,0,0,1,87.87-36.4h98.74v46.35H319.5a77.41,77.41,0,0,0-55.1,22.82L259.79,317a124.28,124.28,0,0,1-87.87,36.4H77.34a77.42,77.42,0,0,0-55.11,22.82A123.61,123.61,0,0,1-18.08,403.2a123.65,123.65,0,0,1-47.56,9.46h-79.21V366.31h79.21a77.41,77.41,0,0,0,55.1-22.82,124.28,124.28,0,0,1,87.88-36.4Z"/><rect class="cls-6" x="46.5" y="316.51" width="54.32" height="27.49" transform="translate(-256.59 403.92) rotate(-90)"/><rect class="cls-6" x="159.62" y="314.34" width="54.32" height="27.49" transform="translate(-141.31 514.87) rotate(-90)"/></g><ellipse class="cls-7" cx="128.59" cy="328.89" rx="15.84" ry="10.06"/><ellipse class="cls-7" cx="128.59" cy="328.89" rx="15.84" ry="10.06" transform="translate(-220.53 275.81) rotate(-60)"/><ellipse class="cls-7" cx="128.59" cy="328.89" rx="10.06" ry="15.84" transform="translate(-147.22 108.36) rotate(-30)"/><circle class="cls-8" cx="128.77" cy="328.96" r="3.73"/><line class="cls-18" x1="4" y1="397" x2="256" y2="397"/><g class="cls-19"><path class="cls-6" d="M-180.62,51.6V131a73.31,73.31,0,0,0,73.22,73.23H79.31"/><path class="cls-6" d="M79.31,142.43H-107.4A11.43,11.43,0,0,1-118.81,131V51.6"/><path class="cls-20" d="M-165.17,51.6V131a57.83,57.83,0,0,0,57.77,57.77H79.31"/><path class="cls-20" d="M79.31,157.88H29.9c-11.3,0-100.46-1.9-142.15-2.8a22.06,22.06,0,0,1-21.58-21.83l-.43-81.65"/><path class="cls-20" d="M79.31,173.33H-107.4A42.32,42.32,0,0,1-149.72,131V51.6"/></g></svg>