<?xml version="1.0" encoding="UTF-8"?>
<svg width="628px" height="248px" viewBox="0 0 628 248" version="1.1" xmlns="http://www.w3.org/2000/svg" xmlns:xlink="http://www.w3.org/1999/xlink">
    <!-- Generator: Sketch 55.2 (78181) - https://sketchapp.com -->
    <title>hero-tablet_2</title>
    <desc>Created with Sketch.</desc>
    <defs>
        <path d="M78.9240102,45.688694 L78.9240102,97.9069399 L78.9240102,97.9069399 C78.9240102,107.077438 71.5416461,114.511595 62.4350384,114.511595 L16.4889719,114.511595 L16.4889719,114.511595 C7.38236421,114.511595 -3.55271368e-15,107.077438 -3.55271368e-15,97.9069399 L-3.55271368e-15,45.688694 L-3.55271368e-15,39.7388622 L-3.55271368e-15,39.7388622 C-3.55271368e-15,17.7916947 17.6677415,0 39.4620052,0 C61.2562688,0 78.9240102,17.7916947 78.9240102,39.7388622 L78.9240102,45.688694 Z" id="path-1"></path>
    </defs>
    <g id="hero-tablet_2" stroke="none" stroke-width="1" fill="none" fill-rule="evenodd">
        <g id="Group-23" transform="translate(135.141429, 43.083803) scale(-1, 1) rotate(227.000000) translate(-135.141429, -43.083803) translate(122.141429, 35.583803)">
            <path d="M25.247811,10.6787485 L25.247811,14.2459618 L0,14.2459618 L0,10.6787485 C0.0572196662,10.6825461 0.11487844,10.6844713 0.172930212,10.6844713 C1.79654444,10.6844713 3.11274382,9.17852296 3.11274382,7.32084148 C3.11274382,5.46316 1.79654444,3.95721161 0.172930212,3.95721161 C0.11487844,3.95721161 0.0572196662,3.95913681 -1.77011183e-14,3.96293445 L0,0 L25.247811,0 L25.247811,3.96293445 C23.7046891,4.0653506 22.4809276,5.52958076 22.4809276,7.32084148 C22.4809276,9.11210219 23.7046891,10.5763324 25.247811,10.6787485 Z" id="Combined-Shape" stroke="#866E8B" stroke-width="3" fill="#876E8C"></path>
            <path d="M18.1576723,0.19786058 L18.1576723,14.0988865" id="Line" stroke="#FFFFFF" stroke-width="2" stroke-dasharray="3,2,3,3"></path>
        </g>
        <g id="Group-23" transform="translate(30.351131, 146.622586) scale(-1, 1) rotate(69.000000) translate(-30.351131, -146.622586) translate(17.351131, 139.122586)">
            <path d="M25.247811,10.6787485 L25.247811,14.2459618 L0,14.2459618 L0,10.6787485 C0.0572196662,10.6825461 0.11487844,10.6844713 0.172930212,10.6844713 C1.79654444,10.6844713 3.11274382,9.17852296 3.11274382,7.32084148 C3.11274382,5.46316 1.79654444,3.95721161 0.172930212,3.95721161 C0.11487844,3.95721161 0.0572196662,3.95913681 -1.77011183e-14,3.96293445 L0,0 L25.247811,0 L25.247811,3.96293445 C23.7046891,4.0653506 22.4809276,5.52958076 22.4809276,7.32084148 C22.4809276,9.11210219 23.7046891,10.5763324 25.247811,10.6787485 Z" id="Combined-Shape" stroke="#866E8B" stroke-width="3" fill="#876E8C"></path>
            <path d="M18.1576723,0.19786058 L18.1576723,14.0988865" id="Line" stroke="#FFFFFF" stroke-width="2" stroke-dasharray="3,2,3,3"></path>
        </g>
        <g id="Group-7" transform="translate(23.000000, 14.000000)">
            <g id="Group-5">
                <g id="Group-31" transform="translate(31.000000, 178.000000)">
                    <g id="Group-15" transform="translate(1.083199, 1.632067)">
                        <g id="Mask" fill="#FFFFFF" fill-rule="nonzero">
                            <path d="M78.9240102,45.688694 L78.9240102,97.9069399 L78.9240102,97.9069399 C78.9240102,107.077438 71.5416461,114.511595 62.4350384,114.511595 L16.4889719,114.511595 L16.4889719,114.511595 C7.38236421,114.511595 -3.55271368e-15,107.077438 -3.55271368e-15,97.9069399 L-3.55271368e-15,45.688694 L-3.55271368e-15,39.7388622 L-3.55271368e-15,39.7388622 C-3.55271368e-15,17.7916947 17.6677415,0 39.4620052,0 C61.2562688,0 78.9240102,17.7916947 78.9240102,39.7388622 L78.9240102,45.688694 Z" id="path-22"></path>
                        </g>
                        <g id="Path-10-Clipped">
                            <mask id="mask-2" fill="white">
                                <use xlink:href="#path-1"></use>
                            </mask>
                            <g id="path-22"></g>
                            <g id="Path-10" mask="url(#mask-2)">
                                <g transform="translate(-71.691182, 0.000000)" id="Group">
                                    <g>
                                        <path d="M63.0882403,91.8757458 L154.323896,-2.27373675e-13" id="Shape" stroke="#F06823" stroke-width="3"></path>
                                        <path d="M70.9742703,91.8757458 L162.209926,-2.27373675e-13" id="Shape" stroke="#F06823" stroke-width="3"></path>
                                        <path d="M78.8603004,91.8757458 L170.095956,-2.27373675e-13" id="Shape" stroke="#F06823" stroke-width="3"></path>
                                        <path d="M86.7463304,91.8757458 L177.981986,-2.27373675e-13" id="Shape" stroke="#F06823" stroke-width="3"></path>
                                        <path d="M94.6323605,91.8757458 L185.868016,-2.27373675e-13" id="Shape" stroke="#F06823" stroke-width="3"></path>
                                        <path d="M102.51839,91.8757458 L193.754046,-2.27373675e-13" id="Shape" stroke="#F06823" stroke-width="3"></path>
                                        <path d="M110.404421,91.8757458 L201.640076,-2.27373675e-13" id="Shape" stroke="#F06823" stroke-width="3"></path>
                                        <path d="M118.290451,91.8757458 L209.526106,-2.27373675e-13" id="Shape" stroke="#F06823" stroke-width="3"></path>
                                        <path d="M0,91.8757458 L91.2356559,-2.27373675e-13" id="Shape" stroke="#F06823" stroke-width="3"></path>
                                        <path d="M7.88603004,91.8757458 L99.1216859,-2.27373675e-13" id="Shape" stroke="#F06823" stroke-width="3"></path>
                                        <path d="M15.7720601,91.8757458 L107.007716,-2.27373675e-13" id="Shape" stroke="#F06823" stroke-width="3"></path>
                                        <path d="M23.6580901,91.8757458 L114.893746,-2.27373675e-13" id="Shape" stroke="#F06823" stroke-width="3"></path>
                                        <path d="M31.5441202,91.8757458 L122.779776,-2.27373675e-13" id="Shape" stroke="#F06823" stroke-width="3"></path>
                                        <path d="M39.4301502,91.8757458 L130.665806,-2.27373675e-13" id="Shape" stroke="#F06823" stroke-width="3"></path>
                                        <path d="M47.3161802,91.8757458 L138.551836,-2.27373675e-13" id="Shape" stroke="#F06823" stroke-width="3"></path>
                                        <path d="M55.2022103,91.8757458 L146.437866,-2.27373675e-13" id="Shape" stroke="#F06823" stroke-width="3"></path>
                                        <path d="M126.176481,91.8757458 L217.412137,-2.27373675e-13" id="Shape" stroke="#F06823" stroke-width="3"></path>
                                        <path d="M134.062511,91.8757458 L225.298167,-2.27373675e-13" id="Shape" stroke="#F06823" stroke-width="3"></path>
                                        <path d="M141.948541,91.8757458 L233.184197,-2.27373675e-13" id="Shape" stroke="#F06823" stroke-width="3"></path>
                                        <path d="M149.834571,91.8757458 L241.070227,-2.27373675e-13" id="Shape" stroke="#F06823" stroke-width="3"></path>
                                        <path d="M157.720601,91.8757458 L248.956257,-2.27373675e-13" id="Shape" stroke="#F06823" stroke-width="3"></path>
                                        <path d="M165.606631,91.8757458 L256.842287,-2.27373675e-13" id="Shape" stroke="#F06823" stroke-width="3"></path>
                                        <path d="M173.492661,91.8757458 L264.728317,-2.27373675e-13" id="Shape" stroke="#F06823" stroke-width="3"></path>
                                    </g>
                                </g>
                            </g>
                        </g>
                    </g>
                    <path d="M81.2399578,98.6860699 L81.2399578,41.2564876 C81.2399578,19.3725242 63.5387382,1.63206685 41.703178,1.63206685 C19.867618,1.63206685 2.16639888,19.3725242 2.16639888,41.2564876 L2.16639888,98.6860699 C2.16639888,107.278854 9.11681871,114.24468 17.690596,114.24468 L65.7157607,114.24468 C74.2895379,114.24468 81.2399578,107.278854 81.2399578,98.6860699 Z" id="Combined-Shape" stroke="#F06823" stroke-width="3"></path>
                    <g id="Combined-Shape">
                        <g id="path-32-link" fill="#FFFFFF">
                            <path d="M66.8606986,46.3323991 C66.8606986,46.2890861 66.8606986,46.2457481 66.8606986,46.2023843 L66.8606986,42.3632431 C66.8606986,28.3110158 55.5049079,16.9194352 41.4968304,16.9194352 L41.4968304,16.9194352 L41.4968304,16.9194352 C27.4887523,16.9194352 16.1329615,28.3110158 16.1329615,42.3632431 L16.1329615,42.3632431 L16.1329615,46.2023843 C16.1329615,46.2457481 16.1329615,46.2890861 16.1329615,46.3323991 C16.1329615,46.3677122 16.1329615,46.4030517 16.1329615,46.4384163 L16.1329615,46.4384163 L16.1329615,77.6216703 C16.1329615,86.9660161 23.6842514,94.5411055 32.9992395,94.5411055 L49.9944206,94.5411055 C59.3094085,94.5411055 66.8606986,86.9660161 66.8606986,77.6216703 L66.8606986,77.6216703 L66.8606986,46.4384163 C66.8606986,46.4030517 66.8606986,46.3677122 66.8606986,46.3323991 Z M82.5066925,46.1092516 L82.5066925,99.7629956 L82.5066925,99.7629956 C82.5066925,109.107342 74.9554025,116.682431 65.6404145,116.682431 L16.866278,116.682431 C7.5512899,116.682431 0,109.107342 0,99.7629956 L0,46.1092516 L0,41.3833635 C0,18.527963 18.4697522,0 41.2533459,0 L41.2533459,0 L41.2533459,0 C64.0369404,0 82.5066925,18.527963 82.5066925,41.3833635 L82.5066925,46.1092516 Z" id="path-32"></path>
                        </g>
                        <path d="M67.8190257,46.2312966 L67.8190257,46.2190298 C67.8190257,46.2752843 67.8190257,46.2752843 67.8190257,46.3315903 L67.8190257,77.4519555 C67.8190257,87.3856409 59.7902838,95.4384845 49.8863277,95.4384845 L32.9228877,95.4384845 C23.018932,95.4384845 14.9901897,87.3856409 14.9901897,77.4519555 L14.9901897,46.3315903 C14.9901897,46.2752843 14.9901897,46.2752843 14.9901897,46.2312966 C14.9901897,46.1636908 14.9901897,46.1636908 14.9901897,46.0960343 L14.9901897,42.2646356 C14.9901897,27.6325634 26.8163275,15.7709254 41.4046081,15.7709254 C55.9928879,15.7709254 67.8190257,27.6325634 67.8190257,42.2646356 L67.8190257,46.0960343 C67.8190257,46.1636908 67.8190257,46.1636908 67.8190257,46.2312966 Z M81.2399578,99.5486274 L81.2399578,41.2867323 C81.2399578,19.08561 63.2962558,1.08804457 41.1615783,1.08804457 C19.026901,1.08804457 1.08319944,19.08561 1.08319944,41.2867323 L1.08319944,99.5486274 C1.08319944,108.265944 8.1288305,115.332724 16.8200568,115.332724 L65.5031004,115.332724 C74.1943267,115.332724 81.2399578,108.265944 81.2399578,99.5486274 Z" id="Shape" stroke="#F06823" stroke-width="2"></path>
                    </g>
                </g>
                <path d="M82.1082892,121.311552 C82.4175465,120.4709 83.8138761,116.587818 83.8505601,114.911045 C84.0323165,106.603224 84.0323165,111.59502 84.0323165,99.4997983 C84.0323165,79.7371282 90.2281667,68 96.3896015,68 C96.9101347,68 97.4381962,68.0845203 97.9684087,68.254703 C102.443488,69.6949745 107.547869,77.8710043 103.56414,96.093859 C100.102655,111.927806 96.9742593,117.576667 95.7962344,120.580253 C94.8555993,122.978571 95.1065518,120.459688 94.1859395,124.836468 C98.2738455,127.801532 88.9542667,131.787691 89.8038972,136 C82.095664,132.377697 75.8276981,129.432215 71,127.163552 C66.1723014,129.432215 59.9043361,132.377697 52.1961025,136 C53.0457334,131.787691 43.7261546,127.801532 47.8140604,124.836468 C46.8934484,120.459688 47.1444008,122.978571 46.2037653,120.580253 C45.0257408,117.576667 41.8973452,111.927806 38.43586,96.093859 C34.4521312,77.8710043 39.5565117,69.6949745 44.0315911,68.254703 C44.5618035,68.0845203 45.0898654,68 45.6103983,68 C51.7718333,68 57.9676833,79.7371282 57.9676833,99.4997983 C57.9676833,111.59502 57.9676833,106.603224 58.1494401,114.911045 C58.1861242,116.587818 59.5824537,120.4709 59.891711,121.311552 C61.043259,121.188686 62.5335613,121.139277 64.0256755,121.139277 C65.064816,121.139277 67.8871689,121.163181 71,121.202604 C74.1128312,121.163181 76.9351837,121.139277 77.9743241,121.139277 C79.466439,121.139277 80.9567411,121.188686 82.1082892,121.311552 Z" id="Combined-Shape" stroke="#F06823" stroke-width="2" fill="#FFFFFF" fill-rule="nonzero"></path>
                <g transform="translate(65.000000, 170.000000)">
                    <g id="Group-21" transform="translate(0.000000, 5.479891)">
                        <g id="Oval-15">
                            <g id="path-24-link" fill="#FFFFFF">
                                <ellipse id="path-24" cx="5.88632812" cy="5.47989118" rx="5.88632812" ry="5.47989118"></ellipse>
                            </g>
                            <ellipse id="Oval" stroke="#F06823" stroke-width="3" cx="5.88632812" cy="5.47989118" rx="4.82750459" ry="4.49417689"></ellipse>
                        </g>
                        <g id="Oval-15" transform="translate(0.000000, 5.257143)">
                            <g id="path-25-link" fill="#FFFFFF">
                                <ellipse id="path-25" cx="5.88632812" cy="5.70263952" rx="5.88632812" ry="5.47989118"></ellipse>
                            </g>
                            <ellipse id="Oval" stroke="#F06823" stroke-width="3" cx="5.88632812" cy="5.70263952" rx="4.82750459" ry="4.49417689"></ellipse>
                        </g>
                    </g>
                    <g id="Group-21" transform="translate(0.000000, 5.479891)">
                        <g id="Oval-15">
                            <g id="path-26-link" fill="#FFFFFF">
                                <ellipse id="path-26" cx="5.88632812" cy="5.47989118" rx="5.88632812" ry="5.47989118"></ellipse>
                            </g>
                            <ellipse id="Oval" stroke="#F06823" stroke-width="3" cx="5.88632812" cy="5.47989118" rx="4.82750459" ry="4.49417689"></ellipse>
                        </g>
                    </g>
                    <g id="Oval-15">
                        <g id="path-27-link" fill="#FFFFFF">
                            <ellipse id="path-27" cx="5.88632812" cy="5.47989118" rx="5.88632812" ry="5.47989118"></ellipse>
                        </g>
                        <ellipse id="Oval" stroke="#F06823" stroke-width="3" cx="5.88632812" cy="5.47989118" rx="4.82750459" ry="4.49417689"></ellipse>
                    </g>
                </g>
                <g id="Group-18" transform="translate(64.000000, 96.000000)">
                    <path d="M6.37555941,6.46992174 L6.37555941,30.4435792" id="Path-19" stroke="#F06823" stroke-width="2"></path>
                    <g id="Oval-15">
                        <g id="path-28-link" fill="#FFFFFF">
                            <ellipse id="path-28" cx="6.37555941" cy="6.46992174" rx="6.37555941" ry="6.46992174"></ellipse>
                        </g>
                        <ellipse id="Oval" stroke="#F06823" stroke-width="2" cx="6.37555941" cy="6.46992174" rx="5.41922549" ry="5.49943348"></ellipse>
                    </g>
                </g>
                <g id="Rectangle-2" transform="translate(33.000000, 119.000000)">
                    <g id="path-29-link" fill="#FFFFFF">
                        <rect id="path-29" x="0" y="0" width="74.2445653" height="57.2641424" rx="23"></rect>
                    </g>
                    <path d="M23.9898244,0.991688032 L50.2547409,0.991688032 C62.9572901,0.991688032 73.2547409,11.2891388 73.2547409,23.991688 L73.2547409,33.2724544 C73.2547409,45.9750036 62.9572901,56.2724544 50.2547409,56.2724544 L23.9898244,56.2724544 C11.2872752,56.2724544 0.989824428,45.9750036 0.989824428,33.2724544 L0.989824428,23.991688 C0.989824428,11.2891388 11.2872752,0.991688032 23.9898244,0.991688032 Z" id="Rectangle-path" stroke="#F06823" stroke-width="2"></path>
                </g>
                <g id="Group-3" transform="translate(47.000000, 133.000000)">
                    <g id="Oval-15">
                        <g id="path-30-link" fill="#FFFFFF">
                            <ellipse id="path-30" cx="6.46996462" cy="6.37555941" rx="6.46996462" ry="6.37555941"></ellipse>
                        </g>
                        <path d="M11.6716418,6.15789474 C11.6716418,3.13486242 9.21254907,0.684210526 6.17910448,0.684210526 C3.14565988,0.684210526 0.686567164,3.13486242 0.686567164,6.15789474" id="Oval" stroke="#F06823" stroke-width="2"></path>
                    </g>
                    <g id="Oval-15" transform="translate(32.520721, 0.000000)">
                        <g id="path-31-link" fill="#FFFFFF">
                            <ellipse id="path-31" cx="6.46996462" cy="6.37555941" rx="6.46996462" ry="6.37555941"></ellipse>
                        </g>
                        <path d="M11.9694346,6.37555941 C11.9694346,3.38260381 9.507238,0.956333911 6.46996462,0.956333911 C3.43269125,0.956333911 0.970494693,3.38260381 0.970494693,6.37555941" id="Oval" stroke="#F06823" stroke-width="2"></path>
                    </g>
                </g>
                <g id="Group-2" transform="translate(65.000000, 153.000000)" stroke="#F06823" stroke-width="2">
                    <g id="Group">
                        <g transform="translate(5.712202, 5.036162) scale(-1, 1) translate(-5.712202, -5.036162) translate(0.212202, 0.536162)">
                            <g id="Group-19" transform="translate(4.908928, 4.500000) scale(-1, 1) translate(-4.908928, -4.500000) translate(4.408928, 0.000000)">
                                <g id="Group-17">
                                    <path d="M0,0.268080985 L0,8.84667252" id="Path-18"></path>
                                </g>
                            </g>
                            <path d="M-4.4408921e-16,0 L10.8178562,0 L10.8178562,7.23818661 L10.8178562,7.23818661 C10.8178562,8.12652882 10.0913583,8.84667252 9.1951778,8.84667252 L1.62267843,8.84667252 L1.62267843,8.84667252 C0.726497881,8.84667252 -4.4408921e-16,8.12652882 -4.4408921e-16,7.23818661 L-4.4408921e-16,0 Z" id="Rectangle-4"></path>
                        </g>
                    </g>
                </g>
                <path d="M47,151 C57.8701095,152.333333 66.1846635,153 71.943662,153 C77.7026604,153 84.7214397,152.333333 93,151" id="Line-2" stroke="#F06823" stroke-width="2"></path>
                <g id="Group-23" transform="translate(97.000000, 200.000000) scale(-1, 1) rotate(44.000000) translate(-97.000000, -200.000000) translate(78.000000, 189.000000)">
                    <path d="M37.5647697,15.9889691 L37.5647697,21.3300504 L-1.84741111e-13,21.3300504 L-1.84741111e-13,15.9889691 C0.0851338591,15.9946552 0.170921042,15.9975378 0.257292943,15.9975378 C2.67297541,15.9975378 4.63127297,13.7427265 4.63127297,10.9612759 C4.63127297,8.17982524 2.67297541,5.92501399 0.257292943,5.92501399 C0.170921042,5.92501399 0.0851338591,5.92789653 -2.11733409e-13,5.93358262 L-1.84741111e-13,2.84217094e-13 L37.5647697,2.84217094e-13 L37.5647697,5.93358262 C35.2688471,6.08692725 33.4480826,8.27927506 33.4480826,10.9612759 C33.4480826,13.6432767 35.2688471,15.8356245 37.5647697,15.9889691 Z" id="Combined-Shape" stroke="#F06823" stroke-width="2" fill="#F06823"></path>
                    <path d="M27.015759,0.296250699 L27.015759,21.109839" id="Line" stroke="#FFFFFF" stroke-width="3" stroke-dasharray="4,3,4,3"></path>
                </g>
                <g id="Group-23" transform="translate(87.000000, 193.500000) scale(-1, 1) rotate(65.000000) translate(-87.000000, -193.500000) translate(68.000000, 182.000000)" stroke="#F06823">
                    <path d="M37.5647697,16.8779096 L37.5647697,22.5159395 L4.54747351e-13,22.5159395 L4.54747351e-13,16.8779096 C0.0851338591,16.8839119 0.170921042,16.8869547 0.257292943,16.8869547 C2.67297541,16.8869547 4.63127297,14.5067824 4.63127297,11.5706912 C4.63127297,8.6345999 2.67297541,6.25442765 0.257292943,6.25442765 C0.170921042,6.25442765 0.0851338591,6.25747045 4.28421187e-13,6.26347267 L4.54747351e-13,0 L37.5647697,0 L37.5647697,6.26347267 C35.2688471,6.42534283 33.4480826,8.73957884 33.4480826,11.5706912 C33.4480826,14.4018035 35.2688471,16.7160395 37.5647697,16.8779096 Z" id="Combined-Shape" stroke-width="2" fill="#FFFFFF"></path>
                    <path d="M27.015759,0.312721383 L27.015759,22.2834851" id="Line" stroke-width="3" stroke-dasharray="4,3,4,3"></path>
                </g>
                <g id="Group-23" transform="translate(57.629320, 220.222854) rotate(-141.000000) translate(-57.629320, -220.222854) translate(16.629320, 196.222854)">
                    <path d="M48.3578099,28.2599425 C51.0306431,28.2599425 52.6557691,24.4250667 52.6557691,21.3632157 C52.6557691,18.3013648 48.8436031,12.4657478 46.1707699,12.4657478 C43.4979366,12.4657478 44.9346834,19.6541199 44.9346834,22.7159709 C44.9346834,25.7778218 45.6849767,28.2599425 48.3578099,28.2599425 Z" id="Oval-10" stroke="#F06823" stroke-width="2" fill="#FFFFFF" transform="translate(48.602403, 20.362845) rotate(-424.000000) translate(-48.602403, -20.362845) "></path>
                    <g id="Group-6" transform="translate(34.698804, 15.700890) rotate(-40.000000) translate(-34.698804, -15.700890) translate(28.198804, 1.700890)">
                        <g id="Oval-15">
                            <g id="path-28-link" fill="#FFFFFF">
                                <ellipse id="path-28" cx="6.49940477" cy="6.5575042" rx="6.49940477" ry="6.5575042"></ellipse>
                            </g>
                            <ellipse id="Oval" stroke="#F06823" stroke-width="2" cx="6.49940477" cy="6.5575042" rx="5.52449405" ry="5.57387857"></ellipse>
                        </g>
                        <g id="Oval-15" transform="translate(0.000000, 6.571429)">
                            <g id="path-28-link" fill="#FFFFFF">
                                <ellipse id="path-28" cx="6.49940477" cy="6.5575042" rx="6.49940477" ry="6.5575042"></ellipse>
                            </g>
                            <ellipse id="Oval" stroke="#F06823" stroke-width="2" cx="6.49940477" cy="6.5575042" rx="5.52449405" ry="5.57387857"></ellipse>
                        </g>
                        <g id="Oval-15" transform="translate(0.000000, 13.142857)">
                            <g id="path-28-link" fill="#FFFFFF">
                                <ellipse id="path-28" cx="6.49940477" cy="6.5575042" rx="6.49940477" ry="6.5575042"></ellipse>
                            </g>
                            <ellipse id="Oval" stroke="#F06823" stroke-width="2" cx="6.49940477" cy="6.5575042" rx="5.52449405" ry="5.57387857"></ellipse>
                        </g>
                    </g>
                    <g id="Group-6" transform="translate(14.100511, 32.243026) rotate(-40.000000) translate(-14.100511, -32.243026) translate(7.600511, 18.243026)">
                        <g id="Oval-15">
                            <g id="path-28-link" fill="#FFFFFF">
                                <ellipse id="path-28" cx="6.49940477" cy="6.5575042" rx="6.49940477" ry="6.5575042"></ellipse>
                            </g>
                            <ellipse id="Oval" stroke="#F06823" stroke-width="2" cx="6.49940477" cy="6.5575042" rx="5.52449405" ry="5.57387857"></ellipse>
                        </g>
                        <g id="Oval-15" transform="translate(0.000000, 6.571429)">
                            <g id="path-28-link" fill="#FFFFFF">
                                <ellipse id="path-28" cx="6.49940477" cy="6.5575042" rx="6.49940477" ry="6.5575042"></ellipse>
                            </g>
                            <ellipse id="Oval" stroke="#F06823" stroke-width="2" cx="6.49940477" cy="6.5575042" rx="5.52449405" ry="5.57387857"></ellipse>
                        </g>
                        <g id="Oval-15" transform="translate(0.000000, 13.142857)">
                            <g id="path-28-link" fill="#FFFFFF">
                                <ellipse id="path-28" cx="6.49940477" cy="6.5575042" rx="6.49940477" ry="6.5575042"></ellipse>
                            </g>
                            <ellipse id="Oval" stroke="#F06823" stroke-width="2" cx="6.49940477" cy="6.5575042" rx="5.52449405" ry="5.57387857"></ellipse>
                        </g>
                    </g>
                    <g id="Group-4" transform="translate(62.911759, 33.929170) rotate(-185.000000) translate(-62.911759, -33.929170) translate(44.911759, 23.429170)" fill="#F06823" stroke="#F06823" stroke-width="2">
                        <path d="M35.3623089,15.4548986 L35.3623089,20.5512087 L0.398942583,20.5512087 L0.398942583,15.4548986 C0.478180825,15.4603242 0.558027147,15.4630746 0.638417695,15.4630746 C2.88681138,15.4630746 4.7094946,13.3115969 4.7094946,10.6576146 C4.7094946,8.00363236 2.88681138,5.85215464 0.638417695,5.85215464 C0.558027147,5.85215464 0.478180825,5.85490508 0.398942583,5.86033059 L0.398942583,0.198672317 L35.3623089,0.198672317 L35.3623089,5.86033059 C33.2253816,6.00664774 31.5307071,8.09852459 31.5307071,10.6576146 C31.5307071,13.2167046 33.2253816,15.3085815 35.3623089,15.4548986 Z" id="Combined-Shape"></path>
                    </g>
                </g>
                <g id="Group-23" transform="translate(58.000000, 193.500000) rotate(-297.000000) translate(-58.000000, -193.500000) translate(39.000000, 182.000000)" stroke="#F06823">
                    <path d="M37.5647697,16.8143284 L37.5647697,22.4311191 L0,22.4311191 L0,16.8143284 C0.0851338591,16.820308 0.170921042,16.8233394 0.257292943,16.8233394 C2.67297541,16.8233394 4.63127297,14.4521335 4.63127297,11.5271029 C4.63127297,8.60207226 2.67297541,6.23086643 0.257292943,6.23086643 C0.170921042,6.23086643 0.0851338591,6.23389777 -2.69229083e-14,6.23987737 L0,0 L37.5647697,0 L37.5647697,6.23987737 C35.2688471,6.40113774 33.4480826,8.70665573 33.4480826,11.5271029 C33.4480826,14.34755 35.2688471,16.653068 37.5647697,16.8143284 Z" id="Combined-Shape" stroke-width="2" fill="#FFFFFF"></path>
                    <path d="M27.015759,0.311543321 L27.015759,22.1995404" id="Line" stroke-width="3" stroke-dasharray="4,3,4,3"></path>
                </g>
                <g id="Group-23" transform="translate(69.500000, 191.500000) rotate(-270.000000) translate(-69.500000, -191.500000) translate(51.000000, 181.000000)" fill="#F06823" stroke="#F06823" stroke-width="2">
                    <path d="M0,5.73440008 L0,0 L37,0 L37,5.66120551 C34.7385956,5.80751097 32.9452055,7.89922053 32.9452055,10.4581059 C32.9452055,13.0169913 34.7385956,15.1087009 37,15.2550063 L37,20.3509088 L0,20.3509088 L0,15.1818117 C2.00023644,14.7663498 3.51453186,12.8094639 3.51453186,10.4581059 C3.51453186,8.10674795 2.00023644,6.14986199 5.82867088e-16,5.73440008 Z" id="Combined-Shape"></path>
                </g>
                <g id="Oval-15" transform="translate(77.000000, 214.000000)">
                    <g id="path-28-link" fill="#FFFFFF">
                        <path d="M6.37555941,12.8519668 C9.89668364,12.8519668 12.7511188,9.97495602 12.7511188,6.42598339 C12.7511188,2.87701076 9.89668364,0 6.37555941,0 C5.30189572,0 4.29021854,0.267494785 3.40255157,0.739970111 C1.37907818,1.81699706 0,3.959166 0,6.42598339 C0,9.97495602 2.85443517,12.8519668 6.37555941,12.8519668 Z" id="path-28"></path>
                    </g>
                    <ellipse id="Oval" stroke="#F06823" stroke-width="2" cx="6.37555941" cy="6.42598339" rx="5.41922549" ry="5.46208588"></ellipse>
                </g>
                <g id="Oval-15" transform="translate(52.000000, 215.000000)">
                    <g id="path-28-link" fill="#FFFFFF">
                        <ellipse id="path-28" cx="6.37555941" cy="6.48622698" rx="6.37555941" ry="6.48622698"></ellipse>
                    </g>
                    <ellipse id="Oval" stroke="#F06823" stroke-width="2" cx="6.37555941" cy="6.48622698" rx="5.41922549" ry="5.51329294"></ellipse>
                </g>
                <g id="Group-23" transform="translate(46.705028, 22.301222) scale(-1, 1) rotate(105.000000) translate(-46.705028, -22.301222) translate(31.205028, 13.301222)" stroke="#F06823" stroke-width="2">
                    <path d="M30.9781204,12.9393815 L30.9781204,17.2617545 L0,17.2617545 L0,12.9393815 C0.0702063919,12.9439831 0.140951553,12.9463159 0.212178907,12.9463159 C2.20429288,12.9463159 3.81922033,11.1215664 3.81922033,8.87062383 C3.81922033,6.61968128 2.20429288,4.7949318 0.212178907,4.7949318 C0.140951553,4.7949318 0.0702063919,4.79726455 -2.20795604e-14,4.80186613 L0,0 L30.9781204,0 L30.9781204,4.80186613 C29.0847675,4.92596323 27.5832579,6.70016296 27.5832579,8.87062383 C27.5832579,11.0410847 29.0847675,12.8152844 30.9781204,12.9393815 Z" id="Combined-Shape" fill="#FFFFFF"></path>
                    <path d="M22.2787853,0.23974659 L22.2787853,17.0835442" id="Line" stroke-dasharray="4,3,4,3"></path>
                </g>
                <g id="Group-23" transform="translate(135.877355, 151.828030) scale(-1, 1) rotate(-41.000000) translate(-135.877355, -151.828030) translate(121.877355, 143.328030)" stroke="#F06823" stroke-width="2">
                    <path d="M28,12.7431708 L28,17 L0,17 L0,12.7431708 C0.0634570124,12.7477026 0.127400998,12.75 0.191780822,12.75 C1.99238042,12.75 3.45205479,10.9529207 3.45205479,8.73611111 C3.45205479,6.51930149 1.99238042,4.72222222 0.191780822,4.72222222 C0.127400998,4.72222222 0.0634570124,4.7245196 -1.99076866e-14,4.7290514 L0,0 L28,0 L28,4.7290514 C26.288667,4.85126671 24.9315068,6.59856276 24.9315068,8.73611111 C24.9315068,10.8736595 26.288667,12.6209555 28,12.7431708 Z" id="Combined-Shape" fill="#FFFFFF"></path>
                    <path d="M20.5,0.236111111 L20.5,16.8244921" id="Line" stroke-dasharray="4,3,4,3"></path>
                </g>
                <path d="M96.5268307,208.702251 C98.7722415,210.339104 98.1682877,214.262196 96.5960341,216.599865 C95.0237805,218.937533 88.8246556,221.058338 86.5792448,219.421485 C84.333834,217.784632 89.2320382,213.176307 90.8042918,210.838639 C92.3765453,208.50097 94.2814199,207.065398 96.5268307,208.702251 Z" id="Oval-10" stroke="#F06823" stroke-width="2" fill="#FFFFFF"></path>
                <path d="M57.8714286,222 C64.0175689,222 69,216.851275 69,210.5 C69,204.148725 64.0175689,199 57.8714286,199 C51.7252883,199 50,204.148725 50,210.5 C50,216.851275 51.7252883,222 57.8714286,222 Z" id="Oval-10" stroke="#F06823" stroke-width="2" fill="#FFFFFF"></path>
                <path d="M85.1285714,222 C78.9824311,222 74,216.851275 74,210.5 C74,204.148725 78.9824311,199 85.1285714,199 C91.2747117,199 93,204.148725 93,210.5 C93,216.851275 91.2747117,222 85.1285714,222 Z" id="Oval-10" stroke="#F06823" stroke-width="2" fill="#FFFFFF"></path>
                <polygon id="Rectangle-3" stroke="#F06823" stroke-width="2" stroke-linecap="round" stroke-linejoin="round" points="132 63.3102377 135.633521 61 140 68.6897623 136.366479 71"></polygon>
                <polygon id="Rectangle-3" stroke="#F06823" stroke-width="2" stroke-linecap="round" stroke-linejoin="round" points="5 71 2 68 8 62 11 65"></polygon>
                <polygon id="Rectangle-3" stroke="#876E8C" stroke-width="2" stroke-linecap="round" stroke-linejoin="round" points="93 9 90 6 96 -7.10542736e-14 99 3"></polygon>
                <polygon id="Rectangle-3" stroke="#876E8C" stroke-width="2" stroke-linecap="round" stroke-linejoin="round" transform="translate(7.500000, 186.500000) rotate(-75.000000) translate(-7.500000, -186.500000) " points="6 191 3 188 9 182 12 185"></polygon>
                <polygon id="Rectangle-3" stroke="#866E8B" stroke-width="2" fill="#876E8C" stroke-linecap="round" stroke-linejoin="round" transform="translate(136.000000, 204.000000) rotate(88.000000) translate(-136.000000, -204.000000) " points="132 201.380573 135.555969 199 140 206.619427 136.444031 209"></polygon>
                <polygon id="Rectangle-3" stroke="#876E8C" stroke-width="2" fill="#876E8C" stroke-linecap="round" stroke-linejoin="round" points="-7.95807864e-13 35.3102377 3.63352084 33 8 40.6897623 4.36647916 43"></polygon>
            </g>
            <path d="M81,182 L99.1618002,190.84087" id="Line" stroke="#F06823" stroke-width="2" stroke-dasharray="3,2,3,3"></path>
            <path d="M46,191 L64,183" id="Line" stroke="#F06823" stroke-width="2" stroke-dasharray="3,2,3,3"></path>
        </g>
        <path d="M4,247 L624,247" id="Path-11" stroke="#F06823" stroke-width="3" stroke-linecap="round"></path>
    </g>
</svg>