<?xml version="1.0" encoding="UTF-8"?>
<svg width="260px" height="399px" viewBox="0 0 260 399" version="1.1" xmlns="http://www.w3.org/2000/svg" xmlns:xlink="http://www.w3.org/1999/xlink">
    <!-- Generator: Sketch 55.2 (78181) - https://sketchapp.com -->
    <title>hero-iphone_2</title>
    <desc>Created with Sketch.</desc>
    <g id="hero-iphone_2" stroke="none" stroke-width="1" fill="none" fill-rule="evenodd">
        <path d="M4,398 L256,398" id="Path-11" stroke="#F06823" stroke-width="3" stroke-linecap="round"></path>
        <polygon id="Rectangle-3" stroke="#F06823" stroke-width="2" stroke-linecap="round" stroke-linejoin="round" transform="translate(171.193982, 352.281778) rotate(31.000000) translate(-171.193982, -352.281778) " points="167.87347 345.781778 174.514495 345.781778 174.514495 358.781778 167.87347 358.781778"></polygon>
        <polygon id="Rectangle-3" stroke="#876E8C" stroke-width="2" stroke-linecap="round" stroke-linejoin="round" transform="translate(228.071068, 377.071068) rotate(-135.000000) translate(-228.071068, -377.071068) " points="224.571068 370.571068 231.571068 370.571068 231.571068 383.571068 224.571068 383.571068"></polygon>
        <polygon id="Rectangle-3" fill="#876E8C" transform="translate(92.063064, 370.184385) rotate(-217.000000) translate(-92.063064, -370.184385) " points="88.5630642 363.684385 95.5630642 363.684385 95.5630642 376.684385 88.5630642 376.684385"></polygon>
        <polygon id="Rectangle-3" fill="#F06823" transform="translate(27.125648, 334.289422) rotate(-150.000000) translate(-27.125648, -334.289422) " points="23.8051356 327.789422 30.4461613 327.789422 30.4461613 340.789422 23.8051356 340.789422"></polygon>
        <g id="Group-23" transform="translate(42.595155, 360.120083) scale(-1, 1) rotate(44.000000) translate(-42.595155, -360.120083) translate(23.595155, 349.120083)">
            <path d="M37.5647697,15.9889691 L37.5647697,21.3300504 L-1.84741111e-13,21.3300504 L-1.84741111e-13,15.9889691 C0.0851338591,15.9946552 0.170921042,15.9975378 0.257292943,15.9975378 C2.67297541,15.9975378 4.63127297,13.7427265 4.63127297,10.9612759 C4.63127297,8.17982524 2.67297541,5.92501399 0.257292943,5.92501399 C0.170921042,5.92501399 0.0851338591,5.92789653 -2.11733409e-13,5.93358262 L-1.84741111e-13,2.84217094e-13 L37.5647697,2.84217094e-13 L37.5647697,5.93358262 C35.2688471,6.08692725 33.4480826,8.27927506 33.4480826,10.9612759 C33.4480826,13.6432767 35.2688471,15.8356245 37.5647697,15.9889691 Z" id="Combined-Shape" stroke="#F06823" stroke-width="2" fill="#F06823"></path>
            <path d="M27.015759,0.296250699 L27.015759,21.109839" id="Line" stroke="#FFFFFF" stroke-width="3" stroke-dasharray="4,3,4,3"></path>
        </g>
        <g id="Group-23" transform="translate(218.444802, 343.694939) scale(-1, 1) rotate(227.000000) translate(-218.444802, -343.694939) translate(201.444802, 333.694939)">
            <path d="M33.8537072,14.318676 L33.8537072,19.1017993 L0,19.1017993 L0,14.318676 C0.076723397,14.3237681 0.154035575,14.3263495 0.231874707,14.3263495 C2.4089094,14.3263495 4.17374472,12.3070879 4.17374472,9.81620244 C4.17374472,7.32531699 2.4089094,5.30605537 0.231874707,5.30605537 C0.154035575,5.30605537 0.076723397,5.30863679 -1.42941214e-15,5.31372888 L0,0 L33.8537072,0 L33.8537072,5.31372888 C31.7846012,5.45105431 30.1437119,7.41437775 30.1437119,9.81620244 C30.1437119,12.2180271 31.7846012,14.1813506 33.8537072,14.318676 Z" id="Combined-Shape" stroke="#866E8B" stroke-width="3" fill="#876E8C"></path>
            <path d="M24.3468442,0.265302769 L24.3468442,18.9045924" id="Line" stroke="#FFFFFF" stroke-width="2" stroke-dasharray="4,3,4,3"></path>
        </g>
        <g id="Group-23" transform="translate(130.316234, 347.318541) scale(-1, 1) rotate(105.000000) translate(-130.316234, -347.318541) translate(110.816234, 336.318541)" stroke="#F06823" stroke-width="2">
            <path d="M38.695855,16.1630346 L38.695855,21.562262 L0,21.562262 L0,16.1630346 C0.0876972626,16.1687826 0.17606752,16.1716965 0.265040103,16.1716965 C2.75345942,16.1716965 4.77072185,13.892338 4.77072185,11.0806069 C4.77072185,8.26887569 2.75345942,5.98951722 0.265040103,5.98951722 C0.17606752,5.98951722 0.0876972626,5.99243114 -2.77416978e-14,5.99817913 L0,0 L38.695855,0 L38.695855,5.99817913 C36.3308016,6.15319317 34.4552134,8.36940818 34.4552134,11.0806069 C34.4552134,13.7918055 36.3308016,16.0080205 38.695855,16.1630346 Z" id="Combined-Shape" fill="#FFFFFF"></path>
            <path d="M27.8292108,0.299475861 L27.8292108,21.3396533" id="Line" stroke-dasharray="4,3,4,3"></path>
        </g>
    </g>
</svg>