<?xml version="1.0" encoding="UTF-8" standalone="no"?>
<!-- Created with Inkscape (http://www.inkscape.org/) -->

<svg
   xmlns:dc="http://purl.org/dc/elements/1.1/"
   xmlns:cc="http://creativecommons.org/ns#"
   xmlns:rdf="http://www.w3.org/1999/02/22-rdf-syntax-ns#"
   xmlns:svg="http://www.w3.org/2000/svg"
   xmlns="http://www.w3.org/2000/svg"
   xmlns:sodipodi="http://sodipodi.sourceforge.net/DTD/sodipodi-0.dtd"
   xmlns:inkscape="http://www.inkscape.org/namespaces/inkscape"
   width="453.97488"
   height="180.15625"
   id="svg2"
   version="1.1"
   inkscape:version="0.48.0 r9654"
   sodipodi:docname="https://www.rabbitmq.com/blog/wp-uploads/2010/10/e2e-3.svg">
  <defs
     id="defs4">
    <marker
       inkscape:stockid="Arrow1Mend"
       orient="auto"
       refY="0"
       refX="0"
       id="Arrow1Mend"
       style="overflow:visible">
      <path
         id="path3898"
         d="M 0,0 5,-5 -12.5,0 5,5 0,0 z"
         style="fill-rule:evenodd;stroke:#000000;stroke-width:1pt;marker-start:none"
         transform="matrix(-0.4,0,0,-0.4,-4,0)"
         inkscape:connector-curvature="0" />
    </marker>
    <inkscape:perspective
       sodipodi:type="inkscape:persp3d"
       inkscape:vp_x="0 : 526.18109 : 1"
       inkscape:vp_y="0 : 1000 : 0"
       inkscape:vp_z="744.09448 : 526.18109 : 1"
       inkscape:persp3d-origin="372.04724 : 350.78739 : 1"
       id="perspective10" />
    <inkscape:perspective
       id="perspective2863"
       inkscape:persp3d-origin="0.5 : 0.33333333 : 1"
       inkscape:vp_z="1 : 0.5 : 1"
       inkscape:vp_y="0 : 1000 : 0"
       inkscape:vp_x="0 : 0.5 : 1"
       sodipodi:type="inkscape:persp3d" />
    <clipPath
       clipPathUnits="userSpaceOnUse"
       id="clipPath2907">
      <rect
         style="fill:none;stroke:#000000;stroke-width:0.28346458;stroke-linecap:butt;stroke-miterlimit:4;stroke-opacity:1;stroke-dasharray:none"
         id="rect2909"
         width="52.0886"
         height="53.824883"
         x="-7.2444654"
         y="-46.215572"
         transform="scale(1,-1)" />
    </clipPath>
    <clipPath
       clipPathUnits="userSpaceOnUse"
       id="clipPath2913">
      <rect
         style="fill:none;stroke:#000000;stroke-width:0.28346458;stroke-linecap:butt;stroke-miterlimit:4;stroke-opacity:1;stroke-dasharray:none"
         id="rect2915"
         width="43.05991"
         height="48.616024"
         x="-2.3828566"
         y="-43.437519"
         transform="scale(1,-1)" />
    </clipPath>
    <inkscape:perspective
       id="perspective3826"
       inkscape:persp3d-origin="0.5 : 0.33333333 : 1"
       inkscape:vp_z="1 : 0.5 : 1"
       inkscape:vp_y="0 : 1000 : 0"
       inkscape:vp_x="0 : 0.5 : 1"
       sodipodi:type="inkscape:persp3d" />
    <clipPath
       clipPathUnits="userSpaceOnUse"
       id="clipPath4264">
      <rect
         style="fill:none;stroke:#a9b5af;stroke-width:1.41732287;stroke-linecap:butt;stroke-miterlimit:4;stroke-opacity:1;stroke-dasharray:2.83464566, 2.83464566;stroke-dashoffset:0"
         id="rect4266"
         width="51.046825"
         height="57.644714"
         x="-10.022527"
         y="-44.826546"
         transform="scale(1,-1)" />
    </clipPath>
    <marker
       inkscape:stockid="Arrow1Mend"
       orient="auto"
       refY="0"
       refX="0"
       id="Arrow1Mend-8"
       style="overflow:visible">
      <path
         inkscape:connector-curvature="0"
         id="path3898-0"
         d="M 0,0 5,-5 -12.5,0 5,5 0,0 z"
         style="fill-rule:evenodd;stroke:#000000;stroke-width:1pt;marker-start:none"
         transform="matrix(-0.4,0,0,-0.4,-4,0)" />
    </marker>
  </defs>
  <sodipodi:namedview
     id="base"
     pagecolor="#ffffff"
     bordercolor="#666666"
     borderopacity="1.0"
     inkscape:pageopacity="0.0"
     inkscape:pageshadow="2"
     inkscape:zoom="2.3037671"
     inkscape:cx="172.67271"
     inkscape:cy="202.39811"
     inkscape:document-units="px"
     inkscape:current-layer="layer1"
     showgrid="false"
     inkscape:window-width="1598"
     inkscape:window-height="1198"
     inkscape:window-x="0"
     inkscape:window-y="0"
     inkscape:window-maximized="0"
     fit-margin-top="0"
     fit-margin-left="0"
     fit-margin-right="0"
     fit-margin-bottom="0" />
  <metadata
     id="metadata7">
    <rdf:RDF>
      <cc:Work
         rdf:about="">
        <dc:format>image/svg+xml</dc:format>
        <dc:type
           rdf:resource="http://purl.org/dc/dcmitype/StillImage" />
        <dc:title></dc:title>
      </cc:Work>
    </rdf:RDF>
  </metadata>
  <g
     inkscape:label="Layer 1"
     inkscape:groupmode="layer"
     id="layer1"
     transform="translate(-56.84375,-37.09375)">
    <g
       id="g5661">
      <g
         transform="translate(-38,0)"
         id="g5359">
        <g
           id="g5327">
          <path
             style="fill:none;stroke:#a9b5af;stroke-width:1.77165353;stroke-linecap:butt;stroke-miterlimit:4;stroke-opacity:1;stroke-dashoffset:0"
             d="m 205.74997,138.20728 c 0,9.58924 -7.77362,17.36286 -17.36287,17.36286 -9.58925,0 -17.36287,-7.77362 -17.36287,-17.36286 0,-9.58925 7.77362,-17.36287 17.36287,-17.36287 9.58925,0 17.36287,7.77362 17.36287,17.36287 z"
             id="path3093"
             inkscape:connector-curvature="0" />
          <g
             style="font-size:22px;font-style:normal;font-weight:normal;line-height:125%;letter-spacing:0px;word-spacing:0px;fill:#000000;fill-opacity:1;stroke:none;font-family:Myriad Pro;-inkscape-font-specification:Myriad Pro"
             id="text3869">
            <path
               d="m 194.11809,145.62128 -4.62,-7.612 4.51,-7.216 -2.222,0 -2.002,3.476 c -0.55,0.946 -0.924,1.628 -1.342,2.508 l -0.066,0 c -0.396,-0.792 -0.814,-1.54 -1.364,-2.508 l -1.958,-3.476 -2.222,0 4.356,7.326 -4.532,7.502 2.2,0 1.782,-3.256 c 0.748,-1.298 1.188,-2.09 1.606,-2.948 l 0.044,0 c 0.462,0.858 0.92401,1.672 1.694,2.926 l 1.914,3.278 2.222,0"
               id="path5722"
               inkscape:connector-curvature="0" />
          </g>
        </g>
        <g
           style="font-size:16px;font-style:normal;font-weight:normal;text-align:center;line-height:125%;letter-spacing:0px;word-spacing:0px;text-anchor:middle;fill:#000000;fill-opacity:1;stroke:none;font-family:Myriad Pro;-inkscape-font-specification:Myriad Pro"
           id="text3873">
          <path
             d="m 137.08523,159.69065 0.256,3.84 0.864,0 0.256,-3.84 -1.376,0 m 2.384,0 0.256,3.84 0.864,0 0.256,-3.84 -1.376,0"
             id="path5725"
             inkscape:connector-curvature="0" />
          <path
             d="m 142.84348,170.76265 1.376,0 0,-4.672 c 0,-0.24 0.032,-0.48 0.112,-0.688 0.224,-0.704 0.88,-1.408 1.744,-1.408 1.072,0 1.616,0.88 1.616,2.112 l 0,4.656 1.376,0 0,-4.8 c 0,-0.24 0.048,-0.496 0.112,-0.704 0.256,-0.672 0.864,-1.264 1.68,-1.264 1.11999,0 1.68,0.88 1.68,2.384 l 0,4.384 1.376,0 0,-4.56 c 0,-2.688 -1.52,-3.36 -2.56,-3.36 -0.736,0 -1.232,0.192 -1.696,0.544 -0.32,0.24 -0.64,0.56 -0.88,1.008 l -0.032,0 c -0.336,-0.912 -1.136,-1.552 -2.176,-1.552 -1.296,0 -2.016,0.688 -2.448,1.424 l -0.048,0 -0.064,-1.248 -1.232,0 c 0.032,0.64 0.064,1.28 0.064,2.096 l 0,5.648"
             id="path5727"
             inkscape:connector-curvature="0" />
          <path
             d="m 154.94448,163.01865 2.848,7.136 c 0.08,0.176 0.112,0.288 0.112,0.368 0,0.08 -0.048,0.192 -0.112,0.336 -0.336,0.72 -0.8,1.264 -1.184,1.568 -0.416,0.352 -0.88,0.576 -1.232,0.688 l 0.352,1.168 c 0.352,-0.064 1.024,-0.304 1.728,-0.896 0.96,-0.848 1.648,-2.192 2.656,-4.848 l 2.112,-5.52 -1.488,0 -1.536,4.544 c -0.192,0.56 -0.352,1.152 -0.496,1.616 l -0.032,0 c -0.128,-0.464 -0.32,-1.072 -0.512,-1.584 l -1.68,-4.576 -1.536,0"
             id="path5729"
             inkscape:connector-curvature="0" />
          <path
             d="m 162.33173,171.96265 0,0.8 8,0 0,-0.8 -8,0"
             id="path5731"
             inkscape:connector-curvature="0" />
          <path
             d="m 177.72373,167.14665 c 0.032,-0.16 0.048,-0.368 0.048,-0.656 0,-1.424 -0.65601,-3.648 -3.184,-3.648 -2.256,0 -3.648,1.84 -3.648,4.176 0,2.32 1.44,3.904 3.808,3.904 1.23199,0 2.096,-0.272 2.592,-0.496 l -0.256,-1.008 c -0.512,0.224 -1.136,0.4 -2.144,0.4 -1.408,0 -2.608,-0.784 -2.64,-2.672 l 5.424,0 m -5.408,-1.008 c 0.112,-0.976 0.72,-2.288 2.16,-2.288 1.56799,0 1.952,1.392 1.936,2.288 l -4.096,0"
             id="path5733"
             inkscape:connector-curvature="0" />
          <path
             d="m 178.61898,163.01865 2.624,3.792 -2.752,3.952 1.552,0 1.12,-1.744 c 0.288,-0.464 0.56,-0.88 0.816,-1.344 l 0.032,0 c 0.272,0.464 0.528,0.896 0.832,1.344 l 1.136,1.744 1.6,0 -2.704,-4 2.64,-3.744 -1.536,0 -1.072,1.648 c -0.272,0.416 -0.528,0.816 -0.784,1.28 l -0.048,0 c -0.256,-0.448 -0.496,-0.832 -0.784,-1.264 l -1.104,-1.664 -1.568,0"
             id="path5735"
             inkscape:connector-curvature="0" />
          <path
             d="m 191.96723,169.41865 c -0.4,0.176 -0.928,0.368 -1.728,0.368 -1.536,0 -2.688,-1.104 -2.688,-2.896 0,-1.6 0.96,-2.928 2.736,-2.928 0.768,0 1.296,0.192 1.632,0.368 l 0.32,-1.072 c -0.384,-0.208 -1.12,-0.416 -1.952,-0.416 -2.528,0 -4.16,1.744 -4.16,4.128 0,2.368 1.52,3.952 3.856,3.952 1.04,0 1.856,-0.272 2.224,-0.448 l -0.24,-1.056"
             id="path5737"
             inkscape:connector-curvature="0" />
          <path
             d="m 193.84348,170.76265 1.408,0 0,-4.672 c 0,-0.272 0.016,-0.48 0.096,-0.672 0.272,-0.768 0.976,-1.408 1.888,-1.408 1.32799,0 1.792,1.04 1.792,2.288 l 0,4.464 1.408,0 0,-4.608 c 0,-2.672 -1.664,-3.312 -2.704,-3.312 -0.528,0 -1.024,0.144 -1.44,0.4 -0.432,0.224 -0.784,0.592 -1.008,0.992 l -0.032,0 0,-4.832 -1.408,0 0,11.36"
             id="path5739"
             inkscape:connector-curvature="0" />
          <path
             d="m 208.17448,166.01065 c 0,-1.552 -0.57601,-3.168 -2.96,-3.168 -0.976,0 -1.92,0.272 -2.56,0.672 l 0.32,0.944 c 0.544,-0.368 1.296,-0.576 2.032,-0.576 1.58399,-0.016 1.76,1.152 1.76,1.792 l 0,0.16 c -2.992,-0.016 -4.656,1.008 -4.656,2.88 0,1.12 0.8,2.224 2.368,2.224 1.10399,0 1.952,-0.544 2.368,-1.152 l 0.048,0 0.128,0.976 1.264,0 c -0.08,-0.528 -0.112,-1.184 -0.112,-1.856 l 0,-2.896 m -1.376,2.144 c 0,0.144 -0.016,0.304 -0.064,0.448 -0.224,0.656 -0.88,1.296 -1.904,1.296 -0.704,0 -1.312,-0.416 -1.312,-1.344 0,-1.504 1.744,-1.776 3.28,-1.744 l 0,1.344"
             id="path5741"
             inkscape:connector-curvature="0" />
          <path
             d="m 210.43723,170.76265 1.408,0 0,-4.672 c 0,-0.224 0.032,-0.48 0.096,-0.656 0.256,-0.784 0.976,-1.44 1.888,-1.44 1.32799,0 1.792,1.056 1.792,2.304 l 0,4.464 1.408,0 0,-4.624 c 0,-2.656 -1.664,-3.296 -2.736,-3.296 -1.28,0 -2.176,0.72 -2.56,1.44 l -0.032,0 -0.08,-1.264 -1.248,0 c 0.048,0.64 0.064,1.28 0.064,2.096 l 0,5.648"
             id="path5743"
             inkscape:connector-curvature="0" />
          <path
             d="m 225.93623,165.13065 c 0,-0.928 0.016,-1.568 0.064,-2.112 l -1.248,0 -0.048,1.168 -0.032,0 c -0.352,-0.656 -1.07201,-1.344 -2.416,-1.344 -1.792,0 -3.504,1.472 -3.504,4.096 0,2.16 1.376,3.792 3.296,3.792 1.19999,0 2.048,-0.576 2.464,-1.296 l 0.032,0 0,0.848 c 0,1.968 -1.05601,2.72 -2.496,2.72 -0.96,0 -1.76,-0.288 -2.272,-0.624 l -0.352,1.088 c 0.624,0.416 1.648,0.64 2.576,0.64 0.976,0 2.064,-0.24 2.832,-0.928 0.736,-0.688 1.104,-1.76 1.104,-3.552 l 0,-4.496 m -1.408,2.32 c 0,0.256 -0.032,0.528 -0.112,0.752 -0.288,0.912 -1.072,1.456 -1.952,1.456 -1.504,0 -2.288,-1.28 -2.288,-2.784 0,-1.808 0.96,-2.944 2.304,-2.944 1.04,0 1.712,0.672 1.968,1.504 0.064,0.192 0.08,0.4 0.08,0.624 l 0,1.392"
             id="path5745"
             inkscape:connector-curvature="0" />
          <path
             d="m 234.47373,167.14665 c 0.032,-0.16 0.048,-0.368 0.048,-0.656 0,-1.424 -0.65601,-3.648 -3.184,-3.648 -2.256,0 -3.648,1.84 -3.648,4.176 0,2.32 1.44,3.904 3.808,3.904 1.23199,0 2.096,-0.272 2.592,-0.496 l -0.256,-1.008 c -0.512,0.224 -1.136,0.4 -2.144,0.4 -1.408,0 -2.608,-0.784 -2.64,-2.672 l 5.424,0 m -5.408,-1.008 c 0.112,-0.976 0.72,-2.288 2.16,-2.288 1.56799,0 1.952,1.392 1.936,2.288 l -4.096,0"
             id="path5747"
             inkscape:connector-curvature="0" />
          <path
             d="m 235.92898,159.69065 0.256,3.84 0.864,0 0.256,-3.84 -1.376,0 m 2.384,0 0.256,3.84 0.864,0 0.256,-3.84 -1.376,0"
             id="path5749"
             inkscape:connector-curvature="0" />
          <path
             d="m 144.58535,181.59465 0,1.424 -1.2,0 0,1.072 1.2,0 0,4.208 c 0,0.912 0.16,1.6 0.544,2.032 0.336,0.368 0.864,0.592 1.52,0.592 0.544,0 0.976,-0.096 1.248,-0.192 l -0.064,-1.072 c -0.208,0.064 -0.432,0.096 -0.816,0.096 -0.784,0 -1.056,-0.544 -1.056,-1.504 l 0,-4.16 2.016,0 0,-1.072 -2.016,0 0,-1.856 -1.376,0.432"
             id="path5751"
             inkscape:connector-curvature="0" />
          <path
             d="m 148.67885,183.01865 2.848,7.136 c 0.08,0.176 0.112,0.288 0.112,0.368 0,0.08 -0.048,0.192 -0.112,0.336 -0.336,0.72 -0.8,1.264 -1.184,1.568 -0.416,0.352 -0.88,0.576 -1.232,0.688 l 0.352,1.168 c 0.352,-0.064 1.024,-0.304 1.728,-0.896 0.96,-0.848 1.648,-2.192 2.656,-4.848 l 2.112,-5.52 -1.488,0 -1.536,4.544 c -0.192,0.56 -0.352,1.152 -0.496,1.616 l -0.032,0 c -0.128,-0.464 -0.32,-1.072 -0.512,-1.584 l -1.68,-4.576 -1.536,0"
             id="path5753"
             inkscape:connector-curvature="0" />
          <path
             d="m 157.2341,193.93065 1.408,0 0,-4.208 0.032,0 c 0.464,0.768 1.344,1.216 2.384,1.216 1.808,0 3.52,-1.376 3.52,-4.16 0,-2.352 -1.408,-3.936 -3.296,-3.936 -1.248,0 -2.176,0.544 -2.736,1.504 l -0.032,0 -0.08,-1.328 -1.264,0 c 0.048,0.736 0.064,1.536 0.064,2.528 l 0,8.384 m 1.408,-7.664 c 0,-0.176 0.048,-0.384 0.08,-0.56 0.272,-1.072 1.184,-1.744 2.144,-1.744 1.488,0 2.288,1.328 2.288,2.88 0,1.776 -0.864,2.992 -2.352,2.992 -0.992,0 -1.856,-0.672 -2.096,-1.648 -0.048,-0.176 -0.064,-0.384 -0.064,-0.576 l 0,-1.344"
             id="path5755"
             inkscape:connector-curvature="0" />
          <path
             d="m 172.55185,187.14665 c 0.032,-0.16 0.048,-0.368 0.048,-0.656 0,-1.424 -0.656,-3.648 -3.184,-3.648 -2.256,0 -3.648,1.84 -3.648,4.176 0,2.32 1.44,3.904 3.808,3.904 1.232,0 2.096,-0.272 2.592,-0.496 l -0.256,-1.008 c -0.512,0.224 -1.136,0.4 -2.144,0.4 -1.408,0 -2.608,-0.784 -2.64,-2.672 l 5.424,0 m -5.408,-1.008 c 0.112,-0.976 0.72,-2.288 2.16,-2.288 1.568,0 1.952,1.392 1.936,2.288 l -4.096,0"
             id="path5757"
             inkscape:connector-curvature="0" />
          <path
             d="m 185.49335,185.37065 0,-0.96 -8.256,0 0,0.96 8.256,0 m 0,3.136 0,-0.96 -8.256,0 0,0.96 8.256,0"
             id="path5759"
             inkscape:connector-curvature="0" />
          <path
             d="m 192.23885,190.76265 0,-6.672 1.856,0 0,-1.072 -1.872,0 0,-0.416 c 0,-1.184 0.32,-2.24 1.504,-2.24 0.416,0 0.688,0.08 0.912,0.176 l 0.176,-1.088 c -0.272,-0.112 -0.688,-0.224 -1.2,-0.224 -0.64,0 -1.344,0.208 -1.872,0.72 -0.656,0.624 -0.912,1.616 -0.912,2.704 l 0,0.368 -1.072,0 0,1.072 1.072,0 0,6.672 1.408,0"
             id="path5761"
             inkscape:connector-curvature="0" />
          <path
             d="m 200.84635,186.01065 c 0,-1.552 -0.576,-3.168 -2.96,-3.168 -0.976,0 -1.92,0.272 -2.56,0.672 l 0.32,0.944 c 0.544,-0.368 1.296,-0.576 2.032,-0.576 1.584,-0.016 1.76,1.152 1.76,1.792 l 0,0.16 c -2.992,-0.016 -4.656,1.008 -4.656,2.88 0,1.12 0.8,2.224 2.368,2.224 1.104,0 1.952,-0.544 2.368,-1.152 l 0.048,0 0.128,0.976 1.264,0 c -0.08,-0.528 -0.112,-1.184 -0.112,-1.856 l 0,-2.896 m -1.376,2.144 c 0,0.144 -0.016,0.304 -0.064,0.448 -0.224,0.656 -0.88,1.296 -1.904,1.296 -0.704,0 -1.312,-0.416 -1.312,-1.344 0,-1.504 1.744,-1.776 3.28,-1.744 l 0,1.344"
             id="path5763"
             inkscape:connector-curvature="0" />
          <path
             d="m 203.1091,190.76265 1.408,0 0,-4.672 c 0,-0.224 0.032,-0.48 0.096,-0.656 0.256,-0.784 0.976,-1.44 1.888,-1.44 1.328,0 1.792,1.056 1.792,2.304 l 0,4.464 1.408,0 0,-4.624 c 0,-2.656 -1.664,-3.296 -2.736,-3.296 -1.28,0 -2.176,0.72 -2.56,1.44 l -0.032,0 -0.08,-1.264 -1.248,0 c 0.048,0.64 0.064,1.28 0.064,2.096 l 0,5.648"
             id="path5765"
             inkscape:connector-curvature="0" />
          <path
             d="m 215.1521,190.93865 c 1.84,0 3.84,-1.248 3.84,-4.128 0,-2.352 -1.504,-3.968 -3.728,-3.968 -2.128,0 -3.84,1.52 -3.84,4.112 0,2.448 1.632,3.984 3.712,3.984 l 0.016,0 m 0.032,-1.056 c -1.36,0 -2.32,-1.28 -2.32,-2.976 0,-1.472 0.72,-3.008 2.368,-3.008 1.664,0 2.32,1.648 2.32,2.96 0,1.76 -1.008,3.024 -2.352,3.024 l -0.016,0"
             id="path5767"
             inkscape:connector-curvature="0" />
          <path
             d="m 227.24535,183.01865 -1.408,0 0,4.736 c 0,0.272 -0.048,0.528 -0.128,0.72 -0.256,0.64 -0.912,1.296 -1.856,1.296 -1.264,0 -1.728,-1.008 -1.728,-2.48 l 0,-4.272 -1.408,0 0,4.528 c 0,2.704 1.456,3.392 2.672,3.392 1.376,0 2.208,-0.816 2.56,-1.44 l 0.032,0 0.08,1.264 1.248,0 c -0.048,-0.608 -0.064,-1.312 -0.064,-2.128 l 0,-5.616"
             id="path5769"
             inkscape:connector-curvature="0" />
          <path
             d="m 229.89785,181.59465 0,1.424 -1.2,0 0,1.072 1.2,0 0,4.208 c 0,0.912 0.16,1.6 0.544,2.032 0.336,0.368 0.864,0.592 1.52,0.592 0.544,0 0.976,-0.096 1.248,-0.192 l -0.064,-1.072 c -0.208,0.064 -0.432,0.096 -0.816,0.096 -0.784,0 -1.056,-0.544 -1.056,-1.504 l 0,-4.16 2.016,0 0,-1.072 -2.016,0 0,-1.856 -1.376,0.432"
             id="path5771"
             inkscape:connector-curvature="0" />
        </g>
      </g>
      <g
         id="g5030">
        <path
           style="fill:none;stroke:#a9b5af;stroke-width:1.77165353;stroke-linecap:butt;stroke-miterlimit:4;stroke-opacity:1;stroke-dashoffset:0"
           d="m 277.80585,169.09177 96.3639,0 0,18.23101 -96.3639,0 z"
           id="rect3906"
           inkscape:connector-curvature="0" />
        <g
           style="font-size:16px;font-style:normal;font-weight:normal;line-height:125%;letter-spacing:0px;word-spacing:0px;fill:#000000;fill-opacity:1;stroke:none;font-family:Myriad Pro;-inkscape-font-specification:Myriad Pro"
           id="text3914">
          <path
             d="m 285.73281,171.69065 0.256,3.84 0.864,0 0.256,-3.84 -1.376,0 m 2.384,0 0.256,3.84 0.864,0 0.256,-3.84 -1.376,0"
             id="path5775"
             inkscape:connector-curvature="0" />
          <path
             d="m 291.49106,182.76265 1.376,0 0,-4.672 c 0,-0.24 0.032,-0.48 0.112,-0.688 0.224,-0.704 0.88,-1.408 1.744,-1.408 1.072,0 1.616,0.88 1.616,2.112 l 0,4.656 1.376,0 0,-4.8 c 0,-0.24 0.048,-0.496 0.112,-0.704 0.256,-0.672 0.864,-1.264 1.68,-1.264 1.12,0 1.68,0.88 1.68,2.384 l 0,4.384 1.376,0 0,-4.56 c 0,-2.688 -1.52,-3.36 -2.56,-3.36 -0.736,0 -1.232,0.192 -1.696,0.544 -0.32,0.24 -0.64,0.56 -0.88,1.008 l -0.032,0 c -0.336,-0.912 -1.136,-1.552 -2.176,-1.552 -1.296,0 -2.016,0.688 -2.448,1.424 l -0.048,0 -0.064,-1.248 -1.232,0 c 0.032,0.64 0.064,1.28 0.064,2.096 l 0,5.648"
             id="path5777"
             inkscape:connector-curvature="0" />
          <path
             d="m 303.59206,175.01865 2.848,7.136 c 0.08,0.176 0.112,0.288 0.112,0.368 0,0.08 -0.048,0.192 -0.112,0.336 -0.336,0.72 -0.8,1.264 -1.184,1.568 -0.416,0.352 -0.88,0.576 -1.232,0.688 l 0.352,1.168 c 0.352,-0.064 1.024,-0.304 1.728,-0.896 0.96,-0.848 1.648,-2.192 2.656,-4.848 l 2.112,-5.52 -1.488,0 -1.536,4.544 c -0.192,0.56 -0.352,1.152 -0.496,1.616 l -0.032,0 c -0.128,-0.464 -0.32,-1.072 -0.512,-1.584 l -1.68,-4.576 -1.536,0"
             id="path5779"
             inkscape:connector-curvature="0" />
          <path
             d="m 310.97931,183.96265 0,0.8 8,0 0,-0.8 -8,0"
             id="path5781"
             inkscape:connector-curvature="0" />
          <path
             d="m 325.42731,185.93065 1.408,0 0,-8.784 c 0,-0.8 0.016,-1.488 0.064,-2.128 l -1.344,0 -0.048,1.168 -0.032,0 c -0.384,-0.752 -1.184,-1.344 -2.384,-1.344 -1.632,0 -3.504,1.28 -3.504,4.176 0,2.368 1.472,3.92 3.28,3.92 1.248,0 2.112,-0.608 2.528,-1.36 l 0.032,0 0,4.352 m 0,-6.32 c 0,0.208 -0.048,0.48 -0.112,0.672 -0.32,0.976 -1.104,1.536 -2.016,1.536 -1.552,0 -2.288,-1.328 -2.288,-2.88 0,-1.744 0.88,-2.976 2.336,-2.976 1.056,0 1.792,0.736 2.016,1.6 0.048,0.176 0.064,0.384 0.064,0.592 l 0,1.456"
             id="path5783"
             inkscape:connector-curvature="0" />
          <path
             d="m 335.62731,175.01865 -1.408,0 0,4.736 c 0,0.272 -0.048,0.528 -0.128,0.72 -0.256,0.64 -0.912,1.296 -1.856,1.296 -1.264,0 -1.728,-1.008 -1.728,-2.48 l 0,-4.272 -1.408,0 0,4.528 c 0,2.704 1.456,3.392 2.672,3.392 1.376,0 2.208,-0.816 2.56,-1.44 l 0.032,0 0.08,1.264 1.248,0 c -0.048,-0.608 -0.064,-1.312 -0.064,-2.128 l 0,-5.616"
             id="path5785"
             inkscape:connector-curvature="0" />
          <path
             d="m 344.18381,179.14665 c 0.032,-0.16 0.048,-0.368 0.048,-0.656 0,-1.424 -0.656,-3.648 -3.184,-3.648 -2.256,0 -3.648,1.84 -3.648,4.176 0,2.32 1.44,3.904 3.808,3.904 1.232,0 2.096,-0.272 2.592,-0.496 l -0.256,-1.008 c -0.512,0.224 -1.136,0.4 -2.144,0.4 -1.408,0 -2.608,-0.784 -2.64,-2.672 l 5.424,0 m -5.408,-1.008 c 0.112,-0.976 0.72,-2.288 2.16,-2.288 1.568,0 1.952,1.392 1.936,2.288 l -4.096,0"
             id="path5787"
             inkscape:connector-curvature="0" />
          <path
             d="m 352.47106,175.01865 -1.408,0 0,4.736 c 0,0.272 -0.048,0.528 -0.128,0.72 -0.256,0.64 -0.912,1.296 -1.856,1.296 -1.264,0 -1.728,-1.008 -1.728,-2.48 l 0,-4.272 -1.408,0 0,4.528 c 0,2.704 1.456,3.392 2.672,3.392 1.376,0 2.208,-0.816 2.56,-1.44 l 0.032,0 0.08,1.264 1.248,0 c -0.048,-0.608 -0.064,-1.312 -0.064,-2.128 l 0,-5.616"
             id="path5789"
             inkscape:connector-curvature="0" />
          <path
             d="m 361.02756,179.14665 c 0.032,-0.16 0.048,-0.368 0.048,-0.656 0,-1.424 -0.656,-3.648 -3.184,-3.648 -2.256,0 -3.648,1.84 -3.648,4.176 0,2.32 1.44,3.904 3.808,3.904 1.232,0 2.096,-0.272 2.592,-0.496 l -0.256,-1.008 c -0.512,0.224 -1.136,0.4 -2.144,0.4 -1.408,0 -2.608,-0.784 -2.64,-2.672 l 5.424,0 m -5.408,-1.008 c 0.112,-0.976 0.72,-2.288 2.16,-2.288 1.568,0 1.952,1.392 1.936,2.288 l -4.096,0"
             id="path5791"
             inkscape:connector-curvature="0" />
          <path
             d="m 362.48281,171.69065 0.256,3.84 0.864,0 0.256,-3.84 -1.376,0 m 2.384,0 0.256,3.84 0.864,0 0.256,-3.84 -1.376,0"
             id="path5793"
             inkscape:connector-curvature="0" />
        </g>
      </g>
      <path
         sodipodi:nodetypes="cc"
         inkscape:connector-curvature="0"
         id="path3958"
         d="M 169.72202,138.20728 276.93771,177.7078"
         style="fill:none;stroke:#000000;stroke-width:1.77165353;stroke-linecap:butt;stroke-linejoin:miter;stroke-miterlimit:4;stroke-opacity:1;stroke-dasharray:none;marker-end:url(#Arrow1Mend)" />
      <path
         style="fill:none;stroke:#a9b5af;stroke-width:1.77165353;stroke-linecap:butt;stroke-miterlimit:4;stroke-opacity:1;stroke-dasharray:3.54330707, 3.54330707;stroke-dashoffset:0"
         d="m 91.557251,37.967945 311.663449,0 0,178.403455 -311.663449,0 z"
         id="rect4161"
         inkscape:connector-curvature="0" />
      <g
         clip-path="url(#clipPath4264)"
         id="g4223"
         inkscape:label="ink_ext_XXXXXX"
         transform="matrix(0.53068556,0,0,-0.53068556,377.14085,211.60248)">
        <g
           id="g4225"
           transform="scale(0.1,0.1)">
          <path
             inkscape:connector-curvature="0"
             d="m 2268.52,410.359 c -18.72,0 -35.16,-3.007 -49.26,-9.031 -13.79,-5.969 -25.94,-14.18 -36.25,-24.488 -10.12,-10.078 -18.71,-21.871 -25.51,-35.512 -6.6,-13.387 -11.6,-27.769 -15.51,-42.957 -3.98,-15.199 -6.79,-30.859 -8.47,-46.762 -1.53,-16.019 -2.27,-31.25 -2.27,-46.25 0,-15 0.82,-30.468 2.5,-46.25 1.72,-15.629 4.34,-30.629 8.24,-45.507 4.03,-14.6137 9.57,-28.5629 16.25,-41.7622 6.72,-12.8906 15.16,-24.3007 25.28,-33.9804 10.27,-9.8086 22.34,-17.3086 36.25,-23.0078 l 2.73,-1.0235 2.5,-0.9687 3.01,-0.7383 2.73,-1.0195 2.78,-0.7422 2.96,-0.73831 3.01,-0.51171 3.01,-0.50782 3.01,-0.51172 3.24,-0.51172 3.01,-0.45703 3.24,-0.28125 3.24,-0.23046 3.24,0 3.52,-0.28126 166.76,0 0,33.01168 -86.76,-5.9687 -1.25,1.25 c 5.51,1.4805 10.51,4.4883 15,8.9805 4.69,4.6875 8.95,10.1601 12.73,16.7578 3.72,6.6015 7.04,13.789 10,21.4804 3.01,7.6993 5.43,15.2813 7.5,22.7812 2.23,7.688 4.22,14.801 5.51,21.481 1.53,6.796 2.54,12.578 3.24,17.269 1.92,10.391 3.21,20.93 4.03,31.25 0.9,10.5 1.48,21.129 1.48,31.75 0,14.891 -0.74,30.039 -2.22,45.75 -1.53,15.891 -4.22,31.481 -8.01,46.481 -3.71,15.187 -8.91,29.41 -15.51,43.007 -6.29,13.403 -14.65,25.391 -24.77,35.512 -9.88,10.27 -21.83,18.43 -35.74,24.25 -13.9,5.981 -29.88,8.988 -48.47,8.988 z m -2.04,-33.007 c 14.42,0 27.04,-2.93 37.5,-8.75 10.71,-5.704 19.61,-13.243 27,-22.731 7.3,-9.422 13,-20.359 17.5,-32.781 4.53,-12.192 8.12,-24.649 10.5,-37.731 2.43,-13.211 3.95,-26.371 4.77,-39.257 l 0.23,-2.274 0,-2.5 0.28,-2.219 0.23,-2.5 0,-4.488 0.24,-2.269 0,-2.274 0.27,-4.488 0,-4.262 0.23,-4.207 0,-4.031 c 0,-11.289 -0.54,-23.078 -1.25,-35.512 -0.78,-12.18 -2.34,-24.488 -4.72,-36.476 -2.5,-11.801 -5.78,-23.09 -10.28,-33.9809 -4.29,-10.9023 -10.19,-20.2422 -17.5,-28.5195 -7.38,-8.0118 -16.28,-14.6133 -26.99,-19.4922 -10.39,-4.8086 -23.2,-7.2696 -38.01,-7.2696 -14.29,0 -26.68,2.461 -36.99,7.7383 -10.31,5.3125 -18.94,12.461 -26.25,21.25 -7.19,8.8203 -13.01,18.75 -17.5,30.2735 -4.22,11.5974 -7.65,23.7074 -10.27,35.9764 -2.5,12.422 -4.34,24.883 -5.24,37.262 -0.78,12.5 -1.25,24.101 -1.25,35 0,10.898 0.47,22.66 1.25,35.238 0.9,12.5 2.54,25.152 4.77,37.774 2.5,12.687 5.94,24.878 10.23,36.476 4.5,11.801 10.16,22.152 17.27,31.25 7.3,8.91 16.21,16.102 26.48,21.531 10.51,5.391 23.01,8.243 37.5,8.243 z"
             style="fill:#a9b5af;fill-opacity:1;fill-rule:nonzero;stroke:none"
             id="path4227" />
          <path
             inkscape:connector-curvature="0"
             d="m 2049.77,372 -117,-365.58984 -36.29,0 L 1778.98,372 l -1.21,0 0,-365.58984 -31.79,0 0,397.37884 57.11,0 111.09,-347.8906 1.21,0 111.29,347.8906 55.7,0 0,-397.37884 -31.48,0 0,365.58984 -1.13,0 z"
             style="fill:#a9b5af;fill-opacity:1;fill-rule:nonzero;stroke:none"
             id="path4229" />
          <path
             inkscape:connector-curvature="0"
             d="m 1203.01,403.828 0,-285.226 c 0,-15.391 1.6,-30.352 5,-44.7739 3.4,-14.289 8.75,-26.8672 16.25,-37.957 7.69,-10.832 17.65,-19.5 29.72,-26.01954 12.23,-6.60156 27.11,-9.773435 44.54,-9.773435 13.39,0 25.23,1.722655 35.74,5.511715 10.51,3.71094 19.53,9.03126 27.22,15.51176 7.93,6.7968 14.61,14.4492 20,23.2382 5.51,8.9883 9.89,18.711 13.29,29.0313 3.47,10.457 6.09,21.3203 7.5,32.7309 l 0.74,4.488 0.23,4.262 0.51,4.257 0.23,4.262 0.28,4.207 0.23,4.543 0,8.469 c 0,9.922 -0.58,20.39 -1.99,31.531 -1.09,11.168 -3.01,22.301 -6.02,32.957 -2.89,10.82 -6.6,21.063 -11.48,30.793 -4.69,9.879 -10.66,18.75 -17.77,26.25 -7,7.688 -15.12,13.59 -24.73,17.957 -9.49,4.543 -20.62,6.762 -33.01,6.762 -19.1,0 -35.19,-5.078 -48.51,-15.512 -13.28,-10.269 -22.7,-24.367 -27.97,-42.457 l -1.02,0 0,175 -28.98,0 0,-0.043 z M 1306.25,259.34 c 8.59,0 16.13,-2.149 22.73,-6.25 6.53,-3.981 12.07,-9.262 16.76,-15.738 4.92,-6.602 8.75,-14.102 11.76,-22.5 3.2,-8.524 5.82,-17.114 7.5,-26.024 1.91,-8.59 3.2,-16.988 3.98,-25.457 l 0,-3.012 0.28,-1.488 0.23,-1.519 0,-4.262 0.28,-1.481 0,-2.738 0.23,-1.25 0,-6.519 c 0,-7.704 -0.59,-15.903 -1.48,-24.493 -0.71,-8.519 -1.92,-16.7574 -4.03,-25.2379 -2.11,-8.1992 -4.88,-16.1719 -8.47,-23.75 -3.52,-7.7305 -7.97,-14.7617 -13.29,-20.7813 -5.19,-5.7812 -11.44,-10.3906 -18.75,-13.9804 -7.26,-3.3203 -15.86,-5 -25.46,-5 -9.3,0 -17.62,1.6797 -24.5,5 -6.83,3.4023 -12.61,7.8906 -17.5,13.5117 -4.61,5.707 -8.55,11.957 -11.75,19.2187 -3.01,7.5 -5.36,15.4297 -7.27,23.5196 -1.6,8.0117 -2.81,16.1286 -3.48,24.2616 -0.62,8.199 -1.01,15.93 -1.01,23.238 0,7.11 0.51,15.192 1.48,23.981 1.02,8.832 2.81,17.66 5,26.762 2.5,9.097 5.47,18.046 9.26,26.757 3.71,8.59 8.24,16.129 13.75,22.731 5.39,6.719 11.91,12.07 19.02,16.25 7.27,4.101 15.55,6.25 24.73,6.25 z"
             style="fill:#ff6600;fill-opacity:1;fill-rule:nonzero;stroke:none"
             id="path4231" />
          <path
             inkscape:connector-curvature="0"
             d="m 468.012,403.828 0,-397.49988 34.488,0 0,179.77388 47.73,0 c 15.239,0 27.661,-1.911 37.04,-6.024 9.57,-3.976 17.109,-9.719 22.73,-17.219 5.82,-7.5 10.309,-16.531 13.52,-27.031 3.359,-10.469 6.441,-22.269 9.25,-35.469 l 20.242,-94.03088 34.488,0 L 665,113.602 c -2.27,11.476 -4.57,21.839 -7.23,31.25 -2.418,9.488 -6.008,17.929 -10.5,25.226 -4.5,7.5 -10.551,13.832 -18.25,19.031 -7.692,5.27 -17.692,9.493 -30.27,12.5 l 0,0.969 c 4.141,1.024 8.09,2.113 11.988,3.012 3.992,1.211 8.133,2.539 12.274,4.262 9.918,3.91 18.316,8.937 25.269,15.226 7.11,6.332 13.008,13.363 17.5,21.25 4.489,7.934 7.66,16.371 9.731,25.75 2.258,9.332 3.238,19.531 3.238,30 0,19.531 -3.281,35.621 -10.23,48.512 -6.961,13.199 -16.372,23.711 -28.008,31.488 -11.602,7.934 -25.121,13.391 -40.512,16.524 -15.352,3.398 -31.41,5.226 -48.48,5.226 l -83.508,0 z m 34.488,-31.707 45.512,0 c 12.027,0 23.828,-0.832 35.226,-2.5 11.641,-1.723 22.032,-5.281 31.024,-10.281 9.019,-5.078 16.047,-12.031 21.476,-21.25 l 1.024,-1.988 0.968,-1.762 1.02,-1.762 0.738,-1.988 0.742,-1.988 0.79,-1.993 0.46,-2.269 0.79,-2.219 0.46,-2.269 0.282,-2.274 0.508,-2.5 0.23,-2.5 0.23,-2.5 0.282,-2.726 0,-5.231 c 0,-16.531 -3.133,-30.359 -9.492,-41.25 -6.18,-10.633 -14.461,-19.109 -24.77,-25.512 -10.309,-6.289 -22.191,-10.82 -35.512,-13.519 -13.316,-2.578 -26.867,-3.981 -40.738,-3.981 l -31.25,0 0,154.262 z"
             style="fill:#ff6600;fill-opacity:1;fill-rule:nonzero;stroke:none"
             id="path4233" />
          <path
             inkscape:connector-curvature="0"
             d="m 823.012,286.84 c -11.102,0 -22.231,-1.442 -33.524,-4.262 -11.25,-2.566 -21.25,-6.789 -30.226,-12.5 -8.992,-5.656 -16.453,-13.277 -22.274,-22.5 -5.617,-8.976 -8.508,-19.719 -8.508,-32.726 l 35.27,0 c 3.199,16.089 9.301,27.539 18.52,34.257 9.179,6.789 21.992,10.231 38.468,10.231 10.711,0 19.653,-1.399 26.762,-3.981 7.109,-2.621 12.93,-6.289 17.27,-11.019 4.492,-4.488 7.73,-9.84 9.718,-16.25 2.313,-6.168 3.793,-12.93 4.492,-20.231 1.02,-7.23 1.489,-14.73 1.25,-22.5 l 0,-24.031 c -10,-0.066 -20.89,-0.539 -32.5,-1.25 -11.359,-0.777 -22.89,-2.258 -34.492,-4.488 -11.398,-2.11 -22.648,-5.078 -33.468,-8.981 -10.75,-3.828 -20.239,-8.91 -28.52,-15.507 -8.238,-6.411 -14.922,-14.411 -20,-24.024 -4.879,-9.3788 -7.27,-20.5468 -7.27,-33.7069 0,-10.7109 1.532,-20.5117 4.54,-29.543 3.199,-8.9765 7.652,-16.75 13.468,-23.2383 5.981,-6.3984 13.403,-11.48042 21.992,-14.99996 8.829,-3.78906 18.68,-5.511715 29.77,-5.511715 17.969,0 34.219,3.832035 48.52,11.531275 14.371,7.6914 26.64,18.789 36.71,33.4687 l 1.25,0 0,-38.74998 28.52,0 0,187.27388 c 0,15.187 -1.172,28.668 -3.75,40.269 -2.621,11.68 -7.422,21.328 -14.02,29.219 -6.289,7.808 -15,13.871 -25.98,17.781 -11.09,3.899 -25.199,5.969 -41.988,5.969 z m 24.718,-153.012 32.5,0 c 0,-10.969 -0.699,-21.637 -1.992,-31.707 -1.289,-9.9296 -4.957,-19.7694 -10.738,-29.2616 -3.398,-5.8203 -7.66,-11.0586 -12.73,-15.7383 -4.809,-4.7305 -10.282,-8.7227 -16.25,-12 -6.02,-3.5117 -12.231,-6.2109 -19.032,-8 -6.476,-1.7227 -13.238,-2.5 -20,-2.5 -5.468,0 -10.66,0.7773 -15.738,2.5 -4.84,1.7891 -9.262,4.3672 -13.012,7.5 -3.75,3.1992 -6.758,7.3008 -8.976,11.9883 -2.071,4.6797 -3.012,9.6523 -3.012,15.2304 0,12.2305 2.969,22.461 8.98,30.2812 6.02,8.078 13.52,14.289 22.5,18.981 9.18,4.609 19.219,8.117 30,10 l 2,0.269 2.032,0.238 1.988,0.512 1.988,0 1.992,0.5 2,0 2.032,0.238 1.988,0.231 1.988,0.281 1.762,0 1.988,0.231 3.75,0 1.992,0.269 0,-0.043 z"
             style="fill:#ff6600;fill-opacity:1;fill-rule:nonzero;stroke:none"
             id="path4235" />
          <path
             inkscape:connector-curvature="0"
             d="m 956.48,403.828 0,-285.226 c 0,-15.391 1.61,-30.352 5,-44.7739 3.399,-14.289 9.032,-26.8672 16.532,-37.957 7.687,-10.832 17.539,-19.5 29.718,-26.01954 12.23,-6.60156 26.88,-9.773435 44.26,-9.773435 13.4,0 25.39,1.722655 36.02,5.511715 10.51,3.71094 19.53,9.03126 27.22,15.51176 7.82,6.7968 14.38,14.4492 19.77,23.2382 5.39,8.9883 9.96,18.711 13.24,29.0313 3.6,10.457 6.25,21.3203 7.78,32.7309 l 0.46,4.488 0.51,4.262 0.28,4.257 0.23,4.262 0.23,4.207 0.28,4.543 0,4.207 0.23,4.262 c 0,9.922 -0.7,20.39 -1.99,31.531 -1.09,11.168 -3.24,22.301 -6.25,32.957 -2.81,10.82 -6.6,21.063 -11.52,30.793 -4.69,9.879 -10.63,18.75 -17.74,26.25 -6.99,7.688 -15.15,13.59 -24.76,17.957 -9.5,4.543 -20.59,6.762 -32.97,6.762 -19.1,0 -35.12,-5.078 -48.52,-15.512 -13.28,-10.269 -22.689,-24.367 -28.01,-42.457 l -0.968,0 0,175 -29.032,0 0,-0.043 z M 1059.77,259.34 c 8.67,0 16.13,-2.149 22.73,-6.25 6.6,-3.981 12.3,-9.262 16.99,-15.738 4.92,-6.602 8.75,-14.102 11.76,-22.5 3.2,-8.524 5.55,-17.114 7.27,-26.024 1.87,-8.59 3.2,-16.988 3.98,-25.457 l 0,-1.531 0.23,-1.481 0,-1.488 0.28,-1.519 0,-3.012 0.23,-1.25 0,-1.481 0.28,-1.488 0,-9.019 c 0,-7.704 -0.36,-15.903 -1.25,-24.493 -0.82,-8.519 -2.27,-16.7574 -4.26,-25.2379 -2.11,-8.1992 -4.92,-16.1719 -8.52,-23.75 -3.59,-7.7305 -7.93,-14.7617 -13.24,-20.7813 -5.31,-5.7812 -11.45,-10.3906 -18.75,-13.9804 -7.3,-3.3203 -15.9,-5 -25.51,-5 -9.29,0 -17.34,1.6797 -24.26,5 -6.79,3.4023 -12.57,7.8906 -17.46,13.5117 -4.61,5.707 -8.55,11.957 -11.75,19.2187 -3.008,7.5 -5.629,15.4297 -7.5,23.5196 -1.719,8.0117 -2.821,16.1286 -3.52,24.2616 -0.59,8.199 -0.98,15.93 -0.98,23.238 0,7.11 0.589,15.192 1.492,23.981 1.09,8.832 2.687,17.66 5,26.762 2.379,9.097 5.539,18.046 9.258,26.757 3.78,8.59 8.35,16.129 13.75,22.731 5.5,6.719 11.87,12.07 18.98,16.25 7.3,4.101 15.66,6.25 24.77,6.25 z"
             style="fill:#ff6600;fill-opacity:1;fill-rule:nonzero;stroke:none"
             id="path4237" />
          <path
             inkscape:connector-curvature="0"
             d="m 1481.8,280.59 0,-274.17984 -28.71,0 0,274.17984 28.71,0 z"
             style="fill:#ff6600;fill-opacity:1;fill-rule:nonzero;stroke:none"
             id="path4239" />
          <path
             inkscape:connector-curvature="0"
             d="m 1488.91,403.789 0,-46.668 -42.5,0 0,46.668 42.5,0 z"
             style="fill:#ff6600;fill-opacity:1;fill-rule:nonzero;stroke:none"
             id="path4241" />
          <path
             inkscape:connector-curvature="0"
             d="m 1682.5,2.51172 -3.83,-0.63281 -3.67,-0.46875 -3.59,-0.511722 -3.71,-0.308594 -3.72,-0.269532 -3.59,-0.242187 -3.59,-0.0664062 -3.6,0 c -24.41,0 -42.5,5.1875012 -54.61,15.6991812 -11.99,10.5079 -17.89,27.6875 -17.89,51.8008 l 0,185.5783 -43.9,0 0,27.5 43.9,0 0,63.32 28.6,19.102 0,-82.422 73.2,0 0,-27.5 -73.2,0 0,-176.3986 c 0,-7.9023 0.78,-14.7695 2.3,-20.793 1.49,-6.0078 3.87,-11.0898 7.27,-15.5 3.63,-4.1093 8.2,-7.3086 14.1,-9.5 5.82,-2.1093 12.93,-3.0781 21.33,-3.0781 6.09,0 10.78,0.2695 14.37,1.0899 3.71,0.8984 8.32,2.3086 13.83,3.9101 l 0,-30.30858 z"
             style="fill:#ff6600;fill-opacity:1;fill-rule:nonzero;stroke:none"
             id="path4243" />
          <path
             inkscape:connector-curvature="0"
             d="M 16.0195,406.328 C 7.14844,406.328 0,399.262 0,390.359 L 0,22.3516 C 0,13.4414 7.14844,6.32812 16.0195,6.32812 l 367.9605,0 c 8.872,0 16.02,7.11328 16.02,16.02348 l 0,208.0074 c 0,8.903 -7.148,15.969 -16.02,15.969 l -127.96,0 c -8.872,0 -16.02,7.113 -16.02,16.024 l 0,128.007 c 0,8.903 -7.148,15.969 -16.02,15.969 l -47.96,0 c -8.872,0 -16.02,-7.066 -16.02,-15.969 l 0,-128.007 c 0,-8.911 -7.148,-16.024 -16.02,-16.024 l -47.9605,0 C 87.1484,246.328 80,253.441 80,262.352 l 0,128.007 c 0,8.903 -7.1484,15.969 -16.0195,15.969 l -47.961,0 z"
             style="fill:#ff6600;fill-opacity:1;fill-rule:nonzero;stroke:none"
             id="path4245" />
          <path
             inkscape:connector-curvature="0"
             d="m 263.98,166.41 32.04,0 c 13.281,0 23.98,-10.699 23.98,-24.019 l 0,-31.993 C 320,97.0781 309.301,86.3711 296.02,86.3711 l -32.04,0 c -13.281,0 -23.98,10.707 -23.98,24.0269 l 0,31.993 c 0,13.32 10.699,24.019 23.98,24.019 z"
             style="fill:#ffffff;fill-opacity:1;fill-rule:nonzero;stroke:none"
             id="path4247" />
        </g>
      </g>
      <path
         sodipodi:nodetypes="cc"
         inkscape:connector-curvature="0"
         id="path4295-8"
         d="m 56.863387,135.60284 72.924033,-0.43407"
         style="fill:none;stroke:#000000;stroke-width:1.77165353;stroke-linecap:butt;stroke-linejoin:miter;stroke-miterlimit:4;stroke-opacity:1;stroke-dasharray:none;marker-start:none;marker-end:url(#Arrow1Mend)" />
      <path
         sodipodi:nodetypes="cc"
         inkscape:connector-curvature="0"
         id="path4924"
         d="m 374.16977,177.70779 130.65556,13.02216"
         style="fill:none;stroke:#000000;stroke-width:1.77199996;stroke-linecap:butt;stroke-linejoin:miter;stroke-miterlimit:4;stroke-opacity:1;stroke-dasharray:10.632, 1.772;stroke-dashoffset:0;marker-end:url(#Arrow1Mend-8)" />
      <path
         style="fill:none;stroke:#000000;stroke-width:1.77199996;stroke-linecap:butt;stroke-linejoin:miter;stroke-miterlimit:4;stroke-opacity:1;stroke-dasharray:10.632, 1.772;stroke-dashoffset:0;marker-end:url(#Arrow1Mend-8)"
         d="m 374.16977,177.70779 133.25999,-0.86813"
         id="path4246"
         inkscape:connector-curvature="0"
         sodipodi:nodetypes="cc" />
      <path
         sodipodi:nodetypes="cc"
         inkscape:connector-curvature="0"
         id="path4248"
         d="M 374.16977,176.75864 504.82533,163.73648"
         style="fill:none;stroke:#000000;stroke-width:1.77199996;stroke-linecap:butt;stroke-linejoin:miter;stroke-miterlimit:4;stroke-opacity:1;stroke-dasharray:10.632, 1.772;stroke-dashoffset:0;marker-end:url(#Arrow1Mend-8)" />
      <g
         id="g5403">
        <path
           style="fill:none;stroke:#a9b5af;stroke-width:1.77165353;stroke-linecap:butt;stroke-miterlimit:4;stroke-opacity:1;stroke-dashoffset:0"
           d="m 299.80585,109.09178 96.3639,0 0,18.23101 -96.3639,0 z"
           id="rect5037"
           inkscape:connector-curvature="0" />
        <g
           style="font-size:16px;font-style:normal;font-weight:normal;line-height:125%;letter-spacing:0px;word-spacing:0px;fill:#000000;fill-opacity:1;stroke:none;font-family:Myriad Pro;-inkscape-font-specification:Myriad Pro"
           id="text5039">
          <path
             d="m 322.59218,111.69066 0.256,3.84 0.864,0 0.256,-3.84 -1.376,0 m 2.384,0 0.256,3.84 0.864,0 0.256,-3.84 -1.376,0"
             id="path5798"
             inkscape:connector-curvature="0" />
          <path
             d="m 327.82243,122.37866 c 0.544,0.32 1.328,0.544 2.176,0.544 1.808,0 2.88,-0.96 2.88,-2.336 0,-1.152 -0.704,-1.824 -2.032,-2.32 -1.00799,-0.4 -1.456,-0.688 -1.456,-1.328 0,-0.576 0.448,-1.056 1.28,-1.056 0.72,0 1.28,0.272 1.584,0.448 l 0.336,-1.008 c -0.416,-0.272 -1.104,-0.48 -1.888,-0.48 -1.64799,0 -2.672,1.024 -2.672,2.272 0,0.912 0.65601,1.68 2.064,2.192 1.024,0.384 1.424,0.736 1.424,1.408 0,0.656 -0.48,1.152 -1.488,1.152 -0.704,0 -1.44,-0.288 -1.872,-0.544 l -0.336,1.056"
             id="path5800"
             inkscape:connector-curvature="0" />
          <path
             d="m 333.67018,115.01866 2.848,7.136 c 0.08,0.176 0.112,0.288 0.112,0.368 0,0.08 -0.048,0.192 -0.112,0.336 -0.336,0.72 -0.8,1.264 -1.184,1.568 -0.416,0.352 -0.88,0.576 -1.232,0.688 l 0.352,1.168 c 0.352,-0.064 1.024,-0.304 1.728,-0.896 0.96,-0.848 1.64801,-2.19201 2.656,-4.848 l 2.112,-5.52 -1.488,0 -1.536,4.544 c -0.192,0.56 -0.352,1.152 -0.496,1.616 l -0.032,0 c -0.128,-0.464 -0.32,-1.072 -0.512,-1.584 l -1.68,-4.576 -1.536,0"
             id="path5802"
             inkscape:connector-curvature="0" />
          <path
             d="m 341.60368,122.37866 c 0.544,0.32 1.328,0.544 2.176,0.544 1.808,0 2.88,-0.96 2.88,-2.336 0,-1.152 -0.704,-1.824 -2.032,-2.32 -1.00799,-0.4 -1.456,-0.688 -1.456,-1.328 0,-0.576 0.448,-1.056 1.28,-1.056 0.72,0 1.28,0.272 1.584,0.448 l 0.336,-1.008 c -0.416,-0.272 -1.104,-0.48 -1.888,-0.48 -1.64799,0 -2.672,1.024 -2.672,2.272 0,0.912 0.65601,1.68 2.064,2.192 1.024,0.384 1.424,0.736 1.424,1.408 0,0.656 -0.48,1.152 -1.488,1.152 -0.704,0 -1.44,-0.288 -1.872,-0.544 l -0.336,1.056"
             id="path5804"
             inkscape:connector-curvature="0" />
          <path
             d="m 348.47543,122.76266 1.408,0 0,-11.36 -1.408,0 0,11.36"
             id="path5806"
             inkscape:connector-curvature="0" />
          <path
             d="m 355.42468,122.93866 c 1.84,0 3.84,-1.24801 3.84,-4.128 0,-2.352 -1.504,-3.968 -3.728,-3.968 -2.12799,0 -3.84,1.52 -3.84,4.112 0,2.44799 1.63201,3.984 3.712,3.984 l 0.016,0 m 0.032,-1.056 c -1.35999,0 -2.32,-1.28 -2.32,-2.976 0,-1.472 0.72001,-3.008 2.368,-3.008 1.664,0 2.32,1.648 2.32,2.96 0,1.76 -1.008,3.024 -2.352,3.024 l -0.016,0"
             id="path5808"
             inkscape:connector-curvature="0" />
          <path
             d="m 367.66193,117.13066 c 0,-0.928 0.016,-1.568 0.064,-2.112 l -1.248,0 -0.048,1.168 -0.032,0 c -0.352,-0.656 -1.072,-1.344 -2.416,-1.344 -1.79199,0 -3.504,1.472 -3.504,4.096 0,2.16 1.37601,3.792 3.296,3.792 1.2,0 2.048,-0.576 2.464,-1.296 l 0.032,0 0,0.848 c 0,1.968 -1.056,2.72 -2.496,2.72 -0.95999,0 -1.76,-0.288 -2.272,-0.624 l -0.352,1.088 c 0.624,0.416 1.64801,0.64 2.576,0.64 0.976,0 2.064,-0.24 2.832,-0.928 0.736,-0.688 1.104,-1.76 1.104,-3.552 l 0,-4.496 m -1.408,2.32 c 0,0.256 -0.032,0.528 -0.112,0.752 -0.288,0.912 -1.072,1.456 -1.952,1.456 -1.50399,0 -2.288,-1.28 -2.288,-2.784 0,-1.808 0.96001,-2.944 2.304,-2.944 1.04,0 1.712,0.672 1.968,1.504 0.064,0.192 0.08,0.4 0.08,0.624 l 0,1.392"
             id="path5810"
             inkscape:connector-curvature="0" />
          <path
             d="m 369.62343,111.69066 0.256,3.84 0.864,0 0.256,-3.84 -1.376,0 m 2.384,0 0.256,3.84 0.864,0 0.256,-3.84 -1.376,0"
             id="path5812"
             inkscape:connector-curvature="0" />
        </g>
      </g>
      <path
         style="fill:#0099ff;fill-opacity:1;stroke:#000000;stroke-width:1.77199996;stroke-linecap:butt;stroke-linejoin:miter;stroke-miterlimit:4;stroke-opacity:1;stroke-dasharray:none;marker-end:url(#Arrow1Mend)"
         d="m 168.85388,138.20728 38.63237,-26.91244"
         id="path5046"
         inkscape:connector-curvature="0"
         sodipodi:nodetypes="cc" />
      <g
         transform="translate(33.950501,-41.000035)"
         id="g5332">
        <path
           style="fill:none;stroke:#a9b5af;stroke-width:1.77165353;stroke-linecap:butt;stroke-miterlimit:4;stroke-opacity:1;stroke-dashoffset:0"
           d="m 205.74997,138.20728 c 0,9.58924 -7.77362,17.36286 -17.36287,17.36286 -9.58925,0 -17.36287,-7.77362 -17.36287,-17.36286 0,-9.58925 7.77362,-17.36287 17.36287,-17.36287 9.58925,0 17.36287,7.77362 17.36287,17.36287 z"
           id="path5334"
           inkscape:connector-curvature="0" />
        <g
           style="font-size:22px;font-style:normal;font-weight:normal;line-height:125%;letter-spacing:0px;word-spacing:0px;fill:#000000;fill-opacity:1;stroke:none;font-family:Myriad Pro;-inkscape-font-specification:Myriad Pro"
           id="text5336">
          <path
             d="m 194.11809,145.62128 -4.62,-7.612 4.51,-7.216 -2.222,0 -2.002,3.476 c -0.55,0.946 -0.924,1.628 -1.342,2.508 l -0.066,0 c -0.396,-0.792 -0.814,-1.54 -1.364,-2.508 l -1.958,-3.476 -2.222,0 4.356,7.326 -4.532,7.502 2.2,0 1.782,-3.256 c 0.748,-1.298 1.188,-2.09 1.606,-2.948 l 0.044,0 c 0.462,0.858 0.92401,1.672 1.694,2.926 l 1.914,3.278 2.222,0"
             id="path5816"
             inkscape:connector-curvature="0" />
        </g>
      </g>
      <g
         style="font-size:16px;font-style:normal;font-weight:normal;text-align:center;line-height:125%;letter-spacing:0px;word-spacing:0px;text-anchor:middle;fill:#000000;fill-opacity:1;stroke:none;font-family:Myriad Pro;-inkscape-font-specification:Myriad Pro"
         id="text5340">
        <path
           d="m 179.85085,45.69065 0.256,3.84 0.864,0 0.256,-3.84 -1.376,0 m 2.384,0 0.256,3.84 0.864,0 0.256,-3.84 -1.376,0"
           id="path5819"
           inkscape:connector-curvature="0" />
        <path
           d="m 185.6091,56.76265 1.408,0 0,-11.36 -1.408,0 0,11.36"
           id="path5821"
           inkscape:connector-curvature="0" />
        <path
           d="m 192.55835,56.93865 c 1.84,0 3.84,-1.248003 3.84,-4.128 0,-2.351998 -1.504,-3.968 -3.728,-3.968 -2.128,0 -3.84,1.520002 -3.84,4.112 0,2.447997 1.632,3.984 3.712,3.984 l 0.016,0 m 0.032,-1.056 c -1.36,0 -2.32,-1.280002 -2.32,-2.976 0,-1.471999 0.72,-3.008 2.368,-3.008 1.664,0 2.32,1.648001 2.32,2.96 0,1.759998 -1.008,3.024 -2.352,3.024 l -0.016,0"
           id="path5823"
           inkscape:connector-curvature="0" />
        <path
           d="m 204.7956,51.13065 c 0,-0.928 0.016,-1.568001 0.064,-2.112 l -1.248,0 -0.048,1.168 -0.032,0 c -0.352,-0.656 -1.072,-1.344 -2.416,-1.344 -1.792,0 -3.504,1.472002 -3.504,4.096 0,2.159997 1.376,3.792 3.296,3.792 1.2,0 2.048,-0.576001 2.464,-1.296 l 0.032,0 0,0.848 c 0,1.967998 -1.056,2.72 -2.496,2.72 -0.96,0 -1.76,-0.288001 -2.272,-0.624 l -0.352,1.088 c 0.624,0.415999 1.648,0.64 2.576,0.64 0.976,0 2.064,-0.240001 2.832,-0.928 0.736,-0.688 1.104,-1.760002 1.104,-3.552 l 0,-4.496 m -1.408,2.32 c 0,0.255999 -0.032,0.528 -0.112,0.752 -0.288,0.911999 -1.072,1.456 -1.952,1.456 -1.504,0 -2.288,-1.280002 -2.288,-2.784 0,-1.807999 0.96,-2.944 2.304,-2.944 1.04,0 1.712,0.672 1.968,1.504 0.064,0.191999 0.08,0.4 0.08,0.624 l 0,1.392"
           id="path5825"
           inkscape:connector-curvature="0" />
        <path
           d="m 213.7331,51.13065 c 0,-0.928 0.016,-1.568001 0.064,-2.112 l -1.248,0 -0.048,1.168 -0.032,0 c -0.352,-0.656 -1.072,-1.344 -2.416,-1.344 -1.792,0 -3.504,1.472002 -3.504,4.096 0,2.159997 1.376,3.792 3.296,3.792 1.2,0 2.048,-0.576001 2.464,-1.296 l 0.032,0 0,0.848 c 0,1.967998 -1.056,2.72 -2.496,2.72 -0.96,0 -1.76,-0.288001 -2.272,-0.624 l -0.352,1.088 c 0.624,0.415999 1.648,0.64 2.576,0.64 0.976,0 2.064,-0.240001 2.832,-0.928 0.736,-0.688 1.104,-1.760002 1.104,-3.552 l 0,-4.496 m -1.408,2.32 c 0,0.255999 -0.032,0.528 -0.112,0.752 -0.288,0.911999 -1.072,1.456 -1.952,1.456 -1.504,0 -2.288,-1.280002 -2.288,-2.784 0,-1.807999 0.96,-2.944 2.304,-2.944 1.04,0 1.712,0.672 1.968,1.504 0.064,0.191999 0.08,0.4 0.08,0.624 l 0,1.392"
           id="path5827"
           inkscape:connector-curvature="0" />
        <path
           d="m 217.36085,56.76265 0,-7.744 -1.408,0 0,7.744 1.408,0 m -0.72,-9.056 c 0.544,0 0.88,-0.400001 0.88,-0.864 0,-0.496 -0.352,-0.88 -0.864,-0.88 -0.528,0 -0.88,0.384 -0.88,0.88 0,0.463999 0.336,0.864 0.848,0.864 l 0.016,0"
           id="path5829"
           inkscape:connector-curvature="0" />
        <path
           d="m 219.70285,56.76265 1.408,0 0,-4.672 c 0,-0.224 0.032,-0.480001 0.096,-0.656 0.256,-0.784 0.976,-1.44 1.888,-1.44 1.328,0 1.792,1.056001 1.792,2.304 l 0,4.464 1.408,0 0,-4.624 c 0,-2.655998 -1.664,-3.296 -2.736,-3.296 -1.28,0 -2.176,0.72 -2.56,1.44 l -0.032,0 -0.08,-1.264 -1.248,0 c 0.048,0.639999 0.064,1.28 0.064,2.096 l 0,5.648"
           id="path5831"
           inkscape:connector-curvature="0" />
        <path
           d="m 235.20185,51.13065 c 0,-0.928 0.016,-1.568001 0.064,-2.112 l -1.248,0 -0.048,1.168 -0.032,0 c -0.352,-0.656 -1.072,-1.344 -2.416,-1.344 -1.792,0 -3.504,1.472002 -3.504,4.096 0,2.159997 1.376,3.792 3.296,3.792 1.2,0 2.048,-0.576001 2.464,-1.296 l 0.032,0 0,0.848 c 0,1.967998 -1.056,2.72 -2.496,2.72 -0.96,0 -1.76,-0.288001 -2.272,-0.624 l -0.352,1.088 c 0.624,0.415999 1.648,0.64 2.576,0.64 0.976,0 2.064,-0.240001 2.832,-0.928 0.736,-0.688 1.104,-1.760002 1.104,-3.552 l 0,-4.496 m -1.408,2.32 c 0,0.255999 -0.032,0.528 -0.112,0.752 -0.288,0.911999 -1.072,1.456 -1.952,1.456 -1.504,0 -2.288,-1.280002 -2.288,-2.784 0,-1.807999 0.96,-2.944 2.304,-2.944 1.04,0 1.712,0.672 1.968,1.504 0.064,0.191999 0.08,0.4 0.08,0.624 l 0,1.392"
           id="path5833"
           inkscape:connector-curvature="0" />
        <path
           d="m 237.16335,45.69065 0.256,3.84 0.864,0 0.256,-3.84 -1.376,0 m 2.384,0 0.256,3.84 0.864,0 0.256,-3.84 -1.376,0"
           id="path5835"
           inkscape:connector-curvature="0" />
        <path
           d="m 171.6791,67.59465 0,1.424 -1.2,0 0,1.072 1.2,0 0,4.208 c 0,0.911999 0.16,1.6 0.544,2.032 0.336,0.367999 0.864,0.592 1.52,0.592 0.544,0 0.976,-0.096 1.248,-0.192 l -0.064,-1.072 c -0.208,0.064 -0.432,0.096 -0.816,0.096 -0.784,0 -1.056,-0.544001 -1.056,-1.504 l 0,-4.16 2.016,0 0,-1.072 -2.016,0 0,-1.856 -1.376,0.432"
           id="path5837"
           inkscape:connector-curvature="0" />
        <path
           d="m 175.7726,69.01865 2.848,7.136 c 0.08,0.175999 0.112,0.288 0.112,0.368 0,0.08 -0.048,0.192 -0.112,0.336 -0.336,0.719999 -0.8,1.264 -1.184,1.568 -0.416,0.351999 -0.88,0.576 -1.232,0.688 l 0.352,1.168 c 0.352,-0.064 1.024,-0.304001 1.728,-0.896 0.96,-0.848 1.648,-2.192003 2.656,-4.848 l 2.112,-5.52 -1.488,0 -1.536,4.544 c -0.192,0.559999 -0.352,1.152 -0.496,1.616 l -0.032,0 c -0.128,-0.464 -0.32,-1.072001 -0.512,-1.584 l -1.68,-4.576 -1.536,0"
           id="path5839"
           inkscape:connector-curvature="0" />
        <path
           d="m 184.32785,79.93065 1.408,0 0,-4.208 0.032,0 c 0.464,0.767999 1.344,1.216 2.384,1.216 1.808,0 3.52,-1.376003 3.52,-4.16 0,-2.351998 -1.408,-3.936 -3.296,-3.936 -1.248,0 -2.176,0.544 -2.736,1.504 l -0.032,0 -0.08,-1.328 -1.264,0 c 0.048,0.735999 0.064,1.536001 0.064,2.528 l 0,8.384 m 1.408,-7.664 c 0,-0.176 0.048,-0.384001 0.08,-0.56 0.272,-1.071999 1.184,-1.744 2.144,-1.744 1.488,0 2.288,1.328001 2.288,2.88 0,1.775998 -0.864,2.992 -2.352,2.992 -0.992,0 -1.856,-0.672001 -2.096,-1.648 -0.048,-0.176 -0.064,-0.384001 -0.064,-0.576 l 0,-1.344"
           id="path5841"
           inkscape:connector-curvature="0" />
        <path
           d="m 199.6456,73.14665 c 0.032,-0.16 0.048,-0.368001 0.048,-0.656 0,-1.423999 -0.656,-3.648 -3.184,-3.648 -2.256,0 -3.648,1.840002 -3.648,4.176 0,2.319997 1.44,3.904 3.808,3.904 1.232,0 2.096,-0.272001 2.592,-0.496 l -0.256,-1.008 c -0.512,0.223999 -1.136,0.4 -2.144,0.4 -1.408,0 -2.608,-0.784002 -2.64,-2.672 l 5.424,0 m -5.408,-1.008 c 0.112,-0.975999 0.72,-2.288 2.16,-2.288 1.568,0 1.952,1.392 1.936,2.288 l -4.096,0"
           id="path5843"
           inkscape:connector-curvature="0" />
        <path
           d="m 212.5871,71.37065 0,-0.96 -8.256,0 0,0.96 8.256,0 m 0,3.136 0,-0.96 -8.256,0 0,0.96 8.256,0"
           id="path5845"
           inkscape:connector-curvature="0" />
        <path
           d="m 218.1166,67.59465 0,1.424 -1.2,0 0,1.072 1.2,0 0,4.208 c 0,0.911999 0.16,1.6 0.544,2.032 0.336,0.367999 0.864,0.592 1.52,0.592 0.544,0 0.976,-0.096 1.248,-0.192 l -0.064,-1.072 c -0.208,0.064 -0.432,0.096 -0.816,0.096 -0.784,0 -1.056,-0.544001 -1.056,-1.504 l 0,-4.16 2.016,0 0,-1.072 -2.016,0 0,-1.856 -1.376,0.432"
           id="path5847"
           inkscape:connector-curvature="0" />
        <path
           d="m 226.1521,76.93865 c 1.84,0 3.84,-1.248003 3.84,-4.128 0,-2.351998 -1.504,-3.968 -3.728,-3.968 -2.128,0 -3.84,1.520002 -3.84,4.112 0,2.447997 1.632,3.984 3.712,3.984 l 0.016,0 m 0.032,-1.056 c -1.36,0 -2.32,-1.280002 -2.32,-2.976 0,-1.471999 0.72,-3.008 2.368,-3.008 1.664,0 2.32,1.648001 2.32,2.96 0,1.759998 -1.008,3.024 -2.352,3.024 l -0.016,0"
           id="path5849"
           inkscape:connector-curvature="0" />
        <path
           d="m 231.76535,79.93065 1.408,0 0,-4.208 0.032,0 c 0.464,0.767999 1.344,1.216 2.384,1.216 1.808,0 3.52,-1.376003 3.52,-4.16 0,-2.351998 -1.408,-3.936 -3.296,-3.936 -1.248,0 -2.176,0.544 -2.736,1.504 l -0.032,0 -0.08,-1.328 -1.264,0 c 0.048,0.735999 0.064,1.536001 0.064,2.528 l 0,8.384 m 1.408,-7.664 c 0,-0.176 0.048,-0.384001 0.08,-0.56 0.272,-1.071999 1.184,-1.744 2.144,-1.744 1.488,0 2.288,1.328001 2.288,2.88 0,1.775998 -0.864,2.992 -2.352,2.992 -0.992,0 -1.856,-0.672001 -2.096,-1.648 -0.048,-0.176 -0.064,-0.384001 -0.064,-0.576 l 0,-1.344"
           id="path5851"
           inkscape:connector-curvature="0" />
        <path
           d="m 242.2671,76.76265 0,-7.744 -1.408,0 0,7.744 1.408,0 m -0.72,-9.056 c 0.544,0 0.88,-0.400001 0.88,-0.864 0,-0.496 -0.352,-0.88 -0.864,-0.88 -0.528,0 -0.88,0.384 -0.88,0.88 0,0.463999 0.336,0.864 0.848,0.864 l 0.016,0"
           id="path5853"
           inkscape:connector-curvature="0" />
        <path
           d="m 249.8891,75.41865 c -0.4,0.175999 -0.928,0.368 -1.728,0.368 -1.536,0 -2.688,-1.104002 -2.688,-2.896 0,-1.599999 0.96,-2.928 2.736,-2.928 0.768,0 1.296,0.192 1.632,0.368 l 0.32,-1.072 c -0.384,-0.208 -1.12,-0.416 -1.952,-0.416 -2.528,0 -4.16,1.744002 -4.16,4.128 0,2.367997 1.52,3.952 3.856,3.952 1.04,0 1.856,-0.272001 2.224,-0.448 l -0.24,-1.056"
           id="path5855"
           inkscape:connector-curvature="0" />
      </g>
      <g
         id="g5398">
        <path
           style="fill:none;stroke:#a9b5af;stroke-width:1.77165353;stroke-linecap:butt;stroke-miterlimit:4;stroke-opacity:1;stroke-dashoffset:0"
           d="m 299.80585,67.091721 96.3639,0 0,18.23101 -96.3639,0 z"
           id="rect5353"
           inkscape:connector-curvature="0" />
        <g
           style="font-size:16px;font-style:normal;font-weight:normal;line-height:125%;letter-spacing:0px;word-spacing:0px;fill:#000000;fill-opacity:1;stroke:none;font-family:Myriad Pro;-inkscape-font-specification:Myriad Pro"
           id="text5355">
          <path
             d="m 317.63906,69.690604 0.256,3.84 0.864,0 0.256,-3.84 -1.376,0 m 2.384,0 0.256,3.84 0.864,0 0.256,-3.84 -1.376,0"
             id="path5859"
             inkscape:connector-curvature="0" />
          <path
             d="m 328.55231,79.418604 c -0.4,0.176 -0.928,0.368 -1.728,0.368 -1.536,0 -2.688,-1.104002 -2.688,-2.896 0,-1.599999 0.96,-2.928 2.736,-2.928 0.768,0 1.296,0.192 1.632,0.368 l 0.32,-1.072 c -0.384,-0.208 -1.12,-0.416 -1.952,-0.416 -2.528,0 -4.16,1.744002 -4.16,4.128 0,2.367997 1.52,3.952 3.856,3.952 1.04,0 1.856,-0.272 2.224,-0.448 l -0.24,-1.056"
             id="path5861"
             inkscape:connector-curvature="0" />
          <path
             d="m 333.50281,80.938604 c 1.84,0 3.84,-1.248003 3.84,-4.128 0,-2.351998 -1.504,-3.968 -3.728,-3.968 -2.128,0 -3.84,1.520002 -3.84,4.112 0,2.447997 1.632,3.984 3.712,3.984 l 0.016,0 m 0.032,-1.056 c -1.36,0 -2.32,-1.280002 -2.32,-2.976 0,-1.471999 0.72,-3.008 2.368,-3.008 1.664,0 2.32,1.648001 2.32,2.96 0,1.759998 -1.008,3.024 -2.352,3.024 l -0.016,0"
             id="path5863"
             inkscape:connector-curvature="0" />
          <path
             d="m 339.11606,80.762604 1.408,0 0,-4.672 c 0,-0.224 0.032,-0.48 0.096,-0.656 0.256,-0.783999 0.976,-1.44 1.888,-1.44 1.328,0 1.792,1.056001 1.792,2.304 l 0,4.464 1.408,0 0,-4.624 c 0,-2.655998 -1.664,-3.296 -2.736,-3.296 -1.28,0 -2.176,0.72 -2.56,1.44 l -0.032,0 -0.08,-1.264 -1.248,0 c 0.048,0.639999 0.064,1.280001 0.064,2.096 l 0,5.648"
             id="path5865"
             inkscape:connector-curvature="0" />
          <path
             d="m 347.46306,80.378604 c 0.544,0.319999 1.328,0.544 2.176,0.544 1.808,0 2.88,-0.960002 2.88,-2.336 0,-1.151999 -0.704,-1.824001 -2.032,-2.32 -1.008,-0.4 -1.456,-0.688001 -1.456,-1.328 0,-0.576 0.448,-1.056 1.28,-1.056 0.72,0 1.28,0.272 1.584,0.448 l 0.336,-1.008 c -0.416,-0.272 -1.104,-0.48 -1.888,-0.48 -1.648,0 -2.672,1.024001 -2.672,2.272 0,0.911999 0.656,1.68 2.064,2.192 1.024,0.383999 1.424,0.736 1.424,1.408 0,0.655999 -0.48,1.152 -1.488,1.152 -0.704,0 -1.44,-0.288 -1.872,-0.544 l -0.336,1.056"
             id="path5867"
             inkscape:connector-curvature="0" />
          <path
             d="m 357.50281,80.938604 c 1.84,0 3.84,-1.248003 3.84,-4.128 0,-2.351998 -1.504,-3.968 -3.728,-3.968 -2.128,0 -3.84,1.520002 -3.84,4.112 0,2.447997 1.632,3.984 3.712,3.984 l 0.016,0 m 0.032,-1.056 c -1.36,0 -2.32,-1.280002 -2.32,-2.976 0,-1.471999 0.72,-3.008 2.368,-3.008 1.664,0 2.32,1.648001 2.32,2.96 0,1.759998 -1.008,3.024 -2.352,3.024 l -0.016,0"
             id="path5869"
             inkscape:connector-curvature="0" />
          <path
             d="m 363.11606,80.762604 1.408,0 0,-11.36 -1.408,0 0,11.36"
             id="path5871"
             inkscape:connector-curvature="0" />
          <path
             d="m 373.12131,77.146604 c 0.032,-0.16 0.048,-0.368001 0.048,-0.656 0,-1.423999 -0.656,-3.648 -3.184,-3.648 -2.256,0 -3.648,1.840002 -3.648,4.176 0,2.319997 1.44,3.904 3.808,3.904 1.232,0 2.096,-0.272 2.592,-0.496 l -0.256,-1.008 c -0.512,0.224 -1.136,0.4 -2.144,0.4 -1.408,0 -2.608,-0.784002 -2.64,-2.672 l 5.424,0 m -5.408,-1.008 c 0.112,-0.975999 0.72,-2.288 2.16,-2.288 1.568,0 1.952,1.392001 1.936,2.288 l -4.096,0"
             id="path5873"
             inkscape:connector-curvature="0" />
          <path
             d="m 374.57656,69.690604 0.256,3.84 0.864,0 0.256,-3.84 -1.376,0 m 2.384,0 0.256,3.84 0.864,0 0.256,-3.84 -1.376,0"
             id="path5875"
             inkscape:connector-curvature="0" />
        </g>
      </g>
      <path
         sodipodi:nodetypes="cc"
         inkscape:connector-curvature="0"
         id="path5408"
         d="m 239.60756,96.102329 58.16559,21.703581"
         style="fill:none;stroke:#000000;stroke-width:1.77165353;stroke-linecap:butt;stroke-linejoin:miter;stroke-miterlimit:4;stroke-opacity:1;stroke-dasharray:none;marker-end:url(#Arrow1Mend)" />
      <path
         style="fill:none;stroke:#000000;stroke-width:1.77165353;stroke-linecap:butt;stroke-linejoin:miter;stroke-miterlimit:4;stroke-opacity:1;stroke-dasharray:none;marker-end:url(#Arrow1Mend)"
         d="M 240.04163,95.234186 298.6413,75.700964"
         id="path5410"
         inkscape:connector-curvature="0"
         sodipodi:nodetypes="cc" />
      <path
         style="fill:none;stroke:#000000;stroke-width:1.77165353;stroke-linecap:butt;stroke-linejoin:miter;stroke-miterlimit:4;stroke-opacity:1;stroke-dasharray:none;marker-end:url(#Arrow1Mend)"
         d="m 396.7415,119.10813 84.64396,-0.86815"
         id="path5412"
         inkscape:connector-curvature="0"
         sodipodi:nodetypes="cc" />
      <path
         sodipodi:nodetypes="cc"
         inkscape:connector-curvature="0"
         id="path5414"
         d="m 396.7415,76.569104 83.77582,-10e-7"
         style="fill:none;stroke:#000000;stroke-width:1.77165353;stroke-linecap:butt;stroke-linejoin:miter;stroke-miterlimit:4;stroke-opacity:1;stroke-dasharray:none;marker-end:url(#Arrow1Mend)" />
      <g
         transform="translate(18,-8)"
         style="font-size:12px;font-style:normal;font-weight:normal;line-height:125%;letter-spacing:0px;word-spacing:0px;fill:#000000;fill-opacity:1;stroke:none;font-family:Myriad Pro;-inkscape-font-specification:Myriad Pro"
         id="text5647">
        <path
           d="m 240.39833,93.534144 c 0.16317,0.48952 0.33773,1.051141 0.42881,1.438204 l 0.86519,-0.2884 -0.24665,-0.92971 0.0228,-0.0076 c 0.66407,0.588183 1.39266,0.686846 2.18956,0.421215 1.22949,-0.40983 2.1554,-1.806295 1.49512,-3.787143 -0.55403,-1.662092 -1.88978,-2.481755 -3.25588,-2.026388 -0.88797,0.295989 -1.39646,0.895558 -1.54446,1.627941 l -0.0228,0.0076 -1.14981,-3.449413 -1.00181,0.333937 2.21992,6.659757 m 0.40983,-2.109872 c -0.0531,-0.159378 -0.0759,-0.303579 -0.0835,-0.440189 -0.0569,-0.815867 0.42121,-1.506509 1.10427,-1.734193 1.07011,-0.356704 1.95428,0.398448 2.32617,1.514099 0.42121,1.263645 0.0911,2.322377 -0.96766,2.675287 -0.7172,0.239067 -1.46856,-0.04174 -1.89357,-0.671668 -0.0607,-0.106253 -0.11384,-0.227684 -0.15559,-0.35291 l -0.33014,-0.990426"
           id="path5878"
           inkscape:connector-curvature="0" />
        <path
           d="m 245.65054,84.383682 -1.00181,0.333936 2.69426,8.082782 1.00181,-0.333937 -0.69064,-2.071924 0.32255,-0.739973 2.77016,2.011209 1.21811,-0.406037 -3.50633,-2.436218 1.37369,-2.975071 -1.19534,0.398447 -0.99422,2.443808 c -0.0949,0.246657 -0.19733,0.546442 -0.26943,0.78551 l -0.0228,0.0076 -1.70004,-5.100121"
           id="path5880"
           inkscape:connector-curvature="0" />
        <path
           d="m 256.89909,85.352283 -0.22769,-0.683052 -5.87424,1.958082 0.22768,0.683052 5.87425,-1.958082 m 0.74376,2.231303 -0.22768,-0.683052 -5.87425,1.958082 0.22769,0.683052 5.87424,-1.958082"
           id="path5882"
           inkscape:connector-curvature="0" />
        <path
           d="m 256.58452,80.966704 1.09288,2.671492 0.61475,-0.204916 -0.72859,-2.792923 -0.97904,0.326347 m 1.69625,-0.565416 1.09288,2.671493 0.61475,-0.204916 -0.72859,-2.792924 -0.97904,0.326347"
           id="path5884"
           inkscape:connector-curvature="0" />
        <path
           d="m 263.64907,84.139517 -0.33393,-1.722809 1.18395,-0.394652 0.33394,1.722809 -1.18396,0.394652 m 0.5806,3.031992 -0.45916,-2.326172 1.18395,-0.394652 0.44778,2.329966 0.68305,-0.227684 -0.44778,-2.329966 1.0815,-0.3605 -0.22389,-0.671667 -0.97904,0.326347 -0.34532,-1.719015 1.03596,-0.34532 -0.22388,-0.671668 -0.93351,0.311168 -0.44019,-2.26925 -0.67167,0.223889 0.44019,2.26925 -1.19534,0.398447 -0.4288,-2.273045 -0.67167,0.223889 0.4288,2.273046 -1.08149,0.360499 0.22388,0.671668 0.99043,-0.330142 0.33394,1.722809 -1.04735,0.349115 0.22389,0.671668 0.94489,-0.314963 0.44778,2.329967 0.68305,-0.227684"
           id="path5886"
           inkscape:connector-curvature="0" />
        <path
           d="m 266.07878,77.801954 1.09289,2.671493 0.61474,-0.204916 -0.72858,-2.792924 -0.97905,0.326347 m 1.69625,-0.565415 1.09288,2.671492 0.61475,-0.204915 -0.72859,-2.792924 -0.97904,0.326347"
           id="path5888"
           inkscape:connector-curvature="0" />
      </g>
      <g
         transform="translate(0,12)"
         style="font-size:12px;font-style:normal;font-weight:normal;line-height:125%;letter-spacing:0px;word-spacing:0px;fill:#000000;fill-opacity:1;stroke:none;font-family:Myriad Pro;-inkscape-font-specification:Myriad Pro"
         id="text5651">
        <path
           d="m 240.95267,95.003213 c -0.18039,0.483441 -0.39719,1.030146 -0.56936,1.388573 l 0.85446,0.318827 0.39182,-0.878451 0.0225,0.0084 c 0.1475,0.874759 0.65258,1.409046 1.43958,1.702702 1.21423,0.453069 2.81172,-0.05236 3.54166,-2.008607 0.61248,-1.641452 0.0876,-3.118125 -1.26154,-3.621534 -0.87694,-0.327217 -1.64918,-0.179885 -2.22424,0.297179 l -0.0225,-0.0084 1.27111,-3.406578 -0.98937,-0.369167 -2.45413,6.577056 m 1.6438,-1.384714 c 0.0587,-0.1574 0.13156,-0.283924 0.21144,-0.395009 0.468,-0.67071 1.27379,-0.907985 1.94836,-0.65628 1.05683,0.394338 1.27078,1.537249 0.85966,2.639045 -0.46565,1.247953 -1.3874,1.864632 -2.43298,1.474489 -0.7083,-0.26429 -1.11673,-0.954635 -1.05196,-1.711763 0.0195,-0.120818 0.0544,-0.248685 0.10051,-0.372356 l 0.36497,-0.978126"
           id="path5891"
           inkscape:connector-curvature="0" />
        <path
           d="m 250.78614,91.179648 -0.98937,-0.369168 -2.97852,7.98241 0.98937,0.369168 0.76351,-2.046196 0.71568,-0.373362 0.89305,3.30472 1.20298,0.44888 -1.19912,-4.097765 2.93723,-1.452842 -1.18049,-0.440484 -2.30831,1.277655 c -0.22871,0.132397 -0.4967,0.301375 -0.70293,0.442162 l -0.0225,-0.0084 1.8794,-5.036788"
           id="path5893"
           inkscape:connector-curvature="0" />
        <path
           d="m 258.93237,98.996729 0.2517,-0.67457 -5.8013,-2.164665 -0.2517,0.67457 5.8013,2.164665 m -0.82224,2.203591 0.25171,-0.67457 -5.80131,-2.164661 -0.2517,0.67457 5.8013,2.164661"
           id="path5895"
           inkscape:connector-curvature="0" />
        <path
           d="m 261.44138,95.386028 -0.82693,2.765401 0.60711,0.226535 1.1867,-2.631158 -0.96688,-0.360778 m 1.67518,0.625068 -0.82693,2.765401 0.60711,0.226535 1.18671,-2.631158 -0.96689,-0.360778"
           id="path5897"
           inkscape:connector-curvature="0" />
        <path
           d="m 267.81827,103.73407 c 0.0644,-0.10404 0.13022,-0.246 0.20573,-0.44837 0.37336,-1.00061 0.49552,-2.73536 -1.28084,-3.398186 -1.58524,-0.591506 -3.04581,0.336446 -3.65829,1.977896 -0.60828,1.63021 -0.0117,3.12081 1.6522,3.74168 0.86569,0.32303 1.54412,0.35843 1.95138,0.33108 l 0.0844,-0.77542 c -0.4185,0.0232 -0.90312,-0.0168 -1.61142,-0.28107 -0.98937,-0.36917 -1.62702,-1.2347 -1.15449,-2.56974 l 3.81132,1.42213 m -3.53578,-2.12623 c 0.3346,-0.65645 1.10582,-1.41895 2.11768,-1.04139 1.10179,0.41112 1.00665,1.48992 0.76048,2.11533 l -2.87816,-1.07394"
           id="path5899"
           inkscape:connector-curvature="0" />
        <path
           d="m 268.14009,106.74881 0.98937,0.36916 1.08653,-2.91189 c 0.0587,-0.1574 0.12871,-0.3106 0.20573,-0.44837 0.40759,-0.68044 1.09945,-1.02427 1.7965,-0.76418 0.13491,0.0503 0.2319,0.0993 0.3289,0.14834 l 0.34819,-0.93315 c -0.0858,-0.0448 -0.16025,-0.0854 -0.26144,-0.12317 -0.66333,-0.24751 -1.44244,-0.0131 -1.96246,0.6254 l -0.0337,-0.0126 0.35356,-1.08485 -0.8657,-0.32302 c -0.15505,0.51851 -0.34936,1.0736 -0.58848,1.71444 l -1.39697,3.74387"
           id="path5901"
           inkscape:connector-curvature="0" />
        <path
           d="m 271.85112,108.13351 0.98937,0.36917 1.08653,-2.91189 c 0.0587,-0.1574 0.1287,-0.31061 0.20573,-0.44837 0.40759,-0.68045 1.09944,-1.02428 1.7965,-0.76418 0.13491,0.0503 0.2319,0.0993 0.32889,0.14834 l 0.3482,-0.93316 c -0.0857,-0.0448 -0.16026,-0.0854 -0.26144,-0.12317 -0.66333,-0.24751 -1.44244,-0.0131 -1.96246,0.62541 l -0.0337,-0.0126 0.35356,-1.08485 -0.8657,-0.32302 c -0.15505,0.51851 -0.34936,1.07361 -0.58848,1.71445 l -1.39697,3.74386"
           id="path5903"
           inkscape:connector-curvature="0" />
        <path
           d="m 277.58837,110.41516 c 1.29292,0.48243 3.0255,0.12987 3.78061,-1.89383 0.61668,-1.6527 -0.0165,-3.18256 -1.5792,-3.76568 -1.49529,-0.55795 -3.09681,0.0613 -3.77641,1.88259 -0.64185,1.72015 0.10219,3.22736 1.56376,3.77272 l 0.0112,0.004 m 0.29936,-0.73364 c -0.95564,-0.35658 -1.2946,-1.50771 -0.84992,-2.69945 0.38594,-1.03434 1.2946,-1.92488 2.45261,-1.49278 1.16925,0.43629 1.19812,1.7663 0.85412,2.68821 -0.46146,1.23671 -1.50117,1.8606 -2.44557,1.50822 l -0.0112,-0.004"
           id="path5905"
           inkscape:connector-curvature="0" />
        <path
           d="m 281.57881,111.76324 0.98937,0.36917 1.08653,-2.91189 c 0.0587,-0.1574 0.12871,-0.31061 0.20573,-0.44837 0.40759,-0.68045 1.09945,-1.02428 1.7965,-0.76418 0.13492,0.0503 0.23191,0.0993 0.3289,0.14834 l 0.34819,-0.93316 c -0.0857,-0.0448 -0.16025,-0.0854 -0.26144,-0.12317 -0.66333,-0.24751 -1.44244,-0.0131 -1.96246,0.62541 l -0.0337,-0.0126 0.35356,-1.08485 -0.8657,-0.32302 c -0.15505,0.51851 -0.34936,1.07361 -0.58848,1.71445 l -1.39697,3.74386"
           id="path5907"
           inkscape:connector-curvature="0" />
        <path
           d="m 285.03408,113.19342 c 0.40475,0.15102 0.78784,-0.0519 0.93886,-0.45659 0.15522,-0.41599 -0.006,-0.80898 -0.39903,-0.95581 -0.3935,-0.14683 -0.78784,0.0519 -0.93886,0.45659 -0.15103,0.40474 0.006,0.80898 0.38779,0.95162 l 0.0112,0.004"
           id="path5909"
           inkscape:connector-curvature="0" />
        <path
           d="m 289.34331,111.39436 0.8219,-1.5505 1.16926,0.43629 -0.8219,1.5505 -1.16926,-0.43629 m -1.452,2.72429 1.10331,-2.09871 1.16925,0.43629 -1.11455,2.09452 0.67457,0.2517 1.11455,-2.09452 1.06807,0.39853 0.24751,-0.66332 -0.96688,-0.36078 0.81065,-1.5547 1.0231,0.38175 0.24751,-0.66332 -0.92191,-0.344 1.08233,-2.0425 -0.66332,-0.24751 -1.08234,2.0425 -1.18049,-0.44049 1.09357,-2.0383 -0.66333,-0.24751 -1.09357,2.0383 -1.06807,-0.39853 -0.24751,0.66333 0.97813,0.36497 -0.82191,1.5505 -1.03434,-0.38594 -0.24751,0.66332 0.93316,0.3482 -1.11455,2.09452 0.67457,0.2517"
           id="path5911"
           inkscape:connector-curvature="0" />
        <path
           d="m 295.21378,107.98767 -0.82693,2.76541 0.60711,0.22653 1.1867,-2.63116 -0.96688,-0.36078 m 1.67518,0.62507 -0.82693,2.7654 0.60711,0.22654 1.18671,-2.63116 -0.96689,-0.36078"
           id="path5913"
           inkscape:connector-curvature="0" />
      </g>
    </g>
  </g>
</svg>
