<svg version="1.1" viewBox="0.0 0.0 600.0 371.0" fill="none" stroke="none" stroke-linecap="square" stroke-miterlimit="10" width="600" height="371" xmlns:xlink="http://www.w3.org/1999/xlink" xmlns="http://www.w3.org/2000/svg"><path fill="#ffffff" d="M0 0L600.0 0L600.0 371.0L0 371.0L0 0Z" fill-rule="nonzero"/><path stroke="#333333" stroke-width="1.0" stroke-linecap="butt" d="M90.5 308.5L581.5 308.5" fill-rule="nonzero"/><path stroke="#cccccc" stroke-width="1.0" stroke-linecap="butt" d="M90.5 215.5L581.5 215.5" fill-rule="nonzero"/><path stroke="#cccccc" stroke-width="1.0" stroke-linecap="butt" d="M90.5 121.5L581.5 121.5" fill-rule="nonzero"/><path stroke="#cccccc" stroke-width="1.0" stroke-linecap="butt" d="M90.5 27.5L581.5 27.5" fill-rule="nonzero"/><path stroke="#e6e6e6" stroke-width="1.0" stroke-linecap="butt" d="M90.5 290.5L581.5 290.5" fill-rule="nonzero"/><path stroke="#e6e6e6" stroke-width="1.0" stroke-linecap="butt" d="M90.5 271.5L581.5 271.5" fill-rule="nonzero"/><path stroke="#e6e6e6" stroke-width="1.0" stroke-linecap="butt" d="M90.5 252.5L581.5 252.5" fill-rule="nonzero"/><path stroke="#e6e6e6" stroke-width="1.0" stroke-linecap="butt" d="M90.5 233.5L581.5 233.5" fill-rule="nonzero"/><path stroke="#e6e6e6" stroke-width="1.0" stroke-linecap="butt" d="M90.5 196.5L581.5 196.5" fill-rule="nonzero"/><path stroke="#e6e6e6" stroke-width="1.0" stroke-linecap="butt" d="M90.5 177.5L581.5 177.5" fill-rule="nonzero"/><path stroke="#e6e6e6" stroke-width="1.0" stroke-linecap="butt" d="M90.5 158.5L581.5 158.5" fill-rule="nonzero"/><path stroke="#e6e6e6" stroke-width="1.0" stroke-linecap="butt" d="M90.5 140.5L581.5 140.5" fill-rule="nonzero"/><path stroke="#e6e6e6" stroke-width="1.0" stroke-linecap="butt" d="M90.5 102.5L581.5 102.5" fill-rule="nonzero"/><path stroke="#e6e6e6" stroke-width="1.0" stroke-linecap="butt" d="M90.5 83.5L581.5 83.5" fill-rule="nonzero"/><path stroke="#e6e6e6" stroke-width="1.0" stroke-linecap="butt" d="M90.5 65.5L581.5 65.5" fill-rule="nonzero"/><path stroke="#e6e6e6" stroke-width="1.0" stroke-linecap="butt" d="M90.5 46.5L581.5 46.5" fill-rule="nonzero"/><clipPath id="id_0"><path d="M90.55 27.55L581.45 27.55L581.45 308.95L90.55 308.95L90.55 27.55Z" clip-rule="nonzero"/></clipPath><path stroke="#000000" stroke-width="2.0" stroke-linecap="butt" stroke-opacity="0.0" clip-path="url(#id_0)" d="M237.0 309.0L142.0 309.0L142.0 211.0C142.0 209.89543 142.89543 209.0 144.0 209.0L235.0 209.0C236.10457 209.0 237.0 209.89543 237.0 211.0Z" fill-rule="nonzero"/><path fill="#4285f4" clip-path="url(#id_0)" d="M237.0 309.0L142.0 309.0L142.0 211.0C142.0 209.89543 142.89543 209.0 144.0 209.0L235.0 209.0C236.10457 209.0 237.0 209.89543 237.0 211.0Z" fill-rule="nonzero"/><path stroke="#000000" stroke-width="2.0" stroke-linecap="butt" stroke-opacity="0.0" clip-path="url(#id_0)" d="M384.0 309.0L289.0 309.0L289.0 85.0C289.0 83.89543 289.89542 83.0 291.0 83.0L382.0 83.0C383.10458 83.0 384.0 83.89543 384.0 85.0Z" fill-rule="nonzero"/><path fill="#4285f4" clip-path="url(#id_0)" d="M384.0 309.0L289.0 309.0L289.0 85.0C289.0 83.89543 289.89542 83.0 291.0 83.0L382.0 83.0C383.10458 83.0 384.0 83.89543 384.0 85.0Z" fill-rule="nonzero"/><path stroke="#000000" stroke-width="2.0" stroke-linecap="butt" stroke-opacity="0.0" clip-path="url(#id_0)" d="M531.0 309.0L436.0 309.0L436.0 210.0C436.0 208.89543 436.89542 208.0 438.0 208.0L529.0 208.0C530.10455 208.0 531.0 208.89543 531.0 210.0Z" fill-rule="nonzero"/><path fill="#4285f4" clip-path="url(#id_0)" d="M531.0 309.0L436.0 309.0L436.0 210.0C436.0 208.89543 436.89542 208.0 438.0 208.0L529.0 208.0C530.10455 208.0 531.0 208.89543 531.0 210.0Z" fill-rule="nonzero"/><path stroke="#4285f4" stroke-width="3.0" stroke-linejoin="round" stroke-linecap="round" d="M177.5 222.5092L178.60938 222.41545Q178.73438 223.22795 179.17188 223.6342Q179.625 224.04045 180.26562 224.04045Q181.01562 224.04045 181.54688 223.46233Q182.07812 222.8842 182.07812 221.9467Q182.07812 221.04045 181.5625 220.52483Q181.0625 219.99358 180.23438 219.99358Q179.73438 219.99358 179.3125 220.22795Q178.90625 220.46233 178.67188 220.8217L177.6875 220.6967L178.51562 216.29045L182.79688 216.29045L182.79688 217.29045L179.35938 217.29045L178.90625 219.60295Q179.67188 219.05608 180.51562 219.05608Q181.64062 219.05608 182.40625 219.83733Q183.1875 220.61858 183.1875 221.85295Q183.1875 223.0092 182.51562 223.86858Q181.6875 224.89983 180.26562 224.89983Q179.09375 224.89983 178.34375 224.24358Q177.60938 223.58733 177.5 222.5092ZM185.09375 224.7592L185.09375 223.55608L186.29688 223.55608L186.29688 224.7592L185.09375 224.7592ZM187.5 222.49358L188.5625 222.35295Q188.73438 223.24358 189.17188 223.64983Q189.60938 224.04045 190.23438 224.04045Q190.98438 224.04045 191.5 223.52483Q192.01562 223.0092 192.01562 222.24358Q192.01562 221.52483 191.53125 221.05608Q191.0625 220.5717 190.32812 220.5717Q190.03125 220.5717 189.57812 220.6967L189.70312 219.7592Q189.8125 219.77483 189.875 219.77483Q190.54688 219.77483 191.07812 219.43108Q191.625 219.0717 191.625 218.33733Q191.625 217.7592 191.23438 217.3842Q190.84375 216.99358 190.21875 216.99358Q189.60938 216.99358 189.1875 217.3842Q188.78125 217.77483 188.67188 218.54045L187.60938 218.35295Q187.79688 217.30608 188.48438 216.72795Q189.17188 216.1342 190.1875 216.1342Q190.89062 216.1342 191.48438 216.4467Q192.07812 216.74358 192.39062 217.2592Q192.70312 217.77483 192.70312 218.36858Q192.70312 218.91545 192.40625 219.3842Q192.10938 219.83733 191.53125 220.10295Q192.28125 220.27483 192.70312 220.83733Q193.125 221.3842 193.125 222.22795Q193.125 223.35295 192.29688 224.1342Q191.48438 224.91545 190.23438 224.91545Q189.10938 224.91545 188.35938 224.24358Q187.60938 223.55608 187.5 222.49358ZM194.5 222.49358L195.5625 222.35295Q195.73438 223.24358 196.17188 223.64983Q196.60938 224.04045 197.23438 224.04045Q197.98438 224.04045 198.5 223.52483Q199.01562 223.0092 199.01562 222.24358Q199.01562 221.52483 198.53125 221.05608Q198.0625 220.5717 197.32812 220.5717Q197.03125 220.5717 196.57812 220.6967L196.70312 219.7592Q196.8125 219.77483 196.875 219.77483Q197.54688 219.77483 198.07812 219.43108Q198.625 219.0717 198.625 218.33733Q198.625 217.7592 198.23438 217.3842Q197.84375 216.99358 197.21875 216.99358Q196.60938 216.99358 196.1875 217.3842Q195.78125 217.77483 195.67188 218.54045L194.60938 218.35295Q194.79688 217.30608 195.48438 216.72795Q196.17188 216.1342 197.1875 216.1342Q197.89062 216.1342 198.48438 216.4467Q199.07812 216.74358 199.39062 217.2592Q199.70312 217.77483 199.70312 218.36858Q199.70312 218.91545 199.40625 219.3842Q199.10938 219.83733 198.53125 220.10295Q199.28125 220.27483 199.70312 220.83733Q200.125 221.3842 200.125 222.22795Q200.125 223.35295 199.29688 224.1342Q198.48438 224.91545 197.23438 224.91545Q196.10938 224.91545 195.35938 224.24358Q194.60938 223.55608 194.5 222.49358Z" fill-rule="nonzero"/><path fill="#ffffff" d="M177.5 222.5092L178.60938 222.41545Q178.73438 223.22795 179.17188 223.6342Q179.625 224.04045 180.26562 224.04045Q181.01562 224.04045 181.54688 223.46233Q182.07812 222.8842 182.07812 221.9467Q182.07812 221.04045 181.5625 220.52483Q181.0625 219.99358 180.23438 219.99358Q179.73438 219.99358 179.3125 220.22795Q178.90625 220.46233 178.67188 220.8217L177.6875 220.6967L178.51562 216.29045L182.79688 216.29045L182.79688 217.29045L179.35938 217.29045L178.90625 219.60295Q179.67188 219.05608 180.51562 219.05608Q181.64062 219.05608 182.40625 219.83733Q183.1875 220.61858 183.1875 221.85295Q183.1875 223.0092 182.51562 223.86858Q181.6875 224.89983 180.26562 224.89983Q179.09375 224.89983 178.34375 224.24358Q177.60938 223.58733 177.5 222.5092ZM185.09375 224.7592L185.09375 223.55608L186.29688 223.55608L186.29688 224.7592L185.09375 224.7592ZM187.5 222.49358L188.5625 222.35295Q188.73438 223.24358 189.17188 223.64983Q189.60938 224.04045 190.23438 224.04045Q190.98438 224.04045 191.5 223.52483Q192.01562 223.0092 192.01562 222.24358Q192.01562 221.52483 191.53125 221.05608Q191.0625 220.5717 190.32812 220.5717Q190.03125 220.5717 189.57812 220.6967L189.70312 219.7592Q189.8125 219.77483 189.875 219.77483Q190.54688 219.77483 191.07812 219.43108Q191.625 219.0717 191.625 218.33733Q191.625 217.7592 191.23438 217.3842Q190.84375 216.99358 190.21875 216.99358Q189.60938 216.99358 189.1875 217.3842Q188.78125 217.77483 188.67188 218.54045L187.60938 218.35295Q187.79688 217.30608 188.48438 216.72795Q189.17188 216.1342 190.1875 216.1342Q190.89062 216.1342 191.48438 216.4467Q192.07812 216.74358 192.39062 217.2592Q192.70312 217.77483 192.70312 218.36858Q192.70312 218.91545 192.40625 219.3842Q192.10938 219.83733 191.53125 220.10295Q192.28125 220.27483 192.70312 220.83733Q193.125 221.3842 193.125 222.22795Q193.125 223.35295 192.29688 224.1342Q191.48438 224.91545 190.23438 224.91545Q189.10938 224.91545 188.35938 224.24358Q187.60938 223.55608 187.5 222.49358ZM194.5 222.49358L195.5625 222.35295Q195.73438 223.24358 196.17188 223.64983Q196.60938 224.04045 197.23438 224.04045Q197.98438 224.04045 198.5 223.52483Q199.01562 223.0092 199.01562 222.24358Q199.01562 221.52483 198.53125 221.05608Q198.0625 220.5717 197.32812 220.5717Q197.03125 220.5717 196.57812 220.6967L196.70312 219.7592Q196.8125 219.77483 196.875 219.77483Q197.54688 219.77483 198.07812 219.43108Q198.625 219.0717 198.625 218.33733Q198.625 217.7592 198.23438 217.3842Q197.84375 216.99358 197.21875 216.99358Q196.60938 216.99358 196.1875 217.3842Q195.78125 217.77483 195.67188 218.54045L194.60938 218.35295Q194.79688 217.30608 195.48438 216.72795Q196.17188 216.1342 197.1875 216.1342Q197.89062 216.1342 198.48438 216.4467Q199.07812 216.74358 199.39062 217.2592Q199.70312 217.77483 199.70312 218.36858Q199.70312 218.91545 199.40625 219.3842Q199.10938 219.83733 198.53125 220.10295Q199.28125 220.27483 199.70312 220.83733Q200.125 221.3842 200.125 222.22795Q200.125 223.35295 199.29688 224.1342Q198.48438 224.91545 197.23438 224.91545Q196.10938 224.91545 195.35938 224.24358Q194.60938 223.55608 194.5 222.49358Z" fill-rule="nonzero"/><path stroke="#4285f4" stroke-width="3.0" stroke-linejoin="round" stroke-linecap="round" d="M324.96875 98.3168L323.92188 98.3168L323.92188 91.59805Q323.53125 91.95743 322.90625 92.33243Q322.29688 92.6918 321.8125 92.86368L321.8125 91.84805Q322.6875 91.42618 323.34375 90.84805Q324.01562 90.2543 324.29688 89.6918L324.96875 89.6918L324.96875 98.3168ZM333.54688 97.30118L333.54688 98.3168L327.85938 98.3168Q327.85938 97.9418 327.98438 97.58243Q328.20312 97.0043 328.67188 96.4418Q329.15625 95.8793 330.0625 95.14493Q331.46875 93.98868 331.95312 93.3168Q332.45312 92.64493 332.45312 92.05118Q332.45312 91.42618 332.0 91.0043Q331.54688 90.5668 330.82812 90.5668Q330.0625 90.5668 329.60938 91.01993Q329.15625 91.47305 329.14062 92.28555L328.0625 92.17618Q328.17188 90.95743 328.89062 90.33243Q329.625 89.6918 330.85938 89.6918Q332.09375 89.6918 332.8125 90.3793Q333.53125 91.0668 333.53125 92.08243Q333.53125 92.59805 333.3125 93.09805Q333.10938 93.58243 332.60938 94.14493Q332.125 94.6918 331.0 95.64493Q330.04688 96.4418 329.76562 96.73868Q329.5 97.01993 329.32812 97.30118L333.54688 97.30118ZM335.59375 98.3168L335.59375 97.11368L336.79688 97.11368L336.79688 98.3168L335.59375 98.3168ZM338.0 94.08243Q338.0 92.55118 338.3125 91.6293Q338.625 90.6918 339.23438 90.1918Q339.85938 89.6918 340.79688 89.6918Q341.48438 89.6918 342.0 89.97305Q342.53125 90.2543 342.875 90.78555Q343.21875 91.30118 343.40625 92.05118Q343.59375 92.80118 343.59375 94.08243Q343.59375 95.59805 343.28125 96.51993Q342.98438 97.4418 342.35938 97.95743Q341.75 98.45743 340.79688 98.45743Q339.5625 98.45743 338.84375 97.5668Q338.0 96.5043 338.0 94.08243ZM339.07812 94.08243Q339.07812 96.1918 339.57812 96.89493Q340.07812 97.59805 340.79688 97.59805Q341.53125 97.59805 342.01562 96.89493Q342.51562 96.1918 342.51562 94.08243Q342.51562 91.95743 342.01562 91.26993Q341.53125 90.5668 340.78125 90.5668Q340.0625 90.5668 339.625 91.17618Q339.07812 91.95743 339.07812 94.08243ZM345.0625 90.84805L345.0625 89.83243L350.625 89.83243L350.625 90.66055Q349.8125 91.53555 349.0 92.98868Q348.20312 94.42618 347.76562 95.95743Q347.4375 97.03555 347.35938 98.3168L346.26562 98.3168Q346.28125 97.30118 346.65625 95.86368Q347.04688 94.42618 347.75 93.09805Q348.46875 91.76993 349.28125 90.84805L345.0625 90.84805Z" fill-rule="nonzero"/><path fill="#ffffff" d="M324.96875 98.3168L323.92188 98.3168L323.92188 91.59805Q323.53125 91.95743 322.90625 92.33243Q322.29688 92.6918 321.8125 92.86368L321.8125 91.84805Q322.6875 91.42618 323.34375 90.84805Q324.01562 90.2543 324.29688 89.6918L324.96875 89.6918L324.96875 98.3168ZM333.54688 97.30118L333.54688 98.3168L327.85938 98.3168Q327.85938 97.9418 327.98438 97.58243Q328.20312 97.0043 328.67188 96.4418Q329.15625 95.8793 330.0625 95.14493Q331.46875 93.98868 331.95312 93.3168Q332.45312 92.64493 332.45312 92.05118Q332.45312 91.42618 332.0 91.0043Q331.54688 90.5668 330.82812 90.5668Q330.0625 90.5668 329.60938 91.01993Q329.15625 91.47305 329.14062 92.28555L328.0625 92.17618Q328.17188 90.95743 328.89062 90.33243Q329.625 89.6918 330.85938 89.6918Q332.09375 89.6918 332.8125 90.3793Q333.53125 91.0668 333.53125 92.08243Q333.53125 92.59805 333.3125 93.09805Q333.10938 93.58243 332.60938 94.14493Q332.125 94.6918 331.0 95.64493Q330.04688 96.4418 329.76562 96.73868Q329.5 97.01993 329.32812 97.30118L333.54688 97.30118ZM335.59375 98.3168L335.59375 97.11368L336.79688 97.11368L336.79688 98.3168L335.59375 98.3168ZM338.0 94.08243Q338.0 92.55118 338.3125 91.6293Q338.625 90.6918 339.23438 90.1918Q339.85938 89.6918 340.79688 89.6918Q341.48438 89.6918 342.0 89.97305Q342.53125 90.2543 342.875 90.78555Q343.21875 91.30118 343.40625 92.05118Q343.59375 92.80118 343.59375 94.08243Q343.59375 95.59805 343.28125 96.51993Q342.98438 97.4418 342.35938 97.95743Q341.75 98.45743 340.79688 98.45743Q339.5625 98.45743 338.84375 97.5668Q338.0 96.5043 338.0 94.08243ZM339.07812 94.08243Q339.07812 96.1918 339.57812 96.89493Q340.07812 97.59805 340.79688 97.59805Q341.53125 97.59805 342.01562 96.89493Q342.51562 96.1918 342.51562 94.08243Q342.51562 91.95743 342.01562 91.26993Q341.53125 90.5668 340.78125 90.5668Q340.0625 90.5668 339.625 91.17618Q339.07812 91.95743 339.07812 94.08243ZM345.0625 90.84805L345.0625 89.83243L350.625 89.83243L350.625 90.66055Q349.8125 91.53555 349.0 92.98868Q348.20312 94.42618 347.76562 95.95743Q347.4375 97.03555 347.35938 98.3168L346.26562 98.3168Q346.28125 97.30118 346.65625 95.86368Q347.04688 94.42618 347.75 93.09805Q348.46875 91.76993 349.28125 90.84805L345.0625 90.84805Z" fill-rule="nonzero"/><path stroke="#4285f4" stroke-width="3.0" stroke-linejoin="round" stroke-linecap="round" d="M475.0 221.196L476.10938 221.10225Q476.23438 221.91475 476.67188 222.321Q477.125 222.72725 477.76562 222.72725Q478.51562 222.72725 479.04688 222.14912Q479.57812 221.571 479.57812 220.6335Q479.57812 219.72725 479.0625 219.21162Q478.5625 218.68037 477.73438 218.68037Q477.23438 218.68037 476.8125 218.91475Q476.40625 219.14912 476.17188 219.5085L475.1875 219.3835L476.01562 214.97725L480.29688 214.97725L480.29688 215.97725L476.85938 215.97725L476.40625 218.28975Q477.17188 217.74287 478.01562 217.74287Q479.14062 217.74287 479.90625 218.52412Q480.6875 219.30537 480.6875 220.53975Q480.6875 221.696 480.01562 222.55537Q479.1875 223.58662 477.76562 223.58662Q476.59375 223.58662 475.84375 222.93037Q475.10938 222.27412 475.0 221.196ZM482.59375 223.446L482.59375 222.24287L483.79688 222.24287L483.79688 223.446L482.59375 223.446ZM488.375 223.446L488.375 221.3835L484.65625 221.3835L484.65625 220.41475L488.57812 214.85225L489.4375 214.85225L489.4375 220.41475L490.59375 220.41475L490.59375 221.3835L489.4375 221.3835L489.4375 223.446L488.375 223.446ZM488.375 220.41475L488.375 216.55537L485.6875 220.41475L488.375 220.41475Z" fill-rule="nonzero"/><path fill="#ffffff" d="M475.0 221.196L476.10938 221.10225Q476.23438 221.91475 476.67188 222.321Q477.125 222.72725 477.76562 222.72725Q478.51562 222.72725 479.04688 222.14912Q479.57812 221.571 479.57812 220.6335Q479.57812 219.72725 479.0625 219.21162Q478.5625 218.68037 477.73438 218.68037Q477.23438 218.68037 476.8125 218.91475Q476.40625 219.14912 476.17188 219.5085L475.1875 219.3835L476.01562 214.97725L480.29688 214.97725L480.29688 215.97725L476.85938 215.97725L476.40625 218.28975Q477.17188 217.74287 478.01562 217.74287Q479.14062 217.74287 479.90625 218.52412Q480.6875 219.30537 480.6875 220.53975Q480.6875 221.696 480.01562 222.55537Q479.1875 223.58662 477.76562 223.58662Q476.59375 223.58662 475.84375 222.93037Q475.10938 222.27412 475.0 221.196ZM482.59375 223.446L482.59375 222.24287L483.79688 222.24287L483.79688 223.446L482.59375 223.446ZM488.375 223.446L488.375 221.3835L484.65625 221.3835L484.65625 220.41475L488.57812 214.85225L489.4375 214.85225L489.4375 220.41475L490.59375 220.41475L490.59375 221.3835L489.4375 221.3835L489.4375 223.446L488.375 223.446ZM488.375 220.41475L488.375 216.55537L485.6875 220.41475L488.375 220.41475Z" fill-rule="nonzero"/><path fill="#000000" d="M32.55001 230.39062L21.815638 230.39062L21.815638 228.25L29.409388 225.70312Q30.471888 225.35938 31.003138 225.1875Q30.425013 225.01562 29.284388 224.625L21.815638 222.04688L21.815638 220.14062L32.55001 220.14062L32.55001 221.51562L23.565638 221.51562L32.55001 224.625L32.55001 225.90625L23.409388 229.01562L32.55001 229.01562L32.55001 230.39062ZM30.050013 214.1875L30.206263 212.82812Q31.409388 213.14062 32.065636 214.01562Q32.721886 214.89062 32.721886 216.25Q32.721886 217.95312 31.675013 218.95312Q30.628138 219.95312 28.721888 219.95312Q26.768763 219.95312 25.690638 218.9375Q24.596888 217.92188 24.596888 216.3125Q24.596888 214.75 25.659388 213.76562Q26.721888 212.78125 28.643763 212.78125Q28.768763 212.78125 29.003138 212.78125L29.003138 218.59375Q30.284388 218.51562 30.971888 217.875Q31.643763 217.21875 31.643763 216.23438Q31.643763 215.51562 31.268763 215.0Q30.878138 214.48438 30.050013 214.1875ZM27.909388 218.51562L27.909388 214.17188Q26.925013 214.26562 26.440638 214.67188Q25.675013 215.29688 25.675013 216.29688Q25.675013 217.21875 26.284388 217.84375Q26.893763 218.45312 27.909388 218.51562ZM32.55001 211.51562L24.768763 211.51562L24.768763 210.32812L25.862513 210.32812Q25.284388 209.96875 24.940638 209.35938Q24.596888 208.75 24.596888 207.96875Q24.596888 207.10938 24.956263 206.5625Q25.315638 206.0 25.956263 205.78125Q24.596888 204.85938 24.596888 203.375Q24.596888 202.21875 25.237513 201.59375Q25.878138 200.96875 27.206263 200.96875L32.55001 200.96875L32.55001 202.28125L27.643763 202.28125Q26.862513 202.28125 26.518763 202.40625Q26.159388 202.53125 25.956263 202.875Q25.737513 203.21875 25.737513 203.67188Q25.737513 204.48438 26.284388 205.03125Q26.831263 205.57812 28.034388 205.57812L32.55001 205.57812L32.55001 206.89062L27.503138 206.89062Q26.612513 206.89062 26.175013 207.21875Q25.737513 207.53125 25.737513 208.26562Q25.737513 208.82812 26.034388 209.29688Q26.331263 209.76562 26.893763 209.98438Q27.456263 210.1875 28.518763 210.1875L32.55001 210.1875L32.55001 211.51562ZM28.659388 199.0Q26.503138 199.0 25.456263 197.79688Q24.596888 196.79688 24.596888 195.35938Q24.596888 193.75 25.643763 192.73438Q26.690638 191.71875 28.550013 191.71875Q30.050013 191.71875 30.909388 192.17188Q31.768763 192.60938 32.253136 193.48438Q32.721886 194.34375 32.721886 195.35938Q32.721886 196.98438 31.675013 198.0Q30.628138 199.0 28.659388 199.0ZM28.659388 197.64062Q30.159388 197.64062 30.909388 197.0Q31.643763 196.34375 31.643763 195.35938Q31.643763 194.375 30.893763 193.71875Q30.143763 193.0625 28.612513 193.0625Q27.175013 193.0625 26.440638 193.71875Q25.690638 194.375 25.690638 195.35938Q25.690638 196.34375 26.425013 197.0Q27.159388 197.64062 28.659388 197.64062ZM32.55001 190.53125L24.768763 190.53125L24.768763 189.34375L25.956263 189.34375Q25.128138 188.89062 24.862513 188.5Q24.596888 188.10938 24.596888 187.65625Q24.596888 186.98438 25.018763 186.29688L26.237513 186.75Q25.956263 187.23438 25.956263 187.71875Q25.956263 188.15625 26.221888 188.5Q26.471888 188.84375 26.940638 188.98438Q27.643763 189.20312 28.471888 189.20312L32.55001 189.20312L32.55001 190.53125ZM35.55001 185.5625L34.315636 185.71875Q34.42501 185.28125 34.42501 184.96875Q34.42501 184.51562 34.26876 184.26562Q34.128136 184.0 33.86251 183.82812Q33.67501 183.70312 32.89376 183.42188Q32.784386 183.39062 32.565636 183.3125L24.768763 186.26562L24.768763 184.84375L29.268763 183.21875Q30.128138 182.90625 31.081263 182.65625Q30.175013 182.42188 29.300013 182.10938L24.768763 180.45312L24.768763 179.125L32.67501 182.09375Q33.95626 182.5625 34.440636 182.82812Q35.096886 183.1875 35.39376 183.64062Q35.70626 184.09375 35.70626 184.71875Q35.70626 185.09375 35.55001 185.5625ZM23.331263 174.5L21.815638 174.5L21.815638 173.1875L23.331263 173.1875L23.331263 174.5ZM32.55001 174.5L24.768763 174.5L24.768763 173.1875L32.55001 173.1875L32.55001 174.5ZM32.55001 171.51562L24.768763 171.51562L24.768763 170.32812L25.878138 170.32812Q24.596888 169.46875 24.596888 167.84375Q24.596888 167.14062 24.846888 166.5625Q25.096888 165.96875 25.518763 165.67188Q25.925013 165.375 26.487513 165.26562Q26.846888 165.1875 27.768763 165.1875L32.55001 165.1875L32.55001 166.51562L27.815638 166.51562Q27.018763 166.51562 26.628138 166.67188Q26.221888 166.8125 25.987513 167.20312Q25.737513 167.59375 25.737513 168.125Q25.737513 168.96875 26.268763 169.57812Q26.800013 170.1875 28.300013 170.1875L32.55001 170.1875L32.55001 171.51562ZM28.331263 154.3125L27.081263 154.3125L27.065638 149.76562L31.050013 149.76562Q31.893763 150.8125 32.315636 151.9375Q32.73751 153.04688 32.73751 154.21875Q32.73751 155.79688 32.065636 157.09375Q31.378138 158.39062 30.096888 159.04688Q28.815638 159.70312 27.237513 159.70312Q25.659388 159.70312 24.300013 159.04688Q22.940638 158.39062 22.284388 157.15625Q21.628138 155.92188 21.628138 154.32812Q21.628138 153.15625 22.003138 152.21875Q22.378138 151.28125 23.065638 150.75Q23.737513 150.20312 24.815638 149.9375L25.159388 151.21875Q24.346888 151.45312 23.878138 151.8125Q23.409388 152.17188 23.128138 152.84375Q22.846888 153.5 22.846888 154.3125Q22.846888 155.29688 23.143763 156.01562Q23.440638 156.71875 23.925013 157.15625Q24.409388 157.57812 24.987513 157.82812Q25.987513 158.23438 27.143763 158.23438Q28.581263 158.23438 29.550013 157.75Q30.518763 157.25 30.987513 156.3125Q31.456263 155.35938 31.456263 154.29688Q31.456263 153.375 31.096888 152.5Q30.737513 151.60938 30.331263 151.15625L28.331263 151.15625L28.331263 154.3125ZM32.55001 148.40625L21.815638 148.40625L21.815638 144.375Q21.815638 143.14062 22.143763 142.40625Q22.471888 141.65625 23.143763 141.23438Q23.815638 140.8125 24.565638 140.8125Q25.253138 140.8125 25.862513 141.1875Q26.456263 141.5625 26.831263 142.3125Q27.128138 141.34375 27.815638 140.82812Q28.503138 140.29688 29.440638 140.29688Q30.190638 140.29688 30.846888 140.625Q31.487513 140.9375 31.846888 141.40625Q32.190636 141.875 32.378136 142.57812Q32.55001 143.28125 32.55001 144.3125L32.55001 148.40625ZM26.331263 146.98438L26.331263 144.65625Q26.331263 143.71875 26.206263 143.29688Q26.034388 142.76562 25.659388 142.5Q25.284388 142.21875 24.721888 142.21875Q24.190638 142.21875 23.784388 142.46875Q23.378138 142.71875 23.237513 143.20312Q23.081263 143.67188 23.081263 144.82812L23.081263 146.98438L26.331263 146.98438ZM31.284388 146.98438L31.284388 144.3125Q31.284388 143.625 31.237513 143.34375Q31.143763 142.84375 30.940638 142.51562Q30.737513 142.1875 30.346888 141.98438Q29.956263 141.76562 29.440638 141.76562Q28.831263 141.76562 28.393763 142.07812Q27.956263 142.375 27.784388 142.92188Q27.596888 143.46875 27.596888 144.5L27.596888 146.98438L31.284388 146.98438Z" fill-rule="nonzero"/><path fill="#000000" d="M75.675 308.65314Q75.675 306.7469 76.06563 305.59064Q76.45625 304.4344 77.22188 303.8094Q78.00313 303.16876 79.175 303.16876Q80.03438 303.16876 80.69063 303.52814Q81.34688 303.8719 81.76875 304.52814Q82.19063 305.16876 82.425 306.1219Q82.675 307.0594 82.675 308.65314Q82.675 310.54376 82.28438 311.71564Q81.89375 312.8719 81.1125 313.5125Q80.34688 314.1375 79.175 314.1375Q77.62813 314.1375 76.7375 313.0125Q75.675 311.6844 75.675 308.65314ZM77.03438 308.65314Q77.03438 311.29376 77.64375 312.16876Q78.26875 313.04376 79.175 313.04376Q80.08125 313.04376 80.69063 312.16876Q81.31563 311.29376 81.31563 308.65314Q81.31563 305.9969 80.69063 305.1375Q80.08125 304.2625 79.15938 304.2625Q78.25313 304.2625 77.70625 305.02814Q77.03438 306.0125 77.03438 308.65314Z" fill-rule="nonzero"/><path fill="#000000" d="M75.675 217.3375L77.05 217.2125Q77.20625 218.22812 77.76875 218.74374Q78.33125 219.24374 79.12813 219.24374Q80.08125 219.24374 80.7375 218.525Q81.39375 217.80624 81.39375 216.63437Q81.39375 215.49374 80.75313 214.85312Q80.12813 214.19687 79.09688 214.19687Q78.45625 214.19687 77.94063 214.49374Q77.44063 214.775 77.14375 215.22812L75.90938 215.07187L76.94063 209.55624L82.28438 209.55624L82.28438 210.82187L78.00313 210.82187L77.425 213.69687Q78.39375 213.025 79.45625 213.025Q80.8625 213.025 81.81563 214.00937Q82.78438 214.97812 82.78438 216.50937Q82.78438 217.9625 81.94063 219.025Q80.90938 220.3375 79.12813 220.3375Q77.65938 220.3375 76.72188 219.525Q75.8 218.69687 75.675 217.3375Z" fill-rule="nonzero"/><path fill="#000000" d="M72.64375 126.35L71.31563 126.35L71.31563 117.94375Q70.84688 118.39687 70.06563 118.86562Q69.3 119.31875 68.69063 119.5375L68.69063 118.25625Q69.78438 117.74062 70.6125 117.00625Q71.44063 116.27187 71.78438 115.56875L72.64375 115.56875L72.64375 126.35ZM75.675 121.05312Q75.675 119.14687 76.06563 117.99062Q76.45625 116.83437 77.22188 116.20937Q78.00313 115.56875 79.175 115.56875Q80.03438 115.56875 80.69063 115.92812Q81.34688 116.27187 81.76875 116.92812Q82.19063 117.56875 82.425 118.52187Q82.675 119.45937 82.675 121.05312Q82.675 122.94375 82.28438 124.11562Q81.89375 125.27187 81.1125 125.9125Q80.34688 126.5375 79.175 126.5375Q77.62813 126.5375 76.7375 125.4125Q75.675 124.08437 75.675 121.05312ZM77.03438 121.05312Q77.03438 123.69375 77.64375 124.56875Q78.26875 125.44375 79.175 125.44375Q80.08125 125.44375 80.69063 124.56875Q81.31563 123.69375 81.31563 121.05312Q81.31563 118.39687 80.69063 117.5375Q80.08125 116.6625 79.15938 116.6625Q78.25313 116.6625 77.70625 117.42812Q77.03438 118.4125 77.03438 121.05312Z" fill-rule="nonzero"/><path fill="#000000" d="M72.64375 32.55L71.31563 32.55L71.31563 24.14375Q70.84688 24.596874 70.06563 25.065624Q69.3 25.51875 68.69063 25.7375L68.69063 24.45625Q69.78438 23.940624 70.6125 23.20625Q71.44063 22.471874 71.78438 21.76875L72.64375 21.76875L72.64375 32.55ZM75.675 29.7375L77.05 29.6125Q77.20625 30.628124 77.76875 31.14375Q78.33125 31.64375 79.12813 31.64375Q80.08125 31.64375 80.7375 30.925Q81.39375 30.20625 81.39375 29.034374Q81.39375 27.89375 80.75313 27.253124Q80.12813 26.596874 79.09688 26.596874Q78.45625 26.596874 77.94063 26.89375Q77.44063 27.175 77.14375 27.628124L75.90938 27.471874L76.94063 21.95625L82.28438 21.95625L82.28438 23.221874L78.00313 23.221874L77.425 26.096874Q78.39375 25.425 79.45625 25.425Q80.8625 25.425 81.81563 26.409374Q82.78438 27.378124 82.78438 28.909374Q82.78438 30.3625 81.94063 31.425Q80.90938 32.7375 79.12813 32.7375Q77.65938 32.7375 76.72188 31.925Q75.8 31.096874 75.675 29.7375Z" fill-rule="nonzero"/><path fill="#000000" d="M163.58769 327.66876L159.11894 327.66876L158.11894 330.45L156.66582 330.45L160.74394 319.77814L161.97832 319.77814L166.05644 330.45L164.60332 330.45L163.58769 327.66876ZM159.54082 326.5125L163.16582 326.5125L161.35332 321.52814L159.54082 326.5125ZM169.50957 319.77814L173.00957 328.48126L176.49394 319.77814L178.30644 319.77814L178.30644 330.45L176.90019 330.45L176.90019 326.29376L177.04082 321.8094L173.54082 330.45L172.46269 330.45L168.96269 321.84064L169.10332 326.29376L169.10332 330.45L167.69707 330.45L167.69707 319.77814L169.50957 319.77814ZM188.83769 325.46564Q188.83769 327.0125 188.35332 328.1375Q187.86894 329.2469 186.97832 329.8719L188.88457 331.3719L187.91582 332.2469L185.68144 330.46564Q185.15019 330.59064 184.55644 330.59064Q183.30644 330.59064 182.32207 329.98126Q181.35332 329.35626 180.80644 328.21564Q180.27519 327.0594 180.25957 325.5594L180.25957 324.79376Q180.25957 323.2469 180.79082 322.075Q181.33769 320.8875 182.30644 320.2625Q183.29082 319.6375 184.54082 319.6375Q185.83769 319.6375 186.80644 320.2625Q187.79082 320.8875 188.30644 322.0594Q188.83769 323.21564 188.83769 324.77814L188.83769 325.46564ZM187.43144 324.77814Q187.43144 322.8875 186.68144 321.8719Q185.93144 320.84064 184.54082 320.84064Q183.21269 320.84064 182.44707 321.85626Q181.69707 322.8719 181.66582 324.6844L181.66582 325.46564Q181.66582 327.29376 182.43144 328.35626Q183.19707 329.40314 184.55644 329.40314Q185.91582 329.40314 186.66582 328.41876Q187.41582 327.41876 187.43144 325.5594L187.43144 324.77814ZM192.10332 326.27814L192.10332 330.45L190.69707 330.45L190.69707 319.77814L194.63457 319.77814Q196.38457 319.77814 197.36894 320.6844Q198.36894 321.575 198.36894 323.04376Q198.36894 324.59064 197.40019 325.4344Q196.43144 326.27814 194.61894 326.27814L192.10332 326.27814ZM192.10332 325.1219L194.63457 325.1219Q195.75957 325.1219 196.35332 324.59064Q196.96269 324.0594 196.96269 323.0594Q196.96269 322.10626 196.35332 321.54376Q195.75957 320.96564 194.71269 320.95L192.10332 320.95L192.10332 325.1219ZM207.80644 330.45L206.44707 330.45L206.44707 321.41876L203.71269 322.41876L203.71269 321.1844L207.58769 319.73126L207.80644 319.73126L207.80644 330.45ZM211.52519 329.7469Q211.52519 329.3875 211.72832 329.15314Q211.93144 328.91876 212.35332 328.91876Q212.77519 328.91876 212.97832 329.15314Q213.19707 329.3875 213.19707 329.7469Q213.19707 330.075 212.97832 330.3094Q212.77519 330.52814 212.35332 330.52814Q211.93144 330.52814 211.72832 330.3094Q211.52519 330.075 211.52519 329.7469ZM222.04082 325.90314Q222.04082 328.27814 221.22832 329.4344Q220.41582 330.59064 218.68144 330.59064Q216.97832 330.59064 216.15019 329.46564Q215.33769 328.34064 215.30644 326.09064L215.30644 324.27814Q215.30644 321.91876 216.11894 320.77814Q216.93144 319.6375 218.66582 319.6375Q220.38457 319.6375 221.19707 320.7469Q222.00957 321.84064 222.04082 324.1375L222.04082 325.90314ZM220.68144 324.04376Q220.68144 322.325 220.19707 321.54376Q219.71269 320.7469 218.66582 320.7469Q217.63457 320.7469 217.15019 321.54376Q216.68144 322.325 216.66582 323.95L216.66582 326.10626Q216.66582 327.84064 217.16582 328.66876Q217.66582 329.4969 218.68144 329.4969Q219.68144 329.4969 220.16582 328.71564Q220.66582 327.9344 220.68144 326.2625L220.68144 324.04376Z" fill-rule="nonzero"/><path fill="#000000" d="M150.11894 344.1375L147.60332 344.1375L147.60332 348.45L146.19707 348.45L146.19707 337.77814L149.72832 337.77814Q151.52519 337.77814 152.49394 338.60626Q153.46269 339.41876 153.46269 340.9969Q153.46269 341.9969 152.91582 342.73126Q152.38457 343.46564 151.43144 343.84064L153.93144 348.35626L153.93144 348.45L152.43144 348.45L150.11894 344.1375ZM147.60332 342.98126L149.77519 342.98126Q150.82207 342.98126 151.43144 342.45Q152.05644 341.90314 152.05644 340.9969Q152.05644 340.0125 151.46269 339.48126Q150.86894 338.95 149.75957 338.95L147.60332 338.95L147.60332 342.98126ZM159.88457 348.45Q159.75957 348.21564 159.69707 347.6219Q158.74394 348.59064 157.43144 348.59064Q156.25957 348.59064 155.50957 347.9344Q154.75957 347.27814 154.75957 346.2469Q154.75957 345.0125 155.69707 344.325Q156.65019 343.6375 158.35332 343.6375L159.66582 343.6375L159.66582 343.02814Q159.66582 342.3094 159.24394 341.8875Q158.82207 341.46564 157.99394 341.46564Q157.25957 341.46564 156.77519 341.84064Q156.29082 342.2 156.29082 342.71564L154.91582 342.71564Q154.91582 342.1219 155.33769 341.575Q155.75957 341.02814 156.47832 340.7Q157.21269 340.3719 158.07207 340.3719Q159.44707 340.3719 160.21269 341.0594Q160.99394 341.7469 161.02519 342.95L161.02519 346.59064Q161.02519 347.6844 161.30644 348.325L161.30644 348.45L159.88457 348.45ZM157.63457 347.41876Q158.27519 347.41876 158.83769 347.09064Q159.41582 346.7625 159.66582 346.23126L159.66582 344.60626L158.60332 344.60626Q156.11894 344.60626 156.11894 346.0594Q156.11894 346.7 156.54082 347.0594Q156.96269 347.41876 157.63457 347.41876ZM169.69707 344.575Q169.69707 346.3875 168.85332 347.4969Q168.02519 348.59064 166.61894 348.59064Q165.11894 348.59064 164.30644 347.52814L164.22832 348.45L162.99394 348.45L162.99394 337.2L164.33769 337.2L164.33769 341.40314Q165.16582 340.3719 166.60332 340.3719Q168.05644 340.3719 168.86894 341.46564Q169.69707 342.5594 169.69707 344.46564L169.69707 344.575ZM168.33769 344.41876Q168.33769 343.04376 167.80644 342.29376Q167.27519 341.52814 166.27519 341.52814Q164.93144 341.52814 164.33769 342.77814L164.33769 346.2Q164.96269 347.45 166.29082 347.45Q167.25957 347.45 167.79082 346.7Q168.33769 345.9344 168.33769 344.41876ZM177.69707 344.575Q177.69707 346.3875 176.85332 347.4969Q176.02519 348.59064 174.61894 348.59064Q173.11894 348.59064 172.30644 347.52814L172.22832 348.45L170.99394 348.45L170.99394 337.2L172.33769 337.2L172.33769 341.40314Q173.16582 340.3719 174.60332 340.3719Q176.05644 340.3719 176.86894 341.46564Q177.69707 342.5594 177.69707 344.46564L177.69707 344.575ZM176.33769 344.41876Q176.33769 343.04376 175.80644 342.29376Q175.27519 341.52814 174.27519 341.52814Q172.93144 341.52814 172.33769 342.77814L172.33769 346.2Q172.96269 347.45 174.29082 347.45Q175.25957 347.45 175.79082 346.7Q176.33769 345.9344 176.33769 344.41876ZM180.46269 348.45L179.10332 348.45L179.10332 340.52814L180.46269 340.52814L180.46269 348.45ZM178.99394 338.41876Q178.99394 338.09064 179.19707 337.8719Q179.40019 337.6375 179.79082 337.6375Q180.19707 337.6375 180.40019 337.8719Q180.60332 338.09064 180.60332 338.41876Q180.60332 338.7469 180.40019 338.96564Q180.19707 339.1844 179.79082 339.1844Q179.40019 339.1844 179.19707 338.96564Q178.99394 338.7469 178.99394 338.41876ZM184.82207 338.60626L184.82207 340.52814L186.30644 340.52814L186.30644 341.575L184.82207 341.575L184.82207 346.48126Q184.82207 346.96564 185.02519 347.2Q185.22832 347.4344 185.69707 347.4344Q185.93144 347.4344 186.33769 347.35626L186.33769 348.45Q185.80644 348.59064 185.30644 348.59064Q184.40019 348.59064 183.93144 348.04376Q183.47832 347.4969 183.47832 346.48126L183.47832 341.575L182.02519 341.575L182.02519 340.52814L183.47832 340.52814L183.47832 338.60626L184.82207 338.60626ZM190.00957 337.77814L193.50957 346.48126L196.99394 337.77814L198.80644 337.77814L198.80644 348.45L197.40019 348.45L197.40019 344.29376L197.54082 339.8094L194.04082 348.45L192.96269 348.45L189.46269 339.84064L189.60332 344.29376L189.60332 348.45L188.19707 348.45L188.19707 337.77814L190.00957 337.77814ZM209.33769 343.46564Q209.33769 345.0125 208.85332 346.1375Q208.36894 347.2469 207.47832 347.8719L209.38457 349.3719L208.41582 350.2469L206.18144 348.46564Q205.65019 348.59064 205.05644 348.59064Q203.80644 348.59064 202.82207 347.98126Q201.85332 347.35626 201.30644 346.21564Q200.77519 345.0594 200.75957 343.5594L200.75957 342.79376Q200.75957 341.2469 201.29082 340.075Q201.83769 338.8875 202.80644 338.2625Q203.79082 337.6375 205.04082 337.6375Q206.33769 337.6375 207.30644 338.2625Q208.29082 338.8875 208.80644 340.0594Q209.33769 341.21564 209.33769 342.77814L209.33769 343.46564ZM207.93144 342.77814Q207.93144 340.8875 207.18144 339.8719Q206.43144 338.84064 205.04082 338.84064Q203.71269 338.84064 202.94707 339.85626Q202.19707 340.8719 202.16582 342.6844L202.16582 343.46564Q202.16582 345.29376 202.93144 346.35626Q203.69707 347.40314 205.05644 347.40314Q206.41582 347.40314 207.16582 346.41876Q207.91582 345.41876 207.93144 343.5594L207.93144 342.77814ZM220.57207 344.8719L222.05644 344.8719L222.05644 345.98126L220.57207 345.98126L220.57207 348.45L219.21269 348.45L219.21269 345.98126L214.35332 345.98126L214.35332 345.16876L219.11894 337.77814L220.57207 337.77814L220.57207 344.8719ZM215.88457 344.8719L219.21269 344.8719L219.21269 339.6375L219.04082 339.9344L215.88457 344.8719ZM223.02519 347.7469Q223.02519 347.3875 223.22832 347.15314Q223.43144 346.91876 223.85332 346.91876Q224.27519 346.91876 224.47832 347.15314Q224.69707 347.3875 224.69707 347.7469Q224.69707 348.075 224.47832 348.3094Q224.27519 348.52814 223.85332 348.52814Q223.43144 348.52814 223.22832 348.3094Q223.02519 348.075 223.02519 347.7469ZM233.54082 343.90314Q233.54082 346.27814 232.72832 347.4344Q231.91582 348.59064 230.18144 348.59064Q228.47832 348.59064 227.65019 347.46564Q226.83769 346.34064 226.80644 344.09064L226.80644 342.27814Q226.80644 339.91876 227.61894 338.77814Q228.43144 337.6375 230.16582 337.6375Q231.88457 337.6375 232.69707 338.7469Q233.50957 339.84064 233.54082 342.1375L233.54082 343.90314ZM232.18144 342.04376Q232.18144 340.325 231.69707 339.54376Q231.21269 338.7469 230.16582 338.7469Q229.13457 338.7469 228.65019 339.54376Q228.18144 340.325 228.16582 341.95L228.16582 344.10626Q228.16582 345.84064 228.66582 346.66876Q229.16582 347.4969 230.18144 347.4969Q231.18144 347.4969 231.66582 346.71564Q232.16582 345.9344 232.18144 344.2625L232.18144 342.04376Z" fill-rule="nonzero"/><path fill="#000000" d="M310.125 327.66876L305.65625 327.66876L304.65625 330.45L303.20312 330.45L307.28125 319.77814L308.51562 319.77814L312.59375 330.45L311.14062 330.45L310.125 327.66876ZM306.07812 326.5125L309.70312 326.5125L307.89062 321.52814L306.07812 326.5125ZM316.04688 319.77814L319.54688 328.48126L323.03125 319.77814L324.84375 319.77814L324.84375 330.45L323.4375 330.45L323.4375 326.29376L323.57812 321.8094L320.07812 330.45L319.0 330.45L315.5 321.84064L315.64062 326.29376L315.64062 330.45L314.23438 330.45L314.23438 319.77814L316.04688 319.77814ZM335.375 325.46564Q335.375 327.0125 334.89062 328.1375Q334.40625 329.2469 333.51562 329.8719L335.42188 331.3719L334.45312 332.2469L332.21875 330.46564Q331.6875 330.59064 331.09375 330.59064Q329.84375 330.59064 328.85938 329.98126Q327.89062 329.35626 327.34375 328.21564Q326.8125 327.0594 326.79688 325.5594L326.79688 324.79376Q326.79688 323.2469 327.32812 322.075Q327.875 320.8875 328.84375 320.2625Q329.82812 319.6375 331.07812 319.6375Q332.375 319.6375 333.34375 320.2625Q334.32812 320.8875 334.84375 322.0594Q335.375 323.21564 335.375 324.77814L335.375 325.46564ZM333.96875 324.77814Q333.96875 322.8875 333.21875 321.8719Q332.46875 320.84064 331.07812 320.84064Q329.75 320.84064 328.98438 321.85626Q328.23438 322.8719 328.20312 324.6844L328.20312 325.46564Q328.20312 327.29376 328.96875 328.35626Q329.73438 329.40314 331.09375 329.40314Q332.45312 329.40314 333.20312 328.41876Q333.95312 327.41876 333.96875 325.5594L333.96875 324.77814ZM338.64062 326.27814L338.64062 330.45L337.23438 330.45L337.23438 319.77814L341.17188 319.77814Q342.92188 319.77814 343.90625 320.6844Q344.90625 321.575 344.90625 323.04376Q344.90625 324.59064 343.9375 325.4344Q342.96875 326.27814 341.15625 326.27814L338.64062 326.27814ZM338.64062 325.1219L341.17188 325.1219Q342.29688 325.1219 342.89062 324.59064Q343.5 324.0594 343.5 323.0594Q343.5 322.10626 342.89062 321.54376Q342.29688 320.96564 341.25 320.95L338.64062 320.95L338.64062 325.1219ZM354.34375 330.45L352.98438 330.45L352.98438 321.41876L350.25 322.41876L350.25 321.1844L354.125 319.73126L354.34375 319.73126L354.34375 330.45ZM358.0625 329.7469Q358.0625 329.3875 358.26562 329.15314Q358.46875 328.91876 358.89062 328.91876Q359.3125 328.91876 359.51562 329.15314Q359.73438 329.3875 359.73438 329.7469Q359.73438 330.075 359.51562 330.3094Q359.3125 330.52814 358.89062 330.52814Q358.46875 330.52814 358.26562 330.3094Q358.0625 330.075 358.0625 329.7469ZM368.57812 325.90314Q368.57812 328.27814 367.76562 329.4344Q366.95312 330.59064 365.21875 330.59064Q363.51562 330.59064 362.6875 329.46564Q361.875 328.34064 361.84375 326.09064L361.84375 324.27814Q361.84375 321.91876 362.65625 320.77814Q363.46875 319.6375 365.20312 319.6375Q366.92188 319.6375 367.73438 320.7469Q368.54688 321.84064 368.57812 324.1375L368.57812 325.90314ZM367.21875 324.04376Q367.21875 322.325 366.73438 321.54376Q366.25 320.7469 365.20312 320.7469Q364.17188 320.7469 363.6875 321.54376Q363.21875 322.325 363.20312 323.95L363.20312 326.10626Q363.20312 327.84064 363.70312 328.66876Q364.20312 329.4969 365.21875 329.4969Q366.21875 329.4969 366.70312 328.71564Q367.20312 327.9344 367.21875 326.2625L367.21875 324.04376Z" fill-rule="nonzero"/><path fill="#000000" d="M292.65625 344.1375L290.14062 344.1375L290.14062 348.45L288.73438 348.45L288.73438 337.77814L292.26562 337.77814Q294.0625 337.77814 295.03125 338.60626Q296.0 339.41876 296.0 340.9969Q296.0 341.9969 295.45312 342.73126Q294.92188 343.46564 293.96875 343.84064L296.46875 348.35626L296.46875 348.45L294.96875 348.45L292.65625 344.1375ZM290.14062 342.98126L292.3125 342.98126Q293.35938 342.98126 293.96875 342.45Q294.59375 341.90314 294.59375 340.9969Q294.59375 340.0125 294.0 339.48126Q293.40625 338.95 292.29688 338.95L290.14062 338.95L290.14062 342.98126ZM302.42188 348.45Q302.29688 348.21564 302.23438 347.6219Q301.28125 348.59064 299.96875 348.59064Q298.79688 348.59064 298.04688 347.9344Q297.29688 347.27814 297.29688 346.2469Q297.29688 345.0125 298.23438 344.325Q299.1875 343.6375 300.89062 343.6375L302.20312 343.6375L302.20312 343.02814Q302.20312 342.3094 301.78125 341.8875Q301.35938 341.46564 300.53125 341.46564Q299.79688 341.46564 299.3125 341.84064Q298.82812 342.2 298.82812 342.71564L297.45312 342.71564Q297.45312 342.1219 297.875 341.575Q298.29688 341.02814 299.01562 340.7Q299.75 340.3719 300.60938 340.3719Q301.98438 340.3719 302.75 341.0594Q303.53125 341.7469 303.5625 342.95L303.5625 346.59064Q303.5625 347.6844 303.84375 348.325L303.84375 348.45L302.42188 348.45ZM300.17188 347.41876Q300.8125 347.41876 301.375 347.09064Q301.95312 346.7625 302.20312 346.23126L302.20312 344.60626L301.14062 344.60626Q298.65625 344.60626 298.65625 346.0594Q298.65625 346.7 299.07812 347.0594Q299.5 347.41876 300.17188 347.41876ZM312.23438 344.575Q312.23438 346.3875 311.39062 347.4969Q310.5625 348.59064 309.15625 348.59064Q307.65625 348.59064 306.84375 347.52814L306.76562 348.45L305.53125 348.45L305.53125 337.2L306.875 337.2L306.875 341.40314Q307.70312 340.3719 309.14062 340.3719Q310.59375 340.3719 311.40625 341.46564Q312.23438 342.5594 312.23438 344.46564L312.23438 344.575ZM310.875 344.41876Q310.875 343.04376 310.34375 342.29376Q309.8125 341.52814 308.8125 341.52814Q307.46875 341.52814 306.875 342.77814L306.875 346.2Q307.5 347.45 308.82812 347.45Q309.79688 347.45 310.32812 346.7Q310.875 345.9344 310.875 344.41876ZM320.23438 344.575Q320.23438 346.3875 319.39062 347.4969Q318.5625 348.59064 317.15625 348.59064Q315.65625 348.59064 314.84375 347.52814L314.76562 348.45L313.53125 348.45L313.53125 337.2L314.875 337.2L314.875 341.40314Q315.70312 340.3719 317.14062 340.3719Q318.59375 340.3719 319.40625 341.46564Q320.23438 342.5594 320.23438 344.46564L320.23438 344.575ZM318.875 344.41876Q318.875 343.04376 318.34375 342.29376Q317.8125 341.52814 316.8125 341.52814Q315.46875 341.52814 314.875 342.77814L314.875 346.2Q315.5 347.45 316.82812 347.45Q317.79688 347.45 318.32812 346.7Q318.875 345.9344 318.875 344.41876ZM323.0 348.45L321.64062 348.45L321.64062 340.52814L323.0 340.52814L323.0 348.45ZM321.53125 338.41876Q321.53125 338.09064 321.73438 337.8719Q321.9375 337.6375 322.32812 337.6375Q322.73438 337.6375 322.9375 337.8719Q323.14062 338.09064 323.14062 338.41876Q323.14062 338.7469 322.9375 338.96564Q322.73438 339.1844 322.32812 339.1844Q321.9375 339.1844 321.73438 338.96564Q321.53125 338.7469 321.53125 338.41876ZM327.35938 338.60626L327.35938 340.52814L328.84375 340.52814L328.84375 341.575L327.35938 341.575L327.35938 346.48126Q327.35938 346.96564 327.5625 347.2Q327.76562 347.4344 328.23438 347.4344Q328.46875 347.4344 328.875 347.35626L328.875 348.45Q328.34375 348.59064 327.84375 348.59064Q326.9375 348.59064 326.46875 348.04376Q326.01562 347.4969 326.01562 346.48126L326.01562 341.575L324.5625 341.575L324.5625 340.52814L326.01562 340.52814L326.01562 338.60626L327.35938 338.60626ZM332.54688 337.77814L336.04688 346.48126L339.53125 337.77814L341.34375 337.77814L341.34375 348.45L339.9375 348.45L339.9375 344.29376L340.07812 339.8094L336.57812 348.45L335.5 348.45L332.0 339.84064L332.14062 344.29376L332.14062 348.45L330.73438 348.45L330.73438 337.77814L332.54688 337.77814ZM351.875 343.46564Q351.875 345.0125 351.39062 346.1375Q350.90625 347.2469 350.01562 347.8719L351.92188 349.3719L350.95312 350.2469L348.71875 348.46564Q348.1875 348.59064 347.59375 348.59064Q346.34375 348.59064 345.35938 347.98126Q344.39062 347.35626 343.84375 346.21564Q343.3125 345.0594 343.29688 343.5594L343.29688 342.79376Q343.29688 341.2469 343.82812 340.075Q344.375 338.8875 345.34375 338.2625Q346.32812 337.6375 347.57812 337.6375Q348.875 337.6375 349.84375 338.2625Q350.82812 338.8875 351.34375 340.0594Q351.875 341.21564 351.875 342.77814L351.875 343.46564ZM350.46875 342.77814Q350.46875 340.8875 349.71875 339.8719Q348.96875 338.84064 347.57812 338.84064Q346.25 338.84064 345.48438 339.85626Q344.73438 340.8719 344.70312 342.6844L344.70312 343.46564Q344.70312 345.29376 345.46875 346.35626Q346.23438 347.40314 347.59375 347.40314Q348.95312 347.40314 349.70312 346.41876Q350.45312 345.41876 350.46875 343.5594L350.46875 342.77814ZM359.35938 342.46564L360.375 342.46564Q361.32812 342.45 361.875 341.96564Q362.4375 341.46564 362.4375 340.6219Q362.4375 338.7469 360.5625 338.7469Q359.6875 338.7469 359.15625 339.2625Q358.64062 339.7625 358.64062 340.59064L357.28125 340.59064Q357.28125 339.3094 358.20312 338.48126Q359.14062 337.6375 360.5625 337.6375Q362.07812 337.6375 362.92188 338.4344Q363.78125 339.23126 363.78125 340.65314Q363.78125 341.35626 363.32812 342.0125Q362.89062 342.65314 362.10938 342.98126Q362.98438 343.2625 363.46875 343.90314Q363.95312 344.54376 363.95312 345.48126Q363.95312 346.91876 363.01562 347.7625Q362.07812 348.59064 360.57812 348.59064Q359.07812 348.59064 358.125 347.77814Q357.1875 346.96564 357.1875 345.6375L358.54688 345.6375Q358.54688 346.48126 359.09375 346.9969Q359.65625 347.4969 360.57812 347.4969Q361.54688 347.4969 362.0625 346.98126Q362.59375 346.46564 362.59375 345.5125Q362.59375 344.575 362.01562 344.075Q361.45312 343.575 360.375 343.5594L359.35938 343.5594L359.35938 342.46564ZM365.5625 347.7469Q365.5625 347.3875 365.76562 347.15314Q365.96875 346.91876 366.39062 346.91876Q366.8125 346.91876 367.01562 347.15314Q367.23438 347.3875 367.23438 347.7469Q367.23438 348.075 367.01562 348.3094Q366.8125 348.52814 366.39062 348.52814Q365.96875 348.52814 365.76562 348.3094Q365.5625 348.075 365.5625 347.7469ZM373.84375 348.45L372.48438 348.45L372.48438 339.41876L369.75 340.41876L369.75 339.1844L373.625 337.73126L373.84375 337.73126L373.84375 348.45ZM379.35938 342.46564L380.375 342.46564Q381.32812 342.45 381.875 341.96564Q382.4375 341.46564 382.4375 340.6219Q382.4375 338.7469 380.5625 338.7469Q379.6875 338.7469 379.15625 339.2625Q378.64062 339.7625 378.64062 340.59064L377.28125 340.59064Q377.28125 339.3094 378.20312 338.48126Q379.14062 337.6375 380.5625 337.6375Q382.07812 337.6375 382.92188 338.4344Q383.78125 339.23126 383.78125 340.65314Q383.78125 341.35626 383.32812 342.0125Q382.89062 342.65314 382.10938 342.98126Q382.98438 343.2625 383.46875 343.90314Q383.95312 344.54376 383.95312 345.48126Q383.95312 346.91876 383.01562 347.7625Q382.07812 348.59064 380.57812 348.59064Q379.07812 348.59064 378.125 347.77814Q377.1875 346.96564 377.1875 345.6375L378.54688 345.6375Q378.54688 346.48126 379.09375 346.9969Q379.65625 347.4969 380.57812 347.4969Q381.54688 347.4969 382.0625 346.98126Q382.59375 346.46564 382.59375 345.5125Q382.59375 344.575 382.01562 344.075Q381.45312 343.575 380.375 343.5594L379.35938 343.5594L379.35938 342.46564Z" fill-rule="nonzero"/><path fill="#000000" d="M450.66232 327.66876L446.19357 327.66876L445.19357 330.45L443.74045 330.45L447.81857 319.77814L449.05295 319.77814L453.13107 330.45L451.67795 330.45L450.66232 327.66876ZM446.61545 326.5125L450.24045 326.5125L448.42795 321.52814L446.61545 326.5125ZM456.5842 319.77814L460.0842 328.48126L463.56857 319.77814L465.38107 319.77814L465.38107 330.45L463.97482 330.45L463.97482 326.29376L464.11545 321.8094L460.61545 330.45L459.53732 330.45L456.03732 321.84064L456.17795 326.29376L456.17795 330.45L454.7717 330.45L454.7717 319.77814L456.5842 319.77814ZM475.91232 325.46564Q475.91232 327.0125 475.42795 328.1375Q474.94357 329.2469 474.05295 329.8719L475.9592 331.3719L474.99045 332.2469L472.75607 330.46564Q472.22482 330.59064 471.63107 330.59064Q470.38107 330.59064 469.3967 329.98126Q468.42795 329.35626 467.88107 328.21564Q467.34982 327.0594 467.3342 325.5594L467.3342 324.79376Q467.3342 323.2469 467.86545 322.075Q468.41232 320.8875 469.38107 320.2625Q470.36545 319.6375 471.61545 319.6375Q472.91232 319.6375 473.88107 320.2625Q474.86545 320.8875 475.38107 322.0594Q475.91232 323.21564 475.91232 324.77814L475.91232 325.46564ZM474.50607 324.77814Q474.50607 322.8875 473.75607 321.8719Q473.00607 320.84064 471.61545 320.84064Q470.28732 320.84064 469.5217 321.85626Q468.7717 322.8719 468.74045 324.6844L468.74045 325.46564Q468.74045 327.29376 469.50607 328.35626Q470.2717 329.40314 471.63107 329.40314Q472.99045 329.40314 473.74045 328.41876Q474.49045 327.41876 474.50607 325.5594L474.50607 324.77814ZM479.17795 326.27814L479.17795 330.45L477.7717 330.45L477.7717 319.77814L481.7092 319.77814Q483.4592 319.77814 484.44357 320.6844Q485.44357 321.575 485.44357 323.04376Q485.44357 324.59064 484.47482 325.4344Q483.50607 326.27814 481.69357 326.27814L479.17795 326.27814ZM479.17795 325.1219L481.7092 325.1219Q482.8342 325.1219 483.42795 324.59064Q484.03732 324.0594 484.03732 323.0594Q484.03732 322.10626 483.42795 321.54376Q482.8342 320.96564 481.78732 320.95L479.17795 320.95L479.17795 325.1219ZM497.11545 325.90314Q497.11545 328.27814 496.30295 329.4344Q495.49045 330.59064 493.75607 330.59064Q492.05295 330.59064 491.22482 329.46564Q490.41232 328.34064 490.38107 326.09064L490.38107 324.27814Q490.38107 321.91876 491.19357 320.77814Q492.00607 319.6375 493.74045 319.6375Q495.4592 319.6375 496.2717 320.7469Q497.0842 321.84064 497.11545 324.1375L497.11545 325.90314ZM495.75607 324.04376Q495.75607 322.325 495.2717 321.54376Q494.78732 320.7469 493.74045 320.7469Q492.7092 320.7469 492.22482 321.54376Q491.75607 322.325 491.74045 323.95L491.74045 326.10626Q491.74045 327.84064 492.24045 328.66876Q492.74045 329.4969 493.75607 329.4969Q494.75607 329.4969 495.24045 328.71564Q495.74045 327.9344 495.75607 326.2625L495.75607 324.04376ZM498.59982 329.7469Q498.59982 329.3875 498.80295 329.15314Q499.00607 328.91876 499.42795 328.91876Q499.84982 328.91876 500.05295 329.15314Q500.2717 329.3875 500.2717 329.7469Q500.2717 330.075 500.05295 330.3094Q499.84982 330.52814 499.42795 330.52814Q499.00607 330.52814 498.80295 330.3094Q498.59982 330.075 498.59982 329.7469ZM507.61545 325.7625Q507.19357 326.2625 506.59982 326.575Q506.00607 326.8875 505.30295 326.8875Q504.38107 326.8875 503.69357 326.4344Q503.0217 325.98126 502.6467 325.15314Q502.2717 324.325 502.2717 323.325Q502.2717 322.2625 502.67795 321.40314Q503.0842 320.54376 503.8342 320.09064Q504.5842 319.6375 505.56857 319.6375Q507.16232 319.6375 508.06857 320.825Q508.97482 322.0125 508.97482 324.04376L508.97482 324.45Q508.97482 327.5594 507.74045 328.9969Q506.5217 330.41876 504.03732 330.45L503.7717 330.45L503.7717 329.3094L504.05295 329.3094Q505.74045 329.27814 506.63107 328.4344Q507.53732 327.59064 507.61545 325.7625ZM505.5217 325.7625Q506.2092 325.7625 506.78732 325.35626Q507.36545 324.9344 507.63107 324.3094L507.63107 323.7625Q507.63107 322.4344 507.03732 321.60626Q506.4592 320.7625 505.5842 320.7625Q504.69357 320.7625 504.1467 321.45Q503.59982 322.1375 503.59982 323.2625Q503.59982 324.35626 504.11545 325.0594Q504.6467 325.7625 505.5217 325.7625ZM510.59982 329.7469Q510.59982 329.3875 510.80295 329.15314Q511.00607 328.91876 511.42795 328.91876Q511.84982 328.91876 512.053 329.15314Q512.2717 329.3875 512.2717 329.7469Q512.2717 330.075 512.053 330.3094Q511.84982 330.52814 511.42795 330.52814Q511.00607 330.52814 510.80295 330.3094Q510.59982 330.075 510.59982 329.7469ZM518.8811 330.45L517.5217 330.45L517.5217 321.41876L514.78735 322.41876L514.78735 321.1844L518.66235 319.73126L518.8811 319.73126L518.8811 330.45Z" fill-rule="nonzero"/><path fill="#000000" d="M443.19357 344.1375L440.67795 344.1375L440.67795 348.45L439.2717 348.45L439.2717 337.77814L442.80295 337.77814Q444.59982 337.77814 445.56857 338.60626Q446.53732 339.41876 446.53732 340.9969Q446.53732 341.9969 445.99045 342.73126Q445.4592 343.46564 444.50607 343.84064L447.00607 348.35626L447.00607 348.45L445.50607 348.45L443.19357 344.1375ZM440.67795 342.98126L442.84982 342.98126Q443.8967 342.98126 444.50607 342.45Q445.13107 341.90314 445.13107 340.9969Q445.13107 340.0125 444.53732 339.48126Q443.94357 338.95 442.8342 338.95L440.67795 338.95L440.67795 342.98126ZM452.9592 348.45Q452.8342 348.21564 452.7717 347.6219Q451.81857 348.59064 450.50607 348.59064Q449.3342 348.59064 448.5842 347.9344Q447.8342 347.27814 447.8342 346.2469Q447.8342 345.0125 448.7717 344.325Q449.72482 343.6375 451.42795 343.6375L452.74045 343.6375L452.74045 343.02814Q452.74045 342.3094 452.31857 341.8875Q451.8967 341.46564 451.06857 341.46564Q450.3342 341.46564 449.84982 341.84064Q449.36545 342.2 449.36545 342.71564L447.99045 342.71564Q447.99045 342.1219 448.41232 341.575Q448.8342 341.02814 449.55295 340.7Q450.28732 340.3719 451.1467 340.3719Q452.5217 340.3719 453.28732 341.0594Q454.06857 341.7469 454.09982 342.95L454.09982 346.59064Q454.09982 347.6844 454.38107 348.325L454.38107 348.45L452.9592 348.45ZM450.7092 347.41876Q451.34982 347.41876 451.91232 347.09064Q452.49045 346.7625 452.74045 346.23126L452.74045 344.60626L451.67795 344.60626Q449.19357 344.60626 449.19357 346.0594Q449.19357 346.7 449.61545 347.0594Q450.03732 347.41876 450.7092 347.41876ZM462.7717 344.575Q462.7717 346.3875 461.92795 347.4969Q461.09982 348.59064 459.69357 348.59064Q458.19357 348.59064 457.38107 347.52814L457.30295 348.45L456.06857 348.45L456.06857 337.2L457.41232 337.2L457.41232 341.40314Q458.24045 340.3719 459.67795 340.3719Q461.13107 340.3719 461.94357 341.46564Q462.7717 342.5594 462.7717 344.46564L462.7717 344.575ZM461.41232 344.41876Q461.41232 343.04376 460.88107 342.29376Q460.34982 341.52814 459.34982 341.52814Q458.00607 341.52814 457.41232 342.77814L457.41232 346.2Q458.03732 347.45 459.36545 347.45Q460.3342 347.45 460.86545 346.7Q461.41232 345.9344 461.41232 344.41876ZM470.7717 344.575Q470.7717 346.3875 469.92795 347.4969Q469.09982 348.59064 467.69357 348.59064Q466.19357 348.59064 465.38107 347.52814L465.30295 348.45L464.06857 348.45L464.06857 337.2L465.41232 337.2L465.41232 341.40314Q466.24045 340.3719 467.67795 340.3719Q469.13107 340.3719 469.94357 341.46564Q470.7717 342.5594 470.7717 344.46564L470.7717 344.575ZM469.41232 344.41876Q469.41232 343.04376 468.88107 342.29376Q468.34982 341.52814 467.34982 341.52814Q466.00607 341.52814 465.41232 342.77814L465.41232 346.2Q466.03732 347.45 467.36545 347.45Q468.3342 347.45 468.86545 346.7Q469.41232 345.9344 469.41232 344.41876ZM473.53732 348.45L472.17795 348.45L472.17795 340.52814L473.53732 340.52814L473.53732 348.45ZM472.06857 338.41876Q472.06857 338.09064 472.2717 337.8719Q472.47482 337.6375 472.86545 337.6375Q473.2717 337.6375 473.47482 337.8719Q473.67795 338.09064 473.67795 338.41876Q473.67795 338.7469 473.47482 338.96564Q473.2717 339.1844 472.86545 339.1844Q472.47482 339.1844 472.2717 338.96564Q472.06857 338.7469 472.06857 338.41876ZM477.8967 338.60626L477.8967 340.52814L479.38107 340.52814L479.38107 341.575L477.8967 341.575L477.8967 346.48126Q477.8967 346.96564 478.09982 347.2Q478.30295 347.4344 478.7717 347.4344Q479.00607 347.4344 479.41232 347.35626L479.41232 348.45Q478.88107 348.59064 478.38107 348.59064Q477.47482 348.59064 477.00607 348.04376Q476.55295 347.4969 476.55295 346.48126L476.55295 341.575L475.09982 341.575L475.09982 340.52814L476.55295 340.52814L476.55295 338.60626L477.8967 338.60626ZM483.0842 337.77814L486.5842 346.48126L490.06857 337.77814L491.88107 337.77814L491.88107 348.45L490.47482 348.45L490.47482 344.29376L490.61545 339.8094L487.11545 348.45L486.03732 348.45L482.53732 339.84064L482.67795 344.29376L482.67795 348.45L481.2717 348.45L481.2717 337.77814L483.0842 337.77814ZM502.41232 343.46564Q502.41232 345.0125 501.92795 346.1375Q501.44357 347.2469 500.55295 347.8719L502.4592 349.3719L501.49045 350.2469L499.25607 348.46564Q498.72482 348.59064 498.13107 348.59064Q496.88107 348.59064 495.8967 347.98126Q494.92795 347.35626 494.38107 346.21564Q493.84982 345.0594 493.8342 343.5594L493.8342 342.79376Q493.8342 341.2469 494.36545 340.075Q494.91232 338.8875 495.88107 338.2625Q496.86545 337.6375 498.11545 337.6375Q499.41232 337.6375 500.38107 338.2625Q501.36545 338.8875 501.88107 340.0594Q502.41232 341.21564 502.41232 342.77814L502.41232 343.46564ZM501.00607 342.77814Q501.00607 340.8875 500.25607 339.8719Q499.50607 338.84064 498.11545 338.84064Q496.78732 338.84064 496.0217 339.85626Q495.2717 340.8719 495.24045 342.6844L495.24045 343.46564Q495.24045 345.29376 496.00607 346.35626Q496.7717 347.40314 498.13107 347.40314Q499.49045 347.40314 500.24045 346.41876Q500.99045 345.41876 501.00607 343.5594L501.00607 342.77814ZM513.6467 344.8719L515.1311 344.8719L515.1311 345.98126L513.6467 345.98126L513.6467 348.45L512.28735 348.45L512.28735 345.98126L507.42795 345.98126L507.42795 345.16876L512.1936 337.77814L513.6467 337.77814L513.6467 344.8719ZM508.9592 344.8719L512.28735 344.8719L512.28735 339.6375L512.1155 339.9344L508.9592 344.8719ZM516.09985 347.7469Q516.09985 347.3875 516.303 347.15314Q516.5061 346.91876 516.928 346.91876Q517.34985 346.91876 517.553 347.15314Q517.7717 347.3875 517.7717 347.7469Q517.7717 348.075 517.553 348.3094Q517.34985 348.52814 516.928 348.52814Q516.5061 348.52814 516.303 348.3094Q516.09985 348.075 516.09985 347.7469ZM526.6155 343.90314Q526.6155 346.27814 525.803 347.4344Q524.9905 348.59064 523.2561 348.59064Q521.553 348.59064 520.72485 347.46564Q519.91235 346.34064 519.8811 344.09064L519.8811 342.27814Q519.8811 339.91876 520.6936 338.77814Q521.5061 337.6375 523.2405 337.6375Q524.9592 337.6375 525.7717 338.7469Q526.5842 339.84064 526.6155 342.1375L526.6155 343.90314ZM525.2561 342.04376Q525.2561 340.325 524.7717 339.54376Q524.28735 338.7469 523.2405 338.7469Q522.2092 338.7469 521.72485 339.54376Q521.2561 340.325 521.2405 341.95L521.2405 344.10626Q521.2405 345.84064 521.7405 346.66876Q522.2405 347.4969 523.2561 347.4969Q524.2561 347.4969 524.7405 346.71564Q525.2405 345.9344 525.2561 344.2625L525.2561 342.04376Z" fill-rule="nonzero"/></svg>