<svg version="1.1" viewBox="0.0 0.0 600.0 371.0" fill="none" stroke="none" stroke-linecap="square" stroke-miterlimit="10" width="600" height="371" xmlns:xlink="http://www.w3.org/1999/xlink" xmlns="http://www.w3.org/2000/svg"><path fill="#ffffff" d="M0 0L600.0 0L600.0 371.0L0 371.0L0 0Z" fill-rule="nonzero"/><path stroke="#333333" stroke-width="1.0" stroke-linecap="butt" d="M90.5 326.5L581.5 326.5" fill-rule="nonzero"/><path stroke="#cccccc" stroke-width="1.0" stroke-linecap="butt" d="M90.5 227.5L581.5 227.5" fill-rule="nonzero"/><path stroke="#cccccc" stroke-width="1.0" stroke-linecap="butt" d="M90.5 127.5L581.5 127.5" fill-rule="nonzero"/><path stroke="#cccccc" stroke-width="1.0" stroke-linecap="butt" d="M90.5 27.5L581.5 27.5" fill-rule="nonzero"/><clipPath id="id_0"><path d="M90.55 27.55L581.45 27.55L581.45 326.95L90.55 326.95L90.55 27.55Z" clip-rule="nonzero"/></clipPath><path stroke="#000000" stroke-width="2.0" stroke-linecap="butt" stroke-opacity="0.0" clip-path="url(#id_0)" d="M237.0 327.0L142.0 327.0L142.0 223.0C142.0 221.89543 142.89543 221.0 144.0 221.0L235.0 221.0C236.10457 221.0 237.0 221.89543 237.0 223.0Z" fill-rule="nonzero"/><path fill="#4285f4" clip-path="url(#id_0)" d="M237.0 327.0L142.0 327.0L142.0 223.0C142.0 221.89543 142.89543 221.0 144.0 221.0L235.0 221.0C236.10457 221.0 237.0 221.89543 237.0 223.0Z" fill-rule="nonzero"/><path stroke="#000000" stroke-width="2.0" stroke-linecap="butt" stroke-opacity="0.0" clip-path="url(#id_0)" d="M384.0 327.0L289.0 327.0L289.0 88.0C289.0 86.89543 289.89542 86.0 291.0 86.0L382.0 86.0C383.10458 86.0 384.0 86.89543 384.0 88.0Z" fill-rule="nonzero"/><path fill="#4285f4" clip-path="url(#id_0)" d="M384.0 327.0L289.0 327.0L289.0 88.0C289.0 86.89543 289.89542 86.0 291.0 86.0L382.0 86.0C383.10458 86.0 384.0 86.89543 384.0 88.0Z" fill-rule="nonzero"/><path stroke="#000000" stroke-width="2.0" stroke-linecap="butt" stroke-opacity="0.0" clip-path="url(#id_0)" d="M531.0 327.0L436.0 327.0L436.0 221.0C436.0 219.89543 436.89542 219.0 438.0 219.0L529.0 219.0C530.10455 219.0 531.0 219.89543 531.0 221.0Z" fill-rule="nonzero"/><path fill="#4285f4" clip-path="url(#id_0)" d="M531.0 327.0L436.0 327.0L436.0 221.0C436.0 219.89543 436.89542 219.0 438.0 219.0L529.0 219.0C530.10455 219.0 531.0 219.89543 531.0 221.0Z" fill-rule="nonzero"/><path fill="#000000" d="M32.55001 230.39062L21.815638 230.39062L21.815638 228.25L29.409388 225.70312Q30.471888 225.35938 31.003138 225.1875Q30.425013 225.01562 29.284388 224.625L21.815638 222.04688L21.815638 220.14062L32.55001 220.14062L32.55001 221.51562L23.565638 221.51562L32.55001 224.625L32.55001 225.90625L23.409388 229.01562L32.55001 229.01562L32.55001 230.39062ZM30.050013 214.1875L30.206263 212.82812Q31.409388 213.14062 32.065636 214.01562Q32.721886 214.89062 32.721886 216.25Q32.721886 217.95312 31.675013 218.95312Q30.628138 219.95312 28.721888 219.95312Q26.768763 219.95312 25.690638 218.9375Q24.596888 217.92188 24.596888 216.3125Q24.596888 214.75 25.659388 213.76562Q26.721888 212.78125 28.643763 212.78125Q28.768763 212.78125 29.003138 212.78125L29.003138 218.59375Q30.284388 218.51562 30.971888 217.875Q31.643763 217.21875 31.643763 216.23438Q31.643763 215.51562 31.268763 215.0Q30.878138 214.48438 30.050013 214.1875ZM27.909388 218.51562L27.909388 214.17188Q26.925013 214.26562 26.440638 214.67188Q25.675013 215.29688 25.675013 216.29688Q25.675013 217.21875 26.284388 217.84375Q26.893763 218.45312 27.909388 218.51562ZM32.55001 211.51562L24.768763 211.51562L24.768763 210.32812L25.862513 210.32812Q25.284388 209.96875 24.940638 209.35938Q24.596888 208.75 24.596888 207.96875Q24.596888 207.10938 24.956263 206.5625Q25.315638 206.0 25.956263 205.78125Q24.596888 204.85938 24.596888 203.375Q24.596888 202.21875 25.237513 201.59375Q25.878138 200.96875 27.206263 200.96875L32.55001 200.96875L32.55001 202.28125L27.643763 202.28125Q26.862513 202.28125 26.518763 202.40625Q26.159388 202.53125 25.956263 202.875Q25.737513 203.21875 25.737513 203.67188Q25.737513 204.48438 26.284388 205.03125Q26.831263 205.57812 28.034388 205.57812L32.55001 205.57812L32.55001 206.89062L27.503138 206.89062Q26.612513 206.89062 26.175013 207.21875Q25.737513 207.53125 25.737513 208.26562Q25.737513 208.82812 26.034388 209.29688Q26.331263 209.76562 26.893763 209.98438Q27.456263 210.1875 28.518763 210.1875L32.55001 210.1875L32.55001 211.51562ZM28.659388 199.0Q26.503138 199.0 25.456263 197.79688Q24.596888 196.79688 24.596888 195.35938Q24.596888 193.75 25.643763 192.73438Q26.690638 191.71875 28.550013 191.71875Q30.050013 191.71875 30.909388 192.17188Q31.768763 192.60938 32.253136 193.48438Q32.721886 194.34375 32.721886 195.35938Q32.721886 196.98438 31.675013 198.0Q30.628138 199.0 28.659388 199.0ZM28.659388 197.64062Q30.159388 197.64062 30.909388 197.0Q31.643763 196.34375 31.643763 195.35938Q31.643763 194.375 30.893763 193.71875Q30.143763 193.0625 28.612513 193.0625Q27.175013 193.0625 26.440638 193.71875Q25.690638 194.375 25.690638 195.35938Q25.690638 196.34375 26.425013 197.0Q27.159388 197.64062 28.659388 197.64062ZM32.55001 190.53125L24.768763 190.53125L24.768763 189.34375L25.956263 189.34375Q25.128138 188.89062 24.862513 188.5Q24.596888 188.10938 24.596888 187.65625Q24.596888 186.98438 25.018763 186.29688L26.237513 186.75Q25.956263 187.23438 25.956263 187.71875Q25.956263 188.15625 26.221888 188.5Q26.471888 188.84375 26.940638 188.98438Q27.643763 189.20312 28.471888 189.20312L32.55001 189.20312L32.55001 190.53125ZM35.55001 185.5625L34.315636 185.71875Q34.42501 185.28125 34.42501 184.96875Q34.42501 184.51562 34.26876 184.26562Q34.128136 184.0 33.86251 183.82812Q33.67501 183.70312 32.89376 183.42188Q32.784386 183.39062 32.565636 183.3125L24.768763 186.26562L24.768763 184.84375L29.268763 183.21875Q30.128138 182.90625 31.081263 182.65625Q30.175013 182.42188 29.300013 182.10938L24.768763 180.45312L24.768763 179.125L32.67501 182.09375Q33.95626 182.5625 34.440636 182.82812Q35.096886 183.1875 35.39376 183.64062Q35.70626 184.09375 35.70626 184.71875Q35.70626 185.09375 35.55001 185.5625ZM23.331263 174.5L21.815638 174.5L21.815638 173.1875L23.331263 173.1875L23.331263 174.5ZM32.55001 174.5L24.768763 174.5L24.768763 173.1875L32.55001 173.1875L32.55001 174.5ZM32.55001 171.51562L24.768763 171.51562L24.768763 170.32812L25.878138 170.32812Q24.596888 169.46875 24.596888 167.84375Q24.596888 167.14062 24.846888 166.5625Q25.096888 165.96875 25.518763 165.67188Q25.925013 165.375 26.487513 165.26562Q26.846888 165.1875 27.768763 165.1875L32.55001 165.1875L32.55001 166.51562L27.815638 166.51562Q27.018763 166.51562 26.628138 166.67188Q26.221888 166.8125 25.987513 167.20312Q25.737513 167.59375 25.737513 168.125Q25.737513 168.96875 26.268763 169.57812Q26.800013 170.1875 28.300013 170.1875L32.55001 170.1875L32.55001 171.51562ZM28.331263 154.3125L27.081263 154.3125L27.065638 149.76562L31.050013 149.76562Q31.893763 150.8125 32.315636 151.9375Q32.73751 153.04688 32.73751 154.21875Q32.73751 155.79688 32.065636 157.09375Q31.378138 158.39062 30.096888 159.04688Q28.815638 159.70312 27.237513 159.70312Q25.659388 159.70312 24.300013 159.04688Q22.940638 158.39062 22.284388 157.15625Q21.628138 155.92188 21.628138 154.32812Q21.628138 153.15625 22.003138 152.21875Q22.378138 151.28125 23.065638 150.75Q23.737513 150.20312 24.815638 149.9375L25.159388 151.21875Q24.346888 151.45312 23.878138 151.8125Q23.409388 152.17188 23.128138 152.84375Q22.846888 153.5 22.846888 154.3125Q22.846888 155.29688 23.143763 156.01562Q23.440638 156.71875 23.925013 157.15625Q24.409388 157.57812 24.987513 157.82812Q25.987513 158.23438 27.143763 158.23438Q28.581263 158.23438 29.550013 157.75Q30.518763 157.25 30.987513 156.3125Q31.456263 155.35938 31.456263 154.29688Q31.456263 153.375 31.096888 152.5Q30.737513 151.60938 30.331263 151.15625L28.331263 151.15625L28.331263 154.3125ZM32.55001 148.40625L21.815638 148.40625L21.815638 144.375Q21.815638 143.14062 22.143763 142.40625Q22.471888 141.65625 23.143763 141.23438Q23.815638 140.8125 24.565638 140.8125Q25.253138 140.8125 25.862513 141.1875Q26.456263 141.5625 26.831263 142.3125Q27.128138 141.34375 27.815638 140.82812Q28.503138 140.29688 29.440638 140.29688Q30.190638 140.29688 30.846888 140.625Q31.487513 140.9375 31.846888 141.40625Q32.190636 141.875 32.378136 142.57812Q32.55001 143.28125 32.55001 144.3125L32.55001 148.40625ZM26.331263 146.98438L26.331263 144.65625Q26.331263 143.71875 26.206263 143.29688Q26.034388 142.76562 25.659388 142.5Q25.284388 142.21875 24.721888 142.21875Q24.190638 142.21875 23.784388 142.46875Q23.378138 142.71875 23.237513 143.20312Q23.081263 143.67188 23.081263 144.82812L23.081263 146.98438L26.331263 146.98438ZM31.284388 146.98438L31.284388 144.3125Q31.284388 143.625 31.237513 143.34375Q31.143763 142.84375 30.940638 142.51562Q30.737513 142.1875 30.346888 141.98438Q29.956263 141.76562 29.440638 141.76562Q28.831263 141.76562 28.393763 142.07812Q27.956263 142.375 27.784388 142.92188Q27.596888 143.46875 27.596888 144.5L27.596888 146.98438L31.284388 146.98438Z" fill-rule="nonzero"/><path fill="#000000" d="M75.675 326.65314Q75.675 324.7469 76.06563 323.59064Q76.45625 322.4344 77.22188 321.8094Q78.00313 321.16876 79.175 321.16876Q80.03438 321.16876 80.69063 321.52814Q81.34688 321.8719 81.76875 322.52814Q82.19063 323.16876 82.425 324.1219Q82.675 325.0594 82.675 326.65314Q82.675 328.54376 82.28438 329.71564Q81.89375 330.8719 81.1125 331.5125Q80.34688 332.1375 79.175 332.1375Q77.62813 332.1375 76.7375 331.0125Q75.675 329.6844 75.675 326.65314ZM77.03438 326.65314Q77.03438 329.29376 77.64375 330.16876Q78.26875 331.04376 79.175 331.04376Q80.08125 331.04376 80.69063 330.16876Q81.31563 329.29376 81.31563 326.65314Q81.31563 323.9969 80.69063 323.1375Q80.08125 322.2625 79.15938 322.2625Q78.25313 322.2625 77.70625 323.02814Q77.03438 324.0125 77.03438 326.65314Z" fill-rule="nonzero"/><path fill="#000000" d="M75.675 229.3375L77.05 229.2125Q77.20625 230.22812 77.76875 230.74374Q78.33125 231.24374 79.12813 231.24374Q80.08125 231.24374 80.7375 230.525Q81.39375 229.80624 81.39375 228.63437Q81.39375 227.49374 80.75313 226.85312Q80.12813 226.19687 79.09688 226.19687Q78.45625 226.19687 77.94063 226.49374Q77.44063 226.775 77.14375 227.22812L75.90938 227.07187L76.94063 221.55624L82.28438 221.55624L82.28438 222.82187L78.00313 222.82187L77.425 225.69687Q78.39375 225.025 79.45625 225.025Q80.8625 225.025 81.81563 226.00937Q82.78438 226.97812 82.78438 228.50937Q82.78438 229.9625 81.94063 231.025Q80.90938 232.3375 79.12813 232.3375Q77.65938 232.3375 76.72188 231.525Q75.8 230.69687 75.675 229.3375Z" fill-rule="nonzero"/><path fill="#000000" d="M72.64375 132.35L71.31563 132.35L71.31563 123.943756Q70.84688 124.39688 70.06563 124.86563Q69.3 125.318756 68.69063 125.537506L68.69063 124.256256Q69.78438 123.74063 70.6125 123.006256Q71.44063 122.27188 71.78438 121.568756L72.64375 121.568756L72.64375 132.35ZM75.675 127.05313Q75.675 125.14688 76.06563 123.99063Q76.45625 122.83438 77.22188 122.20938Q78.00313 121.568756 79.175 121.568756Q80.03438 121.568756 80.69063 121.92813Q81.34688 122.27188 81.76875 122.92813Q82.19063 123.568756 82.425 124.52188Q82.675 125.45938 82.675 127.05313Q82.675 128.94376 82.28438 130.11563Q81.89375 131.27188 81.1125 131.9125Q80.34688 132.5375 79.175 132.5375Q77.62813 132.5375 76.7375 131.4125Q75.675 130.08438 75.675 127.05313ZM77.03438 127.05313Q77.03438 129.69376 77.64375 130.56876Q78.26875 131.44376 79.175 131.44376Q80.08125 131.44376 80.69063 130.56876Q81.31563 129.69376 81.31563 127.05313Q81.31563 124.39688 80.69063 123.537506Q80.08125 122.662506 79.15938 122.662506Q78.25313 122.662506 77.70625 123.42813Q77.03438 124.412506 77.03438 127.05313Z" fill-rule="nonzero"/><path fill="#000000" d="M72.64375 32.55L71.31563 32.55L71.31563 24.14375Q70.84688 24.596874 70.06563 25.065624Q69.3 25.51875 68.69063 25.7375L68.69063 24.45625Q69.78438 23.940624 70.6125 23.20625Q71.44063 22.471874 71.78438 21.76875L72.64375 21.76875L72.64375 32.55ZM75.675 29.7375L77.05 29.6125Q77.20625 30.628124 77.76875 31.14375Q78.33125 31.64375 79.12813 31.64375Q80.08125 31.64375 80.7375 30.925Q81.39375 30.20625 81.39375 29.034374Q81.39375 27.89375 80.75313 27.253124Q80.12813 26.596874 79.09688 26.596874Q78.45625 26.596874 77.94063 26.89375Q77.44063 27.175 77.14375 27.628124L75.90938 27.471874L76.94063 21.95625L82.28438 21.95625L82.28438 23.221874L78.00313 23.221874L77.425 26.096874Q78.39375 25.425 79.45625 25.425Q80.8625 25.425 81.81563 26.409374Q82.78438 27.378124 82.78438 28.909374Q82.78438 30.3625 81.94063 31.425Q80.90938 32.7375 79.12813 32.7375Q77.65938 32.7375 76.72188 31.925Q75.8 31.096874 75.675 29.7375Z" fill-rule="nonzero"/><path fill="#000000" d="M136.94707 348.45L141.07207 337.71564L142.58769 337.71564L146.99394 348.45L145.36894 348.45L144.11894 345.2L139.63457 345.2L138.44707 348.45L136.94707 348.45ZM140.04082 344.04376L143.68144 344.04376L142.55644 341.0594Q142.04082 339.71564 141.79082 338.84064Q141.58769 339.8719 141.21269 340.8875L140.04082 344.04376ZM147.07207 348.45L147.07207 337.71564L149.21269 337.71564L151.75957 345.3094Q152.10332 346.3719 152.27519 346.90314Q152.44707 346.325 152.83769 345.1844L155.41582 337.71564L157.32207 337.71564L157.32207 348.45L155.94707 348.45L155.94707 339.46564L152.83769 348.45L151.55644 348.45L148.44707 339.3094L148.44707 348.45L147.07207 348.45ZM166.25957 347.29376Q167.24394 347.98126 168.08769 348.29376L167.66582 349.27814Q166.50957 348.8719 165.35332 347.96564Q164.16582 348.6375 162.71269 348.6375Q161.25957 348.6375 160.07207 347.9344Q158.88457 347.23126 158.24394 345.96564Q157.60332 344.6844 157.60332 343.075Q157.60332 341.4969 158.24394 340.2Q158.90019 338.8875 160.08769 338.21564Q161.27519 337.52814 162.74394 337.52814Q164.22832 337.52814 165.41582 338.23126Q166.61894 338.9344 167.24394 340.21564Q167.86894 341.48126 167.86894 343.075Q167.86894 344.40314 167.46269 345.46564Q167.07207 346.5125 166.25957 347.29376ZM163.13457 345.48126Q164.35332 345.825 165.16582 346.5125Q166.41582 345.3719 166.41582 343.075Q166.41582 341.7625 165.96269 340.79376Q165.52519 339.825 164.66582 339.29376Q163.82207 338.7469 162.75957 338.7469Q161.16582 338.7469 160.11894 339.84064Q159.07207 340.91876 159.07207 343.075Q159.07207 345.16876 160.10332 346.29376Q161.15019 347.41876 162.75957 347.41876Q163.52519 347.41876 164.19707 347.1375Q163.52519 346.7 162.79082 346.5125L163.13457 345.48126ZM170.11894 348.45L170.11894 337.71564L174.16582 337.71564Q175.24394 337.71564 175.80644 337.8094Q176.58769 337.95 177.11894 338.325Q177.66582 338.6844 177.99394 339.35626Q178.32207 340.0125 178.32207 340.825Q178.32207 342.1844 177.44707 343.1375Q176.57207 344.09064 174.29082 344.09064L171.54082 344.09064L171.54082 348.45L170.11894 348.45ZM171.54082 342.825L174.32207 342.825Q175.69707 342.825 176.27519 342.3094Q176.85332 341.79376 176.85332 340.85626Q176.85332 340.1844 176.50957 339.71564Q176.16582 339.23126 175.61894 339.075Q175.25957 338.98126 174.29082 338.98126L171.54082 338.98126L171.54082 342.825ZM188.55644 348.45L187.22832 348.45L187.22832 340.04376Q186.75957 340.4969 185.97832 340.96564Q185.21269 341.41876 184.60332 341.6375L184.60332 340.35626Q185.69707 339.84064 186.52519 339.10626Q187.35332 338.3719 187.69707 337.66876L188.55644 337.66876L188.55644 348.45ZM192.32207 348.45L192.32207 346.95L193.82207 346.95L193.82207 348.45L192.32207 348.45ZM195.58769 343.15314Q195.58769 341.2469 195.97832 340.09064Q196.36894 338.9344 197.13457 338.3094Q197.91582 337.66876 199.08769 337.66876Q199.94707 337.66876 200.60332 338.02814Q201.25957 338.3719 201.68144 339.02814Q202.10332 339.66876 202.33769 340.6219Q202.58769 341.5594 202.58769 343.15314Q202.58769 345.04376 202.19707 346.21564Q201.80644 347.3719 201.02519 348.0125Q200.25957 348.6375 199.08769 348.6375Q197.54082 348.6375 196.65019 347.5125Q195.58769 346.1844 195.58769 343.15314ZM196.94707 343.15314Q196.94707 345.79376 197.55644 346.66876Q198.18144 347.54376 199.08769 347.54376Q199.99394 347.54376 200.60332 346.66876Q201.22832 345.79376 201.22832 343.15314Q201.22832 340.4969 200.60332 339.6375Q199.99394 338.7625 199.07207 338.7625Q198.16582 338.7625 197.61894 339.52814Q196.94707 340.5125 196.94707 343.15314ZM207.96269 339.23126L207.96269 337.71564L209.27519 337.71564L209.27519 339.23126L207.96269 339.23126ZM207.96269 348.45L207.96269 340.66876L209.27519 340.66876L209.27519 348.45L207.96269 348.45ZM210.94707 348.45L210.94707 340.66876L212.13457 340.66876L212.13457 341.77814Q212.99394 340.4969 214.61894 340.4969Q215.32207 340.4969 215.90019 340.7469Q216.49394 340.9969 216.79082 341.41876Q217.08769 341.825 217.19707 342.3875Q217.27519 342.7469 217.27519 343.66876L217.27519 348.45L215.94707 348.45L215.94707 343.71564Q215.94707 342.91876 215.79082 342.52814Q215.65019 342.1219 215.25957 341.8875Q214.86894 341.6375 214.33769 341.6375Q213.49394 341.6375 212.88457 342.16876Q212.27519 342.7 212.27519 344.2L212.27519 348.45L210.94707 348.45ZM226.80644 348.45L226.80644 345.8719L222.15019 345.8719L222.15019 344.66876L227.05644 337.71564L228.13457 337.71564L228.13457 344.66876L229.58769 344.66876L229.58769 345.8719L228.13457 345.8719L228.13457 348.45L226.80644 348.45ZM226.80644 344.66876L226.80644 339.825L223.44707 344.66876L226.80644 344.66876ZM231.32207 348.45L231.32207 346.95L232.82207 346.95L232.82207 348.45L231.32207 348.45ZM234.58769 343.15314Q234.58769 341.2469 234.97832 340.09064Q235.36894 338.9344 236.13457 338.3094Q236.91582 337.66876 238.08769 337.66876Q238.94707 337.66876 239.60332 338.02814Q240.25957 338.3719 240.68144 339.02814Q241.10332 339.66876 241.33769 340.6219Q241.58769 341.5594 241.58769 343.15314Q241.58769 345.04376 241.19707 346.21564Q240.80644 347.3719 240.02519 348.0125Q239.25957 348.6375 238.08769 348.6375Q236.54082 348.6375 235.65019 347.5125Q234.58769 346.1844 234.58769 343.15314ZM235.94707 343.15314Q235.94707 345.79376 236.55644 346.66876Q237.18144 347.54376 238.08769 347.54376Q238.99394 347.54376 239.60332 346.66876Q240.22832 345.79376 240.22832 343.15314Q240.22832 340.4969 239.60332 339.6375Q238.99394 338.7625 238.07207 338.7625Q237.16582 338.7625 236.61894 339.52814Q235.94707 340.5125 235.94707 343.15314Z" fill-rule="nonzero"/><path fill="#000000" d="M279.48438 348.45L283.60938 337.71564L285.125 337.71564L289.53125 348.45L287.90625 348.45L286.65625 345.2L282.17188 345.2L280.98438 348.45L279.48438 348.45ZM282.57812 344.04376L286.21875 344.04376L285.09375 341.0594Q284.57812 339.71564 284.32812 338.84064Q284.125 339.8719 283.75 340.8875L282.57812 344.04376ZM289.60938 348.45L289.60938 337.71564L291.75 337.71564L294.29688 345.3094Q294.64062 346.3719 294.8125 346.90314Q294.98438 346.325 295.375 345.1844L297.95312 337.71564L299.85938 337.71564L299.85938 348.45L298.48438 348.45L298.48438 339.46564L295.375 348.45L294.09375 348.45L290.98438 339.3094L290.98438 348.45L289.60938 348.45ZM308.79688 347.29376Q309.78125 347.98126 310.625 348.29376L310.20312 349.27814Q309.04688 348.8719 307.89062 347.96564Q306.70312 348.6375 305.25 348.6375Q303.79688 348.6375 302.60938 347.9344Q301.42188 347.23126 300.78125 345.96564Q300.14062 344.6844 300.14062 343.075Q300.14062 341.4969 300.78125 340.2Q301.4375 338.8875 302.625 338.21564Q303.8125 337.52814 305.28125 337.52814Q306.76562 337.52814 307.95312 338.23126Q309.15625 338.9344 309.78125 340.21564Q310.40625 341.48126 310.40625 343.075Q310.40625 344.40314 310.0 345.46564Q309.60938 346.5125 308.79688 347.29376ZM305.67188 345.48126Q306.89062 345.825 307.70312 346.5125Q308.95312 345.3719 308.95312 343.075Q308.95312 341.7625 308.5 340.79376Q308.0625 339.825 307.20312 339.29376Q306.35938 338.7469 305.29688 338.7469Q303.70312 338.7469 302.65625 339.84064Q301.60938 340.91876 301.60938 343.075Q301.60938 345.16876 302.64062 346.29376Q303.6875 347.41876 305.29688 347.41876Q306.0625 347.41876 306.73438 347.1375Q306.0625 346.7 305.32812 346.5125L305.67188 345.48126ZM312.65625 348.45L312.65625 337.71564L316.70312 337.71564Q317.78125 337.71564 318.34375 337.8094Q319.125 337.95 319.65625 338.325Q320.20312 338.6844 320.53125 339.35626Q320.85938 340.0125 320.85938 340.825Q320.85938 342.1844 319.98438 343.1375Q319.10938 344.09064 316.82812 344.09064L314.07812 344.09064L314.07812 348.45L312.65625 348.45ZM314.07812 342.825L316.85938 342.825Q318.23438 342.825 318.8125 342.3094Q319.39062 341.79376 319.39062 340.85626Q319.39062 340.1844 319.04688 339.71564Q318.70312 339.23126 318.15625 339.075Q317.79688 338.98126 316.82812 338.98126L314.07812 338.98126L314.07812 342.825ZM331.09375 348.45L329.76562 348.45L329.76562 340.04376Q329.29688 340.4969 328.51562 340.96564Q327.75 341.41876 327.14062 341.6375L327.14062 340.35626Q328.23438 339.84064 329.0625 339.10626Q329.89062 338.3719 330.23438 337.66876L331.09375 337.66876L331.09375 348.45ZM334.85938 348.45L334.85938 346.95L336.35938 346.95L336.35938 348.45L334.85938 348.45ZM338.125 343.15314Q338.125 341.2469 338.51562 340.09064Q338.90625 338.9344 339.67188 338.3094Q340.45312 337.66876 341.625 337.66876Q342.48438 337.66876 343.14062 338.02814Q343.79688 338.3719 344.21875 339.02814Q344.64062 339.66876 344.875 340.6219Q345.125 341.5594 345.125 343.15314Q345.125 345.04376 344.73438 346.21564Q344.34375 347.3719 343.5625 348.0125Q342.79688 348.6375 341.625 348.6375Q340.07812 348.6375 339.1875 347.5125Q338.125 346.1844 338.125 343.15314ZM339.48438 343.15314Q339.48438 345.79376 340.09375 346.66876Q340.71875 347.54376 341.625 347.54376Q342.53125 347.54376 343.14062 346.66876Q343.76562 345.79376 343.76562 343.15314Q343.76562 340.4969 343.14062 339.6375Q342.53125 338.7625 341.60938 338.7625Q340.70312 338.7625 340.15625 339.52814Q339.48438 340.5125 339.48438 343.15314ZM350.5 339.23126L350.5 337.71564L351.8125 337.71564L351.8125 339.23126L350.5 339.23126ZM350.5 348.45L350.5 340.66876L351.8125 340.66876L351.8125 348.45L350.5 348.45ZM353.48438 348.45L353.48438 340.66876L354.67188 340.66876L354.67188 341.77814Q355.53125 340.4969 357.15625 340.4969Q357.85938 340.4969 358.4375 340.7469Q359.03125 340.9969 359.32812 341.41876Q359.625 341.825 359.73438 342.3875Q359.8125 342.7469 359.8125 343.66876L359.8125 348.45L358.48438 348.45L358.48438 343.71564Q358.48438 342.91876 358.32812 342.52814Q358.1875 342.1219 357.79688 341.8875Q357.40625 341.6375 356.875 341.6375Q356.03125 341.6375 355.42188 342.16876Q354.8125 342.7 354.8125 344.2L354.8125 348.45L353.48438 348.45ZM365.125 345.6219L366.45312 345.4344Q366.67188 346.5594 367.21875 347.0594Q367.76562 347.54376 368.54688 347.54376Q369.48438 347.54376 370.125 346.90314Q370.76562 346.2625 370.76562 345.3094Q370.76562 344.40314 370.17188 343.8094Q369.57812 343.21564 368.65625 343.21564Q368.28125 343.21564 367.73438 343.3719L367.875 342.21564Q368.01562 342.23126 368.09375 342.23126Q368.9375 342.23126 369.60938 341.79376Q370.28125 341.34064 370.28125 340.4344Q370.28125 339.7 369.78125 339.23126Q369.29688 338.7469 368.51562 338.7469Q367.75 338.7469 367.23438 339.23126Q366.73438 339.71564 366.57812 340.6844L365.26562 340.45Q365.5 339.1219 366.35938 338.40314Q367.21875 337.66876 368.48438 337.66876Q369.375 337.66876 370.10938 338.04376Q370.84375 338.41876 371.23438 339.075Q371.64062 339.73126 371.64062 340.46564Q371.64062 341.15314 371.26562 341.73126Q370.89062 342.29376 370.15625 342.6375Q371.10938 342.85626 371.625 343.54376Q372.15625 344.23126 372.15625 345.27814Q372.15625 346.6844 371.125 347.66876Q370.10938 348.6375 368.54688 348.6375Q367.125 348.6375 366.1875 347.79376Q365.26562 346.95 365.125 345.6219ZM373.85938 348.45L373.85938 346.95L375.35938 346.95L375.35938 348.45L373.85938 348.45ZM382.09375 348.45L380.76562 348.45L380.76562 340.04376Q380.29688 340.4969 379.51562 340.96564Q378.75 341.41876 378.14062 341.6375L378.14062 340.35626Q379.23438 339.84064 380.0625 339.10626Q380.89062 338.3719 381.23438 337.66876L382.09375 337.66876L382.09375 348.45ZM385.125 345.6219L386.45312 345.4344Q386.67188 346.5594 387.21875 347.0594Q387.76562 347.54376 388.54688 347.54376Q389.48438 347.54376 390.125 346.90314Q390.76562 346.2625 390.76562 345.3094Q390.76562 344.40314 390.17188 343.8094Q389.57812 343.21564 388.65625 343.21564Q388.28125 343.21564 387.73438 343.3719L387.875 342.21564Q388.01562 342.23126 388.09375 342.23126Q388.9375 342.23126 389.60938 341.79376Q390.28125 341.34064 390.28125 340.4344Q390.28125 339.7 389.78125 339.23126Q389.29688 338.7469 388.51562 338.7469Q387.75 338.7469 387.23438 339.23126Q386.73438 339.71564 386.57812 340.6844L385.26562 340.45Q385.5 339.1219 386.35938 338.40314Q387.21875 337.66876 388.48438 337.66876Q389.375 337.66876 390.10938 338.04376Q390.84375 338.41876 391.23438 339.075Q391.64062 339.73126 391.64062 340.46564Q391.64062 341.15314 391.26562 341.73126Q390.89062 342.29376 390.15625 342.6375Q391.10938 342.85626 391.625 343.54376Q392.15625 344.23126 392.15625 345.27814Q392.15625 346.6844 391.125 347.66876Q390.10938 348.6375 388.54688 348.6375Q387.125 348.6375 386.1875 347.79376Q385.26562 346.95 385.125 345.6219Z" fill-rule="nonzero"/><path fill="#000000" d="M424.0217 348.45L428.1467 337.71564L429.66232 337.71564L434.06857 348.45L432.44357 348.45L431.19357 345.2L426.7092 345.2L425.5217 348.45L424.0217 348.45ZM427.11545 344.04376L430.75607 344.04376L429.63107 341.0594Q429.11545 339.71564 428.86545 338.84064Q428.66232 339.8719 428.28732 340.8875L427.11545 344.04376ZM434.1467 348.45L434.1467 337.71564L436.28732 337.71564L438.8342 345.3094Q439.17795 346.3719 439.34982 346.90314Q439.5217 346.325 439.91232 345.1844L442.49045 337.71564L444.3967 337.71564L444.3967 348.45L443.0217 348.45L443.0217 339.46564L439.91232 348.45L438.63107 348.45L435.5217 339.3094L435.5217 348.45L434.1467 348.45ZM453.3342 347.29376Q454.31857 347.98126 455.16232 348.29376L454.74045 349.27814Q453.5842 348.8719 452.42795 347.96564Q451.24045 348.6375 449.78732 348.6375Q448.3342 348.6375 447.1467 347.9344Q445.9592 347.23126 445.31857 345.96564Q444.67795 344.6844 444.67795 343.075Q444.67795 341.4969 445.31857 340.2Q445.97482 338.8875 447.16232 338.21564Q448.34982 337.52814 449.81857 337.52814Q451.30295 337.52814 452.49045 338.23126Q453.69357 338.9344 454.31857 340.21564Q454.94357 341.48126 454.94357 343.075Q454.94357 344.40314 454.53732 345.46564Q454.1467 346.5125 453.3342 347.29376ZM450.2092 345.48126Q451.42795 345.825 452.24045 346.5125Q453.49045 345.3719 453.49045 343.075Q453.49045 341.7625 453.03732 340.79376Q452.59982 339.825 451.74045 339.29376Q450.8967 338.7469 449.8342 338.7469Q448.24045 338.7469 447.19357 339.84064Q446.1467 340.91876 446.1467 343.075Q446.1467 345.16876 447.17795 346.29376Q448.22482 347.41876 449.8342 347.41876Q450.59982 347.41876 451.2717 347.1375Q450.59982 346.7 449.86545 346.5125L450.2092 345.48126ZM457.19357 348.45L457.19357 337.71564L461.24045 337.71564Q462.31857 337.71564 462.88107 337.8094Q463.66232 337.95 464.19357 338.325Q464.74045 338.6844 465.06857 339.35626Q465.3967 340.0125 465.3967 340.825Q465.3967 342.1844 464.5217 343.1375Q463.6467 344.09064 461.36545 344.09064L458.61545 344.09064L458.61545 348.45L457.19357 348.45ZM458.61545 342.825L461.3967 342.825Q462.7717 342.825 463.34982 342.3094Q463.92795 341.79376 463.92795 340.85626Q463.92795 340.1844 463.5842 339.71564Q463.24045 339.23126 462.69357 339.075Q462.3342 338.98126 461.36545 338.98126L458.61545 338.98126L458.61545 342.825ZM470.66232 343.15314Q470.66232 341.2469 471.05295 340.09064Q471.44357 338.9344 472.2092 338.3094Q472.99045 337.66876 474.16232 337.66876Q475.0217 337.66876 475.67795 338.02814Q476.3342 338.3719 476.75607 339.02814Q477.17795 339.66876 477.41232 340.6219Q477.66232 341.5594 477.66232 343.15314Q477.66232 345.04376 477.2717 346.21564Q476.88107 347.3719 476.09982 348.0125Q475.3342 348.6375 474.16232 348.6375Q472.61545 348.6375 471.72482 347.5125Q470.66232 346.1844 470.66232 343.15314ZM472.0217 343.15314Q472.0217 345.79376 472.63107 346.66876Q473.25607 347.54376 474.16232 347.54376Q475.06857 347.54376 475.67795 346.66876Q476.30295 345.79376 476.30295 343.15314Q476.30295 340.4969 475.67795 339.6375Q475.06857 338.7625 474.1467 338.7625Q473.24045 338.7625 472.69357 339.52814Q472.0217 340.5125 472.0217 343.15314ZM479.3967 348.45L479.3967 346.95L480.8967 346.95L480.8967 348.45L479.3967 348.45ZM482.86545 345.96564L484.13107 345.85626Q484.28732 346.7469 484.74045 347.15314Q485.19357 347.54376 485.91232 347.54376Q486.50607 347.54376 486.9592 347.27814Q487.42795 346.9969 487.72482 346.52814Q488.0217 346.0594 488.2092 345.27814Q488.41232 344.48126 488.41232 343.65314Q488.41232 343.575 488.3967 343.40314Q488.00607 344.02814 487.31857 344.41876Q486.63107 344.8094 485.8342 344.8094Q484.50607 344.8094 483.5842 343.84064Q482.66232 342.8719 482.66232 341.29376Q482.66232 339.65314 483.61545 338.66876Q484.5842 337.66876 486.03732 337.66876Q487.0842 337.66876 487.94357 338.23126Q488.81857 338.79376 489.2717 339.84064Q489.72482 340.8875 489.72482 342.85626Q489.72482 344.91876 489.2717 346.1375Q488.8342 347.35626 487.94357 347.9969Q487.06857 348.6375 485.88107 348.6375Q484.61545 348.6375 483.81857 347.9344Q483.0217 347.23126 482.86545 345.96564ZM488.25607 341.23126Q488.25607 340.09064 487.6467 339.4344Q487.05295 338.7625 486.19357 338.7625Q485.31857 338.7625 484.66232 339.48126Q484.0217 340.2 484.0217 341.34064Q484.0217 342.35626 484.63107 342.9969Q485.25607 343.6375 486.16232 343.6375Q487.0842 343.6375 487.66232 342.9969Q488.25607 342.35626 488.25607 341.23126ZM491.3967 348.45L491.3967 346.95L492.8967 346.95L492.8967 348.45L491.3967 348.45ZM499.63107 348.45L498.30295 348.45L498.30295 340.04376Q497.8342 340.4969 497.05295 340.96564Q496.28732 341.41876 495.67795 341.6375L495.67795 340.35626Q496.7717 339.84064 497.59982 339.10626Q498.42795 338.3719 498.7717 337.66876L499.63107 337.66876L499.63107 348.45ZM507.03732 339.23126L507.03732 337.71564L508.34982 337.71564L508.34982 339.23126L507.03732 339.23126ZM507.03732 348.45L507.03732 340.66876L508.34982 340.66876L508.34982 348.45L507.03732 348.45ZM510.0217 348.45L510.0217 340.66876L511.2092 340.66876L511.2092 341.77814Q512.0686 340.4969 513.6936 340.4969Q514.3967 340.4969 514.97485 340.7469Q515.5686 340.9969 515.8655 341.41876Q516.16235 341.825 516.2717 342.3875Q516.34985 342.7469 516.34985 343.66876L516.34985 348.45L515.0217 348.45L515.0217 343.71564Q515.0217 342.91876 514.8655 342.52814Q514.72485 342.1219 514.3342 341.8875Q513.9436 341.6375 513.41235 341.6375Q512.5686 341.6375 511.9592 342.16876Q511.34982 342.7 511.34982 344.2L511.34982 348.45L510.0217 348.45ZM525.8811 348.45L525.8811 345.8719L521.22485 345.8719L521.22485 344.66876L526.1311 337.71564L527.2092 337.71564L527.2092 344.66876L528.66235 344.66876L528.66235 345.8719L527.2092 345.8719L527.2092 348.45L525.8811 348.45ZM525.8811 344.66876L525.8811 339.825L522.5217 344.66876L525.8811 344.66876ZM530.3967 348.45L530.3967 346.95L531.8967 346.95L531.8967 348.45L530.3967 348.45ZM533.66235 343.15314Q533.66235 341.2469 534.053 340.09064Q534.4436 338.9344 535.2092 338.3094Q535.9905 337.66876 537.16235 337.66876Q538.0217 337.66876 538.678 338.02814Q539.3342 338.3719 539.7561 339.02814Q540.178 339.66876 540.41235 340.6219Q540.66235 341.5594 540.66235 343.15314Q540.66235 345.04376 540.2717 346.21564Q539.8811 347.3719 539.09985 348.0125Q538.3342 348.6375 537.16235 348.6375Q535.6155 348.6375 534.72485 347.5125Q533.66235 346.1844 533.66235 343.15314ZM535.0217 343.15314Q535.0217 345.79376 535.6311 346.66876Q536.2561 347.54376 537.16235 347.54376Q538.0686 347.54376 538.678 346.66876Q539.303 345.79376 539.303 343.15314Q539.303 340.4969 538.678 339.6375Q538.0686 338.7625 537.1467 338.7625Q536.2405 338.7625 535.6936 339.52814Q535.0217 340.5125 535.0217 343.15314Z" fill-rule="nonzero"/></svg>