<svg version="1.1" viewBox="0.0 0.0 600.0 371.0" fill="none" stroke="none" stroke-linecap="square" stroke-miterlimit="10" width="600" height="371" xmlns:xlink="http://www.w3.org/1999/xlink" xmlns="http://www.w3.org/2000/svg"><path fill="#ffffff" d="M0 0L600.0 0L600.0 371.0L0 371.0L0 0Z" fill-rule="nonzero"/><path stroke="#333333" stroke-width="1.0" stroke-linecap="butt" d="M45.5 332.5L581.5 332.5" fill-rule="nonzero"/><path stroke="#cccccc" stroke-width="1.0" stroke-linecap="butt" d="M45.5 240.5L581.5 240.5" fill-rule="nonzero"/><path stroke="#cccccc" stroke-width="1.0" stroke-linecap="butt" d="M45.5 147.5L581.5 147.5" fill-rule="nonzero"/><path stroke="#cccccc" stroke-width="1.0" stroke-linecap="butt" d="M45.5 55.5L581.5 55.5" fill-rule="nonzero"/><path stroke="#e6e6e6" stroke-width="1.0" stroke-linecap="butt" d="M45.5 301.5L581.5 301.5" fill-rule="nonzero"/><path stroke="#e6e6e6" stroke-width="1.0" stroke-linecap="butt" d="M45.5 270.5L581.5 270.5" fill-rule="nonzero"/><path stroke="#e6e6e6" stroke-width="1.0" stroke-linecap="butt" d="M45.5 209.5L581.5 209.5" fill-rule="nonzero"/><path stroke="#e6e6e6" stroke-width="1.0" stroke-linecap="butt" d="M45.5 178.5L581.5 178.5" fill-rule="nonzero"/><path stroke="#e6e6e6" stroke-width="1.0" stroke-linecap="butt" d="M45.5 116.5L581.5 116.5" fill-rule="nonzero"/><path stroke="#e6e6e6" stroke-width="1.0" stroke-linecap="butt" d="M45.5 86.5L581.5 86.5" fill-rule="nonzero"/><clipPath id="id_0"><path d="M45.55 55.416668L581.45 55.416668L581.45 332.45L45.55 332.45L45.55 55.416668Z" clip-rule="nonzero"/></clipPath><path stroke="#000000" stroke-width="2.0" stroke-linecap="butt" stroke-opacity="0.0" clip-path="url(#id_0)" d="M206.0 332.0L102.0 332.0L102.0 236.0C102.0 234.89543 102.89543 234.0 104.0 234.0L204.0 234.0C205.10457 234.0 206.0 234.89543 206.0 236.0Z" fill-rule="nonzero"/><path fill="#4285f4" clip-path="url(#id_0)" d="M206.0 332.0L102.0 332.0L102.0 236.0C102.0 234.89543 102.89543 234.0 104.0 234.0L204.0 234.0C205.10457 234.0 206.0 234.89543 206.0 236.0Z" fill-rule="nonzero"/><path stroke="#000000" stroke-width="2.0" stroke-linecap="butt" stroke-opacity="0.0" clip-path="url(#id_0)" d="M366.0 332.0L262.0 332.0L262.0 112.0C262.0 110.89543 262.89542 110.0 264.0 110.0L364.0 110.0C365.10458 110.0 366.0 110.89543 366.0 112.0Z" fill-rule="nonzero"/><path fill="#4285f4" clip-path="url(#id_0)" d="M366.0 332.0L262.0 332.0L262.0 112.0C262.0 110.89543 262.89542 110.0 264.0 110.0L364.0 110.0C365.10458 110.0 366.0 110.89543 366.0 112.0Z" fill-rule="nonzero"/><path stroke="#000000" stroke-width="2.0" stroke-linecap="butt" stroke-opacity="0.0" clip-path="url(#id_0)" d="M525.0 332.0L421.0 332.0L421.0 235.0C421.0 233.89543 421.89542 233.0 423.0 233.0L523.0 233.0C524.10455 233.0 525.0 233.89543 525.0 235.0Z" fill-rule="nonzero"/><path fill="#4285f4" clip-path="url(#id_0)" d="M525.0 332.0L421.0 332.0L421.0 235.0C421.0 233.89543 421.89542 233.0 423.0 233.0L523.0 233.0C524.10455 233.0 525.0 233.89543 525.0 235.0Z" fill-rule="nonzero"/><path stroke="#4285f4" stroke-width="3.0" stroke-linejoin="round" stroke-linecap="round" d="M136.20312 246.51463L136.64062 242.26463L141.01562 242.26463L141.01562 243.26463L137.5625 243.26463L137.29688 245.59276Q137.9375 245.21776 138.73438 245.21776Q139.89062 245.21776 140.57812 245.99901Q141.26562 246.76463 141.26562 248.07713Q141.26562 249.38963 140.54688 250.15526Q139.84375 250.92088 138.5625 250.92088Q137.4375 250.92088 136.71875 250.29588Q136.0 249.65526 135.90625 248.54588L136.92188 248.54588Q137.03125 249.28026 137.45312 249.65526Q137.875 250.03026 138.5625 250.03026Q139.3125 250.03026 139.75 249.51463Q140.1875 248.99901 140.1875 248.09276Q140.1875 247.23338 139.71875 246.71776Q139.25 246.20213 138.46875 246.20213Q137.76562 246.20213 137.35938 246.49901L137.07812 246.73338L136.20312 246.51463ZM142.84375 250.23338Q142.84375 249.95213 143.0 249.76463Q143.17188 249.57713 143.5 249.57713Q143.84375 249.57713 144.01562 249.76463Q144.1875 249.95213 144.1875 250.23338Q144.1875 250.49901 144.01562 250.68651Q143.84375 250.85838 143.5 250.85838Q143.17188 250.85838 143.0 250.68651Q142.84375 250.49901 142.84375 250.23338ZM147.28125 245.99901L148.09375 245.99901Q148.875 245.98338 149.3125 245.59276Q149.75 245.20213 149.75 244.53026Q149.75 243.03026 148.25 243.03026Q147.54688 243.03026 147.125 243.43651Q146.71875 243.84276 146.71875 244.49901L145.625 244.49901Q145.625 243.48338 146.35938 242.81151Q147.10938 242.13963 148.25 242.13963Q149.45312 242.13963 150.14062 242.78026Q150.82812 243.42088 150.82812 244.56151Q150.82812 245.12401 150.46875 245.63963Q150.10938 246.15526 149.48438 246.42088Q150.1875 246.63963 150.5625 247.15526Q150.95312 247.67088 150.95312 248.42088Q150.95312 249.56151 150.20312 250.24901Q149.45312 250.92088 148.25 250.92088Q147.0625 250.92088 146.29688 250.26463Q145.54688 249.60838 145.54688 248.54588L146.64062 248.54588Q146.64062 249.21776 147.07812 249.62401Q147.51562 250.03026 148.26562 250.03026Q149.04688 250.03026 149.45312 249.62401Q149.875 249.20213 149.875 248.43651Q149.875 247.70213 149.42188 247.31151Q148.96875 246.90526 148.09375 246.88963L147.28125 246.88963L147.28125 245.99901ZM154.28125 245.99901L155.09375 245.99901Q155.875 245.98338 156.3125 245.59276Q156.75 245.20213 156.75 244.53026Q156.75 243.03026 155.25 243.03026Q154.54688 243.03026 154.125 243.43651Q153.71875 243.84276 153.71875 244.49901L152.625 244.49901Q152.625 243.48338 153.35938 242.81151Q154.10938 242.13963 155.25 242.13963Q156.45312 242.13963 157.14062 242.78026Q157.82812 243.42088 157.82812 244.56151Q157.82812 245.12401 157.46875 245.63963Q157.10938 246.15526 156.48438 246.42088Q157.1875 246.63963 157.5625 247.15526Q157.95312 247.67088 157.95312 248.42088Q157.95312 249.56151 157.20312 250.24901Q156.45312 250.92088 155.25 250.92088Q154.0625 250.92088 153.29688 250.26463Q152.54688 249.60838 152.54688 248.54588L153.64062 248.54588Q153.64062 249.21776 154.07812 249.62401Q154.51562 250.03026 155.26562 250.03026Q156.04688 250.03026 156.45312 249.62401Q156.875 249.20213 156.875 248.43651Q156.875 247.70213 156.42188 247.31151Q155.96875 246.90526 155.09375 246.88963L154.28125 246.88963L154.28125 245.99901ZM165.0625 247.15526Q165.0625 249.06151 164.40625 249.99901Q163.76562 250.92088 162.375 250.92088Q161.01562 250.92088 160.35938 250.01463Q159.70312 249.10838 159.67188 247.29588L159.67188 245.85838Q159.67188 243.96776 160.3125 243.06151Q160.96875 242.13963 162.35938 242.13963Q163.73438 242.13963 164.39062 243.03026Q165.04688 243.90526 165.0625 245.74901L165.0625 247.15526ZM163.96875 245.67088Q163.96875 244.29588 163.57812 243.67088Q163.20312 243.03026 162.35938 243.03026Q161.53125 243.03026 161.14062 243.67088Q160.76562 244.29588 160.76562 245.59276L160.76562 247.32713Q160.76562 248.70213 161.15625 249.37401Q161.5625 250.03026 162.375 250.03026Q163.17188 250.03026 163.5625 249.40526Q163.95312 248.78026 163.96875 247.45213L163.96875 245.67088ZM171.89062 244.48338Q171.89062 245.12401 171.54688 245.62401Q171.20312 246.12401 170.64062 246.40526Q171.29688 246.68651 171.6875 247.24901Q172.07812 247.79588 172.07812 248.49901Q172.07812 249.59276 171.32812 250.26463Q170.59375 250.92088 169.375 250.92088Q168.14062 250.92088 167.39062 250.26463Q166.65625 249.59276 166.65625 248.49901Q166.65625 247.79588 167.03125 247.24901Q167.40625 246.68651 168.07812 246.40526Q167.51562 246.12401 167.1875 245.62401Q166.85938 245.12401 166.85938 244.48338Q166.85938 243.40526 167.54688 242.78026Q168.23438 242.13963 169.375 242.13963Q170.5 242.13963 171.1875 242.78026Q171.89062 243.40526 171.89062 244.48338ZM171.0 248.46776Q171.0 247.74901 170.54688 247.31151Q170.09375 246.85838 169.35938 246.85838Q168.625 246.85838 168.17188 247.31151Q167.73438 247.74901 167.73438 248.48338Q167.73438 249.20213 168.17188 249.62401Q168.60938 250.03026 169.375 250.03026Q170.125 250.03026 170.5625 249.60838Q171.0 249.18651 171.0 248.46776ZM169.375 243.03026Q168.73438 243.03026 168.32812 243.43651Q167.9375 243.82713 167.9375 244.51463Q167.9375 245.15526 168.32812 245.56151Q168.71875 245.96776 169.35938 245.96776Q170.01562 245.96776 170.40625 245.56151Q170.79688 245.15526 170.79688 244.51463Q170.79688 243.85838 170.39062 243.45213Q169.98438 243.03026 169.375 243.03026Z" fill-rule="nonzero"/><path fill="#ffffff" d="M136.20312 246.51463L136.64062 242.26463L141.01562 242.26463L141.01562 243.26463L137.5625 243.26463L137.29688 245.59276Q137.9375 245.21776 138.73438 245.21776Q139.89062 245.21776 140.57812 245.99901Q141.26562 246.76463 141.26562 248.07713Q141.26562 249.38963 140.54688 250.15526Q139.84375 250.92088 138.5625 250.92088Q137.4375 250.92088 136.71875 250.29588Q136.0 249.65526 135.90625 248.54588L136.92188 248.54588Q137.03125 249.28026 137.45312 249.65526Q137.875 250.03026 138.5625 250.03026Q139.3125 250.03026 139.75 249.51463Q140.1875 248.99901 140.1875 248.09276Q140.1875 247.23338 139.71875 246.71776Q139.25 246.20213 138.46875 246.20213Q137.76562 246.20213 137.35938 246.49901L137.07812 246.73338L136.20312 246.51463ZM142.84375 250.23338Q142.84375 249.95213 143.0 249.76463Q143.17188 249.57713 143.5 249.57713Q143.84375 249.57713 144.01562 249.76463Q144.1875 249.95213 144.1875 250.23338Q144.1875 250.49901 144.01562 250.68651Q143.84375 250.85838 143.5 250.85838Q143.17188 250.85838 143.0 250.68651Q142.84375 250.49901 142.84375 250.23338ZM147.28125 245.99901L148.09375 245.99901Q148.875 245.98338 149.3125 245.59276Q149.75 245.20213 149.75 244.53026Q149.75 243.03026 148.25 243.03026Q147.54688 243.03026 147.125 243.43651Q146.71875 243.84276 146.71875 244.49901L145.625 244.49901Q145.625 243.48338 146.35938 242.81151Q147.10938 242.13963 148.25 242.13963Q149.45312 242.13963 150.14062 242.78026Q150.82812 243.42088 150.82812 244.56151Q150.82812 245.12401 150.46875 245.63963Q150.10938 246.15526 149.48438 246.42088Q150.1875 246.63963 150.5625 247.15526Q150.95312 247.67088 150.95312 248.42088Q150.95312 249.56151 150.20312 250.24901Q149.45312 250.92088 148.25 250.92088Q147.0625 250.92088 146.29688 250.26463Q145.54688 249.60838 145.54688 248.54588L146.64062 248.54588Q146.64062 249.21776 147.07812 249.62401Q147.51562 250.03026 148.26562 250.03026Q149.04688 250.03026 149.45312 249.62401Q149.875 249.20213 149.875 248.43651Q149.875 247.70213 149.42188 247.31151Q148.96875 246.90526 148.09375 246.88963L147.28125 246.88963L147.28125 245.99901ZM154.28125 245.99901L155.09375 245.99901Q155.875 245.98338 156.3125 245.59276Q156.75 245.20213 156.75 244.53026Q156.75 243.03026 155.25 243.03026Q154.54688 243.03026 154.125 243.43651Q153.71875 243.84276 153.71875 244.49901L152.625 244.49901Q152.625 243.48338 153.35938 242.81151Q154.10938 242.13963 155.25 242.13963Q156.45312 242.13963 157.14062 242.78026Q157.82812 243.42088 157.82812 244.56151Q157.82812 245.12401 157.46875 245.63963Q157.10938 246.15526 156.48438 246.42088Q157.1875 246.63963 157.5625 247.15526Q157.95312 247.67088 157.95312 248.42088Q157.95312 249.56151 157.20312 250.24901Q156.45312 250.92088 155.25 250.92088Q154.0625 250.92088 153.29688 250.26463Q152.54688 249.60838 152.54688 248.54588L153.64062 248.54588Q153.64062 249.21776 154.07812 249.62401Q154.51562 250.03026 155.26562 250.03026Q156.04688 250.03026 156.45312 249.62401Q156.875 249.20213 156.875 248.43651Q156.875 247.70213 156.42188 247.31151Q155.96875 246.90526 155.09375 246.88963L154.28125 246.88963L154.28125 245.99901ZM165.0625 247.15526Q165.0625 249.06151 164.40625 249.99901Q163.76562 250.92088 162.375 250.92088Q161.01562 250.92088 160.35938 250.01463Q159.70312 249.10838 159.67188 247.29588L159.67188 245.85838Q159.67188 243.96776 160.3125 243.06151Q160.96875 242.13963 162.35938 242.13963Q163.73438 242.13963 164.39062 243.03026Q165.04688 243.90526 165.0625 245.74901L165.0625 247.15526ZM163.96875 245.67088Q163.96875 244.29588 163.57812 243.67088Q163.20312 243.03026 162.35938 243.03026Q161.53125 243.03026 161.14062 243.67088Q160.76562 244.29588 160.76562 245.59276L160.76562 247.32713Q160.76562 248.70213 161.15625 249.37401Q161.5625 250.03026 162.375 250.03026Q163.17188 250.03026 163.5625 249.40526Q163.95312 248.78026 163.96875 247.45213L163.96875 245.67088ZM171.89062 244.48338Q171.89062 245.12401 171.54688 245.62401Q171.20312 246.12401 170.64062 246.40526Q171.29688 246.68651 171.6875 247.24901Q172.07812 247.79588 172.07812 248.49901Q172.07812 249.59276 171.32812 250.26463Q170.59375 250.92088 169.375 250.92088Q168.14062 250.92088 167.39062 250.26463Q166.65625 249.59276 166.65625 248.49901Q166.65625 247.79588 167.03125 247.24901Q167.40625 246.68651 168.07812 246.40526Q167.51562 246.12401 167.1875 245.62401Q166.85938 245.12401 166.85938 244.48338Q166.85938 243.40526 167.54688 242.78026Q168.23438 242.13963 169.375 242.13963Q170.5 242.13963 171.1875 242.78026Q171.89062 243.40526 171.89062 244.48338ZM171.0 248.46776Q171.0 247.74901 170.54688 247.31151Q170.09375 246.85838 169.35938 246.85838Q168.625 246.85838 168.17188 247.31151Q167.73438 247.74901 167.73438 248.48338Q167.73438 249.20213 168.17188 249.62401Q168.60938 250.03026 169.375 250.03026Q170.125 250.03026 170.5625 249.60838Q171.0 249.18651 171.0 248.46776ZM169.375 243.03026Q168.73438 243.03026 168.32812 243.43651Q167.9375 243.82713 167.9375 244.51463Q167.9375 245.15526 168.32812 245.56151Q168.71875 245.96776 169.35938 245.96776Q170.01562 245.96776 170.40625 245.56151Q170.79688 245.15526 170.79688 244.51463Q170.79688 243.85838 170.39062 243.45213Q169.98438 243.03026 169.375 243.03026Z" fill-rule="nonzero"/><path stroke="#4285f4" stroke-width="3.0" stroke-linejoin="round" stroke-linecap="round" d="M295.76562 126.39896L294.6875 126.39896L294.6875 119.18021L292.5 119.97708L292.5 118.99271L295.60938 117.82083L295.76562 117.82083L295.76562 126.39896ZM304.79688 126.39896L299.20312 126.39896L299.20312 125.61771L302.15625 122.33646Q302.8125 121.58646 303.0625 121.13333Q303.3125 120.66458 303.3125 120.16458Q303.3125 119.49271 302.90625 119.07083Q302.51562 118.63333 301.82812 118.63333Q301.03125 118.63333 300.57812 119.10208Q300.125 119.55521 300.125 120.38333L299.04688 120.38333Q299.04688 119.19583 299.79688 118.47708Q300.5625 117.74271 301.82812 117.74271Q303.03125 117.74271 303.71875 118.36771Q304.40625 118.99271 304.40625 120.03958Q304.40625 121.28958 302.79688 123.03958L300.51562 125.50833L304.79688 125.50833L304.79688 126.39896ZM306.34375 125.83646Q306.34375 125.55521 306.5 125.36771Q306.67188 125.18021 307.0 125.18021Q307.34375 125.18021 307.51562 125.36771Q307.6875 125.55521 307.6875 125.83646Q307.6875 126.10208 307.51562 126.28958Q307.34375 126.46146 307.0 126.46146Q306.67188 126.46146 306.5 126.28958Q306.34375 126.10208 306.34375 125.83646ZM314.5625 122.75833Q314.5625 124.66458 313.90625 125.60208Q313.26562 126.52396 311.875 126.52396Q310.51562 126.52396 309.85938 125.61771Q309.20312 124.71146 309.17188 122.89896L309.17188 121.46146Q309.17188 119.57083 309.8125 118.66458Q310.46875 117.74271 311.85938 117.74271Q313.23438 117.74271 313.89062 118.63333Q314.54688 119.50833 314.5625 121.35208L314.5625 122.75833ZM313.46875 121.27396Q313.46875 119.89896 313.07812 119.27396Q312.70312 118.63333 311.85938 118.63333Q311.03125 118.63333 310.64062 119.27396Q310.26562 119.89896 310.26562 121.19583L310.26562 122.93021Q310.26562 124.30521 310.65625 124.97708Q311.0625 125.63333 311.875 125.63333Q312.67188 125.63333 313.0625 125.00833Q313.45312 124.38333 313.46875 123.05521L313.46875 121.27396ZM320.46875 117.86771L320.46875 118.77396L320.26562 118.77396Q319.0 118.80521 318.25 119.53958Q317.5 120.25833 317.375 121.57083Q318.0625 120.80521 319.21875 120.80521Q320.32812 120.80521 321.0 121.58646Q321.67188 122.36771 321.67188 123.61771Q321.67188 124.93021 320.95312 125.72708Q320.23438 126.52396 319.01562 126.52396Q317.79688 126.52396 317.03125 125.58646Q316.28125 124.63333 316.28125 123.14896L316.28125 122.74271Q316.28125 120.38333 317.28125 119.13333Q318.28125 117.88333 320.26562 117.86771L320.46875 117.86771ZM319.04688 121.71146Q318.48438 121.71146 318.01562 122.03958Q317.54688 122.36771 317.35938 122.88333L317.35938 123.27396Q317.35938 124.33646 317.82812 124.97708Q318.3125 125.61771 319.01562 125.61771Q319.75 125.61771 320.17188 125.08646Q320.59375 124.53958 320.59375 123.66458Q320.59375 122.78958 320.17188 122.25833Q319.75 121.71146 319.04688 121.71146ZM327.46875 117.86771L327.46875 118.77396L327.26562 118.77396Q326.0 118.80521 325.25 119.53958Q324.5 120.25833 324.375 121.57083Q325.0625 120.80521 326.21875 120.80521Q327.32812 120.80521 328.0 121.58646Q328.67188 122.36771 328.67188 123.61771Q328.67188 124.93021 327.95312 125.72708Q327.23438 126.52396 326.01562 126.52396Q324.79688 126.52396 324.03125 125.58646Q323.28125 124.63333 323.28125 123.14896L323.28125 122.74271Q323.28125 120.38333 324.28125 119.13333Q325.28125 117.88333 327.26562 117.86771L327.46875 117.86771ZM326.04688 121.71146Q325.48438 121.71146 325.01562 122.03958Q324.54688 122.36771 324.35938 122.88333L324.35938 123.27396Q324.35938 124.33646 324.82812 124.97708Q325.3125 125.61771 326.01562 125.61771Q326.75 125.61771 327.17188 125.08646Q327.59375 124.53958 327.59375 123.66458Q327.59375 122.78958 327.17188 122.25833Q326.75 121.71146 326.04688 121.71146ZM331.78125 121.60208L332.59375 121.60208Q333.375 121.58646 333.8125 121.19583Q334.25 120.80521 334.25 120.13333Q334.25 118.63333 332.75 118.63333Q332.04688 118.63333 331.625 119.03958Q331.21875 119.44583 331.21875 120.10208L330.125 120.10208Q330.125 119.08646 330.85938 118.41458Q331.60938 117.74271 332.75 117.74271Q333.95312 117.74271 334.64062 118.38333Q335.32812 119.02396 335.32812 120.16458Q335.32812 120.72708 334.96875 121.24271Q334.60938 121.75833 333.98438 122.02396Q334.6875 122.24271 335.0625 122.75833Q335.45312 123.27396 335.45312 124.02396Q335.45312 125.16458 334.70312 125.85208Q333.95312 126.52396 332.75 126.52396Q331.5625 126.52396 330.79688 125.86771Q330.04688 125.21146 330.04688 124.14896L331.14062 124.14896Q331.14062 124.82083 331.57812 125.22708Q332.01562 125.63333 332.76562 125.63333Q333.54688 125.63333 333.95312 125.22708Q334.375 124.80521 334.375 124.03958Q334.375 123.30521 333.92188 122.91458Q333.46875 122.50833 332.59375 122.49271L331.78125 122.49271L331.78125 121.60208Z" fill-rule="nonzero"/><path fill="#ffffff" d="M295.76562 126.39896L294.6875 126.39896L294.6875 119.18021L292.5 119.97708L292.5 118.99271L295.60938 117.82083L295.76562 117.82083L295.76562 126.39896ZM304.79688 126.39896L299.20312 126.39896L299.20312 125.61771L302.15625 122.33646Q302.8125 121.58646 303.0625 121.13333Q303.3125 120.66458 303.3125 120.16458Q303.3125 119.49271 302.90625 119.07083Q302.51562 118.63333 301.82812 118.63333Q301.03125 118.63333 300.57812 119.10208Q300.125 119.55521 300.125 120.38333L299.04688 120.38333Q299.04688 119.19583 299.79688 118.47708Q300.5625 117.74271 301.82812 117.74271Q303.03125 117.74271 303.71875 118.36771Q304.40625 118.99271 304.40625 120.03958Q304.40625 121.28958 302.79688 123.03958L300.51562 125.50833L304.79688 125.50833L304.79688 126.39896ZM306.34375 125.83646Q306.34375 125.55521 306.5 125.36771Q306.67188 125.18021 307.0 125.18021Q307.34375 125.18021 307.51562 125.36771Q307.6875 125.55521 307.6875 125.83646Q307.6875 126.10208 307.51562 126.28958Q307.34375 126.46146 307.0 126.46146Q306.67188 126.46146 306.5 126.28958Q306.34375 126.10208 306.34375 125.83646ZM314.5625 122.75833Q314.5625 124.66458 313.90625 125.60208Q313.26562 126.52396 311.875 126.52396Q310.51562 126.52396 309.85938 125.61771Q309.20312 124.71146 309.17188 122.89896L309.17188 121.46146Q309.17188 119.57083 309.8125 118.66458Q310.46875 117.74271 311.85938 117.74271Q313.23438 117.74271 313.89062 118.63333Q314.54688 119.50833 314.5625 121.35208L314.5625 122.75833ZM313.46875 121.27396Q313.46875 119.89896 313.07812 119.27396Q312.70312 118.63333 311.85938 118.63333Q311.03125 118.63333 310.64062 119.27396Q310.26562 119.89896 310.26562 121.19583L310.26562 122.93021Q310.26562 124.30521 310.65625 124.97708Q311.0625 125.63333 311.875 125.63333Q312.67188 125.63333 313.0625 125.00833Q313.45312 124.38333 313.46875 123.05521L313.46875 121.27396ZM320.46875 117.86771L320.46875 118.77396L320.26562 118.77396Q319.0 118.80521 318.25 119.53958Q317.5 120.25833 317.375 121.57083Q318.0625 120.80521 319.21875 120.80521Q320.32812 120.80521 321.0 121.58646Q321.67188 122.36771 321.67188 123.61771Q321.67188 124.93021 320.95312 125.72708Q320.23438 126.52396 319.01562 126.52396Q317.79688 126.52396 317.03125 125.58646Q316.28125 124.63333 316.28125 123.14896L316.28125 122.74271Q316.28125 120.38333 317.28125 119.13333Q318.28125 117.88333 320.26562 117.86771L320.46875 117.86771ZM319.04688 121.71146Q318.48438 121.71146 318.01562 122.03958Q317.54688 122.36771 317.35938 122.88333L317.35938 123.27396Q317.35938 124.33646 317.82812 124.97708Q318.3125 125.61771 319.01562 125.61771Q319.75 125.61771 320.17188 125.08646Q320.59375 124.53958 320.59375 123.66458Q320.59375 122.78958 320.17188 122.25833Q319.75 121.71146 319.04688 121.71146ZM327.46875 117.86771L327.46875 118.77396L327.26562 118.77396Q326.0 118.80521 325.25 119.53958Q324.5 120.25833 324.375 121.57083Q325.0625 120.80521 326.21875 120.80521Q327.32812 120.80521 328.0 121.58646Q328.67188 122.36771 328.67188 123.61771Q328.67188 124.93021 327.95312 125.72708Q327.23438 126.52396 326.01562 126.52396Q324.79688 126.52396 324.03125 125.58646Q323.28125 124.63333 323.28125 123.14896L323.28125 122.74271Q323.28125 120.38333 324.28125 119.13333Q325.28125 117.88333 327.26562 117.86771L327.46875 117.86771ZM326.04688 121.71146Q325.48438 121.71146 325.01562 122.03958Q324.54688 122.36771 324.35938 122.88333L324.35938 123.27396Q324.35938 124.33646 324.82812 124.97708Q325.3125 125.61771 326.01562 125.61771Q326.75 125.61771 327.17188 125.08646Q327.59375 124.53958 327.59375 123.66458Q327.59375 122.78958 327.17188 122.25833Q326.75 121.71146 326.04688 121.71146ZM331.78125 121.60208L332.59375 121.60208Q333.375 121.58646 333.8125 121.19583Q334.25 120.80521 334.25 120.13333Q334.25 118.63333 332.75 118.63333Q332.04688 118.63333 331.625 119.03958Q331.21875 119.44583 331.21875 120.10208L330.125 120.10208Q330.125 119.08646 330.85938 118.41458Q331.60938 117.74271 332.75 117.74271Q333.95312 117.74271 334.64062 118.38333Q335.32812 119.02396 335.32812 120.16458Q335.32812 120.72708 334.96875 121.24271Q334.60938 121.75833 333.98438 122.02396Q334.6875 122.24271 335.0625 122.75833Q335.45312 123.27396 335.45312 124.02396Q335.45312 125.16458 334.70312 125.85208Q333.95312 126.52396 332.75 126.52396Q331.5625 126.52396 330.79688 125.86771Q330.04688 125.21146 330.04688 124.14896L331.14062 124.14896Q331.14062 124.82083 331.57812 125.22708Q332.01562 125.63333 332.76562 125.63333Q333.54688 125.63333 333.95312 125.22708Q334.375 124.80521 334.375 124.03958Q334.375 123.30521 333.92188 122.91458Q333.46875 122.50833 332.59375 122.49271L331.78125 122.49271L331.78125 121.60208Z" fill-rule="nonzero"/><path stroke="#4285f4" stroke-width="3.0" stroke-linejoin="round" stroke-linecap="round" d="M455.20312 245.05643L455.64062 240.80643L460.01562 240.80643L460.01562 241.80643L456.5625 241.80643L456.29688 244.13455Q456.9375 243.75955 457.73438 243.75955Q458.89062 243.75955 459.57812 244.5408Q460.26562 245.30643 460.26562 246.61893Q460.26562 247.93143 459.54688 248.69705Q458.84375 249.46268 457.5625 249.46268Q456.4375 249.46268 455.71875 248.83768Q455.0 248.19705 454.90625 247.08768L455.92188 247.08768Q456.03125 247.82205 456.45312 248.19705Q456.875 248.57205 457.5625 248.57205Q458.3125 248.57205 458.75 248.05643Q459.1875 247.5408 459.1875 246.63455Q459.1875 245.77518 458.71875 245.25955Q458.25 244.74393 457.46875 244.74393Q456.76562 244.74393 456.35938 245.0408L456.07812 245.27518L455.20312 245.05643ZM461.84375 248.77518Q461.84375 248.49393 462.0 248.30643Q462.17188 248.11893 462.5 248.11893Q462.84375 248.11893 463.01562 248.30643Q463.1875 248.49393 463.1875 248.77518Q463.1875 249.0408 463.01562 249.2283Q462.84375 249.40018 462.5 249.40018Q462.17188 249.40018 462.0 249.2283Q461.84375 249.0408 461.84375 248.77518ZM469.28125 246.4783L470.46875 246.4783L470.46875 247.3533L469.28125 247.3533L469.28125 249.33768L468.20312 249.33768L468.20312 247.3533L464.3125 247.3533L464.3125 246.71268L468.125 240.80643L469.28125 240.80643L469.28125 246.4783ZM465.54688 246.4783L468.20312 246.4783L468.20312 242.2908L468.0625 242.52518L465.54688 246.4783ZM477.0625 245.69705Q477.0625 247.6033 476.40625 248.5408Q475.76562 249.46268 474.375 249.46268Q473.01562 249.46268 472.35938 248.55643Q471.70312 247.65018 471.67188 245.83768L471.67188 244.40018Q471.67188 242.50955 472.3125 241.6033Q472.96875 240.68143 474.35938 240.68143Q475.73438 240.68143 476.39062 241.57205Q477.04688 242.44705 477.0625 244.2908L477.0625 245.69705ZM475.96875 244.21268Q475.96875 242.83768 475.57812 242.21268Q475.20312 241.57205 474.35938 241.57205Q473.53125 241.57205 473.14062 242.21268Q472.76562 242.83768 472.76562 244.13455L472.76562 245.86893Q472.76562 247.24393 473.15625 247.9158Q473.5625 248.57205 474.375 248.57205Q475.17188 248.57205 475.5625 247.94705Q475.95312 247.32205 475.96875 245.99393L475.96875 244.21268ZM482.85938 245.58768Q482.53125 245.99393 482.04688 246.24393Q481.57812 246.4783 481.01562 246.4783Q480.28125 246.4783 479.73438 246.11893Q479.1875 245.75955 478.89062 245.1033Q478.59375 244.43143 478.59375 243.63455Q478.59375 242.7908 478.90625 242.1033Q479.23438 241.4158 479.82812 241.05643Q480.4375 240.68143 481.23438 240.68143Q482.5 240.68143 483.21875 241.63455Q483.95312 242.58768 483.95312 244.21268L483.95312 244.52518Q483.95312 247.02518 482.96875 248.1658Q481.98438 249.30643 480.0 249.33768L479.78125 249.33768L479.78125 248.43143L480.01562 248.43143Q481.35938 248.40018 482.07812 247.7283Q482.79688 247.05643 482.85938 245.58768ZM481.1875 245.58768Q481.73438 245.58768 482.1875 245.25955Q482.65625 244.9158 482.875 244.43143L482.875 243.99393Q482.875 242.93143 482.40625 242.25955Q481.9375 241.58768 481.23438 241.58768Q480.51562 241.58768 480.07812 242.13455Q479.65625 242.68143 479.65625 243.58768Q479.65625 244.46268 480.0625 245.02518Q480.48438 245.58768 481.1875 245.58768ZM490.89062 243.02518Q490.89062 243.6658 490.54688 244.1658Q490.20312 244.6658 489.64062 244.94705Q490.29688 245.2283 490.6875 245.7908Q491.07812 246.33768 491.07812 247.0408Q491.07812 248.13455 490.32812 248.80643Q489.59375 249.46268 488.375 249.46268Q487.14062 249.46268 486.39062 248.80643Q485.65625 248.13455 485.65625 247.0408Q485.65625 246.33768 486.03125 245.7908Q486.40625 245.2283 487.07812 244.94705Q486.51562 244.6658 486.1875 244.1658Q485.85938 243.6658 485.85938 243.02518Q485.85938 241.94705 486.54688 241.32205Q487.23438 240.68143 488.375 240.68143Q489.5 240.68143 490.1875 241.32205Q490.89062 241.94705 490.89062 243.02518ZM490.0 247.00955Q490.0 246.2908 489.54688 245.8533Q489.09375 245.40018 488.35938 245.40018Q487.625 245.40018 487.17188 245.8533Q486.73438 246.2908 486.73438 247.02518Q486.73438 247.74393 487.17188 248.1658Q487.60938 248.57205 488.375 248.57205Q489.125 248.57205 489.5625 248.15018Q490.0 247.7283 490.0 247.00955ZM488.375 241.57205Q487.73438 241.57205 487.32812 241.9783Q486.9375 242.36893 486.9375 243.05643Q486.9375 243.69705 487.32812 244.1033Q487.71875 244.50955 488.35938 244.50955Q489.01562 244.50955 489.40625 244.1033Q489.79688 243.69705 489.79688 243.05643Q489.79688 242.40018 489.39062 241.99393Q488.98438 241.57205 488.375 241.57205Z" fill-rule="nonzero"/><path fill="#ffffff" d="M455.20312 245.05643L455.64062 240.80643L460.01562 240.80643L460.01562 241.80643L456.5625 241.80643L456.29688 244.13455Q456.9375 243.75955 457.73438 243.75955Q458.89062 243.75955 459.57812 244.5408Q460.26562 245.30643 460.26562 246.61893Q460.26562 247.93143 459.54688 248.69705Q458.84375 249.46268 457.5625 249.46268Q456.4375 249.46268 455.71875 248.83768Q455.0 248.19705 454.90625 247.08768L455.92188 247.08768Q456.03125 247.82205 456.45312 248.19705Q456.875 248.57205 457.5625 248.57205Q458.3125 248.57205 458.75 248.05643Q459.1875 247.5408 459.1875 246.63455Q459.1875 245.77518 458.71875 245.25955Q458.25 244.74393 457.46875 244.74393Q456.76562 244.74393 456.35938 245.0408L456.07812 245.27518L455.20312 245.05643ZM461.84375 248.77518Q461.84375 248.49393 462.0 248.30643Q462.17188 248.11893 462.5 248.11893Q462.84375 248.11893 463.01562 248.30643Q463.1875 248.49393 463.1875 248.77518Q463.1875 249.0408 463.01562 249.2283Q462.84375 249.40018 462.5 249.40018Q462.17188 249.40018 462.0 249.2283Q461.84375 249.0408 461.84375 248.77518ZM469.28125 246.4783L470.46875 246.4783L470.46875 247.3533L469.28125 247.3533L469.28125 249.33768L468.20312 249.33768L468.20312 247.3533L464.3125 247.3533L464.3125 246.71268L468.125 240.80643L469.28125 240.80643L469.28125 246.4783ZM465.54688 246.4783L468.20312 246.4783L468.20312 242.2908L468.0625 242.52518L465.54688 246.4783ZM477.0625 245.69705Q477.0625 247.6033 476.40625 248.5408Q475.76562 249.46268 474.375 249.46268Q473.01562 249.46268 472.35938 248.55643Q471.70312 247.65018 471.67188 245.83768L471.67188 244.40018Q471.67188 242.50955 472.3125 241.6033Q472.96875 240.68143 474.35938 240.68143Q475.73438 240.68143 476.39062 241.57205Q477.04688 242.44705 477.0625 244.2908L477.0625 245.69705ZM475.96875 244.21268Q475.96875 242.83768 475.57812 242.21268Q475.20312 241.57205 474.35938 241.57205Q473.53125 241.57205 473.14062 242.21268Q472.76562 242.83768 472.76562 244.13455L472.76562 245.86893Q472.76562 247.24393 473.15625 247.9158Q473.5625 248.57205 474.375 248.57205Q475.17188 248.57205 475.5625 247.94705Q475.95312 247.32205 475.96875 245.99393L475.96875 244.21268ZM482.85938 245.58768Q482.53125 245.99393 482.04688 246.24393Q481.57812 246.4783 481.01562 246.4783Q480.28125 246.4783 479.73438 246.11893Q479.1875 245.75955 478.89062 245.1033Q478.59375 244.43143 478.59375 243.63455Q478.59375 242.7908 478.90625 242.1033Q479.23438 241.4158 479.82812 241.05643Q480.4375 240.68143 481.23438 240.68143Q482.5 240.68143 483.21875 241.63455Q483.95312 242.58768 483.95312 244.21268L483.95312 244.52518Q483.95312 247.02518 482.96875 248.1658Q481.98438 249.30643 480.0 249.33768L479.78125 249.33768L479.78125 248.43143L480.01562 248.43143Q481.35938 248.40018 482.07812 247.7283Q482.79688 247.05643 482.85938 245.58768ZM481.1875 245.58768Q481.73438 245.58768 482.1875 245.25955Q482.65625 244.9158 482.875 244.43143L482.875 243.99393Q482.875 242.93143 482.40625 242.25955Q481.9375 241.58768 481.23438 241.58768Q480.51562 241.58768 480.07812 242.13455Q479.65625 242.68143 479.65625 243.58768Q479.65625 244.46268 480.0625 245.02518Q480.48438 245.58768 481.1875 245.58768ZM490.89062 243.02518Q490.89062 243.6658 490.54688 244.1658Q490.20312 244.6658 489.64062 244.94705Q490.29688 245.2283 490.6875 245.7908Q491.07812 246.33768 491.07812 247.0408Q491.07812 248.13455 490.32812 248.80643Q489.59375 249.46268 488.375 249.46268Q487.14062 249.46268 486.39062 248.80643Q485.65625 248.13455 485.65625 247.0408Q485.65625 246.33768 486.03125 245.7908Q486.40625 245.2283 487.07812 244.94705Q486.51562 244.6658 486.1875 244.1658Q485.85938 243.6658 485.85938 243.02518Q485.85938 241.94705 486.54688 241.32205Q487.23438 240.68143 488.375 240.68143Q489.5 240.68143 490.1875 241.32205Q490.89062 241.94705 490.89062 243.02518ZM490.0 247.00955Q490.0 246.2908 489.54688 245.8533Q489.09375 245.40018 488.35938 245.40018Q487.625 245.40018 487.17188 245.8533Q486.73438 246.2908 486.73438 247.02518Q486.73438 247.74393 487.17188 248.1658Q487.60938 248.57205 488.375 248.57205Q489.125 248.57205 489.5625 248.15018Q490.0 247.7283 490.0 247.00955ZM488.375 241.57205Q487.73438 241.57205 487.32812 241.9783Q486.9375 242.36893 486.9375 243.05643Q486.9375 243.69705 487.32812 244.1033Q487.71875 244.50955 488.35938 244.50955Q489.01562 244.50955 489.40625 244.1033Q489.79688 243.69705 489.79688 243.05643Q489.79688 242.40018 489.39062 241.99393Q488.98438 241.57205 488.375 241.57205Z" fill-rule="nonzero"/><path fill="#000000" d="M38.6125 333.3094Q38.6125 335.21564 37.95625 336.15314Q37.315624 337.075 35.925 337.075Q34.565624 337.075 33.909374 336.16876Q33.253124 335.2625 33.221874 333.45L33.221874 332.0125Q33.221874 330.1219 33.8625 329.21564Q34.51875 328.29376 35.909374 328.29376Q37.284374 328.29376 37.940624 329.1844Q38.596874 330.0594 38.6125 331.90314L38.6125 333.3094ZM37.51875 331.825Q37.51875 330.45 37.128124 329.825Q36.753124 329.1844 35.909374 329.1844Q35.08125 329.1844 34.690624 329.825Q34.315624 330.45 34.315624 331.7469L34.315624 333.48126Q34.315624 334.85626 34.70625 335.52814Q35.1125 336.1844 35.925 336.1844Q36.721874 336.1844 37.1125 335.5594Q37.503124 334.9344 37.51875 333.60626L37.51875 331.825Z" fill-rule="nonzero"/><path fill="#000000" d="M33.753124 240.32431L34.190624 236.07431L38.565624 236.07431L38.565624 237.07431L35.1125 237.07431L34.846874 239.40244Q35.4875 239.02744 36.284374 239.02744Q37.440624 239.02744 38.128124 239.80869Q38.815624 240.57431 38.815624 241.88681Q38.815624 243.19931 38.096874 243.96494Q37.39375 244.73056 36.1125 244.73056Q34.9875 244.73056 34.26875 244.10556Q33.55 243.46494 33.45625 242.35556L34.471874 242.35556Q34.58125 243.08994 35.003124 243.46494Q35.425 243.83994 36.1125 243.83994Q36.8625 243.83994 37.3 243.32431Q37.7375 242.80869 37.7375 241.90244Q37.7375 241.04306 37.26875 240.52744Q36.8 240.01181 36.01875 240.01181Q35.315624 240.01181 34.909374 240.30869L34.628124 240.54306L33.753124 240.32431Z" fill-rule="nonzero"/><path fill="#000000" d="M29.815624 152.26111L28.7375 152.26111L28.7375 145.04236L26.55 145.83923L26.55 144.85486L29.659374 143.68298L29.815624 143.68298L29.815624 152.26111ZM38.6125 148.62048Q38.6125 150.52673 37.95625 151.46423Q37.315624 152.38611 35.925 152.38611Q34.565624 152.38611 33.909374 151.47986Q33.253124 150.57361 33.221874 148.76111L33.221874 147.32361Q33.221874 145.43298 33.8625 144.52673Q34.51875 143.60486 35.909374 143.60486Q37.284374 143.60486 37.940624 144.49548Q38.596874 145.37048 38.6125 147.21423L38.6125 148.62048ZM37.51875 147.13611Q37.51875 145.76111 37.128124 145.13611Q36.753124 144.49548 35.909374 144.49548Q35.08125 144.49548 34.690624 145.13611Q34.315624 145.76111 34.315624 147.05798L34.315624 148.79236Q34.315624 150.16736 34.70625 150.83923Q35.1125 151.49548 35.925 151.49548Q36.721874 151.49548 37.1125 150.87048Q37.503124 150.24548 37.51875 148.91736L37.51875 147.13611Z" fill-rule="nonzero"/><path fill="#000000" d="M29.815624 59.916668L28.7375 59.916668L28.7375 52.697918L26.55 53.494793L26.55 52.510418L29.659374 51.338543L29.815624 51.338543L29.815624 59.916668ZM33.753124 55.635418L34.190624 51.385418L38.565624 51.385418L38.565624 52.385418L35.1125 52.385418L34.846874 54.713543Q35.4875 54.338543 36.284374 54.338543Q37.440624 54.338543 38.128124 55.119793Q38.815624 55.885418 38.815624 57.197918Q38.815624 58.510418 38.096874 59.276043Q37.39375 60.041668 36.1125 60.041668Q34.9875 60.041668 34.26875 59.416668Q33.55 58.776043 33.45625 57.666668L34.471874 57.666668Q34.58125 58.401043 35.003124 58.776043Q35.425 59.151043 36.1125 59.151043Q36.8625 59.151043 37.3 58.635418Q37.7375 58.119793 37.7375 57.213543Q37.7375 56.354168 37.26875 55.838543Q36.8 55.322918 36.01875 55.322918Q35.315624 55.322918 34.909374 55.619793L34.628124 55.854168L33.753124 55.635418Z" fill-rule="nonzero"/><path fill="#000000" d="M87.01423 349.45L90.311104 340.85626L91.529854 340.85626L95.04548 349.45L93.76423 349.45L92.748604 346.84064L89.17048 346.84064L88.217354 349.45L87.01423 349.45ZM89.498604 345.91876L92.404854 345.91876L91.51423 343.54376Q91.092354 342.46564 90.904854 341.7625Q90.73298 342.59064 90.436104 343.40314L89.498604 345.91876ZM94.92048 349.45L94.92048 340.85626L96.63923 340.85626L98.67048 346.9344Q98.95173 347.79376 99.07673 348.21564Q99.217354 347.7469 99.529854 346.84064L101.592354 340.85626L103.123604 340.85626L103.123604 349.45L102.029854 349.45L102.029854 342.2625L99.529854 349.45L98.498604 349.45L96.01423 342.1375L96.01423 349.45L94.92048 349.45ZM110.467354 348.52814Q111.26423 349.075 111.92048 349.325L111.592354 350.1219Q110.67048 349.77814 109.748604 349.0594Q108.79548 349.59064 107.63923 349.59064Q106.467354 349.59064 105.51423 349.02814Q104.57673 348.46564 104.061104 347.45Q103.54548 346.4344 103.54548 345.15314Q103.54548 343.8875 104.061104 342.84064Q104.57673 341.79376 105.529854 341.2469Q106.48298 340.7 107.654854 340.7Q108.842354 340.7 109.79548 341.27814Q110.76423 341.84064 111.26423 342.85626Q111.76423 343.8719 111.76423 345.15314Q111.76423 346.21564 111.436104 347.0594Q111.123604 347.90314 110.467354 348.52814ZM107.967354 347.075Q108.95173 347.35626 109.592354 347.90314Q110.592354 346.98126 110.592354 345.15314Q110.592354 344.10626 110.23298 343.325Q109.873604 342.54376 109.186104 342.1219Q108.51423 341.6844 107.67048 341.6844Q106.38923 341.6844 105.54548 342.5594Q104.717354 343.41876 104.717354 345.15314Q104.717354 346.825 105.54548 347.73126Q106.373604 348.6219 107.67048 348.6219Q108.279854 348.6219 108.811104 348.3875Q108.279854 348.04376 107.686104 347.90314L107.967354 347.075ZM112.95173 349.45L112.95173 340.85626L116.20173 340.85626Q117.04548 340.85626 117.498604 340.9344Q118.13923 341.04376 118.561104 341.34064Q118.998604 341.6375 119.248604 342.16876Q119.51423 342.7 119.51423 343.34064Q119.51423 344.4344 118.811104 345.2Q118.123604 345.95 116.29548 345.95L114.092354 345.95L114.092354 349.45L112.95173 349.45ZM114.092354 344.95L116.311104 344.95Q117.42048 344.95 117.873604 344.54376Q118.342354 344.1219 118.342354 343.3719Q118.342354 342.84064 118.061104 342.46564Q117.79548 342.075 117.35798 341.95Q117.061104 341.8719 116.29548 341.8719L114.092354 341.8719L114.092354 344.95ZM127.498604 349.45L126.45173 349.45L126.45173 342.73126Q126.061104 343.09064 125.436104 343.46564Q124.82673 343.825 124.342354 343.9969L124.342354 342.98126Q125.217354 342.5594 125.873604 341.98126Q126.54548 341.3875 126.82673 340.825L127.498604 340.825L127.498604 349.45ZM131.1236 349.45L131.1236 348.2469L132.32672 348.2469L132.32672 349.45L131.1236 349.45ZM133.52985 345.21564Q133.52985 343.6844 133.84235 342.7625Q134.15485 341.825 134.76422 341.325Q135.38922 340.825 136.32672 340.825Q137.01422 340.825 137.52985 341.10626Q138.0611 341.3875 138.40485 341.91876Q138.7486 342.4344 138.9361 343.1844Q139.1236 343.9344 139.1236 345.21564Q139.1236 346.73126 138.8111 347.65314Q138.51422 348.575 137.88922 349.09064Q137.27985 349.59064 136.32672 349.59064Q135.09235 349.59064 134.3736 348.7Q133.52985 347.6375 133.52985 345.21564ZM134.60797 345.21564Q134.60797 347.325 135.10797 348.02814Q135.60797 348.73126 136.32672 348.73126Q137.0611 348.73126 137.54547 348.02814Q138.04547 347.325 138.04547 345.21564Q138.04547 343.09064 137.54547 342.40314Q137.0611 341.7 136.3111 341.7Q135.59235 341.7 135.15485 342.3094Q134.60797 343.09064 134.60797 345.21564ZM141.09235 349.45L141.09235 348.2469L142.29547 348.2469L142.29547 349.45Q142.29547 350.10626 142.0611 350.5125Q141.82672 350.9344 141.32672 351.15314L141.02985 350.7Q141.35797 350.5594 141.51422 350.2625Q141.67047 349.98126 141.70172 349.45L141.09235 349.45ZM146.96735 349.45L146.96735 340.85626L150.77985 340.85626Q151.9361 340.85626 152.52985 341.09064Q153.1236 341.325 153.48297 341.91876Q153.84235 342.4969 153.84235 343.2Q153.84235 344.1219 153.2486 344.7469Q152.65485 345.3719 151.42047 345.54376Q151.8736 345.7625 152.10797 345.96564Q152.60797 346.41876 153.04547 347.10626L154.54547 349.45L153.10797 349.45L151.98297 347.66876Q151.48297 346.8875 151.15485 346.48126Q150.84235 346.075 150.57672 345.91876Q150.32672 345.7469 150.0611 345.66876Q149.8736 345.6375 149.4361 345.6375L148.10797 345.6375L148.10797 349.45L146.96735 349.45ZM148.10797 344.65314L150.5611 344.65314Q151.32672 344.65314 151.76422 344.4969Q152.21735 344.325 152.4361 343.98126Q152.67047 343.6219 152.67047 343.2Q152.67047 342.59064 152.21735 342.2Q151.77985 341.8094 150.82672 341.8094L148.10797 341.8094L148.10797 344.65314ZM159.88922 348.6844Q159.29547 349.1844 158.7486 349.3875Q158.21735 349.59064 157.59235 349.59064Q156.5611 349.59064 156.01422 349.09064Q155.46735 348.59064 155.46735 347.8094Q155.46735 347.35626 155.67047 346.98126Q155.8736 346.59064 156.21735 346.3719Q156.5611 346.1375 156.98297 346.02814Q157.27985 345.9344 157.92047 345.85626Q159.1861 345.71564 159.79547 345.4969Q159.79547 345.27814 159.79547 345.23126Q159.79547 344.575 159.4986 344.3094Q159.09235 343.96564 158.29547 343.96564Q157.5611 343.96564 157.20172 344.23126Q156.84235 344.48126 156.67047 345.1375L155.63922 344.9969Q155.77985 344.34064 156.10797 343.9344Q156.4361 343.52814 157.04547 343.3094Q157.65485 343.09064 158.45172 343.09064Q159.2486 343.09064 159.7486 343.27814Q160.2486 343.46564 160.48297 343.7469Q160.71735 344.02814 160.8111 344.46564Q160.85797 344.73126 160.85797 345.4344L160.85797 346.84064Q160.85797 348.3094 160.92047 348.7Q160.9986 349.09064 161.20172 349.45L160.09235 349.45Q159.9361 349.1219 159.88922 348.6844ZM159.79547 346.325Q159.21735 346.5594 158.07672 346.73126Q157.42047 346.825 157.15485 346.95Q156.88922 347.0594 156.73297 347.27814Q156.59235 347.4969 156.59235 347.77814Q156.59235 348.2 156.90485 348.48126Q157.23297 348.7625 157.84235 348.7625Q158.45172 348.7625 158.92047 348.4969Q159.40485 348.23126 159.6236 347.7625Q159.79547 347.40314 159.79547 346.71564L159.79547 346.325ZM163.79547 349.45L162.8111 349.45L162.8111 340.85626L163.8736 340.85626L163.8736 343.91876Q164.54547 343.09064 165.57672 343.09064Q166.15485 343.09064 166.65485 343.325Q167.17047 343.54376 167.4986 343.96564Q167.84235 344.3875 168.02985 344.98126Q168.21735 345.575 168.21735 346.2469Q168.21735 347.84064 167.42047 348.71564Q166.6236 349.59064 165.52985 349.59064Q164.42047 349.59064 163.79547 348.66876L163.79547 349.45ZM163.77985 346.29376Q163.77985 347.40314 164.09235 347.90314Q164.59235 348.71564 165.4361 348.71564Q166.1236 348.71564 166.6236 348.1219Q167.13922 347.52814 167.13922 346.325Q167.13922 345.10626 166.65485 344.52814Q166.17047 343.95 165.48297 343.95Q164.79547 343.95 164.27985 344.5594Q163.77985 345.15314 163.77985 346.29376ZM170.79547 349.45L169.8111 349.45L169.8111 340.85626L170.8736 340.85626L170.8736 343.91876Q171.54547 343.09064 172.57672 343.09064Q173.15485 343.09064 173.65485 343.325Q174.17047 343.54376 174.4986 343.96564Q174.84235 344.3875 175.02985 344.98126Q175.21735 345.575 175.21735 346.2469Q175.21735 347.84064 174.42047 348.71564Q173.6236 349.59064 172.52985 349.59064Q171.42047 349.59064 170.79547 348.66876L170.79547 349.45ZM170.77985 346.29376Q170.77985 347.40314 171.09235 347.90314Q171.59235 348.71564 172.4361 348.71564Q173.1236 348.71564 173.6236 348.1219Q174.13922 347.52814 174.13922 346.325Q174.13922 345.10626 173.65485 344.52814Q173.17047 343.95 172.48297 343.95Q171.79547 343.95 171.27985 344.5594Q170.77985 345.15314 170.77985 346.29376ZM176.82672 342.075L176.82672 340.85626L177.88922 340.85626L177.88922 342.075L176.82672 342.075ZM176.82672 349.45L176.82672 343.23126L177.88922 343.23126L177.88922 349.45L176.82672 349.45ZM182.1236 348.5125L182.27985 349.4344Q181.82672 349.52814 181.48297 349.52814Q180.90485 349.52814 180.59235 349.35626Q180.27985 349.16876 180.13922 348.8719Q180.01422 348.575 180.01422 347.6219L180.01422 344.04376L179.2486 344.04376L179.2486 343.23126L180.01422 343.23126L180.01422 341.6844L181.0611 341.0594L181.0611 343.23126L182.1236 343.23126L182.1236 344.04376L181.0611 344.04376L181.0611 347.6844Q181.0611 348.1375 181.10797 348.2625Q181.17047 348.3875 181.29547 348.46564Q181.42047 348.54376 181.65485 348.54376Q181.84235 348.54376 182.1236 348.5125ZM182.92047 349.45L182.92047 340.85626L184.63922 340.85626L186.67047 346.9344Q186.95172 347.79376 187.07672 348.21564Q187.21735 347.7469 187.52985 346.84064L189.59235 340.85626L191.1236 340.85626L191.1236 349.45L190.02985 349.45L190.02985 342.2625L187.52985 349.45L186.4986 349.45L184.01422 342.1375L184.01422 349.45L182.92047 349.45ZM198.46735 348.52814Q199.26422 349.075 199.92047 349.325L199.59235 350.1219Q198.67047 349.77814 197.7486 349.0594Q196.79547 349.59064 195.63922 349.59064Q194.46735 349.59064 193.51422 349.02814Q192.57672 348.46564 192.0611 347.45Q191.54547 346.4344 191.54547 345.15314Q191.54547 343.8875 192.0611 342.84064Q192.57672 341.79376 193.52985 341.2469Q194.48297 340.7 195.65485 340.7Q196.84235 340.7 197.79547 341.27814Q198.76422 341.84064 199.26422 342.85626Q199.76422 343.8719 199.76422 345.15314Q199.76422 346.21564 199.4361 347.0594Q199.1236 347.90314 198.46735 348.52814ZM195.96735 347.075Q196.95172 347.35626 197.59235 347.90314Q198.59235 346.98126 198.59235 345.15314Q198.59235 344.10626 198.23297 343.325Q197.8736 342.54376 197.1861 342.1219Q196.51422 341.6844 195.67047 341.6844Q194.38922 341.6844 193.54547 342.5594Q192.71735 343.41876 192.71735 345.15314Q192.71735 346.825 193.54547 347.73126Q194.3736 348.6219 195.67047 348.6219Q196.27985 348.6219 196.8111 348.3875Q196.27985 348.04376 195.6861 347.90314L195.96735 347.075ZM206.90485 349.45L206.90485 347.3875L203.1861 347.3875L203.1861 346.41876L207.10797 340.85626L207.96735 340.85626L207.96735 346.41876L209.1236 346.41876L209.1236 347.3875L207.96735 347.3875L207.96735 349.45L206.90485 349.45ZM206.90485 346.41876L206.90485 342.5594L204.21735 346.41876L206.90485 346.41876ZM211.1236 349.45L211.1236 348.2469L212.32672 348.2469L212.32672 349.45L211.1236 349.45ZM213.52985 345.21564Q213.52985 343.6844 213.84235 342.7625Q214.15485 341.825 214.76422 341.325Q215.38922 340.825 216.32672 340.825Q217.01422 340.825 217.52985 341.10626Q218.0611 341.3875 218.40485 341.91876Q218.7486 342.4344 218.9361 343.1844Q219.1236 343.9344 219.1236 345.21564Q219.1236 346.73126 218.8111 347.65314Q218.51422 348.575 217.88922 349.09064Q217.27985 349.59064 216.32672 349.59064Q215.09235 349.59064 214.3736 348.7Q213.52985 347.6375 213.52985 345.21564ZM214.60797 345.21564Q214.60797 347.325 215.10797 348.02814Q215.60797 348.73126 216.32672 348.73126Q217.0611 348.73126 217.54547 348.02814Q218.04547 347.325 218.04547 345.21564Q218.04547 343.09064 217.54547 342.40314Q217.0611 341.7 216.3111 341.7Q215.59235 341.7 215.15485 342.3094Q214.60797 343.09064 214.60797 345.21564Z" fill-rule="nonzero"/><path fill="#000000" d="M243.48438 349.45L246.78125 340.85626L248.0 340.85626L251.51562 349.45L250.23438 349.45L249.21875 346.84064L245.64062 346.84064L244.6875 349.45L243.48438 349.45ZM245.96875 345.91876L248.875 345.91876L247.98438 343.54376Q247.5625 342.46564 247.375 341.7625Q247.20312 342.59064 246.90625 343.40314L245.96875 345.91876ZM251.39062 349.45L251.39062 340.85626L253.10938 340.85626L255.14062 346.9344Q255.42188 347.79376 255.54688 348.21564Q255.6875 347.7469 256.0 346.84064L258.0625 340.85626L259.59375 340.85626L259.59375 349.45L258.5 349.45L258.5 342.2625L256.0 349.45L254.96875 349.45L252.48438 342.1375L252.48438 349.45L251.39062 349.45ZM266.9375 348.52814Q267.73438 349.075 268.39062 349.325L268.0625 350.1219Q267.14062 349.77814 266.21875 349.0594Q265.26562 349.59064 264.10938 349.59064Q262.9375 349.59064 261.98438 349.02814Q261.04688 348.46564 260.53125 347.45Q260.01562 346.4344 260.01562 345.15314Q260.01562 343.8875 260.53125 342.84064Q261.04688 341.79376 262.0 341.2469Q262.95312 340.7 264.125 340.7Q265.3125 340.7 266.26562 341.27814Q267.23438 341.84064 267.73438 342.85626Q268.23438 343.8719 268.23438 345.15314Q268.23438 346.21564 267.90625 347.0594Q267.59375 347.90314 266.9375 348.52814ZM264.4375 347.075Q265.42188 347.35626 266.0625 347.90314Q267.0625 346.98126 267.0625 345.15314Q267.0625 344.10626 266.70312 343.325Q266.34375 342.54376 265.65625 342.1219Q264.98438 341.6844 264.14062 341.6844Q262.85938 341.6844 262.01562 342.5594Q261.1875 343.41876 261.1875 345.15314Q261.1875 346.825 262.01562 347.73126Q262.84375 348.6219 264.14062 348.6219Q264.75 348.6219 265.28125 348.3875Q264.75 348.04376 264.15625 347.90314L264.4375 347.075ZM269.42188 349.45L269.42188 340.85626L272.67188 340.85626Q273.51562 340.85626 273.96875 340.9344Q274.60938 341.04376 275.03125 341.34064Q275.46875 341.6375 275.71875 342.16876Q275.98438 342.7 275.98438 343.34064Q275.98438 344.4344 275.28125 345.2Q274.59375 345.95 272.76562 345.95L270.5625 345.95L270.5625 349.45L269.42188 349.45ZM270.5625 344.95L272.78125 344.95Q273.89062 344.95 274.34375 344.54376Q274.8125 344.1219 274.8125 343.3719Q274.8125 342.84064 274.53125 342.46564Q274.26562 342.075 273.82812 341.95Q273.53125 341.8719 272.76562 341.8719L270.5625 341.8719L270.5625 344.95ZM283.96875 349.45L282.92188 349.45L282.92188 342.73126Q282.53125 343.09064 281.90625 343.46564Q281.29688 343.825 280.8125 343.9969L280.8125 342.98126Q281.6875 342.5594 282.34375 341.98126Q283.01562 341.3875 283.29688 340.825L283.96875 340.825L283.96875 349.45ZM287.59375 349.45L287.59375 348.2469L288.79688 348.2469L288.79688 349.45L287.59375 349.45ZM290.0 345.21564Q290.0 343.6844 290.3125 342.7625Q290.625 341.825 291.23438 341.325Q291.85938 340.825 292.79688 340.825Q293.48438 340.825 294.0 341.10626Q294.53125 341.3875 294.875 341.91876Q295.21875 342.4344 295.40625 343.1844Q295.59375 343.9344 295.59375 345.21564Q295.59375 346.73126 295.28125 347.65314Q294.98438 348.575 294.35938 349.09064Q293.75 349.59064 292.79688 349.59064Q291.5625 349.59064 290.84375 348.7Q290.0 347.6375 290.0 345.21564ZM291.07812 345.21564Q291.07812 347.325 291.57812 348.02814Q292.07812 348.73126 292.79688 348.73126Q293.53125 348.73126 294.01562 348.02814Q294.51562 347.325 294.51562 345.21564Q294.51562 343.09064 294.01562 342.40314Q293.53125 341.7 292.78125 341.7Q292.0625 341.7 291.625 342.3094Q291.07812 343.09064 291.07812 345.21564ZM297.5625 349.45L297.5625 348.2469L298.76562 348.2469L298.76562 349.45Q298.76562 350.10626 298.53125 350.5125Q298.29688 350.9344 297.79688 351.15314L297.5 350.7Q297.82812 350.5594 297.98438 350.2625Q298.14062 349.98126 298.17188 349.45L297.5625 349.45ZM303.4375 349.45L303.4375 340.85626L307.25 340.85626Q308.40625 340.85626 309.0 341.09064Q309.59375 341.325 309.95312 341.91876Q310.3125 342.4969 310.3125 343.2Q310.3125 344.1219 309.71875 344.7469Q309.125 345.3719 307.89062 345.54376Q308.34375 345.7625 308.57812 345.96564Q309.07812 346.41876 309.51562 347.10626L311.01562 349.45L309.57812 349.45L308.45312 347.66876Q307.95312 346.8875 307.625 346.48126Q307.3125 346.075 307.04688 345.91876Q306.79688 345.7469 306.53125 345.66876Q306.34375 345.6375 305.90625 345.6375L304.57812 345.6375L304.57812 349.45L303.4375 349.45ZM304.57812 344.65314L307.03125 344.65314Q307.79688 344.65314 308.23438 344.4969Q308.6875 344.325 308.90625 343.98126Q309.14062 343.6219 309.14062 343.2Q309.14062 342.59064 308.6875 342.2Q308.25 341.8094 307.29688 341.8094L304.57812 341.8094L304.57812 344.65314ZM316.35938 348.6844Q315.76562 349.1844 315.21875 349.3875Q314.6875 349.59064 314.0625 349.59064Q313.03125 349.59064 312.48438 349.09064Q311.9375 348.59064 311.9375 347.8094Q311.9375 347.35626 312.14062 346.98126Q312.34375 346.59064 312.6875 346.3719Q313.03125 346.1375 313.45312 346.02814Q313.75 345.9344 314.39062 345.85626Q315.65625 345.71564 316.26562 345.4969Q316.26562 345.27814 316.26562 345.23126Q316.26562 344.575 315.96875 344.3094Q315.5625 343.96564 314.76562 343.96564Q314.03125 343.96564 313.67188 344.23126Q313.3125 344.48126 313.14062 345.1375L312.10938 344.9969Q312.25 344.34064 312.57812 343.9344Q312.90625 343.52814 313.51562 343.3094Q314.125 343.09064 314.92188 343.09064Q315.71875 343.09064 316.21875 343.27814Q316.71875 343.46564 316.95312 343.7469Q317.1875 344.02814 317.28125 344.46564Q317.32812 344.73126 317.32812 345.4344L317.32812 346.84064Q317.32812 348.3094 317.39062 348.7Q317.46875 349.09064 317.67188 349.45L316.5625 349.45Q316.40625 349.1219 316.35938 348.6844ZM316.26562 346.325Q315.6875 346.5594 314.54688 346.73126Q313.89062 346.825 313.625 346.95Q313.35938 347.0594 313.20312 347.27814Q313.0625 347.4969 313.0625 347.77814Q313.0625 348.2 313.375 348.48126Q313.70312 348.7625 314.3125 348.7625Q314.92188 348.7625 315.39062 348.4969Q315.875 348.23126 316.09375 347.7625Q316.26562 347.40314 316.26562 346.71564L316.26562 346.325ZM320.26562 349.45L319.28125 349.45L319.28125 340.85626L320.34375 340.85626L320.34375 343.91876Q321.01562 343.09064 322.04688 343.09064Q322.625 343.09064 323.125 343.325Q323.64062 343.54376 323.96875 343.96564Q324.3125 344.3875 324.5 344.98126Q324.6875 345.575 324.6875 346.2469Q324.6875 347.84064 323.89062 348.71564Q323.09375 349.59064 322.0 349.59064Q320.89062 349.59064 320.26562 348.66876L320.26562 349.45ZM320.25 346.29376Q320.25 347.40314 320.5625 347.90314Q321.0625 348.71564 321.90625 348.71564Q322.59375 348.71564 323.09375 348.1219Q323.60938 347.52814 323.60938 346.325Q323.60938 345.10626 323.125 344.52814Q322.64062 343.95 321.95312 343.95Q321.26562 343.95 320.75 344.5594Q320.25 345.15314 320.25 346.29376ZM327.26562 349.45L326.28125 349.45L326.28125 340.85626L327.34375 340.85626L327.34375 343.91876Q328.01562 343.09064 329.04688 343.09064Q329.625 343.09064 330.125 343.325Q330.64062 343.54376 330.96875 343.96564Q331.3125 344.3875 331.5 344.98126Q331.6875 345.575 331.6875 346.2469Q331.6875 347.84064 330.89062 348.71564Q330.09375 349.59064 329.0 349.59064Q327.89062 349.59064 327.26562 348.66876L327.26562 349.45ZM327.25 346.29376Q327.25 347.40314 327.5625 347.90314Q328.0625 348.71564 328.90625 348.71564Q329.59375 348.71564 330.09375 348.1219Q330.60938 347.52814 330.60938 346.325Q330.60938 345.10626 330.125 344.52814Q329.64062 343.95 328.95312 343.95Q328.26562 343.95 327.75 344.5594Q327.25 345.15314 327.25 346.29376ZM333.29688 342.075L333.29688 340.85626L334.35938 340.85626L334.35938 342.075L333.29688 342.075ZM333.29688 349.45L333.29688 343.23126L334.35938 343.23126L334.35938 349.45L333.29688 349.45ZM338.59375 348.5125L338.75 349.4344Q338.29688 349.52814 337.95312 349.52814Q337.375 349.52814 337.0625 349.35626Q336.75 349.16876 336.60938 348.8719Q336.48438 348.575 336.48438 347.6219L336.48438 344.04376L335.71875 344.04376L335.71875 343.23126L336.48438 343.23126L336.48438 341.6844L337.53125 341.0594L337.53125 343.23126L338.59375 343.23126L338.59375 344.04376L337.53125 344.04376L337.53125 347.6844Q337.53125 348.1375 337.57812 348.2625Q337.64062 348.3875 337.76562 348.46564Q337.89062 348.54376 338.125 348.54376Q338.3125 348.54376 338.59375 348.5125ZM339.39062 349.45L339.39062 340.85626L341.10938 340.85626L343.14062 346.9344Q343.42188 347.79376 343.54688 348.21564Q343.6875 347.7469 344.0 346.84064L346.0625 340.85626L347.59375 340.85626L347.59375 349.45L346.5 349.45L346.5 342.2625L344.0 349.45L342.96875 349.45L340.48438 342.1375L340.48438 349.45L339.39062 349.45ZM354.9375 348.52814Q355.73438 349.075 356.39062 349.325L356.0625 350.1219Q355.14062 349.77814 354.21875 349.0594Q353.26562 349.59064 352.10938 349.59064Q350.9375 349.59064 349.98438 349.02814Q349.04688 348.46564 348.53125 347.45Q348.01562 346.4344 348.01562 345.15314Q348.01562 343.8875 348.53125 342.84064Q349.04688 341.79376 350.0 341.2469Q350.95312 340.7 352.125 340.7Q353.3125 340.7 354.26562 341.27814Q355.23438 341.84064 355.73438 342.85626Q356.23438 343.8719 356.23438 345.15314Q356.23438 346.21564 355.90625 347.0594Q355.59375 347.90314 354.9375 348.52814ZM352.4375 347.075Q353.42188 347.35626 354.0625 347.90314Q355.0625 346.98126 355.0625 345.15314Q355.0625 344.10626 354.70312 343.325Q354.34375 342.54376 353.65625 342.1219Q352.98438 341.6844 352.14062 341.6844Q350.85938 341.6844 350.01562 342.5594Q349.1875 343.41876 349.1875 345.15314Q349.1875 346.825 350.01562 347.73126Q350.84375 348.6219 352.14062 348.6219Q352.75 348.6219 353.28125 348.3875Q352.75 348.04376 352.15625 347.90314L352.4375 347.075ZM360.0 347.1844L361.0625 347.04376Q361.23438 347.9344 361.67188 348.34064Q362.10938 348.73126 362.73438 348.73126Q363.48438 348.73126 364.0 348.21564Q364.51562 347.7 364.51562 346.9344Q364.51562 346.21564 364.03125 345.7469Q363.5625 345.2625 362.82812 345.2625Q362.53125 345.2625 362.07812 345.3875L362.20312 344.45Q362.3125 344.46564 362.375 344.46564Q363.04688 344.46564 363.57812 344.1219Q364.125 343.7625 364.125 343.02814Q364.125 342.45 363.73438 342.075Q363.34375 341.6844 362.71875 341.6844Q362.10938 341.6844 361.6875 342.075Q361.28125 342.46564 361.17188 343.23126L360.10938 343.04376Q360.29688 341.9969 360.98438 341.41876Q361.67188 340.825 362.6875 340.825Q363.39062 340.825 363.98438 341.1375Q364.57812 341.4344 364.89062 341.95Q365.20312 342.46564 365.20312 343.0594Q365.20312 343.60626 364.90625 344.075Q364.60938 344.52814 364.03125 344.79376Q364.78125 344.96564 365.20312 345.52814Q365.625 346.075 365.625 346.91876Q365.625 348.04376 364.79688 348.825Q363.98438 349.60626 362.73438 349.60626Q361.60938 349.60626 360.85938 348.9344Q360.10938 348.2469 360.0 347.1844ZM367.59375 349.45L367.59375 348.2469L368.79688 348.2469L368.79688 349.45L367.59375 349.45ZM373.96875 349.45L372.92188 349.45L372.92188 342.73126Q372.53125 343.09064 371.90625 343.46564Q371.29688 343.825 370.8125 343.9969L370.8125 342.98126Q371.6875 342.5594 372.34375 341.98126Q373.01562 341.3875 373.29688 340.825L373.96875 340.825L373.96875 349.45ZM377.0 347.1844L378.0625 347.04376Q378.23438 347.9344 378.67188 348.34064Q379.10938 348.73126 379.73438 348.73126Q380.48438 348.73126 381.0 348.21564Q381.51562 347.7 381.51562 346.9344Q381.51562 346.21564 381.03125 345.7469Q380.5625 345.2625 379.82812 345.2625Q379.53125 345.2625 379.07812 345.3875L379.20312 344.45Q379.3125 344.46564 379.375 344.46564Q380.04688 344.46564 380.57812 344.1219Q381.125 343.7625 381.125 343.02814Q381.125 342.45 380.73438 342.075Q380.34375 341.6844 379.71875 341.6844Q379.10938 341.6844 378.6875 342.075Q378.28125 342.46564 378.17188 343.23126L377.10938 343.04376Q377.29688 341.9969 377.98438 341.41876Q378.67188 340.825 379.6875 340.825Q380.39062 340.825 380.98438 341.1375Q381.57812 341.4344 381.89062 341.95Q382.20312 342.46564 382.20312 343.0594Q382.20312 343.60626 381.90625 344.075Q381.60938 344.52814 381.03125 344.79376Q381.78125 344.96564 382.20312 345.52814Q382.625 346.075 382.625 346.91876Q382.625 348.04376 381.79688 348.825Q380.98438 349.60626 379.73438 349.60626Q378.60938 349.60626 377.85938 348.9344Q377.10938 348.2469 377.0 347.1844Z" fill-rule="nonzero"/><path fill="#000000" d="M401.95453 349.45L405.2514 340.85626L406.47015 340.85626L409.98578 349.45L408.70453 349.45L407.6889 346.84064L404.11078 346.84064L403.15765 349.45L401.95453 349.45ZM404.4389 345.91876L407.34515 345.91876L406.45453 343.54376Q406.03265 342.46564 405.84515 341.7625Q405.67328 342.59064 405.3764 343.40314L404.4389 345.91876ZM409.86078 349.45L409.86078 340.85626L411.57953 340.85626L413.61078 346.9344Q413.89203 347.79376 414.01703 348.21564Q414.15765 347.7469 414.47015 346.84064L416.53265 340.85626L418.0639 340.85626L418.0639 349.45L416.97015 349.45L416.97015 342.2625L414.47015 349.45L413.4389 349.45L410.95453 342.1375L410.95453 349.45L409.86078 349.45ZM425.40765 348.52814Q426.20453 349.075 426.86078 349.325L426.53265 350.1219Q425.61078 349.77814 424.6889 349.0594Q423.73578 349.59064 422.57953 349.59064Q421.40765 349.59064 420.45453 349.02814Q419.51703 348.46564 419.0014 347.45Q418.48578 346.4344 418.48578 345.15314Q418.48578 343.8875 419.0014 342.84064Q419.51703 341.79376 420.47015 341.2469Q421.42328 340.7 422.59515 340.7Q423.78265 340.7 424.73578 341.27814Q425.70453 341.84064 426.20453 342.85626Q426.70453 343.8719 426.70453 345.15314Q426.70453 346.21564 426.3764 347.0594Q426.0639 347.90314 425.40765 348.52814ZM422.90765 347.075Q423.89203 347.35626 424.53265 347.90314Q425.53265 346.98126 425.53265 345.15314Q425.53265 344.10626 425.17328 343.325Q424.8139 342.54376 424.1264 342.1219Q423.45453 341.6844 422.61078 341.6844Q421.32953 341.6844 420.48578 342.5594Q419.65765 343.41876 419.65765 345.15314Q419.65765 346.825 420.48578 347.73126Q421.3139 348.6219 422.61078 348.6219Q423.22015 348.6219 423.7514 348.3875Q423.22015 348.04376 422.6264 347.90314L422.90765 347.075ZM427.89203 349.45L427.89203 340.85626L431.14203 340.85626Q431.98578 340.85626 432.4389 340.9344Q433.07953 341.04376 433.5014 341.34064Q433.9389 341.6375 434.1889 342.16876Q434.45453 342.7 434.45453 343.34064Q434.45453 344.4344 433.7514 345.2Q433.0639 345.95 431.23578 345.95L429.03265 345.95L429.03265 349.45L427.89203 349.45ZM429.03265 344.95L431.2514 344.95Q432.36078 344.95 432.8139 344.54376Q433.28265 344.1219 433.28265 343.3719Q433.28265 342.84064 433.0014 342.46564Q432.73578 342.075 432.29828 341.95Q432.0014 341.8719 431.23578 341.8719L429.03265 341.8719L429.03265 344.95ZM438.47015 345.21564Q438.47015 343.6844 438.78265 342.7625Q439.09515 341.825 439.70453 341.325Q440.32953 340.825 441.26703 340.825Q441.95453 340.825 442.47015 341.10626Q443.0014 341.3875 443.34515 341.91876Q443.6889 342.4344 443.8764 343.1844Q444.0639 343.9344 444.0639 345.21564Q444.0639 346.73126 443.7514 347.65314Q443.45453 348.575 442.82953 349.09064Q442.22015 349.59064 441.26703 349.59064Q440.03265 349.59064 439.3139 348.7Q438.47015 347.6375 438.47015 345.21564ZM439.54828 345.21564Q439.54828 347.325 440.04828 348.02814Q440.54828 348.73126 441.26703 348.73126Q442.0014 348.73126 442.48578 348.02814Q442.98578 347.325 442.98578 345.21564Q442.98578 343.09064 442.48578 342.40314Q442.0014 341.7 441.2514 341.7Q440.53265 341.7 440.09515 342.3094Q439.54828 343.09064 439.54828 345.21564ZM446.0639 349.45L446.0639 348.2469L447.26703 348.2469L447.26703 349.45L446.0639 349.45ZM448.6264 347.46564L449.64203 347.3719Q449.76703 348.09064 450.1264 348.41876Q450.5014 348.73126 451.0639 348.73126Q451.54828 348.73126 451.90765 348.5125Q452.28265 348.27814 452.51703 347.91876Q452.7514 347.54376 452.90765 346.91876Q453.0639 346.27814 453.0639 345.6219Q453.0639 345.54376 453.0639 345.40314Q452.7514 345.90314 452.20453 346.23126Q451.65765 346.54376 451.01703 346.54376Q449.9389 346.54376 449.20453 345.77814Q448.47015 344.9969 448.47015 343.73126Q448.47015 342.41876 449.23578 341.6219Q450.01703 340.825 451.17328 340.825Q452.0014 340.825 452.6889 341.27814Q453.39203 341.73126 453.7514 342.575Q454.11078 343.40314 454.11078 344.98126Q454.11078 346.6219 453.7514 347.60626Q453.40765 348.575 452.6889 349.09064Q451.98578 349.59064 451.04828 349.59064Q450.03265 349.59064 449.39203 349.04376Q448.7514 348.48126 448.6264 347.46564ZM452.9389 343.66876Q452.9389 342.7625 452.45453 342.23126Q451.98578 341.7 451.29828 341.7Q450.59515 341.7 450.0639 342.27814Q449.54828 342.84064 449.54828 343.7625Q449.54828 344.575 450.04828 345.09064Q450.54828 345.60626 451.26703 345.60626Q452.0014 345.60626 452.47015 345.09064Q452.9389 344.575 452.9389 343.66876ZM456.0639 349.45L456.0639 348.2469L457.26703 348.2469L457.26703 349.45L456.0639 349.45ZM462.4389 349.45L461.39203 349.45L461.39203 342.73126Q461.0014 343.09064 460.3764 343.46564Q459.76703 343.825 459.28265 343.9969L459.28265 342.98126Q460.15765 342.5594 460.8139 341.98126Q461.48578 341.3875 461.76703 340.825L462.4389 340.825L462.4389 349.45ZM466.03265 349.45L466.03265 348.2469L467.23578 348.2469L467.23578 349.45Q467.23578 350.10626 467.0014 350.5125Q466.76703 350.9344 466.26703 351.15314L465.97015 350.7Q466.29828 350.5594 466.45453 350.2625Q466.61078 349.98126 466.64203 349.45L466.03265 349.45ZM471.90765 349.45L471.90765 340.85626L475.72015 340.85626Q476.8764 340.85626 477.47015 341.09064Q478.0639 341.325 478.42328 341.91876Q478.78265 342.4969 478.78265 343.2Q478.78265 344.1219 478.1889 344.7469Q477.59515 345.3719 476.36078 345.54376Q476.8139 345.7625 477.04828 345.96564Q477.54828 346.41876 477.98578 347.10626L479.48578 349.45L478.04828 349.45L476.92328 347.66876Q476.42328 346.8875 476.09515 346.48126Q475.78265 346.075 475.51703 345.91876Q475.26703 345.7469 475.0014 345.66876Q474.8139 345.6375 474.3764 345.6375L473.04828 345.6375L473.04828 349.45L471.90765 349.45ZM473.04828 344.65314L475.5014 344.65314Q476.26703 344.65314 476.70453 344.4969Q477.15765 344.325 477.3764 343.98126Q477.61078 343.6219 477.61078 343.2Q477.61078 342.59064 477.15765 342.2Q476.72015 341.8094 475.76703 341.8094L473.04828 341.8094L473.04828 344.65314ZM484.82953 348.6844Q484.23578 349.1844 483.6889 349.3875Q483.15765 349.59064 482.53265 349.59064Q481.5014 349.59064 480.95453 349.09064Q480.40765 348.59064 480.40765 347.8094Q480.40765 347.35626 480.61078 346.98126Q480.8139 346.59064 481.15765 346.3719Q481.5014 346.1375 481.92328 346.02814Q482.22015 345.9344 482.86078 345.85626Q484.1264 345.71564 484.73578 345.4969Q484.73578 345.27814 484.73578 345.23126Q484.73578 344.575 484.4389 344.3094Q484.03265 343.96564 483.23578 343.96564Q482.5014 343.96564 482.14203 344.23126Q481.78265 344.48126 481.61078 345.1375L480.57953 344.9969Q480.72015 344.34064 481.04828 343.9344Q481.3764 343.52814 481.98578 343.3094Q482.59515 343.09064 483.39203 343.09064Q484.1889 343.09064 484.6889 343.27814Q485.1889 343.46564 485.42328 343.7469Q485.65765 344.02814 485.7514 344.46564Q485.79828 344.73126 485.79828 345.4344L485.79828 346.84064Q485.79828 348.3094 485.86078 348.7Q485.9389 349.09064 486.14203 349.45L485.03265 349.45Q484.8764 349.1219 484.82953 348.6844ZM484.73578 346.325Q484.15765 346.5594 483.01703 346.73126Q482.36078 346.825 482.09515 346.95Q481.82953 347.0594 481.67328 347.27814Q481.53265 347.4969 481.53265 347.77814Q481.53265 348.2 481.84515 348.48126Q482.17328 348.7625 482.78265 348.7625Q483.39203 348.7625 483.86078 348.4969Q484.34515 348.23126 484.5639 347.7625Q484.73578 347.40314 484.73578 346.71564L484.73578 346.325ZM488.73578 349.45L487.7514 349.45L487.7514 340.85626L488.8139 340.85626L488.8139 343.91876Q489.48578 343.09064 490.51703 343.09064Q491.09515 343.09064 491.59515 343.325Q492.11078 343.54376 492.4389 343.96564Q492.78265 344.3875 492.97015 344.98126Q493.15765 345.575 493.15765 346.2469Q493.15765 347.84064 492.36078 348.71564Q491.5639 349.59064 490.47015 349.59064Q489.36078 349.59064 488.73578 348.66876L488.73578 349.45ZM488.72015 346.29376Q488.72015 347.40314 489.03265 347.90314Q489.53265 348.71564 490.3764 348.71564Q491.0639 348.71564 491.5639 348.1219Q492.07953 347.52814 492.07953 346.325Q492.07953 345.10626 491.59515 344.52814Q491.11078 343.95 490.42328 343.95Q489.73578 343.95 489.22015 344.5594Q488.72015 345.15314 488.72015 346.29376ZM495.73578 349.45L494.7514 349.45L494.7514 340.85626L495.8139 340.85626L495.8139 343.91876Q496.48578 343.09064 497.51703 343.09064Q498.09515 343.09064 498.59515 343.325Q499.11078 343.54376 499.4389 343.96564Q499.78265 344.3875 499.97015 344.98126Q500.15765 345.575 500.15765 346.2469Q500.15765 347.84064 499.36078 348.71564Q498.5639 349.59064 497.47015 349.59064Q496.36078 349.59064 495.73578 348.66876L495.73578 349.45ZM495.72015 346.29376Q495.72015 347.40314 496.03265 347.90314Q496.53265 348.71564 497.3764 348.71564Q498.0639 348.71564 498.5639 348.1219Q499.07953 347.52814 499.07953 346.325Q499.07953 345.10626 498.59515 344.52814Q498.11078 343.95 497.42328 343.95Q496.73578 343.95 496.22015 344.5594Q495.72015 345.15314 495.72015 346.29376ZM501.76703 342.075L501.76703 340.85626L502.82953 340.85626L502.82953 342.075L501.76703 342.075ZM501.76703 349.45L501.76703 343.23126L502.82953 343.23126L502.82953 349.45L501.76703 349.45ZM507.0639 348.5125L507.22015 349.4344Q506.76703 349.52814 506.42328 349.52814Q505.84515 349.52814 505.53265 349.35626Q505.22015 349.16876 505.07953 348.8719Q504.95453 348.575 504.95453 347.6219L504.95453 344.04376L504.1889 344.04376L504.1889 343.23126L504.95453 343.23126L504.95453 341.6844L506.0014 341.0594L506.0014 343.23126L507.0639 343.23126L507.0639 344.04376L506.0014 344.04376L506.0014 347.6844Q506.0014 348.1375 506.04828 348.2625Q506.11078 348.3875 506.23578 348.46564Q506.36078 348.54376 506.59515 348.54376Q506.78265 348.54376 507.0639 348.5125ZM507.86078 349.45L507.86078 340.85626L509.57953 340.85626L511.61078 346.9344Q511.89203 347.79376 512.017 348.21564Q512.15765 347.7469 512.47015 346.84064L514.53265 340.85626L516.0639 340.85626L516.0639 349.45L514.97015 349.45L514.97015 342.2625L512.47015 349.45L511.4389 349.45L508.95453 342.1375L508.95453 349.45L507.86078 349.45ZM523.40765 348.52814Q524.2045 349.075 524.8608 349.325L524.53265 350.1219Q523.6108 349.77814 522.6889 349.0594Q521.7358 349.59064 520.5795 349.59064Q519.40765 349.59064 518.4545 349.02814Q517.517 348.46564 517.0014 347.45Q516.4858 346.4344 516.4858 345.15314Q516.4858 343.8875 517.0014 342.84064Q517.517 341.79376 518.47015 341.2469Q519.4233 340.7 520.59515 340.7Q521.78265 340.7 522.7358 341.27814Q523.7045 341.84064 524.2045 342.85626Q524.7045 343.8719 524.7045 345.15314Q524.7045 346.21564 524.3764 347.0594Q524.0639 347.90314 523.40765 348.52814ZM520.90765 347.075Q521.892 347.35626 522.53265 347.90314Q523.53265 346.98126 523.53265 345.15314Q523.53265 344.10626 523.1733 343.325Q522.8139 342.54376 522.1264 342.1219Q521.4545 341.6844 520.6108 341.6844Q519.3295 341.6844 518.4858 342.5594Q517.65765 343.41876 517.65765 345.15314Q517.65765 346.825 518.4858 347.73126Q519.3139 348.6219 520.6108 348.6219Q521.22015 348.6219 521.7514 348.3875Q521.22015 348.04376 520.6264 347.90314L520.90765 347.075ZM531.84515 349.45L531.84515 347.3875L528.1264 347.3875L528.1264 346.41876L532.0483 340.85626L532.90765 340.85626L532.90765 346.41876L534.0639 346.41876L534.0639 347.3875L532.90765 347.3875L532.90765 349.45L531.84515 349.45ZM531.84515 346.41876L531.84515 342.5594L529.15765 346.41876L531.84515 346.41876ZM536.0639 349.45L536.0639 348.2469L537.267 348.2469L537.267 349.45L536.0639 349.45ZM538.47015 345.21564Q538.47015 343.6844 538.78265 342.7625Q539.09515 341.825 539.7045 341.325Q540.3295 340.825 541.267 340.825Q541.9545 340.825 542.47015 341.10626Q543.0014 341.3875 543.34515 341.91876Q543.6889 342.4344 543.8764 343.1844Q544.0639 343.9344 544.0639 345.21564Q544.0639 346.73126 543.7514 347.65314Q543.4545 348.575 542.8295 349.09064Q542.22015 349.59064 541.267 349.59064Q540.03265 349.59064 539.3139 348.7Q538.47015 347.6375 538.47015 345.21564ZM539.5483 345.21564Q539.5483 347.325 540.0483 348.02814Q540.5483 348.73126 541.267 348.73126Q542.0014 348.73126 542.4858 348.02814Q542.9858 347.325 542.9858 345.21564Q542.9858 343.09064 542.4858 342.40314Q542.0014 341.7 541.2514 341.7Q540.53265 341.7 540.09515 342.3094Q539.5483 343.09064 539.5483 345.21564Z" fill-rule="nonzero"/><path fill="#757575" d="M21.39375 21.596874L24.659374 29.721874L27.909374 21.596874L29.6125 21.596874L29.6125 31.55L28.3 31.55L28.3 27.675L28.425 23.4875L25.159374 31.55L24.14375 31.55L20.89375 23.503124L21.01875 27.675L21.01875 31.55L19.70625 31.55L19.70625 21.596874L21.39375 21.596874ZM34.58125 31.690624Q33.065624 31.690624 32.128124 30.70625Q31.190624 29.70625 31.190624 28.05L31.190624 27.83125Q31.190624 26.721874 31.6125 25.8625Q32.034374 24.9875 32.784374 24.503124Q33.534374 24.01875 34.425 24.01875Q35.8625 24.01875 36.659374 24.971874Q37.45625 25.909374 37.45625 27.690624L37.45625 28.20625L32.45625 28.20625Q32.471874 29.3 33.08125 29.9875Q33.70625 30.659374 34.64375 30.659374Q35.315624 30.659374 35.76875 30.39375Q36.2375 30.1125 36.596874 29.659374L37.3625 30.253124Q36.440624 31.690624 34.58125 31.690624ZM34.425 25.05Q33.659374 25.05 33.128124 25.6125Q32.6125 26.175 32.4875 27.175L36.190624 27.175L36.190624 27.08125Q36.14375 26.1125 35.675 25.58125Q35.20625 25.05 34.425 25.05ZM39.690624 24.159374L39.7375 24.971874Q40.55 24.01875 41.925 24.01875Q43.471874 24.01875 44.034374 25.20625Q44.409374 24.675 45.003124 24.346874Q45.596874 24.01875 46.39375 24.01875Q48.83125 24.01875 48.878124 26.596874L48.878124 31.55L47.6125 31.55L47.6125 26.675Q47.6125 25.878124 47.2375 25.4875Q46.878124 25.096874 46.034374 25.096874Q45.315624 25.096874 44.846874 25.51875Q44.39375 25.925 44.315624 26.64375L44.315624 31.55L43.05 31.55L43.05 26.70625Q43.05 25.096874 41.471874 25.096874Q40.221874 25.096874 39.76875 26.14375L39.76875 31.55L38.503124 31.55L38.503124 24.159374L39.690624 24.159374ZM50.175 27.784374Q50.175 26.690624 50.596874 25.83125Q51.034374 24.95625 51.784374 24.4875Q52.55 24.01875 53.534374 24.01875Q55.034374 24.01875 55.971874 25.065624Q56.909374 26.1125 56.909374 27.846874L56.909374 27.940624Q56.909374 29.01875 56.4875 29.878124Q56.08125 30.721874 55.3 31.20625Q54.534374 31.690624 53.55 31.690624Q52.034374 31.690624 51.096874 30.64375Q50.175 29.596874 50.175 27.878124L50.175 27.784374ZM51.440624 27.940624Q51.440624 29.159374 52.003124 29.909374Q52.58125 30.659374 53.55 30.659374Q54.503124 30.659374 55.065624 29.909374Q55.64375 29.14375 55.64375 27.784374Q55.64375 26.565624 55.065624 25.815624Q54.4875 25.05 53.534374 25.05Q52.596874 25.05 52.01875 25.8Q51.440624 26.55 51.440624 27.940624ZM62.08125 25.284374Q61.8 25.2375 61.45625 25.2375Q60.221874 25.2375 59.76875 26.3L59.76875 31.55L58.503124 31.55L58.503124 24.159374L59.7375 24.159374L59.753124 25.003124Q60.378124 24.01875 61.51875 24.01875Q61.89375 24.01875 62.08125 24.1125L62.08125 25.284374ZM65.925 29.690624L67.64375 24.159374L69.00313 24.159374L66.03438 32.690624Q65.34688 34.534374 63.83125 34.534374L63.596874 34.51875L63.128124 34.425L63.128124 33.409374L63.471874 33.425Q64.1125 33.425 64.47188 33.159374Q64.83125 32.909374 65.06563 32.221874L65.34688 31.471874L62.70625 24.159374L64.08125 24.159374L65.925 29.690624ZM74.12813 31.55L74.12813 25.128124L72.95625 25.128124L72.95625 24.159374L74.12813 24.159374L74.12813 23.39375Q74.12813 22.20625 74.75313 21.565624Q75.39375 20.909374 76.56563 20.909374Q77.00313 20.909374 77.425 21.01875L77.3625 22.05Q77.03438 21.9875 76.675 21.9875Q76.06563 21.9875 75.72188 22.346874Q75.39375 22.70625 75.39375 23.378124L75.39375 24.159374L76.97188 24.159374L76.97188 25.128124L75.39375 25.128124L75.39375 31.55L74.12813 31.55ZM78.175 27.784374Q78.175 26.690624 78.59688 25.83125Q79.03438 24.95625 79.78438 24.4875Q80.55 24.01875 81.53438 24.01875Q83.03438 24.01875 83.97188 25.065624Q84.90938 26.1125 84.90938 27.846874L84.90938 27.940624Q84.90938 29.01875 84.4875 29.878124Q84.08125 30.721874 83.3 31.20625Q82.53438 31.690624 81.55 31.690624Q80.03438 31.690624 79.09688 30.64375Q78.175 29.596874 78.175 27.878124L78.175 27.784374ZM79.44063 27.940624Q79.44063 29.159374 80.00313 29.909374Q80.58125 30.659374 81.55 30.659374Q82.50313 30.659374 83.06563 29.909374Q83.64375 29.14375 83.64375 27.784374Q83.64375 26.565624 83.06563 25.815624Q82.4875 25.05 81.53438 25.05Q80.59688 25.05 80.01875 25.8Q79.44063 26.55 79.44063 27.940624ZM86.175 27.784374Q86.175 26.690624 86.59688 25.83125Q87.03438 24.95625 87.78438 24.4875Q88.55 24.01875 89.53438 24.01875Q91.03438 24.01875 91.97188 25.065624Q92.90938 26.1125 92.90938 27.846874L92.90938 27.940624Q92.90938 29.01875 92.4875 29.878124Q92.08125 30.721874 91.3 31.20625Q90.53438 31.690624 89.55 31.690624Q88.03438 31.690624 87.09688 30.64375Q86.175 29.596874 86.175 27.878124L86.175 27.784374ZM87.44063 27.940624Q87.44063 29.159374 88.00313 29.909374Q88.58125 30.659374 89.55 30.659374Q90.50313 30.659374 91.06563 29.909374Q91.64375 29.14375 91.64375 27.784374Q91.64375 26.565624 91.06563 25.815624Q90.4875 25.05 89.53438 25.05Q88.59688 25.05 88.01875 25.8Q87.44063 26.55 87.44063 27.940624ZM96.22188 22.3625L96.22188 24.159374L97.59688 24.159374L97.59688 25.128124L96.22188 25.128124L96.22188 29.721874Q96.22188 30.159374 96.40938 30.39375Q96.59688 30.6125 97.03438 30.6125Q97.25313 30.6125 97.64375 30.51875L97.64375 31.55Q97.14375 31.690624 96.675 31.690624Q95.81563 31.690624 95.37813 31.175Q94.95625 30.659374 94.95625 29.721874L94.95625 25.128124L93.6125 25.128124L93.6125 24.159374L94.95625 24.159374L94.95625 22.3625L96.22188 22.3625ZM105.75313 27.940624Q105.75313 29.628124 104.97188 30.659374Q104.20625 31.690624 102.89375 31.690624Q101.55 31.690624 100.76875 30.83125L100.76875 34.39375L99.50313 34.39375L99.50313 24.159374L100.65938 24.159374L100.72188 24.971874Q101.50313 24.01875 102.87813 24.01875Q104.20625 24.01875 104.97188 25.01875Q105.75313 26.01875 105.75313 27.815624L105.75313 27.940624ZM104.4875 27.784374Q104.4875 26.534374 103.95625 25.815624Q103.425 25.096874 102.4875 25.096874Q101.34688 25.096874 100.76875 26.1125L100.76875 29.64375Q101.34688 30.659374 102.50313 30.659374Q103.425 30.659374 103.95625 29.940624Q104.4875 29.20625 104.4875 27.784374ZM111.08125 25.284374Q110.8 25.2375 110.45625 25.2375Q109.22188 25.2375 108.76875 26.3L108.76875 31.55L107.50313 31.55L107.50313 24.159374L108.7375 24.159374L108.75313 25.003124Q109.37813 24.01875 110.51875 24.01875Q110.89375 24.01875 111.08125 24.1125L111.08125 25.284374ZM113.87813 31.55L112.6125 31.55L112.6125 24.159374L113.87813 24.159374L113.87813 31.55ZM112.51875 22.190624Q112.51875 21.878124 112.70625 21.675Q112.89375 21.45625 113.25313 21.45625Q113.62813 21.45625 113.81563 21.675Q114.01875 21.878124 114.01875 22.190624Q114.01875 22.503124 113.81563 22.70625Q113.62813 22.909374 113.25313 22.909374Q112.89375 22.909374 112.70625 22.70625Q112.51875 22.503124 112.51875 22.190624ZM116.70625 24.159374L116.7375 25.08125Q117.59688 24.01875 118.95625 24.01875Q121.3 24.01875 121.33125 26.659374L121.33125 31.55L120.06563 31.55L120.06563 26.659374Q120.05 25.8625 119.69063 25.4875Q119.33125 25.096874 118.58125 25.096874Q117.95625 25.096874 117.4875 25.425Q117.03438 25.753124 116.76875 26.284374L116.76875 31.55L115.50313 31.55L115.50313 24.159374L116.70625 24.159374ZM125.22188 22.3625L125.22188 24.159374L126.59688 24.159374L126.59688 25.128124L125.22188 25.128124L125.22188 29.721874Q125.22188 30.159374 125.40938 30.39375Q125.59688 30.6125 126.03438 30.6125Q126.25313 30.6125 126.64375 30.51875L126.64375 31.55Q126.14375 31.690624 125.675 31.690624Q124.81563 31.690624 124.37813 31.175Q123.95625 30.659374 123.95625 29.721874L123.95625 25.128124L122.6125 25.128124L122.6125 24.159374L123.95625 24.159374L123.95625 22.3625L125.22188 22.3625ZM136.08125 31.55Q135.97188 31.33125 135.89375 30.76875Q135.01875 31.690624 133.78438 31.690624Q132.69063 31.690624 131.9875 31.08125Q131.3 30.45625 131.3 29.503124Q131.3 28.346874 132.175 27.70625Q133.05 27.065624 134.64375 27.065624L135.87813 27.065624L135.87813 26.4875Q135.87813 25.815624 135.47188 25.425Q135.08125 25.034374 134.31563 25.034374Q133.62813 25.034374 133.175 25.378124Q132.72188 25.721874 132.72188 26.20625L131.44063 26.20625Q131.44063 25.64375 131.83125 25.128124Q132.2375 24.6125 132.90938 24.315624Q133.58125 24.01875 134.37813 24.01875Q135.65938 24.01875 136.37813 24.659374Q137.1125 25.3 137.14375 26.409374L137.14375 29.815624Q137.14375 30.83125 137.39375 31.440624L137.39375 31.55L136.08125 31.55ZM133.97188 30.58125Q134.56563 30.58125 135.09688 30.284374Q135.64375 29.971874 135.87813 29.471874L135.87813 27.95625L134.87813 27.95625Q132.56563 27.95625 132.56563 29.315624Q132.56563 29.909374 132.95625 30.253124Q133.34688 30.58125 133.97188 30.58125ZM140.12813 31.55L140.12813 25.128124L138.95625 25.128124L138.95625 24.159374L140.12813 24.159374L140.12813 23.39375Q140.12813 22.20625 140.75313 21.565624Q141.39375 20.909374 142.56563 20.909374Q143.00313 20.909374 143.425 21.01875L143.3625 22.05Q143.03438 21.9875 142.675 21.9875Q142.06563 21.9875 141.72188 22.346874Q141.39375 22.70625 141.39375 23.378124L141.39375 24.159374L142.97188 24.159374L142.97188 25.128124L141.39375 25.128124L141.39375 31.55L140.12813 31.55ZM146.22188 22.3625L146.22188 24.159374L147.59688 24.159374L147.59688 25.128124L146.22188 25.128124L146.22188 29.721874Q146.22188 30.159374 146.40938 30.39375Q146.59688 30.6125 147.03438 30.6125Q147.25313 30.6125 147.64375 30.51875L147.64375 31.55Q147.14375 31.690624 146.675 31.690624Q145.81563 31.690624 145.37813 31.175Q144.95625 30.659374 144.95625 29.721874L144.95625 25.128124L143.6125 25.128124L143.6125 24.159374L144.95625 24.159374L144.95625 22.3625L146.22188 22.3625ZM152.58125 31.690624Q151.06563 31.690624 150.12813 30.70625Q149.19063 29.70625 149.19063 28.05L149.19063 27.83125Q149.19063 26.721874 149.6125 25.8625Q150.03438 24.9875 150.78438 24.503124Q151.53438 24.01875 152.425 24.01875Q153.8625 24.01875 154.65938 24.971874Q155.45625 25.909374 155.45625 27.690624L155.45625 28.20625L150.45625 28.20625Q150.47188 29.3 151.08125 29.9875Q151.70625 30.659374 152.64375 30.659374Q153.31563 30.659374 153.76875 30.39375Q154.2375 30.1125 154.59688 29.659374L155.3625 30.253124Q154.44063 31.690624 152.58125 31.690624ZM152.425 25.05Q151.65938 25.05 151.12813 25.6125Q150.6125 26.175 150.4875 27.175L154.19063 27.175L154.19063 27.08125Q154.14375 26.1125 153.675 25.58125Q153.20625 25.05 152.425 25.05ZM160.08125 25.284374Q159.8 25.2375 159.45625 25.2375Q158.22188 25.2375 157.76875 26.3L157.76875 31.55L156.50313 31.55L156.50313 24.159374L157.7375 24.159374L157.75313 25.003124Q158.37813 24.01875 159.51875 24.01875Q159.89375 24.01875 160.08125 24.1125L160.08125 25.284374ZM170.76875 27.940624Q170.76875 29.628124 169.9875 30.659374Q169.20625 31.690624 167.89375 31.690624Q166.50313 31.690624 165.7375 30.690624L165.675 31.55L164.50313 31.55L164.50313 21.05L165.76875 21.05L165.76875 24.971874Q166.53438 24.01875 167.87813 24.01875Q169.2375 24.01875 170.00313 25.034374Q170.76875 26.05 170.76875 27.83125L170.76875 27.940624ZM169.50313 27.784374Q169.50313 26.503124 169.00313 25.8Q168.50313 25.096874 167.56563 25.096874Q166.31563 25.096874 165.76875 26.253124L165.76875 29.45625Q166.34688 30.6125 167.58125 30.6125Q168.4875 30.6125 168.9875 29.909374Q169.50313 29.20625 169.50313 27.784374ZM175.58125 31.690624Q174.06563 31.690624 173.12813 30.70625Q172.19063 29.70625 172.19063 28.05L172.19063 27.83125Q172.19063 26.721874 172.6125 25.8625Q173.03438 24.9875 173.78438 24.503124Q174.53438 24.01875 175.425 24.01875Q176.8625 24.01875 177.65938 24.971874Q178.45625 25.909374 178.45625 27.690624L178.45625 28.20625L173.45625 28.20625Q173.47188 29.3 174.08125 29.9875Q174.70625 30.659374 175.64375 30.659374Q176.31563 30.659374 176.76875 30.39375Q177.2375 30.1125 177.59688 29.659374L178.3625 30.253124Q177.44063 31.690624 175.58125 31.690624ZM175.425 25.05Q174.65938 25.05 174.12813 25.6125Q173.6125 26.175 173.4875 27.175L177.19063 27.175L177.19063 27.08125Q177.14375 26.1125 176.675 25.58125Q176.20625 25.05 175.425 25.05ZM180.70625 24.159374L180.7375 25.08125Q181.59688 24.01875 182.95625 24.01875Q185.3 24.01875 185.33125 26.659374L185.33125 31.55L184.06563 31.55L184.06563 26.659374Q184.05 25.8625 183.69063 25.4875Q183.33125 25.096874 182.58125 25.096874Q181.95625 25.096874 181.4875 25.425Q181.03438 25.753124 180.76875 26.284374L180.76875 31.55L179.50313 31.55L179.50313 24.159374L180.70625 24.159374ZM190.47188 30.659374Q191.14375 30.659374 191.64375 30.253124Q192.15938 29.83125 192.22188 29.221874L193.40938 29.221874Q193.37813 29.846874 192.97188 30.425Q192.56563 31.003124 191.89375 31.346874Q191.22188 31.690624 190.47188 31.690624Q188.95625 31.690624 188.06563 30.690624Q187.175 29.675 187.175 27.925L187.175 27.70625Q187.175 26.628124 187.56563 25.784374Q187.97188 24.940624 188.70625 24.4875Q189.45625 24.01875 190.47188 24.01875Q191.70625 24.01875 192.53438 24.76875Q193.3625 25.503124 193.40938 26.690624L192.22188 26.690624Q192.15938 25.971874 191.675 25.51875Q191.19063 25.05 190.47188 25.05Q189.50313 25.05 188.97188 25.753124Q188.44063 26.440624 188.44063 27.753124L188.44063 27.9875Q188.44063 29.26875 188.97188 29.971874Q189.50313 30.659374 190.47188 30.659374ZM195.76875 25.05Q196.6125 24.01875 197.95625 24.01875Q200.3 24.01875 200.33125 26.659374L200.33125 31.55L199.06563 31.55L199.06563 26.659374Q199.05 25.8625 198.69063 25.4875Q198.33125 25.096874 197.58125 25.096874Q196.95625 25.096874 196.4875 25.425Q196.03438 25.753124 195.76875 26.284374L195.76875 31.55L194.50313 31.55L194.50313 21.05L195.76875 21.05L195.76875 25.05ZM203.69063 24.159374L203.7375 24.971874Q204.55 24.01875 205.925 24.01875Q207.47188 24.01875 208.03438 25.20625Q208.40938 24.675 209.00313 24.346874Q209.59688 24.01875 210.39375 24.01875Q212.83125 24.01875 212.87813 26.596874L212.87813 31.55L211.6125 31.55L211.6125 26.675Q211.6125 25.878124 211.2375 25.4875Q210.87813 25.096874 210.03438 25.096874Q209.31563 25.096874 208.84688 25.51875Q208.39375 25.925 208.31563 26.64375L208.31563 31.55L207.05 31.55L207.05 26.70625Q207.05 25.096874 205.47188 25.096874Q204.22188 25.096874 203.76875 26.14375L203.76875 31.55L202.50313 31.55L202.50313 24.159374L203.69063 24.159374ZM219.08125 31.55Q218.97188 31.33125 218.89375 30.76875Q218.01875 31.690624 216.78438 31.690624Q215.69063 31.690624 214.9875 31.08125Q214.3 30.45625 214.3 29.503124Q214.3 28.346874 215.175 27.70625Q216.05 27.065624 217.64375 27.065624L218.87813 27.065624L218.87813 26.4875Q218.87813 25.815624 218.47188 25.425Q218.08125 25.034374 217.31563 25.034374Q216.62813 25.034374 216.175 25.378124Q215.72188 25.721874 215.72188 26.20625L214.44063 26.20625Q214.44063 25.64375 214.83125 25.128124Q215.2375 24.6125 215.90938 24.315624Q216.58125 24.01875 217.37813 24.01875Q218.65938 24.01875 219.37813 24.659374Q220.1125 25.3 220.14375 26.409374L220.14375 29.815624Q220.14375 30.83125 220.39375 31.440624L220.39375 31.55L219.08125 31.55ZM216.97188 30.58125Q217.56563 30.58125 218.09688 30.284374Q218.64375 29.971874 218.87813 29.471874L218.87813 27.95625L217.87813 27.95625Q215.56563 27.95625 215.56563 29.315624Q215.56563 29.909374 215.95625 30.253124Q216.34688 30.58125 216.97188 30.58125ZM226.08125 25.284374Q225.8 25.2375 225.45625 25.2375Q224.22188 25.2375 223.76875 26.3L223.76875 31.55L222.50313 31.55L222.50313 24.159374L223.7375 24.159374L223.75313 25.003124Q224.37813 24.01875 225.51875 24.01875Q225.89375 24.01875 226.08125 24.1125L226.08125 25.284374ZM229.56563 28.128124L228.78438 28.95625L228.78438 31.55L227.51875 31.55L227.51875 21.05L228.78438 21.05L228.78438 27.39375L229.45625 26.58125L231.75313 24.159374L233.3 24.159374L230.425 27.2375L233.62813 31.55L232.14375 31.55L229.56563 28.128124ZM234.47188 33.534374L233.75313 33.034374Q234.39375 32.14375 234.425 31.190624L234.425 30.05L235.65938 30.05L235.65938 31.05Q235.65938 31.7375 235.31563 32.425Q234.97188 33.1125 234.47188 33.534374ZM241.87813 31.55L240.6125 31.55L240.6125 24.159374L241.87813 24.159374L241.87813 31.55ZM240.51875 22.190624Q240.51875 21.878124 240.70625 21.675Q240.89375 21.45625 241.25313 21.45625Q241.62813 21.45625 241.81563 21.675Q242.01875 21.878124 242.01875 22.190624Q242.01875 22.503124 241.81563 22.70625Q241.62813 22.909374 241.25313 22.909374Q240.89375 22.909374 240.70625 22.70625Q240.51875 22.503124 240.51875 22.190624ZM244.70625 24.159374L244.7375 25.08125Q245.59688 24.01875 246.95625 24.01875Q249.3 24.01875 249.33125 26.659374L249.33125 31.55L248.06563 31.55L248.06563 26.659374Q248.05 25.8625 247.69063 25.4875Q247.33125 25.096874 246.58125 25.096874Q245.95625 25.096874 245.4875 25.425Q245.03438 25.753124 244.76875 26.284374L244.76875 31.55L243.50313 31.55L243.50313 24.159374L244.70625 24.159374ZM262.05 30.2375Q261.55 30.971874 260.64374 31.33125Q259.7375 31.690624 258.53436 31.690624Q257.3156 31.690624 256.3625 31.128124Q255.425 30.55 254.90938 29.503124Q254.39375 28.440624 254.37813 27.05L254.37813 26.190624Q254.37813 23.940624 255.425 22.70625Q256.4875 21.45625 258.3781 21.45625Q259.9406 21.45625 260.89374 22.253124Q261.84686 23.05 262.05 24.51875L260.7375 24.51875Q260.3781 22.534374 258.39374 22.534374Q257.0656 22.534374 256.3781 23.471874Q255.70625 24.39375 255.70625 26.14375L255.70625 26.95625Q255.70625 28.64375 256.47186 29.628124Q257.2375 30.6125 258.53436 30.6125Q259.28436 30.6125 259.83124 30.45625Q260.39374 30.284374 260.7531 29.89375L260.7531 27.659374L258.4406 27.659374L258.4406 26.596874L262.05 26.596874L262.05 30.2375ZM264.70624 31.55L264.70624 21.596874L267.95624 21.596874Q269.58124 21.596874 270.39374 22.26875Q271.20624 22.940624 271.20624 24.253124Q271.20624 24.940624 270.8156 25.4875Q270.425 26.01875 269.7375 26.315624Q270.55 26.534374 271.01874 27.175Q271.4875 27.8 271.4875 28.675Q271.4875 30.01875 270.6125 30.784374Q269.7375 31.55 268.15936 31.55L264.70624 31.55ZM266.01874 26.89375L266.01874 30.471874L268.1906 30.471874Q269.09686 30.471874 269.6281 30.003124Q270.15936 29.51875 270.15936 28.690624Q270.15936 26.89375 268.20624 26.89375L266.01874 26.89375ZM266.01874 25.846874L268.0031 25.846874Q268.8625 25.846874 269.3781 25.425Q269.89374 24.9875 269.89374 24.2375Q269.89374 23.425 269.40936 23.05Q268.9406 22.675 267.95624 22.675L266.01874 22.675L266.01874 25.846874Z" fill-rule="nonzero"/></svg>