<svg version="1.1" viewBox="0.0 0.0 600.0 371.0" fill="none" stroke="none" stroke-linecap="square" stroke-miterlimit="10" width="600" height="371" xmlns:xlink="http://www.w3.org/1999/xlink" xmlns="http://www.w3.org/2000/svg"><path fill="#ffffff" d="M0 0L600.0 0L600.0 371.0L0 371.0L0 0Z" fill-rule="nonzero"/><path stroke="#333333" stroke-width="1.0" stroke-linecap="butt" d="M69.5 332.5L581.5 332.5" fill-rule="nonzero"/><path stroke="#cccccc" stroke-width="1.0" stroke-linecap="butt" d="M69.5 255.5L581.5 255.5" fill-rule="nonzero"/><path stroke="#cccccc" stroke-width="1.0" stroke-linecap="butt" d="M69.5 179.5L581.5 179.5" fill-rule="nonzero"/><path stroke="#cccccc" stroke-width="1.0" stroke-linecap="butt" d="M69.5 102.5L581.5 102.5" fill-rule="nonzero"/><path stroke="#cccccc" stroke-width="1.0" stroke-linecap="butt" d="M69.5 25.5L581.5 25.5" fill-rule="nonzero"/><path stroke="#e6e6e6" stroke-width="1.0" stroke-linecap="butt" d="M69.5 306.5L581.5 306.5" fill-rule="nonzero"/><path stroke="#e6e6e6" stroke-width="1.0" stroke-linecap="butt" d="M69.5 281.5L581.5 281.5" fill-rule="nonzero"/><path stroke="#e6e6e6" stroke-width="1.0" stroke-linecap="butt" d="M69.5 230.5L581.5 230.5" fill-rule="nonzero"/><path stroke="#e6e6e6" stroke-width="1.0" stroke-linecap="butt" d="M69.5 204.5L581.5 204.5" fill-rule="nonzero"/><path stroke="#e6e6e6" stroke-width="1.0" stroke-linecap="butt" d="M69.5 153.5L581.5 153.5" fill-rule="nonzero"/><path stroke="#e6e6e6" stroke-width="1.0" stroke-linecap="butt" d="M69.5 127.5L581.5 127.5" fill-rule="nonzero"/><path stroke="#e6e6e6" stroke-width="1.0" stroke-linecap="butt" d="M69.5 76.5L581.5 76.5" fill-rule="nonzero"/><path stroke="#e6e6e6" stroke-width="1.0" stroke-linecap="butt" d="M69.5 51.5L581.5 51.5" fill-rule="nonzero"/><clipPath id="id_0"><path d="M69.55 25.55L581.45 25.55L581.45 332.45L69.55 332.45L69.55 25.55Z" clip-rule="nonzero"/></clipPath><path stroke="#000000" stroke-width="2.0" stroke-linecap="butt" stroke-opacity="0.0" clip-path="url(#id_0)" d="M223.0 332.0L124.0 332.0L124.0 29.0C124.0 27.89543 124.89543 27.0 126.0 27.0L221.0 27.0C222.10457 27.0 223.0 27.89543 223.0 29.0Z" fill-rule="nonzero"/><path fill="#4a86e8" clip-path="url(#id_0)" d="M223.0 332.0L124.0 332.0L124.0 29.0C124.0 27.89543 124.89543 27.0 126.0 27.0L221.0 27.0C222.10457 27.0 223.0 27.89543 223.0 29.0Z" fill-rule="nonzero"/><path stroke="#000000" stroke-width="2.0" stroke-linecap="butt" stroke-opacity="0.0" clip-path="url(#id_0)" d="M376.0 332.0L277.0 332.0L277.0 267.0C277.0 265.89542 277.89542 265.0 279.0 265.0L374.0 265.0C375.10458 265.0 376.0 265.89542 376.0 267.0Z" fill-rule="nonzero"/><path fill="#4285f4" clip-path="url(#id_0)" d="M376.0 332.0L277.0 332.0L277.0 267.0C277.0 265.89542 277.89542 265.0 279.0 265.0L374.0 265.0C375.10458 265.0 376.0 265.89542 376.0 267.0Z" fill-rule="nonzero"/><path stroke="#000000" stroke-width="2.0" stroke-linecap="butt" stroke-opacity="0.0" clip-path="url(#id_0)" d="M528.0 332.0L429.0 332.0L429.0 63.0C429.0 61.89543 429.89542 61.0 431.0 61.0L526.0 61.0C527.10455 61.0 528.0 61.89543 528.0 63.0Z" fill-rule="nonzero"/><path fill="#4285f4" clip-path="url(#id_0)" d="M528.0 332.0L429.0 332.0L429.0 63.0C429.0 61.89543 429.89542 61.0 431.0 61.0L526.0 61.0C527.10455 61.0 528.0 61.89543 528.0 63.0Z" fill-rule="nonzero"/><path stroke="#4a86e8" stroke-width="3.0" stroke-linejoin="round" stroke-linecap="round" d="M159.35938 40.401505Q159.03125 40.807755 158.54688 41.057755Q158.07812 41.29213 157.51562 41.29213Q156.78125 41.29213 156.23438 40.932755Q155.6875 40.57338 155.39062 39.91713Q155.09375 39.245255 155.09375 38.44838Q155.09375 37.60463 155.40625 36.91713Q155.73438 36.22963 156.32812 35.870255Q156.9375 35.495255 157.73438 35.495255Q159.0 35.495255 159.71875 36.44838Q160.45312 37.401505 160.45312 39.026505L160.45312 39.339005Q160.45312 41.839005 159.46875 42.97963Q158.48438 44.120255 156.5 44.151505L156.28125 44.151505L156.28125 43.245255L156.51562 43.245255Q157.85938 43.214005 158.57812 42.54213Q159.29688 41.870255 159.35938 40.401505ZM157.6875 40.401505Q158.23438 40.401505 158.6875 40.07338Q159.15625 39.72963 159.375 39.245255L159.375 38.807755Q159.375 37.745255 158.90625 37.07338Q158.4375 36.401505 157.73438 36.401505Q157.01562 36.401505 156.57812 36.94838Q156.15625 37.495255 156.15625 38.401505Q156.15625 39.276505 156.5625 39.839005Q156.98438 40.401505 157.6875 40.401505ZM166.35938 40.401505Q166.03125 40.807755 165.54688 41.057755Q165.07812 41.29213 164.51562 41.29213Q163.78125 41.29213 163.23438 40.932755Q162.6875 40.57338 162.39062 39.91713Q162.09375 39.245255 162.09375 38.44838Q162.09375 37.60463 162.40625 36.91713Q162.73438 36.22963 163.32812 35.870255Q163.9375 35.495255 164.73438 35.495255Q166.0 35.495255 166.71875 36.44838Q167.45312 37.401505 167.45312 39.026505L167.45312 39.339005Q167.45312 41.839005 166.46875 42.97963Q165.48438 44.120255 163.5 44.151505L163.28125 44.151505L163.28125 43.245255L163.51562 43.245255Q164.85938 43.214005 165.57812 42.54213Q166.29688 41.870255 166.35938 40.401505ZM164.6875 40.401505Q165.23438 40.401505 165.6875 40.07338Q166.15625 39.72963 166.375 39.245255L166.375 38.807755Q166.375 37.745255 165.90625 37.07338Q165.4375 36.401505 164.73438 36.401505Q164.01562 36.401505 163.57812 36.94838Q163.15625 37.495255 163.15625 38.401505Q163.15625 39.276505 163.5625 39.839005Q163.98438 40.401505 164.6875 40.401505ZM169.28125 45.85463L168.67188 45.432755Q169.21875 44.66713 169.25 43.839005L169.25 42.870255L170.3125 42.870255L170.3125 43.714005Q170.3125 44.307755 170.01562 44.901505Q169.71875 45.495255 169.28125 45.85463ZM175.78125 41.29213L176.96875 41.29213L176.96875 42.16713L175.78125 42.16713L175.78125 44.151505L174.70312 44.151505L174.70312 42.16713L170.8125 42.16713L170.8125 41.526505L174.625 35.620255L175.78125 35.620255L175.78125 41.29213ZM172.04688 41.29213L174.70312 41.29213L174.70312 37.10463L174.5625 37.339005L172.04688 41.29213ZM181.76562 44.151505L180.6875 44.151505L180.6875 36.932755L178.5 37.72963L178.5 36.745255L181.60938 35.57338L181.76562 35.57338L181.76562 44.151505ZM186.78125 39.35463L187.59375 39.35463Q188.375 39.339005 188.8125 38.94838Q189.25 38.557755 189.25 37.88588Q189.25 36.38588 187.75 36.38588Q187.04688 36.38588 186.625 36.79213Q186.21875 37.19838 186.21875 37.85463L185.125 37.85463Q185.125 36.839005 185.85938 36.16713Q186.60938 35.495255 187.75 35.495255Q188.95312 35.495255 189.64062 36.13588Q190.32812 36.776505 190.32812 37.91713Q190.32812 38.47963 189.96875 38.995255Q189.60938 39.51088 188.98438 39.776505Q189.6875 39.995255 190.0625 40.51088Q190.45312 41.026505 190.45312 41.776505Q190.45312 42.91713 189.70312 43.60463Q188.95312 44.276505 187.75 44.276505Q186.5625 44.276505 185.79688 43.620255Q185.04688 42.964005 185.04688 41.901505L186.14062 41.901505Q186.14062 42.57338 186.57812 42.97963Q187.01562 43.38588 187.76562 43.38588Q188.54688 43.38588 188.95312 42.97963Q189.375 42.557755 189.375 41.79213Q189.375 41.057755 188.92188 40.66713Q188.46875 40.26088 187.59375 40.245255L186.78125 40.245255L186.78125 39.35463Z" fill-rule="nonzero"/><path fill="#ffffff" d="M159.35938 40.401505Q159.03125 40.807755 158.54688 41.057755Q158.07812 41.29213 157.51562 41.29213Q156.78125 41.29213 156.23438 40.932755Q155.6875 40.57338 155.39062 39.91713Q155.09375 39.245255 155.09375 38.44838Q155.09375 37.60463 155.40625 36.91713Q155.73438 36.22963 156.32812 35.870255Q156.9375 35.495255 157.73438 35.495255Q159.0 35.495255 159.71875 36.44838Q160.45312 37.401505 160.45312 39.026505L160.45312 39.339005Q160.45312 41.839005 159.46875 42.97963Q158.48438 44.120255 156.5 44.151505L156.28125 44.151505L156.28125 43.245255L156.51562 43.245255Q157.85938 43.214005 158.57812 42.54213Q159.29688 41.870255 159.35938 40.401505ZM157.6875 40.401505Q158.23438 40.401505 158.6875 40.07338Q159.15625 39.72963 159.375 39.245255L159.375 38.807755Q159.375 37.745255 158.90625 37.07338Q158.4375 36.401505 157.73438 36.401505Q157.01562 36.401505 156.57812 36.94838Q156.15625 37.495255 156.15625 38.401505Q156.15625 39.276505 156.5625 39.839005Q156.98438 40.401505 157.6875 40.401505ZM166.35938 40.401505Q166.03125 40.807755 165.54688 41.057755Q165.07812 41.29213 164.51562 41.29213Q163.78125 41.29213 163.23438 40.932755Q162.6875 40.57338 162.39062 39.91713Q162.09375 39.245255 162.09375 38.44838Q162.09375 37.60463 162.40625 36.91713Q162.73438 36.22963 163.32812 35.870255Q163.9375 35.495255 164.73438 35.495255Q166.0 35.495255 166.71875 36.44838Q167.45312 37.401505 167.45312 39.026505L167.45312 39.339005Q167.45312 41.839005 166.46875 42.97963Q165.48438 44.120255 163.5 44.151505L163.28125 44.151505L163.28125 43.245255L163.51562 43.245255Q164.85938 43.214005 165.57812 42.54213Q166.29688 41.870255 166.35938 40.401505ZM164.6875 40.401505Q165.23438 40.401505 165.6875 40.07338Q166.15625 39.72963 166.375 39.245255L166.375 38.807755Q166.375 37.745255 165.90625 37.07338Q165.4375 36.401505 164.73438 36.401505Q164.01562 36.401505 163.57812 36.94838Q163.15625 37.495255 163.15625 38.401505Q163.15625 39.276505 163.5625 39.839005Q163.98438 40.401505 164.6875 40.401505ZM169.28125 45.85463L168.67188 45.432755Q169.21875 44.66713 169.25 43.839005L169.25 42.870255L170.3125 42.870255L170.3125 43.714005Q170.3125 44.307755 170.01562 44.901505Q169.71875 45.495255 169.28125 45.85463ZM175.78125 41.29213L176.96875 41.29213L176.96875 42.16713L175.78125 42.16713L175.78125 44.151505L174.70312 44.151505L174.70312 42.16713L170.8125 42.16713L170.8125 41.526505L174.625 35.620255L175.78125 35.620255L175.78125 41.29213ZM172.04688 41.29213L174.70312 41.29213L174.70312 37.10463L174.5625 37.339005L172.04688 41.29213ZM181.76562 44.151505L180.6875 44.151505L180.6875 36.932755L178.5 37.72963L178.5 36.745255L181.60938 35.57338L181.76562 35.57338L181.76562 44.151505ZM186.78125 39.35463L187.59375 39.35463Q188.375 39.339005 188.8125 38.94838Q189.25 38.557755 189.25 37.88588Q189.25 36.38588 187.75 36.38588Q187.04688 36.38588 186.625 36.79213Q186.21875 37.19838 186.21875 37.85463L185.125 37.85463Q185.125 36.839005 185.85938 36.16713Q186.60938 35.495255 187.75 35.495255Q188.95312 35.495255 189.64062 36.13588Q190.32812 36.776505 190.32812 37.91713Q190.32812 38.47963 189.96875 38.995255Q189.60938 39.51088 188.98438 39.776505Q189.6875 39.995255 190.0625 40.51088Q190.45312 41.026505 190.45312 41.776505Q190.45312 42.91713 189.70312 43.60463Q188.95312 44.276505 187.75 44.276505Q186.5625 44.276505 185.79688 43.620255Q185.04688 42.964005 185.04688 41.901505L186.14062 41.901505Q186.14062 42.57338 186.57812 42.97963Q187.01562 43.38588 187.76562 43.38588Q188.54688 43.38588 188.95312 42.97963Q189.375 42.557755 189.375 41.79213Q189.375 41.057755 188.92188 40.66713Q188.46875 40.26088 187.59375 40.245255L186.78125 40.245255L186.78125 39.35463Z" fill-rule="nonzero"/><path stroke="#4285f4" stroke-width="3.0" stroke-linejoin="round" stroke-linecap="round" d="M313.79688 282.2783L308.20312 282.2783L308.20312 281.49704L311.15625 278.2158Q311.8125 277.4658 312.0625 277.01266Q312.3125 276.5439 312.3125 276.0439Q312.3125 275.37204 311.90625 274.95016Q311.51562 274.51266 310.82812 274.51266Q310.03125 274.51266 309.57812 274.9814Q309.125 275.43454 309.125 276.26266L308.04688 276.26266Q308.04688 275.07516 308.79688 274.3564Q309.5625 273.62204 310.82812 273.62204Q312.03125 273.62204 312.71875 274.24704Q313.40625 274.87204 313.40625 275.9189Q313.40625 277.1689 311.79688 278.9189L309.51562 281.38766L313.79688 281.38766L313.79688 282.2783ZM318.76562 282.2783L317.6875 282.2783L317.6875 275.05954L315.5 275.8564L315.5 274.87204L318.60938 273.70016L318.76562 273.70016L318.76562 282.2783ZM322.28125 283.9814L321.67188 283.55954Q322.21875 282.7939 322.25 281.9658L322.25 280.99704L323.3125 280.99704L323.3125 281.8408Q323.3125 282.43454 323.01562 283.0283Q322.71875 283.62204 322.28125 283.9814ZM329.39062 275.9658Q329.39062 276.6064 329.04688 277.1064Q328.70312 277.6064 328.14062 277.88766Q328.79688 278.1689 329.1875 278.7314Q329.57812 279.2783 329.57812 279.9814Q329.57812 281.07516 328.82812 281.74704Q328.09375 282.4033 326.875 282.4033Q325.64062 282.4033 324.89062 281.74704Q324.15625 281.07516 324.15625 279.9814Q324.15625 279.2783 324.53125 278.7314Q324.90625 278.1689 325.57812 277.88766Q325.01562 277.6064 324.6875 277.1064Q324.35938 276.6064 324.35938 275.9658Q324.35938 274.88766 325.04688 274.26266Q325.73438 273.62204 326.875 273.62204Q328.0 273.62204 328.6875 274.26266Q329.39062 274.88766 329.39062 275.9658ZM328.5 279.95016Q328.5 279.2314 328.04688 278.7939Q327.59375 278.3408 326.85938 278.3408Q326.125 278.3408 325.67188 278.7939Q325.23438 279.2314 325.23438 279.9658Q325.23438 280.68454 325.67188 281.1064Q326.10938 281.51266 326.875 281.51266Q327.625 281.51266 328.0625 281.0908Q328.5 280.6689 328.5 279.95016ZM326.875 274.51266Q326.23438 274.51266 325.82812 274.9189Q325.4375 275.30954 325.4375 275.99704Q325.4375 276.63766 325.82812 277.0439Q326.21875 277.45016 326.85938 277.45016Q327.51562 277.45016 327.90625 277.0439Q328.29688 276.63766 328.29688 275.99704Q328.29688 275.3408 327.89062 274.93454Q327.48438 274.51266 326.875 274.51266ZM336.79688 282.2783L331.20312 282.2783L331.20312 281.49704L334.15625 278.2158Q334.8125 277.4658 335.0625 277.01266Q335.3125 276.5439 335.3125 276.0439Q335.3125 275.37204 334.90625 274.95016Q334.51562 274.51266 333.82812 274.51266Q333.03125 274.51266 332.57812 274.9814Q332.125 275.43454 332.125 276.26266L331.04688 276.26266Q331.04688 275.07516 331.79688 274.3564Q332.5625 273.62204 333.82812 273.62204Q335.03125 273.62204 335.71875 274.24704Q336.40625 274.87204 336.40625 275.9189Q336.40625 277.1689 334.79688 278.9189L332.51562 281.38766L336.79688 281.38766L336.79688 282.2783ZM343.79688 282.2783L338.20312 282.2783L338.20312 281.49704L341.15625 278.2158Q341.8125 277.4658 342.0625 277.01266Q342.3125 276.5439 342.3125 276.0439Q342.3125 275.37204 341.90625 274.95016Q341.51562 274.51266 340.82812 274.51266Q340.03125 274.51266 339.57812 274.9814Q339.125 275.43454 339.125 276.26266L338.04688 276.26266Q338.04688 275.07516 338.79688 274.3564Q339.5625 273.62204 340.82812 273.62204Q342.03125 273.62204 342.71875 274.24704Q343.40625 274.87204 343.40625 275.9189Q343.40625 277.1689 341.79688 278.9189L339.51562 281.38766L343.79688 281.38766L343.79688 282.2783Z" fill-rule="nonzero"/><path fill="#ffffff" d="M313.79688 282.2783L308.20312 282.2783L308.20312 281.49704L311.15625 278.2158Q311.8125 277.4658 312.0625 277.01266Q312.3125 276.5439 312.3125 276.0439Q312.3125 275.37204 311.90625 274.95016Q311.51562 274.51266 310.82812 274.51266Q310.03125 274.51266 309.57812 274.9814Q309.125 275.43454 309.125 276.26266L308.04688 276.26266Q308.04688 275.07516 308.79688 274.3564Q309.5625 273.62204 310.82812 273.62204Q312.03125 273.62204 312.71875 274.24704Q313.40625 274.87204 313.40625 275.9189Q313.40625 277.1689 311.79688 278.9189L309.51562 281.38766L313.79688 281.38766L313.79688 282.2783ZM318.76562 282.2783L317.6875 282.2783L317.6875 275.05954L315.5 275.8564L315.5 274.87204L318.60938 273.70016L318.76562 273.70016L318.76562 282.2783ZM322.28125 283.9814L321.67188 283.55954Q322.21875 282.7939 322.25 281.9658L322.25 280.99704L323.3125 280.99704L323.3125 281.8408Q323.3125 282.43454 323.01562 283.0283Q322.71875 283.62204 322.28125 283.9814ZM329.39062 275.9658Q329.39062 276.6064 329.04688 277.1064Q328.70312 277.6064 328.14062 277.88766Q328.79688 278.1689 329.1875 278.7314Q329.57812 279.2783 329.57812 279.9814Q329.57812 281.07516 328.82812 281.74704Q328.09375 282.4033 326.875 282.4033Q325.64062 282.4033 324.89062 281.74704Q324.15625 281.07516 324.15625 279.9814Q324.15625 279.2783 324.53125 278.7314Q324.90625 278.1689 325.57812 277.88766Q325.01562 277.6064 324.6875 277.1064Q324.35938 276.6064 324.35938 275.9658Q324.35938 274.88766 325.04688 274.26266Q325.73438 273.62204 326.875 273.62204Q328.0 273.62204 328.6875 274.26266Q329.39062 274.88766 329.39062 275.9658ZM328.5 279.95016Q328.5 279.2314 328.04688 278.7939Q327.59375 278.3408 326.85938 278.3408Q326.125 278.3408 325.67188 278.7939Q325.23438 279.2314 325.23438 279.9658Q325.23438 280.68454 325.67188 281.1064Q326.10938 281.51266 326.875 281.51266Q327.625 281.51266 328.0625 281.0908Q328.5 280.6689 328.5 279.95016ZM326.875 274.51266Q326.23438 274.51266 325.82812 274.9189Q325.4375 275.30954 325.4375 275.99704Q325.4375 276.63766 325.82812 277.0439Q326.21875 277.45016 326.85938 277.45016Q327.51562 277.45016 327.90625 277.0439Q328.29688 276.63766 328.29688 275.99704Q328.29688 275.3408 327.89062 274.93454Q327.48438 274.51266 326.875 274.51266ZM336.79688 282.2783L331.20312 282.2783L331.20312 281.49704L334.15625 278.2158Q334.8125 277.4658 335.0625 277.01266Q335.3125 276.5439 335.3125 276.0439Q335.3125 275.37204 334.90625 274.95016Q334.51562 274.51266 333.82812 274.51266Q333.03125 274.51266 332.57812 274.9814Q332.125 275.43454 332.125 276.26266L331.04688 276.26266Q331.04688 275.07516 331.79688 274.3564Q332.5625 273.62204 333.82812 273.62204Q335.03125 273.62204 335.71875 274.24704Q336.40625 274.87204 336.40625 275.9189Q336.40625 277.1689 334.79688 278.9189L332.51562 281.38766L336.79688 281.38766L336.79688 282.2783ZM343.79688 282.2783L338.20312 282.2783L338.20312 281.49704L341.15625 278.2158Q341.8125 277.4658 342.0625 277.01266Q342.3125 276.5439 342.3125 276.0439Q342.3125 275.37204 341.90625 274.95016Q341.51562 274.51266 340.82812 274.51266Q340.03125 274.51266 339.57812 274.9814Q339.125 275.43454 339.125 276.26266L338.04688 276.26266Q338.04688 275.07516 338.79688 274.3564Q339.5625 273.62204 340.82812 273.62204Q342.03125 273.62204 342.71875 274.24704Q343.40625 274.87204 343.40625 275.9189Q343.40625 277.1689 341.79688 278.9189L339.51562 281.38766L343.79688 281.38766L343.79688 282.2783Z" fill-rule="nonzero"/><path stroke="#4285f4" stroke-width="3.0" stroke-linejoin="round" stroke-linecap="round" d="M465.39062 71.226654Q465.39062 71.86728 465.04688 72.36728Q464.70312 72.86728 464.14062 73.14853Q464.79688 73.42978 465.1875 73.99228Q465.57812 74.539154 465.57812 75.24228Q465.57812 76.33603 464.82812 77.007904Q464.09375 77.664154 462.875 77.664154Q461.64062 77.664154 460.89062 77.007904Q460.15625 76.33603 460.15625 75.24228Q460.15625 74.539154 460.53125 73.99228Q460.90625 73.42978 461.57812 73.14853Q461.01562 72.86728 460.6875 72.36728Q460.35938 71.86728 460.35938 71.226654Q460.35938 70.14853 461.04688 69.52353Q461.73438 68.882904 462.875 68.882904Q464.0 68.882904 464.6875 69.52353Q465.39062 70.14853 465.39062 71.226654ZM464.5 75.21103Q464.5 74.49228 464.04688 74.05478Q463.59375 73.601654 462.85938 73.601654Q462.125 73.601654 461.67188 74.05478Q461.23438 74.49228 461.23438 75.226654Q461.23438 75.945404 461.67188 76.36728Q462.10938 76.77353 462.875 76.77353Q463.625 76.77353 464.0625 76.351654Q464.5 75.92978 464.5 75.21103ZM462.875 69.77353Q462.23438 69.77353 461.82812 70.17978Q461.4375 70.570404 461.4375 71.257904Q461.4375 71.89853 461.82812 72.30478Q462.21875 72.71103 462.85938 72.71103Q463.51562 72.71103 463.90625 72.30478Q464.29688 71.89853 464.29688 71.257904Q464.29688 70.601654 463.89062 70.195404Q463.48438 69.77353 462.875 69.77353ZM472.39062 71.226654Q472.39062 71.86728 472.04688 72.36728Q471.70312 72.86728 471.14062 73.14853Q471.79688 73.42978 472.1875 73.99228Q472.57812 74.539154 472.57812 75.24228Q472.57812 76.33603 471.82812 77.007904Q471.09375 77.664154 469.875 77.664154Q468.64062 77.664154 467.89062 77.007904Q467.15625 76.33603 467.15625 75.24228Q467.15625 74.539154 467.53125 73.99228Q467.90625 73.42978 468.57812 73.14853Q468.01562 72.86728 467.6875 72.36728Q467.35938 71.86728 467.35938 71.226654Q467.35938 70.14853 468.04688 69.52353Q468.73438 68.882904 469.875 68.882904Q471.0 68.882904 471.6875 69.52353Q472.39062 70.14853 472.39062 71.226654ZM471.5 75.21103Q471.5 74.49228 471.04688 74.05478Q470.59375 73.601654 469.85938 73.601654Q469.125 73.601654 468.67188 74.05478Q468.23438 74.49228 468.23438 75.226654Q468.23438 75.945404 468.67188 76.36728Q469.10938 76.77353 469.875 76.77353Q470.625 76.77353 471.0625 76.351654Q471.5 75.92978 471.5 75.21103ZM469.875 69.77353Q469.23438 69.77353 468.82812 70.17978Q468.4375 70.570404 468.4375 71.257904Q468.4375 71.89853 468.82812 72.30478Q469.21875 72.71103 469.85938 72.71103Q470.51562 72.71103 470.90625 72.30478Q471.29688 71.89853 471.29688 71.257904Q471.29688 70.601654 470.89062 70.195404Q470.48438 69.77353 469.875 69.77353ZM474.28125 79.24228L473.67188 78.820404Q474.21875 78.05478 474.25 77.226654L474.25 76.257904L475.3125 76.257904L475.3125 77.101654Q475.3125 77.695404 475.01562 78.289154Q474.71875 78.882904 474.28125 79.24228ZM476.70312 73.257904L477.14062 69.007904L481.51562 69.007904L481.51562 70.007904L478.0625 70.007904L477.79688 72.33603Q478.4375 71.96103 479.23438 71.96103Q480.39062 71.96103 481.07812 72.74228Q481.76562 73.507904 481.76562 74.820404Q481.76562 76.132904 481.04688 76.89853Q480.34375 77.664154 479.0625 77.664154Q477.9375 77.664154 477.21875 77.039154Q476.5 76.39853 476.40625 75.289154L477.42188 75.289154Q477.53125 76.02353 477.95312 76.39853Q478.375 76.77353 479.0625 76.77353Q479.8125 76.77353 480.25 76.257904Q480.6875 75.74228 480.6875 74.83603Q480.6875 73.976654 480.21875 73.46103Q479.75 72.945404 478.96875 72.945404Q478.26562 72.945404 477.85938 73.24228L477.57812 73.476654L476.70312 73.257904ZM484.78125 72.74228L485.59375 72.74228Q486.375 72.726654 486.8125 72.33603Q487.25 71.945404 487.25 71.27353Q487.25 69.77353 485.75 69.77353Q485.04688 69.77353 484.625 70.17978Q484.21875 70.58603 484.21875 71.24228L483.125 71.24228Q483.125 70.226654 483.85938 69.55478Q484.60938 68.882904 485.75 68.882904Q486.95312 68.882904 487.64062 69.52353Q488.32812 70.164154 488.32812 71.30478Q488.32812 71.86728 487.96875 72.382904Q487.60938 72.89853 486.98438 73.164154Q487.6875 73.382904 488.0625 73.89853Q488.45312 74.414154 488.45312 75.164154Q488.45312 76.30478 487.70312 76.99228Q486.95312 77.664154 485.75 77.664154Q484.5625 77.664154 483.79688 77.007904Q483.04688 76.351654 483.04688 75.289154L484.14062 75.289154Q484.14062 75.96103 484.57812 76.36728Q485.01562 76.77353 485.76562 76.77353Q486.54688 76.77353 486.95312 76.36728Q487.375 75.945404 487.375 75.17978Q487.375 74.445404 486.92188 74.05478Q486.46875 73.64853 485.59375 73.632904L484.78125 73.632904L484.78125 72.74228ZM494.78125 74.67978L495.96875 74.67978L495.96875 75.55478L494.78125 75.55478L494.78125 77.539154L493.70312 77.539154L493.70312 75.55478L489.8125 75.55478L489.8125 74.914154L493.625 69.007904L494.78125 69.007904L494.78125 74.67978ZM491.04688 74.67978L493.70312 74.67978L493.70312 70.49228L493.5625 70.726654L491.04688 74.67978Z" fill-rule="nonzero"/><path fill="#ffffff" d="M465.39062 71.226654Q465.39062 71.86728 465.04688 72.36728Q464.70312 72.86728 464.14062 73.14853Q464.79688 73.42978 465.1875 73.99228Q465.57812 74.539154 465.57812 75.24228Q465.57812 76.33603 464.82812 77.007904Q464.09375 77.664154 462.875 77.664154Q461.64062 77.664154 460.89062 77.007904Q460.15625 76.33603 460.15625 75.24228Q460.15625 74.539154 460.53125 73.99228Q460.90625 73.42978 461.57812 73.14853Q461.01562 72.86728 460.6875 72.36728Q460.35938 71.86728 460.35938 71.226654Q460.35938 70.14853 461.04688 69.52353Q461.73438 68.882904 462.875 68.882904Q464.0 68.882904 464.6875 69.52353Q465.39062 70.14853 465.39062 71.226654ZM464.5 75.21103Q464.5 74.49228 464.04688 74.05478Q463.59375 73.601654 462.85938 73.601654Q462.125 73.601654 461.67188 74.05478Q461.23438 74.49228 461.23438 75.226654Q461.23438 75.945404 461.67188 76.36728Q462.10938 76.77353 462.875 76.77353Q463.625 76.77353 464.0625 76.351654Q464.5 75.92978 464.5 75.21103ZM462.875 69.77353Q462.23438 69.77353 461.82812 70.17978Q461.4375 70.570404 461.4375 71.257904Q461.4375 71.89853 461.82812 72.30478Q462.21875 72.71103 462.85938 72.71103Q463.51562 72.71103 463.90625 72.30478Q464.29688 71.89853 464.29688 71.257904Q464.29688 70.601654 463.89062 70.195404Q463.48438 69.77353 462.875 69.77353ZM472.39062 71.226654Q472.39062 71.86728 472.04688 72.36728Q471.70312 72.86728 471.14062 73.14853Q471.79688 73.42978 472.1875 73.99228Q472.57812 74.539154 472.57812 75.24228Q472.57812 76.33603 471.82812 77.007904Q471.09375 77.664154 469.875 77.664154Q468.64062 77.664154 467.89062 77.007904Q467.15625 76.33603 467.15625 75.24228Q467.15625 74.539154 467.53125 73.99228Q467.90625 73.42978 468.57812 73.14853Q468.01562 72.86728 467.6875 72.36728Q467.35938 71.86728 467.35938 71.226654Q467.35938 70.14853 468.04688 69.52353Q468.73438 68.882904 469.875 68.882904Q471.0 68.882904 471.6875 69.52353Q472.39062 70.14853 472.39062 71.226654ZM471.5 75.21103Q471.5 74.49228 471.04688 74.05478Q470.59375 73.601654 469.85938 73.601654Q469.125 73.601654 468.67188 74.05478Q468.23438 74.49228 468.23438 75.226654Q468.23438 75.945404 468.67188 76.36728Q469.10938 76.77353 469.875 76.77353Q470.625 76.77353 471.0625 76.351654Q471.5 75.92978 471.5 75.21103ZM469.875 69.77353Q469.23438 69.77353 468.82812 70.17978Q468.4375 70.570404 468.4375 71.257904Q468.4375 71.89853 468.82812 72.30478Q469.21875 72.71103 469.85938 72.71103Q470.51562 72.71103 470.90625 72.30478Q471.29688 71.89853 471.29688 71.257904Q471.29688 70.601654 470.89062 70.195404Q470.48438 69.77353 469.875 69.77353ZM474.28125 79.24228L473.67188 78.820404Q474.21875 78.05478 474.25 77.226654L474.25 76.257904L475.3125 76.257904L475.3125 77.101654Q475.3125 77.695404 475.01562 78.289154Q474.71875 78.882904 474.28125 79.24228ZM476.70312 73.257904L477.14062 69.007904L481.51562 69.007904L481.51562 70.007904L478.0625 70.007904L477.79688 72.33603Q478.4375 71.96103 479.23438 71.96103Q480.39062 71.96103 481.07812 72.74228Q481.76562 73.507904 481.76562 74.820404Q481.76562 76.132904 481.04688 76.89853Q480.34375 77.664154 479.0625 77.664154Q477.9375 77.664154 477.21875 77.039154Q476.5 76.39853 476.40625 75.289154L477.42188 75.289154Q477.53125 76.02353 477.95312 76.39853Q478.375 76.77353 479.0625 76.77353Q479.8125 76.77353 480.25 76.257904Q480.6875 75.74228 480.6875 74.83603Q480.6875 73.976654 480.21875 73.46103Q479.75 72.945404 478.96875 72.945404Q478.26562 72.945404 477.85938 73.24228L477.57812 73.476654L476.70312 73.257904ZM484.78125 72.74228L485.59375 72.74228Q486.375 72.726654 486.8125 72.33603Q487.25 71.945404 487.25 71.27353Q487.25 69.77353 485.75 69.77353Q485.04688 69.77353 484.625 70.17978Q484.21875 70.58603 484.21875 71.24228L483.125 71.24228Q483.125 70.226654 483.85938 69.55478Q484.60938 68.882904 485.75 68.882904Q486.95312 68.882904 487.64062 69.52353Q488.32812 70.164154 488.32812 71.30478Q488.32812 71.86728 487.96875 72.382904Q487.60938 72.89853 486.98438 73.164154Q487.6875 73.382904 488.0625 73.89853Q488.45312 74.414154 488.45312 75.164154Q488.45312 76.30478 487.70312 76.99228Q486.95312 77.664154 485.75 77.664154Q484.5625 77.664154 483.79688 77.007904Q483.04688 76.351654 483.04688 75.289154L484.14062 75.289154Q484.14062 75.96103 484.57812 76.36728Q485.01562 76.77353 485.76562 76.77353Q486.54688 76.77353 486.95312 76.36728Q487.375 75.945404 487.375 75.17978Q487.375 74.445404 486.92188 74.05478Q486.46875 73.64853 485.59375 73.632904L484.78125 73.632904L484.78125 72.74228ZM494.78125 74.67978L495.96875 74.67978L495.96875 75.55478L494.78125 75.55478L494.78125 77.539154L493.70312 77.539154L493.70312 75.55478L489.8125 75.55478L489.8125 74.914154L493.625 69.007904L494.78125 69.007904L494.78125 74.67978ZM491.04688 74.67978L493.70312 74.67978L493.70312 70.49228L493.5625 70.726654L491.04688 74.67978Z" fill-rule="nonzero"/><path fill="#000000" d="M57.05 332.21564Q57.05 330.6844 57.3625 329.7625Q57.675 328.825 58.284374 328.325Q58.909374 327.825 59.846874 327.825Q60.534374 327.825 61.05 328.10626Q61.58125 328.3875 61.925 328.91876Q62.26875 329.4344 62.45625 330.1844Q62.64375 330.9344 62.64375 332.21564Q62.64375 333.73126 62.33125 334.65314Q62.034374 335.575 61.409374 336.09064Q60.8 336.59064 59.846874 336.59064Q58.6125 336.59064 57.89375 335.7Q57.05 334.6375 57.05 332.21564ZM58.128124 332.21564Q58.128124 334.325 58.628124 335.02814Q59.128124 335.73126 59.846874 335.73126Q60.58125 335.73126 61.065624 335.02814Q61.565624 334.325 61.565624 332.21564Q61.565624 330.09064 61.065624 329.40314Q60.58125 328.7 59.83125 328.7Q59.1125 328.7 58.675 329.3094Q58.128124 330.09064 58.128124 332.21564Z" fill-rule="nonzero"/><path fill="#000000" d="M31.596874 258.70938L31.596874 259.725L25.909374 259.725Q25.909374 259.35 26.034374 258.99063Q26.253124 258.4125 26.721874 257.85Q27.20625 257.2875 28.1125 256.55313Q29.51875 255.39688 30.003124 254.725Q30.503124 254.05313 30.503124 253.45938Q30.503124 252.83438 30.05 252.4125Q29.596874 251.975 28.878124 251.975Q28.1125 251.975 27.659374 252.42813Q27.20625 252.88126 27.190624 253.69376L26.1125 253.58438Q26.221874 252.36563 26.940624 251.74063Q27.675 251.1 28.909374 251.1Q30.14375 251.1 30.8625 251.7875Q31.58125 252.475 31.58125 253.49063Q31.58125 254.00626 31.3625 254.50626Q31.159374 254.99063 30.659374 255.55313Q30.175 256.1 29.05 257.05313Q28.096874 257.85 27.815624 258.14688Q27.55 258.42813 27.378124 258.70938L31.596874 258.70938ZM33.05 257.475L34.159374 257.38126Q34.284374 258.19376 34.721874 258.6Q35.175 259.00626 35.815624 259.00626Q36.565624 259.00626 37.096874 258.42813Q37.628124 257.85 37.628124 256.9125Q37.628124 256.00626 37.1125 255.49063Q36.6125 254.95938 35.784374 254.95938Q35.284374 254.95938 34.8625 255.19376Q34.45625 255.42813 34.221874 255.7875L33.2375 255.6625L34.065624 251.25626L38.346874 251.25626L38.346874 252.25626L34.909374 252.25626L34.45625 254.56876Q35.221874 254.02188 36.065624 254.02188Q37.190624 254.02188 37.95625 254.80313Q38.7375 255.58438 38.7375 256.81876Q38.7375 257.975 38.065624 258.83438Q37.2375 259.86563 35.815624 259.86563Q34.64375 259.86563 33.89375 259.20938Q33.159374 258.55313 33.05 257.475ZM40.6125 259.725L40.6125 258.52188L41.815624 258.52188L41.815624 259.725Q41.815624 260.38126 41.58125 260.7875Q41.346874 261.20938 40.846874 261.42813L40.55 260.975Q40.878124 260.83438 41.034374 260.5375Q41.190624 260.25626 41.221874 259.725L40.6125 259.725ZM43.05 255.49063Q43.05 253.95938 43.3625 253.0375Q43.675 252.1 44.284374 251.6Q44.909374 251.1 45.846874 251.1Q46.534374 251.1 47.05 251.38126Q47.58125 251.6625 47.925 252.19376Q48.26875 252.70938 48.45625 253.45938Q48.64375 254.20938 48.64375 255.49063Q48.64375 257.00626 48.33125 257.92813Q48.034374 258.85 47.409374 259.36563Q46.8 259.86563 45.846874 259.86563Q44.6125 259.86563 43.89375 258.975Q43.05 257.9125 43.05 255.49063ZM44.128124 255.49063Q44.128124 257.6 44.628124 258.30313Q45.128124 259.00626 45.846874 259.00626Q46.58125 259.00626 47.065624 258.30313Q47.565624 257.6 47.565624 255.49063Q47.565624 253.36563 47.065624 252.67813Q46.58125 251.975 45.83125 251.975Q45.1125 251.975 44.675 252.58438Q44.128124 253.36563 44.128124 255.49063ZM50.05 255.49063Q50.05 253.95938 50.3625 253.0375Q50.675 252.1 51.284374 251.6Q51.909374 251.1 52.846874 251.1Q53.534374 251.1 54.05 251.38126Q54.58125 251.6625 54.925 252.19376Q55.26875 252.70938 55.45625 253.45938Q55.64375 254.20938 55.64375 255.49063Q55.64375 257.00626 55.33125 257.92813Q55.034374 258.85 54.409374 259.36563Q53.8 259.86563 52.846874 259.86563Q51.6125 259.86563 50.89375 258.975Q50.05 257.9125 50.05 255.49063ZM51.128124 255.49063Q51.128124 257.6 51.628124 258.30313Q52.128124 259.00626 52.846874 259.00626Q53.58125 259.00626 54.065624 258.30313Q54.565624 257.6 54.565624 255.49063Q54.565624 253.36563 54.065624 252.67813Q53.58125 251.975 52.83125 251.975Q52.1125 251.975 51.675 252.58438Q51.128124 253.36563 51.128124 255.49063ZM57.05 255.49063Q57.05 253.95938 57.3625 253.0375Q57.675 252.1 58.284374 251.6Q58.909374 251.1 59.846874 251.1Q60.534374 251.1 61.05 251.38126Q61.58125 251.6625 61.925 252.19376Q62.26875 252.70938 62.45625 253.45938Q62.64375 254.20938 62.64375 255.49063Q62.64375 257.00626 62.33125 257.92813Q62.034374 258.85 61.409374 259.36563Q60.8 259.86563 59.846874 259.86563Q58.6125 259.86563 57.89375 258.975Q57.05 257.9125 57.05 255.49063ZM58.128124 255.49063Q58.128124 257.6 58.628124 258.30313Q59.128124 259.00626 59.846874 259.00626Q60.58125 259.00626 61.065624 258.30313Q61.565624 257.6 61.565624 255.49063Q61.565624 253.36563 61.065624 252.67813Q60.58125 251.975 59.83125 251.975Q59.1125 251.975 58.675 252.58438Q58.128124 253.36563 58.128124 255.49063Z" fill-rule="nonzero"/><path fill="#000000" d="M26.05 180.75L27.159374 180.65625Q27.284374 181.46875 27.721874 181.875Q28.175 182.28125 28.815624 182.28125Q29.565624 182.28125 30.096874 181.70312Q30.628124 181.125 30.628124 180.1875Q30.628124 179.28125 30.1125 178.76562Q29.6125 178.23438 28.784374 178.23438Q28.284374 178.23438 27.8625 178.46875Q27.45625 178.70312 27.221874 179.0625L26.2375 178.9375L27.065624 174.53125L31.346874 174.53125L31.346874 175.53125L27.909374 175.53125L27.45625 177.84375Q28.221874 177.29688 29.065624 177.29688Q30.190624 177.29688 30.95625 178.07812Q31.7375 178.85938 31.7375 180.09375Q31.7375 181.25 31.065624 182.10938Q30.2375 183.14062 28.815624 183.14062Q27.64375 183.14062 26.89375 182.48438Q26.159374 181.82812 26.05 180.75ZM33.05 178.76562Q33.05 177.23438 33.3625 176.3125Q33.675 175.375 34.284374 174.875Q34.909374 174.375 35.846874 174.375Q36.534374 174.375 37.05 174.65625Q37.58125 174.9375 37.925 175.46875Q38.26875 175.98438 38.45625 176.73438Q38.64375 177.48438 38.64375 178.76562Q38.64375 180.28125 38.33125 181.20312Q38.034374 182.125 37.409374 182.64062Q36.8 183.14062 35.846874 183.14062Q34.6125 183.14062 33.89375 182.25Q33.05 181.1875 33.05 178.76562ZM34.128124 178.76562Q34.128124 180.875 34.628124 181.57812Q35.128124 182.28125 35.846874 182.28125Q36.58125 182.28125 37.065624 181.57812Q37.565624 180.875 37.565624 178.76562Q37.565624 176.64062 37.065624 175.95312Q36.58125 175.25 35.83125 175.25Q35.1125 175.25 34.675 175.85938Q34.128124 176.64062 34.128124 178.76562ZM40.6125 183.0L40.6125 181.79688L41.815624 181.79688L41.815624 183.0Q41.815624 183.65625 41.58125 184.0625Q41.346874 184.48438 40.846874 184.70312L40.55 184.25Q40.878124 184.10938 41.034374 183.8125Q41.190624 183.53125 41.221874 183.0L40.6125 183.0ZM43.05 178.76562Q43.05 177.23438 43.3625 176.3125Q43.675 175.375 44.284374 174.875Q44.909374 174.375 45.846874 174.375Q46.534374 174.375 47.05 174.65625Q47.58125 174.9375 47.925 175.46875Q48.26875 175.98438 48.45625 176.73438Q48.64375 177.48438 48.64375 178.76562Q48.64375 180.28125 48.33125 181.20312Q48.034374 182.125 47.409374 182.64062Q46.8 183.14062 45.846874 183.14062Q44.6125 183.14062 43.89375 182.25Q43.05 181.1875 43.05 178.76562ZM44.128124 178.76562Q44.128124 180.875 44.628124 181.57812Q45.128124 182.28125 45.846874 182.28125Q46.58125 182.28125 47.065624 181.57812Q47.565624 180.875 47.565624 178.76562Q47.565624 176.64062 47.065624 175.95312Q46.58125 175.25 45.83125 175.25Q45.1125 175.25 44.675 175.85938Q44.128124 176.64062 44.128124 178.76562ZM50.05 178.76562Q50.05 177.23438 50.3625 176.3125Q50.675 175.375 51.284374 174.875Q51.909374 174.375 52.846874 174.375Q53.534374 174.375 54.05 174.65625Q54.58125 174.9375 54.925 175.46875Q55.26875 175.98438 55.45625 176.73438Q55.64375 177.48438 55.64375 178.76562Q55.64375 180.28125 55.33125 181.20312Q55.034374 182.125 54.409374 182.64062Q53.8 183.14062 52.846874 183.14062Q51.6125 183.14062 50.89375 182.25Q50.05 181.1875 50.05 178.76562ZM51.128124 178.76562Q51.128124 180.875 51.628124 181.57812Q52.128124 182.28125 52.846874 182.28125Q53.58125 182.28125 54.065624 181.57812Q54.565624 180.875 54.565624 178.76562Q54.565624 176.64062 54.065624 175.95312Q53.58125 175.25 52.83125 175.25Q52.1125 175.25 51.675 175.85938Q51.128124 176.64062 51.128124 178.76562ZM57.05 178.76562Q57.05 177.23438 57.3625 176.3125Q57.675 175.375 58.284374 174.875Q58.909374 174.375 59.846874 174.375Q60.534374 174.375 61.05 174.65625Q61.58125 174.9375 61.925 175.46875Q62.26875 175.98438 62.45625 176.73438Q62.64375 177.48438 62.64375 178.76562Q62.64375 180.28125 62.33125 181.20312Q62.034374 182.125 61.409374 182.64062Q60.8 183.14062 59.846874 183.14062Q58.6125 183.14062 57.89375 182.25Q57.05 181.1875 57.05 178.76562ZM58.128124 178.76562Q58.128124 180.875 58.628124 181.57812Q59.128124 182.28125 59.846874 182.28125Q60.58125 182.28125 61.065624 181.57812Q61.565624 180.875 61.565624 178.76562Q61.565624 176.64062 61.065624 175.95312Q60.58125 175.25 59.83125 175.25Q59.1125 175.25 58.675 175.85938Q58.128124 176.64062 58.128124 178.76562Z" fill-rule="nonzero"/><path fill="#000000" d="M26.1125 98.80625L26.1125 97.79063L31.675 97.79063L31.675 98.61875Q30.8625 99.49375 30.05 100.94688Q29.253124 102.38438 28.815624 103.91563Q28.4875 104.99375 28.409374 106.275L27.315624 106.275Q27.33125 105.25938 27.70625 103.82188Q28.096874 102.38438 28.8 101.05625Q29.51875 99.72813 30.33125 98.80625L26.1125 98.80625ZM33.05 104.025L34.159374 103.93125Q34.284374 104.74375 34.721874 105.15Q35.175 105.55625 35.815624 105.55625Q36.565624 105.55625 37.096874 104.97813Q37.628124 104.4 37.628124 103.4625Q37.628124 102.55625 37.1125 102.04063Q36.6125 101.50938 35.784374 101.50938Q35.284374 101.50938 34.8625 101.74375Q34.45625 101.97813 34.221874 102.3375L33.2375 102.2125L34.065624 97.80625L38.346874 97.80625L38.346874 98.80625L34.909374 98.80625L34.45625 101.11875Q35.221874 100.57188 36.065624 100.57188Q37.190624 100.57188 37.95625 101.35313Q38.7375 102.13438 38.7375 103.36875Q38.7375 104.525 38.065624 105.38438Q37.2375 106.41563 35.815624 106.41563Q34.64375 106.41563 33.89375 105.75938Q33.159374 105.10313 33.05 104.025ZM40.6125 106.275L40.6125 105.07188L41.815624 105.07188L41.815624 106.275Q41.815624 106.93125 41.58125 107.3375Q41.346874 107.75938 40.846874 107.97813L40.55 107.525Q40.878124 107.38438 41.034374 107.0875Q41.190624 106.80625 41.221874 106.275L40.6125 106.275ZM43.05 102.04063Q43.05 100.50938 43.3625 99.5875Q43.675 98.65 44.284374 98.15Q44.909374 97.65 45.846874 97.65Q46.534374 97.65 47.05 97.93125Q47.58125 98.2125 47.925 98.74375Q48.26875 99.25938 48.45625 100.00938Q48.64375 100.75938 48.64375 102.04063Q48.64375 103.55625 48.33125 104.47813Q48.034374 105.4 47.409374 105.91563Q46.8 106.41563 45.846874 106.41563Q44.6125 106.41563 43.89375 105.525Q43.05 104.4625 43.05 102.04063ZM44.128124 102.04063Q44.128124 104.15 44.628124 104.85313Q45.128124 105.55625 45.846874 105.55625Q46.58125 105.55625 47.065624 104.85313Q47.565624 104.15 47.565624 102.04063Q47.565624 99.91563 47.065624 99.22813Q46.58125 98.525 45.83125 98.525Q45.1125 98.525 44.675 99.13438Q44.128124 99.91563 44.128124 102.04063ZM50.05 102.04063Q50.05 100.50938 50.3625 99.5875Q50.675 98.65 51.284374 98.15Q51.909374 97.65 52.846874 97.65Q53.534374 97.65 54.05 97.93125Q54.58125 98.2125 54.925 98.74375Q55.26875 99.25938 55.45625 100.00938Q55.64375 100.75938 55.64375 102.04063Q55.64375 103.55625 55.33125 104.47813Q55.034374 105.4 54.409374 105.91563Q53.8 106.41563 52.846874 106.41563Q51.6125 106.41563 50.89375 105.525Q50.05 104.4625 50.05 102.04063ZM51.128124 102.04063Q51.128124 104.15 51.628124 104.85313Q52.128124 105.55625 52.846874 105.55625Q53.58125 105.55625 54.065624 104.85313Q54.565624 104.15 54.565624 102.04063Q54.565624 99.91563 54.065624 99.22813Q53.58125 98.525 52.83125 98.525Q52.1125 98.525 51.675 99.13438Q51.128124 99.91563 51.128124 102.04063ZM57.05 102.04063Q57.05 100.50938 57.3625 99.5875Q57.675 98.65 58.284374 98.15Q58.909374 97.65 59.846874 97.65Q60.534374 97.65 61.05 97.93125Q61.58125 98.2125 61.925 98.74375Q62.26875 99.25938 62.45625 100.00938Q62.64375 100.75938 62.64375 102.04063Q62.64375 103.55625 62.33125 104.47813Q62.034374 105.4 61.409374 105.91563Q60.8 106.41563 59.846874 106.41563Q58.6125 106.41563 57.89375 105.525Q57.05 104.4625 57.05 102.04063ZM58.128124 102.04063Q58.128124 104.15 58.628124 104.85313Q59.128124 105.55625 59.846874 105.55625Q60.58125 105.55625 61.065624 104.85313Q61.565624 104.15 61.565624 102.04063Q61.565624 99.91563 61.065624 99.22813Q60.58125 98.525 59.83125 98.525Q59.1125 98.525 58.675 99.13438Q58.128124 99.91563 58.128124 102.04063Z" fill-rule="nonzero"/><path fill="#000000" d="M23.01875 29.55L21.971874 29.55L21.971874 22.83125Q21.58125 23.190624 20.95625 23.565624Q20.346874 23.925 19.8625 24.096874L19.8625 23.08125Q20.7375 22.659374 21.39375 22.08125Q22.065624 21.4875 22.346874 20.925L23.01875 20.925L23.01875 29.55ZM26.05 25.315624Q26.05 23.784374 26.3625 22.8625Q26.675 21.925 27.284374 21.425Q27.909374 20.925 28.846874 20.925Q29.534374 20.925 30.05 21.20625Q30.58125 21.4875 30.925 22.01875Q31.26875 22.534374 31.45625 23.284374Q31.64375 24.034374 31.64375 25.315624Q31.64375 26.83125 31.33125 27.753124Q31.034374 28.675 30.409374 29.190624Q29.8 29.690624 28.846874 29.690624Q27.6125 29.690624 26.89375 28.8Q26.05 27.7375 26.05 25.315624ZM27.128124 25.315624Q27.128124 27.425 27.628124 28.128124Q28.128124 28.83125 28.846874 28.83125Q29.58125 28.83125 30.065624 28.128124Q30.565624 27.425 30.565624 25.315624Q30.565624 23.190624 30.065624 22.503124Q29.58125 21.8 28.83125 21.8Q28.1125 21.8 27.675 22.409374Q27.128124 23.190624 27.128124 25.315624ZM33.05 25.315624Q33.05 23.784374 33.3625 22.8625Q33.675 21.925 34.284374 21.425Q34.909374 20.925 35.846874 20.925Q36.534374 20.925 37.05 21.20625Q37.58125 21.4875 37.925 22.01875Q38.26875 22.534374 38.45625 23.284374Q38.64375 24.034374 38.64375 25.315624Q38.64375 26.83125 38.33125 27.753124Q38.034374 28.675 37.409374 29.190624Q36.8 29.690624 35.846874 29.690624Q34.6125 29.690624 33.89375 28.8Q33.05 27.7375 33.05 25.315624ZM34.128124 25.315624Q34.128124 27.425 34.628124 28.128124Q35.128124 28.83125 35.846874 28.83125Q36.58125 28.83125 37.065624 28.128124Q37.565624 27.425 37.565624 25.315624Q37.565624 23.190624 37.065624 22.503124Q36.58125 21.8 35.83125 21.8Q35.1125 21.8 34.675 22.409374Q34.128124 23.190624 34.128124 25.315624ZM40.6125 29.55L40.6125 28.346874L41.815624 28.346874L41.815624 29.55Q41.815624 30.20625 41.58125 30.6125Q41.346874 31.034374 40.846874 31.253124L40.55 30.8Q40.878124 30.659374 41.034374 30.3625Q41.190624 30.08125 41.221874 29.55L40.6125 29.55ZM43.05 25.315624Q43.05 23.784374 43.3625 22.8625Q43.675 21.925 44.284374 21.425Q44.909374 20.925 45.846874 20.925Q46.534374 20.925 47.05 21.20625Q47.58125 21.4875 47.925 22.01875Q48.26875 22.534374 48.45625 23.284374Q48.64375 24.034374 48.64375 25.315624Q48.64375 26.83125 48.33125 27.753124Q48.034374 28.675 47.409374 29.190624Q46.8 29.690624 45.846874 29.690624Q44.6125 29.690624 43.89375 28.8Q43.05 27.7375 43.05 25.315624ZM44.128124 25.315624Q44.128124 27.425 44.628124 28.128124Q45.128124 28.83125 45.846874 28.83125Q46.58125 28.83125 47.065624 28.128124Q47.565624 27.425 47.565624 25.315624Q47.565624 23.190624 47.065624 22.503124Q46.58125 21.8 45.83125 21.8Q45.1125 21.8 44.675 22.409374Q44.128124 23.190624 44.128124 25.315624ZM50.05 25.315624Q50.05 23.784374 50.3625 22.8625Q50.675 21.925 51.284374 21.425Q51.909374 20.925 52.846874 20.925Q53.534374 20.925 54.05 21.20625Q54.58125 21.4875 54.925 22.01875Q55.26875 22.534374 55.45625 23.284374Q55.64375 24.034374 55.64375 25.315624Q55.64375 26.83125 55.33125 27.753124Q55.034374 28.675 54.409374 29.190624Q53.8 29.690624 52.846874 29.690624Q51.6125 29.690624 50.89375 28.8Q50.05 27.7375 50.05 25.315624ZM51.128124 25.315624Q51.128124 27.425 51.628124 28.128124Q52.128124 28.83125 52.846874 28.83125Q53.58125 28.83125 54.065624 28.128124Q54.565624 27.425 54.565624 25.315624Q54.565624 23.190624 54.065624 22.503124Q53.58125 21.8 52.83125 21.8Q52.1125 21.8 51.675 22.409374Q51.128124 23.190624 51.128124 25.315624ZM57.05 25.315624Q57.05 23.784374 57.3625 22.8625Q57.675 21.925 58.284374 21.425Q58.909374 20.925 59.846874 20.925Q60.534374 20.925 61.05 21.20625Q61.58125 21.4875 61.925 22.01875Q62.26875 22.534374 62.45625 23.284374Q62.64375 24.034374 62.64375 25.315624Q62.64375 26.83125 62.33125 27.753124Q62.034374 28.675 61.409374 29.190624Q60.8 29.690624 59.846874 29.690624Q58.6125 29.690624 57.89375 28.8Q57.05 27.7375 57.05 25.315624ZM58.128124 25.315624Q58.128124 27.425 58.628124 28.128124Q59.128124 28.83125 59.846874 28.83125Q60.58125 28.83125 61.065624 28.128124Q61.565624 27.425 61.565624 25.315624Q61.565624 23.190624 61.065624 22.503124Q60.58125 21.8 59.83125 21.8Q59.1125 21.8 58.675 22.409374Q58.128124 23.190624 58.128124 25.315624Z" fill-rule="nonzero"/><path fill="#000000" d="M106.178406 349.45L109.47528 340.85626L110.69403 340.85626L114.209656 349.45L112.928406 349.45L111.91278 346.84064L108.334656 346.84064L107.38153 349.45L106.178406 349.45ZM108.66278 345.91876L111.56903 345.91876L110.678406 343.54376Q110.25653 342.46564 110.06903 341.7625Q109.897156 342.59064 109.60028 343.40314L108.66278 345.91876ZM114.084656 349.45L114.084656 340.85626L115.803406 340.85626L117.834656 346.9344Q118.115906 347.79376 118.240906 348.21564Q118.38153 347.7469 118.69403 346.84064L120.75653 340.85626L122.28778 340.85626L122.28778 349.45L121.19403 349.45L121.19403 342.2625L118.69403 349.45L117.66278 349.45L115.178406 342.1375L115.178406 349.45L114.084656 349.45ZM129.63153 348.52814Q130.4284 349.075 131.08466 349.325L130.75653 350.1219Q129.83466 349.77814 128.91278 349.0594Q127.959656 349.59064 126.803406 349.59064Q125.63153 349.59064 124.678406 349.02814Q123.740906 348.46564 123.22528 347.45Q122.709656 346.4344 122.709656 345.15314Q122.709656 343.8875 123.22528 342.84064Q123.740906 341.79376 124.69403 341.2469Q125.647156 340.7 126.81903 340.7Q128.00653 340.7 128.95966 341.27814Q129.9284 341.84064 130.4284 342.85626Q130.9284 343.8719 130.9284 345.15314Q130.9284 346.21564 130.60028 347.0594Q130.28778 347.90314 129.63153 348.52814ZM127.13153 347.075Q128.1159 347.35626 128.75653 347.90314Q129.75653 346.98126 129.75653 345.15314Q129.75653 344.10626 129.39716 343.325Q129.03778 342.54376 128.35028 342.1219Q127.678406 341.6844 126.834656 341.6844Q125.553406 341.6844 124.709656 342.5594Q123.88153 343.41876 123.88153 345.15314Q123.88153 346.825 124.709656 347.73126Q125.53778 348.6219 126.834656 348.6219Q127.44403 348.6219 127.97528 348.3875Q127.44403 348.04376 126.85028 347.90314L127.13153 347.075ZM132.1159 349.45L132.1159 340.85626L135.3659 340.85626Q136.20966 340.85626 136.66278 340.9344Q137.3034 341.04376 137.72528 341.34064Q138.16278 341.6375 138.41278 342.16876Q138.6784 342.7 138.6784 343.34064Q138.6784 344.4344 137.97528 345.2Q137.28778 345.95 135.45966 345.95L133.25653 345.95L133.25653 349.45L132.1159 349.45ZM133.25653 344.95L135.47528 344.95Q136.58466 344.95 137.03778 344.54376Q137.50653 344.1219 137.50653 343.3719Q137.50653 342.84064 137.22528 342.46564Q136.95966 342.075 136.52216 341.95Q136.22528 341.8719 135.45966 341.8719L133.25653 341.8719L133.25653 344.95ZM146.66278 349.45L145.6159 349.45L145.6159 342.73126Q145.22528 343.09064 144.60028 343.46564Q143.9909 343.825 143.50653 343.9969L143.50653 342.98126Q144.38153 342.5594 145.03778 341.98126Q145.70966 341.3875 145.9909 340.825L146.66278 340.825L146.66278 349.45ZM150.28778 349.45L150.28778 348.2469L151.4909 348.2469L151.4909 349.45L150.28778 349.45ZM152.69403 345.21564Q152.69403 343.6844 153.00653 342.7625Q153.31903 341.825 153.9284 341.325Q154.5534 340.825 155.4909 340.825Q156.1784 340.825 156.69403 341.10626Q157.22528 341.3875 157.56903 341.91876Q157.91278 342.4344 158.10028 343.1844Q158.28778 343.9344 158.28778 345.21564Q158.28778 346.73126 157.97528 347.65314Q157.6784 348.575 157.0534 349.09064Q156.44403 349.59064 155.4909 349.59064Q154.25653 349.59064 153.53778 348.7Q152.69403 347.6375 152.69403 345.21564ZM153.77216 345.21564Q153.77216 347.325 154.27216 348.02814Q154.77216 348.73126 155.4909 348.73126Q156.22528 348.73126 156.70966 348.02814Q157.20966 347.325 157.20966 345.21564Q157.20966 343.09064 156.70966 342.40314Q156.22528 341.7 155.47528 341.7Q154.75653 341.7 154.31903 342.3094Q153.77216 343.09064 153.77216 345.21564ZM160.25653 349.45L160.25653 348.2469L161.45966 348.2469L161.45966 349.45Q161.45966 350.10626 161.22528 350.5125Q160.9909 350.9344 160.4909 351.15314L160.19403 350.7Q160.52216 350.5594 160.6784 350.2625Q160.83466 349.98126 160.8659 349.45L160.25653 349.45ZM166.13153 349.45L166.13153 340.85626L169.94403 340.85626Q171.10028 340.85626 171.69403 341.09064Q172.28778 341.325 172.64716 341.91876Q173.00653 342.4969 173.00653 343.2Q173.00653 344.1219 172.41278 344.7469Q171.81903 345.3719 170.58466 345.54376Q171.03778 345.7625 171.27216 345.96564Q171.77216 346.41876 172.20966 347.10626L173.70966 349.45L172.27216 349.45L171.14716 347.66876Q170.64716 346.8875 170.31903 346.48126Q170.00653 346.075 169.7409 345.91876Q169.4909 345.7469 169.22528 345.66876Q169.03778 345.6375 168.60028 345.6375L167.27216 345.6375L167.27216 349.45L166.13153 349.45ZM167.27216 344.65314L169.72528 344.65314Q170.4909 344.65314 170.9284 344.4969Q171.38153 344.325 171.60028 343.98126Q171.83466 343.6219 171.83466 343.2Q171.83466 342.59064 171.38153 342.2Q170.94403 341.8094 169.9909 341.8094L167.27216 341.8094L167.27216 344.65314ZM179.0534 348.6844Q178.45966 349.1844 177.91278 349.3875Q177.38153 349.59064 176.75653 349.59064Q175.72528 349.59064 175.1784 349.09064Q174.63153 348.59064 174.63153 347.8094Q174.63153 347.35626 174.83466 346.98126Q175.03778 346.59064 175.38153 346.3719Q175.72528 346.1375 176.14716 346.02814Q176.44403 345.9344 177.08466 345.85626Q178.35028 345.71564 178.95966 345.4969Q178.95966 345.27814 178.95966 345.23126Q178.95966 344.575 178.66278 344.3094Q178.25653 343.96564 177.45966 343.96564Q176.72528 343.96564 176.3659 344.23126Q176.00653 344.48126 175.83466 345.1375L174.8034 344.9969Q174.94403 344.34064 175.27216 343.9344Q175.60028 343.52814 176.20966 343.3094Q176.81903 343.09064 177.6159 343.09064Q178.41278 343.09064 178.91278 343.27814Q179.41278 343.46564 179.64716 343.7469Q179.88153 344.02814 179.97528 344.46564Q180.02216 344.73126 180.02216 345.4344L180.02216 346.84064Q180.02216 348.3094 180.08466 348.7Q180.16278 349.09064 180.3659 349.45L179.25653 349.45Q179.10028 349.1219 179.0534 348.6844ZM178.95966 346.325Q178.38153 346.5594 177.2409 346.73126Q176.58466 346.825 176.31903 346.95Q176.0534 347.0594 175.89716 347.27814Q175.75653 347.4969 175.75653 347.77814Q175.75653 348.2 176.06903 348.48126Q176.39716 348.7625 177.00653 348.7625Q177.6159 348.7625 178.08466 348.4969Q178.56903 348.23126 178.78778 347.7625Q178.95966 347.40314 178.95966 346.71564L178.95966 346.325ZM182.95966 349.45L181.97528 349.45L181.97528 340.85626L183.03778 340.85626L183.03778 343.91876Q183.70966 343.09064 184.7409 343.09064Q185.31903 343.09064 185.81903 343.325Q186.33466 343.54376 186.66278 343.96564Q187.00653 344.3875 187.19403 344.98126Q187.38153 345.575 187.38153 346.2469Q187.38153 347.84064 186.58466 348.71564Q185.78778 349.59064 184.69403 349.59064Q183.58466 349.59064 182.95966 348.66876L182.95966 349.45ZM182.94403 346.29376Q182.94403 347.40314 183.25653 347.90314Q183.75653 348.71564 184.60028 348.71564Q185.28778 348.71564 185.78778 348.1219Q186.3034 347.52814 186.3034 346.325Q186.3034 345.10626 185.81903 344.52814Q185.33466 343.95 184.64716 343.95Q183.95966 343.95 183.44403 344.5594Q182.94403 345.15314 182.94403 346.29376ZM189.95966 349.45L188.97528 349.45L188.97528 340.85626L190.03778 340.85626L190.03778 343.91876Q190.70966 343.09064 191.7409 343.09064Q192.31903 343.09064 192.81903 343.325Q193.33466 343.54376 193.66278 343.96564Q194.00653 344.3875 194.19403 344.98126Q194.38153 345.575 194.38153 346.2469Q194.38153 347.84064 193.58466 348.71564Q192.78778 349.59064 191.69403 349.59064Q190.58466 349.59064 189.95966 348.66876L189.95966 349.45ZM189.94403 346.29376Q189.94403 347.40314 190.25653 347.90314Q190.75653 348.71564 191.60028 348.71564Q192.28778 348.71564 192.78778 348.1219Q193.3034 347.52814 193.3034 346.325Q193.3034 345.10626 192.81903 344.52814Q192.33466 343.95 191.64716 343.95Q190.95966 343.95 190.44403 344.5594Q189.94403 345.15314 189.94403 346.29376ZM195.9909 342.075L195.9909 340.85626L197.0534 340.85626L197.0534 342.075L195.9909 342.075ZM195.9909 349.45L195.9909 343.23126L197.0534 343.23126L197.0534 349.45L195.9909 349.45ZM201.28778 348.5125L201.44403 349.4344Q200.9909 349.52814 200.64716 349.52814Q200.06903 349.52814 199.75653 349.35626Q199.44403 349.16876 199.3034 348.8719Q199.1784 348.575 199.1784 347.6219L199.1784 344.04376L198.41278 344.04376L198.41278 343.23126L199.1784 343.23126L199.1784 341.6844L200.22528 341.0594L200.22528 343.23126L201.28778 343.23126L201.28778 344.04376L200.22528 344.04376L200.22528 347.6844Q200.22528 348.1375 200.27216 348.2625Q200.33466 348.3875 200.45966 348.46564Q200.58466 348.54376 200.81903 348.54376Q201.00653 348.54376 201.28778 348.5125ZM202.08466 349.45L202.08466 340.85626L203.8034 340.85626L205.83466 346.9344Q206.1159 347.79376 206.2409 348.21564Q206.38153 347.7469 206.69403 346.84064L208.75653 340.85626L210.28778 340.85626L210.28778 349.45L209.19403 349.45L209.19403 342.2625L206.69403 349.45L205.66278 349.45L203.1784 342.1375L203.1784 349.45L202.08466 349.45ZM217.63153 348.52814Q218.4284 349.075 219.08466 349.325L218.75653 350.1219Q217.83466 349.77814 216.91278 349.0594Q215.95966 349.59064 214.8034 349.59064Q213.63153 349.59064 212.6784 349.02814Q211.7409 348.46564 211.22528 347.45Q210.70966 346.4344 210.70966 345.15314Q210.70966 343.8875 211.22528 342.84064Q211.7409 341.79376 212.69403 341.2469Q213.64716 340.7 214.81903 340.7Q216.00653 340.7 216.95966 341.27814Q217.9284 341.84064 218.4284 342.85626Q218.9284 343.8719 218.9284 345.15314Q218.9284 346.21564 218.60028 347.0594Q218.28778 347.90314 217.63153 348.52814ZM215.13153 347.075Q216.1159 347.35626 216.75653 347.90314Q217.75653 346.98126 217.75653 345.15314Q217.75653 344.10626 217.39716 343.325Q217.03778 342.54376 216.35028 342.1219Q215.6784 341.6844 214.83466 341.6844Q213.5534 341.6844 212.70966 342.5594Q211.88153 343.41876 211.88153 345.15314Q211.88153 346.825 212.70966 347.73126Q213.53778 348.6219 214.83466 348.6219Q215.44403 348.6219 215.97528 348.3875Q215.44403 348.04376 214.85028 347.90314L215.13153 347.075ZM226.06903 349.45L226.06903 347.3875L222.35028 347.3875L222.35028 346.41876L226.27216 340.85626L227.13153 340.85626L227.13153 346.41876L228.28778 346.41876L228.28778 347.3875L227.13153 347.3875L227.13153 349.45L226.06903 349.45ZM226.06903 346.41876L226.06903 342.5594L223.38153 346.41876L226.06903 346.41876ZM230.28778 349.45L230.28778 348.2469L231.4909 348.2469L231.4909 349.45L230.28778 349.45ZM232.69403 345.21564Q232.69403 343.6844 233.00653 342.7625Q233.31903 341.825 233.9284 341.325Q234.5534 340.825 235.4909 340.825Q236.1784 340.825 236.69403 341.10626Q237.22528 341.3875 237.56903 341.91876Q237.91278 342.4344 238.10028 343.1844Q238.28778 343.9344 238.28778 345.21564Q238.28778 346.73126 237.97528 347.65314Q237.6784 348.575 237.0534 349.09064Q236.44403 349.59064 235.4909 349.59064Q234.25653 349.59064 233.53778 348.7Q232.69403 347.6375 232.69403 345.21564ZM233.77216 345.21564Q233.77216 347.325 234.27216 348.02814Q234.77216 348.73126 235.4909 348.73126Q236.22528 348.73126 236.70966 348.02814Q237.20966 347.325 237.20966 345.21564Q237.20966 343.09064 236.70966 342.40314Q236.22528 341.7 235.47528 341.7Q234.75653 341.7 234.31903 342.3094Q233.77216 343.09064 233.77216 345.21564Z" fill-rule="nonzero"/><path fill="#000000" d="M255.48438 349.45L258.78125 340.85626L260.0 340.85626L263.51562 349.45L262.23438 349.45L261.21875 346.84064L257.64062 346.84064L256.6875 349.45L255.48438 349.45ZM257.96875 345.91876L260.875 345.91876L259.98438 343.54376Q259.5625 342.46564 259.375 341.7625Q259.20312 342.59064 258.90625 343.40314L257.96875 345.91876ZM263.39062 349.45L263.39062 340.85626L265.10938 340.85626L267.14062 346.9344Q267.42188 347.79376 267.54688 348.21564Q267.6875 347.7469 268.0 346.84064L270.0625 340.85626L271.59375 340.85626L271.59375 349.45L270.5 349.45L270.5 342.2625L268.0 349.45L266.96875 349.45L264.48438 342.1375L264.48438 349.45L263.39062 349.45ZM278.9375 348.52814Q279.73438 349.075 280.39062 349.325L280.0625 350.1219Q279.14062 349.77814 278.21875 349.0594Q277.26562 349.59064 276.10938 349.59064Q274.9375 349.59064 273.98438 349.02814Q273.04688 348.46564 272.53125 347.45Q272.01562 346.4344 272.01562 345.15314Q272.01562 343.8875 272.53125 342.84064Q273.04688 341.79376 274.0 341.2469Q274.95312 340.7 276.125 340.7Q277.3125 340.7 278.26562 341.27814Q279.23438 341.84064 279.73438 342.85626Q280.23438 343.8719 280.23438 345.15314Q280.23438 346.21564 279.90625 347.0594Q279.59375 347.90314 278.9375 348.52814ZM276.4375 347.075Q277.42188 347.35626 278.0625 347.90314Q279.0625 346.98126 279.0625 345.15314Q279.0625 344.10626 278.70312 343.325Q278.34375 342.54376 277.65625 342.1219Q276.98438 341.6844 276.14062 341.6844Q274.85938 341.6844 274.01562 342.5594Q273.1875 343.41876 273.1875 345.15314Q273.1875 346.825 274.01562 347.73126Q274.84375 348.6219 276.14062 348.6219Q276.75 348.6219 277.28125 348.3875Q276.75 348.04376 276.15625 347.90314L276.4375 347.075ZM281.42188 349.45L281.42188 340.85626L284.67188 340.85626Q285.51562 340.85626 285.96875 340.9344Q286.60938 341.04376 287.03125 341.34064Q287.46875 341.6375 287.71875 342.16876Q287.98438 342.7 287.98438 343.34064Q287.98438 344.4344 287.28125 345.2Q286.59375 345.95 284.76562 345.95L282.5625 345.95L282.5625 349.45L281.42188 349.45ZM282.5625 344.95L284.78125 344.95Q285.89062 344.95 286.34375 344.54376Q286.8125 344.1219 286.8125 343.3719Q286.8125 342.84064 286.53125 342.46564Q286.26562 342.075 285.82812 341.95Q285.53125 341.8719 284.76562 341.8719L282.5625 341.8719L282.5625 344.95ZM295.96875 349.45L294.92188 349.45L294.92188 342.73126Q294.53125 343.09064 293.90625 343.46564Q293.29688 343.825 292.8125 343.9969L292.8125 342.98126Q293.6875 342.5594 294.34375 341.98126Q295.01562 341.3875 295.29688 340.825L295.96875 340.825L295.96875 349.45ZM299.59375 349.45L299.59375 348.2469L300.79688 348.2469L300.79688 349.45L299.59375 349.45ZM302.0 345.21564Q302.0 343.6844 302.3125 342.7625Q302.625 341.825 303.23438 341.325Q303.85938 340.825 304.79688 340.825Q305.48438 340.825 306.0 341.10626Q306.53125 341.3875 306.875 341.91876Q307.21875 342.4344 307.40625 343.1844Q307.59375 343.9344 307.59375 345.21564Q307.59375 346.73126 307.28125 347.65314Q306.98438 348.575 306.35938 349.09064Q305.75 349.59064 304.79688 349.59064Q303.5625 349.59064 302.84375 348.7Q302.0 347.6375 302.0 345.21564ZM303.07812 345.21564Q303.07812 347.325 303.57812 348.02814Q304.07812 348.73126 304.79688 348.73126Q305.53125 348.73126 306.01562 348.02814Q306.51562 347.325 306.51562 345.21564Q306.51562 343.09064 306.01562 342.40314Q305.53125 341.7 304.78125 341.7Q304.0625 341.7 303.625 342.3094Q303.07812 343.09064 303.07812 345.21564ZM309.5625 349.45L309.5625 348.2469L310.76562 348.2469L310.76562 349.45Q310.76562 350.10626 310.53125 350.5125Q310.29688 350.9344 309.79688 351.15314L309.5 350.7Q309.82812 350.5594 309.98438 350.2625Q310.14062 349.98126 310.17188 349.45L309.5625 349.45ZM315.4375 349.45L315.4375 340.85626L319.25 340.85626Q320.40625 340.85626 321.0 341.09064Q321.59375 341.325 321.95312 341.91876Q322.3125 342.4969 322.3125 343.2Q322.3125 344.1219 321.71875 344.7469Q321.125 345.3719 319.89062 345.54376Q320.34375 345.7625 320.57812 345.96564Q321.07812 346.41876 321.51562 347.10626L323.01562 349.45L321.57812 349.45L320.45312 347.66876Q319.95312 346.8875 319.625 346.48126Q319.3125 346.075 319.04688 345.91876Q318.79688 345.7469 318.53125 345.66876Q318.34375 345.6375 317.90625 345.6375L316.57812 345.6375L316.57812 349.45L315.4375 349.45ZM316.57812 344.65314L319.03125 344.65314Q319.79688 344.65314 320.23438 344.4969Q320.6875 344.325 320.90625 343.98126Q321.14062 343.6219 321.14062 343.2Q321.14062 342.59064 320.6875 342.2Q320.25 341.8094 319.29688 341.8094L316.57812 341.8094L316.57812 344.65314ZM328.35938 348.6844Q327.76562 349.1844 327.21875 349.3875Q326.6875 349.59064 326.0625 349.59064Q325.03125 349.59064 324.48438 349.09064Q323.9375 348.59064 323.9375 347.8094Q323.9375 347.35626 324.14062 346.98126Q324.34375 346.59064 324.6875 346.3719Q325.03125 346.1375 325.45312 346.02814Q325.75 345.9344 326.39062 345.85626Q327.65625 345.71564 328.26562 345.4969Q328.26562 345.27814 328.26562 345.23126Q328.26562 344.575 327.96875 344.3094Q327.5625 343.96564 326.76562 343.96564Q326.03125 343.96564 325.67188 344.23126Q325.3125 344.48126 325.14062 345.1375L324.10938 344.9969Q324.25 344.34064 324.57812 343.9344Q324.90625 343.52814 325.51562 343.3094Q326.125 343.09064 326.92188 343.09064Q327.71875 343.09064 328.21875 343.27814Q328.71875 343.46564 328.95312 343.7469Q329.1875 344.02814 329.28125 344.46564Q329.32812 344.73126 329.32812 345.4344L329.32812 346.84064Q329.32812 348.3094 329.39062 348.7Q329.46875 349.09064 329.67188 349.45L328.5625 349.45Q328.40625 349.1219 328.35938 348.6844ZM328.26562 346.325Q327.6875 346.5594 326.54688 346.73126Q325.89062 346.825 325.625 346.95Q325.35938 347.0594 325.20312 347.27814Q325.0625 347.4969 325.0625 347.77814Q325.0625 348.2 325.375 348.48126Q325.70312 348.7625 326.3125 348.7625Q326.92188 348.7625 327.39062 348.4969Q327.875 348.23126 328.09375 347.7625Q328.26562 347.40314 328.26562 346.71564L328.26562 346.325ZM332.26562 349.45L331.28125 349.45L331.28125 340.85626L332.34375 340.85626L332.34375 343.91876Q333.01562 343.09064 334.04688 343.09064Q334.625 343.09064 335.125 343.325Q335.64062 343.54376 335.96875 343.96564Q336.3125 344.3875 336.5 344.98126Q336.6875 345.575 336.6875 346.2469Q336.6875 347.84064 335.89062 348.71564Q335.09375 349.59064 334.0 349.59064Q332.89062 349.59064 332.26562 348.66876L332.26562 349.45ZM332.25 346.29376Q332.25 347.40314 332.5625 347.90314Q333.0625 348.71564 333.90625 348.71564Q334.59375 348.71564 335.09375 348.1219Q335.60938 347.52814 335.60938 346.325Q335.60938 345.10626 335.125 344.52814Q334.64062 343.95 333.95312 343.95Q333.26562 343.95 332.75 344.5594Q332.25 345.15314 332.25 346.29376ZM339.26562 349.45L338.28125 349.45L338.28125 340.85626L339.34375 340.85626L339.34375 343.91876Q340.01562 343.09064 341.04688 343.09064Q341.625 343.09064 342.125 343.325Q342.64062 343.54376 342.96875 343.96564Q343.3125 344.3875 343.5 344.98126Q343.6875 345.575 343.6875 346.2469Q343.6875 347.84064 342.89062 348.71564Q342.09375 349.59064 341.0 349.59064Q339.89062 349.59064 339.26562 348.66876L339.26562 349.45ZM339.25 346.29376Q339.25 347.40314 339.5625 347.90314Q340.0625 348.71564 340.90625 348.71564Q341.59375 348.71564 342.09375 348.1219Q342.60938 347.52814 342.60938 346.325Q342.60938 345.10626 342.125 344.52814Q341.64062 343.95 340.95312 343.95Q340.26562 343.95 339.75 344.5594Q339.25 345.15314 339.25 346.29376ZM345.29688 342.075L345.29688 340.85626L346.35938 340.85626L346.35938 342.075L345.29688 342.075ZM345.29688 349.45L345.29688 343.23126L346.35938 343.23126L346.35938 349.45L345.29688 349.45ZM350.59375 348.5125L350.75 349.4344Q350.29688 349.52814 349.95312 349.52814Q349.375 349.52814 349.0625 349.35626Q348.75 349.16876 348.60938 348.8719Q348.48438 348.575 348.48438 347.6219L348.48438 344.04376L347.71875 344.04376L347.71875 343.23126L348.48438 343.23126L348.48438 341.6844L349.53125 341.0594L349.53125 343.23126L350.59375 343.23126L350.59375 344.04376L349.53125 344.04376L349.53125 347.6844Q349.53125 348.1375 349.57812 348.2625Q349.64062 348.3875 349.76562 348.46564Q349.89062 348.54376 350.125 348.54376Q350.3125 348.54376 350.59375 348.5125ZM351.39062 349.45L351.39062 340.85626L353.10938 340.85626L355.14062 346.9344Q355.42188 347.79376 355.54688 348.21564Q355.6875 347.7469 356.0 346.84064L358.0625 340.85626L359.59375 340.85626L359.59375 349.45L358.5 349.45L358.5 342.2625L356.0 349.45L354.96875 349.45L352.48438 342.1375L352.48438 349.45L351.39062 349.45ZM366.9375 348.52814Q367.73438 349.075 368.39062 349.325L368.0625 350.1219Q367.14062 349.77814 366.21875 349.0594Q365.26562 349.59064 364.10938 349.59064Q362.9375 349.59064 361.98438 349.02814Q361.04688 348.46564 360.53125 347.45Q360.01562 346.4344 360.01562 345.15314Q360.01562 343.8875 360.53125 342.84064Q361.04688 341.79376 362.0 341.2469Q362.95312 340.7 364.125 340.7Q365.3125 340.7 366.26562 341.27814Q367.23438 341.84064 367.73438 342.85626Q368.23438 343.8719 368.23438 345.15314Q368.23438 346.21564 367.90625 347.0594Q367.59375 347.90314 366.9375 348.52814ZM364.4375 347.075Q365.42188 347.35626 366.0625 347.90314Q367.0625 346.98126 367.0625 345.15314Q367.0625 344.10626 366.70312 343.325Q366.34375 342.54376 365.65625 342.1219Q364.98438 341.6844 364.14062 341.6844Q362.85938 341.6844 362.01562 342.5594Q361.1875 343.41876 361.1875 345.15314Q361.1875 346.825 362.01562 347.73126Q362.84375 348.6219 364.14062 348.6219Q364.75 348.6219 365.28125 348.3875Q364.75 348.04376 364.15625 347.90314L364.4375 347.075ZM372.0 347.1844L373.0625 347.04376Q373.23438 347.9344 373.67188 348.34064Q374.10938 348.73126 374.73438 348.73126Q375.48438 348.73126 376.0 348.21564Q376.51562 347.7 376.51562 346.9344Q376.51562 346.21564 376.03125 345.7469Q375.5625 345.2625 374.82812 345.2625Q374.53125 345.2625 374.07812 345.3875L374.20312 344.45Q374.3125 344.46564 374.375 344.46564Q375.04688 344.46564 375.57812 344.1219Q376.125 343.7625 376.125 343.02814Q376.125 342.45 375.73438 342.075Q375.34375 341.6844 374.71875 341.6844Q374.10938 341.6844 373.6875 342.075Q373.28125 342.46564 373.17188 343.23126L372.10938 343.04376Q372.29688 341.9969 372.98438 341.41876Q373.67188 340.825 374.6875 340.825Q375.39062 340.825 375.98438 341.1375Q376.57812 341.4344 376.89062 341.95Q377.20312 342.46564 377.20312 343.0594Q377.20312 343.60626 376.90625 344.075Q376.60938 344.52814 376.03125 344.79376Q376.78125 344.96564 377.20312 345.52814Q377.625 346.075 377.625 346.91876Q377.625 348.04376 376.79688 348.825Q375.98438 349.60626 374.73438 349.60626Q373.60938 349.60626 372.85938 348.9344Q372.10938 348.2469 372.0 347.1844ZM379.59375 349.45L379.59375 348.2469L380.79688 348.2469L380.79688 349.45L379.59375 349.45ZM385.96875 349.45L384.92188 349.45L384.92188 342.73126Q384.53125 343.09064 383.90625 343.46564Q383.29688 343.825 382.8125 343.9969L382.8125 342.98126Q383.6875 342.5594 384.34375 341.98126Q385.01562 341.3875 385.29688 340.825L385.96875 340.825L385.96875 349.45ZM389.0 347.1844L390.0625 347.04376Q390.23438 347.9344 390.67188 348.34064Q391.10938 348.73126 391.73438 348.73126Q392.48438 348.73126 393.0 348.21564Q393.51562 347.7 393.51562 346.9344Q393.51562 346.21564 393.03125 345.7469Q392.5625 345.2625 391.82812 345.2625Q391.53125 345.2625 391.07812 345.3875L391.20312 344.45Q391.3125 344.46564 391.375 344.46564Q392.04688 344.46564 392.57812 344.1219Q393.125 343.7625 393.125 343.02814Q393.125 342.45 392.73438 342.075Q392.34375 341.6844 391.71875 341.6844Q391.10938 341.6844 390.6875 342.075Q390.28125 342.46564 390.17188 343.23126L389.10938 343.04376Q389.29688 341.9969 389.98438 341.41876Q390.67188 340.825 391.6875 340.825Q392.39062 340.825 392.98438 341.1375Q393.57812 341.4344 393.89062 341.95Q394.20312 342.46564 394.20312 343.0594Q394.20312 343.60626 393.90625 344.075Q393.60938 344.52814 393.03125 344.79376Q393.78125 344.96564 394.20312 345.52814Q394.625 346.075 394.625 346.91876Q394.625 348.04376 393.79688 348.825Q392.98438 349.60626 391.73438 349.60626Q390.60938 349.60626 389.85938 348.9344Q389.10938 348.2469 389.0 347.1844Z" fill-rule="nonzero"/><path fill="#000000" d="M406.79034 349.45L410.08722 340.85626L411.30597 340.85626L414.8216 349.45L413.54034 349.45L412.52472 346.84064L408.9466 346.84064L407.99347 349.45L406.79034 349.45ZM409.27472 345.91876L412.18097 345.91876L411.29034 343.54376Q410.86847 342.46564 410.68097 341.7625Q410.5091 342.59064 410.21222 343.40314L409.27472 345.91876ZM414.6966 349.45L414.6966 340.85626L416.41534 340.85626L418.4466 346.9344Q418.72784 347.79376 418.85284 348.21564Q418.99347 347.7469 419.30597 346.84064L421.36847 340.85626L422.89972 340.85626L422.89972 349.45L421.80597 349.45L421.80597 342.2625L419.30597 349.45L418.27472 349.45L415.79034 342.1375L415.79034 349.45L414.6966 349.45ZM430.24347 348.52814Q431.04034 349.075 431.6966 349.325L431.36847 350.1219Q430.4466 349.77814 429.52472 349.0594Q428.5716 349.59064 427.41534 349.59064Q426.24347 349.59064 425.29034 349.02814Q424.35284 348.46564 423.83722 347.45Q423.3216 346.4344 423.3216 345.15314Q423.3216 343.8875 423.83722 342.84064Q424.35284 341.79376 425.30597 341.2469Q426.2591 340.7 427.43097 340.7Q428.61847 340.7 429.5716 341.27814Q430.54034 341.84064 431.04034 342.85626Q431.54034 343.8719 431.54034 345.15314Q431.54034 346.21564 431.21222 347.0594Q430.89972 347.90314 430.24347 348.52814ZM427.74347 347.075Q428.72784 347.35626 429.36847 347.90314Q430.36847 346.98126 430.36847 345.15314Q430.36847 344.10626 430.0091 343.325Q429.64972 342.54376 428.96222 342.1219Q428.29034 341.6844 427.4466 341.6844Q426.16534 341.6844 425.3216 342.5594Q424.49347 343.41876 424.49347 345.15314Q424.49347 346.825 425.3216 347.73126Q426.14972 348.6219 427.4466 348.6219Q428.05597 348.6219 428.58722 348.3875Q428.05597 348.04376 427.46222 347.90314L427.74347 347.075ZM432.72784 349.45L432.72784 340.85626L435.97784 340.85626Q436.8216 340.85626 437.27472 340.9344Q437.91534 341.04376 438.33722 341.34064Q438.77472 341.6375 439.02472 342.16876Q439.29034 342.7 439.29034 343.34064Q439.29034 344.4344 438.58722 345.2Q437.89972 345.95 436.0716 345.95L433.86847 345.95L433.86847 349.45L432.72784 349.45ZM433.86847 344.95L436.08722 344.95Q437.1966 344.95 437.64972 344.54376Q438.11847 344.1219 438.11847 343.3719Q438.11847 342.84064 437.83722 342.46564Q437.5716 342.075 437.1341 341.95Q436.83722 341.8719 436.0716 341.8719L433.86847 341.8719L433.86847 344.95ZM443.30597 345.21564Q443.30597 343.6844 443.61847 342.7625Q443.93097 341.825 444.54034 341.325Q445.16534 340.825 446.10284 340.825Q446.79034 340.825 447.30597 341.10626Q447.83722 341.3875 448.18097 341.91876Q448.52472 342.4344 448.71222 343.1844Q448.89972 343.9344 448.89972 345.21564Q448.89972 346.73126 448.58722 347.65314Q448.29034 348.575 447.66534 349.09064Q447.05597 349.59064 446.10284 349.59064Q444.86847 349.59064 444.14972 348.7Q443.30597 347.6375 443.30597 345.21564ZM444.3841 345.21564Q444.3841 347.325 444.8841 348.02814Q445.3841 348.73126 446.10284 348.73126Q446.83722 348.73126 447.3216 348.02814Q447.8216 347.325 447.8216 345.21564Q447.8216 343.09064 447.3216 342.40314Q446.83722 341.7 446.08722 341.7Q445.36847 341.7 444.93097 342.3094Q444.3841 343.09064 444.3841 345.21564ZM450.89972 349.45L450.89972 348.2469L452.10284 348.2469L452.10284 349.45L450.89972 349.45ZM453.46222 347.46564L454.47784 347.3719Q454.60284 348.09064 454.96222 348.41876Q455.33722 348.73126 455.89972 348.73126Q456.3841 348.73126 456.74347 348.5125Q457.11847 348.27814 457.35284 347.91876Q457.58722 347.54376 457.74347 346.91876Q457.89972 346.27814 457.89972 345.6219Q457.89972 345.54376 457.89972 345.40314Q457.58722 345.90314 457.04034 346.23126Q456.49347 346.54376 455.85284 346.54376Q454.77472 346.54376 454.04034 345.77814Q453.30597 344.9969 453.30597 343.73126Q453.30597 342.41876 454.0716 341.6219Q454.85284 340.825 456.0091 340.825Q456.83722 340.825 457.52472 341.27814Q458.22784 341.73126 458.58722 342.575Q458.9466 343.40314 458.9466 344.98126Q458.9466 346.6219 458.58722 347.60626Q458.24347 348.575 457.52472 349.09064Q456.8216 349.59064 455.8841 349.59064Q454.86847 349.59064 454.22784 349.04376Q453.58722 348.48126 453.46222 347.46564ZM457.77472 343.66876Q457.77472 342.7625 457.29034 342.23126Q456.8216 341.7 456.1341 341.7Q455.43097 341.7 454.89972 342.27814Q454.3841 342.84064 454.3841 343.7625Q454.3841 344.575 454.8841 345.09064Q455.3841 345.60626 456.10284 345.60626Q456.83722 345.60626 457.30597 345.09064Q457.77472 344.575 457.77472 343.66876ZM460.89972 349.45L460.89972 348.2469L462.10284 348.2469L462.10284 349.45L460.89972 349.45ZM467.27472 349.45L466.22784 349.45L466.22784 342.73126Q465.83722 343.09064 465.21222 343.46564Q464.60284 343.825 464.11847 343.9969L464.11847 342.98126Q464.99347 342.5594 465.64972 341.98126Q466.3216 341.3875 466.60284 340.825L467.27472 340.825L467.27472 349.45ZM470.86847 349.45L470.86847 348.2469L472.0716 348.2469L472.0716 349.45Q472.0716 350.10626 471.83722 350.5125Q471.60284 350.9344 471.10284 351.15314L470.80597 350.7Q471.1341 350.5594 471.29034 350.2625Q471.4466 349.98126 471.47784 349.45L470.86847 349.45ZM476.74347 349.45L476.74347 340.85626L480.55597 340.85626Q481.71222 340.85626 482.30597 341.09064Q482.89972 341.325 483.2591 341.91876Q483.61847 342.4969 483.61847 343.2Q483.61847 344.1219 483.02472 344.7469Q482.43097 345.3719 481.1966 345.54376Q481.64972 345.7625 481.8841 345.96564Q482.3841 346.41876 482.8216 347.10626L484.3216 349.45L482.8841 349.45L481.7591 347.66876Q481.2591 346.8875 480.93097 346.48126Q480.61847 346.075 480.35284 345.91876Q480.10284 345.7469 479.83722 345.66876Q479.64972 345.6375 479.21222 345.6375L477.8841 345.6375L477.8841 349.45L476.74347 349.45ZM477.8841 344.65314L480.33722 344.65314Q481.10284 344.65314 481.54034 344.4969Q481.99347 344.325 482.21222 343.98126Q482.4466 343.6219 482.4466 343.2Q482.4466 342.59064 481.99347 342.2Q481.55597 341.8094 480.60284 341.8094L477.8841 341.8094L477.8841 344.65314ZM489.66534 348.6844Q489.0716 349.1844 488.52472 349.3875Q487.99347 349.59064 487.36847 349.59064Q486.33722 349.59064 485.79034 349.09064Q485.24347 348.59064 485.24347 347.8094Q485.24347 347.35626 485.4466 346.98126Q485.64972 346.59064 485.99347 346.3719Q486.33722 346.1375 486.7591 346.02814Q487.05597 345.9344 487.6966 345.85626Q488.96222 345.71564 489.5716 345.4969Q489.5716 345.27814 489.5716 345.23126Q489.5716 344.575 489.27472 344.3094Q488.86847 343.96564 488.0716 343.96564Q487.33722 343.96564 486.97784 344.23126Q486.61847 344.48126 486.4466 345.1375L485.41534 344.9969Q485.55597 344.34064 485.8841 343.9344Q486.21222 343.52814 486.8216 343.3094Q487.43097 343.09064 488.22784 343.09064Q489.02472 343.09064 489.52472 343.27814Q490.02472 343.46564 490.2591 343.7469Q490.49347 344.02814 490.58722 344.46564Q490.6341 344.73126 490.6341 345.4344L490.6341 346.84064Q490.6341 348.3094 490.6966 348.7Q490.77472 349.09064 490.97784 349.45L489.86847 349.45Q489.71222 349.1219 489.66534 348.6844ZM489.5716 346.325Q488.99347 346.5594 487.85284 346.73126Q487.1966 346.825 486.93097 346.95Q486.66534 347.0594 486.5091 347.27814Q486.36847 347.4969 486.36847 347.77814Q486.36847 348.2 486.68097 348.48126Q487.0091 348.7625 487.61847 348.7625Q488.22784 348.7625 488.6966 348.4969Q489.18097 348.23126 489.39972 347.7625Q489.5716 347.40314 489.5716 346.71564L489.5716 346.325ZM493.5716 349.45L492.58722 349.45L492.58722 340.85626L493.64972 340.85626L493.64972 343.91876Q494.3216 343.09064 495.35284 343.09064Q495.93097 343.09064 496.43097 343.325Q496.9466 343.54376 497.27472 343.96564Q497.61847 344.3875 497.80597 344.98126Q497.99347 345.575 497.99347 346.2469Q497.99347 347.84064 497.1966 348.71564Q496.39972 349.59064 495.30597 349.59064Q494.1966 349.59064 493.5716 348.66876L493.5716 349.45ZM493.55597 346.29376Q493.55597 347.40314 493.86847 347.90314Q494.36847 348.71564 495.21222 348.71564Q495.89972 348.71564 496.39972 348.1219Q496.91534 347.52814 496.91534 346.325Q496.91534 345.10626 496.43097 344.52814Q495.9466 343.95 495.2591 343.95Q494.5716 343.95 494.05597 344.5594Q493.55597 345.15314 493.55597 346.29376ZM500.5716 349.45L499.58722 349.45L499.58722 340.85626L500.64972 340.85626L500.64972 343.91876Q501.3216 343.09064 502.35284 343.09064Q502.93097 343.09064 503.43097 343.325Q503.9466 343.54376 504.27472 343.96564Q504.61847 344.3875 504.80597 344.98126Q504.99347 345.575 504.99347 346.2469Q504.99347 347.84064 504.1966 348.71564Q503.39972 349.59064 502.30597 349.59064Q501.1966 349.59064 500.5716 348.66876L500.5716 349.45ZM500.55597 346.29376Q500.55597 347.40314 500.86847 347.90314Q501.36847 348.71564 502.21222 348.71564Q502.89972 348.71564 503.39972 348.1219Q503.91534 347.52814 503.91534 346.325Q503.91534 345.10626 503.43097 344.52814Q502.9466 343.95 502.2591 343.95Q501.5716 343.95 501.05597 344.5594Q500.55597 345.15314 500.55597 346.29376ZM506.60284 342.075L506.60284 340.85626L507.66534 340.85626L507.66534 342.075L506.60284 342.075ZM506.60284 349.45L506.60284 343.23126L507.66534 343.23126L507.66534 349.45L506.60284 349.45ZM511.89972 348.5125L512.05597 349.4344Q511.60284 349.52814 511.2591 349.52814Q510.68097 349.52814 510.36847 349.35626Q510.05597 349.16876 509.91534 348.8719Q509.79034 348.575 509.79034 347.6219L509.79034 344.04376L509.02472 344.04376L509.02472 343.23126L509.79034 343.23126L509.79034 341.6844L510.83722 341.0594L510.83722 343.23126L511.89972 343.23126L511.89972 344.04376L510.83722 344.04376L510.83722 347.6844Q510.83722 348.1375 510.8841 348.2625Q510.9466 348.3875 511.0716 348.46564Q511.1966 348.54376 511.43097 348.54376Q511.61847 348.54376 511.89972 348.5125ZM512.6966 349.45L512.6966 340.85626L514.41534 340.85626L516.4466 346.9344Q516.72784 347.79376 516.85284 348.21564Q516.99347 347.7469 517.30597 346.84064L519.36847 340.85626L520.8997 340.85626L520.8997 349.45L519.80597 349.45L519.80597 342.2625L517.30597 349.45L516.2747 349.45L513.79034 342.1375L513.79034 349.45L512.6966 349.45ZM528.24347 348.52814Q529.04034 349.075 529.6966 349.325L529.36847 350.1219Q528.4466 349.77814 527.5247 349.0594Q526.5716 349.59064 525.41534 349.59064Q524.24347 349.59064 523.29034 349.02814Q522.35284 348.46564 521.8372 347.45Q521.3216 346.4344 521.3216 345.15314Q521.3216 343.8875 521.8372 342.84064Q522.35284 341.79376 523.30597 341.2469Q524.2591 340.7 525.43097 340.7Q526.61847 340.7 527.5716 341.27814Q528.54034 341.84064 529.04034 342.85626Q529.54034 343.8719 529.54034 345.15314Q529.54034 346.21564 529.2122 347.0594Q528.8997 347.90314 528.24347 348.52814ZM525.74347 347.075Q526.72784 347.35626 527.36847 347.90314Q528.36847 346.98126 528.36847 345.15314Q528.36847 344.10626 528.0091 343.325Q527.6497 342.54376 526.9622 342.1219Q526.29034 341.6844 525.4466 341.6844Q524.16534 341.6844 523.3216 342.5594Q522.49347 343.41876 522.49347 345.15314Q522.49347 346.825 523.3216 347.73126Q524.1497 348.6219 525.4466 348.6219Q526.05597 348.6219 526.5872 348.3875Q526.05597 348.04376 525.4622 347.90314L525.74347 347.075ZM536.68097 349.45L536.68097 347.3875L532.9622 347.3875L532.9622 346.41876L536.8841 340.85626L537.74347 340.85626L537.74347 346.41876L538.8997 346.41876L538.8997 347.3875L537.74347 347.3875L537.74347 349.45L536.68097 349.45ZM536.68097 346.41876L536.68097 342.5594L533.99347 346.41876L536.68097 346.41876ZM540.8997 349.45L540.8997 348.2469L542.10284 348.2469L542.10284 349.45L540.8997 349.45ZM543.30597 345.21564Q543.30597 343.6844 543.61847 342.7625Q543.93097 341.825 544.54034 341.325Q545.16534 340.825 546.10284 340.825Q546.79034 340.825 547.30597 341.10626Q547.8372 341.3875 548.18097 341.91876Q548.5247 342.4344 548.7122 343.1844Q548.8997 343.9344 548.8997 345.21564Q548.8997 346.73126 548.5872 347.65314Q548.29034 348.575 547.66534 349.09064Q547.05597 349.59064 546.10284 349.59064Q544.86847 349.59064 544.1497 348.7Q543.30597 347.6375 543.30597 345.21564ZM544.3841 345.21564Q544.3841 347.325 544.8841 348.02814Q545.3841 348.73126 546.10284 348.73126Q546.8372 348.73126 547.3216 348.02814Q547.8216 347.325 547.8216 345.21564Q547.8216 343.09064 547.3216 342.40314Q546.8372 341.7 546.0872 341.7Q545.36847 341.7 544.93097 342.3094Q544.3841 343.09064 544.3841 345.21564Z" fill-rule="nonzero"/></svg>