<svg version="1.1" viewBox="0.0 0.0 600.0 371.0" fill="none" stroke="none" stroke-linecap="square" stroke-miterlimit="10" width="600" height="371" xmlns:xlink="http://www.w3.org/1999/xlink" xmlns="http://www.w3.org/2000/svg"><path fill="#ffffff" d="M0 0L600.0 0L600.0 371.0L0 371.0L0 0Z" fill-rule="nonzero"/><path stroke="#333333" stroke-width="1.0" stroke-linecap="butt" d="M69.5 332.5L581.5 332.5" fill-rule="nonzero"/><path stroke="#cccccc" stroke-width="1.0" stroke-linecap="butt" d="M69.5 264.5L581.5 264.5" fill-rule="nonzero"/><path stroke="#cccccc" stroke-width="1.0" stroke-linecap="butt" d="M69.5 197.5L581.5 197.5" fill-rule="nonzero"/><path stroke="#cccccc" stroke-width="1.0" stroke-linecap="butt" d="M69.5 129.5L581.5 129.5" fill-rule="nonzero"/><path stroke="#cccccc" stroke-width="1.0" stroke-linecap="butt" d="M69.5 61.5L581.5 61.5" fill-rule="nonzero"/><path stroke="#e6e6e6" stroke-width="1.0" stroke-linecap="butt" d="M69.5 309.5L581.5 309.5" fill-rule="nonzero"/><path stroke="#e6e6e6" stroke-width="1.0" stroke-linecap="butt" d="M69.5 287.5L581.5 287.5" fill-rule="nonzero"/><path stroke="#e6e6e6" stroke-width="1.0" stroke-linecap="butt" d="M69.5 242.5L581.5 242.5" fill-rule="nonzero"/><path stroke="#e6e6e6" stroke-width="1.0" stroke-linecap="butt" d="M69.5 219.5L581.5 219.5" fill-rule="nonzero"/><path stroke="#e6e6e6" stroke-width="1.0" stroke-linecap="butt" d="M69.5 174.5L581.5 174.5" fill-rule="nonzero"/><path stroke="#e6e6e6" stroke-width="1.0" stroke-linecap="butt" d="M69.5 152.5L581.5 152.5" fill-rule="nonzero"/><path stroke="#e6e6e6" stroke-width="1.0" stroke-linecap="butt" d="M69.5 107.5L581.5 107.5" fill-rule="nonzero"/><path stroke="#e6e6e6" stroke-width="1.0" stroke-linecap="butt" d="M69.5 84.5L581.5 84.5" fill-rule="nonzero"/><clipPath id="id_0"><path d="M69.55 61.916668L581.45 61.916668L581.45 332.45L69.55 332.45L69.55 61.916668Z" clip-rule="nonzero"/></clipPath><path stroke="#000000" stroke-width="2.0" stroke-linecap="butt" stroke-opacity="0.0" clip-path="url(#id_0)" d="M223.0 332.0L124.0 332.0L124.0 109.0C124.0 107.89543 124.89543 107.0 126.0 107.0L221.0 107.0C222.10457 107.0 223.0 107.89543 223.0 109.0Z" fill-rule="nonzero"/><path fill="#4a86e8" clip-path="url(#id_0)" d="M223.0 332.0L124.0 332.0L124.0 109.0C124.0 107.89543 124.89543 107.0 126.0 107.0L221.0 107.0C222.10457 107.0 223.0 107.89543 223.0 109.0Z" fill-rule="nonzero"/><path stroke="#000000" stroke-width="2.0" stroke-linecap="butt" stroke-opacity="0.0" clip-path="url(#id_0)" d="M376.0 332.0L277.0 332.0L277.0 332.0L376.0 332.0Z" fill-rule="nonzero"/><path fill="#4285f4" clip-path="url(#id_0)" d="M376.0 332.0L277.0 332.0L277.0 332.0L376.0 332.0Z" fill-rule="nonzero"/><path stroke="#000000" stroke-width="2.0" stroke-linecap="butt" stroke-opacity="0.0" clip-path="url(#id_0)" d="M528.0 332.0L429.0 332.0L429.0 145.0C429.0 143.89543 429.89542 143.0 431.0 143.0L526.0 143.0C527.10455 143.0 528.0 143.89543 528.0 145.0Z" fill-rule="nonzero"/><path fill="#4285f4" clip-path="url(#id_0)" d="M528.0 332.0L429.0 332.0L429.0 145.0C429.0 143.89543 429.89542 143.0 431.0 143.0L526.0 143.0C527.10455 143.0 528.0 143.89543 528.0 145.0Z" fill-rule="nonzero"/><path stroke="#4a86e8" stroke-width="3.0" stroke-linejoin="round" stroke-linecap="round" d="M160.39062 117.323524Q160.39062 117.96415 160.04688 118.46415Q159.70312 118.96415 159.14062 119.2454Q159.79688 119.52665 160.1875 120.08915Q160.57812 120.636024 160.57812 121.33915Q160.57812 122.4329 159.82812 123.104774Q159.09375 123.761024 157.875 123.761024Q156.64062 123.761024 155.89062 123.104774Q155.15625 122.4329 155.15625 121.33915Q155.15625 120.636024 155.53125 120.08915Q155.90625 119.52665 156.57812 119.2454Q156.01562 118.96415 155.6875 118.46415Q155.35938 117.96415 155.35938 117.323524Q155.35938 116.2454 156.04688 115.6204Q156.73438 114.979774 157.875 114.979774Q159.0 114.979774 159.6875 115.6204Q160.39062 116.2454 160.39062 117.323524ZM159.5 121.3079Q159.5 120.58915 159.04688 120.15165Q158.59375 119.698524 157.85938 119.698524Q157.125 119.698524 156.67188 120.15165Q156.23438 120.58915 156.23438 121.323524Q156.23438 122.042274 156.67188 122.46415Q157.10938 122.8704 157.875 122.8704Q158.625 122.8704 159.0625 122.448524Q159.5 122.02665 159.5 121.3079ZM157.875 115.8704Q157.23438 115.8704 156.82812 116.27665Q156.4375 116.667274 156.4375 117.354774Q156.4375 117.9954 156.82812 118.40165Q157.21875 118.8079 157.85938 118.8079Q158.51562 118.8079 158.90625 118.40165Q159.29688 117.9954 159.29688 117.354774Q159.29688 116.698524 158.89062 116.292274Q158.48438 115.8704 157.875 115.8704ZM163.78125 118.83915L164.59375 118.83915Q165.375 118.823524 165.8125 118.4329Q166.25 118.042274 166.25 117.3704Q166.25 115.8704 164.75 115.8704Q164.04688 115.8704 163.625 116.27665Q163.21875 116.6829 163.21875 117.33915L162.125 117.33915Q162.125 116.323524 162.85938 115.65165Q163.60938 114.979774 164.75 114.979774Q165.95312 114.979774 166.64062 115.6204Q167.32812 116.261024 167.32812 117.40165Q167.32812 117.96415 166.96875 118.479774Q166.60938 118.9954 165.98438 119.261024Q166.6875 119.479774 167.0625 119.9954Q167.45312 120.511024 167.45312 121.261024Q167.45312 122.40165 166.70312 123.08915Q165.95312 123.761024 164.75 123.761024Q163.5625 123.761024 162.79688 123.104774Q162.04688 122.448524 162.04688 121.386024L163.14062 121.386024Q163.14062 122.0579 163.57812 122.46415Q164.01562 122.8704 164.76562 122.8704Q165.54688 122.8704 165.95312 122.46415Q166.375 122.042274 166.375 121.27665Q166.375 120.542274 165.92188 120.15165Q165.46875 119.7454 164.59375 119.729774L163.78125 119.729774L163.78125 118.83915ZM169.28125 125.33915L168.67188 124.917274Q169.21875 124.15165 169.25 123.323524L169.25 122.354774L170.3125 122.354774L170.3125 123.198524Q170.3125 123.792274 170.01562 124.386024Q169.71875 124.979774 169.28125 125.33915ZM172.78125 118.83915L173.59375 118.83915Q174.375 118.823524 174.8125 118.4329Q175.25 118.042274 175.25 117.3704Q175.25 115.8704 173.75 115.8704Q173.04688 115.8704 172.625 116.27665Q172.21875 116.6829 172.21875 117.33915L171.125 117.33915Q171.125 116.323524 171.85938 115.65165Q172.60938 114.979774 173.75 114.979774Q174.95312 114.979774 175.64062 115.6204Q176.32812 116.261024 176.32812 117.40165Q176.32812 117.96415 175.96875 118.479774Q175.60938 118.9954 174.98438 119.261024Q175.6875 119.479774 176.0625 119.9954Q176.45312 120.511024 176.45312 121.261024Q176.45312 122.40165 175.70312 123.08915Q174.95312 123.761024 173.75 123.761024Q172.5625 123.761024 171.79688 123.104774Q171.04688 122.448524 171.04688 121.386024L172.14062 121.386024Q172.14062 122.0579 172.57812 122.46415Q173.01562 122.8704 173.76562 122.8704Q174.54688 122.8704 174.95312 122.46415Q175.375 122.042274 175.375 121.27665Q175.375 120.542274 174.92188 120.15165Q174.46875 119.7454 173.59375 119.729774L172.78125 119.729774L172.78125 118.83915ZM182.35938 119.886024Q182.03125 120.292274 181.54688 120.542274Q181.07812 120.77665 180.51562 120.77665Q179.78125 120.77665 179.23438 120.417274Q178.6875 120.0579 178.39062 119.40165Q178.09375 118.729774 178.09375 117.9329Q178.09375 117.08915 178.40625 116.40165Q178.73438 115.71415 179.32812 115.354774Q179.9375 114.979774 180.73438 114.979774Q182.0 114.979774 182.71875 115.9329Q183.45312 116.886024 183.45312 118.511024L183.45312 118.823524Q183.45312 121.323524 182.46875 122.46415Q181.48438 123.604774 179.5 123.636024L179.28125 123.636024L179.28125 122.729774L179.51562 122.729774Q180.85938 122.698524 181.57812 122.02665Q182.29688 121.354774 182.35938 119.886024ZM180.6875 119.886024Q181.23438 119.886024 181.6875 119.5579Q182.15625 119.21415 182.375 118.729774L182.375 118.292274Q182.375 117.229774 181.90625 116.5579Q181.4375 115.886024 180.73438 115.886024Q180.01562 115.886024 179.57812 116.4329Q179.15625 116.979774 179.15625 117.886024Q179.15625 118.761024 179.5625 119.323524Q179.98438 119.886024 180.6875 119.886024ZM189.46875 115.104774L189.46875 116.011024L189.26562 116.011024Q188.0 116.042274 187.25 116.77665Q186.5 117.4954 186.375 118.8079Q187.0625 118.042274 188.21875 118.042274Q189.32812 118.042274 190.0 118.823524Q190.67188 119.604774 190.67188 120.854774Q190.67188 122.167274 189.95312 122.96415Q189.23438 123.761024 188.01562 123.761024Q186.79688 123.761024 186.03125 122.823524Q185.28125 121.8704 185.28125 120.386024L185.28125 119.979774Q185.28125 117.6204 186.28125 116.3704Q187.28125 115.1204 189.26562 115.104774L189.46875 115.104774ZM188.04688 118.948524Q187.48438 118.948524 187.01562 119.27665Q186.54688 119.604774 186.35938 120.1204L186.35938 120.511024Q186.35938 121.573524 186.82812 122.21415Q187.3125 122.854774 188.01562 122.854774Q188.75 122.854774 189.17188 122.323524Q189.59375 121.77665 189.59375 120.90165Q189.59375 120.02665 189.17188 119.4954Q188.75 118.948524 188.04688 118.948524Z" fill-rule="nonzero"/><path fill="#ffffff" d="M160.39062 117.323524Q160.39062 117.96415 160.04688 118.46415Q159.70312 118.96415 159.14062 119.2454Q159.79688 119.52665 160.1875 120.08915Q160.57812 120.636024 160.57812 121.33915Q160.57812 122.4329 159.82812 123.104774Q159.09375 123.761024 157.875 123.761024Q156.64062 123.761024 155.89062 123.104774Q155.15625 122.4329 155.15625 121.33915Q155.15625 120.636024 155.53125 120.08915Q155.90625 119.52665 156.57812 119.2454Q156.01562 118.96415 155.6875 118.46415Q155.35938 117.96415 155.35938 117.323524Q155.35938 116.2454 156.04688 115.6204Q156.73438 114.979774 157.875 114.979774Q159.0 114.979774 159.6875 115.6204Q160.39062 116.2454 160.39062 117.323524ZM159.5 121.3079Q159.5 120.58915 159.04688 120.15165Q158.59375 119.698524 157.85938 119.698524Q157.125 119.698524 156.67188 120.15165Q156.23438 120.58915 156.23438 121.323524Q156.23438 122.042274 156.67188 122.46415Q157.10938 122.8704 157.875 122.8704Q158.625 122.8704 159.0625 122.448524Q159.5 122.02665 159.5 121.3079ZM157.875 115.8704Q157.23438 115.8704 156.82812 116.27665Q156.4375 116.667274 156.4375 117.354774Q156.4375 117.9954 156.82812 118.40165Q157.21875 118.8079 157.85938 118.8079Q158.51562 118.8079 158.90625 118.40165Q159.29688 117.9954 159.29688 117.354774Q159.29688 116.698524 158.89062 116.292274Q158.48438 115.8704 157.875 115.8704ZM163.78125 118.83915L164.59375 118.83915Q165.375 118.823524 165.8125 118.4329Q166.25 118.042274 166.25 117.3704Q166.25 115.8704 164.75 115.8704Q164.04688 115.8704 163.625 116.27665Q163.21875 116.6829 163.21875 117.33915L162.125 117.33915Q162.125 116.323524 162.85938 115.65165Q163.60938 114.979774 164.75 114.979774Q165.95312 114.979774 166.64062 115.6204Q167.32812 116.261024 167.32812 117.40165Q167.32812 117.96415 166.96875 118.479774Q166.60938 118.9954 165.98438 119.261024Q166.6875 119.479774 167.0625 119.9954Q167.45312 120.511024 167.45312 121.261024Q167.45312 122.40165 166.70312 123.08915Q165.95312 123.761024 164.75 123.761024Q163.5625 123.761024 162.79688 123.104774Q162.04688 122.448524 162.04688 121.386024L163.14062 121.386024Q163.14062 122.0579 163.57812 122.46415Q164.01562 122.8704 164.76562 122.8704Q165.54688 122.8704 165.95312 122.46415Q166.375 122.042274 166.375 121.27665Q166.375 120.542274 165.92188 120.15165Q165.46875 119.7454 164.59375 119.729774L163.78125 119.729774L163.78125 118.83915ZM169.28125 125.33915L168.67188 124.917274Q169.21875 124.15165 169.25 123.323524L169.25 122.354774L170.3125 122.354774L170.3125 123.198524Q170.3125 123.792274 170.01562 124.386024Q169.71875 124.979774 169.28125 125.33915ZM172.78125 118.83915L173.59375 118.83915Q174.375 118.823524 174.8125 118.4329Q175.25 118.042274 175.25 117.3704Q175.25 115.8704 173.75 115.8704Q173.04688 115.8704 172.625 116.27665Q172.21875 116.6829 172.21875 117.33915L171.125 117.33915Q171.125 116.323524 171.85938 115.65165Q172.60938 114.979774 173.75 114.979774Q174.95312 114.979774 175.64062 115.6204Q176.32812 116.261024 176.32812 117.40165Q176.32812 117.96415 175.96875 118.479774Q175.60938 118.9954 174.98438 119.261024Q175.6875 119.479774 176.0625 119.9954Q176.45312 120.511024 176.45312 121.261024Q176.45312 122.40165 175.70312 123.08915Q174.95312 123.761024 173.75 123.761024Q172.5625 123.761024 171.79688 123.104774Q171.04688 122.448524 171.04688 121.386024L172.14062 121.386024Q172.14062 122.0579 172.57812 122.46415Q173.01562 122.8704 173.76562 122.8704Q174.54688 122.8704 174.95312 122.46415Q175.375 122.042274 175.375 121.27665Q175.375 120.542274 174.92188 120.15165Q174.46875 119.7454 173.59375 119.729774L172.78125 119.729774L172.78125 118.83915ZM182.35938 119.886024Q182.03125 120.292274 181.54688 120.542274Q181.07812 120.77665 180.51562 120.77665Q179.78125 120.77665 179.23438 120.417274Q178.6875 120.0579 178.39062 119.40165Q178.09375 118.729774 178.09375 117.9329Q178.09375 117.08915 178.40625 116.40165Q178.73438 115.71415 179.32812 115.354774Q179.9375 114.979774 180.73438 114.979774Q182.0 114.979774 182.71875 115.9329Q183.45312 116.886024 183.45312 118.511024L183.45312 118.823524Q183.45312 121.323524 182.46875 122.46415Q181.48438 123.604774 179.5 123.636024L179.28125 123.636024L179.28125 122.729774L179.51562 122.729774Q180.85938 122.698524 181.57812 122.02665Q182.29688 121.354774 182.35938 119.886024ZM180.6875 119.886024Q181.23438 119.886024 181.6875 119.5579Q182.15625 119.21415 182.375 118.729774L182.375 118.292274Q182.375 117.229774 181.90625 116.5579Q181.4375 115.886024 180.73438 115.886024Q180.01562 115.886024 179.57812 116.4329Q179.15625 116.979774 179.15625 117.886024Q179.15625 118.761024 179.5625 119.323524Q179.98438 119.886024 180.6875 119.886024ZM189.46875 115.104774L189.46875 116.011024L189.26562 116.011024Q188.0 116.042274 187.25 116.77665Q186.5 117.4954 186.375 118.8079Q187.0625 118.042274 188.21875 118.042274Q189.32812 118.042274 190.0 118.823524Q190.67188 119.604774 190.67188 120.854774Q190.67188 122.167274 189.95312 122.96415Q189.23438 123.761024 188.01562 123.761024Q186.79688 123.761024 186.03125 122.823524Q185.28125 121.8704 185.28125 120.386024L185.28125 119.979774Q185.28125 117.6204 186.28125 116.3704Q187.28125 115.1204 189.26562 115.104774L189.46875 115.104774ZM188.04688 118.948524Q187.48438 118.948524 187.01562 119.27665Q186.54688 119.604774 186.35938 120.1204L186.35938 120.511024Q186.35938 121.573524 186.82812 122.21415Q187.3125 122.854774 188.01562 122.854774Q188.75 122.854774 189.17188 122.323524Q189.59375 121.77665 189.59375 120.90165Q189.59375 120.02665 189.17188 119.4954Q188.75 118.948524 188.04688 118.948524Z" fill-rule="nonzero"/><path stroke="#ffffff" stroke-width="3.0" stroke-linejoin="round" stroke-linecap="round" d="M328.5625 313.8094Q328.5625 315.71564 327.90625 316.65314Q327.26562 317.575 325.875 317.575Q324.51562 317.575 323.85938 316.66876Q323.20312 315.7625 323.17188 313.95L323.17188 312.5125Q323.17188 310.6219 323.8125 309.71564Q324.46875 308.79376 325.85938 308.79376Q327.23438 308.79376 327.89062 309.6844Q328.54688 310.5594 328.5625 312.40314L328.5625 313.8094ZM327.46875 312.325Q327.46875 310.95 327.07812 310.325Q326.70312 309.6844 325.85938 309.6844Q325.03125 309.6844 324.64062 310.325Q324.26562 310.95 324.26562 312.2469L324.26562 313.98126Q324.26562 315.35626 324.65625 316.02814Q325.0625 316.6844 325.875 316.6844Q326.67188 316.6844 327.0625 316.0594Q327.45312 315.4344 327.46875 314.10626L327.46875 312.325Z" fill-rule="nonzero"/><path fill="#4285f4" d="M328.5625 313.8094Q328.5625 315.71564 327.90625 316.65314Q327.26562 317.575 325.875 317.575Q324.51562 317.575 323.85938 316.66876Q323.20312 315.7625 323.17188 313.95L323.17188 312.5125Q323.17188 310.6219 323.8125 309.71564Q324.46875 308.79376 325.85938 308.79376Q327.23438 308.79376 327.89062 309.6844Q328.54688 310.5594 328.5625 312.40314L328.5625 313.8094ZM327.46875 312.325Q327.46875 310.95 327.07812 310.325Q326.70312 309.6844 325.85938 309.6844Q325.03125 309.6844 324.64062 310.325Q324.26562 310.95 324.26562 312.2469L324.26562 313.98126Q324.26562 315.35626 324.65625 316.02814Q325.0625 316.6844 325.875 316.6844Q326.67188 316.6844 327.0625 316.0594Q327.45312 315.4344 327.46875 314.10626L327.46875 312.325Z" fill-rule="nonzero"/><path stroke="#4285f4" stroke-width="3.0" stroke-linejoin="round" stroke-linecap="round" d="M465.71875 151.77353L462.1875 159.6954L461.04688 159.6954L464.5625 152.05478L459.95312 152.05478L459.95312 151.16415L465.71875 151.16415L465.71875 151.77353ZM472.5625 156.05478Q472.5625 157.96103 471.90625 158.89853Q471.26562 159.8204 469.875 159.8204Q468.51562 159.8204 467.85938 158.91415Q467.20312 158.0079 467.17188 156.1954L467.17188 154.7579Q467.17188 152.86728 467.8125 151.96103Q468.46875 151.03915 469.85938 151.03915Q471.23438 151.03915 471.89062 151.92978Q472.54688 152.80478 472.5625 154.64853L472.5625 156.05478ZM471.46875 154.5704Q471.46875 153.1954 471.07812 152.5704Q470.70312 151.92978 469.85938 151.92978Q469.03125 151.92978 468.64062 152.5704Q468.26562 153.1954 468.26562 154.49228L468.26562 156.22665Q468.26562 157.60165 468.65625 158.27353Q469.0625 158.92978 469.875 158.92978Q470.67188 158.92978 471.0625 158.30478Q471.45312 157.67978 471.46875 156.35165L471.46875 154.5704ZM474.28125 161.39853L473.67188 160.97665Q474.21875 160.21103 474.25 159.3829L474.25 158.41415L475.3125 158.41415L475.3125 159.2579Q475.3125 159.85165 475.01562 160.4454Q474.71875 161.03915 474.28125 161.39853ZM481.5625 156.05478Q481.5625 157.96103 480.90625 158.89853Q480.26562 159.8204 478.875 159.8204Q477.51562 159.8204 476.85938 158.91415Q476.20312 158.0079 476.17188 156.1954L476.17188 154.7579Q476.17188 152.86728 476.8125 151.96103Q477.46875 151.03915 478.85938 151.03915Q480.23438 151.03915 480.89062 151.92978Q481.54688 152.80478 481.5625 154.64853L481.5625 156.05478ZM480.46875 154.5704Q480.46875 153.1954 480.07812 152.5704Q479.70312 151.92978 478.85938 151.92978Q478.03125 151.92978 477.64062 152.5704Q477.26562 153.1954 477.26562 154.49228L477.26562 156.22665Q477.26562 157.60165 477.65625 158.27353Q478.0625 158.92978 478.875 158.92978Q479.67188 158.92978 480.0625 158.30478Q480.45312 157.67978 480.46875 156.35165L480.46875 154.5704ZM487.46875 151.16415L487.46875 152.0704L487.26562 152.0704Q486.0 152.10165 485.25 152.83603Q484.5 153.55478 484.375 154.86728Q485.0625 154.10165 486.21875 154.10165Q487.32812 154.10165 488.0 154.8829Q488.67188 155.66415 488.67188 156.91415Q488.67188 158.22665 487.95312 159.02353Q487.23438 159.8204 486.01562 159.8204Q484.79688 159.8204 484.03125 158.8829Q483.28125 157.92978 483.28125 156.4454L483.28125 156.03915Q483.28125 153.67978 484.28125 152.42978Q485.28125 151.17978 487.26562 151.16415L487.46875 151.16415ZM486.04688 155.0079Q485.48438 155.0079 485.01562 155.33603Q484.54688 155.66415 484.35938 156.17978L484.35938 156.5704Q484.35938 157.6329 484.82812 158.27353Q485.3125 158.91415 486.01562 158.91415Q486.75 158.91415 487.17188 158.3829Q487.59375 157.83603 487.59375 156.96103Q487.59375 156.08603 487.17188 155.55478Q486.75 155.0079 486.04688 155.0079ZM495.71875 151.77353L492.1875 159.6954L491.04688 159.6954L494.5625 152.05478L489.95312 152.05478L489.95312 151.16415L495.71875 151.16415L495.71875 151.77353Z" fill-rule="nonzero"/><path fill="#ffffff" d="M465.71875 151.77353L462.1875 159.6954L461.04688 159.6954L464.5625 152.05478L459.95312 152.05478L459.95312 151.16415L465.71875 151.16415L465.71875 151.77353ZM472.5625 156.05478Q472.5625 157.96103 471.90625 158.89853Q471.26562 159.8204 469.875 159.8204Q468.51562 159.8204 467.85938 158.91415Q467.20312 158.0079 467.17188 156.1954L467.17188 154.7579Q467.17188 152.86728 467.8125 151.96103Q468.46875 151.03915 469.85938 151.03915Q471.23438 151.03915 471.89062 151.92978Q472.54688 152.80478 472.5625 154.64853L472.5625 156.05478ZM471.46875 154.5704Q471.46875 153.1954 471.07812 152.5704Q470.70312 151.92978 469.85938 151.92978Q469.03125 151.92978 468.64062 152.5704Q468.26562 153.1954 468.26562 154.49228L468.26562 156.22665Q468.26562 157.60165 468.65625 158.27353Q469.0625 158.92978 469.875 158.92978Q470.67188 158.92978 471.0625 158.30478Q471.45312 157.67978 471.46875 156.35165L471.46875 154.5704ZM474.28125 161.39853L473.67188 160.97665Q474.21875 160.21103 474.25 159.3829L474.25 158.41415L475.3125 158.41415L475.3125 159.2579Q475.3125 159.85165 475.01562 160.4454Q474.71875 161.03915 474.28125 161.39853ZM481.5625 156.05478Q481.5625 157.96103 480.90625 158.89853Q480.26562 159.8204 478.875 159.8204Q477.51562 159.8204 476.85938 158.91415Q476.20312 158.0079 476.17188 156.1954L476.17188 154.7579Q476.17188 152.86728 476.8125 151.96103Q477.46875 151.03915 478.85938 151.03915Q480.23438 151.03915 480.89062 151.92978Q481.54688 152.80478 481.5625 154.64853L481.5625 156.05478ZM480.46875 154.5704Q480.46875 153.1954 480.07812 152.5704Q479.70312 151.92978 478.85938 151.92978Q478.03125 151.92978 477.64062 152.5704Q477.26562 153.1954 477.26562 154.49228L477.26562 156.22665Q477.26562 157.60165 477.65625 158.27353Q478.0625 158.92978 478.875 158.92978Q479.67188 158.92978 480.0625 158.30478Q480.45312 157.67978 480.46875 156.35165L480.46875 154.5704ZM487.46875 151.16415L487.46875 152.0704L487.26562 152.0704Q486.0 152.10165 485.25 152.83603Q484.5 153.55478 484.375 154.86728Q485.0625 154.10165 486.21875 154.10165Q487.32812 154.10165 488.0 154.8829Q488.67188 155.66415 488.67188 156.91415Q488.67188 158.22665 487.95312 159.02353Q487.23438 159.8204 486.01562 159.8204Q484.79688 159.8204 484.03125 158.8829Q483.28125 157.92978 483.28125 156.4454L483.28125 156.03915Q483.28125 153.67978 484.28125 152.42978Q485.28125 151.17978 487.26562 151.16415L487.46875 151.16415ZM486.04688 155.0079Q485.48438 155.0079 485.01562 155.33603Q484.54688 155.66415 484.35938 156.17978L484.35938 156.5704Q484.35938 157.6329 484.82812 158.27353Q485.3125 158.91415 486.01562 158.91415Q486.75 158.91415 487.17188 158.3829Q487.59375 157.83603 487.59375 156.96103Q487.59375 156.08603 487.17188 155.55478Q486.75 155.0079 486.04688 155.0079ZM495.71875 151.77353L492.1875 159.6954L491.04688 159.6954L494.5625 152.05478L489.95312 152.05478L489.95312 151.16415L495.71875 151.16415L495.71875 151.77353Z" fill-rule="nonzero"/><path fill="#000000" d="M57.05 332.21564Q57.05 330.6844 57.3625 329.7625Q57.675 328.825 58.284374 328.325Q58.909374 327.825 59.846874 327.825Q60.534374 327.825 61.05 328.10626Q61.58125 328.3875 61.925 328.91876Q62.26875 329.4344 62.45625 330.1844Q62.64375 330.9344 62.64375 332.21564Q62.64375 333.73126 62.33125 334.65314Q62.034374 335.575 61.409374 336.09064Q60.8 336.59064 59.846874 336.59064Q58.6125 336.59064 57.89375 335.7Q57.05 334.6375 57.05 332.21564ZM58.128124 332.21564Q58.128124 334.325 58.628124 335.02814Q59.128124 335.73126 59.846874 335.73126Q60.58125 335.73126 61.065624 335.02814Q61.565624 334.325 61.565624 332.21564Q61.565624 330.09064 61.065624 329.40314Q60.58125 328.7 59.83125 328.7Q59.1125 328.7 58.675 329.3094Q58.128124 330.09064 58.128124 332.21564Z" fill-rule="nonzero"/><path fill="#000000" d="M31.596874 267.80106L31.596874 268.81668L25.909374 268.81668Q25.909374 268.44168 26.034374 268.0823Q26.253124 267.50418 26.721874 266.94168Q27.20625 266.37918 28.1125 265.6448Q29.51875 264.48856 30.003124 263.81668Q30.503124 263.1448 30.503124 262.55106Q30.503124 261.92606 30.05 261.50418Q29.596874 261.06668 28.878124 261.06668Q28.1125 261.06668 27.659374 261.5198Q27.20625 261.97293 27.190624 262.78543L26.1125 262.67606Q26.221874 261.4573 26.940624 260.8323Q27.675 260.19168 28.909374 260.19168Q30.14375 260.19168 30.8625 260.87918Q31.58125 261.56668 31.58125 262.5823Q31.58125 263.09793 31.3625 263.59793Q31.159374 264.0823 30.659374 264.6448Q30.175 265.19168 29.05 266.1448Q28.096874 266.94168 27.815624 267.23856Q27.55 267.5198 27.378124 267.80106L31.596874 267.80106ZM33.05 266.56668L34.159374 266.47293Q34.284374 267.28543 34.721874 267.69168Q35.175 268.09793 35.815624 268.09793Q36.565624 268.09793 37.096874 267.5198Q37.628124 266.94168 37.628124 266.00418Q37.628124 265.09793 37.1125 264.5823Q36.6125 264.05106 35.784374 264.05106Q35.284374 264.05106 34.8625 264.28543Q34.45625 264.5198 34.221874 264.87918L33.2375 264.75418L34.065624 260.34793L38.346874 260.34793L38.346874 261.34793L34.909374 261.34793L34.45625 263.66043Q35.221874 263.11356 36.065624 263.11356Q37.190624 263.11356 37.95625 263.8948Q38.7375 264.67606 38.7375 265.91043Q38.7375 267.06668 38.065624 267.92606Q37.2375 268.9573 35.815624 268.9573Q34.64375 268.9573 33.89375 268.30106Q33.159374 267.6448 33.05 266.56668ZM40.6125 268.81668L40.6125 267.61356L41.815624 267.61356L41.815624 268.81668Q41.815624 269.47293 41.58125 269.87918Q41.346874 270.30106 40.846874 270.5198L40.55 270.06668Q40.878124 269.92606 41.034374 269.62918Q41.190624 269.34793 41.221874 268.81668L40.6125 268.81668ZM43.05 264.5823Q43.05 263.05106 43.3625 262.12918Q43.675 261.19168 44.284374 260.69168Q44.909374 260.19168 45.846874 260.19168Q46.534374 260.19168 47.05 260.47293Q47.58125 260.75418 47.925 261.28543Q48.26875 261.80106 48.45625 262.55106Q48.64375 263.30106 48.64375 264.5823Q48.64375 266.09793 48.33125 267.0198Q48.034374 267.94168 47.409374 268.4573Q46.8 268.9573 45.846874 268.9573Q44.6125 268.9573 43.89375 268.06668Q43.05 267.00418 43.05 264.5823ZM44.128124 264.5823Q44.128124 266.69168 44.628124 267.3948Q45.128124 268.09793 45.846874 268.09793Q46.58125 268.09793 47.065624 267.3948Q47.565624 266.69168 47.565624 264.5823Q47.565624 262.4573 47.065624 261.7698Q46.58125 261.06668 45.83125 261.06668Q45.1125 261.06668 44.675 261.67606Q44.128124 262.4573 44.128124 264.5823ZM50.05 264.5823Q50.05 263.05106 50.3625 262.12918Q50.675 261.19168 51.284374 260.69168Q51.909374 260.19168 52.846874 260.19168Q53.534374 260.19168 54.05 260.47293Q54.58125 260.75418 54.925 261.28543Q55.26875 261.80106 55.45625 262.55106Q55.64375 263.30106 55.64375 264.5823Q55.64375 266.09793 55.33125 267.0198Q55.034374 267.94168 54.409374 268.4573Q53.8 268.9573 52.846874 268.9573Q51.6125 268.9573 50.89375 268.06668Q50.05 267.00418 50.05 264.5823ZM51.128124 264.5823Q51.128124 266.69168 51.628124 267.3948Q52.128124 268.09793 52.846874 268.09793Q53.58125 268.09793 54.065624 267.3948Q54.565624 266.69168 54.565624 264.5823Q54.565624 262.4573 54.065624 261.7698Q53.58125 261.06668 52.83125 261.06668Q52.1125 261.06668 51.675 261.67606Q51.128124 262.4573 51.128124 264.5823ZM57.05 264.5823Q57.05 263.05106 57.3625 262.12918Q57.675 261.19168 58.284374 260.69168Q58.909374 260.19168 59.846874 260.19168Q60.534374 260.19168 61.05 260.47293Q61.58125 260.75418 61.925 261.28543Q62.26875 261.80106 62.45625 262.55106Q62.64375 263.30106 62.64375 264.5823Q62.64375 266.09793 62.33125 267.0198Q62.034374 267.94168 61.409374 268.4573Q60.8 268.9573 59.846874 268.9573Q58.6125 268.9573 57.89375 268.06668Q57.05 267.00418 57.05 264.5823ZM58.128124 264.5823Q58.128124 266.69168 58.628124 267.3948Q59.128124 268.09793 59.846874 268.09793Q60.58125 268.09793 61.065624 267.3948Q61.565624 266.69168 61.565624 264.5823Q61.565624 262.4573 61.065624 261.7698Q60.58125 261.06668 59.83125 261.06668Q59.1125 261.06668 58.675 261.67606Q58.128124 262.4573 58.128124 264.5823Z" fill-rule="nonzero"/><path fill="#000000" d="M26.05 198.93333L27.159374 198.83958Q27.284374 199.65208 27.721874 200.05833Q28.175 200.46458 28.815624 200.46458Q29.565624 200.46458 30.096874 199.88646Q30.628124 199.30833 30.628124 198.37083Q30.628124 197.46458 30.1125 196.94896Q29.6125 196.41771 28.784374 196.41771Q28.284374 196.41771 27.8625 196.65208Q27.45625 196.88646 27.221874 197.24583L26.2375 197.12083L27.065624 192.71458L31.346874 192.71458L31.346874 193.71458L27.909374 193.71458L27.45625 196.02708Q28.221874 195.48021 29.065624 195.48021Q30.190624 195.48021 30.95625 196.26146Q31.7375 197.04271 31.7375 198.27708Q31.7375 199.43333 31.065624 200.29271Q30.2375 201.32396 28.815624 201.32396Q27.64375 201.32396 26.89375 200.66771Q26.159374 200.01146 26.05 198.93333ZM33.05 196.94896Q33.05 195.41771 33.3625 194.49583Q33.675 193.55833 34.284374 193.05833Q34.909374 192.55833 35.846874 192.55833Q36.534374 192.55833 37.05 192.83958Q37.58125 193.12083 37.925 193.65208Q38.26875 194.16771 38.45625 194.91771Q38.64375 195.66771 38.64375 196.94896Q38.64375 198.46458 38.33125 199.38646Q38.034374 200.30833 37.409374 200.82396Q36.8 201.32396 35.846874 201.32396Q34.6125 201.32396 33.89375 200.43333Q33.05 199.37083 33.05 196.94896ZM34.128124 196.94896Q34.128124 199.05833 34.628124 199.76146Q35.128124 200.46458 35.846874 200.46458Q36.58125 200.46458 37.065624 199.76146Q37.565624 199.05833 37.565624 196.94896Q37.565624 194.82396 37.065624 194.13646Q36.58125 193.43333 35.83125 193.43333Q35.1125 193.43333 34.675 194.04271Q34.128124 194.82396 34.128124 196.94896ZM40.6125 201.18333L40.6125 199.98021L41.815624 199.98021L41.815624 201.18333Q41.815624 201.83958 41.58125 202.24583Q41.346874 202.66771 40.846874 202.88646L40.55 202.43333Q40.878124 202.29271 41.034374 201.99583Q41.190624 201.71458 41.221874 201.18333L40.6125 201.18333ZM43.05 196.94896Q43.05 195.41771 43.3625 194.49583Q43.675 193.55833 44.284374 193.05833Q44.909374 192.55833 45.846874 192.55833Q46.534374 192.55833 47.05 192.83958Q47.58125 193.12083 47.925 193.65208Q48.26875 194.16771 48.45625 194.91771Q48.64375 195.66771 48.64375 196.94896Q48.64375 198.46458 48.33125 199.38646Q48.034374 200.30833 47.409374 200.82396Q46.8 201.32396 45.846874 201.32396Q44.6125 201.32396 43.89375 200.43333Q43.05 199.37083 43.05 196.94896ZM44.128124 196.94896Q44.128124 199.05833 44.628124 199.76146Q45.128124 200.46458 45.846874 200.46458Q46.58125 200.46458 47.065624 199.76146Q47.565624 199.05833 47.565624 196.94896Q47.565624 194.82396 47.065624 194.13646Q46.58125 193.43333 45.83125 193.43333Q45.1125 193.43333 44.675 194.04271Q44.128124 194.82396 44.128124 196.94896ZM50.05 196.94896Q50.05 195.41771 50.3625 194.49583Q50.675 193.55833 51.284374 193.05833Q51.909374 192.55833 52.846874 192.55833Q53.534374 192.55833 54.05 192.83958Q54.58125 193.12083 54.925 193.65208Q55.26875 194.16771 55.45625 194.91771Q55.64375 195.66771 55.64375 196.94896Q55.64375 198.46458 55.33125 199.38646Q55.034374 200.30833 54.409374 200.82396Q53.8 201.32396 52.846874 201.32396Q51.6125 201.32396 50.89375 200.43333Q50.05 199.37083 50.05 196.94896ZM51.128124 196.94896Q51.128124 199.05833 51.628124 199.76146Q52.128124 200.46458 52.846874 200.46458Q53.58125 200.46458 54.065624 199.76146Q54.565624 199.05833 54.565624 196.94896Q54.565624 194.82396 54.065624 194.13646Q53.58125 193.43333 52.83125 193.43333Q52.1125 193.43333 51.675 194.04271Q51.128124 194.82396 51.128124 196.94896ZM57.05 196.94896Q57.05 195.41771 57.3625 194.49583Q57.675 193.55833 58.284374 193.05833Q58.909374 192.55833 59.846874 192.55833Q60.534374 192.55833 61.05 192.83958Q61.58125 193.12083 61.925 193.65208Q62.26875 194.16771 62.45625 194.91771Q62.64375 195.66771 62.64375 196.94896Q62.64375 198.46458 62.33125 199.38646Q62.034374 200.30833 61.409374 200.82396Q60.8 201.32396 59.846874 201.32396Q58.6125 201.32396 57.89375 200.43333Q57.05 199.37083 57.05 196.94896ZM58.128124 196.94896Q58.128124 199.05833 58.628124 199.76146Q59.128124 200.46458 59.846874 200.46458Q60.58125 200.46458 61.065624 199.76146Q61.565624 199.05833 61.565624 196.94896Q61.565624 194.82396 61.065624 194.13646Q60.58125 193.43333 59.83125 193.43333Q59.1125 193.43333 58.675 194.04271Q58.128124 194.82396 58.128124 196.94896Z" fill-rule="nonzero"/><path fill="#000000" d="M26.1125 126.08125L26.1125 125.06563L31.675 125.06563L31.675 125.89375Q30.8625 126.76875 30.05 128.22188Q29.253124 129.65938 28.815624 131.19063Q28.4875 132.26875 28.409374 133.55L27.315624 133.55Q27.33125 132.53438 27.70625 131.09688Q28.096874 129.65938 28.8 128.33125Q29.51875 127.00313 30.33125 126.08125L26.1125 126.08125ZM33.05 131.3L34.159374 131.20625Q34.284374 132.01875 34.721874 132.425Q35.175 132.83125 35.815624 132.83125Q36.565624 132.83125 37.096874 132.25313Q37.628124 131.675 37.628124 130.7375Q37.628124 129.83125 37.1125 129.31563Q36.6125 128.78438 35.784374 128.78438Q35.284374 128.78438 34.8625 129.01875Q34.45625 129.25313 34.221874 129.6125L33.2375 129.4875L34.065624 125.08125L38.346874 125.08125L38.346874 126.08125L34.909374 126.08125L34.45625 128.39375Q35.221874 127.84688 36.065624 127.84688Q37.190624 127.84688 37.95625 128.62813Q38.7375 129.40938 38.7375 130.64375Q38.7375 131.8 38.065624 132.65938Q37.2375 133.69063 35.815624 133.69063Q34.64375 133.69063 33.89375 133.03438Q33.159374 132.37813 33.05 131.3ZM40.6125 133.55L40.6125 132.34688L41.815624 132.34688L41.815624 133.55Q41.815624 134.20625 41.58125 134.6125Q41.346874 135.03438 40.846874 135.25313L40.55 134.8Q40.878124 134.65938 41.034374 134.3625Q41.190624 134.08125 41.221874 133.55L40.6125 133.55ZM43.05 129.31563Q43.05 127.78438 43.3625 126.8625Q43.675 125.925 44.284374 125.425Q44.909374 124.925 45.846874 124.925Q46.534374 124.925 47.05 125.20625Q47.58125 125.4875 47.925 126.01875Q48.26875 126.53438 48.45625 127.28438Q48.64375 128.03438 48.64375 129.31563Q48.64375 130.83125 48.33125 131.75313Q48.034374 132.675 47.409374 133.19063Q46.8 133.69063 45.846874 133.69063Q44.6125 133.69063 43.89375 132.8Q43.05 131.7375 43.05 129.31563ZM44.128124 129.31563Q44.128124 131.425 44.628124 132.12813Q45.128124 132.83125 45.846874 132.83125Q46.58125 132.83125 47.065624 132.12813Q47.565624 131.425 47.565624 129.31563Q47.565624 127.19063 47.065624 126.50313Q46.58125 125.8 45.83125 125.8Q45.1125 125.8 44.675 126.40938Q44.128124 127.19063 44.128124 129.31563ZM50.05 129.31563Q50.05 127.78438 50.3625 126.8625Q50.675 125.925 51.284374 125.425Q51.909374 124.925 52.846874 124.925Q53.534374 124.925 54.05 125.20625Q54.58125 125.4875 54.925 126.01875Q55.26875 126.53438 55.45625 127.28438Q55.64375 128.03438 55.64375 129.31563Q55.64375 130.83125 55.33125 131.75313Q55.034374 132.675 54.409374 133.19063Q53.8 133.69063 52.846874 133.69063Q51.6125 133.69063 50.89375 132.8Q50.05 131.7375 50.05 129.31563ZM51.128124 129.31563Q51.128124 131.425 51.628124 132.12813Q52.128124 132.83125 52.846874 132.83125Q53.58125 132.83125 54.065624 132.12813Q54.565624 131.425 54.565624 129.31563Q54.565624 127.19063 54.065624 126.50313Q53.58125 125.8 52.83125 125.8Q52.1125 125.8 51.675 126.40938Q51.128124 127.19063 51.128124 129.31563ZM57.05 129.31563Q57.05 127.78438 57.3625 126.8625Q57.675 125.925 58.284374 125.425Q58.909374 124.925 59.846874 124.925Q60.534374 124.925 61.05 125.20625Q61.58125 125.4875 61.925 126.01875Q62.26875 126.53438 62.45625 127.28438Q62.64375 128.03438 62.64375 129.31563Q62.64375 130.83125 62.33125 131.75313Q62.034374 132.675 61.409374 133.19063Q60.8 133.69063 59.846874 133.69063Q58.6125 133.69063 57.89375 132.8Q57.05 131.7375 57.05 129.31563ZM58.128124 129.31563Q58.128124 131.425 58.628124 132.12813Q59.128124 132.83125 59.846874 132.83125Q60.58125 132.83125 61.065624 132.12813Q61.565624 131.425 61.565624 129.31563Q61.565624 127.19063 61.065624 126.50313Q60.58125 125.8 59.83125 125.8Q59.1125 125.8 58.675 126.40938Q58.128124 127.19063 58.128124 129.31563Z" fill-rule="nonzero"/><path fill="#000000" d="M23.01875 65.916664L21.971874 65.916664L21.971874 59.197914Q21.58125 59.55729 20.95625 59.93229Q20.346874 60.291664 19.8625 60.46354L19.8625 59.447914Q20.7375 59.02604 21.39375 58.447914Q22.065624 57.854164 22.346874 57.291664L23.01875 57.291664L23.01875 65.916664ZM26.05 61.68229Q26.05 60.15104 26.3625 59.229164Q26.675 58.291664 27.284374 57.791664Q27.909374 57.291664 28.846874 57.291664Q29.534374 57.291664 30.05 57.572914Q30.58125 57.854164 30.925 58.385414Q31.26875 58.90104 31.45625 59.65104Q31.64375 60.40104 31.64375 61.68229Q31.64375 63.197914 31.33125 64.11979Q31.034374 65.041664 30.409374 65.55729Q29.8 66.05729 28.846874 66.05729Q27.6125 66.05729 26.89375 65.166664Q26.05 64.104164 26.05 61.68229ZM27.128124 61.68229Q27.128124 63.791664 27.628124 64.49479Q28.128124 65.197914 28.846874 65.197914Q29.58125 65.197914 30.065624 64.49479Q30.565624 63.791664 30.565624 61.68229Q30.565624 59.55729 30.065624 58.86979Q29.58125 58.166664 28.83125 58.166664Q28.1125 58.166664 27.675 58.77604Q27.128124 59.55729 27.128124 61.68229ZM33.05 61.68229Q33.05 60.15104 33.3625 59.229164Q33.675 58.291664 34.284374 57.791664Q34.909374 57.291664 35.846874 57.291664Q36.534374 57.291664 37.05 57.572914Q37.58125 57.854164 37.925 58.385414Q38.26875 58.90104 38.45625 59.65104Q38.64375 60.40104 38.64375 61.68229Q38.64375 63.197914 38.33125 64.11979Q38.034374 65.041664 37.409374 65.55729Q36.8 66.05729 35.846874 66.05729Q34.6125 66.05729 33.89375 65.166664Q33.05 64.104164 33.05 61.68229ZM34.128124 61.68229Q34.128124 63.791664 34.628124 64.49479Q35.128124 65.197914 35.846874 65.197914Q36.58125 65.197914 37.065624 64.49479Q37.565624 63.791664 37.565624 61.68229Q37.565624 59.55729 37.065624 58.86979Q36.58125 58.166664 35.83125 58.166664Q35.1125 58.166664 34.675 58.77604Q34.128124 59.55729 34.128124 61.68229ZM40.6125 65.916664L40.6125 64.71354L41.815624 64.71354L41.815624 65.916664Q41.815624 66.572914 41.58125 66.979164Q41.346874 67.40104 40.846874 67.61979L40.55 67.166664Q40.878124 67.02604 41.034374 66.729164Q41.190624 66.447914 41.221874 65.916664L40.6125 65.916664ZM43.05 61.68229Q43.05 60.15104 43.3625 59.229164Q43.675 58.291664 44.284374 57.791664Q44.909374 57.291664 45.846874 57.291664Q46.534374 57.291664 47.05 57.572914Q47.58125 57.854164 47.925 58.385414Q48.26875 58.90104 48.45625 59.65104Q48.64375 60.40104 48.64375 61.68229Q48.64375 63.197914 48.33125 64.11979Q48.034374 65.041664 47.409374 65.55729Q46.8 66.05729 45.846874 66.05729Q44.6125 66.05729 43.89375 65.166664Q43.05 64.104164 43.05 61.68229ZM44.128124 61.68229Q44.128124 63.791664 44.628124 64.49479Q45.128124 65.197914 45.846874 65.197914Q46.58125 65.197914 47.065624 64.49479Q47.565624 63.791664 47.565624 61.68229Q47.565624 59.55729 47.065624 58.86979Q46.58125 58.166664 45.83125 58.166664Q45.1125 58.166664 44.675 58.77604Q44.128124 59.55729 44.128124 61.68229ZM50.05 61.68229Q50.05 60.15104 50.3625 59.229164Q50.675 58.291664 51.284374 57.791664Q51.909374 57.291664 52.846874 57.291664Q53.534374 57.291664 54.05 57.572914Q54.58125 57.854164 54.925 58.385414Q55.26875 58.90104 55.45625 59.65104Q55.64375 60.40104 55.64375 61.68229Q55.64375 63.197914 55.33125 64.11979Q55.034374 65.041664 54.409374 65.55729Q53.8 66.05729 52.846874 66.05729Q51.6125 66.05729 50.89375 65.166664Q50.05 64.104164 50.05 61.68229ZM51.128124 61.68229Q51.128124 63.791664 51.628124 64.49479Q52.128124 65.197914 52.846874 65.197914Q53.58125 65.197914 54.065624 64.49479Q54.565624 63.791664 54.565624 61.68229Q54.565624 59.55729 54.065624 58.86979Q53.58125 58.166664 52.83125 58.166664Q52.1125 58.166664 51.675 58.77604Q51.128124 59.55729 51.128124 61.68229ZM57.05 61.68229Q57.05 60.15104 57.3625 59.229164Q57.675 58.291664 58.284374 57.791664Q58.909374 57.291664 59.846874 57.291664Q60.534374 57.291664 61.05 57.572914Q61.58125 57.854164 61.925 58.385414Q62.26875 58.90104 62.45625 59.65104Q62.64375 60.40104 62.64375 61.68229Q62.64375 63.197914 62.33125 64.11979Q62.034374 65.041664 61.409374 65.55729Q60.8 66.05729 59.846874 66.05729Q58.6125 66.05729 57.89375 65.166664Q57.05 64.104164 57.05 61.68229ZM58.128124 61.68229Q58.128124 63.791664 58.628124 64.49479Q59.128124 65.197914 59.846874 65.197914Q60.58125 65.197914 61.065624 64.49479Q61.565624 63.791664 61.565624 61.68229Q61.565624 59.55729 61.065624 58.86979Q60.58125 58.166664 59.83125 58.166664Q59.1125 58.166664 58.675 58.77604Q58.128124 59.55729 58.128124 61.68229Z" fill-rule="nonzero"/><path fill="#000000" d="M106.178406 349.45L109.47528 340.85626L110.69403 340.85626L114.209656 349.45L112.928406 349.45L111.91278 346.84064L108.334656 346.84064L107.38153 349.45L106.178406 349.45ZM108.66278 345.91876L111.56903 345.91876L110.678406 343.54376Q110.25653 342.46564 110.06903 341.7625Q109.897156 342.59064 109.60028 343.40314L108.66278 345.91876ZM114.084656 349.45L114.084656 340.85626L115.803406 340.85626L117.834656 346.9344Q118.115906 347.79376 118.240906 348.21564Q118.38153 347.7469 118.69403 346.84064L120.75653 340.85626L122.28778 340.85626L122.28778 349.45L121.19403 349.45L121.19403 342.2625L118.69403 349.45L117.66278 349.45L115.178406 342.1375L115.178406 349.45L114.084656 349.45ZM129.63153 348.52814Q130.4284 349.075 131.08466 349.325L130.75653 350.1219Q129.83466 349.77814 128.91278 349.0594Q127.959656 349.59064 126.803406 349.59064Q125.63153 349.59064 124.678406 349.02814Q123.740906 348.46564 123.22528 347.45Q122.709656 346.4344 122.709656 345.15314Q122.709656 343.8875 123.22528 342.84064Q123.740906 341.79376 124.69403 341.2469Q125.647156 340.7 126.81903 340.7Q128.00653 340.7 128.95966 341.27814Q129.9284 341.84064 130.4284 342.85626Q130.9284 343.8719 130.9284 345.15314Q130.9284 346.21564 130.60028 347.0594Q130.28778 347.90314 129.63153 348.52814ZM127.13153 347.075Q128.1159 347.35626 128.75653 347.90314Q129.75653 346.98126 129.75653 345.15314Q129.75653 344.10626 129.39716 343.325Q129.03778 342.54376 128.35028 342.1219Q127.678406 341.6844 126.834656 341.6844Q125.553406 341.6844 124.709656 342.5594Q123.88153 343.41876 123.88153 345.15314Q123.88153 346.825 124.709656 347.73126Q125.53778 348.6219 126.834656 348.6219Q127.44403 348.6219 127.97528 348.3875Q127.44403 348.04376 126.85028 347.90314L127.13153 347.075ZM132.1159 349.45L132.1159 340.85626L135.3659 340.85626Q136.20966 340.85626 136.66278 340.9344Q137.3034 341.04376 137.72528 341.34064Q138.16278 341.6375 138.41278 342.16876Q138.6784 342.7 138.6784 343.34064Q138.6784 344.4344 137.97528 345.2Q137.28778 345.95 135.45966 345.95L133.25653 345.95L133.25653 349.45L132.1159 349.45ZM133.25653 344.95L135.47528 344.95Q136.58466 344.95 137.03778 344.54376Q137.50653 344.1219 137.50653 343.3719Q137.50653 342.84064 137.22528 342.46564Q136.95966 342.075 136.52216 341.95Q136.22528 341.8719 135.45966 341.8719L133.25653 341.8719L133.25653 344.95ZM146.66278 349.45L145.6159 349.45L145.6159 342.73126Q145.22528 343.09064 144.60028 343.46564Q143.9909 343.825 143.50653 343.9969L143.50653 342.98126Q144.38153 342.5594 145.03778 341.98126Q145.70966 341.3875 145.9909 340.825L146.66278 340.825L146.66278 349.45ZM150.28778 349.45L150.28778 348.2469L151.4909 348.2469L151.4909 349.45L150.28778 349.45ZM152.69403 345.21564Q152.69403 343.6844 153.00653 342.7625Q153.31903 341.825 153.9284 341.325Q154.5534 340.825 155.4909 340.825Q156.1784 340.825 156.69403 341.10626Q157.22528 341.3875 157.56903 341.91876Q157.91278 342.4344 158.10028 343.1844Q158.28778 343.9344 158.28778 345.21564Q158.28778 346.73126 157.97528 347.65314Q157.6784 348.575 157.0534 349.09064Q156.44403 349.59064 155.4909 349.59064Q154.25653 349.59064 153.53778 348.7Q152.69403 347.6375 152.69403 345.21564ZM153.77216 345.21564Q153.77216 347.325 154.27216 348.02814Q154.77216 348.73126 155.4909 348.73126Q156.22528 348.73126 156.70966 348.02814Q157.20966 347.325 157.20966 345.21564Q157.20966 343.09064 156.70966 342.40314Q156.22528 341.7 155.47528 341.7Q154.75653 341.7 154.31903 342.3094Q153.77216 343.09064 153.77216 345.21564ZM160.25653 349.45L160.25653 348.2469L161.45966 348.2469L161.45966 349.45Q161.45966 350.10626 161.22528 350.5125Q160.9909 350.9344 160.4909 351.15314L160.19403 350.7Q160.52216 350.5594 160.6784 350.2625Q160.83466 349.98126 160.8659 349.45L160.25653 349.45ZM166.13153 349.45L166.13153 340.85626L169.94403 340.85626Q171.10028 340.85626 171.69403 341.09064Q172.28778 341.325 172.64716 341.91876Q173.00653 342.4969 173.00653 343.2Q173.00653 344.1219 172.41278 344.7469Q171.81903 345.3719 170.58466 345.54376Q171.03778 345.7625 171.27216 345.96564Q171.77216 346.41876 172.20966 347.10626L173.70966 349.45L172.27216 349.45L171.14716 347.66876Q170.64716 346.8875 170.31903 346.48126Q170.00653 346.075 169.7409 345.91876Q169.4909 345.7469 169.22528 345.66876Q169.03778 345.6375 168.60028 345.6375L167.27216 345.6375L167.27216 349.45L166.13153 349.45ZM167.27216 344.65314L169.72528 344.65314Q170.4909 344.65314 170.9284 344.4969Q171.38153 344.325 171.60028 343.98126Q171.83466 343.6219 171.83466 343.2Q171.83466 342.59064 171.38153 342.2Q170.94403 341.8094 169.9909 341.8094L167.27216 341.8094L167.27216 344.65314ZM179.0534 348.6844Q178.45966 349.1844 177.91278 349.3875Q177.38153 349.59064 176.75653 349.59064Q175.72528 349.59064 175.1784 349.09064Q174.63153 348.59064 174.63153 347.8094Q174.63153 347.35626 174.83466 346.98126Q175.03778 346.59064 175.38153 346.3719Q175.72528 346.1375 176.14716 346.02814Q176.44403 345.9344 177.08466 345.85626Q178.35028 345.71564 178.95966 345.4969Q178.95966 345.27814 178.95966 345.23126Q178.95966 344.575 178.66278 344.3094Q178.25653 343.96564 177.45966 343.96564Q176.72528 343.96564 176.3659 344.23126Q176.00653 344.48126 175.83466 345.1375L174.8034 344.9969Q174.94403 344.34064 175.27216 343.9344Q175.60028 343.52814 176.20966 343.3094Q176.81903 343.09064 177.6159 343.09064Q178.41278 343.09064 178.91278 343.27814Q179.41278 343.46564 179.64716 343.7469Q179.88153 344.02814 179.97528 344.46564Q180.02216 344.73126 180.02216 345.4344L180.02216 346.84064Q180.02216 348.3094 180.08466 348.7Q180.16278 349.09064 180.3659 349.45L179.25653 349.45Q179.10028 349.1219 179.0534 348.6844ZM178.95966 346.325Q178.38153 346.5594 177.2409 346.73126Q176.58466 346.825 176.31903 346.95Q176.0534 347.0594 175.89716 347.27814Q175.75653 347.4969 175.75653 347.77814Q175.75653 348.2 176.06903 348.48126Q176.39716 348.7625 177.00653 348.7625Q177.6159 348.7625 178.08466 348.4969Q178.56903 348.23126 178.78778 347.7625Q178.95966 347.40314 178.95966 346.71564L178.95966 346.325ZM182.95966 349.45L181.97528 349.45L181.97528 340.85626L183.03778 340.85626L183.03778 343.91876Q183.70966 343.09064 184.7409 343.09064Q185.31903 343.09064 185.81903 343.325Q186.33466 343.54376 186.66278 343.96564Q187.00653 344.3875 187.19403 344.98126Q187.38153 345.575 187.38153 346.2469Q187.38153 347.84064 186.58466 348.71564Q185.78778 349.59064 184.69403 349.59064Q183.58466 349.59064 182.95966 348.66876L182.95966 349.45ZM182.94403 346.29376Q182.94403 347.40314 183.25653 347.90314Q183.75653 348.71564 184.60028 348.71564Q185.28778 348.71564 185.78778 348.1219Q186.3034 347.52814 186.3034 346.325Q186.3034 345.10626 185.81903 344.52814Q185.33466 343.95 184.64716 343.95Q183.95966 343.95 183.44403 344.5594Q182.94403 345.15314 182.94403 346.29376ZM189.95966 349.45L188.97528 349.45L188.97528 340.85626L190.03778 340.85626L190.03778 343.91876Q190.70966 343.09064 191.7409 343.09064Q192.31903 343.09064 192.81903 343.325Q193.33466 343.54376 193.66278 343.96564Q194.00653 344.3875 194.19403 344.98126Q194.38153 345.575 194.38153 346.2469Q194.38153 347.84064 193.58466 348.71564Q192.78778 349.59064 191.69403 349.59064Q190.58466 349.59064 189.95966 348.66876L189.95966 349.45ZM189.94403 346.29376Q189.94403 347.40314 190.25653 347.90314Q190.75653 348.71564 191.60028 348.71564Q192.28778 348.71564 192.78778 348.1219Q193.3034 347.52814 193.3034 346.325Q193.3034 345.10626 192.81903 344.52814Q192.33466 343.95 191.64716 343.95Q190.95966 343.95 190.44403 344.5594Q189.94403 345.15314 189.94403 346.29376ZM195.9909 342.075L195.9909 340.85626L197.0534 340.85626L197.0534 342.075L195.9909 342.075ZM195.9909 349.45L195.9909 343.23126L197.0534 343.23126L197.0534 349.45L195.9909 349.45ZM201.28778 348.5125L201.44403 349.4344Q200.9909 349.52814 200.64716 349.52814Q200.06903 349.52814 199.75653 349.35626Q199.44403 349.16876 199.3034 348.8719Q199.1784 348.575 199.1784 347.6219L199.1784 344.04376L198.41278 344.04376L198.41278 343.23126L199.1784 343.23126L199.1784 341.6844L200.22528 341.0594L200.22528 343.23126L201.28778 343.23126L201.28778 344.04376L200.22528 344.04376L200.22528 347.6844Q200.22528 348.1375 200.27216 348.2625Q200.33466 348.3875 200.45966 348.46564Q200.58466 348.54376 200.81903 348.54376Q201.00653 348.54376 201.28778 348.5125ZM202.08466 349.45L202.08466 340.85626L203.8034 340.85626L205.83466 346.9344Q206.1159 347.79376 206.2409 348.21564Q206.38153 347.7469 206.69403 346.84064L208.75653 340.85626L210.28778 340.85626L210.28778 349.45L209.19403 349.45L209.19403 342.2625L206.69403 349.45L205.66278 349.45L203.1784 342.1375L203.1784 349.45L202.08466 349.45ZM217.63153 348.52814Q218.4284 349.075 219.08466 349.325L218.75653 350.1219Q217.83466 349.77814 216.91278 349.0594Q215.95966 349.59064 214.8034 349.59064Q213.63153 349.59064 212.6784 349.02814Q211.7409 348.46564 211.22528 347.45Q210.70966 346.4344 210.70966 345.15314Q210.70966 343.8875 211.22528 342.84064Q211.7409 341.79376 212.69403 341.2469Q213.64716 340.7 214.81903 340.7Q216.00653 340.7 216.95966 341.27814Q217.9284 341.84064 218.4284 342.85626Q218.9284 343.8719 218.9284 345.15314Q218.9284 346.21564 218.60028 347.0594Q218.28778 347.90314 217.63153 348.52814ZM215.13153 347.075Q216.1159 347.35626 216.75653 347.90314Q217.75653 346.98126 217.75653 345.15314Q217.75653 344.10626 217.39716 343.325Q217.03778 342.54376 216.35028 342.1219Q215.6784 341.6844 214.83466 341.6844Q213.5534 341.6844 212.70966 342.5594Q211.88153 343.41876 211.88153 345.15314Q211.88153 346.825 212.70966 347.73126Q213.53778 348.6219 214.83466 348.6219Q215.44403 348.6219 215.97528 348.3875Q215.44403 348.04376 214.85028 347.90314L215.13153 347.075ZM226.06903 349.45L226.06903 347.3875L222.35028 347.3875L222.35028 346.41876L226.27216 340.85626L227.13153 340.85626L227.13153 346.41876L228.28778 346.41876L228.28778 347.3875L227.13153 347.3875L227.13153 349.45L226.06903 349.45ZM226.06903 346.41876L226.06903 342.5594L223.38153 346.41876L226.06903 346.41876ZM230.28778 349.45L230.28778 348.2469L231.4909 348.2469L231.4909 349.45L230.28778 349.45ZM232.69403 345.21564Q232.69403 343.6844 233.00653 342.7625Q233.31903 341.825 233.9284 341.325Q234.5534 340.825 235.4909 340.825Q236.1784 340.825 236.69403 341.10626Q237.22528 341.3875 237.56903 341.91876Q237.91278 342.4344 238.10028 343.1844Q238.28778 343.9344 238.28778 345.21564Q238.28778 346.73126 237.97528 347.65314Q237.6784 348.575 237.0534 349.09064Q236.44403 349.59064 235.4909 349.59064Q234.25653 349.59064 233.53778 348.7Q232.69403 347.6375 232.69403 345.21564ZM233.77216 345.21564Q233.77216 347.325 234.27216 348.02814Q234.77216 348.73126 235.4909 348.73126Q236.22528 348.73126 236.70966 348.02814Q237.20966 347.325 237.20966 345.21564Q237.20966 343.09064 236.70966 342.40314Q236.22528 341.7 235.47528 341.7Q234.75653 341.7 234.31903 342.3094Q233.77216 343.09064 233.77216 345.21564Z" fill-rule="nonzero"/><path fill="#000000" d="M255.48438 349.45L258.78125 340.85626L260.0 340.85626L263.51562 349.45L262.23438 349.45L261.21875 346.84064L257.64062 346.84064L256.6875 349.45L255.48438 349.45ZM257.96875 345.91876L260.875 345.91876L259.98438 343.54376Q259.5625 342.46564 259.375 341.7625Q259.20312 342.59064 258.90625 343.40314L257.96875 345.91876ZM263.39062 349.45L263.39062 340.85626L265.10938 340.85626L267.14062 346.9344Q267.42188 347.79376 267.54688 348.21564Q267.6875 347.7469 268.0 346.84064L270.0625 340.85626L271.59375 340.85626L271.59375 349.45L270.5 349.45L270.5 342.2625L268.0 349.45L266.96875 349.45L264.48438 342.1375L264.48438 349.45L263.39062 349.45ZM278.9375 348.52814Q279.73438 349.075 280.39062 349.325L280.0625 350.1219Q279.14062 349.77814 278.21875 349.0594Q277.26562 349.59064 276.10938 349.59064Q274.9375 349.59064 273.98438 349.02814Q273.04688 348.46564 272.53125 347.45Q272.01562 346.4344 272.01562 345.15314Q272.01562 343.8875 272.53125 342.84064Q273.04688 341.79376 274.0 341.2469Q274.95312 340.7 276.125 340.7Q277.3125 340.7 278.26562 341.27814Q279.23438 341.84064 279.73438 342.85626Q280.23438 343.8719 280.23438 345.15314Q280.23438 346.21564 279.90625 347.0594Q279.59375 347.90314 278.9375 348.52814ZM276.4375 347.075Q277.42188 347.35626 278.0625 347.90314Q279.0625 346.98126 279.0625 345.15314Q279.0625 344.10626 278.70312 343.325Q278.34375 342.54376 277.65625 342.1219Q276.98438 341.6844 276.14062 341.6844Q274.85938 341.6844 274.01562 342.5594Q273.1875 343.41876 273.1875 345.15314Q273.1875 346.825 274.01562 347.73126Q274.84375 348.6219 276.14062 348.6219Q276.75 348.6219 277.28125 348.3875Q276.75 348.04376 276.15625 347.90314L276.4375 347.075ZM281.42188 349.45L281.42188 340.85626L284.67188 340.85626Q285.51562 340.85626 285.96875 340.9344Q286.60938 341.04376 287.03125 341.34064Q287.46875 341.6375 287.71875 342.16876Q287.98438 342.7 287.98438 343.34064Q287.98438 344.4344 287.28125 345.2Q286.59375 345.95 284.76562 345.95L282.5625 345.95L282.5625 349.45L281.42188 349.45ZM282.5625 344.95L284.78125 344.95Q285.89062 344.95 286.34375 344.54376Q286.8125 344.1219 286.8125 343.3719Q286.8125 342.84064 286.53125 342.46564Q286.26562 342.075 285.82812 341.95Q285.53125 341.8719 284.76562 341.8719L282.5625 341.8719L282.5625 344.95ZM295.96875 349.45L294.92188 349.45L294.92188 342.73126Q294.53125 343.09064 293.90625 343.46564Q293.29688 343.825 292.8125 343.9969L292.8125 342.98126Q293.6875 342.5594 294.34375 341.98126Q295.01562 341.3875 295.29688 340.825L295.96875 340.825L295.96875 349.45ZM299.59375 349.45L299.59375 348.2469L300.79688 348.2469L300.79688 349.45L299.59375 349.45ZM302.0 345.21564Q302.0 343.6844 302.3125 342.7625Q302.625 341.825 303.23438 341.325Q303.85938 340.825 304.79688 340.825Q305.48438 340.825 306.0 341.10626Q306.53125 341.3875 306.875 341.91876Q307.21875 342.4344 307.40625 343.1844Q307.59375 343.9344 307.59375 345.21564Q307.59375 346.73126 307.28125 347.65314Q306.98438 348.575 306.35938 349.09064Q305.75 349.59064 304.79688 349.59064Q303.5625 349.59064 302.84375 348.7Q302.0 347.6375 302.0 345.21564ZM303.07812 345.21564Q303.07812 347.325 303.57812 348.02814Q304.07812 348.73126 304.79688 348.73126Q305.53125 348.73126 306.01562 348.02814Q306.51562 347.325 306.51562 345.21564Q306.51562 343.09064 306.01562 342.40314Q305.53125 341.7 304.78125 341.7Q304.0625 341.7 303.625 342.3094Q303.07812 343.09064 303.07812 345.21564ZM309.5625 349.45L309.5625 348.2469L310.76562 348.2469L310.76562 349.45Q310.76562 350.10626 310.53125 350.5125Q310.29688 350.9344 309.79688 351.15314L309.5 350.7Q309.82812 350.5594 309.98438 350.2625Q310.14062 349.98126 310.17188 349.45L309.5625 349.45ZM315.4375 349.45L315.4375 340.85626L319.25 340.85626Q320.40625 340.85626 321.0 341.09064Q321.59375 341.325 321.95312 341.91876Q322.3125 342.4969 322.3125 343.2Q322.3125 344.1219 321.71875 344.7469Q321.125 345.3719 319.89062 345.54376Q320.34375 345.7625 320.57812 345.96564Q321.07812 346.41876 321.51562 347.10626L323.01562 349.45L321.57812 349.45L320.45312 347.66876Q319.95312 346.8875 319.625 346.48126Q319.3125 346.075 319.04688 345.91876Q318.79688 345.7469 318.53125 345.66876Q318.34375 345.6375 317.90625 345.6375L316.57812 345.6375L316.57812 349.45L315.4375 349.45ZM316.57812 344.65314L319.03125 344.65314Q319.79688 344.65314 320.23438 344.4969Q320.6875 344.325 320.90625 343.98126Q321.14062 343.6219 321.14062 343.2Q321.14062 342.59064 320.6875 342.2Q320.25 341.8094 319.29688 341.8094L316.57812 341.8094L316.57812 344.65314ZM328.35938 348.6844Q327.76562 349.1844 327.21875 349.3875Q326.6875 349.59064 326.0625 349.59064Q325.03125 349.59064 324.48438 349.09064Q323.9375 348.59064 323.9375 347.8094Q323.9375 347.35626 324.14062 346.98126Q324.34375 346.59064 324.6875 346.3719Q325.03125 346.1375 325.45312 346.02814Q325.75 345.9344 326.39062 345.85626Q327.65625 345.71564 328.26562 345.4969Q328.26562 345.27814 328.26562 345.23126Q328.26562 344.575 327.96875 344.3094Q327.5625 343.96564 326.76562 343.96564Q326.03125 343.96564 325.67188 344.23126Q325.3125 344.48126 325.14062 345.1375L324.10938 344.9969Q324.25 344.34064 324.57812 343.9344Q324.90625 343.52814 325.51562 343.3094Q326.125 343.09064 326.92188 343.09064Q327.71875 343.09064 328.21875 343.27814Q328.71875 343.46564 328.95312 343.7469Q329.1875 344.02814 329.28125 344.46564Q329.32812 344.73126 329.32812 345.4344L329.32812 346.84064Q329.32812 348.3094 329.39062 348.7Q329.46875 349.09064 329.67188 349.45L328.5625 349.45Q328.40625 349.1219 328.35938 348.6844ZM328.26562 346.325Q327.6875 346.5594 326.54688 346.73126Q325.89062 346.825 325.625 346.95Q325.35938 347.0594 325.20312 347.27814Q325.0625 347.4969 325.0625 347.77814Q325.0625 348.2 325.375 348.48126Q325.70312 348.7625 326.3125 348.7625Q326.92188 348.7625 327.39062 348.4969Q327.875 348.23126 328.09375 347.7625Q328.26562 347.40314 328.26562 346.71564L328.26562 346.325ZM332.26562 349.45L331.28125 349.45L331.28125 340.85626L332.34375 340.85626L332.34375 343.91876Q333.01562 343.09064 334.04688 343.09064Q334.625 343.09064 335.125 343.325Q335.64062 343.54376 335.96875 343.96564Q336.3125 344.3875 336.5 344.98126Q336.6875 345.575 336.6875 346.2469Q336.6875 347.84064 335.89062 348.71564Q335.09375 349.59064 334.0 349.59064Q332.89062 349.59064 332.26562 348.66876L332.26562 349.45ZM332.25 346.29376Q332.25 347.40314 332.5625 347.90314Q333.0625 348.71564 333.90625 348.71564Q334.59375 348.71564 335.09375 348.1219Q335.60938 347.52814 335.60938 346.325Q335.60938 345.10626 335.125 344.52814Q334.64062 343.95 333.95312 343.95Q333.26562 343.95 332.75 344.5594Q332.25 345.15314 332.25 346.29376ZM339.26562 349.45L338.28125 349.45L338.28125 340.85626L339.34375 340.85626L339.34375 343.91876Q340.01562 343.09064 341.04688 343.09064Q341.625 343.09064 342.125 343.325Q342.64062 343.54376 342.96875 343.96564Q343.3125 344.3875 343.5 344.98126Q343.6875 345.575 343.6875 346.2469Q343.6875 347.84064 342.89062 348.71564Q342.09375 349.59064 341.0 349.59064Q339.89062 349.59064 339.26562 348.66876L339.26562 349.45ZM339.25 346.29376Q339.25 347.40314 339.5625 347.90314Q340.0625 348.71564 340.90625 348.71564Q341.59375 348.71564 342.09375 348.1219Q342.60938 347.52814 342.60938 346.325Q342.60938 345.10626 342.125 344.52814Q341.64062 343.95 340.95312 343.95Q340.26562 343.95 339.75 344.5594Q339.25 345.15314 339.25 346.29376ZM345.29688 342.075L345.29688 340.85626L346.35938 340.85626L346.35938 342.075L345.29688 342.075ZM345.29688 349.45L345.29688 343.23126L346.35938 343.23126L346.35938 349.45L345.29688 349.45ZM350.59375 348.5125L350.75 349.4344Q350.29688 349.52814 349.95312 349.52814Q349.375 349.52814 349.0625 349.35626Q348.75 349.16876 348.60938 348.8719Q348.48438 348.575 348.48438 347.6219L348.48438 344.04376L347.71875 344.04376L347.71875 343.23126L348.48438 343.23126L348.48438 341.6844L349.53125 341.0594L349.53125 343.23126L350.59375 343.23126L350.59375 344.04376L349.53125 344.04376L349.53125 347.6844Q349.53125 348.1375 349.57812 348.2625Q349.64062 348.3875 349.76562 348.46564Q349.89062 348.54376 350.125 348.54376Q350.3125 348.54376 350.59375 348.5125ZM351.39062 349.45L351.39062 340.85626L353.10938 340.85626L355.14062 346.9344Q355.42188 347.79376 355.54688 348.21564Q355.6875 347.7469 356.0 346.84064L358.0625 340.85626L359.59375 340.85626L359.59375 349.45L358.5 349.45L358.5 342.2625L356.0 349.45L354.96875 349.45L352.48438 342.1375L352.48438 349.45L351.39062 349.45ZM366.9375 348.52814Q367.73438 349.075 368.39062 349.325L368.0625 350.1219Q367.14062 349.77814 366.21875 349.0594Q365.26562 349.59064 364.10938 349.59064Q362.9375 349.59064 361.98438 349.02814Q361.04688 348.46564 360.53125 347.45Q360.01562 346.4344 360.01562 345.15314Q360.01562 343.8875 360.53125 342.84064Q361.04688 341.79376 362.0 341.2469Q362.95312 340.7 364.125 340.7Q365.3125 340.7 366.26562 341.27814Q367.23438 341.84064 367.73438 342.85626Q368.23438 343.8719 368.23438 345.15314Q368.23438 346.21564 367.90625 347.0594Q367.59375 347.90314 366.9375 348.52814ZM364.4375 347.075Q365.42188 347.35626 366.0625 347.90314Q367.0625 346.98126 367.0625 345.15314Q367.0625 344.10626 366.70312 343.325Q366.34375 342.54376 365.65625 342.1219Q364.98438 341.6844 364.14062 341.6844Q362.85938 341.6844 362.01562 342.5594Q361.1875 343.41876 361.1875 345.15314Q361.1875 346.825 362.01562 347.73126Q362.84375 348.6219 364.14062 348.6219Q364.75 348.6219 365.28125 348.3875Q364.75 348.04376 364.15625 347.90314L364.4375 347.075ZM372.0 347.1844L373.0625 347.04376Q373.23438 347.9344 373.67188 348.34064Q374.10938 348.73126 374.73438 348.73126Q375.48438 348.73126 376.0 348.21564Q376.51562 347.7 376.51562 346.9344Q376.51562 346.21564 376.03125 345.7469Q375.5625 345.2625 374.82812 345.2625Q374.53125 345.2625 374.07812 345.3875L374.20312 344.45Q374.3125 344.46564 374.375 344.46564Q375.04688 344.46564 375.57812 344.1219Q376.125 343.7625 376.125 343.02814Q376.125 342.45 375.73438 342.075Q375.34375 341.6844 374.71875 341.6844Q374.10938 341.6844 373.6875 342.075Q373.28125 342.46564 373.17188 343.23126L372.10938 343.04376Q372.29688 341.9969 372.98438 341.41876Q373.67188 340.825 374.6875 340.825Q375.39062 340.825 375.98438 341.1375Q376.57812 341.4344 376.89062 341.95Q377.20312 342.46564 377.20312 343.0594Q377.20312 343.60626 376.90625 344.075Q376.60938 344.52814 376.03125 344.79376Q376.78125 344.96564 377.20312 345.52814Q377.625 346.075 377.625 346.91876Q377.625 348.04376 376.79688 348.825Q375.98438 349.60626 374.73438 349.60626Q373.60938 349.60626 372.85938 348.9344Q372.10938 348.2469 372.0 347.1844ZM379.59375 349.45L379.59375 348.2469L380.79688 348.2469L380.79688 349.45L379.59375 349.45ZM385.96875 349.45L384.92188 349.45L384.92188 342.73126Q384.53125 343.09064 383.90625 343.46564Q383.29688 343.825 382.8125 343.9969L382.8125 342.98126Q383.6875 342.5594 384.34375 341.98126Q385.01562 341.3875 385.29688 340.825L385.96875 340.825L385.96875 349.45ZM389.0 347.1844L390.0625 347.04376Q390.23438 347.9344 390.67188 348.34064Q391.10938 348.73126 391.73438 348.73126Q392.48438 348.73126 393.0 348.21564Q393.51562 347.7 393.51562 346.9344Q393.51562 346.21564 393.03125 345.7469Q392.5625 345.2625 391.82812 345.2625Q391.53125 345.2625 391.07812 345.3875L391.20312 344.45Q391.3125 344.46564 391.375 344.46564Q392.04688 344.46564 392.57812 344.1219Q393.125 343.7625 393.125 343.02814Q393.125 342.45 392.73438 342.075Q392.34375 341.6844 391.71875 341.6844Q391.10938 341.6844 390.6875 342.075Q390.28125 342.46564 390.17188 343.23126L389.10938 343.04376Q389.29688 341.9969 389.98438 341.41876Q390.67188 340.825 391.6875 340.825Q392.39062 340.825 392.98438 341.1375Q393.57812 341.4344 393.89062 341.95Q394.20312 342.46564 394.20312 343.0594Q394.20312 343.60626 393.90625 344.075Q393.60938 344.52814 393.03125 344.79376Q393.78125 344.96564 394.20312 345.52814Q394.625 346.075 394.625 346.91876Q394.625 348.04376 393.79688 348.825Q392.98438 349.60626 391.73438 349.60626Q390.60938 349.60626 389.85938 348.9344Q389.10938 348.2469 389.0 347.1844Z" fill-rule="nonzero"/><path fill="#000000" d="M406.79034 349.45L410.08722 340.85626L411.30597 340.85626L414.8216 349.45L413.54034 349.45L412.52472 346.84064L408.9466 346.84064L407.99347 349.45L406.79034 349.45ZM409.27472 345.91876L412.18097 345.91876L411.29034 343.54376Q410.86847 342.46564 410.68097 341.7625Q410.5091 342.59064 410.21222 343.40314L409.27472 345.91876ZM414.6966 349.45L414.6966 340.85626L416.41534 340.85626L418.4466 346.9344Q418.72784 347.79376 418.85284 348.21564Q418.99347 347.7469 419.30597 346.84064L421.36847 340.85626L422.89972 340.85626L422.89972 349.45L421.80597 349.45L421.80597 342.2625L419.30597 349.45L418.27472 349.45L415.79034 342.1375L415.79034 349.45L414.6966 349.45ZM430.24347 348.52814Q431.04034 349.075 431.6966 349.325L431.36847 350.1219Q430.4466 349.77814 429.52472 349.0594Q428.5716 349.59064 427.41534 349.59064Q426.24347 349.59064 425.29034 349.02814Q424.35284 348.46564 423.83722 347.45Q423.3216 346.4344 423.3216 345.15314Q423.3216 343.8875 423.83722 342.84064Q424.35284 341.79376 425.30597 341.2469Q426.2591 340.7 427.43097 340.7Q428.61847 340.7 429.5716 341.27814Q430.54034 341.84064 431.04034 342.85626Q431.54034 343.8719 431.54034 345.15314Q431.54034 346.21564 431.21222 347.0594Q430.89972 347.90314 430.24347 348.52814ZM427.74347 347.075Q428.72784 347.35626 429.36847 347.90314Q430.36847 346.98126 430.36847 345.15314Q430.36847 344.10626 430.0091 343.325Q429.64972 342.54376 428.96222 342.1219Q428.29034 341.6844 427.4466 341.6844Q426.16534 341.6844 425.3216 342.5594Q424.49347 343.41876 424.49347 345.15314Q424.49347 346.825 425.3216 347.73126Q426.14972 348.6219 427.4466 348.6219Q428.05597 348.6219 428.58722 348.3875Q428.05597 348.04376 427.46222 347.90314L427.74347 347.075ZM432.72784 349.45L432.72784 340.85626L435.97784 340.85626Q436.8216 340.85626 437.27472 340.9344Q437.91534 341.04376 438.33722 341.34064Q438.77472 341.6375 439.02472 342.16876Q439.29034 342.7 439.29034 343.34064Q439.29034 344.4344 438.58722 345.2Q437.89972 345.95 436.0716 345.95L433.86847 345.95L433.86847 349.45L432.72784 349.45ZM433.86847 344.95L436.08722 344.95Q437.1966 344.95 437.64972 344.54376Q438.11847 344.1219 438.11847 343.3719Q438.11847 342.84064 437.83722 342.46564Q437.5716 342.075 437.1341 341.95Q436.83722 341.8719 436.0716 341.8719L433.86847 341.8719L433.86847 344.95ZM443.30597 345.21564Q443.30597 343.6844 443.61847 342.7625Q443.93097 341.825 444.54034 341.325Q445.16534 340.825 446.10284 340.825Q446.79034 340.825 447.30597 341.10626Q447.83722 341.3875 448.18097 341.91876Q448.52472 342.4344 448.71222 343.1844Q448.89972 343.9344 448.89972 345.21564Q448.89972 346.73126 448.58722 347.65314Q448.29034 348.575 447.66534 349.09064Q447.05597 349.59064 446.10284 349.59064Q444.86847 349.59064 444.14972 348.7Q443.30597 347.6375 443.30597 345.21564ZM444.3841 345.21564Q444.3841 347.325 444.8841 348.02814Q445.3841 348.73126 446.10284 348.73126Q446.83722 348.73126 447.3216 348.02814Q447.8216 347.325 447.8216 345.21564Q447.8216 343.09064 447.3216 342.40314Q446.83722 341.7 446.08722 341.7Q445.36847 341.7 444.93097 342.3094Q444.3841 343.09064 444.3841 345.21564ZM450.89972 349.45L450.89972 348.2469L452.10284 348.2469L452.10284 349.45L450.89972 349.45ZM453.46222 347.46564L454.47784 347.3719Q454.60284 348.09064 454.96222 348.41876Q455.33722 348.73126 455.89972 348.73126Q456.3841 348.73126 456.74347 348.5125Q457.11847 348.27814 457.35284 347.91876Q457.58722 347.54376 457.74347 346.91876Q457.89972 346.27814 457.89972 345.6219Q457.89972 345.54376 457.89972 345.40314Q457.58722 345.90314 457.04034 346.23126Q456.49347 346.54376 455.85284 346.54376Q454.77472 346.54376 454.04034 345.77814Q453.30597 344.9969 453.30597 343.73126Q453.30597 342.41876 454.0716 341.6219Q454.85284 340.825 456.0091 340.825Q456.83722 340.825 457.52472 341.27814Q458.22784 341.73126 458.58722 342.575Q458.9466 343.40314 458.9466 344.98126Q458.9466 346.6219 458.58722 347.60626Q458.24347 348.575 457.52472 349.09064Q456.8216 349.59064 455.8841 349.59064Q454.86847 349.59064 454.22784 349.04376Q453.58722 348.48126 453.46222 347.46564ZM457.77472 343.66876Q457.77472 342.7625 457.29034 342.23126Q456.8216 341.7 456.1341 341.7Q455.43097 341.7 454.89972 342.27814Q454.3841 342.84064 454.3841 343.7625Q454.3841 344.575 454.8841 345.09064Q455.3841 345.60626 456.10284 345.60626Q456.83722 345.60626 457.30597 345.09064Q457.77472 344.575 457.77472 343.66876ZM460.89972 349.45L460.89972 348.2469L462.10284 348.2469L462.10284 349.45L460.89972 349.45ZM467.27472 349.45L466.22784 349.45L466.22784 342.73126Q465.83722 343.09064 465.21222 343.46564Q464.60284 343.825 464.11847 343.9969L464.11847 342.98126Q464.99347 342.5594 465.64972 341.98126Q466.3216 341.3875 466.60284 340.825L467.27472 340.825L467.27472 349.45ZM470.86847 349.45L470.86847 348.2469L472.0716 348.2469L472.0716 349.45Q472.0716 350.10626 471.83722 350.5125Q471.60284 350.9344 471.10284 351.15314L470.80597 350.7Q471.1341 350.5594 471.29034 350.2625Q471.4466 349.98126 471.47784 349.45L470.86847 349.45ZM476.74347 349.45L476.74347 340.85626L480.55597 340.85626Q481.71222 340.85626 482.30597 341.09064Q482.89972 341.325 483.2591 341.91876Q483.61847 342.4969 483.61847 343.2Q483.61847 344.1219 483.02472 344.7469Q482.43097 345.3719 481.1966 345.54376Q481.64972 345.7625 481.8841 345.96564Q482.3841 346.41876 482.8216 347.10626L484.3216 349.45L482.8841 349.45L481.7591 347.66876Q481.2591 346.8875 480.93097 346.48126Q480.61847 346.075 480.35284 345.91876Q480.10284 345.7469 479.83722 345.66876Q479.64972 345.6375 479.21222 345.6375L477.8841 345.6375L477.8841 349.45L476.74347 349.45ZM477.8841 344.65314L480.33722 344.65314Q481.10284 344.65314 481.54034 344.4969Q481.99347 344.325 482.21222 343.98126Q482.4466 343.6219 482.4466 343.2Q482.4466 342.59064 481.99347 342.2Q481.55597 341.8094 480.60284 341.8094L477.8841 341.8094L477.8841 344.65314ZM489.66534 348.6844Q489.0716 349.1844 488.52472 349.3875Q487.99347 349.59064 487.36847 349.59064Q486.33722 349.59064 485.79034 349.09064Q485.24347 348.59064 485.24347 347.8094Q485.24347 347.35626 485.4466 346.98126Q485.64972 346.59064 485.99347 346.3719Q486.33722 346.1375 486.7591 346.02814Q487.05597 345.9344 487.6966 345.85626Q488.96222 345.71564 489.5716 345.4969Q489.5716 345.27814 489.5716 345.23126Q489.5716 344.575 489.27472 344.3094Q488.86847 343.96564 488.0716 343.96564Q487.33722 343.96564 486.97784 344.23126Q486.61847 344.48126 486.4466 345.1375L485.41534 344.9969Q485.55597 344.34064 485.8841 343.9344Q486.21222 343.52814 486.8216 343.3094Q487.43097 343.09064 488.22784 343.09064Q489.02472 343.09064 489.52472 343.27814Q490.02472 343.46564 490.2591 343.7469Q490.49347 344.02814 490.58722 344.46564Q490.6341 344.73126 490.6341 345.4344L490.6341 346.84064Q490.6341 348.3094 490.6966 348.7Q490.77472 349.09064 490.97784 349.45L489.86847 349.45Q489.71222 349.1219 489.66534 348.6844ZM489.5716 346.325Q488.99347 346.5594 487.85284 346.73126Q487.1966 346.825 486.93097 346.95Q486.66534 347.0594 486.5091 347.27814Q486.36847 347.4969 486.36847 347.77814Q486.36847 348.2 486.68097 348.48126Q487.0091 348.7625 487.61847 348.7625Q488.22784 348.7625 488.6966 348.4969Q489.18097 348.23126 489.39972 347.7625Q489.5716 347.40314 489.5716 346.71564L489.5716 346.325ZM493.5716 349.45L492.58722 349.45L492.58722 340.85626L493.64972 340.85626L493.64972 343.91876Q494.3216 343.09064 495.35284 343.09064Q495.93097 343.09064 496.43097 343.325Q496.9466 343.54376 497.27472 343.96564Q497.61847 344.3875 497.80597 344.98126Q497.99347 345.575 497.99347 346.2469Q497.99347 347.84064 497.1966 348.71564Q496.39972 349.59064 495.30597 349.59064Q494.1966 349.59064 493.5716 348.66876L493.5716 349.45ZM493.55597 346.29376Q493.55597 347.40314 493.86847 347.90314Q494.36847 348.71564 495.21222 348.71564Q495.89972 348.71564 496.39972 348.1219Q496.91534 347.52814 496.91534 346.325Q496.91534 345.10626 496.43097 344.52814Q495.9466 343.95 495.2591 343.95Q494.5716 343.95 494.05597 344.5594Q493.55597 345.15314 493.55597 346.29376ZM500.5716 349.45L499.58722 349.45L499.58722 340.85626L500.64972 340.85626L500.64972 343.91876Q501.3216 343.09064 502.35284 343.09064Q502.93097 343.09064 503.43097 343.325Q503.9466 343.54376 504.27472 343.96564Q504.61847 344.3875 504.80597 344.98126Q504.99347 345.575 504.99347 346.2469Q504.99347 347.84064 504.1966 348.71564Q503.39972 349.59064 502.30597 349.59064Q501.1966 349.59064 500.5716 348.66876L500.5716 349.45ZM500.55597 346.29376Q500.55597 347.40314 500.86847 347.90314Q501.36847 348.71564 502.21222 348.71564Q502.89972 348.71564 503.39972 348.1219Q503.91534 347.52814 503.91534 346.325Q503.91534 345.10626 503.43097 344.52814Q502.9466 343.95 502.2591 343.95Q501.5716 343.95 501.05597 344.5594Q500.55597 345.15314 500.55597 346.29376ZM506.60284 342.075L506.60284 340.85626L507.66534 340.85626L507.66534 342.075L506.60284 342.075ZM506.60284 349.45L506.60284 343.23126L507.66534 343.23126L507.66534 349.45L506.60284 349.45ZM511.89972 348.5125L512.05597 349.4344Q511.60284 349.52814 511.2591 349.52814Q510.68097 349.52814 510.36847 349.35626Q510.05597 349.16876 509.91534 348.8719Q509.79034 348.575 509.79034 347.6219L509.79034 344.04376L509.02472 344.04376L509.02472 343.23126L509.79034 343.23126L509.79034 341.6844L510.83722 341.0594L510.83722 343.23126L511.89972 343.23126L511.89972 344.04376L510.83722 344.04376L510.83722 347.6844Q510.83722 348.1375 510.8841 348.2625Q510.9466 348.3875 511.0716 348.46564Q511.1966 348.54376 511.43097 348.54376Q511.61847 348.54376 511.89972 348.5125ZM512.6966 349.45L512.6966 340.85626L514.41534 340.85626L516.4466 346.9344Q516.72784 347.79376 516.85284 348.21564Q516.99347 347.7469 517.30597 346.84064L519.36847 340.85626L520.8997 340.85626L520.8997 349.45L519.80597 349.45L519.80597 342.2625L517.30597 349.45L516.2747 349.45L513.79034 342.1375L513.79034 349.45L512.6966 349.45ZM528.24347 348.52814Q529.04034 349.075 529.6966 349.325L529.36847 350.1219Q528.4466 349.77814 527.5247 349.0594Q526.5716 349.59064 525.41534 349.59064Q524.24347 349.59064 523.29034 349.02814Q522.35284 348.46564 521.8372 347.45Q521.3216 346.4344 521.3216 345.15314Q521.3216 343.8875 521.8372 342.84064Q522.35284 341.79376 523.30597 341.2469Q524.2591 340.7 525.43097 340.7Q526.61847 340.7 527.5716 341.27814Q528.54034 341.84064 529.04034 342.85626Q529.54034 343.8719 529.54034 345.15314Q529.54034 346.21564 529.2122 347.0594Q528.8997 347.90314 528.24347 348.52814ZM525.74347 347.075Q526.72784 347.35626 527.36847 347.90314Q528.36847 346.98126 528.36847 345.15314Q528.36847 344.10626 528.0091 343.325Q527.6497 342.54376 526.9622 342.1219Q526.29034 341.6844 525.4466 341.6844Q524.16534 341.6844 523.3216 342.5594Q522.49347 343.41876 522.49347 345.15314Q522.49347 346.825 523.3216 347.73126Q524.1497 348.6219 525.4466 348.6219Q526.05597 348.6219 526.5872 348.3875Q526.05597 348.04376 525.4622 347.90314L525.74347 347.075ZM536.68097 349.45L536.68097 347.3875L532.9622 347.3875L532.9622 346.41876L536.8841 340.85626L537.74347 340.85626L537.74347 346.41876L538.8997 346.41876L538.8997 347.3875L537.74347 347.3875L537.74347 349.45L536.68097 349.45ZM536.68097 346.41876L536.68097 342.5594L533.99347 346.41876L536.68097 346.41876ZM540.8997 349.45L540.8997 348.2469L542.10284 348.2469L542.10284 349.45L540.8997 349.45ZM543.30597 345.21564Q543.30597 343.6844 543.61847 342.7625Q543.93097 341.825 544.54034 341.325Q545.16534 340.825 546.10284 340.825Q546.79034 340.825 547.30597 341.10626Q547.8372 341.3875 548.18097 341.91876Q548.5247 342.4344 548.7122 343.1844Q548.8997 343.9344 548.8997 345.21564Q548.8997 346.73126 548.5872 347.65314Q548.29034 348.575 547.66534 349.09064Q547.05597 349.59064 546.10284 349.59064Q544.86847 349.59064 544.1497 348.7Q543.30597 347.6375 543.30597 345.21564ZM544.3841 345.21564Q544.3841 347.325 544.8841 348.02814Q545.3841 348.73126 546.10284 348.73126Q546.8372 348.73126 547.3216 348.02814Q547.8216 347.325 547.8216 345.21564Q547.8216 343.09064 547.3216 342.40314Q546.8372 341.7 546.0872 341.7Q545.36847 341.7 544.93097 342.3094Q544.3841 343.09064 544.3841 345.21564Z" fill-rule="nonzero"/><path fill="#757575" d="M30.940624 36.01875Q32.26875 36.925 33.378124 37.346874L32.815624 38.659374Q31.26875 38.1125 29.7375 36.909374Q28.14375 37.8 26.221874 37.8Q24.284374 37.8 22.690624 36.8625Q21.1125 35.925 20.253124 34.221874Q19.409374 32.51875 19.409374 30.39375Q19.409374 28.26875 20.26875 26.534374Q21.128124 24.8 22.70625 23.89375Q24.3 22.971874 26.26875 22.971874Q28.253124 22.971874 29.83125 23.925Q31.425 24.8625 32.253124 26.565624Q33.096874 28.253124 33.096874 30.378124Q33.096874 32.14375 32.565624 33.565624Q32.034374 34.971874 30.940624 36.01875ZM26.76875 33.596874Q28.409374 34.05 29.471874 34.95625Q31.14375 33.440624 31.14375 30.378124Q31.14375 28.64375 30.55 27.346874Q29.971874 26.05 28.83125 25.33125Q27.690624 24.6125 26.26875 24.6125Q24.159374 24.6125 22.753124 26.065624Q21.3625 27.503124 21.3625 30.39375Q21.3625 33.190624 22.7375 34.690624Q24.128124 36.175 26.26875 36.175Q27.284374 36.175 28.190624 35.784374Q27.3 35.221874 26.315624 34.971874L26.76875 33.596874ZM42.659374 37.55L42.659374 36.01875Q41.45625 37.784374 39.378124 37.784374Q38.45625 37.784374 37.659374 37.440624Q36.8625 37.08125 36.471874 36.55Q36.096874 36.01875 35.940624 35.2375Q35.83125 34.721874 35.83125 33.596874L35.83125 27.175L37.58125 27.175L37.58125 32.925Q37.58125 34.3 37.690624 34.784374Q37.8625 35.471874 38.39375 35.878124Q38.940624 36.26875 39.721874 36.26875Q40.51875 36.26875 41.20625 35.8625Q41.909374 35.45625 42.190624 34.76875Q42.4875 34.065624 42.4875 32.7375L42.4875 27.175L44.2375 27.175L44.2375 37.55L42.659374 37.55ZM45.221874 32.3625Q45.221874 29.4875 46.815624 28.096874Q48.159374 26.940624 50.08125 26.940624Q52.221874 26.940624 53.565624 28.346874Q54.925 29.753124 54.925 32.221874Q54.925 34.221874 54.33125 35.378124Q53.7375 36.51875 52.58125 37.159374Q51.440624 37.784374 50.08125 37.784374Q47.89375 37.784374 46.55 36.39375Q45.221874 34.9875 45.221874 32.3625ZM47.01875 32.3625Q47.01875 34.3625 47.878124 35.346874Q48.753124 36.33125 50.08125 36.33125Q51.39375 36.33125 52.253124 35.346874Q53.128124 34.346874 53.128124 32.3Q53.128124 30.378124 52.253124 29.39375Q51.378124 28.39375 50.08125 28.39375Q48.753124 28.39375 47.878124 29.39375Q47.01875 30.378124 47.01875 32.3625ZM56.846874 37.55L56.846874 27.175L58.425 27.175L58.425 28.753124Q59.034374 27.64375 59.55 27.3Q60.065624 26.940624 60.675 26.940624Q61.565624 26.940624 62.4875 27.503124L61.878124 29.14375Q61.2375 28.753124 60.596874 28.753124Q60.01875 28.753124 59.55 29.1125Q59.096874 29.45625 58.89375 30.065624Q58.6125 31.003124 58.6125 32.1125L58.6125 37.55L56.846874 37.55ZM70.65938 37.55L70.65938 36.01875Q69.45625 37.784374 67.37813 37.784374Q66.45625 37.784374 65.65938 37.440624Q64.8625 37.08125 64.47188 36.55Q64.09688 36.01875 63.940624 35.2375Q63.83125 34.721874 63.83125 33.596874L63.83125 27.175L65.58125 27.175L65.58125 32.925Q65.58125 34.3 65.69063 34.784374Q65.8625 35.471874 66.39375 35.878124Q66.94063 36.26875 67.72188 36.26875Q68.51875 36.26875 69.20625 35.8625Q69.90938 35.45625 70.19063 34.76875Q70.4875 34.065624 70.4875 32.7375L70.4875 27.175L72.2375 27.175L72.2375 37.55L70.65938 37.55ZM73.8625 37.55L73.8625 27.175L75.44063 27.175L75.44063 28.628124Q75.925 27.878124 76.7375 27.409374Q77.55 26.940624 78.58125 26.940624Q79.7375 26.940624 80.47188 27.425Q81.20625 27.89375 81.51875 28.753124Q82.75313 26.940624 84.72188 26.940624Q86.26875 26.940624 87.09688 27.8Q87.925 28.659374 87.925 30.425L87.925 37.55L86.175 37.55L86.175 31.01875Q86.175 29.95625 86.00313 29.503124Q85.83125 29.034374 85.37813 28.753124Q84.94063 28.471874 84.33125 28.471874Q83.2375 28.471874 82.50313 29.20625Q81.78438 29.925 81.78438 31.51875L81.78438 37.55L80.03438 37.55L80.03438 30.815624Q80.03438 29.64375 79.59688 29.065624Q79.175 28.471874 78.19063 28.471874Q77.45625 28.471874 76.81563 28.8625Q76.19063 29.253124 75.90938 30.003124Q75.62813 30.753124 75.62813 32.175L75.62813 37.55L73.8625 37.55ZM102.4875 41.51875L102.4875 36.440624Q102.06563 37.01875 101.33125 37.409374Q100.59688 37.784374 99.76875 37.784374Q97.925 37.784374 96.58125 36.315624Q95.25313 34.83125 95.25313 32.26875Q95.25313 30.70625 95.78438 29.471874Q96.33125 28.221874 97.3625 27.58125Q98.39375 26.940624 99.62813 26.940624Q101.55 26.940624 102.65938 28.565624L102.65938 27.175L104.2375 27.175L104.2375 41.51875L102.4875 41.51875ZM97.06563 32.33125Q97.06563 34.33125 97.89375 35.33125Q98.7375 36.33125 99.90938 36.33125Q101.03438 36.33125 101.84688 35.39375Q102.65938 34.440624 102.65938 32.4875Q102.65938 30.425 101.8 29.378124Q100.94063 28.33125 99.8 28.33125Q98.65938 28.33125 97.8625 29.3Q97.06563 30.26875 97.06563 32.33125ZM113.65938 37.55L113.65938 36.01875Q112.45625 37.784374 110.37813 37.784374Q109.45625 37.784374 108.65938 37.440624Q107.8625 37.08125 107.47188 36.55Q107.09688 36.01875 106.94063 35.2375Q106.83125 34.721874 106.83125 33.596874L106.83125 27.175L108.58125 27.175L108.58125 32.925Q108.58125 34.3 108.69063 34.784374Q108.8625 35.471874 109.39375 35.878124Q109.94063 36.26875 110.72188 36.26875Q111.51875 36.26875 112.20625 35.8625Q112.90938 35.45625 113.19063 34.76875Q113.4875 34.065624 113.4875 32.7375L113.4875 27.175L115.2375 27.175L115.2375 37.55L113.65938 37.55ZM123.97188 34.20625L125.78438 34.440624Q125.3625 36.01875 124.19063 36.909374Q123.03438 37.784374 121.22188 37.784374Q118.95625 37.784374 117.6125 36.39375Q116.28438 34.9875 116.28438 32.45625Q116.28438 29.83125 117.62813 28.39375Q118.97188 26.940624 121.12813 26.940624Q123.20625 26.940624 124.51875 28.3625Q125.84688 29.76875 125.84688 32.346874Q125.84688 32.503124 125.83125 32.815624L118.09688 32.815624Q118.19063 34.51875 119.06563 35.425Q119.94063 36.33125 121.2375 36.33125Q122.20625 36.33125 122.87813 35.83125Q123.56563 35.315624 123.97188 34.20625ZM118.19063 31.3625L123.9875 31.3625Q123.87813 30.065624 123.33125 29.409374Q122.4875 28.39375 121.14375 28.39375Q119.94063 28.39375 119.1125 29.20625Q118.28438 30.003124 118.19063 31.3625ZM134.65938 37.55L134.65938 36.01875Q133.45625 37.784374 131.37813 37.784374Q130.45625 37.784374 129.65938 37.440624Q128.8625 37.08125 128.47188 36.55Q128.09688 36.01875 127.94063 35.2375Q127.83125 34.721874 127.83125 33.596874L127.83125 27.175L129.58125 27.175L129.58125 32.925Q129.58125 34.3 129.69063 34.784374Q129.8625 35.471874 130.39375 35.878124Q130.94063 36.26875 131.72188 36.26875Q132.51875 36.26875 133.20625 35.8625Q133.90938 35.45625 134.19063 34.76875Q134.4875 34.065624 134.4875 32.7375L134.4875 27.175L136.2375 27.175L136.2375 37.55L134.65938 37.55ZM144.97188 34.20625L146.78438 34.440624Q146.3625 36.01875 145.19063 36.909374Q144.03438 37.784374 142.22188 37.784374Q139.95625 37.784374 138.6125 36.39375Q137.28438 34.9875 137.28438 32.45625Q137.28438 29.83125 138.62813 28.39375Q139.97188 26.940624 142.12813 26.940624Q144.20625 26.940624 145.51875 28.3625Q146.84688 29.76875 146.84688 32.346874Q146.84688 32.503124 146.83125 32.815624L139.09688 32.815624Q139.19063 34.51875 140.06563 35.425Q140.94063 36.33125 142.2375 36.33125Q143.20625 36.33125 143.87813 35.83125Q144.56563 35.315624 144.97188 34.20625ZM139.19063 31.3625L144.9875 31.3625Q144.87813 30.065624 144.33125 29.409374Q143.4875 28.39375 142.14375 28.39375Q140.94063 28.39375 140.1125 29.20625Q139.28438 30.003124 139.19063 31.3625ZM158.70625 35.971874L158.95625 37.534374Q158.22188 37.690624 157.62813 37.690624Q156.675 37.690624 156.14375 37.39375Q155.62813 37.08125 155.40938 36.596874Q155.19063 36.096874 155.19063 34.51875L155.19063 28.55L153.90938 28.55L153.90938 27.175L155.19063 27.175L155.19063 24.6125L156.94063 23.55L156.94063 27.175L158.70625 27.175L158.70625 28.55L156.94063 28.55L156.94063 34.6125Q156.94063 35.3625 157.03438 35.58125Q157.12813 35.784374 157.33125 35.925Q157.55 36.05 157.94063 36.05Q158.22188 36.05 158.70625 35.971874ZM160.8625 37.55L160.8625 23.2375L162.62813 23.2375L162.62813 28.3625Q163.8625 26.940624 165.7375 26.940624Q166.87813 26.940624 167.72188 27.39375Q168.58125 27.846874 168.94063 28.659374Q169.31563 29.45625 169.31563 30.971874L169.31563 37.55L167.56563 37.55L167.56563 30.971874Q167.56563 29.659374 166.9875 29.065624Q166.40938 28.45625 165.37813 28.45625Q164.59688 28.45625 163.89375 28.8625Q163.20625 29.26875 162.90938 29.971874Q162.62813 30.659374 162.62813 31.878124L162.62813 37.55L160.8625 37.55ZM170.84688 37.55L170.84688 27.175L172.425 27.175L172.425 28.753124Q173.03438 27.64375 173.55 27.3Q174.06563 26.940624 174.675 26.940624Q175.56563 26.940624 176.4875 27.503124L175.87813 29.14375Q175.2375 28.753124 174.59688 28.753124Q174.01875 28.753124 173.55 29.1125Q173.09688 29.45625 172.89375 30.065624Q172.6125 31.003124 172.6125 32.1125L172.6125 37.55L170.84688 37.55ZM177.22188 32.3625Q177.22188 29.4875 178.81563 28.096874Q180.15938 26.940624 182.08125 26.940624Q184.22188 26.940624 185.56563 28.346874Q186.925 29.753124 186.925 32.221874Q186.925 34.221874 186.33125 35.378124Q185.7375 36.51875 184.58125 37.159374Q183.44063 37.784374 182.08125 37.784374Q179.89375 37.784374 178.55 36.39375Q177.22188 34.9875 177.22188 32.3625ZM179.01875 32.3625Q179.01875 34.3625 179.87813 35.346874Q180.75313 36.33125 182.08125 36.33125Q183.39375 36.33125 184.25313 35.346874Q185.12813 34.346874 185.12813 32.3Q185.12813 30.378124 184.25313 29.39375Q183.37813 28.39375 182.08125 28.39375Q180.75313 28.39375 179.87813 29.39375Q179.01875 30.378124 179.01875 32.3625ZM195.65938 37.55L195.65938 36.01875Q194.45625 37.784374 192.37813 37.784374Q191.45625 37.784374 190.65938 37.440624Q189.8625 37.08125 189.47188 36.55Q189.09688 36.01875 188.94063 35.2375Q188.83125 34.721874 188.83125 33.596874L188.83125 27.175L190.58125 27.175L190.58125 32.925Q190.58125 34.3 190.69063 34.784374Q190.8625 35.471874 191.39375 35.878124Q191.94063 36.26875 192.72188 36.26875Q193.51875 36.26875 194.20625 35.8625Q194.90938 35.45625 195.19063 34.76875Q195.4875 34.065624 195.4875 32.7375L195.4875 27.175L197.2375 27.175L197.2375 37.55L195.65938 37.55ZM198.55 38.409374L200.25313 38.659374Q200.3625 39.45625 200.84688 39.815624Q201.50313 40.3 202.64375 40.3Q203.8625 40.3 204.51875 39.815624Q205.19063 39.33125 205.425 38.45625Q205.56563 37.909374 205.55 36.190624Q204.39375 37.55 202.675 37.55Q200.53438 37.55 199.3625 36.003124Q198.19063 34.45625 198.19063 32.3Q198.19063 30.815624 198.72188 29.565624Q199.26875 28.315624 200.28438 27.628124Q201.31563 26.940624 202.69063 26.940624Q204.51875 26.940624 205.72188 28.425L205.72188 27.175L207.33125 27.175L207.33125 36.14375Q207.33125 38.565624 206.83125 39.565624Q206.34688 40.58125 205.26875 41.159374Q204.20625 41.753124 202.64375 41.753124Q200.8 41.753124 199.64375 40.925Q198.50313 40.096874 198.55 38.409374ZM200.00313 32.175Q200.00313 34.221874 200.81563 35.159374Q201.62813 36.096874 202.84688 36.096874Q204.05 36.096874 204.8625 35.159374Q205.69063 34.221874 205.69063 32.2375Q205.69063 30.33125 204.84688 29.3625Q204.00313 28.39375 202.81563 28.39375Q201.64375 28.39375 200.81563 29.346874Q200.00313 30.3 200.00313 32.175ZM209.8625 37.55L209.8625 23.2375L211.62813 23.2375L211.62813 28.3625Q212.8625 26.940624 214.7375 26.940624Q215.87813 26.940624 216.72188 27.39375Q217.58125 27.846874 217.94063 28.659374Q218.31563 29.45625 218.31563 30.971874L218.31563 37.55L216.56563 37.55L216.56563 30.971874Q216.56563 29.659374 215.9875 29.065624Q215.40938 28.45625 214.37813 28.45625Q213.59688 28.45625 212.89375 28.8625Q212.20625 29.26875 211.90938 29.971874Q211.62813 30.659374 211.62813 31.878124L211.62813 37.55L209.8625 37.55ZM219.8625 41.51875L219.8625 27.175L221.47188 27.175L221.47188 28.51875Q222.03438 27.7375 222.7375 27.346874Q223.45625 26.940624 224.47188 26.940624Q225.8 26.940624 226.81563 27.628124Q227.83125 28.315624 228.34688 29.565624Q228.87813 30.8 228.87813 32.284374Q228.87813 33.878124 228.3 35.159374Q227.7375 36.425 226.64375 37.1125Q225.55 37.784374 224.34688 37.784374Q223.47188 37.784374 222.76875 37.409374Q222.08125 37.034374 221.62813 36.471874L221.62813 41.51875L219.8625 41.51875ZM221.45625 32.425Q221.45625 34.425 222.26875 35.378124Q223.08125 36.33125 224.2375 36.33125Q225.40938 36.33125 226.2375 35.346874Q227.08125 34.3625 227.08125 32.26875Q227.08125 30.3 226.25313 29.315624Q225.44063 28.315624 224.31563 28.315624Q223.19063 28.315624 222.31563 29.378124Q221.45625 30.425 221.45625 32.425ZM237.65938 37.55L237.65938 36.01875Q236.45625 37.784374 234.37813 37.784374Q233.45625 37.784374 232.65938 37.440624Q231.8625 37.08125 231.47188 36.55Q231.09688 36.01875 230.94063 35.2375Q230.83125 34.721874 230.83125 33.596874L230.83125 27.175L232.58125 27.175L232.58125 32.925Q232.58125 34.3 232.69063 34.784374Q232.8625 35.471874 233.39375 35.878124Q233.94063 36.26875 234.72188 36.26875Q235.51875 36.26875 236.20625 35.8625Q236.90938 35.45625 237.19063 34.76875Q237.4875 34.065624 237.4875 32.7375L237.4875 27.175L239.2375 27.175L239.2375 37.55L237.65938 37.55ZM244.70625 35.971874L244.95625 37.534374Q244.22188 37.690624 243.62813 37.690624Q242.675 37.690624 242.14375 37.39375Q241.62813 37.08125 241.40938 36.596874Q241.19063 36.096874 241.19063 34.51875L241.19063 28.55L239.90938 28.55L239.90938 27.175L241.19063 27.175L241.19063 24.6125L242.94063 23.55L242.94063 27.175L244.70625 27.175L244.70625 28.55L242.94063 28.55L242.94063 34.6125Q242.94063 35.3625 243.03438 35.58125Q243.12813 35.784374 243.33125 35.925Q243.55 36.05 243.94063 36.05Q244.22188 36.05 244.70625 35.971874ZM247.33125 37.55L247.33125 35.55L249.33125 35.55L249.33125 37.55Q249.33125 38.659374 248.94063 39.33125Q248.55 40.01875 247.70625 40.378124L247.20625 39.628124Q247.76875 39.39375 248.03438 38.909374Q248.3 38.440624 248.33125 37.55L247.33125 37.55ZM259.1281 37.55L259.1281 23.2375L265.47186 23.2375Q267.3781 23.2375 268.3781 23.628124Q269.3781 24.003124 269.97186 24.9875Q270.5656 25.95625 270.5656 27.14375Q270.5656 28.659374 269.58124 29.70625Q268.59686 30.753124 266.53436 31.034374Q267.28436 31.39375 267.675 31.753124Q268.5031 32.503124 269.2531 33.659374L271.7375 37.55L269.3625 37.55L267.45624 34.565624Q266.6281 33.284374 266.09686 32.596874Q265.5656 31.909374 265.1281 31.64375Q264.70624 31.3625 264.26874 31.253124Q263.9406 31.190624 263.22186 31.190624L261.01874 31.190624L261.01874 37.55L259.1281 37.55ZM261.01874 29.55L265.09686 29.55Q266.39374 29.55 267.1125 29.284374Q267.84686 29.01875 268.22186 28.425Q268.6125 27.83125 268.6125 27.14375Q268.6125 26.128124 267.8781 25.471874Q267.14374 24.815624 265.55 24.815624L261.01874 24.815624L261.01874 29.55ZM279.64374 36.26875Q278.65936 37.096874 277.7531 37.440624Q276.84686 37.784374 275.8156 37.784374Q274.1125 37.784374 273.1906 36.95625Q272.26874 36.1125 272.26874 34.815624Q272.26874 34.05 272.6125 33.425Q272.97186 32.8 273.53436 32.425Q274.09686 32.034374 274.8 31.83125Q275.3156 31.70625 276.3625 31.565624Q278.4875 31.315624 279.4875 30.971874Q279.5031 30.6125 279.5031 30.503124Q279.5031 29.440624 279.0031 28.9875Q278.33124 28.39375 277.0031 28.39375Q275.7531 28.39375 275.15936 28.83125Q274.58124 29.26875 274.3 30.378124L272.58124 30.14375Q272.8156 29.034374 273.34686 28.3625Q273.8781 27.675 274.89374 27.315624Q275.90936 26.940624 277.2531 26.940624Q278.58124 26.940624 279.40936 27.253124Q280.2375 27.565624 280.6281 28.05Q281.01874 28.51875 281.175 29.2375Q281.26874 29.690624 281.26874 30.8625L281.26874 33.20625Q281.26874 35.659374 281.3781 36.315624Q281.4875 36.95625 281.83124 37.55L279.9875 37.55Q279.72186 37.003124 279.64374 36.26875ZM279.4875 32.346874Q278.53436 32.7375 276.6125 33.003124Q275.53436 33.159374 275.08124 33.3625Q274.64374 33.55 274.39374 33.925Q274.14374 34.3 274.14374 34.76875Q274.14374 35.471874 274.675 35.940624Q275.20624 36.409374 276.2375 36.409374Q277.2531 36.409374 278.03436 35.971874Q278.83124 35.51875 279.20624 34.753124Q279.4875 34.14375 279.4875 32.9875L279.4875 32.346874ZM285.4875 37.55L283.8625 37.55L283.8625 23.2375L285.6125 23.2375L285.6125 28.346874Q286.7375 26.940624 288.45624 26.940624Q289.40936 26.940624 290.26874 27.33125Q291.1281 27.721874 291.675 28.425Q292.22186 29.1125 292.53436 30.096874Q292.84686 31.08125 292.84686 32.20625Q292.84686 34.878124 291.53436 36.33125Q290.22186 37.784374 288.3781 37.784374Q286.53436 37.784374 285.4875 36.253124L285.4875 37.55ZM285.47186 32.284374Q285.47186 34.14375 285.97186 34.9875Q286.8156 36.33125 288.22186 36.33125Q289.3781 36.33125 290.20624 35.33125Q291.05 34.33125 291.05 32.346874Q291.05 30.315624 290.2375 29.3625Q289.4406 28.39375 288.3 28.39375Q287.14374 28.39375 286.3 29.39375Q285.47186 30.39375 285.47186 32.284374ZM296.4875 37.55L294.8625 37.55L294.8625 23.2375L296.6125 23.2375L296.6125 28.346874Q297.7375 26.940624 299.45624 26.940624Q300.40936 26.940624 301.26874 27.33125Q302.1281 27.721874 302.675 28.425Q303.22186 29.1125 303.53436 30.096874Q303.84686 31.08125 303.84686 32.20625Q303.84686 34.878124 302.53436 36.33125Q301.22186 37.784374 299.3781 37.784374Q297.53436 37.784374 296.4875 36.253124L296.4875 37.55ZM296.47186 32.284374Q296.47186 34.14375 296.97186 34.9875Q297.8156 36.33125 299.22186 36.33125Q300.3781 36.33125 301.20624 35.33125Q302.05 34.33125 302.05 32.346874Q302.05 30.315624 301.2375 29.3625Q300.4406 28.39375 299.3 28.39375Q298.14374 28.39375 297.3 29.39375Q296.47186 30.39375 296.47186 32.284374ZM305.8781 25.253124L305.8781 23.2375L307.64374 23.2375L307.64374 25.253124L305.8781 25.253124ZM305.8781 37.55L305.8781 27.175L307.64374 27.175L307.64374 37.55L305.8781 37.55ZM313.70624 35.971874L313.95624 37.534374Q313.22186 37.690624 312.6281 37.690624Q311.675 37.690624 311.14374 37.39375Q310.6281 37.08125 310.40936 36.596874Q310.1906 36.096874 310.1906 34.51875L310.1906 28.55L308.90936 28.55L308.90936 27.175L310.1906 27.175L310.1906 24.6125L311.9406 23.55L311.9406 27.175L313.70624 27.175L313.70624 28.55L311.9406 28.55L311.9406 34.6125Q311.9406 35.3625 312.03436 35.58125Q312.1281 35.784374 312.33124 35.925Q312.55 36.05 312.9406 36.05Q313.22186 36.05 313.70624 35.971874ZM316.03436 37.55L316.03436 23.2375L318.89374 23.2375L322.26874 33.3625Q322.7375 34.784374 322.95624 35.4875Q323.20624 34.70625 323.72186 33.190624L327.14374 23.2375L329.6906 23.2375L329.6906 37.55L327.8781 37.55L327.8781 25.565624L323.70624 37.55L322.0031 37.55L317.8625 25.3625L317.8625 37.55L316.03436 37.55ZM343.9406 36.01875Q345.26874 36.925 346.3781 37.346874L345.8156 38.659374Q344.26874 38.1125 342.7375 36.909374Q341.14374 37.8 339.22186 37.8Q337.28436 37.8 335.6906 36.8625Q334.1125 35.925 333.2531 34.221874Q332.40936 32.51875 332.40936 30.39375Q332.40936 28.26875 333.26874 26.534374Q334.1281 24.8 335.70624 23.89375Q337.3 22.971874 339.26874 22.971874Q341.2531 22.971874 342.83124 23.925Q344.425 24.8625 345.2531 26.565624Q346.09686 28.253124 346.09686 30.378124Q346.09686 32.14375 345.5656 33.565624Q345.03436 34.971874 343.9406 36.01875ZM339.76874 33.596874Q341.40936 34.05 342.47186 34.95625Q344.14374 33.440624 344.14374 30.378124Q344.14374 28.64375 343.55 27.346874Q342.97186 26.05 341.83124 25.33125Q340.6906 24.6125 339.26874 24.6125Q337.15936 24.6125 335.7531 26.065624Q334.3625 27.503124 334.3625 30.39375Q334.3625 33.190624 335.7375 34.690624Q337.1281 36.175 339.26874 36.175Q340.28436 36.175 341.1906 35.784374Q340.3 35.221874 339.3156 34.971874L339.76874 33.596874ZM360.01874 37.55L360.01874 34.128124L353.8 34.128124L353.8 32.503124L360.33124 23.2375L361.76874 23.2375L361.76874 32.503124L363.70624 32.503124L363.70624 34.128124L361.76874 34.128124L361.76874 37.55L360.01874 37.55ZM360.01874 32.503124L360.01874 26.05L355.53436 32.503124L360.01874 32.503124ZM366.3625 37.55L366.3625 35.55L368.3625 35.55L368.3625 37.55L366.3625 37.55ZM371.3781 30.4875Q371.3781 27.95625 371.89374 26.409374Q372.425 24.846874 373.45624 24.01875Q374.4875 23.175 376.05 23.175Q377.20624 23.175 378.0656 23.64375Q378.9406 24.096874 379.5031 24.971874Q380.0656 25.846874 380.39374 27.1125Q380.72186 28.3625 380.72186 30.4875Q380.72186 33.003124 380.1906 34.55Q379.675 36.096874 378.64374 36.95625Q377.6281 37.8 376.05 37.8Q373.97186 37.8 372.8 36.315624Q371.3781 34.51875 371.3781 30.4875ZM373.1906 30.4875Q373.1906 34.01875 374.0031 35.190624Q374.83124 36.346874 376.05 36.346874Q377.2531 36.346874 378.08124 35.175Q378.90936 34.003124 378.90936 30.4875Q378.90936 26.95625 378.08124 25.8Q377.2531 24.628124 376.03436 24.628124Q374.8156 24.628124 374.09686 25.659374Q373.1906 26.95625 373.1906 30.4875ZM391.7531 37.55L387.8 27.175L389.65936 27.175L391.89374 33.39375Q392.2531 34.39375 392.55 35.471874Q392.78436 34.659374 393.20624 33.503124L395.5031 27.175L397.3156 27.175L393.39374 37.55L391.7531 37.55ZM397.15936 34.45625L398.90936 34.175Q399.05 35.221874 399.72186 35.784374Q400.39374 36.33125 401.59686 36.33125Q402.8 36.33125 403.3781 35.846874Q403.97186 35.346874 403.97186 34.690624Q403.97186 34.096874 403.45624 33.753124Q403.09686 33.51875 401.65936 33.159374Q399.72186 32.659374 398.97186 32.315624Q398.2375 31.95625 397.84686 31.33125Q397.45624 30.690624 397.45624 29.925Q397.45624 29.2375 397.76874 28.64375Q398.09686 28.05 398.64374 27.659374Q399.05 27.3625 399.7531 27.159374Q400.47186 26.940624 401.28436 26.940624Q402.5031 26.940624 403.425 27.3Q404.34686 27.64375 404.78436 28.253124Q405.22186 28.846874 405.39374 29.846874L403.675 30.08125Q403.55 29.284374 402.9875 28.846874Q402.425 28.39375 401.40936 28.39375Q400.1906 28.39375 399.675 28.8Q399.15936 29.190624 399.15936 29.721874Q399.15936 30.065624 399.3781 30.346874Q399.58124 30.628124 400.05 30.815624Q400.3156 30.909374 401.59686 31.253124Q403.47186 31.753124 404.20624 32.08125Q404.9406 32.39375 405.3625 33.003124Q405.78436 33.596874 405.78436 34.503124Q405.78436 35.378124 405.26874 36.159374Q404.7531 36.940624 403.78436 37.3625Q402.8156 37.784374 401.59686 37.784374Q399.58124 37.784374 398.51874 36.940624Q397.45624 36.096874 397.15936 34.45625ZM408.3625 37.55L408.3625 35.55L410.3625 35.55L410.3625 37.55L408.3625 37.55ZM419.39374 33.76875L421.14374 33.534374Q421.45624 35.034374 422.175 35.690624Q422.90936 36.346874 423.95624 36.346874Q425.1906 36.346874 426.03436 35.4875Q426.89374 34.628124 426.89374 33.3625Q426.89374 32.14375 426.09686 31.3625Q425.3156 30.58125 424.09686 30.58125Q423.59686 30.58125 422.8625 30.76875L423.05 29.221874Q423.22186 29.253124 423.33124 29.253124Q424.45624 29.253124 425.34686 28.675Q426.2531 28.08125 426.2531 26.8625Q426.2531 25.89375 425.59686 25.253124Q424.9406 24.6125 423.90936 24.6125Q422.89374 24.6125 422.20624 25.26875Q421.51874 25.909374 421.33124 27.190624L419.5656 26.878124Q419.89374 25.1125 421.03436 24.14375Q422.175 23.175 423.8781 23.175Q425.05 23.175 426.03436 23.675Q427.01874 24.175 427.53436 25.05Q428.0656 25.925 428.0656 26.89375Q428.0656 27.815624 427.5656 28.58125Q427.0656 29.346874 426.09686 29.8Q427.3625 30.08125 428.0656 31.01875Q428.76874 31.940624 428.76874 33.315624Q428.76874 35.190624 427.39374 36.503124Q426.03436 37.8 423.9406 37.8Q422.05 37.8 420.8 36.675Q419.5656 35.55 419.39374 33.76875ZM431.3625 37.55L431.3625 35.55L433.3625 35.55L433.3625 37.55L431.3625 37.55ZM443.0031 37.55L441.2375 37.55L441.2375 26.346874Q440.6125 26.95625 439.58124 27.565624Q438.55 28.159374 437.72186 28.471874L437.72186 26.76875Q439.20624 26.08125 440.3 25.096874Q441.40936 24.096874 441.8625 23.175L443.0031 23.175L443.0031 37.55ZM447.39374 33.76875L449.14374 33.534374Q449.45624 35.034374 450.175 35.690624Q450.90936 36.346874 451.95624 36.346874Q453.1906 36.346874 454.03436 35.4875Q454.89374 34.628124 454.89374 33.3625Q454.89374 32.14375 454.09686 31.3625Q453.3156 30.58125 452.09686 30.58125Q451.59686 30.58125 450.8625 30.76875L451.05 29.221874Q451.22186 29.253124 451.33124 29.253124Q452.45624 29.253124 453.34686 28.675Q454.2531 28.08125 454.2531 26.8625Q454.2531 25.89375 453.59686 25.253124Q452.9406 24.6125 451.90936 24.6125Q450.89374 24.6125 450.20624 25.26875Q449.51874 25.909374 449.33124 27.190624L447.5656 26.878124Q447.89374 25.1125 449.03436 24.14375Q450.175 23.175 451.8781 23.175Q453.05 23.175 454.03436 23.675Q455.01874 24.175 455.53436 25.05Q456.0656 25.925 456.0656 26.89375Q456.0656 27.815624 455.5656 28.58125Q455.0656 29.346874 454.09686 29.8Q455.3625 30.08125 456.0656 31.01875Q456.76874 31.940624 456.76874 33.315624Q456.76874 35.190624 455.39374 36.503124Q454.03436 37.8 451.9406 37.8Q450.05 37.8 448.8 36.675Q447.5656 35.55 447.39374 33.76875Z" fill-rule="nonzero"/></svg>