<svg version="1.1" viewBox="0.0 0.0 600.0 371.0" fill="none" stroke="none" stroke-linecap="square" stroke-miterlimit="10" width="600" height="371" xmlns:xlink="http://www.w3.org/1999/xlink" xmlns="http://www.w3.org/2000/svg"><path fill="#ffffff" d="M0 0L600.0 0L600.0 371.0L0 371.0L0 0Z" fill-rule="nonzero"/><path stroke="#333333" stroke-width="1.0" stroke-linecap="butt" d="M69.5 332.5L581.5 332.5" fill-rule="nonzero"/><path stroke="#cccccc" stroke-width="1.0" stroke-linecap="butt" d="M69.5 278.5L581.5 278.5" fill-rule="nonzero"/><path stroke="#cccccc" stroke-width="1.0" stroke-linecap="butt" d="M69.5 224.5L581.5 224.5" fill-rule="nonzero"/><path stroke="#cccccc" stroke-width="1.0" stroke-linecap="butt" d="M69.5 170.5L581.5 170.5" fill-rule="nonzero"/><path stroke="#cccccc" stroke-width="1.0" stroke-linecap="butt" d="M69.5 116.5L581.5 116.5" fill-rule="nonzero"/><path stroke="#cccccc" stroke-width="1.0" stroke-linecap="butt" d="M69.5 61.5L581.5 61.5" fill-rule="nonzero"/><path stroke="#e6e6e6" stroke-width="1.0" stroke-linecap="butt" d="M69.5 314.5L581.5 314.5" fill-rule="nonzero"/><path stroke="#e6e6e6" stroke-width="1.0" stroke-linecap="butt" d="M69.5 296.5L581.5 296.5" fill-rule="nonzero"/><path stroke="#e6e6e6" stroke-width="1.0" stroke-linecap="butt" d="M69.5 260.5L581.5 260.5" fill-rule="nonzero"/><path stroke="#e6e6e6" stroke-width="1.0" stroke-linecap="butt" d="M69.5 242.5L581.5 242.5" fill-rule="nonzero"/><path stroke="#e6e6e6" stroke-width="1.0" stroke-linecap="butt" d="M69.5 206.5L581.5 206.5" fill-rule="nonzero"/><path stroke="#e6e6e6" stroke-width="1.0" stroke-linecap="butt" d="M69.5 188.5L581.5 188.5" fill-rule="nonzero"/><path stroke="#e6e6e6" stroke-width="1.0" stroke-linecap="butt" d="M69.5 152.5L581.5 152.5" fill-rule="nonzero"/><path stroke="#e6e6e6" stroke-width="1.0" stroke-linecap="butt" d="M69.5 134.5L581.5 134.5" fill-rule="nonzero"/><path stroke="#e6e6e6" stroke-width="1.0" stroke-linecap="butt" d="M69.5 97.5L581.5 97.5" fill-rule="nonzero"/><path stroke="#e6e6e6" stroke-width="1.0" stroke-linecap="butt" d="M69.5 79.5L581.5 79.5" fill-rule="nonzero"/><clipPath id="id_0"><path d="M69.55 61.916668L581.45 61.916668L581.45 332.45L69.55 332.45L69.55 61.916668Z" clip-rule="nonzero"/></clipPath><path stroke="#000000" stroke-width="2.0" stroke-linecap="butt" stroke-opacity="0.0" clip-path="url(#id_0)" d="M223.0 332.0L124.0 332.0L124.0 92.0C124.0 90.89543 124.89543 90.0 126.0 90.0L221.0 90.0C222.10457 90.0 223.0 90.89543 223.0 92.0Z" fill-rule="nonzero"/><path fill="#4a86e8" clip-path="url(#id_0)" d="M223.0 332.0L124.0 332.0L124.0 92.0C124.0 90.89543 124.89543 90.0 126.0 90.0L221.0 90.0C222.10457 90.0 223.0 90.89543 223.0 92.0Z" fill-rule="nonzero"/><path stroke="#000000" stroke-width="2.0" stroke-linecap="butt" stroke-opacity="0.0" clip-path="url(#id_0)" d="M376.0 332.0L277.0 332.0L277.0 332.0L376.0 332.0Z" fill-rule="nonzero"/><path fill="#4285f4" clip-path="url(#id_0)" d="M376.0 332.0L277.0 332.0L277.0 332.0L376.0 332.0Z" fill-rule="nonzero"/><path stroke="#000000" stroke-width="2.0" stroke-linecap="butt" stroke-opacity="0.0" clip-path="url(#id_0)" d="M528.0 332.0L429.0 332.0L429.0 142.0C429.0 140.89543 429.89542 140.0 431.0 140.0L526.0 140.0C527.10455 140.0 528.0 140.89543 528.0 142.0Z" fill-rule="nonzero"/><path fill="#4285f4" clip-path="url(#id_0)" d="M528.0 332.0L429.0 332.0L429.0 142.0C429.0 140.89543 429.89542 140.0 431.0 140.0L526.0 140.0C527.10455 140.0 528.0 140.89543 528.0 142.0Z" fill-rule="nonzero"/><path stroke="#4a86e8" stroke-width="3.0" stroke-linejoin="round" stroke-linecap="round" d="M155.26562 106.42794L154.1875 106.42794L154.1875 99.20919L152.0 100.006065L152.0 99.02169L155.10938 97.849815L155.26562 97.849815L155.26562 106.42794ZM162.26562 106.42794L161.1875 106.42794L161.1875 99.20919L159.0 100.006065L159.0 99.02169L162.10938 97.849815L162.26562 97.849815L162.26562 106.42794ZM171.29688 106.42794L165.70312 106.42794L165.70312 105.64669L168.65625 102.36544Q169.3125 101.61544 169.5625 101.162315Q169.8125 100.693565 169.8125 100.193565Q169.8125 99.52169 169.40625 99.099815Q169.01562 98.662315 168.32812 98.662315Q167.53125 98.662315 167.07812 99.131065Q166.625 99.58419 166.625 100.412315L165.54688 100.412315Q165.54688 99.224815 166.29688 98.506065Q167.0625 97.77169 168.32812 97.77169Q169.53125 97.77169 170.21875 98.39669Q170.90625 99.02169 170.90625 100.068565Q170.90625 101.318565 169.29688 103.068565L167.01562 105.537315L171.29688 105.537315L171.29688 106.42794ZM172.78125 108.131065L172.17188 107.70919Q172.71875 106.943565 172.75 106.11544L172.75 105.14669L173.8125 105.14669L173.8125 105.99044Q173.8125 106.58419 173.51562 107.17794Q173.21875 107.77169 172.78125 108.131065ZM178.26562 106.42794L177.1875 106.42794L177.1875 99.20919L175.0 100.006065L175.0 99.02169L178.10938 97.849815L178.26562 97.849815L178.26562 106.42794ZM185.85938 102.67794Q185.53125 103.08419 185.04688 103.33419Q184.57812 103.568565 184.01562 103.568565Q183.28125 103.568565 182.73438 103.20919Q182.1875 102.849815 181.89062 102.193565Q181.59375 101.52169 181.59375 100.724815Q181.59375 99.881065 181.90625 99.193565Q182.23438 98.506065 182.82812 98.14669Q183.4375 97.77169 184.23438 97.77169Q185.5 97.77169 186.21875 98.724815Q186.95312 99.67794 186.95312 101.30294L186.95312 101.61544Q186.95312 104.11544 185.96875 105.256065Q184.98438 106.39669 183.0 106.42794L182.78125 106.42794L182.78125 105.52169L183.01562 105.52169Q184.35938 105.49044 185.07812 104.818565Q185.79688 104.14669 185.85938 102.67794ZM184.1875 102.67794Q184.73438 102.67794 185.1875 102.349815Q185.65625 102.006065 185.875 101.52169L185.875 101.08419Q185.875 100.02169 185.40625 99.349815Q184.9375 98.67794 184.23438 98.67794Q183.51562 98.67794 183.07812 99.224815Q182.65625 99.77169 182.65625 100.67794Q182.65625 101.55294 183.0625 102.11544Q183.48438 102.67794 184.1875 102.67794ZM192.96875 97.89669L192.96875 98.80294L192.76562 98.80294Q191.5 98.83419 190.75 99.568565Q190.0 100.287315 189.875 101.599815Q190.5625 100.83419 191.71875 100.83419Q192.82812 100.83419 193.5 101.61544Q194.17188 102.39669 194.17188 103.64669Q194.17188 104.95919 193.45312 105.756065Q192.73438 106.55294 191.51562 106.55294Q190.29688 106.55294 189.53125 105.61544Q188.78125 104.662315 188.78125 103.17794L188.78125 102.77169Q188.78125 100.412315 189.78125 99.162315Q190.78125 97.912315 192.76562 97.89669L192.96875 97.89669ZM191.54688 101.74044Q190.98438 101.74044 190.51562 102.068565Q190.04688 102.39669 189.85938 102.912315L189.85938 103.30294Q189.85938 104.36544 190.32812 105.006065Q190.8125 105.64669 191.51562 105.64669Q192.25 105.64669 192.67188 105.11544Q193.09375 104.568565 193.09375 103.693565Q193.09375 102.818565 192.67188 102.287315Q192.25 101.74044 191.54688 101.74044Z" fill-rule="nonzero"/><path fill="#ffffff" d="M155.26562 106.42794L154.1875 106.42794L154.1875 99.20919L152.0 100.006065L152.0 99.02169L155.10938 97.849815L155.26562 97.849815L155.26562 106.42794ZM162.26562 106.42794L161.1875 106.42794L161.1875 99.20919L159.0 100.006065L159.0 99.02169L162.10938 97.849815L162.26562 97.849815L162.26562 106.42794ZM171.29688 106.42794L165.70312 106.42794L165.70312 105.64669L168.65625 102.36544Q169.3125 101.61544 169.5625 101.162315Q169.8125 100.693565 169.8125 100.193565Q169.8125 99.52169 169.40625 99.099815Q169.01562 98.662315 168.32812 98.662315Q167.53125 98.662315 167.07812 99.131065Q166.625 99.58419 166.625 100.412315L165.54688 100.412315Q165.54688 99.224815 166.29688 98.506065Q167.0625 97.77169 168.32812 97.77169Q169.53125 97.77169 170.21875 98.39669Q170.90625 99.02169 170.90625 100.068565Q170.90625 101.318565 169.29688 103.068565L167.01562 105.537315L171.29688 105.537315L171.29688 106.42794ZM172.78125 108.131065L172.17188 107.70919Q172.71875 106.943565 172.75 106.11544L172.75 105.14669L173.8125 105.14669L173.8125 105.99044Q173.8125 106.58419 173.51562 107.17794Q173.21875 107.77169 172.78125 108.131065ZM178.26562 106.42794L177.1875 106.42794L177.1875 99.20919L175.0 100.006065L175.0 99.02169L178.10938 97.849815L178.26562 97.849815L178.26562 106.42794ZM185.85938 102.67794Q185.53125 103.08419 185.04688 103.33419Q184.57812 103.568565 184.01562 103.568565Q183.28125 103.568565 182.73438 103.20919Q182.1875 102.849815 181.89062 102.193565Q181.59375 101.52169 181.59375 100.724815Q181.59375 99.881065 181.90625 99.193565Q182.23438 98.506065 182.82812 98.14669Q183.4375 97.77169 184.23438 97.77169Q185.5 97.77169 186.21875 98.724815Q186.95312 99.67794 186.95312 101.30294L186.95312 101.61544Q186.95312 104.11544 185.96875 105.256065Q184.98438 106.39669 183.0 106.42794L182.78125 106.42794L182.78125 105.52169L183.01562 105.52169Q184.35938 105.49044 185.07812 104.818565Q185.79688 104.14669 185.85938 102.67794ZM184.1875 102.67794Q184.73438 102.67794 185.1875 102.349815Q185.65625 102.006065 185.875 101.52169L185.875 101.08419Q185.875 100.02169 185.40625 99.349815Q184.9375 98.67794 184.23438 98.67794Q183.51562 98.67794 183.07812 99.224815Q182.65625 99.77169 182.65625 100.67794Q182.65625 101.55294 183.0625 102.11544Q183.48438 102.67794 184.1875 102.67794ZM192.96875 97.89669L192.96875 98.80294L192.76562 98.80294Q191.5 98.83419 190.75 99.568565Q190.0 100.287315 189.875 101.599815Q190.5625 100.83419 191.71875 100.83419Q192.82812 100.83419 193.5 101.61544Q194.17188 102.39669 194.17188 103.64669Q194.17188 104.95919 193.45312 105.756065Q192.73438 106.55294 191.51562 106.55294Q190.29688 106.55294 189.53125 105.61544Q188.78125 104.662315 188.78125 103.17794L188.78125 102.77169Q188.78125 100.412315 189.78125 99.162315Q190.78125 97.912315 192.76562 97.89669L192.96875 97.89669ZM191.54688 101.74044Q190.98438 101.74044 190.51562 102.068565Q190.04688 102.39669 189.85938 102.912315L189.85938 103.30294Q189.85938 104.36544 190.32812 105.006065Q190.8125 105.64669 191.51562 105.64669Q192.25 105.64669 192.67188 105.11544Q193.09375 104.568565 193.09375 103.693565Q193.09375 102.818565 192.67188 102.287315Q192.25 101.74044 191.54688 101.74044Z" fill-rule="nonzero"/><path stroke="#ffffff" stroke-width="3.0" stroke-linejoin="round" stroke-linecap="round" d="M328.5625 313.8094Q328.5625 315.71564 327.90625 316.65314Q327.26562 317.575 325.875 317.575Q324.51562 317.575 323.85938 316.66876Q323.20312 315.7625 323.17188 313.95L323.17188 312.5125Q323.17188 310.6219 323.8125 309.71564Q324.46875 308.79376 325.85938 308.79376Q327.23438 308.79376 327.89062 309.6844Q328.54688 310.5594 328.5625 312.40314L328.5625 313.8094ZM327.46875 312.325Q327.46875 310.95 327.07812 310.325Q326.70312 309.6844 325.85938 309.6844Q325.03125 309.6844 324.64062 310.325Q324.26562 310.95 324.26562 312.2469L324.26562 313.98126Q324.26562 315.35626 324.65625 316.02814Q325.0625 316.6844 325.875 316.6844Q326.67188 316.6844 327.0625 316.0594Q327.45312 315.4344 327.46875 314.10626L327.46875 312.325Z" fill-rule="nonzero"/><path fill="#4285f4" d="M328.5625 313.8094Q328.5625 315.71564 327.90625 316.65314Q327.26562 317.575 325.875 317.575Q324.51562 317.575 323.85938 316.66876Q323.20312 315.7625 323.17188 313.95L323.17188 312.5125Q323.17188 310.6219 323.8125 309.71564Q324.46875 308.79376 325.85938 308.79376Q327.23438 308.79376 327.89062 309.6844Q328.54688 310.5594 328.5625 312.40314L328.5625 313.8094ZM327.46875 312.325Q327.46875 310.95 327.07812 310.325Q326.70312 309.6844 325.85938 309.6844Q325.03125 309.6844 324.64062 310.325Q324.26562 310.95 324.26562 312.2469L324.26562 313.98126Q324.26562 315.35626 324.65625 316.02814Q325.0625 316.6844 325.875 316.6844Q326.67188 316.6844 327.0625 316.0594Q327.45312 315.4344 327.46875 314.10626L327.46875 312.325Z" fill-rule="nonzero"/><path stroke="#4285f4" stroke-width="3.0" stroke-linejoin="round" stroke-linecap="round" d="M465.39062 150.50822Q465.39062 151.14885 465.04688 151.64885Q464.70312 152.14885 464.14062 152.4301Q464.79688 152.71135 465.1875 153.27385Q465.57812 153.82072 465.57812 154.52385Q465.57812 155.6176 464.82812 156.28947Q464.09375 156.94572 462.875 156.94572Q461.64062 156.94572 460.89062 156.28947Q460.15625 155.6176 460.15625 154.52385Q460.15625 153.82072 460.53125 153.27385Q460.90625 152.71135 461.57812 152.4301Q461.01562 152.14885 460.6875 151.64885Q460.35938 151.14885 460.35938 150.50822Q460.35938 149.4301 461.04688 148.8051Q461.73438 148.16447 462.875 148.16447Q464.0 148.16447 464.6875 148.8051Q465.39062 149.4301 465.39062 150.50822ZM464.5 154.4926Q464.5 153.77385 464.04688 153.33635Q463.59375 152.88322 462.85938 152.88322Q462.125 152.88322 461.67188 153.33635Q461.23438 153.77385 461.23438 154.50822Q461.23438 155.22697 461.67188 155.64885Q462.10938 156.0551 462.875 156.0551Q463.625 156.0551 464.0625 155.63322Q464.5 155.21135 464.5 154.4926ZM462.875 149.0551Q462.23438 149.0551 461.82812 149.46135Q461.4375 149.85197 461.4375 150.53947Q461.4375 151.1801 461.82812 151.58635Q462.21875 151.9926 462.85938 151.9926Q463.51562 151.9926 463.90625 151.58635Q464.29688 151.1801 464.29688 150.53947Q464.29688 149.88322 463.89062 149.47697Q463.48438 149.0551 462.875 149.0551ZM472.39062 150.50822Q472.39062 151.14885 472.04688 151.64885Q471.70312 152.14885 471.14062 152.4301Q471.79688 152.71135 472.1875 153.27385Q472.57812 153.82072 472.57812 154.52385Q472.57812 155.6176 471.82812 156.28947Q471.09375 156.94572 469.875 156.94572Q468.64062 156.94572 467.89062 156.28947Q467.15625 155.6176 467.15625 154.52385Q467.15625 153.82072 467.53125 153.27385Q467.90625 152.71135 468.57812 152.4301Q468.01562 152.14885 467.6875 151.64885Q467.35938 151.14885 467.35938 150.50822Q467.35938 149.4301 468.04688 148.8051Q468.73438 148.16447 469.875 148.16447Q471.0 148.16447 471.6875 148.8051Q472.39062 149.4301 472.39062 150.50822ZM471.5 154.4926Q471.5 153.77385 471.04688 153.33635Q470.59375 152.88322 469.85938 152.88322Q469.125 152.88322 468.67188 153.33635Q468.23438 153.77385 468.23438 154.50822Q468.23438 155.22697 468.67188 155.64885Q469.10938 156.0551 469.875 156.0551Q470.625 156.0551 471.0625 155.63322Q471.5 155.21135 471.5 154.4926ZM469.875 149.0551Q469.23438 149.0551 468.82812 149.46135Q468.4375 149.85197 468.4375 150.53947Q468.4375 151.1801 468.82812 151.58635Q469.21875 151.9926 469.85938 151.9926Q470.51562 151.9926 470.90625 151.58635Q471.29688 151.1801 471.29688 150.53947Q471.29688 149.88322 470.89062 149.47697Q470.48438 149.0551 469.875 149.0551ZM474.28125 158.52385L473.67188 158.10197Q474.21875 157.33635 474.25 156.50822L474.25 155.53947L475.3125 155.53947L475.3125 156.38322Q475.3125 156.97697 475.01562 157.57072Q474.71875 158.16447 474.28125 158.52385ZM480.35938 153.07072Q480.03125 153.47697 479.54688 153.72697Q479.07812 153.96135 478.51562 153.96135Q477.78125 153.96135 477.23438 153.60197Q476.6875 153.2426 476.39062 152.58635Q476.09375 151.91447 476.09375 151.1176Q476.09375 150.27385 476.40625 149.58635Q476.73438 148.89885 477.32812 148.53947Q477.9375 148.16447 478.73438 148.16447Q480.0 148.16447 480.71875 149.1176Q481.45312 150.07072 481.45312 151.69572L481.45312 152.00822Q481.45312 154.50822 480.46875 155.64885Q479.48438 156.78947 477.5 156.82072L477.28125 156.82072L477.28125 155.91447L477.51562 155.91447Q478.85938 155.88322 479.57812 155.21135Q480.29688 154.53947 480.35938 153.07072ZM478.6875 153.07072Q479.23438 153.07072 479.6875 152.7426Q480.15625 152.39885 480.375 151.91447L480.375 151.47697Q480.375 150.41447 479.90625 149.7426Q479.4375 149.07072 478.73438 149.07072Q478.01562 149.07072 477.57812 149.6176Q477.15625 150.16447 477.15625 151.07072Q477.15625 151.94572 477.5625 152.50822Q477.98438 153.07072 478.6875 153.07072ZM486.76562 156.82072L485.6875 156.82072L485.6875 149.60197L483.5 150.39885L483.5 149.41447L486.60938 148.2426L486.76562 148.2426L486.76562 156.82072ZM495.79688 156.82072L490.20312 156.82072L490.20312 156.03947L493.15625 152.75822Q493.8125 152.00822 494.0625 151.5551Q494.3125 151.08635 494.3125 150.58635Q494.3125 149.91447 493.90625 149.4926Q493.51562 149.0551 492.82812 149.0551Q492.03125 149.0551 491.57812 149.52385Q491.125 149.97697 491.125 150.8051L490.04688 150.8051Q490.04688 149.6176 490.79688 148.89885Q491.5625 148.16447 492.82812 148.16447Q494.03125 148.16447 494.71875 148.78947Q495.40625 149.41447 495.40625 150.46135Q495.40625 151.71135 493.79688 153.46135L491.51562 155.9301L495.79688 155.9301L495.79688 156.82072Z" fill-rule="nonzero"/><path fill="#ffffff" d="M465.39062 150.50822Q465.39062 151.14885 465.04688 151.64885Q464.70312 152.14885 464.14062 152.4301Q464.79688 152.71135 465.1875 153.27385Q465.57812 153.82072 465.57812 154.52385Q465.57812 155.6176 464.82812 156.28947Q464.09375 156.94572 462.875 156.94572Q461.64062 156.94572 460.89062 156.28947Q460.15625 155.6176 460.15625 154.52385Q460.15625 153.82072 460.53125 153.27385Q460.90625 152.71135 461.57812 152.4301Q461.01562 152.14885 460.6875 151.64885Q460.35938 151.14885 460.35938 150.50822Q460.35938 149.4301 461.04688 148.8051Q461.73438 148.16447 462.875 148.16447Q464.0 148.16447 464.6875 148.8051Q465.39062 149.4301 465.39062 150.50822ZM464.5 154.4926Q464.5 153.77385 464.04688 153.33635Q463.59375 152.88322 462.85938 152.88322Q462.125 152.88322 461.67188 153.33635Q461.23438 153.77385 461.23438 154.50822Q461.23438 155.22697 461.67188 155.64885Q462.10938 156.0551 462.875 156.0551Q463.625 156.0551 464.0625 155.63322Q464.5 155.21135 464.5 154.4926ZM462.875 149.0551Q462.23438 149.0551 461.82812 149.46135Q461.4375 149.85197 461.4375 150.53947Q461.4375 151.1801 461.82812 151.58635Q462.21875 151.9926 462.85938 151.9926Q463.51562 151.9926 463.90625 151.58635Q464.29688 151.1801 464.29688 150.53947Q464.29688 149.88322 463.89062 149.47697Q463.48438 149.0551 462.875 149.0551ZM472.39062 150.50822Q472.39062 151.14885 472.04688 151.64885Q471.70312 152.14885 471.14062 152.4301Q471.79688 152.71135 472.1875 153.27385Q472.57812 153.82072 472.57812 154.52385Q472.57812 155.6176 471.82812 156.28947Q471.09375 156.94572 469.875 156.94572Q468.64062 156.94572 467.89062 156.28947Q467.15625 155.6176 467.15625 154.52385Q467.15625 153.82072 467.53125 153.27385Q467.90625 152.71135 468.57812 152.4301Q468.01562 152.14885 467.6875 151.64885Q467.35938 151.14885 467.35938 150.50822Q467.35938 149.4301 468.04688 148.8051Q468.73438 148.16447 469.875 148.16447Q471.0 148.16447 471.6875 148.8051Q472.39062 149.4301 472.39062 150.50822ZM471.5 154.4926Q471.5 153.77385 471.04688 153.33635Q470.59375 152.88322 469.85938 152.88322Q469.125 152.88322 468.67188 153.33635Q468.23438 153.77385 468.23438 154.50822Q468.23438 155.22697 468.67188 155.64885Q469.10938 156.0551 469.875 156.0551Q470.625 156.0551 471.0625 155.63322Q471.5 155.21135 471.5 154.4926ZM469.875 149.0551Q469.23438 149.0551 468.82812 149.46135Q468.4375 149.85197 468.4375 150.53947Q468.4375 151.1801 468.82812 151.58635Q469.21875 151.9926 469.85938 151.9926Q470.51562 151.9926 470.90625 151.58635Q471.29688 151.1801 471.29688 150.53947Q471.29688 149.88322 470.89062 149.47697Q470.48438 149.0551 469.875 149.0551ZM474.28125 158.52385L473.67188 158.10197Q474.21875 157.33635 474.25 156.50822L474.25 155.53947L475.3125 155.53947L475.3125 156.38322Q475.3125 156.97697 475.01562 157.57072Q474.71875 158.16447 474.28125 158.52385ZM480.35938 153.07072Q480.03125 153.47697 479.54688 153.72697Q479.07812 153.96135 478.51562 153.96135Q477.78125 153.96135 477.23438 153.60197Q476.6875 153.2426 476.39062 152.58635Q476.09375 151.91447 476.09375 151.1176Q476.09375 150.27385 476.40625 149.58635Q476.73438 148.89885 477.32812 148.53947Q477.9375 148.16447 478.73438 148.16447Q480.0 148.16447 480.71875 149.1176Q481.45312 150.07072 481.45312 151.69572L481.45312 152.00822Q481.45312 154.50822 480.46875 155.64885Q479.48438 156.78947 477.5 156.82072L477.28125 156.82072L477.28125 155.91447L477.51562 155.91447Q478.85938 155.88322 479.57812 155.21135Q480.29688 154.53947 480.35938 153.07072ZM478.6875 153.07072Q479.23438 153.07072 479.6875 152.7426Q480.15625 152.39885 480.375 151.91447L480.375 151.47697Q480.375 150.41447 479.90625 149.7426Q479.4375 149.07072 478.73438 149.07072Q478.01562 149.07072 477.57812 149.6176Q477.15625 150.16447 477.15625 151.07072Q477.15625 151.94572 477.5625 152.50822Q477.98438 153.07072 478.6875 153.07072ZM486.76562 156.82072L485.6875 156.82072L485.6875 149.60197L483.5 150.39885L483.5 149.41447L486.60938 148.2426L486.76562 148.2426L486.76562 156.82072ZM495.79688 156.82072L490.20312 156.82072L490.20312 156.03947L493.15625 152.75822Q493.8125 152.00822 494.0625 151.5551Q494.3125 151.08635 494.3125 150.58635Q494.3125 149.91447 493.90625 149.4926Q493.51562 149.0551 492.82812 149.0551Q492.03125 149.0551 491.57812 149.52385Q491.125 149.97697 491.125 150.8051L490.04688 150.8051Q490.04688 149.6176 490.79688 148.89885Q491.5625 148.16447 492.82812 148.16447Q494.03125 148.16447 494.71875 148.78947Q495.40625 149.41447 495.40625 150.46135Q495.40625 151.71135 493.79688 153.46135L491.51562 155.9301L495.79688 155.9301L495.79688 156.82072Z" fill-rule="nonzero"/><path fill="#000000" d="M57.05 332.21564Q57.05 330.6844 57.3625 329.7625Q57.675 328.825 58.284374 328.325Q58.909374 327.825 59.846874 327.825Q60.534374 327.825 61.05 328.10626Q61.58125 328.3875 61.925 328.91876Q62.26875 329.4344 62.45625 330.1844Q62.64375 330.9344 62.64375 332.21564Q62.64375 333.73126 62.33125 334.65314Q62.034374 335.575 61.409374 336.09064Q60.8 336.59064 59.846874 336.59064Q58.6125 336.59064 57.89375 335.7Q57.05 334.6375 57.05 332.21564ZM58.128124 332.21564Q58.128124 334.325 58.628124 335.02814Q59.128124 335.73126 59.846874 335.73126Q60.58125 335.73126 61.065624 335.02814Q61.565624 334.325 61.565624 332.21564Q61.565624 330.09064 61.065624 329.40314Q60.58125 328.7 59.83125 328.7Q59.1125 328.7 58.675 329.3094Q58.128124 330.09064 58.128124 332.21564Z" fill-rule="nonzero"/><path fill="#000000" d="M31.596874 281.3277L31.596874 282.34332L25.909374 282.34332Q25.909374 281.96832 26.034374 281.60895Q26.253124 281.03082 26.721874 280.46832Q27.20625 279.90582 28.1125 279.17145Q29.51875 278.0152 30.003124 277.34332Q30.503124 276.67145 30.503124 276.0777Q30.503124 275.4527 30.05 275.03082Q29.596874 274.59332 28.878124 274.59332Q28.1125 274.59332 27.659374 275.04645Q27.20625 275.49957 27.190624 276.31207L26.1125 276.2027Q26.221874 274.98395 26.940624 274.35895Q27.675 273.71832 28.909374 273.71832Q30.14375 273.71832 30.8625 274.40582Q31.58125 275.09332 31.58125 276.10895Q31.58125 276.62457 31.3625 277.12457Q31.159374 277.60895 30.659374 278.17145Q30.175 278.71832 29.05 279.67145Q28.096874 280.46832 27.815624 280.7652Q27.55 281.04645 27.378124 281.3277L31.596874 281.3277ZM33.05 280.09332L34.159374 279.99957Q34.284374 280.81207 34.721874 281.21832Q35.175 281.62457 35.815624 281.62457Q36.565624 281.62457 37.096874 281.04645Q37.628124 280.46832 37.628124 279.53082Q37.628124 278.62457 37.1125 278.10895Q36.6125 277.5777 35.784374 277.5777Q35.284374 277.5777 34.8625 277.81207Q34.45625 278.04645 34.221874 278.40582L33.2375 278.28082L34.065624 273.87457L38.346874 273.87457L38.346874 274.87457L34.909374 274.87457L34.45625 277.18707Q35.221874 276.6402 36.065624 276.6402Q37.190624 276.6402 37.95625 277.42145Q38.7375 278.2027 38.7375 279.43707Q38.7375 280.59332 38.065624 281.4527Q37.2375 282.48395 35.815624 282.48395Q34.64375 282.48395 33.89375 281.8277Q33.159374 281.17145 33.05 280.09332ZM40.6125 282.34332L40.6125 281.1402L41.815624 281.1402L41.815624 282.34332Q41.815624 282.99957 41.58125 283.40582Q41.346874 283.8277 40.846874 284.04645L40.55 283.59332Q40.878124 283.4527 41.034374 283.15582Q41.190624 282.87457 41.221874 282.34332L40.6125 282.34332ZM43.05 278.10895Q43.05 276.5777 43.3625 275.65582Q43.675 274.71832 44.284374 274.21832Q44.909374 273.71832 45.846874 273.71832Q46.534374 273.71832 47.05 273.99957Q47.58125 274.28082 47.925 274.81207Q48.26875 275.3277 48.45625 276.0777Q48.64375 276.8277 48.64375 278.10895Q48.64375 279.62457 48.33125 280.54645Q48.034374 281.46832 47.409374 281.98395Q46.8 282.48395 45.846874 282.48395Q44.6125 282.48395 43.89375 281.59332Q43.05 280.53082 43.05 278.10895ZM44.128124 278.10895Q44.128124 280.21832 44.628124 280.92145Q45.128124 281.62457 45.846874 281.62457Q46.58125 281.62457 47.065624 280.92145Q47.565624 280.21832 47.565624 278.10895Q47.565624 275.98395 47.065624 275.29645Q46.58125 274.59332 45.83125 274.59332Q45.1125 274.59332 44.675 275.2027Q44.128124 275.98395 44.128124 278.10895ZM50.05 278.10895Q50.05 276.5777 50.3625 275.65582Q50.675 274.71832 51.284374 274.21832Q51.909374 273.71832 52.846874 273.71832Q53.534374 273.71832 54.05 273.99957Q54.58125 274.28082 54.925 274.81207Q55.26875 275.3277 55.45625 276.0777Q55.64375 276.8277 55.64375 278.10895Q55.64375 279.62457 55.33125 280.54645Q55.034374 281.46832 54.409374 281.98395Q53.8 282.48395 52.846874 282.48395Q51.6125 282.48395 50.89375 281.59332Q50.05 280.53082 50.05 278.10895ZM51.128124 278.10895Q51.128124 280.21832 51.628124 280.92145Q52.128124 281.62457 52.846874 281.62457Q53.58125 281.62457 54.065624 280.92145Q54.565624 280.21832 54.565624 278.10895Q54.565624 275.98395 54.065624 275.29645Q53.58125 274.59332 52.83125 274.59332Q52.1125 274.59332 51.675 275.2027Q51.128124 275.98395 51.128124 278.10895ZM57.05 278.10895Q57.05 276.5777 57.3625 275.65582Q57.675 274.71832 58.284374 274.21832Q58.909374 273.71832 59.846874 273.71832Q60.534374 273.71832 61.05 273.99957Q61.58125 274.28082 61.925 274.81207Q62.26875 275.3277 62.45625 276.0777Q62.64375 276.8277 62.64375 278.10895Q62.64375 279.62457 62.33125 280.54645Q62.034374 281.46832 61.409374 281.98395Q60.8 282.48395 59.846874 282.48395Q58.6125 282.48395 57.89375 281.59332Q57.05 280.53082 57.05 278.10895ZM58.128124 278.10895Q58.128124 280.21832 58.628124 280.92145Q59.128124 281.62457 59.846874 281.62457Q60.58125 281.62457 61.065624 280.92145Q61.565624 280.21832 61.565624 278.10895Q61.565624 275.98395 61.065624 275.29645Q60.58125 274.59332 59.83125 274.59332Q59.1125 274.59332 58.675 275.2027Q58.128124 275.98395 58.128124 278.10895Z" fill-rule="nonzero"/><path fill="#000000" d="M26.05 225.98666L27.159374 225.89291Q27.284374 226.70541 27.721874 227.11166Q28.175 227.51791 28.815624 227.51791Q29.565624 227.51791 30.096874 226.93979Q30.628124 226.36166 30.628124 225.42416Q30.628124 224.51791 30.1125 224.00229Q29.6125 223.47104 28.784374 223.47104Q28.284374 223.47104 27.8625 223.70541Q27.45625 223.93979 27.221874 224.29916L26.2375 224.17416L27.065624 219.76791L31.346874 219.76791L31.346874 220.76791L27.909374 220.76791L27.45625 223.08041Q28.221874 222.53354 29.065624 222.53354Q30.190624 222.53354 30.95625 223.31479Q31.7375 224.09604 31.7375 225.33041Q31.7375 226.48666 31.065624 227.34604Q30.2375 228.37729 28.815624 228.37729Q27.64375 228.37729 26.89375 227.72104Q26.159374 227.06479 26.05 225.98666ZM33.05 224.00229Q33.05 222.47104 33.3625 221.54916Q33.675 220.61166 34.284374 220.11166Q34.909374 219.61166 35.846874 219.61166Q36.534374 219.61166 37.05 219.89291Q37.58125 220.17416 37.925 220.70541Q38.26875 221.22104 38.45625 221.97104Q38.64375 222.72104 38.64375 224.00229Q38.64375 225.51791 38.33125 226.43979Q38.034374 227.36166 37.409374 227.87729Q36.8 228.37729 35.846874 228.37729Q34.6125 228.37729 33.89375 227.48666Q33.05 226.42416 33.05 224.00229ZM34.128124 224.00229Q34.128124 226.11166 34.628124 226.81479Q35.128124 227.51791 35.846874 227.51791Q36.58125 227.51791 37.065624 226.81479Q37.565624 226.11166 37.565624 224.00229Q37.565624 221.87729 37.065624 221.18979Q36.58125 220.48666 35.83125 220.48666Q35.1125 220.48666 34.675 221.09604Q34.128124 221.87729 34.128124 224.00229ZM40.6125 228.23666L40.6125 227.03354L41.815624 227.03354L41.815624 228.23666Q41.815624 228.89291 41.58125 229.29916Q41.346874 229.72104 40.846874 229.93979L40.55 229.48666Q40.878124 229.34604 41.034374 229.04916Q41.190624 228.76791 41.221874 228.23666L40.6125 228.23666ZM43.05 224.00229Q43.05 222.47104 43.3625 221.54916Q43.675 220.61166 44.284374 220.11166Q44.909374 219.61166 45.846874 219.61166Q46.534374 219.61166 47.05 219.89291Q47.58125 220.17416 47.925 220.70541Q48.26875 221.22104 48.45625 221.97104Q48.64375 222.72104 48.64375 224.00229Q48.64375 225.51791 48.33125 226.43979Q48.034374 227.36166 47.409374 227.87729Q46.8 228.37729 45.846874 228.37729Q44.6125 228.37729 43.89375 227.48666Q43.05 226.42416 43.05 224.00229ZM44.128124 224.00229Q44.128124 226.11166 44.628124 226.81479Q45.128124 227.51791 45.846874 227.51791Q46.58125 227.51791 47.065624 226.81479Q47.565624 226.11166 47.565624 224.00229Q47.565624 221.87729 47.065624 221.18979Q46.58125 220.48666 45.83125 220.48666Q45.1125 220.48666 44.675 221.09604Q44.128124 221.87729 44.128124 224.00229ZM50.05 224.00229Q50.05 222.47104 50.3625 221.54916Q50.675 220.61166 51.284374 220.11166Q51.909374 219.61166 52.846874 219.61166Q53.534374 219.61166 54.05 219.89291Q54.58125 220.17416 54.925 220.70541Q55.26875 221.22104 55.45625 221.97104Q55.64375 222.72104 55.64375 224.00229Q55.64375 225.51791 55.33125 226.43979Q55.034374 227.36166 54.409374 227.87729Q53.8 228.37729 52.846874 228.37729Q51.6125 228.37729 50.89375 227.48666Q50.05 226.42416 50.05 224.00229ZM51.128124 224.00229Q51.128124 226.11166 51.628124 226.81479Q52.128124 227.51791 52.846874 227.51791Q53.58125 227.51791 54.065624 226.81479Q54.565624 226.11166 54.565624 224.00229Q54.565624 221.87729 54.065624 221.18979Q53.58125 220.48666 52.83125 220.48666Q52.1125 220.48666 51.675 221.09604Q51.128124 221.87729 51.128124 224.00229ZM57.05 224.00229Q57.05 222.47104 57.3625 221.54916Q57.675 220.61166 58.284374 220.11166Q58.909374 219.61166 59.846874 219.61166Q60.534374 219.61166 61.05 219.89291Q61.58125 220.17416 61.925 220.70541Q62.26875 221.22104 62.45625 221.97104Q62.64375 222.72104 62.64375 224.00229Q62.64375 225.51791 62.33125 226.43979Q62.034374 227.36166 61.409374 227.87729Q60.8 228.37729 59.846874 228.37729Q58.6125 228.37729 57.89375 227.48666Q57.05 226.42416 57.05 224.00229ZM58.128124 224.00229Q58.128124 226.11166 58.628124 226.81479Q59.128124 227.51791 59.846874 227.51791Q60.58125 227.51791 61.065624 226.81479Q61.565624 226.11166 61.565624 224.00229Q61.565624 221.87729 61.065624 221.18979Q60.58125 220.48666 59.83125 220.48666Q59.1125 220.48666 58.675 221.09604Q58.128124 221.87729 58.128124 224.00229Z" fill-rule="nonzero"/><path fill="#000000" d="M26.1125 166.66125L26.1125 165.64563L31.675 165.64563L31.675 166.47375Q30.8625 167.34875 30.05 168.80188Q29.253124 170.23938 28.815624 171.77063Q28.4875 172.84875 28.409374 174.13L27.315624 174.13Q27.33125 173.11438 27.70625 171.67688Q28.096874 170.23938 28.8 168.91125Q29.51875 167.58313 30.33125 166.66125L26.1125 166.66125ZM33.05 171.88L34.159374 171.78625Q34.284374 172.59875 34.721874 173.005Q35.175 173.41125 35.815624 173.41125Q36.565624 173.41125 37.096874 172.83313Q37.628124 172.255 37.628124 171.3175Q37.628124 170.41125 37.1125 169.89563Q36.6125 169.36438 35.784374 169.36438Q35.284374 169.36438 34.8625 169.59875Q34.45625 169.83313 34.221874 170.1925L33.2375 170.0675L34.065624 165.66125L38.346874 165.66125L38.346874 166.66125L34.909374 166.66125L34.45625 168.97375Q35.221874 168.42688 36.065624 168.42688Q37.190624 168.42688 37.95625 169.20813Q38.7375 169.98938 38.7375 171.22375Q38.7375 172.38 38.065624 173.23938Q37.2375 174.27063 35.815624 174.27063Q34.64375 174.27063 33.89375 173.61438Q33.159374 172.95813 33.05 171.88ZM40.6125 174.13L40.6125 172.92688L41.815624 172.92688L41.815624 174.13Q41.815624 174.78625 41.58125 175.1925Q41.346874 175.61438 40.846874 175.83313L40.55 175.38Q40.878124 175.23938 41.034374 174.9425Q41.190624 174.66125 41.221874 174.13L40.6125 174.13ZM43.05 169.89563Q43.05 168.36438 43.3625 167.4425Q43.675 166.505 44.284374 166.005Q44.909374 165.505 45.846874 165.505Q46.534374 165.505 47.05 165.78625Q47.58125 166.0675 47.925 166.59875Q48.26875 167.11438 48.45625 167.86438Q48.64375 168.61438 48.64375 169.89563Q48.64375 171.41125 48.33125 172.33313Q48.034374 173.255 47.409374 173.77063Q46.8 174.27063 45.846874 174.27063Q44.6125 174.27063 43.89375 173.38Q43.05 172.3175 43.05 169.89563ZM44.128124 169.89563Q44.128124 172.005 44.628124 172.70813Q45.128124 173.41125 45.846874 173.41125Q46.58125 173.41125 47.065624 172.70813Q47.565624 172.005 47.565624 169.89563Q47.565624 167.77063 47.065624 167.08313Q46.58125 166.38 45.83125 166.38Q45.1125 166.38 44.675 166.98938Q44.128124 167.77063 44.128124 169.89563ZM50.05 169.89563Q50.05 168.36438 50.3625 167.4425Q50.675 166.505 51.284374 166.005Q51.909374 165.505 52.846874 165.505Q53.534374 165.505 54.05 165.78625Q54.58125 166.0675 54.925 166.59875Q55.26875 167.11438 55.45625 167.86438Q55.64375 168.61438 55.64375 169.89563Q55.64375 171.41125 55.33125 172.33313Q55.034374 173.255 54.409374 173.77063Q53.8 174.27063 52.846874 174.27063Q51.6125 174.27063 50.89375 173.38Q50.05 172.3175 50.05 169.89563ZM51.128124 169.89563Q51.128124 172.005 51.628124 172.70813Q52.128124 173.41125 52.846874 173.41125Q53.58125 173.41125 54.065624 172.70813Q54.565624 172.005 54.565624 169.89563Q54.565624 167.77063 54.065624 167.08313Q53.58125 166.38 52.83125 166.38Q52.1125 166.38 51.675 166.98938Q51.128124 167.77063 51.128124 169.89563ZM57.05 169.89563Q57.05 168.36438 57.3625 167.4425Q57.675 166.505 58.284374 166.005Q58.909374 165.505 59.846874 165.505Q60.534374 165.505 61.05 165.78625Q61.58125 166.0675 61.925 166.59875Q62.26875 167.11438 62.45625 167.86438Q62.64375 168.61438 62.64375 169.89563Q62.64375 171.41125 62.33125 172.33313Q62.034374 173.255 61.409374 173.77063Q60.8 174.27063 59.846874 174.27063Q58.6125 174.27063 57.89375 173.38Q57.05 172.3175 57.05 169.89563ZM58.128124 169.89563Q58.128124 172.005 58.628124 172.70813Q59.128124 173.41125 59.846874 173.41125Q60.58125 173.41125 61.065624 172.70813Q61.565624 172.005 61.565624 169.89563Q61.565624 167.77063 61.065624 167.08313Q60.58125 166.38 59.83125 166.38Q59.1125 166.38 58.675 166.98938Q58.128124 167.77063 58.128124 169.89563Z" fill-rule="nonzero"/><path fill="#000000" d="M23.01875 120.02333L21.971874 120.02333L21.971874 113.30458Q21.58125 113.663956 20.95625 114.038956Q20.346874 114.39833 19.8625 114.570206L19.8625 113.55458Q20.7375 113.132706 21.39375 112.55458Q22.065624 111.96083 22.346874 111.39833L23.01875 111.39833L23.01875 120.02333ZM26.05 115.788956Q26.05 114.257706 26.3625 113.33583Q26.675 112.39833 27.284374 111.89833Q27.909374 111.39833 28.846874 111.39833Q29.534374 111.39833 30.05 111.67958Q30.58125 111.96083 30.925 112.49208Q31.26875 113.007706 31.45625 113.757706Q31.64375 114.507706 31.64375 115.788956Q31.64375 117.30458 31.33125 118.226456Q31.034374 119.14833 30.409374 119.663956Q29.8 120.163956 28.846874 120.163956Q27.6125 120.163956 26.89375 119.27333Q26.05 118.21083 26.05 115.788956ZM27.128124 115.788956Q27.128124 117.89833 27.628124 118.601456Q28.128124 119.30458 28.846874 119.30458Q29.58125 119.30458 30.065624 118.601456Q30.565624 117.89833 30.565624 115.788956Q30.565624 113.663956 30.065624 112.976456Q29.58125 112.27333 28.83125 112.27333Q28.1125 112.27333 27.675 112.882706Q27.128124 113.663956 27.128124 115.788956ZM33.05 115.788956Q33.05 114.257706 33.3625 113.33583Q33.675 112.39833 34.284374 111.89833Q34.909374 111.39833 35.846874 111.39833Q36.534374 111.39833 37.05 111.67958Q37.58125 111.96083 37.925 112.49208Q38.26875 113.007706 38.45625 113.757706Q38.64375 114.507706 38.64375 115.788956Q38.64375 117.30458 38.33125 118.226456Q38.034374 119.14833 37.409374 119.663956Q36.8 120.163956 35.846874 120.163956Q34.6125 120.163956 33.89375 119.27333Q33.05 118.21083 33.05 115.788956ZM34.128124 115.788956Q34.128124 117.89833 34.628124 118.601456Q35.128124 119.30458 35.846874 119.30458Q36.58125 119.30458 37.065624 118.601456Q37.565624 117.89833 37.565624 115.788956Q37.565624 113.663956 37.065624 112.976456Q36.58125 112.27333 35.83125 112.27333Q35.1125 112.27333 34.675 112.882706Q34.128124 113.663956 34.128124 115.788956ZM40.6125 120.02333L40.6125 118.820206L41.815624 118.820206L41.815624 120.02333Q41.815624 120.67958 41.58125 121.08583Q41.346874 121.507706 40.846874 121.726456L40.55 121.27333Q40.878124 121.132706 41.034374 120.83583Q41.190624 120.55458 41.221874 120.02333L40.6125 120.02333ZM43.05 115.788956Q43.05 114.257706 43.3625 113.33583Q43.675 112.39833 44.284374 111.89833Q44.909374 111.39833 45.846874 111.39833Q46.534374 111.39833 47.05 111.67958Q47.58125 111.96083 47.925 112.49208Q48.26875 113.007706 48.45625 113.757706Q48.64375 114.507706 48.64375 115.788956Q48.64375 117.30458 48.33125 118.226456Q48.034374 119.14833 47.409374 119.663956Q46.8 120.163956 45.846874 120.163956Q44.6125 120.163956 43.89375 119.27333Q43.05 118.21083 43.05 115.788956ZM44.128124 115.788956Q44.128124 117.89833 44.628124 118.601456Q45.128124 119.30458 45.846874 119.30458Q46.58125 119.30458 47.065624 118.601456Q47.565624 117.89833 47.565624 115.788956Q47.565624 113.663956 47.065624 112.976456Q46.58125 112.27333 45.83125 112.27333Q45.1125 112.27333 44.675 112.882706Q44.128124 113.663956 44.128124 115.788956ZM50.05 115.788956Q50.05 114.257706 50.3625 113.33583Q50.675 112.39833 51.284374 111.89833Q51.909374 111.39833 52.846874 111.39833Q53.534374 111.39833 54.05 111.67958Q54.58125 111.96083 54.925 112.49208Q55.26875 113.007706 55.45625 113.757706Q55.64375 114.507706 55.64375 115.788956Q55.64375 117.30458 55.33125 118.226456Q55.034374 119.14833 54.409374 119.663956Q53.8 120.163956 52.846874 120.163956Q51.6125 120.163956 50.89375 119.27333Q50.05 118.21083 50.05 115.788956ZM51.128124 115.788956Q51.128124 117.89833 51.628124 118.601456Q52.128124 119.30458 52.846874 119.30458Q53.58125 119.30458 54.065624 118.601456Q54.565624 117.89833 54.565624 115.788956Q54.565624 113.663956 54.065624 112.976456Q53.58125 112.27333 52.83125 112.27333Q52.1125 112.27333 51.675 112.882706Q51.128124 113.663956 51.128124 115.788956ZM57.05 115.788956Q57.05 114.257706 57.3625 113.33583Q57.675 112.39833 58.284374 111.89833Q58.909374 111.39833 59.846874 111.39833Q60.534374 111.39833 61.05 111.67958Q61.58125 111.96083 61.925 112.49208Q62.26875 113.007706 62.45625 113.757706Q62.64375 114.507706 62.64375 115.788956Q62.64375 117.30458 62.33125 118.226456Q62.034374 119.14833 61.409374 119.663956Q60.8 120.163956 59.846874 120.163956Q58.6125 120.163956 57.89375 119.27333Q57.05 118.21083 57.05 115.788956ZM58.128124 115.788956Q58.128124 117.89833 58.628124 118.601456Q59.128124 119.30458 59.846874 119.30458Q60.58125 119.30458 61.065624 118.601456Q61.565624 117.89833 61.565624 115.788956Q61.565624 113.663956 61.065624 112.976456Q60.58125 112.27333 59.83125 112.27333Q59.1125 112.27333 58.675 112.882706Q58.128124 113.663956 58.128124 115.788956Z" fill-rule="nonzero"/><path fill="#000000" d="M23.01875 65.916664L21.971874 65.916664L21.971874 59.197914Q21.58125 59.55729 20.95625 59.93229Q20.346874 60.291664 19.8625 60.46354L19.8625 59.447914Q20.7375 59.02604 21.39375 58.447914Q22.065624 57.854164 22.346874 57.291664L23.01875 57.291664L23.01875 65.916664ZM31.596874 64.90104L31.596874 65.916664L25.909374 65.916664Q25.909374 65.541664 26.034374 65.18229Q26.253124 64.604164 26.721874 64.041664Q27.20625 63.479164 28.1125 62.74479Q29.51875 61.58854 30.003124 60.916664Q30.503124 60.24479 30.503124 59.65104Q30.503124 59.02604 30.05 58.604164Q29.596874 58.166664 28.878124 58.166664Q28.1125 58.166664 27.659374 58.61979Q27.20625 59.072914 27.190624 59.885414L26.1125 59.77604Q26.221874 58.55729 26.940624 57.93229Q27.675 57.291664 28.909374 57.291664Q30.14375 57.291664 30.8625 57.979164Q31.58125 58.666664 31.58125 59.68229Q31.58125 60.197914 31.3625 60.697914Q31.159374 61.18229 30.659374 61.74479Q30.175 62.291664 29.05 63.24479Q28.096874 64.041664 27.815624 64.33854Q27.55 64.61979 27.378124 64.90104L31.596874 64.90104ZM33.05 63.666664L34.159374 63.572914Q34.284374 64.385414 34.721874 64.791664Q35.175 65.197914 35.815624 65.197914Q36.565624 65.197914 37.096874 64.61979Q37.628124 64.041664 37.628124 63.104164Q37.628124 62.197914 37.1125 61.68229Q36.6125 61.15104 35.784374 61.15104Q35.284374 61.15104 34.8625 61.385414Q34.45625 61.61979 34.221874 61.979164L33.2375 61.854164L34.065624 57.447914L38.346874 57.447914L38.346874 58.447914L34.909374 58.447914L34.45625 60.760414Q35.221874 60.21354 36.065624 60.21354Q37.190624 60.21354 37.95625 60.99479Q38.7375 61.77604 38.7375 63.010414Q38.7375 64.166664 38.065624 65.02604Q37.2375 66.05729 35.815624 66.05729Q34.64375 66.05729 33.89375 65.40104Q33.159374 64.74479 33.05 63.666664ZM40.6125 65.916664L40.6125 64.71354L41.815624 64.71354L41.815624 65.916664Q41.815624 66.572914 41.58125 66.979164Q41.346874 67.40104 40.846874 67.61979L40.55 67.166664Q40.878124 67.02604 41.034374 66.729164Q41.190624 66.447914 41.221874 65.916664L40.6125 65.916664ZM43.05 61.68229Q43.05 60.15104 43.3625 59.229164Q43.675 58.291664 44.284374 57.791664Q44.909374 57.291664 45.846874 57.291664Q46.534374 57.291664 47.05 57.572914Q47.58125 57.854164 47.925 58.385414Q48.26875 58.90104 48.45625 59.65104Q48.64375 60.40104 48.64375 61.68229Q48.64375 63.197914 48.33125 64.11979Q48.034374 65.041664 47.409374 65.55729Q46.8 66.05729 45.846874 66.05729Q44.6125 66.05729 43.89375 65.166664Q43.05 64.104164 43.05 61.68229ZM44.128124 61.68229Q44.128124 63.791664 44.628124 64.49479Q45.128124 65.197914 45.846874 65.197914Q46.58125 65.197914 47.065624 64.49479Q47.565624 63.791664 47.565624 61.68229Q47.565624 59.55729 47.065624 58.86979Q46.58125 58.166664 45.83125 58.166664Q45.1125 58.166664 44.675 58.77604Q44.128124 59.55729 44.128124 61.68229ZM50.05 61.68229Q50.05 60.15104 50.3625 59.229164Q50.675 58.291664 51.284374 57.791664Q51.909374 57.291664 52.846874 57.291664Q53.534374 57.291664 54.05 57.572914Q54.58125 57.854164 54.925 58.385414Q55.26875 58.90104 55.45625 59.65104Q55.64375 60.40104 55.64375 61.68229Q55.64375 63.197914 55.33125 64.11979Q55.034374 65.041664 54.409374 65.55729Q53.8 66.05729 52.846874 66.05729Q51.6125 66.05729 50.89375 65.166664Q50.05 64.104164 50.05 61.68229ZM51.128124 61.68229Q51.128124 63.791664 51.628124 64.49479Q52.128124 65.197914 52.846874 65.197914Q53.58125 65.197914 54.065624 64.49479Q54.565624 63.791664 54.565624 61.68229Q54.565624 59.55729 54.065624 58.86979Q53.58125 58.166664 52.83125 58.166664Q52.1125 58.166664 51.675 58.77604Q51.128124 59.55729 51.128124 61.68229ZM57.05 61.68229Q57.05 60.15104 57.3625 59.229164Q57.675 58.291664 58.284374 57.791664Q58.909374 57.291664 59.846874 57.291664Q60.534374 57.291664 61.05 57.572914Q61.58125 57.854164 61.925 58.385414Q62.26875 58.90104 62.45625 59.65104Q62.64375 60.40104 62.64375 61.68229Q62.64375 63.197914 62.33125 64.11979Q62.034374 65.041664 61.409374 65.55729Q60.8 66.05729 59.846874 66.05729Q58.6125 66.05729 57.89375 65.166664Q57.05 64.104164 57.05 61.68229ZM58.128124 61.68229Q58.128124 63.791664 58.628124 64.49479Q59.128124 65.197914 59.846874 65.197914Q60.58125 65.197914 61.065624 64.49479Q61.565624 63.791664 61.565624 61.68229Q61.565624 59.55729 61.065624 58.86979Q60.58125 58.166664 59.83125 58.166664Q59.1125 58.166664 58.675 58.77604Q58.128124 59.55729 58.128124 61.68229Z" fill-rule="nonzero"/><path fill="#000000" d="M106.178406 349.45L109.47528 340.85626L110.69403 340.85626L114.209656 349.45L112.928406 349.45L111.91278 346.84064L108.334656 346.84064L107.38153 349.45L106.178406 349.45ZM108.66278 345.91876L111.56903 345.91876L110.678406 343.54376Q110.25653 342.46564 110.06903 341.7625Q109.897156 342.59064 109.60028 343.40314L108.66278 345.91876ZM114.084656 349.45L114.084656 340.85626L115.803406 340.85626L117.834656 346.9344Q118.115906 347.79376 118.240906 348.21564Q118.38153 347.7469 118.69403 346.84064L120.75653 340.85626L122.28778 340.85626L122.28778 349.45L121.19403 349.45L121.19403 342.2625L118.69403 349.45L117.66278 349.45L115.178406 342.1375L115.178406 349.45L114.084656 349.45ZM129.63153 348.52814Q130.4284 349.075 131.08466 349.325L130.75653 350.1219Q129.83466 349.77814 128.91278 349.0594Q127.959656 349.59064 126.803406 349.59064Q125.63153 349.59064 124.678406 349.02814Q123.740906 348.46564 123.22528 347.45Q122.709656 346.4344 122.709656 345.15314Q122.709656 343.8875 123.22528 342.84064Q123.740906 341.79376 124.69403 341.2469Q125.647156 340.7 126.81903 340.7Q128.00653 340.7 128.95966 341.27814Q129.9284 341.84064 130.4284 342.85626Q130.9284 343.8719 130.9284 345.15314Q130.9284 346.21564 130.60028 347.0594Q130.28778 347.90314 129.63153 348.52814ZM127.13153 347.075Q128.1159 347.35626 128.75653 347.90314Q129.75653 346.98126 129.75653 345.15314Q129.75653 344.10626 129.39716 343.325Q129.03778 342.54376 128.35028 342.1219Q127.678406 341.6844 126.834656 341.6844Q125.553406 341.6844 124.709656 342.5594Q123.88153 343.41876 123.88153 345.15314Q123.88153 346.825 124.709656 347.73126Q125.53778 348.6219 126.834656 348.6219Q127.44403 348.6219 127.97528 348.3875Q127.44403 348.04376 126.85028 347.90314L127.13153 347.075ZM132.1159 349.45L132.1159 340.85626L135.3659 340.85626Q136.20966 340.85626 136.66278 340.9344Q137.3034 341.04376 137.72528 341.34064Q138.16278 341.6375 138.41278 342.16876Q138.6784 342.7 138.6784 343.34064Q138.6784 344.4344 137.97528 345.2Q137.28778 345.95 135.45966 345.95L133.25653 345.95L133.25653 349.45L132.1159 349.45ZM133.25653 344.95L135.47528 344.95Q136.58466 344.95 137.03778 344.54376Q137.50653 344.1219 137.50653 343.3719Q137.50653 342.84064 137.22528 342.46564Q136.95966 342.075 136.52216 341.95Q136.22528 341.8719 135.45966 341.8719L133.25653 341.8719L133.25653 344.95ZM146.66278 349.45L145.6159 349.45L145.6159 342.73126Q145.22528 343.09064 144.60028 343.46564Q143.9909 343.825 143.50653 343.9969L143.50653 342.98126Q144.38153 342.5594 145.03778 341.98126Q145.70966 341.3875 145.9909 340.825L146.66278 340.825L146.66278 349.45ZM150.28778 349.45L150.28778 348.2469L151.4909 348.2469L151.4909 349.45L150.28778 349.45ZM152.69403 345.21564Q152.69403 343.6844 153.00653 342.7625Q153.31903 341.825 153.9284 341.325Q154.5534 340.825 155.4909 340.825Q156.1784 340.825 156.69403 341.10626Q157.22528 341.3875 157.56903 341.91876Q157.91278 342.4344 158.10028 343.1844Q158.28778 343.9344 158.28778 345.21564Q158.28778 346.73126 157.97528 347.65314Q157.6784 348.575 157.0534 349.09064Q156.44403 349.59064 155.4909 349.59064Q154.25653 349.59064 153.53778 348.7Q152.69403 347.6375 152.69403 345.21564ZM153.77216 345.21564Q153.77216 347.325 154.27216 348.02814Q154.77216 348.73126 155.4909 348.73126Q156.22528 348.73126 156.70966 348.02814Q157.20966 347.325 157.20966 345.21564Q157.20966 343.09064 156.70966 342.40314Q156.22528 341.7 155.47528 341.7Q154.75653 341.7 154.31903 342.3094Q153.77216 343.09064 153.77216 345.21564ZM160.25653 349.45L160.25653 348.2469L161.45966 348.2469L161.45966 349.45Q161.45966 350.10626 161.22528 350.5125Q160.9909 350.9344 160.4909 351.15314L160.19403 350.7Q160.52216 350.5594 160.6784 350.2625Q160.83466 349.98126 160.8659 349.45L160.25653 349.45ZM166.13153 349.45L166.13153 340.85626L169.94403 340.85626Q171.10028 340.85626 171.69403 341.09064Q172.28778 341.325 172.64716 341.91876Q173.00653 342.4969 173.00653 343.2Q173.00653 344.1219 172.41278 344.7469Q171.81903 345.3719 170.58466 345.54376Q171.03778 345.7625 171.27216 345.96564Q171.77216 346.41876 172.20966 347.10626L173.70966 349.45L172.27216 349.45L171.14716 347.66876Q170.64716 346.8875 170.31903 346.48126Q170.00653 346.075 169.7409 345.91876Q169.4909 345.7469 169.22528 345.66876Q169.03778 345.6375 168.60028 345.6375L167.27216 345.6375L167.27216 349.45L166.13153 349.45ZM167.27216 344.65314L169.72528 344.65314Q170.4909 344.65314 170.9284 344.4969Q171.38153 344.325 171.60028 343.98126Q171.83466 343.6219 171.83466 343.2Q171.83466 342.59064 171.38153 342.2Q170.94403 341.8094 169.9909 341.8094L167.27216 341.8094L167.27216 344.65314ZM179.0534 348.6844Q178.45966 349.1844 177.91278 349.3875Q177.38153 349.59064 176.75653 349.59064Q175.72528 349.59064 175.1784 349.09064Q174.63153 348.59064 174.63153 347.8094Q174.63153 347.35626 174.83466 346.98126Q175.03778 346.59064 175.38153 346.3719Q175.72528 346.1375 176.14716 346.02814Q176.44403 345.9344 177.08466 345.85626Q178.35028 345.71564 178.95966 345.4969Q178.95966 345.27814 178.95966 345.23126Q178.95966 344.575 178.66278 344.3094Q178.25653 343.96564 177.45966 343.96564Q176.72528 343.96564 176.3659 344.23126Q176.00653 344.48126 175.83466 345.1375L174.8034 344.9969Q174.94403 344.34064 175.27216 343.9344Q175.60028 343.52814 176.20966 343.3094Q176.81903 343.09064 177.6159 343.09064Q178.41278 343.09064 178.91278 343.27814Q179.41278 343.46564 179.64716 343.7469Q179.88153 344.02814 179.97528 344.46564Q180.02216 344.73126 180.02216 345.4344L180.02216 346.84064Q180.02216 348.3094 180.08466 348.7Q180.16278 349.09064 180.3659 349.45L179.25653 349.45Q179.10028 349.1219 179.0534 348.6844ZM178.95966 346.325Q178.38153 346.5594 177.2409 346.73126Q176.58466 346.825 176.31903 346.95Q176.0534 347.0594 175.89716 347.27814Q175.75653 347.4969 175.75653 347.77814Q175.75653 348.2 176.06903 348.48126Q176.39716 348.7625 177.00653 348.7625Q177.6159 348.7625 178.08466 348.4969Q178.56903 348.23126 178.78778 347.7625Q178.95966 347.40314 178.95966 346.71564L178.95966 346.325ZM182.95966 349.45L181.97528 349.45L181.97528 340.85626L183.03778 340.85626L183.03778 343.91876Q183.70966 343.09064 184.7409 343.09064Q185.31903 343.09064 185.81903 343.325Q186.33466 343.54376 186.66278 343.96564Q187.00653 344.3875 187.19403 344.98126Q187.38153 345.575 187.38153 346.2469Q187.38153 347.84064 186.58466 348.71564Q185.78778 349.59064 184.69403 349.59064Q183.58466 349.59064 182.95966 348.66876L182.95966 349.45ZM182.94403 346.29376Q182.94403 347.40314 183.25653 347.90314Q183.75653 348.71564 184.60028 348.71564Q185.28778 348.71564 185.78778 348.1219Q186.3034 347.52814 186.3034 346.325Q186.3034 345.10626 185.81903 344.52814Q185.33466 343.95 184.64716 343.95Q183.95966 343.95 183.44403 344.5594Q182.94403 345.15314 182.94403 346.29376ZM189.95966 349.45L188.97528 349.45L188.97528 340.85626L190.03778 340.85626L190.03778 343.91876Q190.70966 343.09064 191.7409 343.09064Q192.31903 343.09064 192.81903 343.325Q193.33466 343.54376 193.66278 343.96564Q194.00653 344.3875 194.19403 344.98126Q194.38153 345.575 194.38153 346.2469Q194.38153 347.84064 193.58466 348.71564Q192.78778 349.59064 191.69403 349.59064Q190.58466 349.59064 189.95966 348.66876L189.95966 349.45ZM189.94403 346.29376Q189.94403 347.40314 190.25653 347.90314Q190.75653 348.71564 191.60028 348.71564Q192.28778 348.71564 192.78778 348.1219Q193.3034 347.52814 193.3034 346.325Q193.3034 345.10626 192.81903 344.52814Q192.33466 343.95 191.64716 343.95Q190.95966 343.95 190.44403 344.5594Q189.94403 345.15314 189.94403 346.29376ZM195.9909 342.075L195.9909 340.85626L197.0534 340.85626L197.0534 342.075L195.9909 342.075ZM195.9909 349.45L195.9909 343.23126L197.0534 343.23126L197.0534 349.45L195.9909 349.45ZM201.28778 348.5125L201.44403 349.4344Q200.9909 349.52814 200.64716 349.52814Q200.06903 349.52814 199.75653 349.35626Q199.44403 349.16876 199.3034 348.8719Q199.1784 348.575 199.1784 347.6219L199.1784 344.04376L198.41278 344.04376L198.41278 343.23126L199.1784 343.23126L199.1784 341.6844L200.22528 341.0594L200.22528 343.23126L201.28778 343.23126L201.28778 344.04376L200.22528 344.04376L200.22528 347.6844Q200.22528 348.1375 200.27216 348.2625Q200.33466 348.3875 200.45966 348.46564Q200.58466 348.54376 200.81903 348.54376Q201.00653 348.54376 201.28778 348.5125ZM202.08466 349.45L202.08466 340.85626L203.8034 340.85626L205.83466 346.9344Q206.1159 347.79376 206.2409 348.21564Q206.38153 347.7469 206.69403 346.84064L208.75653 340.85626L210.28778 340.85626L210.28778 349.45L209.19403 349.45L209.19403 342.2625L206.69403 349.45L205.66278 349.45L203.1784 342.1375L203.1784 349.45L202.08466 349.45ZM217.63153 348.52814Q218.4284 349.075 219.08466 349.325L218.75653 350.1219Q217.83466 349.77814 216.91278 349.0594Q215.95966 349.59064 214.8034 349.59064Q213.63153 349.59064 212.6784 349.02814Q211.7409 348.46564 211.22528 347.45Q210.70966 346.4344 210.70966 345.15314Q210.70966 343.8875 211.22528 342.84064Q211.7409 341.79376 212.69403 341.2469Q213.64716 340.7 214.81903 340.7Q216.00653 340.7 216.95966 341.27814Q217.9284 341.84064 218.4284 342.85626Q218.9284 343.8719 218.9284 345.15314Q218.9284 346.21564 218.60028 347.0594Q218.28778 347.90314 217.63153 348.52814ZM215.13153 347.075Q216.1159 347.35626 216.75653 347.90314Q217.75653 346.98126 217.75653 345.15314Q217.75653 344.10626 217.39716 343.325Q217.03778 342.54376 216.35028 342.1219Q215.6784 341.6844 214.83466 341.6844Q213.5534 341.6844 212.70966 342.5594Q211.88153 343.41876 211.88153 345.15314Q211.88153 346.825 212.70966 347.73126Q213.53778 348.6219 214.83466 348.6219Q215.44403 348.6219 215.97528 348.3875Q215.44403 348.04376 214.85028 347.90314L215.13153 347.075ZM226.06903 349.45L226.06903 347.3875L222.35028 347.3875L222.35028 346.41876L226.27216 340.85626L227.13153 340.85626L227.13153 346.41876L228.28778 346.41876L228.28778 347.3875L227.13153 347.3875L227.13153 349.45L226.06903 349.45ZM226.06903 346.41876L226.06903 342.5594L223.38153 346.41876L226.06903 346.41876ZM230.28778 349.45L230.28778 348.2469L231.4909 348.2469L231.4909 349.45L230.28778 349.45ZM232.69403 345.21564Q232.69403 343.6844 233.00653 342.7625Q233.31903 341.825 233.9284 341.325Q234.5534 340.825 235.4909 340.825Q236.1784 340.825 236.69403 341.10626Q237.22528 341.3875 237.56903 341.91876Q237.91278 342.4344 238.10028 343.1844Q238.28778 343.9344 238.28778 345.21564Q238.28778 346.73126 237.97528 347.65314Q237.6784 348.575 237.0534 349.09064Q236.44403 349.59064 235.4909 349.59064Q234.25653 349.59064 233.53778 348.7Q232.69403 347.6375 232.69403 345.21564ZM233.77216 345.21564Q233.77216 347.325 234.27216 348.02814Q234.77216 348.73126 235.4909 348.73126Q236.22528 348.73126 236.70966 348.02814Q237.20966 347.325 237.20966 345.21564Q237.20966 343.09064 236.70966 342.40314Q236.22528 341.7 235.47528 341.7Q234.75653 341.7 234.31903 342.3094Q233.77216 343.09064 233.77216 345.21564Z" fill-rule="nonzero"/><path fill="#000000" d="M255.48438 349.45L258.78125 340.85626L260.0 340.85626L263.51562 349.45L262.23438 349.45L261.21875 346.84064L257.64062 346.84064L256.6875 349.45L255.48438 349.45ZM257.96875 345.91876L260.875 345.91876L259.98438 343.54376Q259.5625 342.46564 259.375 341.7625Q259.20312 342.59064 258.90625 343.40314L257.96875 345.91876ZM263.39062 349.45L263.39062 340.85626L265.10938 340.85626L267.14062 346.9344Q267.42188 347.79376 267.54688 348.21564Q267.6875 347.7469 268.0 346.84064L270.0625 340.85626L271.59375 340.85626L271.59375 349.45L270.5 349.45L270.5 342.2625L268.0 349.45L266.96875 349.45L264.48438 342.1375L264.48438 349.45L263.39062 349.45ZM278.9375 348.52814Q279.73438 349.075 280.39062 349.325L280.0625 350.1219Q279.14062 349.77814 278.21875 349.0594Q277.26562 349.59064 276.10938 349.59064Q274.9375 349.59064 273.98438 349.02814Q273.04688 348.46564 272.53125 347.45Q272.01562 346.4344 272.01562 345.15314Q272.01562 343.8875 272.53125 342.84064Q273.04688 341.79376 274.0 341.2469Q274.95312 340.7 276.125 340.7Q277.3125 340.7 278.26562 341.27814Q279.23438 341.84064 279.73438 342.85626Q280.23438 343.8719 280.23438 345.15314Q280.23438 346.21564 279.90625 347.0594Q279.59375 347.90314 278.9375 348.52814ZM276.4375 347.075Q277.42188 347.35626 278.0625 347.90314Q279.0625 346.98126 279.0625 345.15314Q279.0625 344.10626 278.70312 343.325Q278.34375 342.54376 277.65625 342.1219Q276.98438 341.6844 276.14062 341.6844Q274.85938 341.6844 274.01562 342.5594Q273.1875 343.41876 273.1875 345.15314Q273.1875 346.825 274.01562 347.73126Q274.84375 348.6219 276.14062 348.6219Q276.75 348.6219 277.28125 348.3875Q276.75 348.04376 276.15625 347.90314L276.4375 347.075ZM281.42188 349.45L281.42188 340.85626L284.67188 340.85626Q285.51562 340.85626 285.96875 340.9344Q286.60938 341.04376 287.03125 341.34064Q287.46875 341.6375 287.71875 342.16876Q287.98438 342.7 287.98438 343.34064Q287.98438 344.4344 287.28125 345.2Q286.59375 345.95 284.76562 345.95L282.5625 345.95L282.5625 349.45L281.42188 349.45ZM282.5625 344.95L284.78125 344.95Q285.89062 344.95 286.34375 344.54376Q286.8125 344.1219 286.8125 343.3719Q286.8125 342.84064 286.53125 342.46564Q286.26562 342.075 285.82812 341.95Q285.53125 341.8719 284.76562 341.8719L282.5625 341.8719L282.5625 344.95ZM295.96875 349.45L294.92188 349.45L294.92188 342.73126Q294.53125 343.09064 293.90625 343.46564Q293.29688 343.825 292.8125 343.9969L292.8125 342.98126Q293.6875 342.5594 294.34375 341.98126Q295.01562 341.3875 295.29688 340.825L295.96875 340.825L295.96875 349.45ZM299.59375 349.45L299.59375 348.2469L300.79688 348.2469L300.79688 349.45L299.59375 349.45ZM302.0 345.21564Q302.0 343.6844 302.3125 342.7625Q302.625 341.825 303.23438 341.325Q303.85938 340.825 304.79688 340.825Q305.48438 340.825 306.0 341.10626Q306.53125 341.3875 306.875 341.91876Q307.21875 342.4344 307.40625 343.1844Q307.59375 343.9344 307.59375 345.21564Q307.59375 346.73126 307.28125 347.65314Q306.98438 348.575 306.35938 349.09064Q305.75 349.59064 304.79688 349.59064Q303.5625 349.59064 302.84375 348.7Q302.0 347.6375 302.0 345.21564ZM303.07812 345.21564Q303.07812 347.325 303.57812 348.02814Q304.07812 348.73126 304.79688 348.73126Q305.53125 348.73126 306.01562 348.02814Q306.51562 347.325 306.51562 345.21564Q306.51562 343.09064 306.01562 342.40314Q305.53125 341.7 304.78125 341.7Q304.0625 341.7 303.625 342.3094Q303.07812 343.09064 303.07812 345.21564ZM309.5625 349.45L309.5625 348.2469L310.76562 348.2469L310.76562 349.45Q310.76562 350.10626 310.53125 350.5125Q310.29688 350.9344 309.79688 351.15314L309.5 350.7Q309.82812 350.5594 309.98438 350.2625Q310.14062 349.98126 310.17188 349.45L309.5625 349.45ZM315.4375 349.45L315.4375 340.85626L319.25 340.85626Q320.40625 340.85626 321.0 341.09064Q321.59375 341.325 321.95312 341.91876Q322.3125 342.4969 322.3125 343.2Q322.3125 344.1219 321.71875 344.7469Q321.125 345.3719 319.89062 345.54376Q320.34375 345.7625 320.57812 345.96564Q321.07812 346.41876 321.51562 347.10626L323.01562 349.45L321.57812 349.45L320.45312 347.66876Q319.95312 346.8875 319.625 346.48126Q319.3125 346.075 319.04688 345.91876Q318.79688 345.7469 318.53125 345.66876Q318.34375 345.6375 317.90625 345.6375L316.57812 345.6375L316.57812 349.45L315.4375 349.45ZM316.57812 344.65314L319.03125 344.65314Q319.79688 344.65314 320.23438 344.4969Q320.6875 344.325 320.90625 343.98126Q321.14062 343.6219 321.14062 343.2Q321.14062 342.59064 320.6875 342.2Q320.25 341.8094 319.29688 341.8094L316.57812 341.8094L316.57812 344.65314ZM328.35938 348.6844Q327.76562 349.1844 327.21875 349.3875Q326.6875 349.59064 326.0625 349.59064Q325.03125 349.59064 324.48438 349.09064Q323.9375 348.59064 323.9375 347.8094Q323.9375 347.35626 324.14062 346.98126Q324.34375 346.59064 324.6875 346.3719Q325.03125 346.1375 325.45312 346.02814Q325.75 345.9344 326.39062 345.85626Q327.65625 345.71564 328.26562 345.4969Q328.26562 345.27814 328.26562 345.23126Q328.26562 344.575 327.96875 344.3094Q327.5625 343.96564 326.76562 343.96564Q326.03125 343.96564 325.67188 344.23126Q325.3125 344.48126 325.14062 345.1375L324.10938 344.9969Q324.25 344.34064 324.57812 343.9344Q324.90625 343.52814 325.51562 343.3094Q326.125 343.09064 326.92188 343.09064Q327.71875 343.09064 328.21875 343.27814Q328.71875 343.46564 328.95312 343.7469Q329.1875 344.02814 329.28125 344.46564Q329.32812 344.73126 329.32812 345.4344L329.32812 346.84064Q329.32812 348.3094 329.39062 348.7Q329.46875 349.09064 329.67188 349.45L328.5625 349.45Q328.40625 349.1219 328.35938 348.6844ZM328.26562 346.325Q327.6875 346.5594 326.54688 346.73126Q325.89062 346.825 325.625 346.95Q325.35938 347.0594 325.20312 347.27814Q325.0625 347.4969 325.0625 347.77814Q325.0625 348.2 325.375 348.48126Q325.70312 348.7625 326.3125 348.7625Q326.92188 348.7625 327.39062 348.4969Q327.875 348.23126 328.09375 347.7625Q328.26562 347.40314 328.26562 346.71564L328.26562 346.325ZM332.26562 349.45L331.28125 349.45L331.28125 340.85626L332.34375 340.85626L332.34375 343.91876Q333.01562 343.09064 334.04688 343.09064Q334.625 343.09064 335.125 343.325Q335.64062 343.54376 335.96875 343.96564Q336.3125 344.3875 336.5 344.98126Q336.6875 345.575 336.6875 346.2469Q336.6875 347.84064 335.89062 348.71564Q335.09375 349.59064 334.0 349.59064Q332.89062 349.59064 332.26562 348.66876L332.26562 349.45ZM332.25 346.29376Q332.25 347.40314 332.5625 347.90314Q333.0625 348.71564 333.90625 348.71564Q334.59375 348.71564 335.09375 348.1219Q335.60938 347.52814 335.60938 346.325Q335.60938 345.10626 335.125 344.52814Q334.64062 343.95 333.95312 343.95Q333.26562 343.95 332.75 344.5594Q332.25 345.15314 332.25 346.29376ZM339.26562 349.45L338.28125 349.45L338.28125 340.85626L339.34375 340.85626L339.34375 343.91876Q340.01562 343.09064 341.04688 343.09064Q341.625 343.09064 342.125 343.325Q342.64062 343.54376 342.96875 343.96564Q343.3125 344.3875 343.5 344.98126Q343.6875 345.575 343.6875 346.2469Q343.6875 347.84064 342.89062 348.71564Q342.09375 349.59064 341.0 349.59064Q339.89062 349.59064 339.26562 348.66876L339.26562 349.45ZM339.25 346.29376Q339.25 347.40314 339.5625 347.90314Q340.0625 348.71564 340.90625 348.71564Q341.59375 348.71564 342.09375 348.1219Q342.60938 347.52814 342.60938 346.325Q342.60938 345.10626 342.125 344.52814Q341.64062 343.95 340.95312 343.95Q340.26562 343.95 339.75 344.5594Q339.25 345.15314 339.25 346.29376ZM345.29688 342.075L345.29688 340.85626L346.35938 340.85626L346.35938 342.075L345.29688 342.075ZM345.29688 349.45L345.29688 343.23126L346.35938 343.23126L346.35938 349.45L345.29688 349.45ZM350.59375 348.5125L350.75 349.4344Q350.29688 349.52814 349.95312 349.52814Q349.375 349.52814 349.0625 349.35626Q348.75 349.16876 348.60938 348.8719Q348.48438 348.575 348.48438 347.6219L348.48438 344.04376L347.71875 344.04376L347.71875 343.23126L348.48438 343.23126L348.48438 341.6844L349.53125 341.0594L349.53125 343.23126L350.59375 343.23126L350.59375 344.04376L349.53125 344.04376L349.53125 347.6844Q349.53125 348.1375 349.57812 348.2625Q349.64062 348.3875 349.76562 348.46564Q349.89062 348.54376 350.125 348.54376Q350.3125 348.54376 350.59375 348.5125ZM351.39062 349.45L351.39062 340.85626L353.10938 340.85626L355.14062 346.9344Q355.42188 347.79376 355.54688 348.21564Q355.6875 347.7469 356.0 346.84064L358.0625 340.85626L359.59375 340.85626L359.59375 349.45L358.5 349.45L358.5 342.2625L356.0 349.45L354.96875 349.45L352.48438 342.1375L352.48438 349.45L351.39062 349.45ZM366.9375 348.52814Q367.73438 349.075 368.39062 349.325L368.0625 350.1219Q367.14062 349.77814 366.21875 349.0594Q365.26562 349.59064 364.10938 349.59064Q362.9375 349.59064 361.98438 349.02814Q361.04688 348.46564 360.53125 347.45Q360.01562 346.4344 360.01562 345.15314Q360.01562 343.8875 360.53125 342.84064Q361.04688 341.79376 362.0 341.2469Q362.95312 340.7 364.125 340.7Q365.3125 340.7 366.26562 341.27814Q367.23438 341.84064 367.73438 342.85626Q368.23438 343.8719 368.23438 345.15314Q368.23438 346.21564 367.90625 347.0594Q367.59375 347.90314 366.9375 348.52814ZM364.4375 347.075Q365.42188 347.35626 366.0625 347.90314Q367.0625 346.98126 367.0625 345.15314Q367.0625 344.10626 366.70312 343.325Q366.34375 342.54376 365.65625 342.1219Q364.98438 341.6844 364.14062 341.6844Q362.85938 341.6844 362.01562 342.5594Q361.1875 343.41876 361.1875 345.15314Q361.1875 346.825 362.01562 347.73126Q362.84375 348.6219 364.14062 348.6219Q364.75 348.6219 365.28125 348.3875Q364.75 348.04376 364.15625 347.90314L364.4375 347.075ZM372.0 347.1844L373.0625 347.04376Q373.23438 347.9344 373.67188 348.34064Q374.10938 348.73126 374.73438 348.73126Q375.48438 348.73126 376.0 348.21564Q376.51562 347.7 376.51562 346.9344Q376.51562 346.21564 376.03125 345.7469Q375.5625 345.2625 374.82812 345.2625Q374.53125 345.2625 374.07812 345.3875L374.20312 344.45Q374.3125 344.46564 374.375 344.46564Q375.04688 344.46564 375.57812 344.1219Q376.125 343.7625 376.125 343.02814Q376.125 342.45 375.73438 342.075Q375.34375 341.6844 374.71875 341.6844Q374.10938 341.6844 373.6875 342.075Q373.28125 342.46564 373.17188 343.23126L372.10938 343.04376Q372.29688 341.9969 372.98438 341.41876Q373.67188 340.825 374.6875 340.825Q375.39062 340.825 375.98438 341.1375Q376.57812 341.4344 376.89062 341.95Q377.20312 342.46564 377.20312 343.0594Q377.20312 343.60626 376.90625 344.075Q376.60938 344.52814 376.03125 344.79376Q376.78125 344.96564 377.20312 345.52814Q377.625 346.075 377.625 346.91876Q377.625 348.04376 376.79688 348.825Q375.98438 349.60626 374.73438 349.60626Q373.60938 349.60626 372.85938 348.9344Q372.10938 348.2469 372.0 347.1844ZM379.59375 349.45L379.59375 348.2469L380.79688 348.2469L380.79688 349.45L379.59375 349.45ZM385.96875 349.45L384.92188 349.45L384.92188 342.73126Q384.53125 343.09064 383.90625 343.46564Q383.29688 343.825 382.8125 343.9969L382.8125 342.98126Q383.6875 342.5594 384.34375 341.98126Q385.01562 341.3875 385.29688 340.825L385.96875 340.825L385.96875 349.45ZM389.0 347.1844L390.0625 347.04376Q390.23438 347.9344 390.67188 348.34064Q391.10938 348.73126 391.73438 348.73126Q392.48438 348.73126 393.0 348.21564Q393.51562 347.7 393.51562 346.9344Q393.51562 346.21564 393.03125 345.7469Q392.5625 345.2625 391.82812 345.2625Q391.53125 345.2625 391.07812 345.3875L391.20312 344.45Q391.3125 344.46564 391.375 344.46564Q392.04688 344.46564 392.57812 344.1219Q393.125 343.7625 393.125 343.02814Q393.125 342.45 392.73438 342.075Q392.34375 341.6844 391.71875 341.6844Q391.10938 341.6844 390.6875 342.075Q390.28125 342.46564 390.17188 343.23126L389.10938 343.04376Q389.29688 341.9969 389.98438 341.41876Q390.67188 340.825 391.6875 340.825Q392.39062 340.825 392.98438 341.1375Q393.57812 341.4344 393.89062 341.95Q394.20312 342.46564 394.20312 343.0594Q394.20312 343.60626 393.90625 344.075Q393.60938 344.52814 393.03125 344.79376Q393.78125 344.96564 394.20312 345.52814Q394.625 346.075 394.625 346.91876Q394.625 348.04376 393.79688 348.825Q392.98438 349.60626 391.73438 349.60626Q390.60938 349.60626 389.85938 348.9344Q389.10938 348.2469 389.0 347.1844Z" fill-rule="nonzero"/><path fill="#000000" d="M406.79034 349.45L410.08722 340.85626L411.30597 340.85626L414.8216 349.45L413.54034 349.45L412.52472 346.84064L408.9466 346.84064L407.99347 349.45L406.79034 349.45ZM409.27472 345.91876L412.18097 345.91876L411.29034 343.54376Q410.86847 342.46564 410.68097 341.7625Q410.5091 342.59064 410.21222 343.40314L409.27472 345.91876ZM414.6966 349.45L414.6966 340.85626L416.41534 340.85626L418.4466 346.9344Q418.72784 347.79376 418.85284 348.21564Q418.99347 347.7469 419.30597 346.84064L421.36847 340.85626L422.89972 340.85626L422.89972 349.45L421.80597 349.45L421.80597 342.2625L419.30597 349.45L418.27472 349.45L415.79034 342.1375L415.79034 349.45L414.6966 349.45ZM430.24347 348.52814Q431.04034 349.075 431.6966 349.325L431.36847 350.1219Q430.4466 349.77814 429.52472 349.0594Q428.5716 349.59064 427.41534 349.59064Q426.24347 349.59064 425.29034 349.02814Q424.35284 348.46564 423.83722 347.45Q423.3216 346.4344 423.3216 345.15314Q423.3216 343.8875 423.83722 342.84064Q424.35284 341.79376 425.30597 341.2469Q426.2591 340.7 427.43097 340.7Q428.61847 340.7 429.5716 341.27814Q430.54034 341.84064 431.04034 342.85626Q431.54034 343.8719 431.54034 345.15314Q431.54034 346.21564 431.21222 347.0594Q430.89972 347.90314 430.24347 348.52814ZM427.74347 347.075Q428.72784 347.35626 429.36847 347.90314Q430.36847 346.98126 430.36847 345.15314Q430.36847 344.10626 430.0091 343.325Q429.64972 342.54376 428.96222 342.1219Q428.29034 341.6844 427.4466 341.6844Q426.16534 341.6844 425.3216 342.5594Q424.49347 343.41876 424.49347 345.15314Q424.49347 346.825 425.3216 347.73126Q426.14972 348.6219 427.4466 348.6219Q428.05597 348.6219 428.58722 348.3875Q428.05597 348.04376 427.46222 347.90314L427.74347 347.075ZM432.72784 349.45L432.72784 340.85626L435.97784 340.85626Q436.8216 340.85626 437.27472 340.9344Q437.91534 341.04376 438.33722 341.34064Q438.77472 341.6375 439.02472 342.16876Q439.29034 342.7 439.29034 343.34064Q439.29034 344.4344 438.58722 345.2Q437.89972 345.95 436.0716 345.95L433.86847 345.95L433.86847 349.45L432.72784 349.45ZM433.86847 344.95L436.08722 344.95Q437.1966 344.95 437.64972 344.54376Q438.11847 344.1219 438.11847 343.3719Q438.11847 342.84064 437.83722 342.46564Q437.5716 342.075 437.1341 341.95Q436.83722 341.8719 436.0716 341.8719L433.86847 341.8719L433.86847 344.95ZM443.30597 345.21564Q443.30597 343.6844 443.61847 342.7625Q443.93097 341.825 444.54034 341.325Q445.16534 340.825 446.10284 340.825Q446.79034 340.825 447.30597 341.10626Q447.83722 341.3875 448.18097 341.91876Q448.52472 342.4344 448.71222 343.1844Q448.89972 343.9344 448.89972 345.21564Q448.89972 346.73126 448.58722 347.65314Q448.29034 348.575 447.66534 349.09064Q447.05597 349.59064 446.10284 349.59064Q444.86847 349.59064 444.14972 348.7Q443.30597 347.6375 443.30597 345.21564ZM444.3841 345.21564Q444.3841 347.325 444.8841 348.02814Q445.3841 348.73126 446.10284 348.73126Q446.83722 348.73126 447.3216 348.02814Q447.8216 347.325 447.8216 345.21564Q447.8216 343.09064 447.3216 342.40314Q446.83722 341.7 446.08722 341.7Q445.36847 341.7 444.93097 342.3094Q444.3841 343.09064 444.3841 345.21564ZM450.89972 349.45L450.89972 348.2469L452.10284 348.2469L452.10284 349.45L450.89972 349.45ZM453.46222 347.46564L454.47784 347.3719Q454.60284 348.09064 454.96222 348.41876Q455.33722 348.73126 455.89972 348.73126Q456.3841 348.73126 456.74347 348.5125Q457.11847 348.27814 457.35284 347.91876Q457.58722 347.54376 457.74347 346.91876Q457.89972 346.27814 457.89972 345.6219Q457.89972 345.54376 457.89972 345.40314Q457.58722 345.90314 457.04034 346.23126Q456.49347 346.54376 455.85284 346.54376Q454.77472 346.54376 454.04034 345.77814Q453.30597 344.9969 453.30597 343.73126Q453.30597 342.41876 454.0716 341.6219Q454.85284 340.825 456.0091 340.825Q456.83722 340.825 457.52472 341.27814Q458.22784 341.73126 458.58722 342.575Q458.9466 343.40314 458.9466 344.98126Q458.9466 346.6219 458.58722 347.60626Q458.24347 348.575 457.52472 349.09064Q456.8216 349.59064 455.8841 349.59064Q454.86847 349.59064 454.22784 349.04376Q453.58722 348.48126 453.46222 347.46564ZM457.77472 343.66876Q457.77472 342.7625 457.29034 342.23126Q456.8216 341.7 456.1341 341.7Q455.43097 341.7 454.89972 342.27814Q454.3841 342.84064 454.3841 343.7625Q454.3841 344.575 454.8841 345.09064Q455.3841 345.60626 456.10284 345.60626Q456.83722 345.60626 457.30597 345.09064Q457.77472 344.575 457.77472 343.66876ZM460.89972 349.45L460.89972 348.2469L462.10284 348.2469L462.10284 349.45L460.89972 349.45ZM467.27472 349.45L466.22784 349.45L466.22784 342.73126Q465.83722 343.09064 465.21222 343.46564Q464.60284 343.825 464.11847 343.9969L464.11847 342.98126Q464.99347 342.5594 465.64972 341.98126Q466.3216 341.3875 466.60284 340.825L467.27472 340.825L467.27472 349.45ZM470.86847 349.45L470.86847 348.2469L472.0716 348.2469L472.0716 349.45Q472.0716 350.10626 471.83722 350.5125Q471.60284 350.9344 471.10284 351.15314L470.80597 350.7Q471.1341 350.5594 471.29034 350.2625Q471.4466 349.98126 471.47784 349.45L470.86847 349.45ZM476.74347 349.45L476.74347 340.85626L480.55597 340.85626Q481.71222 340.85626 482.30597 341.09064Q482.89972 341.325 483.2591 341.91876Q483.61847 342.4969 483.61847 343.2Q483.61847 344.1219 483.02472 344.7469Q482.43097 345.3719 481.1966 345.54376Q481.64972 345.7625 481.8841 345.96564Q482.3841 346.41876 482.8216 347.10626L484.3216 349.45L482.8841 349.45L481.7591 347.66876Q481.2591 346.8875 480.93097 346.48126Q480.61847 346.075 480.35284 345.91876Q480.10284 345.7469 479.83722 345.66876Q479.64972 345.6375 479.21222 345.6375L477.8841 345.6375L477.8841 349.45L476.74347 349.45ZM477.8841 344.65314L480.33722 344.65314Q481.10284 344.65314 481.54034 344.4969Q481.99347 344.325 482.21222 343.98126Q482.4466 343.6219 482.4466 343.2Q482.4466 342.59064 481.99347 342.2Q481.55597 341.8094 480.60284 341.8094L477.8841 341.8094L477.8841 344.65314ZM489.66534 348.6844Q489.0716 349.1844 488.52472 349.3875Q487.99347 349.59064 487.36847 349.59064Q486.33722 349.59064 485.79034 349.09064Q485.24347 348.59064 485.24347 347.8094Q485.24347 347.35626 485.4466 346.98126Q485.64972 346.59064 485.99347 346.3719Q486.33722 346.1375 486.7591 346.02814Q487.05597 345.9344 487.6966 345.85626Q488.96222 345.71564 489.5716 345.4969Q489.5716 345.27814 489.5716 345.23126Q489.5716 344.575 489.27472 344.3094Q488.86847 343.96564 488.0716 343.96564Q487.33722 343.96564 486.97784 344.23126Q486.61847 344.48126 486.4466 345.1375L485.41534 344.9969Q485.55597 344.34064 485.8841 343.9344Q486.21222 343.52814 486.8216 343.3094Q487.43097 343.09064 488.22784 343.09064Q489.02472 343.09064 489.52472 343.27814Q490.02472 343.46564 490.2591 343.7469Q490.49347 344.02814 490.58722 344.46564Q490.6341 344.73126 490.6341 345.4344L490.6341 346.84064Q490.6341 348.3094 490.6966 348.7Q490.77472 349.09064 490.97784 349.45L489.86847 349.45Q489.71222 349.1219 489.66534 348.6844ZM489.5716 346.325Q488.99347 346.5594 487.85284 346.73126Q487.1966 346.825 486.93097 346.95Q486.66534 347.0594 486.5091 347.27814Q486.36847 347.4969 486.36847 347.77814Q486.36847 348.2 486.68097 348.48126Q487.0091 348.7625 487.61847 348.7625Q488.22784 348.7625 488.6966 348.4969Q489.18097 348.23126 489.39972 347.7625Q489.5716 347.40314 489.5716 346.71564L489.5716 346.325ZM493.5716 349.45L492.58722 349.45L492.58722 340.85626L493.64972 340.85626L493.64972 343.91876Q494.3216 343.09064 495.35284 343.09064Q495.93097 343.09064 496.43097 343.325Q496.9466 343.54376 497.27472 343.96564Q497.61847 344.3875 497.80597 344.98126Q497.99347 345.575 497.99347 346.2469Q497.99347 347.84064 497.1966 348.71564Q496.39972 349.59064 495.30597 349.59064Q494.1966 349.59064 493.5716 348.66876L493.5716 349.45ZM493.55597 346.29376Q493.55597 347.40314 493.86847 347.90314Q494.36847 348.71564 495.21222 348.71564Q495.89972 348.71564 496.39972 348.1219Q496.91534 347.52814 496.91534 346.325Q496.91534 345.10626 496.43097 344.52814Q495.9466 343.95 495.2591 343.95Q494.5716 343.95 494.05597 344.5594Q493.55597 345.15314 493.55597 346.29376ZM500.5716 349.45L499.58722 349.45L499.58722 340.85626L500.64972 340.85626L500.64972 343.91876Q501.3216 343.09064 502.35284 343.09064Q502.93097 343.09064 503.43097 343.325Q503.9466 343.54376 504.27472 343.96564Q504.61847 344.3875 504.80597 344.98126Q504.99347 345.575 504.99347 346.2469Q504.99347 347.84064 504.1966 348.71564Q503.39972 349.59064 502.30597 349.59064Q501.1966 349.59064 500.5716 348.66876L500.5716 349.45ZM500.55597 346.29376Q500.55597 347.40314 500.86847 347.90314Q501.36847 348.71564 502.21222 348.71564Q502.89972 348.71564 503.39972 348.1219Q503.91534 347.52814 503.91534 346.325Q503.91534 345.10626 503.43097 344.52814Q502.9466 343.95 502.2591 343.95Q501.5716 343.95 501.05597 344.5594Q500.55597 345.15314 500.55597 346.29376ZM506.60284 342.075L506.60284 340.85626L507.66534 340.85626L507.66534 342.075L506.60284 342.075ZM506.60284 349.45L506.60284 343.23126L507.66534 343.23126L507.66534 349.45L506.60284 349.45ZM511.89972 348.5125L512.05597 349.4344Q511.60284 349.52814 511.2591 349.52814Q510.68097 349.52814 510.36847 349.35626Q510.05597 349.16876 509.91534 348.8719Q509.79034 348.575 509.79034 347.6219L509.79034 344.04376L509.02472 344.04376L509.02472 343.23126L509.79034 343.23126L509.79034 341.6844L510.83722 341.0594L510.83722 343.23126L511.89972 343.23126L511.89972 344.04376L510.83722 344.04376L510.83722 347.6844Q510.83722 348.1375 510.8841 348.2625Q510.9466 348.3875 511.0716 348.46564Q511.1966 348.54376 511.43097 348.54376Q511.61847 348.54376 511.89972 348.5125ZM512.6966 349.45L512.6966 340.85626L514.41534 340.85626L516.4466 346.9344Q516.72784 347.79376 516.85284 348.21564Q516.99347 347.7469 517.30597 346.84064L519.36847 340.85626L520.8997 340.85626L520.8997 349.45L519.80597 349.45L519.80597 342.2625L517.30597 349.45L516.2747 349.45L513.79034 342.1375L513.79034 349.45L512.6966 349.45ZM528.24347 348.52814Q529.04034 349.075 529.6966 349.325L529.36847 350.1219Q528.4466 349.77814 527.5247 349.0594Q526.5716 349.59064 525.41534 349.59064Q524.24347 349.59064 523.29034 349.02814Q522.35284 348.46564 521.8372 347.45Q521.3216 346.4344 521.3216 345.15314Q521.3216 343.8875 521.8372 342.84064Q522.35284 341.79376 523.30597 341.2469Q524.2591 340.7 525.43097 340.7Q526.61847 340.7 527.5716 341.27814Q528.54034 341.84064 529.04034 342.85626Q529.54034 343.8719 529.54034 345.15314Q529.54034 346.21564 529.2122 347.0594Q528.8997 347.90314 528.24347 348.52814ZM525.74347 347.075Q526.72784 347.35626 527.36847 347.90314Q528.36847 346.98126 528.36847 345.15314Q528.36847 344.10626 528.0091 343.325Q527.6497 342.54376 526.9622 342.1219Q526.29034 341.6844 525.4466 341.6844Q524.16534 341.6844 523.3216 342.5594Q522.49347 343.41876 522.49347 345.15314Q522.49347 346.825 523.3216 347.73126Q524.1497 348.6219 525.4466 348.6219Q526.05597 348.6219 526.5872 348.3875Q526.05597 348.04376 525.4622 347.90314L525.74347 347.075ZM536.68097 349.45L536.68097 347.3875L532.9622 347.3875L532.9622 346.41876L536.8841 340.85626L537.74347 340.85626L537.74347 346.41876L538.8997 346.41876L538.8997 347.3875L537.74347 347.3875L537.74347 349.45L536.68097 349.45ZM536.68097 346.41876L536.68097 342.5594L533.99347 346.41876L536.68097 346.41876ZM540.8997 349.45L540.8997 348.2469L542.10284 348.2469L542.10284 349.45L540.8997 349.45ZM543.30597 345.21564Q543.30597 343.6844 543.61847 342.7625Q543.93097 341.825 544.54034 341.325Q545.16534 340.825 546.10284 340.825Q546.79034 340.825 547.30597 341.10626Q547.8372 341.3875 548.18097 341.91876Q548.5247 342.4344 548.7122 343.1844Q548.8997 343.9344 548.8997 345.21564Q548.8997 346.73126 548.5872 347.65314Q548.29034 348.575 547.66534 349.09064Q547.05597 349.59064 546.10284 349.59064Q544.86847 349.59064 544.1497 348.7Q543.30597 347.6375 543.30597 345.21564ZM544.3841 345.21564Q544.3841 347.325 544.8841 348.02814Q545.3841 348.73126 546.10284 348.73126Q546.8372 348.73126 547.3216 348.02814Q547.8216 347.325 547.8216 345.21564Q547.8216 343.09064 547.3216 342.40314Q546.8372 341.7 546.0872 341.7Q545.36847 341.7 544.93097 342.3094Q544.3841 343.09064 544.3841 345.21564Z" fill-rule="nonzero"/><path fill="#757575" d="M19.45625 32.95625L21.2375 32.8Q21.3625 33.8625 21.815624 34.55Q22.284374 35.2375 23.253124 35.675Q24.2375 36.096874 25.471874 36.096874Q26.55 36.096874 27.378124 35.784374Q28.20625 35.45625 28.6125 34.89375Q29.01875 34.33125 29.01875 33.659374Q29.01875 32.9875 28.628124 32.4875Q28.2375 31.9875 27.346874 31.64375Q26.76875 31.409374 24.784374 30.940624Q22.815624 30.471874 22.034374 30.05Q21.003124 29.51875 20.503124 28.721874Q20.003124 27.925 20.003124 26.940624Q20.003124 25.846874 20.6125 24.909374Q21.221874 23.971874 22.409374 23.4875Q23.596874 22.9875 25.034374 22.9875Q26.628124 22.9875 27.846874 23.503124Q29.065624 24.01875 29.70625 25.01875Q30.3625 26.003124 30.409374 27.26875L28.596874 27.409374Q28.45625 26.05 27.6125 25.3625Q26.76875 24.659374 25.1125 24.659374Q23.39375 24.659374 22.596874 25.3Q21.815624 25.925 21.815624 26.8Q21.815624 27.58125 22.378124 28.08125Q22.925 28.58125 25.2375 29.096874Q27.55 29.6125 28.409374 30.003124Q29.659374 30.58125 30.253124 31.471874Q30.846874 32.346874 30.846874 33.503124Q30.846874 34.64375 30.190624 35.659374Q29.534374 36.675 28.3 37.2375Q27.08125 37.8 25.55 37.8Q23.6125 37.8 22.3 37.2375Q20.9875 36.659374 20.2375 35.51875Q19.4875 34.378124 19.45625 32.95625ZM36.70625 35.971874L36.95625 37.534374Q36.221874 37.690624 35.628124 37.690624Q34.675 37.690624 34.14375 37.39375Q33.628124 37.08125 33.409374 36.596874Q33.190624 36.096874 33.190624 34.51875L33.190624 28.55L31.909374 28.55L31.909374 27.175L33.190624 27.175L33.190624 24.6125L34.940624 23.55L34.940624 27.175L36.70625 27.175L36.70625 28.55L34.940624 28.55L34.940624 34.6125Q34.940624 35.3625 35.034374 35.58125Q35.128124 35.784374 35.33125 35.925Q35.55 36.05 35.940624 36.05Q36.221874 36.05 36.70625 35.971874ZM38.846874 37.55L38.846874 27.175L40.425 27.175L40.425 28.753124Q41.034374 27.64375 41.55 27.3Q42.065624 26.940624 42.675 26.940624Q43.565624 26.940624 44.4875 27.503124L43.878124 29.14375Q43.2375 28.753124 42.596874 28.753124Q42.01875 28.753124 41.55 29.1125Q41.096874 29.45625 40.89375 30.065624Q40.6125 31.003124 40.6125 32.1125L40.6125 37.55L38.846874 37.55ZM52.971874 34.20625L54.784374 34.440624Q54.3625 36.01875 53.190624 36.909374Q52.034374 37.784374 50.221874 37.784374Q47.95625 37.784374 46.6125 36.39375Q45.284374 34.9875 45.284374 32.45625Q45.284374 29.83125 46.628124 28.39375Q47.971874 26.940624 50.128124 26.940624Q52.20625 26.940624 53.51875 28.3625Q54.846874 29.76875 54.846874 32.346874Q54.846874 32.503124 54.83125 32.815624L47.096874 32.815624Q47.190624 34.51875 48.065624 35.425Q48.940624 36.33125 50.2375 36.33125Q51.20625 36.33125 51.878124 35.83125Q52.565624 35.315624 52.971874 34.20625ZM47.190624 31.3625L52.9875 31.3625Q52.878124 30.065624 52.33125 29.409374Q51.4875 28.39375 50.14375 28.39375Q48.940624 28.39375 48.1125 29.20625Q47.284374 30.003124 47.190624 31.3625ZM63.64375 36.26875Q62.659374 37.096874 61.753124 37.440624Q60.846874 37.784374 59.815624 37.784374Q58.1125 37.784374 57.190624 36.95625Q56.26875 36.1125 56.26875 34.815624Q56.26875 34.05 56.6125 33.425Q56.971874 32.8 57.534374 32.425Q58.096874 32.034374 58.8 31.83125Q59.315624 31.70625 60.3625 31.565624Q62.4875 31.315624 63.4875 30.971874Q63.503124 30.6125 63.503124 30.503124Q63.503124 29.440624 63.003124 28.9875Q62.33125 28.39375 61.003124 28.39375Q59.753124 28.39375 59.159374 28.83125Q58.58125 29.26875 58.3 30.378124L56.58125 30.14375Q56.815624 29.034374 57.346874 28.3625Q57.878124 27.675 58.89375 27.315624Q59.909374 26.940624 61.253124 26.940624Q62.58125 26.940624 63.409374 27.253124Q64.2375 27.565624 64.62813 28.05Q65.01875 28.51875 65.175 29.2375Q65.26875 29.690624 65.26875 30.8625L65.26875 33.20625Q65.26875 35.659374 65.37813 36.315624Q65.4875 36.95625 65.83125 37.55L63.9875 37.55Q63.721874 37.003124 63.64375 36.26875ZM63.4875 32.346874Q62.534374 32.7375 60.6125 33.003124Q59.534374 33.159374 59.08125 33.3625Q58.64375 33.55 58.39375 33.925Q58.14375 34.3 58.14375 34.76875Q58.14375 35.471874 58.675 35.940624Q59.20625 36.409374 60.2375 36.409374Q61.253124 36.409374 62.034374 35.971874Q62.83125 35.51875 63.20625 34.753124Q63.4875 34.14375 63.4875 32.9875L63.4875 32.346874ZM67.8625 37.55L67.8625 27.175L69.44063 27.175L69.44063 28.628124Q69.925 27.878124 70.7375 27.409374Q71.55 26.940624 72.58125 26.940624Q73.7375 26.940624 74.47188 27.425Q75.20625 27.89375 75.51875 28.753124Q76.75313 26.940624 78.72188 26.940624Q80.26875 26.940624 81.09688 27.8Q81.925 28.659374 81.925 30.425L81.925 37.55L80.175 37.55L80.175 31.01875Q80.175 29.95625 80.00313 29.503124Q79.83125 29.034374 79.37813 28.753124Q78.94063 28.471874 78.33125 28.471874Q77.2375 28.471874 76.50313 29.20625Q75.78438 29.925 75.78438 31.51875L75.78438 37.55L74.03438 37.55L74.03438 30.815624Q74.03438 29.64375 73.59688 29.065624Q73.175 28.471874 72.19063 28.471874Q71.45625 28.471874 70.81563 28.8625Q70.19063 29.253124 69.90938 30.003124Q69.62813 30.753124 69.62813 32.175L69.62813 37.55L67.8625 37.55ZM93.70625 35.971874L93.95625 37.534374Q93.22188 37.690624 92.62813 37.690624Q91.675 37.690624 91.14375 37.39375Q90.62813 37.08125 90.40938 36.596874Q90.19063 36.096874 90.19063 34.51875L90.19063 28.55L88.90938 28.55L88.90938 27.175L90.19063 27.175L90.19063 24.6125L91.94063 23.55L91.94063 27.175L93.70625 27.175L93.70625 28.55L91.94063 28.55L91.94063 34.6125Q91.94063 35.3625 92.03438 35.58125Q92.12813 35.784374 92.33125 35.925Q92.55 36.05 92.94063 36.05Q93.22188 36.05 93.70625 35.971874ZM95.8625 37.55L95.8625 23.2375L97.62813 23.2375L97.62813 28.3625Q98.8625 26.940624 100.7375 26.940624Q101.87813 26.940624 102.72188 27.39375Q103.58125 27.846874 103.94063 28.659374Q104.31563 29.45625 104.31563 30.971874L104.31563 37.55L102.56563 37.55L102.56563 30.971874Q102.56563 29.659374 101.9875 29.065624Q101.40938 28.45625 100.37813 28.45625Q99.59688 28.45625 98.89375 28.8625Q98.20625 29.26875 97.90938 29.971874Q97.62813 30.659374 97.62813 31.878124L97.62813 37.55L95.8625 37.55ZM105.84688 37.55L105.84688 27.175L107.425 27.175L107.425 28.753124Q108.03438 27.64375 108.55 27.3Q109.06563 26.940624 109.675 26.940624Q110.56563 26.940624 111.4875 27.503124L110.87813 29.14375Q110.2375 28.753124 109.59688 28.753124Q109.01875 28.753124 108.55 29.1125Q108.09688 29.45625 107.89375 30.065624Q107.6125 31.003124 107.6125 32.1125L107.6125 37.55L105.84688 37.55ZM112.22188 32.3625Q112.22188 29.4875 113.81563 28.096874Q115.15938 26.940624 117.08125 26.940624Q119.22188 26.940624 120.56563 28.346874Q121.925 29.753124 121.925 32.221874Q121.925 34.221874 121.33125 35.378124Q120.7375 36.51875 119.58125 37.159374Q118.44063 37.784374 117.08125 37.784374Q114.89375 37.784374 113.55 36.39375Q112.22188 34.9875 112.22188 32.3625ZM114.01875 32.3625Q114.01875 34.3625 114.87813 35.346874Q115.75313 36.33125 117.08125 36.33125Q118.39375 36.33125 119.25313 35.346874Q120.12813 34.346874 120.12813 32.3Q120.12813 30.378124 119.25313 29.39375Q118.37813 28.39375 117.08125 28.39375Q115.75313 28.39375 114.87813 29.39375Q114.01875 30.378124 114.01875 32.3625ZM130.65938 37.55L130.65938 36.01875Q129.45625 37.784374 127.37813 37.784374Q126.45625 37.784374 125.65938 37.440624Q124.8625 37.08125 124.47188 36.55Q124.09688 36.01875 123.94063 35.2375Q123.83125 34.721874 123.83125 33.596874L123.83125 27.175L125.58125 27.175L125.58125 32.925Q125.58125 34.3 125.69063 34.784374Q125.8625 35.471874 126.39375 35.878124Q126.94063 36.26875 127.72188 36.26875Q128.51875 36.26875 129.20625 35.8625Q129.90938 35.45625 130.19063 34.76875Q130.4875 34.065624 130.4875 32.7375L130.4875 27.175L132.2375 27.175L132.2375 37.55L130.65938 37.55ZM133.55 38.409374L135.25313 38.659374Q135.3625 39.45625 135.84688 39.815624Q136.50313 40.3 137.64375 40.3Q138.8625 40.3 139.51875 39.815624Q140.19063 39.33125 140.425 38.45625Q140.56563 37.909374 140.55 36.190624Q139.39375 37.55 137.675 37.55Q135.53438 37.55 134.3625 36.003124Q133.19063 34.45625 133.19063 32.3Q133.19063 30.815624 133.72188 29.565624Q134.26875 28.315624 135.28438 27.628124Q136.31563 26.940624 137.69063 26.940624Q139.51875 26.940624 140.72188 28.425L140.72188 27.175L142.33125 27.175L142.33125 36.14375Q142.33125 38.565624 141.83125 39.565624Q141.34688 40.58125 140.26875 41.159374Q139.20625 41.753124 137.64375 41.753124Q135.8 41.753124 134.64375 40.925Q133.50313 40.096874 133.55 38.409374ZM135.00313 32.175Q135.00313 34.221874 135.81563 35.159374Q136.62813 36.096874 137.84688 36.096874Q139.05 36.096874 139.8625 35.159374Q140.69063 34.221874 140.69063 32.2375Q140.69063 30.33125 139.84688 29.3625Q139.00313 28.39375 137.81563 28.39375Q136.64375 28.39375 135.81563 29.346874Q135.00313 30.3 135.00313 32.175ZM144.8625 37.55L144.8625 23.2375L146.62813 23.2375L146.62813 28.3625Q147.8625 26.940624 149.7375 26.940624Q150.87813 26.940624 151.72188 27.39375Q152.58125 27.846874 152.94063 28.659374Q153.31563 29.45625 153.31563 30.971874L153.31563 37.55L151.56563 37.55L151.56563 30.971874Q151.56563 29.659374 150.9875 29.065624Q150.40938 28.45625 149.37813 28.45625Q148.59688 28.45625 147.89375 28.8625Q147.20625 29.26875 146.90938 29.971874Q146.62813 30.659374 146.62813 31.878124L146.62813 37.55L144.8625 37.55ZM154.8625 41.51875L154.8625 27.175L156.47188 27.175L156.47188 28.51875Q157.03438 27.7375 157.7375 27.346874Q158.45625 26.940624 159.47188 26.940624Q160.8 26.940624 161.81563 27.628124Q162.83125 28.315624 163.34688 29.565624Q163.87813 30.8 163.87813 32.284374Q163.87813 33.878124 163.3 35.159374Q162.7375 36.425 161.64375 37.1125Q160.55 37.784374 159.34688 37.784374Q158.47188 37.784374 157.76875 37.409374Q157.08125 37.034374 156.62813 36.471874L156.62813 41.51875L154.8625 41.51875ZM156.45625 32.425Q156.45625 34.425 157.26875 35.378124Q158.08125 36.33125 159.2375 36.33125Q160.40938 36.33125 161.2375 35.346874Q162.08125 34.3625 162.08125 32.26875Q162.08125 30.3 161.25313 29.315624Q160.44063 28.315624 159.31563 28.315624Q158.19063 28.315624 157.31563 29.378124Q156.45625 30.425 156.45625 32.425ZM172.65938 37.55L172.65938 36.01875Q171.45625 37.784374 169.37813 37.784374Q168.45625 37.784374 167.65938 37.440624Q166.8625 37.08125 166.47188 36.55Q166.09688 36.01875 165.94063 35.2375Q165.83125 34.721874 165.83125 33.596874L165.83125 27.175L167.58125 27.175L167.58125 32.925Q167.58125 34.3 167.69063 34.784374Q167.8625 35.471874 168.39375 35.878124Q168.94063 36.26875 169.72188 36.26875Q170.51875 36.26875 171.20625 35.8625Q171.90938 35.45625 172.19063 34.76875Q172.4875 34.065624 172.4875 32.7375L172.4875 27.175L174.2375 27.175L174.2375 37.55L172.65938 37.55ZM179.70625 35.971874L179.95625 37.534374Q179.22188 37.690624 178.62813 37.690624Q177.675 37.690624 177.14375 37.39375Q176.62813 37.08125 176.40938 36.596874Q176.19063 36.096874 176.19063 34.51875L176.19063 28.55L174.90938 28.55L174.90938 27.175L176.19063 27.175L176.19063 24.6125L177.94063 23.55L177.94063 27.175L179.70625 27.175L179.70625 28.55L177.94063 28.55L177.94063 34.6125Q177.94063 35.3625 178.03438 35.58125Q178.12813 35.784374 178.33125 35.925Q178.55 36.05 178.94063 36.05Q179.22188 36.05 179.70625 35.971874ZM182.33125 37.55L182.33125 35.55L184.33125 35.55L184.33125 37.55Q184.33125 38.659374 183.94063 39.33125Q183.55 40.01875 182.70625 40.378124L182.20625 39.628124Q182.76875 39.39375 183.03438 38.909374Q183.3 38.440624 183.33125 37.55L182.33125 37.55ZM194.12813 37.55L194.12813 23.2375L200.47188 23.2375Q202.37813 23.2375 203.37813 23.628124Q204.37813 24.003124 204.97188 24.9875Q205.56563 25.95625 205.56563 27.14375Q205.56563 28.659374 204.58125 29.70625Q203.59688 30.753124 201.53438 31.034374Q202.28438 31.39375 202.675 31.753124Q203.50313 32.503124 204.25313 33.659374L206.7375 37.55L204.3625 37.55L202.45625 34.565624Q201.62813 33.284374 201.09688 32.596874Q200.56563 31.909374 200.12813 31.64375Q199.70625 31.3625 199.26875 31.253124Q198.94063 31.190624 198.22188 31.190624L196.01875 31.190624L196.01875 37.55L194.12813 37.55ZM196.01875 29.55L200.09688 29.55Q201.39375 29.55 202.1125 29.284374Q202.84688 29.01875 203.22188 28.425Q203.6125 27.83125 203.6125 27.14375Q203.6125 26.128124 202.87813 25.471874Q202.14375 24.815624 200.55 24.815624L196.01875 24.815624L196.01875 29.55ZM214.64375 36.26875Q213.65938 37.096874 212.75313 37.440624Q211.84688 37.784374 210.81563 37.784374Q209.1125 37.784374 208.19063 36.95625Q207.26875 36.1125 207.26875 34.815624Q207.26875 34.05 207.6125 33.425Q207.97188 32.8 208.53438 32.425Q209.09688 32.034374 209.8 31.83125Q210.31563 31.70625 211.3625 31.565624Q213.4875 31.315624 214.4875 30.971874Q214.50313 30.6125 214.50313 30.503124Q214.50313 29.440624 214.00313 28.9875Q213.33125 28.39375 212.00313 28.39375Q210.75313 28.39375 210.15938 28.83125Q209.58125 29.26875 209.3 30.378124L207.58125 30.14375Q207.81563 29.034374 208.34688 28.3625Q208.87813 27.675 209.89375 27.315624Q210.90938 26.940624 212.25313 26.940624Q213.58125 26.940624 214.40938 27.253124Q215.2375 27.565624 215.62813 28.05Q216.01875 28.51875 216.175 29.2375Q216.26875 29.690624 216.26875 30.8625L216.26875 33.20625Q216.26875 35.659374 216.37813 36.315624Q216.4875 36.95625 216.83125 37.55L214.9875 37.55Q214.72188 37.003124 214.64375 36.26875ZM214.4875 32.346874Q213.53438 32.7375 211.6125 33.003124Q210.53438 33.159374 210.08125 33.3625Q209.64375 33.55 209.39375 33.925Q209.14375 34.3 209.14375 34.76875Q209.14375 35.471874 209.675 35.940624Q210.20625 36.409374 211.2375 36.409374Q212.25313 36.409374 213.03438 35.971874Q213.83125 35.51875 214.20625 34.753124Q214.4875 34.14375 214.4875 32.9875L214.4875 32.346874ZM220.4875 37.55L218.8625 37.55L218.8625 23.2375L220.6125 23.2375L220.6125 28.346874Q221.7375 26.940624 223.45625 26.940624Q224.40938 26.940624 225.26875 27.33125Q226.12813 27.721874 226.675 28.425Q227.22188 29.1125 227.53438 30.096874Q227.84688 31.08125 227.84688 32.20625Q227.84688 34.878124 226.53438 36.33125Q225.22188 37.784374 223.37813 37.784374Q221.53438 37.784374 220.4875 36.253124L220.4875 37.55ZM220.47188 32.284374Q220.47188 34.14375 220.97188 34.9875Q221.81563 36.33125 223.22188 36.33125Q224.37813 36.33125 225.20625 35.33125Q226.05 34.33125 226.05 32.346874Q226.05 30.315624 225.2375 29.3625Q224.44063 28.39375 223.3 28.39375Q222.14375 28.39375 221.3 29.39375Q220.47188 30.39375 220.47188 32.284374ZM231.4875 37.55L229.8625 37.55L229.8625 23.2375L231.6125 23.2375L231.6125 28.346874Q232.7375 26.940624 234.45625 26.940624Q235.40938 26.940624 236.26875 27.33125Q237.12813 27.721874 237.675 28.425Q238.22188 29.1125 238.53438 30.096874Q238.84688 31.08125 238.84688 32.20625Q238.84688 34.878124 237.53438 36.33125Q236.22188 37.784374 234.37813 37.784374Q232.53438 37.784374 231.4875 36.253124L231.4875 37.55ZM231.47188 32.284374Q231.47188 34.14375 231.97188 34.9875Q232.81563 36.33125 234.22188 36.33125Q235.37813 36.33125 236.20625 35.33125Q237.05 34.33125 237.05 32.346874Q237.05 30.315624 236.2375 29.3625Q235.44063 28.39375 234.3 28.39375Q233.14375 28.39375 232.3 29.39375Q231.47188 30.39375 231.47188 32.284374ZM240.87813 25.253124L240.87813 23.2375L242.64375 23.2375L242.64375 25.253124L240.87813 25.253124ZM240.87813 37.55L240.87813 27.175L242.64375 27.175L242.64375 37.55L240.87813 37.55ZM248.70625 35.971874L248.95625 37.534374Q248.22188 37.690624 247.62813 37.690624Q246.675 37.690624 246.14375 37.39375Q245.62813 37.08125 245.40938 36.596874Q245.19063 36.096874 245.19063 34.51875L245.19063 28.55L243.90938 28.55L243.90938 27.175L245.19063 27.175L245.19063 24.6125L246.94063 23.55L246.94063 27.175L248.70625 27.175L248.70625 28.55L246.94063 28.55L246.94063 34.6125Q246.94063 35.3625 247.03438 35.58125Q247.12813 35.784374 247.33125 35.925Q247.55 36.05 247.94063 36.05Q248.22188 36.05 248.70625 35.971874ZM251.03438 37.55L251.03438 23.2375L253.89375 23.2375L257.26874 33.3625Q257.7375 34.784374 257.95624 35.4875Q258.20624 34.70625 258.72186 33.190624L262.14374 23.2375L264.6906 23.2375L264.6906 37.55L262.8781 37.55L262.8781 25.565624L258.70624 37.55L257.0031 37.55L252.8625 25.3625L252.8625 37.55L251.03438 37.55ZM278.9406 36.01875Q280.26874 36.925 281.3781 37.346874L280.8156 38.659374Q279.26874 38.1125 277.7375 36.909374Q276.14374 37.8 274.22186 37.8Q272.28436 37.8 270.6906 36.8625Q269.1125 35.925 268.2531 34.221874Q267.40936 32.51875 267.40936 30.39375Q267.40936 28.26875 268.26874 26.534374Q269.1281 24.8 270.70624 23.89375Q272.3 22.971874 274.26874 22.971874Q276.2531 22.971874 277.83124 23.925Q279.425 24.8625 280.2531 26.565624Q281.09686 28.253124 281.09686 30.378124Q281.09686 32.14375 280.5656 33.565624Q280.03436 34.971874 278.9406 36.01875ZM274.76874 33.596874Q276.40936 34.05 277.47186 34.95625Q279.14374 33.440624 279.14374 30.378124Q279.14374 28.64375 278.55 27.346874Q277.97186 26.05 276.83124 25.33125Q275.6906 24.6125 274.26874 24.6125Q272.15936 24.6125 270.7531 26.065624Q269.3625 27.503124 269.3625 30.39375Q269.3625 33.190624 270.7375 34.690624Q272.1281 36.175 274.26874 36.175Q275.28436 36.175 276.1906 35.784374Q275.3 35.221874 274.3156 34.971874L274.76874 33.596874ZM295.01874 37.55L295.01874 34.128124L288.8 34.128124L288.8 32.503124L295.33124 23.2375L296.76874 23.2375L296.76874 32.503124L298.70624 32.503124L298.70624 34.128124L296.76874 34.128124L296.76874 37.55L295.01874 37.55ZM295.01874 32.503124L295.01874 26.05L290.53436 32.503124L295.01874 32.503124ZM301.3625 37.55L301.3625 35.55L303.3625 35.55L303.3625 37.55L301.3625 37.55ZM306.3781 30.4875Q306.3781 27.95625 306.89374 26.409374Q307.425 24.846874 308.45624 24.01875Q309.4875 23.175 311.05 23.175Q312.20624 23.175 313.0656 23.64375Q313.9406 24.096874 314.5031 24.971874Q315.0656 25.846874 315.39374 27.1125Q315.72186 28.3625 315.72186 30.4875Q315.72186 33.003124 315.1906 34.55Q314.675 36.096874 313.64374 36.95625Q312.6281 37.8 311.05 37.8Q308.97186 37.8 307.8 36.315624Q306.3781 34.51875 306.3781 30.4875ZM308.1906 30.4875Q308.1906 34.01875 309.0031 35.190624Q309.83124 36.346874 311.05 36.346874Q312.2531 36.346874 313.08124 35.175Q313.90936 34.003124 313.90936 30.4875Q313.90936 26.95625 313.08124 25.8Q312.2531 24.628124 311.03436 24.628124Q309.8156 24.628124 309.09686 25.659374Q308.1906 26.95625 308.1906 30.4875ZM326.7531 37.55L322.8 27.175L324.65936 27.175L326.89374 33.39375Q327.2531 34.39375 327.55 35.471874Q327.78436 34.659374 328.20624 33.503124L330.5031 27.175L332.3156 27.175L328.39374 37.55L326.7531 37.55ZM332.15936 34.45625L333.90936 34.175Q334.05 35.221874 334.72186 35.784374Q335.39374 36.33125 336.59686 36.33125Q337.8 36.33125 338.3781 35.846874Q338.97186 35.346874 338.97186 34.690624Q338.97186 34.096874 338.45624 33.753124Q338.09686 33.51875 336.65936 33.159374Q334.72186 32.659374 333.97186 32.315624Q333.2375 31.95625 332.84686 31.33125Q332.45624 30.690624 332.45624 29.925Q332.45624 29.2375 332.76874 28.64375Q333.09686 28.05 333.64374 27.659374Q334.05 27.3625 334.7531 27.159374Q335.47186 26.940624 336.28436 26.940624Q337.5031 26.940624 338.425 27.3Q339.34686 27.64375 339.78436 28.253124Q340.22186 28.846874 340.39374 29.846874L338.675 30.08125Q338.55 29.284374 337.9875 28.846874Q337.425 28.39375 336.40936 28.39375Q335.1906 28.39375 334.675 28.8Q334.15936 29.190624 334.15936 29.721874Q334.15936 30.065624 334.3781 30.346874Q334.58124 30.628124 335.05 30.815624Q335.3156 30.909374 336.59686 31.253124Q338.47186 31.753124 339.20624 32.08125Q339.9406 32.39375 340.3625 33.003124Q340.78436 33.596874 340.78436 34.503124Q340.78436 35.378124 340.26874 36.159374Q339.7531 36.940624 338.78436 37.3625Q337.8156 37.784374 336.59686 37.784374Q334.58124 37.784374 333.51874 36.940624Q332.45624 36.096874 332.15936 34.45625ZM343.3625 37.55L343.3625 35.55L345.3625 35.55L345.3625 37.55L343.3625 37.55ZM354.39374 33.76875L356.14374 33.534374Q356.45624 35.034374 357.175 35.690624Q357.90936 36.346874 358.95624 36.346874Q360.1906 36.346874 361.03436 35.4875Q361.89374 34.628124 361.89374 33.3625Q361.89374 32.14375 361.09686 31.3625Q360.3156 30.58125 359.09686 30.58125Q358.59686 30.58125 357.8625 30.76875L358.05 29.221874Q358.22186 29.253124 358.33124 29.253124Q359.45624 29.253124 360.34686 28.675Q361.2531 28.08125 361.2531 26.8625Q361.2531 25.89375 360.59686 25.253124Q359.9406 24.6125 358.90936 24.6125Q357.89374 24.6125 357.20624 25.26875Q356.51874 25.909374 356.33124 27.190624L354.5656 26.878124Q354.89374 25.1125 356.03436 24.14375Q357.175 23.175 358.8781 23.175Q360.05 23.175 361.03436 23.675Q362.01874 24.175 362.53436 25.05Q363.0656 25.925 363.0656 26.89375Q363.0656 27.815624 362.5656 28.58125Q362.0656 29.346874 361.09686 29.8Q362.3625 30.08125 363.0656 31.01875Q363.76874 31.940624 363.76874 33.315624Q363.76874 35.190624 362.39374 36.503124Q361.03436 37.8 358.9406 37.8Q357.05 37.8 355.8 36.675Q354.5656 35.55 354.39374 33.76875ZM366.3625 37.55L366.3625 35.55L368.3625 35.55L368.3625 37.55L366.3625 37.55ZM378.0031 37.55L376.2375 37.55L376.2375 26.346874Q375.6125 26.95625 374.58124 27.565624Q373.55 28.159374 372.72186 28.471874L372.72186 26.76875Q374.20624 26.08125 375.3 25.096874Q376.40936 24.096874 376.8625 23.175L378.0031 23.175L378.0031 37.55ZM382.39374 33.76875L384.14374 33.534374Q384.45624 35.034374 385.175 35.690624Q385.90936 36.346874 386.95624 36.346874Q388.1906 36.346874 389.03436 35.4875Q389.89374 34.628124 389.89374 33.3625Q389.89374 32.14375 389.09686 31.3625Q388.3156 30.58125 387.09686 30.58125Q386.59686 30.58125 385.8625 30.76875L386.05 29.221874Q386.22186 29.253124 386.33124 29.253124Q387.45624 29.253124 388.34686 28.675Q389.2531 28.08125 389.2531 26.8625Q389.2531 25.89375 388.59686 25.253124Q387.9406 24.6125 386.90936 24.6125Q385.89374 24.6125 385.20624 25.26875Q384.51874 25.909374 384.33124 27.190624L382.5656 26.878124Q382.89374 25.1125 384.03436 24.14375Q385.175 23.175 386.8781 23.175Q388.05 23.175 389.03436 23.675Q390.01874 24.175 390.53436 25.05Q391.0656 25.925 391.0656 26.89375Q391.0656 27.815624 390.5656 28.58125Q390.0656 29.346874 389.09686 29.8Q390.3625 30.08125 391.0656 31.01875Q391.76874 31.940624 391.76874 33.315624Q391.76874 35.190624 390.39374 36.503124Q389.03436 37.8 386.9406 37.8Q385.05 37.8 383.8 36.675Q382.5656 35.55 382.39374 33.76875Z" fill-rule="nonzero"/></svg>