<svg version="1.1" viewBox="0.0 0.0 600.0 371.0" fill="none" stroke="none" stroke-linecap="square" stroke-miterlimit="10" width="600" height="371" xmlns:xlink="http://www.w3.org/1999/xlink" xmlns="http://www.w3.org/2000/svg"><path fill="#ffffff" d="M0 0L600.0 0L600.0 371.0L0 371.0L0 0Z" fill-rule="nonzero"/><path stroke="#333333" stroke-width="1.0" stroke-linecap="butt" d="M69.5 332.5L581.5 332.5" fill-rule="nonzero"/><path stroke="#cccccc" stroke-width="1.0" stroke-linecap="butt" d="M69.5 271.5L581.5 271.5" fill-rule="nonzero"/><path stroke="#cccccc" stroke-width="1.0" stroke-linecap="butt" d="M69.5 209.5L581.5 209.5" fill-rule="nonzero"/><path stroke="#cccccc" stroke-width="1.0" stroke-linecap="butt" d="M69.5 148.5L581.5 148.5" fill-rule="nonzero"/><path stroke="#cccccc" stroke-width="1.0" stroke-linecap="butt" d="M69.5 86.5L581.5 86.5" fill-rule="nonzero"/><path stroke="#cccccc" stroke-width="1.0" stroke-linecap="butt" d="M69.5 25.5L581.5 25.5" fill-rule="nonzero"/><path stroke="#e6e6e6" stroke-width="1.0" stroke-linecap="butt" d="M69.5 311.5L581.5 311.5" fill-rule="nonzero"/><path stroke="#e6e6e6" stroke-width="1.0" stroke-linecap="butt" d="M69.5 291.5L581.5 291.5" fill-rule="nonzero"/><path stroke="#e6e6e6" stroke-width="1.0" stroke-linecap="butt" d="M69.5 250.5L581.5 250.5" fill-rule="nonzero"/><path stroke="#e6e6e6" stroke-width="1.0" stroke-linecap="butt" d="M69.5 230.5L581.5 230.5" fill-rule="nonzero"/><path stroke="#e6e6e6" stroke-width="1.0" stroke-linecap="butt" d="M69.5 189.5L581.5 189.5" fill-rule="nonzero"/><path stroke="#e6e6e6" stroke-width="1.0" stroke-linecap="butt" d="M69.5 168.5L581.5 168.5" fill-rule="nonzero"/><path stroke="#e6e6e6" stroke-width="1.0" stroke-linecap="butt" d="M69.5 127.5L581.5 127.5" fill-rule="nonzero"/><path stroke="#e6e6e6" stroke-width="1.0" stroke-linecap="butt" d="M69.5 107.5L581.5 107.5" fill-rule="nonzero"/><path stroke="#e6e6e6" stroke-width="1.0" stroke-linecap="butt" d="M69.5 66.5L581.5 66.5" fill-rule="nonzero"/><path stroke="#e6e6e6" stroke-width="1.0" stroke-linecap="butt" d="M69.5 46.5L581.5 46.5" fill-rule="nonzero"/><clipPath id="id_0"><path d="M69.55 25.55L581.45 25.55L581.45 332.45L69.55 332.45L69.55 25.55Z" clip-rule="nonzero"/></clipPath><path stroke="#000000" stroke-width="2.0" stroke-linecap="butt" stroke-opacity="0.0" clip-path="url(#id_0)" d="M223.0 332.0L124.0 332.0L124.0 59.0C124.0 57.89543 124.89543 57.0 126.0 57.0L221.0 57.0C222.10457 57.0 223.0 57.89543 223.0 59.0Z" fill-rule="nonzero"/><path fill="#4a86e8" clip-path="url(#id_0)" d="M223.0 332.0L124.0 332.0L124.0 59.0C124.0 57.89543 124.89543 57.0 126.0 57.0L221.0 57.0C222.10457 57.0 223.0 57.89543 223.0 59.0Z" fill-rule="nonzero"/><path stroke="#000000" stroke-width="2.0" stroke-linecap="butt" stroke-opacity="0.0" clip-path="url(#id_0)" d="M376.0 332.0L277.0 332.0L277.0 332.0L376.0 332.0Z" fill-rule="nonzero"/><path fill="#4285f4" clip-path="url(#id_0)" d="M376.0 332.0L277.0 332.0L277.0 332.0L376.0 332.0Z" fill-rule="nonzero"/><path stroke="#000000" stroke-width="2.0" stroke-linecap="butt" stroke-opacity="0.0" clip-path="url(#id_0)" d="M528.0 332.0L429.0 332.0L429.0 116.0C429.0 114.89543 429.89542 114.0 431.0 114.0L526.0 114.0C527.10455 114.0 528.0 114.89543 528.0 116.0Z" fill-rule="nonzero"/><path fill="#4285f4" clip-path="url(#id_0)" d="M528.0 332.0L429.0 332.0L429.0 116.0C429.0 114.89543 429.89542 114.0 431.0 114.0L526.0 114.0C527.10455 114.0 528.0 114.89543 528.0 116.0Z" fill-rule="nonzero"/><path stroke="#4a86e8" stroke-width="3.0" stroke-linejoin="round" stroke-linecap="round" d="M155.26562 73.786385L154.1875 73.786385L154.1875 66.567635L152.0 67.36451L152.0 66.380135L155.10938 65.20826L155.26562 65.20826L155.26562 73.786385ZM162.26562 73.786385L161.1875 73.786385L161.1875 66.567635L159.0 67.36451L159.0 66.380135L162.10938 65.20826L162.26562 65.20826L162.26562 73.786385ZM171.29688 73.786385L165.70312 73.786385L165.70312 73.005135L168.65625 69.723885Q169.3125 68.973885 169.5625 68.52076Q169.8125 68.05201 169.8125 67.55201Q169.8125 66.880135 169.40625 66.45826Q169.01562 66.02076 168.32812 66.02076Q167.53125 66.02076 167.07812 66.48951Q166.625 66.942635 166.625 67.77076L165.54688 67.77076Q165.54688 66.58326 166.29688 65.86451Q167.0625 65.130135 168.32812 65.130135Q169.53125 65.130135 170.21875 65.755135Q170.90625 66.380135 170.90625 67.42701Q170.90625 68.67701 169.29688 70.42701L167.01562 72.89576L171.29688 72.89576L171.29688 73.786385ZM172.78125 75.48951L172.17188 75.067635Q172.71875 74.30201 172.75 73.473885L172.75 72.505135L173.8125 72.505135L173.8125 73.348885Q173.8125 73.942635 173.51562 74.536385Q173.21875 75.130135 172.78125 75.48951ZM178.26562 73.786385L177.1875 73.786385L177.1875 66.567635L175.0 67.36451L175.0 66.380135L178.10938 65.20826L178.26562 65.20826L178.26562 73.786385ZM185.85938 70.036385Q185.53125 70.442635 185.04688 70.692635Q184.57812 70.92701 184.01562 70.92701Q183.28125 70.92701 182.73438 70.567635Q182.1875 70.20826 181.89062 69.55201Q181.59375 68.880135 181.59375 68.08326Q181.59375 67.23951 181.90625 66.55201Q182.23438 65.86451 182.82812 65.505135Q183.4375 65.130135 184.23438 65.130135Q185.5 65.130135 186.21875 66.08326Q186.95312 67.036385 186.95312 68.661385L186.95312 68.973885Q186.95312 71.473885 185.96875 72.61451Q184.98438 73.755135 183.0 73.786385L182.78125 73.786385L182.78125 72.880135L183.01562 72.880135Q184.35938 72.848885 185.07812 72.17701Q185.79688 71.505135 185.85938 70.036385ZM184.1875 70.036385Q184.73438 70.036385 185.1875 69.70826Q185.65625 69.36451 185.875 68.880135L185.875 68.442635Q185.875 67.380135 185.40625 66.70826Q184.9375 66.036385 184.23438 66.036385Q183.51562 66.036385 183.07812 66.58326Q182.65625 67.130135 182.65625 68.036385Q182.65625 68.911385 183.0625 69.473885Q183.48438 70.036385 184.1875 70.036385ZM192.96875 65.255135L192.96875 66.161385L192.76562 66.161385Q191.5 66.192635 190.75 66.92701Q190.0 67.64576 189.875 68.95826Q190.5625 68.192635 191.71875 68.192635Q192.82812 68.192635 193.5 68.973885Q194.17188 69.755135 194.17188 71.005135Q194.17188 72.317635 193.45312 73.11451Q192.73438 73.911385 191.51562 73.911385Q190.29688 73.911385 189.53125 72.973885Q188.78125 72.02076 188.78125 70.536385L188.78125 70.130135Q188.78125 67.77076 189.78125 66.52076Q190.78125 65.27076 192.76562 65.255135L192.96875 65.255135ZM191.54688 69.098885Q190.98438 69.098885 190.51562 69.42701Q190.04688 69.755135 189.85938 70.27076L189.85938 70.661385Q189.85938 71.723885 190.32812 72.36451Q190.8125 73.005135 191.51562 73.005135Q192.25 73.005135 192.67188 72.473885Q193.09375 71.92701 193.09375 71.05201Q193.09375 70.17701 192.67188 69.64576Q192.25 69.098885 191.54688 69.098885Z" fill-rule="nonzero"/><path fill="#ffffff" d="M155.26562 73.786385L154.1875 73.786385L154.1875 66.567635L152.0 67.36451L152.0 66.380135L155.10938 65.20826L155.26562 65.20826L155.26562 73.786385ZM162.26562 73.786385L161.1875 73.786385L161.1875 66.567635L159.0 67.36451L159.0 66.380135L162.10938 65.20826L162.26562 65.20826L162.26562 73.786385ZM171.29688 73.786385L165.70312 73.786385L165.70312 73.005135L168.65625 69.723885Q169.3125 68.973885 169.5625 68.52076Q169.8125 68.05201 169.8125 67.55201Q169.8125 66.880135 169.40625 66.45826Q169.01562 66.02076 168.32812 66.02076Q167.53125 66.02076 167.07812 66.48951Q166.625 66.942635 166.625 67.77076L165.54688 67.77076Q165.54688 66.58326 166.29688 65.86451Q167.0625 65.130135 168.32812 65.130135Q169.53125 65.130135 170.21875 65.755135Q170.90625 66.380135 170.90625 67.42701Q170.90625 68.67701 169.29688 70.42701L167.01562 72.89576L171.29688 72.89576L171.29688 73.786385ZM172.78125 75.48951L172.17188 75.067635Q172.71875 74.30201 172.75 73.473885L172.75 72.505135L173.8125 72.505135L173.8125 73.348885Q173.8125 73.942635 173.51562 74.536385Q173.21875 75.130135 172.78125 75.48951ZM178.26562 73.786385L177.1875 73.786385L177.1875 66.567635L175.0 67.36451L175.0 66.380135L178.10938 65.20826L178.26562 65.20826L178.26562 73.786385ZM185.85938 70.036385Q185.53125 70.442635 185.04688 70.692635Q184.57812 70.92701 184.01562 70.92701Q183.28125 70.92701 182.73438 70.567635Q182.1875 70.20826 181.89062 69.55201Q181.59375 68.880135 181.59375 68.08326Q181.59375 67.23951 181.90625 66.55201Q182.23438 65.86451 182.82812 65.505135Q183.4375 65.130135 184.23438 65.130135Q185.5 65.130135 186.21875 66.08326Q186.95312 67.036385 186.95312 68.661385L186.95312 68.973885Q186.95312 71.473885 185.96875 72.61451Q184.98438 73.755135 183.0 73.786385L182.78125 73.786385L182.78125 72.880135L183.01562 72.880135Q184.35938 72.848885 185.07812 72.17701Q185.79688 71.505135 185.85938 70.036385ZM184.1875 70.036385Q184.73438 70.036385 185.1875 69.70826Q185.65625 69.36451 185.875 68.880135L185.875 68.442635Q185.875 67.380135 185.40625 66.70826Q184.9375 66.036385 184.23438 66.036385Q183.51562 66.036385 183.07812 66.58326Q182.65625 67.130135 182.65625 68.036385Q182.65625 68.911385 183.0625 69.473885Q183.48438 70.036385 184.1875 70.036385ZM192.96875 65.255135L192.96875 66.161385L192.76562 66.161385Q191.5 66.192635 190.75 66.92701Q190.0 67.64576 189.875 68.95826Q190.5625 68.192635 191.71875 68.192635Q192.82812 68.192635 193.5 68.973885Q194.17188 69.755135 194.17188 71.005135Q194.17188 72.317635 193.45312 73.11451Q192.73438 73.911385 191.51562 73.911385Q190.29688 73.911385 189.53125 72.973885Q188.78125 72.02076 188.78125 70.536385L188.78125 70.130135Q188.78125 67.77076 189.78125 66.52076Q190.78125 65.27076 192.76562 65.255135L192.96875 65.255135ZM191.54688 69.098885Q190.98438 69.098885 190.51562 69.42701Q190.04688 69.755135 189.85938 70.27076L189.85938 70.661385Q189.85938 71.723885 190.32812 72.36451Q190.8125 73.005135 191.51562 73.005135Q192.25 73.005135 192.67188 72.473885Q193.09375 71.92701 193.09375 71.05201Q193.09375 70.17701 192.67188 69.64576Q192.25 69.098885 191.54688 69.098885Z" fill-rule="nonzero"/><path stroke="#ffffff" stroke-width="3.0" stroke-linejoin="round" stroke-linecap="round" d="M328.5625 313.8094Q328.5625 315.71564 327.90625 316.65314Q327.26562 317.575 325.875 317.575Q324.51562 317.575 323.85938 316.66876Q323.20312 315.7625 323.17188 313.95L323.17188 312.5125Q323.17188 310.6219 323.8125 309.71564Q324.46875 308.79376 325.85938 308.79376Q327.23438 308.79376 327.89062 309.6844Q328.54688 310.5594 328.5625 312.40314L328.5625 313.8094ZM327.46875 312.325Q327.46875 310.95 327.07812 310.325Q326.70312 309.6844 325.85938 309.6844Q325.03125 309.6844 324.64062 310.325Q324.26562 310.95 324.26562 312.2469L324.26562 313.98126Q324.26562 315.35626 324.65625 316.02814Q325.0625 316.6844 325.875 316.6844Q326.67188 316.6844 327.0625 316.0594Q327.45312 315.4344 327.46875 314.10626L327.46875 312.325Z" fill-rule="nonzero"/><path fill="#4285f4" d="M328.5625 313.8094Q328.5625 315.71564 327.90625 316.65314Q327.26562 317.575 325.875 317.575Q324.51562 317.575 323.85938 316.66876Q323.20312 315.7625 323.17188 313.95L323.17188 312.5125Q323.17188 310.6219 323.8125 309.71564Q324.46875 308.79376 325.85938 308.79376Q327.23438 308.79376 327.89062 309.6844Q328.54688 310.5594 328.5625 312.40314L328.5625 313.8094ZM327.46875 312.325Q327.46875 310.95 327.07812 310.325Q326.70312 309.6844 325.85938 309.6844Q325.03125 309.6844 324.64062 310.325Q324.26562 310.95 324.26562 312.2469L324.26562 313.98126Q324.26562 315.35626 324.65625 316.02814Q325.0625 316.6844 325.875 316.6844Q326.67188 316.6844 327.0625 316.0594Q327.45312 315.4344 327.46875 314.10626L327.46875 312.325Z" fill-rule="nonzero"/><path stroke="#4285f4" stroke-width="3.0" stroke-linejoin="round" stroke-linecap="round" d="M465.39062 124.640755Q465.39062 125.28138 465.04688 125.78138Q464.70312 126.28138 464.14062 126.56263Q464.79688 126.84388 465.1875 127.40638Q465.57812 127.953255 465.57812 128.65639Q465.57812 129.75014 464.82812 130.42201Q464.09375 131.07826 462.875 131.07826Q461.64062 131.07826 460.89062 130.42201Q460.15625 129.75014 460.15625 128.65639Q460.15625 127.953255 460.53125 127.40638Q460.90625 126.84388 461.57812 126.56263Q461.01562 126.28138 460.6875 125.78138Q460.35938 125.28138 460.35938 124.640755Q460.35938 123.56263 461.04688 122.93763Q461.73438 122.297005 462.875 122.297005Q464.0 122.297005 464.6875 122.93763Q465.39062 123.56263 465.39062 124.640755ZM464.5 128.62514Q464.5 127.90638 464.04688 127.46888Q463.59375 127.015755 462.85938 127.015755Q462.125 127.015755 461.67188 127.46888Q461.23438 127.90638 461.23438 128.64076Q461.23438 129.35951 461.67188 129.78139Q462.10938 130.18764 462.875 130.18764Q463.625 130.18764 464.0625 129.76576Q464.5 129.34389 464.5 128.62514ZM462.875 123.18763Q462.23438 123.18763 461.82812 123.59388Q461.4375 123.984505 461.4375 124.672005Q461.4375 125.31263 461.82812 125.71888Q462.21875 126.12513 462.85938 126.12513Q463.51562 126.12513 463.90625 125.71888Q464.29688 125.31263 464.29688 124.672005Q464.29688 124.015755 463.89062 123.609505Q463.48438 123.18763 462.875 123.18763ZM472.39062 124.640755Q472.39062 125.28138 472.04688 125.78138Q471.70312 126.28138 471.14062 126.56263Q471.79688 126.84388 472.1875 127.40638Q472.57812 127.953255 472.57812 128.65639Q472.57812 129.75014 471.82812 130.42201Q471.09375 131.07826 469.875 131.07826Q468.64062 131.07826 467.89062 130.42201Q467.15625 129.75014 467.15625 128.65639Q467.15625 127.953255 467.53125 127.40638Q467.90625 126.84388 468.57812 126.56263Q468.01562 126.28138 467.6875 125.78138Q467.35938 125.28138 467.35938 124.640755Q467.35938 123.56263 468.04688 122.93763Q468.73438 122.297005 469.875 122.297005Q471.0 122.297005 471.6875 122.93763Q472.39062 123.56263 472.39062 124.640755ZM471.5 128.62514Q471.5 127.90638 471.04688 127.46888Q470.59375 127.015755 469.85938 127.015755Q469.125 127.015755 468.67188 127.46888Q468.23438 127.90638 468.23438 128.64076Q468.23438 129.35951 468.67188 129.78139Q469.10938 130.18764 469.875 130.18764Q470.625 130.18764 471.0625 129.76576Q471.5 129.34389 471.5 128.62514ZM469.875 123.18763Q469.23438 123.18763 468.82812 123.59388Q468.4375 123.984505 468.4375 124.672005Q468.4375 125.31263 468.82812 125.71888Q469.21875 126.12513 469.85938 126.12513Q470.51562 126.12513 470.90625 125.71888Q471.29688 125.31263 471.29688 124.672005Q471.29688 124.015755 470.89062 123.609505Q470.48438 123.18763 469.875 123.18763ZM474.28125 132.65639L473.67188 132.23451Q474.21875 131.46889 474.25 130.64076L474.25 129.67201L475.3125 129.67201L475.3125 130.51576Q475.3125 131.10951 475.01562 131.70326Q474.71875 132.29701 474.28125 132.65639ZM480.35938 127.203255Q480.03125 127.609505 479.54688 127.859505Q479.07812 128.09389 478.51562 128.09389Q477.78125 128.09389 477.23438 127.734505Q476.6875 127.37513 476.39062 126.71888Q476.09375 126.047005 476.09375 125.25013Q476.09375 124.40638 476.40625 123.71888Q476.73438 123.03138 477.32812 122.672005Q477.9375 122.297005 478.73438 122.297005Q480.0 122.297005 480.71875 123.25013Q481.45312 124.203255 481.45312 125.828255L481.45312 126.140755Q481.45312 128.64076 480.46875 129.78139Q479.48438 130.92201 477.5 130.95326L477.28125 130.95326L477.28125 130.04701L477.51562 130.04701Q478.85938 130.01576 479.57812 129.34389Q480.29688 128.67201 480.35938 127.203255ZM478.6875 127.203255Q479.23438 127.203255 479.6875 126.87513Q480.15625 126.53138 480.375 126.047005L480.375 125.609505Q480.375 124.547005 479.90625 123.87513Q479.4375 123.203255 478.73438 123.203255Q478.01562 123.203255 477.57812 123.75013Q477.15625 124.297005 477.15625 125.203255Q477.15625 126.078255 477.5625 126.640755Q477.98438 127.203255 478.6875 127.203255ZM486.76562 130.95326L485.6875 130.95326L485.6875 123.734505L483.5 124.53138L483.5 123.547005L486.60938 122.37513L486.76562 122.37513L486.76562 130.95326ZM495.79688 130.95326L490.20312 130.95326L490.20312 130.17201L493.15625 126.890755Q493.8125 126.140755 494.0625 125.68763Q494.3125 125.21888 494.3125 124.71888Q494.3125 124.047005 493.90625 123.62513Q493.51562 123.18763 492.82812 123.18763Q492.03125 123.18763 491.57812 123.65638Q491.125 124.109505 491.125 124.93763L490.04688 124.93763Q490.04688 123.75013 490.79688 123.03138Q491.5625 122.297005 492.82812 122.297005Q494.03125 122.297005 494.71875 122.922005Q495.40625 123.547005 495.40625 124.59388Q495.40625 125.84388 493.79688 127.59388L491.51562 130.06264L495.79688 130.06264L495.79688 130.95326Z" fill-rule="nonzero"/><path fill="#ffffff" d="M465.39062 124.64076Q465.39062 125.28139 465.04688 125.78139Q464.70312 126.28139 464.14062 126.56264Q464.79688 126.84389 465.1875 127.40639Q465.57812 127.95326 465.57812 128.65639Q465.57812 129.75014 464.82812 130.42201Q464.09375 131.07826 462.875 131.07826Q461.64062 131.07826 460.89062 130.42201Q460.15625 129.75014 460.15625 128.65639Q460.15625 127.95326 460.53125 127.40639Q460.90625 126.84389 461.57812 126.56264Q461.01562 126.28139 460.6875 125.78139Q460.35938 125.28139 460.35938 124.64076Q460.35938 123.56264 461.04688 122.93764Q461.73438 122.29701 462.875 122.29701Q464.0 122.29701 464.6875 122.93764Q465.39062 123.56264 465.39062 124.64076ZM464.5 128.62514Q464.5 127.90639 464.04688 127.46889Q463.59375 127.01576 462.85938 127.01576Q462.125 127.01576 461.67188 127.46889Q461.23438 127.90639 461.23438 128.64076Q461.23438 129.35951 461.67188 129.78139Q462.10938 130.18764 462.875 130.18764Q463.625 130.18764 464.0625 129.76576Q464.5 129.34389 464.5 128.62514ZM462.875 123.18764Q462.23438 123.18764 461.82812 123.59389Q461.4375 123.98451 461.4375 124.67201Q461.4375 125.31264 461.82812 125.71889Q462.21875 126.12514 462.85938 126.12514Q463.51562 126.12514 463.90625 125.71889Q464.29688 125.31264 464.29688 124.67201Q464.29688 124.01576 463.89062 123.60951Q463.48438 123.18764 462.875 123.18764ZM472.39062 124.64076Q472.39062 125.28139 472.04688 125.78139Q471.70312 126.28139 471.14062 126.56264Q471.79688 126.84389 472.1875 127.40639Q472.57812 127.95326 472.57812 128.65639Q472.57812 129.75014 471.82812 130.42201Q471.09375 131.07826 469.875 131.07826Q468.64062 131.07826 467.89062 130.42201Q467.15625 129.75014 467.15625 128.65639Q467.15625 127.95326 467.53125 127.40639Q467.90625 126.84389 468.57812 126.56264Q468.01562 126.28139 467.6875 125.78139Q467.35938 125.28139 467.35938 124.64076Q467.35938 123.56264 468.04688 122.93764Q468.73438 122.29701 469.875 122.29701Q471.0 122.29701 471.6875 122.93764Q472.39062 123.56264 472.39062 124.64076ZM471.5 128.62514Q471.5 127.90639 471.04688 127.46889Q470.59375 127.01576 469.85938 127.01576Q469.125 127.01576 468.67188 127.46889Q468.23438 127.90639 468.23438 128.64076Q468.23438 129.35951 468.67188 129.78139Q469.10938 130.18764 469.875 130.18764Q470.625 130.18764 471.0625 129.76576Q471.5 129.34389 471.5 128.62514ZM469.875 123.18764Q469.23438 123.18764 468.82812 123.59389Q468.4375 123.98451 468.4375 124.67201Q468.4375 125.31264 468.82812 125.71889Q469.21875 126.12514 469.85938 126.12514Q470.51562 126.12514 470.90625 125.71889Q471.29688 125.31264 471.29688 124.67201Q471.29688 124.01576 470.89062 123.60951Q470.48438 123.18764 469.875 123.18764ZM474.28125 132.65639L473.67188 132.23451Q474.21875 131.46889 474.25 130.64076L474.25 129.67201L475.3125 129.67201L475.3125 130.51576Q475.3125 131.10951 475.01562 131.70326Q474.71875 132.29701 474.28125 132.65639ZM480.35938 127.20326Q480.03125 127.60951 479.54688 127.85951Q479.07812 128.09389 478.51562 128.09389Q477.78125 128.09389 477.23438 127.73451Q476.6875 127.37514 476.39062 126.71889Q476.09375 126.04701 476.09375 125.25014Q476.09375 124.40639 476.40625 123.71889Q476.73438 123.03139 477.32812 122.67201Q477.9375 122.29701 478.73438 122.29701Q480.0 122.29701 480.71875 123.25014Q481.45312 124.20326 481.45312 125.82826L481.45312 126.14076Q481.45312 128.64076 480.46875 129.78139Q479.48438 130.92201 477.5 130.95326L477.28125 130.95326L477.28125 130.04701L477.51562 130.04701Q478.85938 130.01576 479.57812 129.34389Q480.29688 128.67201 480.35938 127.20326ZM478.6875 127.20326Q479.23438 127.20326 479.6875 126.87514Q480.15625 126.53139 480.375 126.04701L480.375 125.60951Q480.375 124.54701 479.90625 123.87514Q479.4375 123.20326 478.73438 123.20326Q478.01562 123.20326 477.57812 123.75014Q477.15625 124.29701 477.15625 125.20326Q477.15625 126.07826 477.5625 126.64076Q477.98438 127.20326 478.6875 127.20326ZM486.76562 130.95326L485.6875 130.95326L485.6875 123.73451L483.5 124.53139L483.5 123.54701L486.60938 122.37514L486.76562 122.37514L486.76562 130.95326ZM495.79688 130.95326L490.20312 130.95326L490.20312 130.17201L493.15625 126.89076Q493.8125 126.14076 494.0625 125.68764Q494.3125 125.21889 494.3125 124.71889Q494.3125 124.04701 493.90625 123.62514Q493.51562 123.18764 492.82812 123.18764Q492.03125 123.18764 491.57812 123.65639Q491.125 124.10951 491.125 124.93764L490.04688 124.93764Q490.04688 123.75014 490.79688 123.03139Q491.5625 122.29701 492.82812 122.29701Q494.03125 122.29701 494.71875 122.92201Q495.40625 123.54701 495.40625 124.59389Q495.40625 125.84389 493.79688 127.59389L491.51562 130.06264L495.79688 130.06264L495.79688 130.95326Z" fill-rule="nonzero"/><path fill="#000000" d="M57.05 332.21564Q57.05 330.6844 57.3625 329.7625Q57.675 328.825 58.284374 328.325Q58.909374 327.825 59.846874 327.825Q60.534374 327.825 61.05 328.10626Q61.58125 328.3875 61.925 328.91876Q62.26875 329.4344 62.45625 330.1844Q62.64375 330.9344 62.64375 332.21564Q62.64375 333.73126 62.33125 334.65314Q62.034374 335.575 61.409374 336.09064Q60.8 336.59064 59.846874 336.59064Q58.6125 336.59064 57.89375 335.7Q57.05 334.6375 57.05 332.21564ZM58.128124 332.21564Q58.128124 334.325 58.628124 335.02814Q59.128124 335.73126 59.846874 335.73126Q60.58125 335.73126 61.065624 335.02814Q61.565624 334.325 61.565624 332.21564Q61.565624 330.09064 61.065624 329.40314Q60.58125 328.7 59.83125 328.7Q59.1125 328.7 58.675 329.3094Q58.128124 330.09064 58.128124 332.21564Z" fill-rule="nonzero"/><path fill="#000000" d="M31.596874 274.05438L31.596874 275.07L25.909374 275.07Q25.909374 274.695 26.034374 274.33563Q26.253124 273.7575 26.721874 273.195Q27.20625 272.6325 28.1125 271.89813Q29.51875 270.74188 30.003124 270.07Q30.503124 269.39813 30.503124 268.80438Q30.503124 268.17938 30.05 267.7575Q29.596874 267.32 28.878124 267.32Q28.1125 267.32 27.659374 267.77313Q27.20625 268.22626 27.190624 269.03876L26.1125 268.92938Q26.221874 267.71063 26.940624 267.08563Q27.675 266.445 28.909374 266.445Q30.14375 266.445 30.8625 267.1325Q31.58125 267.82 31.58125 268.83563Q31.58125 269.35126 31.3625 269.85126Q31.159374 270.33563 30.659374 270.89813Q30.175 271.445 29.05 272.39813Q28.096874 273.195 27.815624 273.49188Q27.55 273.77313 27.378124 274.05438L31.596874 274.05438ZM33.05 272.82L34.159374 272.72626Q34.284374 273.53876 34.721874 273.945Q35.175 274.35126 35.815624 274.35126Q36.565624 274.35126 37.096874 273.77313Q37.628124 273.195 37.628124 272.2575Q37.628124 271.35126 37.1125 270.83563Q36.6125 270.30438 35.784374 270.30438Q35.284374 270.30438 34.8625 270.53876Q34.45625 270.77313 34.221874 271.1325L33.2375 271.0075L34.065624 266.60126L38.346874 266.60126L38.346874 267.60126L34.909374 267.60126L34.45625 269.91376Q35.221874 269.36688 36.065624 269.36688Q37.190624 269.36688 37.95625 270.14813Q38.7375 270.92938 38.7375 272.16376Q38.7375 273.32 38.065624 274.17938Q37.2375 275.21063 35.815624 275.21063Q34.64375 275.21063 33.89375 274.55438Q33.159374 273.89813 33.05 272.82ZM40.6125 275.07L40.6125 273.86688L41.815624 273.86688L41.815624 275.07Q41.815624 275.72626 41.58125 276.1325Q41.346874 276.55438 40.846874 276.77313L40.55 276.32Q40.878124 276.17938 41.034374 275.8825Q41.190624 275.60126 41.221874 275.07L40.6125 275.07ZM43.05 270.83563Q43.05 269.30438 43.3625 268.3825Q43.675 267.445 44.284374 266.945Q44.909374 266.445 45.846874 266.445Q46.534374 266.445 47.05 266.72626Q47.58125 267.0075 47.925 267.53876Q48.26875 268.05438 48.45625 268.80438Q48.64375 269.55438 48.64375 270.83563Q48.64375 272.35126 48.33125 273.27313Q48.034374 274.195 47.409374 274.71063Q46.8 275.21063 45.846874 275.21063Q44.6125 275.21063 43.89375 274.32Q43.05 273.2575 43.05 270.83563ZM44.128124 270.83563Q44.128124 272.945 44.628124 273.64813Q45.128124 274.35126 45.846874 274.35126Q46.58125 274.35126 47.065624 273.64813Q47.565624 272.945 47.565624 270.83563Q47.565624 268.71063 47.065624 268.02313Q46.58125 267.32 45.83125 267.32Q45.1125 267.32 44.675 267.92938Q44.128124 268.71063 44.128124 270.83563ZM50.05 270.83563Q50.05 269.30438 50.3625 268.3825Q50.675 267.445 51.284374 266.945Q51.909374 266.445 52.846874 266.445Q53.534374 266.445 54.05 266.72626Q54.58125 267.0075 54.925 267.53876Q55.26875 268.05438 55.45625 268.80438Q55.64375 269.55438 55.64375 270.83563Q55.64375 272.35126 55.33125 273.27313Q55.034374 274.195 54.409374 274.71063Q53.8 275.21063 52.846874 275.21063Q51.6125 275.21063 50.89375 274.32Q50.05 273.2575 50.05 270.83563ZM51.128124 270.83563Q51.128124 272.945 51.628124 273.64813Q52.128124 274.35126 52.846874 274.35126Q53.58125 274.35126 54.065624 273.64813Q54.565624 272.945 54.565624 270.83563Q54.565624 268.71063 54.065624 268.02313Q53.58125 267.32 52.83125 267.32Q52.1125 267.32 51.675 267.92938Q51.128124 268.71063 51.128124 270.83563ZM57.05 270.83563Q57.05 269.30438 57.3625 268.3825Q57.675 267.445 58.284374 266.945Q58.909374 266.445 59.846874 266.445Q60.534374 266.445 61.05 266.72626Q61.58125 267.0075 61.925 267.53876Q62.26875 268.05438 62.45625 268.80438Q62.64375 269.55438 62.64375 270.83563Q62.64375 272.35126 62.33125 273.27313Q62.034374 274.195 61.409374 274.71063Q60.8 275.21063 59.846874 275.21063Q58.6125 275.21063 57.89375 274.32Q57.05 273.2575 57.05 270.83563ZM58.128124 270.83563Q58.128124 272.945 58.628124 273.64813Q59.128124 274.35126 59.846874 274.35126Q60.58125 274.35126 61.065624 273.64813Q61.565624 272.945 61.565624 270.83563Q61.565624 268.71063 61.065624 268.02313Q60.58125 267.32 59.83125 267.32Q59.1125 267.32 58.675 267.92938Q58.128124 268.71063 58.128124 270.83563Z" fill-rule="nonzero"/><path fill="#000000" d="M26.05 211.44L27.159374 211.34625Q27.284374 212.15875 27.721874 212.565Q28.175 212.97125 28.815624 212.97125Q29.565624 212.97125 30.096874 212.39313Q30.628124 211.815 30.628124 210.8775Q30.628124 209.97125 30.1125 209.45563Q29.6125 208.92438 28.784374 208.92438Q28.284374 208.92438 27.8625 209.15875Q27.45625 209.39313 27.221874 209.7525L26.2375 209.6275L27.065624 205.22125L31.346874 205.22125L31.346874 206.22125L27.909374 206.22125L27.45625 208.53375Q28.221874 207.98688 29.065624 207.98688Q30.190624 207.98688 30.95625 208.76813Q31.7375 209.54938 31.7375 210.78375Q31.7375 211.94 31.065624 212.79938Q30.2375 213.83063 28.815624 213.83063Q27.64375 213.83063 26.89375 213.17438Q26.159374 212.51813 26.05 211.44ZM33.05 209.45563Q33.05 207.92438 33.3625 207.0025Q33.675 206.065 34.284374 205.565Q34.909374 205.065 35.846874 205.065Q36.534374 205.065 37.05 205.34625Q37.58125 205.6275 37.925 206.15875Q38.26875 206.67438 38.45625 207.42438Q38.64375 208.17438 38.64375 209.45563Q38.64375 210.97125 38.33125 211.89313Q38.034374 212.815 37.409374 213.33063Q36.8 213.83063 35.846874 213.83063Q34.6125 213.83063 33.89375 212.94Q33.05 211.8775 33.05 209.45563ZM34.128124 209.45563Q34.128124 211.565 34.628124 212.26813Q35.128124 212.97125 35.846874 212.97125Q36.58125 212.97125 37.065624 212.26813Q37.565624 211.565 37.565624 209.45563Q37.565624 207.33063 37.065624 206.64313Q36.58125 205.94 35.83125 205.94Q35.1125 205.94 34.675 206.54938Q34.128124 207.33063 34.128124 209.45563ZM40.6125 213.69L40.6125 212.48688L41.815624 212.48688L41.815624 213.69Q41.815624 214.34625 41.58125 214.7525Q41.346874 215.17438 40.846874 215.39313L40.55 214.94Q40.878124 214.79938 41.034374 214.5025Q41.190624 214.22125 41.221874 213.69L40.6125 213.69ZM43.05 209.45563Q43.05 207.92438 43.3625 207.0025Q43.675 206.065 44.284374 205.565Q44.909374 205.065 45.846874 205.065Q46.534374 205.065 47.05 205.34625Q47.58125 205.6275 47.925 206.15875Q48.26875 206.67438 48.45625 207.42438Q48.64375 208.17438 48.64375 209.45563Q48.64375 210.97125 48.33125 211.89313Q48.034374 212.815 47.409374 213.33063Q46.8 213.83063 45.846874 213.83063Q44.6125 213.83063 43.89375 212.94Q43.05 211.8775 43.05 209.45563ZM44.128124 209.45563Q44.128124 211.565 44.628124 212.26813Q45.128124 212.97125 45.846874 212.97125Q46.58125 212.97125 47.065624 212.26813Q47.565624 211.565 47.565624 209.45563Q47.565624 207.33063 47.065624 206.64313Q46.58125 205.94 45.83125 205.94Q45.1125 205.94 44.675 206.54938Q44.128124 207.33063 44.128124 209.45563ZM50.05 209.45563Q50.05 207.92438 50.3625 207.0025Q50.675 206.065 51.284374 205.565Q51.909374 205.065 52.846874 205.065Q53.534374 205.065 54.05 205.34625Q54.58125 205.6275 54.925 206.15875Q55.26875 206.67438 55.45625 207.42438Q55.64375 208.17438 55.64375 209.45563Q55.64375 210.97125 55.33125 211.89313Q55.034374 212.815 54.409374 213.33063Q53.8 213.83063 52.846874 213.83063Q51.6125 213.83063 50.89375 212.94Q50.05 211.8775 50.05 209.45563ZM51.128124 209.45563Q51.128124 211.565 51.628124 212.26813Q52.128124 212.97125 52.846874 212.97125Q53.58125 212.97125 54.065624 212.26813Q54.565624 211.565 54.565624 209.45563Q54.565624 207.33063 54.065624 206.64313Q53.58125 205.94 52.83125 205.94Q52.1125 205.94 51.675 206.54938Q51.128124 207.33063 51.128124 209.45563ZM57.05 209.45563Q57.05 207.92438 57.3625 207.0025Q57.675 206.065 58.284374 205.565Q58.909374 205.065 59.846874 205.065Q60.534374 205.065 61.05 205.34625Q61.58125 205.6275 61.925 206.15875Q62.26875 206.67438 62.45625 207.42438Q62.64375 208.17438 62.64375 209.45563Q62.64375 210.97125 62.33125 211.89313Q62.034374 212.815 61.409374 213.33063Q60.8 213.83063 59.846874 213.83063Q58.6125 213.83063 57.89375 212.94Q57.05 211.8775 57.05 209.45563ZM58.128124 209.45563Q58.128124 211.565 58.628124 212.26813Q59.128124 212.97125 59.846874 212.97125Q60.58125 212.97125 61.065624 212.26813Q61.565624 211.565 61.565624 209.45563Q61.565624 207.33063 61.065624 206.64313Q60.58125 205.94 59.83125 205.94Q59.1125 205.94 58.675 206.54938Q58.128124 207.33063 58.128124 209.45563Z" fill-rule="nonzero"/><path fill="#000000" d="M26.1125 144.84125L26.1125 143.82562L31.675 143.82562L31.675 144.65375Q30.8625 145.52875 30.05 146.98187Q29.253124 148.41937 28.815624 149.95062Q28.4875 151.02875 28.409374 152.31L27.315624 152.31Q27.33125 151.29437 27.70625 149.85687Q28.096874 148.41937 28.8 147.09125Q29.51875 145.76312 30.33125 144.84125L26.1125 144.84125ZM33.05 150.06L34.159374 149.96625Q34.284374 150.77875 34.721874 151.185Q35.175 151.59125 35.815624 151.59125Q36.565624 151.59125 37.096874 151.01312Q37.628124 150.435 37.628124 149.4975Q37.628124 148.59125 37.1125 148.07562Q36.6125 147.54437 35.784374 147.54437Q35.284374 147.54437 34.8625 147.77875Q34.45625 148.01312 34.221874 148.3725L33.2375 148.2475L34.065624 143.84125L38.346874 143.84125L38.346874 144.84125L34.909374 144.84125L34.45625 147.15375Q35.221874 146.60687 36.065624 146.60687Q37.190624 146.60687 37.95625 147.38812Q38.7375 148.16937 38.7375 149.40375Q38.7375 150.56 38.065624 151.41937Q37.2375 152.45062 35.815624 152.45062Q34.64375 152.45062 33.89375 151.79437Q33.159374 151.13812 33.05 150.06ZM40.6125 152.31L40.6125 151.10687L41.815624 151.10687L41.815624 152.31Q41.815624 152.96625 41.58125 153.3725Q41.346874 153.79437 40.846874 154.01312L40.55 153.56Q40.878124 153.41937 41.034374 153.1225Q41.190624 152.84125 41.221874 152.31L40.6125 152.31ZM43.05 148.07562Q43.05 146.54437 43.3625 145.6225Q43.675 144.685 44.284374 144.185Q44.909374 143.685 45.846874 143.685Q46.534374 143.685 47.05 143.96625Q47.58125 144.2475 47.925 144.77875Q48.26875 145.29437 48.45625 146.04437Q48.64375 146.79437 48.64375 148.07562Q48.64375 149.59125 48.33125 150.51312Q48.034374 151.435 47.409374 151.95062Q46.8 152.45062 45.846874 152.45062Q44.6125 152.45062 43.89375 151.56Q43.05 150.4975 43.05 148.07562ZM44.128124 148.07562Q44.128124 150.185 44.628124 150.88812Q45.128124 151.59125 45.846874 151.59125Q46.58125 151.59125 47.065624 150.88812Q47.565624 150.185 47.565624 148.07562Q47.565624 145.95062 47.065624 145.26312Q46.58125 144.56 45.83125 144.56Q45.1125 144.56 44.675 145.16937Q44.128124 145.95062 44.128124 148.07562ZM50.05 148.07562Q50.05 146.54437 50.3625 145.6225Q50.675 144.685 51.284374 144.185Q51.909374 143.685 52.846874 143.685Q53.534374 143.685 54.05 143.96625Q54.58125 144.2475 54.925 144.77875Q55.26875 145.29437 55.45625 146.04437Q55.64375 146.79437 55.64375 148.07562Q55.64375 149.59125 55.33125 150.51312Q55.034374 151.435 54.409374 151.95062Q53.8 152.45062 52.846874 152.45062Q51.6125 152.45062 50.89375 151.56Q50.05 150.4975 50.05 148.07562ZM51.128124 148.07562Q51.128124 150.185 51.628124 150.88812Q52.128124 151.59125 52.846874 151.59125Q53.58125 151.59125 54.065624 150.88812Q54.565624 150.185 54.565624 148.07562Q54.565624 145.95062 54.065624 145.26312Q53.58125 144.56 52.83125 144.56Q52.1125 144.56 51.675 145.16937Q51.128124 145.95062 51.128124 148.07562ZM57.05 148.07562Q57.05 146.54437 57.3625 145.6225Q57.675 144.685 58.284374 144.185Q58.909374 143.685 59.846874 143.685Q60.534374 143.685 61.05 143.96625Q61.58125 144.2475 61.925 144.77875Q62.26875 145.29437 62.45625 146.04437Q62.64375 146.79437 62.64375 148.07562Q62.64375 149.59125 62.33125 150.51312Q62.034374 151.435 61.409374 151.95062Q60.8 152.45062 59.846874 152.45062Q58.6125 152.45062 57.89375 151.56Q57.05 150.4975 57.05 148.07562ZM58.128124 148.07562Q58.128124 150.185 58.628124 150.88812Q59.128124 151.59125 59.846874 151.59125Q60.58125 151.59125 61.065624 150.88812Q61.565624 150.185 61.565624 148.07562Q61.565624 145.95062 61.065624 145.26312Q60.58125 144.56 59.83125 144.56Q59.1125 144.56 58.675 145.16937Q58.128124 145.95062 58.128124 148.07562Z" fill-rule="nonzero"/><path fill="#000000" d="M23.01875 90.93L21.971874 90.93L21.971874 84.21125Q21.58125 84.570625 20.95625 84.945625Q20.346874 85.305 19.8625 85.476875L19.8625 84.46125Q20.7375 84.039375 21.39375 83.46125Q22.065624 82.8675 22.346874 82.305L23.01875 82.305L23.01875 90.93ZM26.05 86.695625Q26.05 85.164375 26.3625 84.2425Q26.675 83.305 27.284374 82.805Q27.909374 82.305 28.846874 82.305Q29.534374 82.305 30.05 82.58625Q30.58125 82.8675 30.925 83.39875Q31.26875 83.914375 31.45625 84.664375Q31.64375 85.414375 31.64375 86.695625Q31.64375 88.21125 31.33125 89.133125Q31.034374 90.055 30.409374 90.570625Q29.8 91.070625 28.846874 91.070625Q27.6125 91.070625 26.89375 90.18Q26.05 89.1175 26.05 86.695625ZM27.128124 86.695625Q27.128124 88.805 27.628124 89.508125Q28.128124 90.21125 28.846874 90.21125Q29.58125 90.21125 30.065624 89.508125Q30.565624 88.805 30.565624 86.695625Q30.565624 84.570625 30.065624 83.883125Q29.58125 83.18 28.83125 83.18Q28.1125 83.18 27.675 83.789375Q27.128124 84.570625 27.128124 86.695625ZM33.05 86.695625Q33.05 85.164375 33.3625 84.2425Q33.675 83.305 34.284374 82.805Q34.909374 82.305 35.846874 82.305Q36.534374 82.305 37.05 82.58625Q37.58125 82.8675 37.925 83.39875Q38.26875 83.914375 38.45625 84.664375Q38.64375 85.414375 38.64375 86.695625Q38.64375 88.21125 38.33125 89.133125Q38.034374 90.055 37.409374 90.570625Q36.8 91.070625 35.846874 91.070625Q34.6125 91.070625 33.89375 90.18Q33.05 89.1175 33.05 86.695625ZM34.128124 86.695625Q34.128124 88.805 34.628124 89.508125Q35.128124 90.21125 35.846874 90.21125Q36.58125 90.21125 37.065624 89.508125Q37.565624 88.805 37.565624 86.695625Q37.565624 84.570625 37.065624 83.883125Q36.58125 83.18 35.83125 83.18Q35.1125 83.18 34.675 83.789375Q34.128124 84.570625 34.128124 86.695625ZM40.6125 90.93L40.6125 89.726875L41.815624 89.726875L41.815624 90.93Q41.815624 91.58625 41.58125 91.9925Q41.346874 92.414375 40.846874 92.633125L40.55 92.18Q40.878124 92.039375 41.034374 91.7425Q41.190624 91.46125 41.221874 90.93L40.6125 90.93ZM43.05 86.695625Q43.05 85.164375 43.3625 84.2425Q43.675 83.305 44.284374 82.805Q44.909374 82.305 45.846874 82.305Q46.534374 82.305 47.05 82.58625Q47.58125 82.8675 47.925 83.39875Q48.26875 83.914375 48.45625 84.664375Q48.64375 85.414375 48.64375 86.695625Q48.64375 88.21125 48.33125 89.133125Q48.034374 90.055 47.409374 90.570625Q46.8 91.070625 45.846874 91.070625Q44.6125 91.070625 43.89375 90.18Q43.05 89.1175 43.05 86.695625ZM44.128124 86.695625Q44.128124 88.805 44.628124 89.508125Q45.128124 90.21125 45.846874 90.21125Q46.58125 90.21125 47.065624 89.508125Q47.565624 88.805 47.565624 86.695625Q47.565624 84.570625 47.065624 83.883125Q46.58125 83.18 45.83125 83.18Q45.1125 83.18 44.675 83.789375Q44.128124 84.570625 44.128124 86.695625ZM50.05 86.695625Q50.05 85.164375 50.3625 84.2425Q50.675 83.305 51.284374 82.805Q51.909374 82.305 52.846874 82.305Q53.534374 82.305 54.05 82.58625Q54.58125 82.8675 54.925 83.39875Q55.26875 83.914375 55.45625 84.664375Q55.64375 85.414375 55.64375 86.695625Q55.64375 88.21125 55.33125 89.133125Q55.034374 90.055 54.409374 90.570625Q53.8 91.070625 52.846874 91.070625Q51.6125 91.070625 50.89375 90.18Q50.05 89.1175 50.05 86.695625ZM51.128124 86.695625Q51.128124 88.805 51.628124 89.508125Q52.128124 90.21125 52.846874 90.21125Q53.58125 90.21125 54.065624 89.508125Q54.565624 88.805 54.565624 86.695625Q54.565624 84.570625 54.065624 83.883125Q53.58125 83.18 52.83125 83.18Q52.1125 83.18 51.675 83.789375Q51.128124 84.570625 51.128124 86.695625ZM57.05 86.695625Q57.05 85.164375 57.3625 84.2425Q57.675 83.305 58.284374 82.805Q58.909374 82.305 59.846874 82.305Q60.534374 82.305 61.05 82.58625Q61.58125 82.8675 61.925 83.39875Q62.26875 83.914375 62.45625 84.664375Q62.64375 85.414375 62.64375 86.695625Q62.64375 88.21125 62.33125 89.133125Q62.034374 90.055 61.409374 90.570625Q60.8 91.070625 59.846874 91.070625Q58.6125 91.070625 57.89375 90.18Q57.05 89.1175 57.05 86.695625ZM58.128124 86.695625Q58.128124 88.805 58.628124 89.508125Q59.128124 90.21125 59.846874 90.21125Q60.58125 90.21125 61.065624 89.508125Q61.565624 88.805 61.565624 86.695625Q61.565624 84.570625 61.065624 83.883125Q60.58125 83.18 59.83125 83.18Q59.1125 83.18 58.675 83.789375Q58.128124 84.570625 58.128124 86.695625Z" fill-rule="nonzero"/><path fill="#000000" d="M23.01875 29.55L21.971874 29.55L21.971874 22.83125Q21.58125 23.190624 20.95625 23.565624Q20.346874 23.925 19.8625 24.096874L19.8625 23.08125Q20.7375 22.659374 21.39375 22.08125Q22.065624 21.4875 22.346874 20.925L23.01875 20.925L23.01875 29.55ZM31.596874 28.534374L31.596874 29.55L25.909374 29.55Q25.909374 29.175 26.034374 28.815624Q26.253124 28.2375 26.721874 27.675Q27.20625 27.1125 28.1125 26.378124Q29.51875 25.221874 30.003124 24.55Q30.503124 23.878124 30.503124 23.284374Q30.503124 22.659374 30.05 22.2375Q29.596874 21.8 28.878124 21.8Q28.1125 21.8 27.659374 22.253124Q27.20625 22.70625 27.190624 23.51875L26.1125 23.409374Q26.221874 22.190624 26.940624 21.565624Q27.675 20.925 28.909374 20.925Q30.14375 20.925 30.8625 21.6125Q31.58125 22.3 31.58125 23.315624Q31.58125 23.83125 31.3625 24.33125Q31.159374 24.815624 30.659374 25.378124Q30.175 25.925 29.05 26.878124Q28.096874 27.675 27.815624 27.971874Q27.55 28.253124 27.378124 28.534374L31.596874 28.534374ZM33.05 27.3L34.159374 27.20625Q34.284374 28.01875 34.721874 28.425Q35.175 28.83125 35.815624 28.83125Q36.565624 28.83125 37.096874 28.253124Q37.628124 27.675 37.628124 26.7375Q37.628124 25.83125 37.1125 25.315624Q36.6125 24.784374 35.784374 24.784374Q35.284374 24.784374 34.8625 25.01875Q34.45625 25.253124 34.221874 25.6125L33.2375 25.4875L34.065624 21.08125L38.346874 21.08125L38.346874 22.08125L34.909374 22.08125L34.45625 24.39375Q35.221874 23.846874 36.065624 23.846874Q37.190624 23.846874 37.95625 24.628124Q38.7375 25.409374 38.7375 26.64375Q38.7375 27.8 38.065624 28.659374Q37.2375 29.690624 35.815624 29.690624Q34.64375 29.690624 33.89375 29.034374Q33.159374 28.378124 33.05 27.3ZM40.6125 29.55L40.6125 28.346874L41.815624 28.346874L41.815624 29.55Q41.815624 30.20625 41.58125 30.6125Q41.346874 31.034374 40.846874 31.253124L40.55 30.8Q40.878124 30.659374 41.034374 30.3625Q41.190624 30.08125 41.221874 29.55L40.6125 29.55ZM43.05 25.315624Q43.05 23.784374 43.3625 22.8625Q43.675 21.925 44.284374 21.425Q44.909374 20.925 45.846874 20.925Q46.534374 20.925 47.05 21.20625Q47.58125 21.4875 47.925 22.01875Q48.26875 22.534374 48.45625 23.284374Q48.64375 24.034374 48.64375 25.315624Q48.64375 26.83125 48.33125 27.753124Q48.034374 28.675 47.409374 29.190624Q46.8 29.690624 45.846874 29.690624Q44.6125 29.690624 43.89375 28.8Q43.05 27.7375 43.05 25.315624ZM44.128124 25.315624Q44.128124 27.425 44.628124 28.128124Q45.128124 28.83125 45.846874 28.83125Q46.58125 28.83125 47.065624 28.128124Q47.565624 27.425 47.565624 25.315624Q47.565624 23.190624 47.065624 22.503124Q46.58125 21.8 45.83125 21.8Q45.1125 21.8 44.675 22.409374Q44.128124 23.190624 44.128124 25.315624ZM50.05 25.315624Q50.05 23.784374 50.3625 22.8625Q50.675 21.925 51.284374 21.425Q51.909374 20.925 52.846874 20.925Q53.534374 20.925 54.05 21.20625Q54.58125 21.4875 54.925 22.01875Q55.26875 22.534374 55.45625 23.284374Q55.64375 24.034374 55.64375 25.315624Q55.64375 26.83125 55.33125 27.753124Q55.034374 28.675 54.409374 29.190624Q53.8 29.690624 52.846874 29.690624Q51.6125 29.690624 50.89375 28.8Q50.05 27.7375 50.05 25.315624ZM51.128124 25.315624Q51.128124 27.425 51.628124 28.128124Q52.128124 28.83125 52.846874 28.83125Q53.58125 28.83125 54.065624 28.128124Q54.565624 27.425 54.565624 25.315624Q54.565624 23.190624 54.065624 22.503124Q53.58125 21.8 52.83125 21.8Q52.1125 21.8 51.675 22.409374Q51.128124 23.190624 51.128124 25.315624ZM57.05 25.315624Q57.05 23.784374 57.3625 22.8625Q57.675 21.925 58.284374 21.425Q58.909374 20.925 59.846874 20.925Q60.534374 20.925 61.05 21.20625Q61.58125 21.4875 61.925 22.01875Q62.26875 22.534374 62.45625 23.284374Q62.64375 24.034374 62.64375 25.315624Q62.64375 26.83125 62.33125 27.753124Q62.034374 28.675 61.409374 29.190624Q60.8 29.690624 59.846874 29.690624Q58.6125 29.690624 57.89375 28.8Q57.05 27.7375 57.05 25.315624ZM58.128124 25.315624Q58.128124 27.425 58.628124 28.128124Q59.128124 28.83125 59.846874 28.83125Q60.58125 28.83125 61.065624 28.128124Q61.565624 27.425 61.565624 25.315624Q61.565624 23.190624 61.065624 22.503124Q60.58125 21.8 59.83125 21.8Q59.1125 21.8 58.675 22.409374Q58.128124 23.190624 58.128124 25.315624Z" fill-rule="nonzero"/><path fill="#000000" d="M106.178406 349.45L109.47528 340.85626L110.69403 340.85626L114.209656 349.45L112.928406 349.45L111.91278 346.84064L108.334656 346.84064L107.38153 349.45L106.178406 349.45ZM108.66278 345.91876L111.56903 345.91876L110.678406 343.54376Q110.25653 342.46564 110.06903 341.7625Q109.897156 342.59064 109.60028 343.40314L108.66278 345.91876ZM114.084656 349.45L114.084656 340.85626L115.803406 340.85626L117.834656 346.9344Q118.115906 347.79376 118.240906 348.21564Q118.38153 347.7469 118.69403 346.84064L120.75653 340.85626L122.28778 340.85626L122.28778 349.45L121.19403 349.45L121.19403 342.2625L118.69403 349.45L117.66278 349.45L115.178406 342.1375L115.178406 349.45L114.084656 349.45ZM129.63153 348.52814Q130.4284 349.075 131.08466 349.325L130.75653 350.1219Q129.83466 349.77814 128.91278 349.0594Q127.959656 349.59064 126.803406 349.59064Q125.63153 349.59064 124.678406 349.02814Q123.740906 348.46564 123.22528 347.45Q122.709656 346.4344 122.709656 345.15314Q122.709656 343.8875 123.22528 342.84064Q123.740906 341.79376 124.69403 341.2469Q125.647156 340.7 126.81903 340.7Q128.00653 340.7 128.95966 341.27814Q129.9284 341.84064 130.4284 342.85626Q130.9284 343.8719 130.9284 345.15314Q130.9284 346.21564 130.60028 347.0594Q130.28778 347.90314 129.63153 348.52814ZM127.13153 347.075Q128.1159 347.35626 128.75653 347.90314Q129.75653 346.98126 129.75653 345.15314Q129.75653 344.10626 129.39716 343.325Q129.03778 342.54376 128.35028 342.1219Q127.678406 341.6844 126.834656 341.6844Q125.553406 341.6844 124.709656 342.5594Q123.88153 343.41876 123.88153 345.15314Q123.88153 346.825 124.709656 347.73126Q125.53778 348.6219 126.834656 348.6219Q127.44403 348.6219 127.97528 348.3875Q127.44403 348.04376 126.85028 347.90314L127.13153 347.075ZM132.1159 349.45L132.1159 340.85626L135.3659 340.85626Q136.20966 340.85626 136.66278 340.9344Q137.3034 341.04376 137.72528 341.34064Q138.16278 341.6375 138.41278 342.16876Q138.6784 342.7 138.6784 343.34064Q138.6784 344.4344 137.97528 345.2Q137.28778 345.95 135.45966 345.95L133.25653 345.95L133.25653 349.45L132.1159 349.45ZM133.25653 344.95L135.47528 344.95Q136.58466 344.95 137.03778 344.54376Q137.50653 344.1219 137.50653 343.3719Q137.50653 342.84064 137.22528 342.46564Q136.95966 342.075 136.52216 341.95Q136.22528 341.8719 135.45966 341.8719L133.25653 341.8719L133.25653 344.95ZM146.66278 349.45L145.6159 349.45L145.6159 342.73126Q145.22528 343.09064 144.60028 343.46564Q143.9909 343.825 143.50653 343.9969L143.50653 342.98126Q144.38153 342.5594 145.03778 341.98126Q145.70966 341.3875 145.9909 340.825L146.66278 340.825L146.66278 349.45ZM150.28778 349.45L150.28778 348.2469L151.4909 348.2469L151.4909 349.45L150.28778 349.45ZM152.69403 345.21564Q152.69403 343.6844 153.00653 342.7625Q153.31903 341.825 153.9284 341.325Q154.5534 340.825 155.4909 340.825Q156.1784 340.825 156.69403 341.10626Q157.22528 341.3875 157.56903 341.91876Q157.91278 342.4344 158.10028 343.1844Q158.28778 343.9344 158.28778 345.21564Q158.28778 346.73126 157.97528 347.65314Q157.6784 348.575 157.0534 349.09064Q156.44403 349.59064 155.4909 349.59064Q154.25653 349.59064 153.53778 348.7Q152.69403 347.6375 152.69403 345.21564ZM153.77216 345.21564Q153.77216 347.325 154.27216 348.02814Q154.77216 348.73126 155.4909 348.73126Q156.22528 348.73126 156.70966 348.02814Q157.20966 347.325 157.20966 345.21564Q157.20966 343.09064 156.70966 342.40314Q156.22528 341.7 155.47528 341.7Q154.75653 341.7 154.31903 342.3094Q153.77216 343.09064 153.77216 345.21564ZM160.25653 349.45L160.25653 348.2469L161.45966 348.2469L161.45966 349.45Q161.45966 350.10626 161.22528 350.5125Q160.9909 350.9344 160.4909 351.15314L160.19403 350.7Q160.52216 350.5594 160.6784 350.2625Q160.83466 349.98126 160.8659 349.45L160.25653 349.45ZM166.13153 349.45L166.13153 340.85626L169.94403 340.85626Q171.10028 340.85626 171.69403 341.09064Q172.28778 341.325 172.64716 341.91876Q173.00653 342.4969 173.00653 343.2Q173.00653 344.1219 172.41278 344.7469Q171.81903 345.3719 170.58466 345.54376Q171.03778 345.7625 171.27216 345.96564Q171.77216 346.41876 172.20966 347.10626L173.70966 349.45L172.27216 349.45L171.14716 347.66876Q170.64716 346.8875 170.31903 346.48126Q170.00653 346.075 169.7409 345.91876Q169.4909 345.7469 169.22528 345.66876Q169.03778 345.6375 168.60028 345.6375L167.27216 345.6375L167.27216 349.45L166.13153 349.45ZM167.27216 344.65314L169.72528 344.65314Q170.4909 344.65314 170.9284 344.4969Q171.38153 344.325 171.60028 343.98126Q171.83466 343.6219 171.83466 343.2Q171.83466 342.59064 171.38153 342.2Q170.94403 341.8094 169.9909 341.8094L167.27216 341.8094L167.27216 344.65314ZM179.0534 348.6844Q178.45966 349.1844 177.91278 349.3875Q177.38153 349.59064 176.75653 349.59064Q175.72528 349.59064 175.1784 349.09064Q174.63153 348.59064 174.63153 347.8094Q174.63153 347.35626 174.83466 346.98126Q175.03778 346.59064 175.38153 346.3719Q175.72528 346.1375 176.14716 346.02814Q176.44403 345.9344 177.08466 345.85626Q178.35028 345.71564 178.95966 345.4969Q178.95966 345.27814 178.95966 345.23126Q178.95966 344.575 178.66278 344.3094Q178.25653 343.96564 177.45966 343.96564Q176.72528 343.96564 176.3659 344.23126Q176.00653 344.48126 175.83466 345.1375L174.8034 344.9969Q174.94403 344.34064 175.27216 343.9344Q175.60028 343.52814 176.20966 343.3094Q176.81903 343.09064 177.6159 343.09064Q178.41278 343.09064 178.91278 343.27814Q179.41278 343.46564 179.64716 343.7469Q179.88153 344.02814 179.97528 344.46564Q180.02216 344.73126 180.02216 345.4344L180.02216 346.84064Q180.02216 348.3094 180.08466 348.7Q180.16278 349.09064 180.3659 349.45L179.25653 349.45Q179.10028 349.1219 179.0534 348.6844ZM178.95966 346.325Q178.38153 346.5594 177.2409 346.73126Q176.58466 346.825 176.31903 346.95Q176.0534 347.0594 175.89716 347.27814Q175.75653 347.4969 175.75653 347.77814Q175.75653 348.2 176.06903 348.48126Q176.39716 348.7625 177.00653 348.7625Q177.6159 348.7625 178.08466 348.4969Q178.56903 348.23126 178.78778 347.7625Q178.95966 347.40314 178.95966 346.71564L178.95966 346.325ZM182.95966 349.45L181.97528 349.45L181.97528 340.85626L183.03778 340.85626L183.03778 343.91876Q183.70966 343.09064 184.7409 343.09064Q185.31903 343.09064 185.81903 343.325Q186.33466 343.54376 186.66278 343.96564Q187.00653 344.3875 187.19403 344.98126Q187.38153 345.575 187.38153 346.2469Q187.38153 347.84064 186.58466 348.71564Q185.78778 349.59064 184.69403 349.59064Q183.58466 349.59064 182.95966 348.66876L182.95966 349.45ZM182.94403 346.29376Q182.94403 347.40314 183.25653 347.90314Q183.75653 348.71564 184.60028 348.71564Q185.28778 348.71564 185.78778 348.1219Q186.3034 347.52814 186.3034 346.325Q186.3034 345.10626 185.81903 344.52814Q185.33466 343.95 184.64716 343.95Q183.95966 343.95 183.44403 344.5594Q182.94403 345.15314 182.94403 346.29376ZM189.95966 349.45L188.97528 349.45L188.97528 340.85626L190.03778 340.85626L190.03778 343.91876Q190.70966 343.09064 191.7409 343.09064Q192.31903 343.09064 192.81903 343.325Q193.33466 343.54376 193.66278 343.96564Q194.00653 344.3875 194.19403 344.98126Q194.38153 345.575 194.38153 346.2469Q194.38153 347.84064 193.58466 348.71564Q192.78778 349.59064 191.69403 349.59064Q190.58466 349.59064 189.95966 348.66876L189.95966 349.45ZM189.94403 346.29376Q189.94403 347.40314 190.25653 347.90314Q190.75653 348.71564 191.60028 348.71564Q192.28778 348.71564 192.78778 348.1219Q193.3034 347.52814 193.3034 346.325Q193.3034 345.10626 192.81903 344.52814Q192.33466 343.95 191.64716 343.95Q190.95966 343.95 190.44403 344.5594Q189.94403 345.15314 189.94403 346.29376ZM195.9909 342.075L195.9909 340.85626L197.0534 340.85626L197.0534 342.075L195.9909 342.075ZM195.9909 349.45L195.9909 343.23126L197.0534 343.23126L197.0534 349.45L195.9909 349.45ZM201.28778 348.5125L201.44403 349.4344Q200.9909 349.52814 200.64716 349.52814Q200.06903 349.52814 199.75653 349.35626Q199.44403 349.16876 199.3034 348.8719Q199.1784 348.575 199.1784 347.6219L199.1784 344.04376L198.41278 344.04376L198.41278 343.23126L199.1784 343.23126L199.1784 341.6844L200.22528 341.0594L200.22528 343.23126L201.28778 343.23126L201.28778 344.04376L200.22528 344.04376L200.22528 347.6844Q200.22528 348.1375 200.27216 348.2625Q200.33466 348.3875 200.45966 348.46564Q200.58466 348.54376 200.81903 348.54376Q201.00653 348.54376 201.28778 348.5125ZM202.08466 349.45L202.08466 340.85626L203.8034 340.85626L205.83466 346.9344Q206.1159 347.79376 206.2409 348.21564Q206.38153 347.7469 206.69403 346.84064L208.75653 340.85626L210.28778 340.85626L210.28778 349.45L209.19403 349.45L209.19403 342.2625L206.69403 349.45L205.66278 349.45L203.1784 342.1375L203.1784 349.45L202.08466 349.45ZM217.63153 348.52814Q218.4284 349.075 219.08466 349.325L218.75653 350.1219Q217.83466 349.77814 216.91278 349.0594Q215.95966 349.59064 214.8034 349.59064Q213.63153 349.59064 212.6784 349.02814Q211.7409 348.46564 211.22528 347.45Q210.70966 346.4344 210.70966 345.15314Q210.70966 343.8875 211.22528 342.84064Q211.7409 341.79376 212.69403 341.2469Q213.64716 340.7 214.81903 340.7Q216.00653 340.7 216.95966 341.27814Q217.9284 341.84064 218.4284 342.85626Q218.9284 343.8719 218.9284 345.15314Q218.9284 346.21564 218.60028 347.0594Q218.28778 347.90314 217.63153 348.52814ZM215.13153 347.075Q216.1159 347.35626 216.75653 347.90314Q217.75653 346.98126 217.75653 345.15314Q217.75653 344.10626 217.39716 343.325Q217.03778 342.54376 216.35028 342.1219Q215.6784 341.6844 214.83466 341.6844Q213.5534 341.6844 212.70966 342.5594Q211.88153 343.41876 211.88153 345.15314Q211.88153 346.825 212.70966 347.73126Q213.53778 348.6219 214.83466 348.6219Q215.44403 348.6219 215.97528 348.3875Q215.44403 348.04376 214.85028 347.90314L215.13153 347.075ZM226.06903 349.45L226.06903 347.3875L222.35028 347.3875L222.35028 346.41876L226.27216 340.85626L227.13153 340.85626L227.13153 346.41876L228.28778 346.41876L228.28778 347.3875L227.13153 347.3875L227.13153 349.45L226.06903 349.45ZM226.06903 346.41876L226.06903 342.5594L223.38153 346.41876L226.06903 346.41876ZM230.28778 349.45L230.28778 348.2469L231.4909 348.2469L231.4909 349.45L230.28778 349.45ZM232.69403 345.21564Q232.69403 343.6844 233.00653 342.7625Q233.31903 341.825 233.9284 341.325Q234.5534 340.825 235.4909 340.825Q236.1784 340.825 236.69403 341.10626Q237.22528 341.3875 237.56903 341.91876Q237.91278 342.4344 238.10028 343.1844Q238.28778 343.9344 238.28778 345.21564Q238.28778 346.73126 237.97528 347.65314Q237.6784 348.575 237.0534 349.09064Q236.44403 349.59064 235.4909 349.59064Q234.25653 349.59064 233.53778 348.7Q232.69403 347.6375 232.69403 345.21564ZM233.77216 345.21564Q233.77216 347.325 234.27216 348.02814Q234.77216 348.73126 235.4909 348.73126Q236.22528 348.73126 236.70966 348.02814Q237.20966 347.325 237.20966 345.21564Q237.20966 343.09064 236.70966 342.40314Q236.22528 341.7 235.47528 341.7Q234.75653 341.7 234.31903 342.3094Q233.77216 343.09064 233.77216 345.21564Z" fill-rule="nonzero"/><path fill="#000000" d="M255.48438 349.45L258.78125 340.85626L260.0 340.85626L263.51562 349.45L262.23438 349.45L261.21875 346.84064L257.64062 346.84064L256.6875 349.45L255.48438 349.45ZM257.96875 345.91876L260.875 345.91876L259.98438 343.54376Q259.5625 342.46564 259.375 341.7625Q259.20312 342.59064 258.90625 343.40314L257.96875 345.91876ZM263.39062 349.45L263.39062 340.85626L265.10938 340.85626L267.14062 346.9344Q267.42188 347.79376 267.54688 348.21564Q267.6875 347.7469 268.0 346.84064L270.0625 340.85626L271.59375 340.85626L271.59375 349.45L270.5 349.45L270.5 342.2625L268.0 349.45L266.96875 349.45L264.48438 342.1375L264.48438 349.45L263.39062 349.45ZM278.9375 348.52814Q279.73438 349.075 280.39062 349.325L280.0625 350.1219Q279.14062 349.77814 278.21875 349.0594Q277.26562 349.59064 276.10938 349.59064Q274.9375 349.59064 273.98438 349.02814Q273.04688 348.46564 272.53125 347.45Q272.01562 346.4344 272.01562 345.15314Q272.01562 343.8875 272.53125 342.84064Q273.04688 341.79376 274.0 341.2469Q274.95312 340.7 276.125 340.7Q277.3125 340.7 278.26562 341.27814Q279.23438 341.84064 279.73438 342.85626Q280.23438 343.8719 280.23438 345.15314Q280.23438 346.21564 279.90625 347.0594Q279.59375 347.90314 278.9375 348.52814ZM276.4375 347.075Q277.42188 347.35626 278.0625 347.90314Q279.0625 346.98126 279.0625 345.15314Q279.0625 344.10626 278.70312 343.325Q278.34375 342.54376 277.65625 342.1219Q276.98438 341.6844 276.14062 341.6844Q274.85938 341.6844 274.01562 342.5594Q273.1875 343.41876 273.1875 345.15314Q273.1875 346.825 274.01562 347.73126Q274.84375 348.6219 276.14062 348.6219Q276.75 348.6219 277.28125 348.3875Q276.75 348.04376 276.15625 347.90314L276.4375 347.075ZM281.42188 349.45L281.42188 340.85626L284.67188 340.85626Q285.51562 340.85626 285.96875 340.9344Q286.60938 341.04376 287.03125 341.34064Q287.46875 341.6375 287.71875 342.16876Q287.98438 342.7 287.98438 343.34064Q287.98438 344.4344 287.28125 345.2Q286.59375 345.95 284.76562 345.95L282.5625 345.95L282.5625 349.45L281.42188 349.45ZM282.5625 344.95L284.78125 344.95Q285.89062 344.95 286.34375 344.54376Q286.8125 344.1219 286.8125 343.3719Q286.8125 342.84064 286.53125 342.46564Q286.26562 342.075 285.82812 341.95Q285.53125 341.8719 284.76562 341.8719L282.5625 341.8719L282.5625 344.95ZM295.96875 349.45L294.92188 349.45L294.92188 342.73126Q294.53125 343.09064 293.90625 343.46564Q293.29688 343.825 292.8125 343.9969L292.8125 342.98126Q293.6875 342.5594 294.34375 341.98126Q295.01562 341.3875 295.29688 340.825L295.96875 340.825L295.96875 349.45ZM299.59375 349.45L299.59375 348.2469L300.79688 348.2469L300.79688 349.45L299.59375 349.45ZM302.0 345.21564Q302.0 343.6844 302.3125 342.7625Q302.625 341.825 303.23438 341.325Q303.85938 340.825 304.79688 340.825Q305.48438 340.825 306.0 341.10626Q306.53125 341.3875 306.875 341.91876Q307.21875 342.4344 307.40625 343.1844Q307.59375 343.9344 307.59375 345.21564Q307.59375 346.73126 307.28125 347.65314Q306.98438 348.575 306.35938 349.09064Q305.75 349.59064 304.79688 349.59064Q303.5625 349.59064 302.84375 348.7Q302.0 347.6375 302.0 345.21564ZM303.07812 345.21564Q303.07812 347.325 303.57812 348.02814Q304.07812 348.73126 304.79688 348.73126Q305.53125 348.73126 306.01562 348.02814Q306.51562 347.325 306.51562 345.21564Q306.51562 343.09064 306.01562 342.40314Q305.53125 341.7 304.78125 341.7Q304.0625 341.7 303.625 342.3094Q303.07812 343.09064 303.07812 345.21564ZM309.5625 349.45L309.5625 348.2469L310.76562 348.2469L310.76562 349.45Q310.76562 350.10626 310.53125 350.5125Q310.29688 350.9344 309.79688 351.15314L309.5 350.7Q309.82812 350.5594 309.98438 350.2625Q310.14062 349.98126 310.17188 349.45L309.5625 349.45ZM315.4375 349.45L315.4375 340.85626L319.25 340.85626Q320.40625 340.85626 321.0 341.09064Q321.59375 341.325 321.95312 341.91876Q322.3125 342.4969 322.3125 343.2Q322.3125 344.1219 321.71875 344.7469Q321.125 345.3719 319.89062 345.54376Q320.34375 345.7625 320.57812 345.96564Q321.07812 346.41876 321.51562 347.10626L323.01562 349.45L321.57812 349.45L320.45312 347.66876Q319.95312 346.8875 319.625 346.48126Q319.3125 346.075 319.04688 345.91876Q318.79688 345.7469 318.53125 345.66876Q318.34375 345.6375 317.90625 345.6375L316.57812 345.6375L316.57812 349.45L315.4375 349.45ZM316.57812 344.65314L319.03125 344.65314Q319.79688 344.65314 320.23438 344.4969Q320.6875 344.325 320.90625 343.98126Q321.14062 343.6219 321.14062 343.2Q321.14062 342.59064 320.6875 342.2Q320.25 341.8094 319.29688 341.8094L316.57812 341.8094L316.57812 344.65314ZM328.35938 348.6844Q327.76562 349.1844 327.21875 349.3875Q326.6875 349.59064 326.0625 349.59064Q325.03125 349.59064 324.48438 349.09064Q323.9375 348.59064 323.9375 347.8094Q323.9375 347.35626 324.14062 346.98126Q324.34375 346.59064 324.6875 346.3719Q325.03125 346.1375 325.45312 346.02814Q325.75 345.9344 326.39062 345.85626Q327.65625 345.71564 328.26562 345.4969Q328.26562 345.27814 328.26562 345.23126Q328.26562 344.575 327.96875 344.3094Q327.5625 343.96564 326.76562 343.96564Q326.03125 343.96564 325.67188 344.23126Q325.3125 344.48126 325.14062 345.1375L324.10938 344.9969Q324.25 344.34064 324.57812 343.9344Q324.90625 343.52814 325.51562 343.3094Q326.125 343.09064 326.92188 343.09064Q327.71875 343.09064 328.21875 343.27814Q328.71875 343.46564 328.95312 343.7469Q329.1875 344.02814 329.28125 344.46564Q329.32812 344.73126 329.32812 345.4344L329.32812 346.84064Q329.32812 348.3094 329.39062 348.7Q329.46875 349.09064 329.67188 349.45L328.5625 349.45Q328.40625 349.1219 328.35938 348.6844ZM328.26562 346.325Q327.6875 346.5594 326.54688 346.73126Q325.89062 346.825 325.625 346.95Q325.35938 347.0594 325.20312 347.27814Q325.0625 347.4969 325.0625 347.77814Q325.0625 348.2 325.375 348.48126Q325.70312 348.7625 326.3125 348.7625Q326.92188 348.7625 327.39062 348.4969Q327.875 348.23126 328.09375 347.7625Q328.26562 347.40314 328.26562 346.71564L328.26562 346.325ZM332.26562 349.45L331.28125 349.45L331.28125 340.85626L332.34375 340.85626L332.34375 343.91876Q333.01562 343.09064 334.04688 343.09064Q334.625 343.09064 335.125 343.325Q335.64062 343.54376 335.96875 343.96564Q336.3125 344.3875 336.5 344.98126Q336.6875 345.575 336.6875 346.2469Q336.6875 347.84064 335.89062 348.71564Q335.09375 349.59064 334.0 349.59064Q332.89062 349.59064 332.26562 348.66876L332.26562 349.45ZM332.25 346.29376Q332.25 347.40314 332.5625 347.90314Q333.0625 348.71564 333.90625 348.71564Q334.59375 348.71564 335.09375 348.1219Q335.60938 347.52814 335.60938 346.325Q335.60938 345.10626 335.125 344.52814Q334.64062 343.95 333.95312 343.95Q333.26562 343.95 332.75 344.5594Q332.25 345.15314 332.25 346.29376ZM339.26562 349.45L338.28125 349.45L338.28125 340.85626L339.34375 340.85626L339.34375 343.91876Q340.01562 343.09064 341.04688 343.09064Q341.625 343.09064 342.125 343.325Q342.64062 343.54376 342.96875 343.96564Q343.3125 344.3875 343.5 344.98126Q343.6875 345.575 343.6875 346.2469Q343.6875 347.84064 342.89062 348.71564Q342.09375 349.59064 341.0 349.59064Q339.89062 349.59064 339.26562 348.66876L339.26562 349.45ZM339.25 346.29376Q339.25 347.40314 339.5625 347.90314Q340.0625 348.71564 340.90625 348.71564Q341.59375 348.71564 342.09375 348.1219Q342.60938 347.52814 342.60938 346.325Q342.60938 345.10626 342.125 344.52814Q341.64062 343.95 340.95312 343.95Q340.26562 343.95 339.75 344.5594Q339.25 345.15314 339.25 346.29376ZM345.29688 342.075L345.29688 340.85626L346.35938 340.85626L346.35938 342.075L345.29688 342.075ZM345.29688 349.45L345.29688 343.23126L346.35938 343.23126L346.35938 349.45L345.29688 349.45ZM350.59375 348.5125L350.75 349.4344Q350.29688 349.52814 349.95312 349.52814Q349.375 349.52814 349.0625 349.35626Q348.75 349.16876 348.60938 348.8719Q348.48438 348.575 348.48438 347.6219L348.48438 344.04376L347.71875 344.04376L347.71875 343.23126L348.48438 343.23126L348.48438 341.6844L349.53125 341.0594L349.53125 343.23126L350.59375 343.23126L350.59375 344.04376L349.53125 344.04376L349.53125 347.6844Q349.53125 348.1375 349.57812 348.2625Q349.64062 348.3875 349.76562 348.46564Q349.89062 348.54376 350.125 348.54376Q350.3125 348.54376 350.59375 348.5125ZM351.39062 349.45L351.39062 340.85626L353.10938 340.85626L355.14062 346.9344Q355.42188 347.79376 355.54688 348.21564Q355.6875 347.7469 356.0 346.84064L358.0625 340.85626L359.59375 340.85626L359.59375 349.45L358.5 349.45L358.5 342.2625L356.0 349.45L354.96875 349.45L352.48438 342.1375L352.48438 349.45L351.39062 349.45ZM366.9375 348.52814Q367.73438 349.075 368.39062 349.325L368.0625 350.1219Q367.14062 349.77814 366.21875 349.0594Q365.26562 349.59064 364.10938 349.59064Q362.9375 349.59064 361.98438 349.02814Q361.04688 348.46564 360.53125 347.45Q360.01562 346.4344 360.01562 345.15314Q360.01562 343.8875 360.53125 342.84064Q361.04688 341.79376 362.0 341.2469Q362.95312 340.7 364.125 340.7Q365.3125 340.7 366.26562 341.27814Q367.23438 341.84064 367.73438 342.85626Q368.23438 343.8719 368.23438 345.15314Q368.23438 346.21564 367.90625 347.0594Q367.59375 347.90314 366.9375 348.52814ZM364.4375 347.075Q365.42188 347.35626 366.0625 347.90314Q367.0625 346.98126 367.0625 345.15314Q367.0625 344.10626 366.70312 343.325Q366.34375 342.54376 365.65625 342.1219Q364.98438 341.6844 364.14062 341.6844Q362.85938 341.6844 362.01562 342.5594Q361.1875 343.41876 361.1875 345.15314Q361.1875 346.825 362.01562 347.73126Q362.84375 348.6219 364.14062 348.6219Q364.75 348.6219 365.28125 348.3875Q364.75 348.04376 364.15625 347.90314L364.4375 347.075ZM372.0 347.1844L373.0625 347.04376Q373.23438 347.9344 373.67188 348.34064Q374.10938 348.73126 374.73438 348.73126Q375.48438 348.73126 376.0 348.21564Q376.51562 347.7 376.51562 346.9344Q376.51562 346.21564 376.03125 345.7469Q375.5625 345.2625 374.82812 345.2625Q374.53125 345.2625 374.07812 345.3875L374.20312 344.45Q374.3125 344.46564 374.375 344.46564Q375.04688 344.46564 375.57812 344.1219Q376.125 343.7625 376.125 343.02814Q376.125 342.45 375.73438 342.075Q375.34375 341.6844 374.71875 341.6844Q374.10938 341.6844 373.6875 342.075Q373.28125 342.46564 373.17188 343.23126L372.10938 343.04376Q372.29688 341.9969 372.98438 341.41876Q373.67188 340.825 374.6875 340.825Q375.39062 340.825 375.98438 341.1375Q376.57812 341.4344 376.89062 341.95Q377.20312 342.46564 377.20312 343.0594Q377.20312 343.60626 376.90625 344.075Q376.60938 344.52814 376.03125 344.79376Q376.78125 344.96564 377.20312 345.52814Q377.625 346.075 377.625 346.91876Q377.625 348.04376 376.79688 348.825Q375.98438 349.60626 374.73438 349.60626Q373.60938 349.60626 372.85938 348.9344Q372.10938 348.2469 372.0 347.1844ZM379.59375 349.45L379.59375 348.2469L380.79688 348.2469L380.79688 349.45L379.59375 349.45ZM385.96875 349.45L384.92188 349.45L384.92188 342.73126Q384.53125 343.09064 383.90625 343.46564Q383.29688 343.825 382.8125 343.9969L382.8125 342.98126Q383.6875 342.5594 384.34375 341.98126Q385.01562 341.3875 385.29688 340.825L385.96875 340.825L385.96875 349.45ZM389.0 347.1844L390.0625 347.04376Q390.23438 347.9344 390.67188 348.34064Q391.10938 348.73126 391.73438 348.73126Q392.48438 348.73126 393.0 348.21564Q393.51562 347.7 393.51562 346.9344Q393.51562 346.21564 393.03125 345.7469Q392.5625 345.2625 391.82812 345.2625Q391.53125 345.2625 391.07812 345.3875L391.20312 344.45Q391.3125 344.46564 391.375 344.46564Q392.04688 344.46564 392.57812 344.1219Q393.125 343.7625 393.125 343.02814Q393.125 342.45 392.73438 342.075Q392.34375 341.6844 391.71875 341.6844Q391.10938 341.6844 390.6875 342.075Q390.28125 342.46564 390.17188 343.23126L389.10938 343.04376Q389.29688 341.9969 389.98438 341.41876Q390.67188 340.825 391.6875 340.825Q392.39062 340.825 392.98438 341.1375Q393.57812 341.4344 393.89062 341.95Q394.20312 342.46564 394.20312 343.0594Q394.20312 343.60626 393.90625 344.075Q393.60938 344.52814 393.03125 344.79376Q393.78125 344.96564 394.20312 345.52814Q394.625 346.075 394.625 346.91876Q394.625 348.04376 393.79688 348.825Q392.98438 349.60626 391.73438 349.60626Q390.60938 349.60626 389.85938 348.9344Q389.10938 348.2469 389.0 347.1844Z" fill-rule="nonzero"/><path fill="#000000" d="M406.79034 349.45L410.08722 340.85626L411.30597 340.85626L414.8216 349.45L413.54034 349.45L412.52472 346.84064L408.9466 346.84064L407.99347 349.45L406.79034 349.45ZM409.27472 345.91876L412.18097 345.91876L411.29034 343.54376Q410.86847 342.46564 410.68097 341.7625Q410.5091 342.59064 410.21222 343.40314L409.27472 345.91876ZM414.6966 349.45L414.6966 340.85626L416.41534 340.85626L418.4466 346.9344Q418.72784 347.79376 418.85284 348.21564Q418.99347 347.7469 419.30597 346.84064L421.36847 340.85626L422.89972 340.85626L422.89972 349.45L421.80597 349.45L421.80597 342.2625L419.30597 349.45L418.27472 349.45L415.79034 342.1375L415.79034 349.45L414.6966 349.45ZM430.24347 348.52814Q431.04034 349.075 431.6966 349.325L431.36847 350.1219Q430.4466 349.77814 429.52472 349.0594Q428.5716 349.59064 427.41534 349.59064Q426.24347 349.59064 425.29034 349.02814Q424.35284 348.46564 423.83722 347.45Q423.3216 346.4344 423.3216 345.15314Q423.3216 343.8875 423.83722 342.84064Q424.35284 341.79376 425.30597 341.2469Q426.2591 340.7 427.43097 340.7Q428.61847 340.7 429.5716 341.27814Q430.54034 341.84064 431.04034 342.85626Q431.54034 343.8719 431.54034 345.15314Q431.54034 346.21564 431.21222 347.0594Q430.89972 347.90314 430.24347 348.52814ZM427.74347 347.075Q428.72784 347.35626 429.36847 347.90314Q430.36847 346.98126 430.36847 345.15314Q430.36847 344.10626 430.0091 343.325Q429.64972 342.54376 428.96222 342.1219Q428.29034 341.6844 427.4466 341.6844Q426.16534 341.6844 425.3216 342.5594Q424.49347 343.41876 424.49347 345.15314Q424.49347 346.825 425.3216 347.73126Q426.14972 348.6219 427.4466 348.6219Q428.05597 348.6219 428.58722 348.3875Q428.05597 348.04376 427.46222 347.90314L427.74347 347.075ZM432.72784 349.45L432.72784 340.85626L435.97784 340.85626Q436.8216 340.85626 437.27472 340.9344Q437.91534 341.04376 438.33722 341.34064Q438.77472 341.6375 439.02472 342.16876Q439.29034 342.7 439.29034 343.34064Q439.29034 344.4344 438.58722 345.2Q437.89972 345.95 436.0716 345.95L433.86847 345.95L433.86847 349.45L432.72784 349.45ZM433.86847 344.95L436.08722 344.95Q437.1966 344.95 437.64972 344.54376Q438.11847 344.1219 438.11847 343.3719Q438.11847 342.84064 437.83722 342.46564Q437.5716 342.075 437.1341 341.95Q436.83722 341.8719 436.0716 341.8719L433.86847 341.8719L433.86847 344.95ZM443.30597 345.21564Q443.30597 343.6844 443.61847 342.7625Q443.93097 341.825 444.54034 341.325Q445.16534 340.825 446.10284 340.825Q446.79034 340.825 447.30597 341.10626Q447.83722 341.3875 448.18097 341.91876Q448.52472 342.4344 448.71222 343.1844Q448.89972 343.9344 448.89972 345.21564Q448.89972 346.73126 448.58722 347.65314Q448.29034 348.575 447.66534 349.09064Q447.05597 349.59064 446.10284 349.59064Q444.86847 349.59064 444.14972 348.7Q443.30597 347.6375 443.30597 345.21564ZM444.3841 345.21564Q444.3841 347.325 444.8841 348.02814Q445.3841 348.73126 446.10284 348.73126Q446.83722 348.73126 447.3216 348.02814Q447.8216 347.325 447.8216 345.21564Q447.8216 343.09064 447.3216 342.40314Q446.83722 341.7 446.08722 341.7Q445.36847 341.7 444.93097 342.3094Q444.3841 343.09064 444.3841 345.21564ZM450.89972 349.45L450.89972 348.2469L452.10284 348.2469L452.10284 349.45L450.89972 349.45ZM453.46222 347.46564L454.47784 347.3719Q454.60284 348.09064 454.96222 348.41876Q455.33722 348.73126 455.89972 348.73126Q456.3841 348.73126 456.74347 348.5125Q457.11847 348.27814 457.35284 347.91876Q457.58722 347.54376 457.74347 346.91876Q457.89972 346.27814 457.89972 345.6219Q457.89972 345.54376 457.89972 345.40314Q457.58722 345.90314 457.04034 346.23126Q456.49347 346.54376 455.85284 346.54376Q454.77472 346.54376 454.04034 345.77814Q453.30597 344.9969 453.30597 343.73126Q453.30597 342.41876 454.0716 341.6219Q454.85284 340.825 456.0091 340.825Q456.83722 340.825 457.52472 341.27814Q458.22784 341.73126 458.58722 342.575Q458.9466 343.40314 458.9466 344.98126Q458.9466 346.6219 458.58722 347.60626Q458.24347 348.575 457.52472 349.09064Q456.8216 349.59064 455.8841 349.59064Q454.86847 349.59064 454.22784 349.04376Q453.58722 348.48126 453.46222 347.46564ZM457.77472 343.66876Q457.77472 342.7625 457.29034 342.23126Q456.8216 341.7 456.1341 341.7Q455.43097 341.7 454.89972 342.27814Q454.3841 342.84064 454.3841 343.7625Q454.3841 344.575 454.8841 345.09064Q455.3841 345.60626 456.10284 345.60626Q456.83722 345.60626 457.30597 345.09064Q457.77472 344.575 457.77472 343.66876ZM460.89972 349.45L460.89972 348.2469L462.10284 348.2469L462.10284 349.45L460.89972 349.45ZM467.27472 349.45L466.22784 349.45L466.22784 342.73126Q465.83722 343.09064 465.21222 343.46564Q464.60284 343.825 464.11847 343.9969L464.11847 342.98126Q464.99347 342.5594 465.64972 341.98126Q466.3216 341.3875 466.60284 340.825L467.27472 340.825L467.27472 349.45ZM470.86847 349.45L470.86847 348.2469L472.0716 348.2469L472.0716 349.45Q472.0716 350.10626 471.83722 350.5125Q471.60284 350.9344 471.10284 351.15314L470.80597 350.7Q471.1341 350.5594 471.29034 350.2625Q471.4466 349.98126 471.47784 349.45L470.86847 349.45ZM476.74347 349.45L476.74347 340.85626L480.55597 340.85626Q481.71222 340.85626 482.30597 341.09064Q482.89972 341.325 483.2591 341.91876Q483.61847 342.4969 483.61847 343.2Q483.61847 344.1219 483.02472 344.7469Q482.43097 345.3719 481.1966 345.54376Q481.64972 345.7625 481.8841 345.96564Q482.3841 346.41876 482.8216 347.10626L484.3216 349.45L482.8841 349.45L481.7591 347.66876Q481.2591 346.8875 480.93097 346.48126Q480.61847 346.075 480.35284 345.91876Q480.10284 345.7469 479.83722 345.66876Q479.64972 345.6375 479.21222 345.6375L477.8841 345.6375L477.8841 349.45L476.74347 349.45ZM477.8841 344.65314L480.33722 344.65314Q481.10284 344.65314 481.54034 344.4969Q481.99347 344.325 482.21222 343.98126Q482.4466 343.6219 482.4466 343.2Q482.4466 342.59064 481.99347 342.2Q481.55597 341.8094 480.60284 341.8094L477.8841 341.8094L477.8841 344.65314ZM489.66534 348.6844Q489.0716 349.1844 488.52472 349.3875Q487.99347 349.59064 487.36847 349.59064Q486.33722 349.59064 485.79034 349.09064Q485.24347 348.59064 485.24347 347.8094Q485.24347 347.35626 485.4466 346.98126Q485.64972 346.59064 485.99347 346.3719Q486.33722 346.1375 486.7591 346.02814Q487.05597 345.9344 487.6966 345.85626Q488.96222 345.71564 489.5716 345.4969Q489.5716 345.27814 489.5716 345.23126Q489.5716 344.575 489.27472 344.3094Q488.86847 343.96564 488.0716 343.96564Q487.33722 343.96564 486.97784 344.23126Q486.61847 344.48126 486.4466 345.1375L485.41534 344.9969Q485.55597 344.34064 485.8841 343.9344Q486.21222 343.52814 486.8216 343.3094Q487.43097 343.09064 488.22784 343.09064Q489.02472 343.09064 489.52472 343.27814Q490.02472 343.46564 490.2591 343.7469Q490.49347 344.02814 490.58722 344.46564Q490.6341 344.73126 490.6341 345.4344L490.6341 346.84064Q490.6341 348.3094 490.6966 348.7Q490.77472 349.09064 490.97784 349.45L489.86847 349.45Q489.71222 349.1219 489.66534 348.6844ZM489.5716 346.325Q488.99347 346.5594 487.85284 346.73126Q487.1966 346.825 486.93097 346.95Q486.66534 347.0594 486.5091 347.27814Q486.36847 347.4969 486.36847 347.77814Q486.36847 348.2 486.68097 348.48126Q487.0091 348.7625 487.61847 348.7625Q488.22784 348.7625 488.6966 348.4969Q489.18097 348.23126 489.39972 347.7625Q489.5716 347.40314 489.5716 346.71564L489.5716 346.325ZM493.5716 349.45L492.58722 349.45L492.58722 340.85626L493.64972 340.85626L493.64972 343.91876Q494.3216 343.09064 495.35284 343.09064Q495.93097 343.09064 496.43097 343.325Q496.9466 343.54376 497.27472 343.96564Q497.61847 344.3875 497.80597 344.98126Q497.99347 345.575 497.99347 346.2469Q497.99347 347.84064 497.1966 348.71564Q496.39972 349.59064 495.30597 349.59064Q494.1966 349.59064 493.5716 348.66876L493.5716 349.45ZM493.55597 346.29376Q493.55597 347.40314 493.86847 347.90314Q494.36847 348.71564 495.21222 348.71564Q495.89972 348.71564 496.39972 348.1219Q496.91534 347.52814 496.91534 346.325Q496.91534 345.10626 496.43097 344.52814Q495.9466 343.95 495.2591 343.95Q494.5716 343.95 494.05597 344.5594Q493.55597 345.15314 493.55597 346.29376ZM500.5716 349.45L499.58722 349.45L499.58722 340.85626L500.64972 340.85626L500.64972 343.91876Q501.3216 343.09064 502.35284 343.09064Q502.93097 343.09064 503.43097 343.325Q503.9466 343.54376 504.27472 343.96564Q504.61847 344.3875 504.80597 344.98126Q504.99347 345.575 504.99347 346.2469Q504.99347 347.84064 504.1966 348.71564Q503.39972 349.59064 502.30597 349.59064Q501.1966 349.59064 500.5716 348.66876L500.5716 349.45ZM500.55597 346.29376Q500.55597 347.40314 500.86847 347.90314Q501.36847 348.71564 502.21222 348.71564Q502.89972 348.71564 503.39972 348.1219Q503.91534 347.52814 503.91534 346.325Q503.91534 345.10626 503.43097 344.52814Q502.9466 343.95 502.2591 343.95Q501.5716 343.95 501.05597 344.5594Q500.55597 345.15314 500.55597 346.29376ZM506.60284 342.075L506.60284 340.85626L507.66534 340.85626L507.66534 342.075L506.60284 342.075ZM506.60284 349.45L506.60284 343.23126L507.66534 343.23126L507.66534 349.45L506.60284 349.45ZM511.89972 348.5125L512.05597 349.4344Q511.60284 349.52814 511.2591 349.52814Q510.68097 349.52814 510.36847 349.35626Q510.05597 349.16876 509.91534 348.8719Q509.79034 348.575 509.79034 347.6219L509.79034 344.04376L509.02472 344.04376L509.02472 343.23126L509.79034 343.23126L509.79034 341.6844L510.83722 341.0594L510.83722 343.23126L511.89972 343.23126L511.89972 344.04376L510.83722 344.04376L510.83722 347.6844Q510.83722 348.1375 510.8841 348.2625Q510.9466 348.3875 511.0716 348.46564Q511.1966 348.54376 511.43097 348.54376Q511.61847 348.54376 511.89972 348.5125ZM512.6966 349.45L512.6966 340.85626L514.41534 340.85626L516.4466 346.9344Q516.72784 347.79376 516.85284 348.21564Q516.99347 347.7469 517.30597 346.84064L519.36847 340.85626L520.8997 340.85626L520.8997 349.45L519.80597 349.45L519.80597 342.2625L517.30597 349.45L516.2747 349.45L513.79034 342.1375L513.79034 349.45L512.6966 349.45ZM528.24347 348.52814Q529.04034 349.075 529.6966 349.325L529.36847 350.1219Q528.4466 349.77814 527.5247 349.0594Q526.5716 349.59064 525.41534 349.59064Q524.24347 349.59064 523.29034 349.02814Q522.35284 348.46564 521.8372 347.45Q521.3216 346.4344 521.3216 345.15314Q521.3216 343.8875 521.8372 342.84064Q522.35284 341.79376 523.30597 341.2469Q524.2591 340.7 525.43097 340.7Q526.61847 340.7 527.5716 341.27814Q528.54034 341.84064 529.04034 342.85626Q529.54034 343.8719 529.54034 345.15314Q529.54034 346.21564 529.2122 347.0594Q528.8997 347.90314 528.24347 348.52814ZM525.74347 347.075Q526.72784 347.35626 527.36847 347.90314Q528.36847 346.98126 528.36847 345.15314Q528.36847 344.10626 528.0091 343.325Q527.6497 342.54376 526.9622 342.1219Q526.29034 341.6844 525.4466 341.6844Q524.16534 341.6844 523.3216 342.5594Q522.49347 343.41876 522.49347 345.15314Q522.49347 346.825 523.3216 347.73126Q524.1497 348.6219 525.4466 348.6219Q526.05597 348.6219 526.5872 348.3875Q526.05597 348.04376 525.4622 347.90314L525.74347 347.075ZM536.68097 349.45L536.68097 347.3875L532.9622 347.3875L532.9622 346.41876L536.8841 340.85626L537.74347 340.85626L537.74347 346.41876L538.8997 346.41876L538.8997 347.3875L537.74347 347.3875L537.74347 349.45L536.68097 349.45ZM536.68097 346.41876L536.68097 342.5594L533.99347 346.41876L536.68097 346.41876ZM540.8997 349.45L540.8997 348.2469L542.10284 348.2469L542.10284 349.45L540.8997 349.45ZM543.30597 345.21564Q543.30597 343.6844 543.61847 342.7625Q543.93097 341.825 544.54034 341.325Q545.16534 340.825 546.10284 340.825Q546.79034 340.825 547.30597 341.10626Q547.8372 341.3875 548.18097 341.91876Q548.5247 342.4344 548.7122 343.1844Q548.8997 343.9344 548.8997 345.21564Q548.8997 346.73126 548.5872 347.65314Q548.29034 348.575 547.66534 349.09064Q547.05597 349.59064 546.10284 349.59064Q544.86847 349.59064 544.1497 348.7Q543.30597 347.6375 543.30597 345.21564ZM544.3841 345.21564Q544.3841 347.325 544.8841 348.02814Q545.3841 348.73126 546.10284 348.73126Q546.8372 348.73126 547.3216 348.02814Q547.8216 347.325 547.8216 345.21564Q547.8216 343.09064 547.3216 342.40314Q546.8372 341.7 546.0872 341.7Q545.36847 341.7 544.93097 342.3094Q544.3841 343.09064 544.3841 345.21564Z" fill-rule="nonzero"/></svg>