<svg version="1.1" viewBox="0.0 0.0 600.0 371.0" fill="none" stroke="none" stroke-linecap="square" stroke-miterlimit="10" width="600" height="371" xmlns:xlink="http://www.w3.org/1999/xlink" xmlns="http://www.w3.org/2000/svg"><path fill="#ffffff" d="M0 0L600.0 0L600.0 371.0L0 371.0L0 0Z" fill-rule="nonzero"/><path stroke="#333333" stroke-width="1.0" stroke-linecap="butt" d="M114.5 326.5L581.5 326.5" fill-rule="nonzero"/><path stroke="#cccccc" stroke-width="1.0" stroke-linecap="butt" d="M114.5 267.5L581.5 267.5" fill-rule="nonzero"/><path stroke="#cccccc" stroke-width="1.0" stroke-linecap="butt" d="M114.5 207.5L581.5 207.5" fill-rule="nonzero"/><path stroke="#cccccc" stroke-width="1.0" stroke-linecap="butt" d="M114.5 147.5L581.5 147.5" fill-rule="nonzero"/><path stroke="#cccccc" stroke-width="1.0" stroke-linecap="butt" d="M114.5 87.5L581.5 87.5" fill-rule="nonzero"/><path stroke="#cccccc" stroke-width="1.0" stroke-linecap="butt" d="M114.5 27.5L581.5 27.5" fill-rule="nonzero"/><clipPath id="id_0"><path d="M114.55 27.55L581.45 27.55L581.45 326.95L114.55 326.95L114.55 27.55Z" clip-rule="nonzero"/></clipPath><path stroke="#000000" stroke-width="2.0" stroke-linecap="butt" stroke-opacity="0.0" clip-path="url(#id_0)" d="M255.0 327.0L164.0 327.0L164.0 60.0C164.0 58.89543 164.89543 58.0 166.0 58.0L253.0 58.0C254.10457 58.0 255.0 58.89543 255.0 60.0Z" fill-rule="nonzero"/><path fill="#4285f4" clip-path="url(#id_0)" d="M255.0 327.0L164.0 327.0L164.0 60.0C164.0 58.89543 164.89543 58.0 166.0 58.0L253.0 58.0C254.10457 58.0 255.0 58.89543 255.0 60.0Z" fill-rule="nonzero"/><path stroke="#000000" stroke-width="2.0" stroke-linecap="butt" stroke-opacity="0.0" clip-path="url(#id_0)" d="M394.0 327.0L303.0 327.0L303.0 327.0L394.0 327.0Z" fill-rule="nonzero"/><path fill="#4285f4" clip-path="url(#id_0)" d="M394.0 327.0L303.0 327.0L303.0 327.0L394.0 327.0Z" fill-rule="nonzero"/><path stroke="#000000" stroke-width="2.0" stroke-linecap="butt" stroke-opacity="0.0" clip-path="url(#id_0)" d="M533.0 327.0L442.0 327.0L442.0 116.0C442.0 114.89543 442.89542 114.0 444.0 114.0L531.0 114.0C532.10455 114.0 533.0 114.89543 533.0 116.0Z" fill-rule="nonzero"/><path fill="#4285f4" clip-path="url(#id_0)" d="M533.0 327.0L442.0 327.0L442.0 116.0C442.0 114.89543 442.89542 114.0 444.0 114.0L531.0 114.0C532.10455 114.0 533.0 114.89543 533.0 116.0Z" fill-rule="nonzero"/><path fill="#000000" d="M32.55001 287.10938L23.081263 287.10938L23.081263 290.64062L21.815638 290.64062L21.815638 282.14062L23.081263 282.14062L23.081263 285.6875L32.55001 285.6875L32.55001 287.10938ZM32.55001 281.01562L21.815638 281.01562L21.815638 279.6875L25.659388 279.6875Q24.596888 278.76562 24.596888 277.35938Q24.596888 276.5 24.940638 275.85938Q25.284388 275.21875 25.878138 274.95312Q26.471888 274.67188 27.628138 274.67188L32.55001 274.67188L32.55001 276.0L27.628138 276.0Q26.628138 276.0 26.190638 276.42188Q25.737513 276.84375 25.737513 277.64062Q25.737513 278.21875 26.034388 278.73438Q26.331263 279.25 26.862513 279.46875Q27.378138 279.6875 28.300013 279.6875L32.55001 279.6875L32.55001 281.01562ZM32.55001 273.03125L24.768763 273.03125L24.768763 271.84375L25.956263 271.84375Q25.128138 271.39062 24.862513 271.0Q24.596888 270.60938 24.596888 270.15625Q24.596888 269.48438 25.018763 268.79688L26.237513 269.25Q25.956263 269.73438 25.956263 270.21875Q25.956263 270.65625 26.221888 271.0Q26.471888 271.34375 26.940638 271.48438Q27.643763 271.70312 28.471888 271.70312L32.55001 271.70312L32.55001 273.03125ZM28.659388 268.5Q26.503138 268.5 25.456263 267.29688Q24.596888 266.29688 24.596888 264.85938Q24.596888 263.25 25.643763 262.23438Q26.690638 261.21875 28.550013 261.21875Q30.050013 261.21875 30.909388 261.67188Q31.768763 262.10938 32.253136 262.98438Q32.721886 263.84375 32.721886 264.85938Q32.721886 266.48438 31.675013 267.5Q30.628138 268.5 28.659388 268.5ZM28.659388 267.14062Q30.159388 267.14062 30.909388 266.5Q31.643763 265.84375 31.643763 264.85938Q31.643763 263.875 30.893763 263.21875Q30.143763 262.5625 28.612513 262.5625Q27.175013 262.5625 26.440638 263.21875Q25.690638 263.875 25.690638 264.85938Q25.690638 265.84375 26.425013 266.5Q27.159388 267.14062 28.659388 267.14062ZM32.55001 254.90625L31.409388 254.90625Q32.721886 255.82812 32.721886 257.375Q32.721886 258.0625 32.45626 258.67188Q32.190636 259.26562 31.800013 259.5625Q31.393763 259.84375 30.815638 259.95312Q30.440638 260.04688 29.596888 260.04688L24.768763 260.04688L24.768763 258.71875L29.081263 258.71875Q30.112513 258.71875 30.471888 258.64062Q31.003138 258.51562 31.300013 258.125Q31.596888 257.71875 31.596888 257.125Q31.596888 256.53125 31.300013 256.01562Q30.987513 255.48438 30.471888 255.26562Q29.940638 255.04688 28.940638 255.04688L24.768763 255.04688L24.768763 253.73438L32.55001 253.73438L32.55001 254.90625ZM33.190636 252.25L33.378136 250.96875Q33.971886 250.89062 34.253136 250.53125Q34.61251 250.03125 34.61251 249.1875Q34.61251 248.26562 34.23751 247.76562Q33.878136 247.26562 33.221886 247.09375Q32.815636 247.0 31.534388 247.0Q32.55001 247.85938 32.55001 249.15625Q32.55001 250.76562 31.393763 251.64062Q30.237513 252.51562 28.612513 252.51562Q27.503138 252.51562 26.565638 252.10938Q25.628138 251.70312 25.112513 250.95312Q24.596888 250.1875 24.596888 249.14062Q24.596888 247.76562 25.706263 246.875L24.768763 246.875L24.768763 245.65625L31.487513 245.65625Q33.315636 245.65625 34.065636 246.03125Q34.83126 246.40625 35.26876 247.20312Q35.70626 248.0 35.70626 249.17188Q35.70626 250.5625 35.08126 251.42188Q34.45626 252.28125 33.190636 252.25ZM28.518763 251.15625Q30.050013 251.15625 30.753138 250.5625Q31.456263 249.95312 31.456263 249.03125Q31.456263 248.125 30.768763 247.51562Q30.065638 246.89062 28.565638 246.89062Q27.143763 246.89062 26.425013 247.53125Q25.690638 248.15625 25.690638 249.04688Q25.690638 249.9375 26.409388 250.54688Q27.112513 251.15625 28.518763 251.15625ZM32.55001 244.01562L21.815638 244.01562L21.815638 242.6875L25.659388 242.6875Q24.596888 241.76562 24.596888 240.35938Q24.596888 239.5 24.940638 238.85938Q25.284388 238.21875 25.878138 237.95312Q26.471888 237.67188 27.628138 237.67188L32.55001 237.67188L32.55001 239.0L27.628138 239.0Q26.628138 239.0 26.190638 239.42188Q25.737513 239.84375 25.737513 240.64062Q25.737513 241.21875 26.034388 241.73438Q26.331263 242.25 26.862513 242.46875Q27.378138 242.6875 28.300013 242.6875L32.55001 242.6875L32.55001 244.01562ZM35.534386 236.01562L24.768763 236.01562L24.768763 234.8125L25.784388 234.8125Q25.190638 234.39062 24.893763 233.85938Q24.596888 233.3125 24.596888 232.54688Q24.596888 231.5625 25.112513 230.79688Q25.628138 230.03125 26.565638 229.65625Q27.487513 229.26562 28.596888 229.26562Q29.800013 229.26562 30.753138 229.6875Q31.706263 230.10938 32.221886 230.9375Q32.721886 231.75 32.721886 232.65625Q32.721886 233.3125 32.45626 233.84375Q32.17501 234.35938 31.737513 234.6875L35.534386 234.6875L35.534386 236.01562ZM28.706263 234.8125Q30.206263 234.8125 30.925013 234.20312Q31.643763 233.59375 31.643763 232.73438Q31.643763 231.85938 30.909388 231.23438Q30.159388 230.60938 28.596888 230.60938Q27.112513 230.60938 26.378138 231.21875Q25.628138 231.82812 25.628138 232.67188Q25.628138 233.51562 26.425013 234.17188Q27.206263 234.8125 28.706263 234.8125ZM32.55001 222.90625L31.409388 222.90625Q32.721886 223.82812 32.721886 225.375Q32.721886 226.0625 32.45626 226.67188Q32.190636 227.26562 31.800013 227.5625Q31.393763 227.84375 30.815638 227.95312Q30.440638 228.04688 29.596888 228.04688L24.768763 228.04688L24.768763 226.71875L29.081263 226.71875Q30.112513 226.71875 30.471888 226.64062Q31.003138 226.51562 31.300013 226.125Q31.596888 225.71875 31.596888 225.125Q31.596888 224.53125 31.300013 224.01562Q30.987513 223.48438 30.471888 223.26562Q29.940638 223.04688 28.940638 223.04688L24.768763 223.04688L24.768763 221.73438L32.55001 221.73438L32.55001 222.90625ZM31.378138 217.125L32.534386 216.9375Q32.659386 217.5 32.659386 217.9375Q32.659386 218.65625 32.42501 219.0625Q32.190636 219.45312 31.831263 219.60938Q31.456263 219.76562 30.268763 219.76562L25.800013 219.76562L25.800013 220.73438L24.768763 220.73438L24.768763 219.76562L22.846888 219.76562L22.050013 218.45312L24.768763 218.45312L24.768763 217.125L25.800013 217.125L25.800013 218.45312L30.346888 218.45312Q30.909388 218.45312 31.081263 218.39062Q31.237513 218.3125 31.331263 218.15625Q31.425013 218.0 31.425013 217.71875Q31.425013 217.48438 31.378138 217.125ZM26.268763 215.64062L24.768763 215.64062L24.768763 214.14062L26.268763 214.14062L26.268763 215.64062ZM32.55001 215.64062L31.050013 215.64062L31.050013 214.14062L32.55001 214.14062L32.55001 215.64062ZM32.55001 208.01562L24.768763 208.01562L24.768763 206.82812L25.862513 206.82812Q25.284388 206.46875 24.940638 205.85938Q24.596888 205.25 24.596888 204.46875Q24.596888 203.60938 24.956263 203.0625Q25.315638 202.5 25.956263 202.28125Q24.596888 201.35938 24.596888 199.875Q24.596888 198.71875 25.237513 198.09375Q25.878138 197.46875 27.206263 197.46875L32.55001 197.46875L32.55001 198.78125L27.643763 198.78125Q26.862513 198.78125 26.518763 198.90625Q26.159388 199.03125 25.956263 199.375Q25.737513 199.71875 25.737513 200.17188Q25.737513 200.98438 26.284388 201.53125Q26.831263 202.07812 28.034388 202.07812L32.55001 202.07812L32.55001 203.39062L27.503138 203.39062Q26.612513 203.39062 26.175013 203.71875Q25.737513 204.03125 25.737513 204.76562Q25.737513 205.32812 26.034388 205.79688Q26.331263 206.26562 26.893763 206.48438Q27.456263 206.6875 28.518763 206.6875L32.55001 206.6875L32.55001 208.01562ZM30.050013 189.6875L30.206263 188.32812Q31.409388 188.64062 32.065636 189.51562Q32.721886 190.39062 32.721886 191.75Q32.721886 193.45312 31.675013 194.45312Q30.628138 195.45312 28.721888 195.45312Q26.768763 195.45312 25.690638 194.4375Q24.596888 193.42188 24.596888 191.8125Q24.596888 190.25 25.659388 189.26562Q26.721888 188.28125 28.643763 188.28125Q28.768763 188.28125 29.003138 188.28125L29.003138 194.09375Q30.284388 194.01562 30.971888 193.375Q31.643763 192.71875 31.643763 191.73438Q31.643763 191.01562 31.268763 190.5Q30.878138 189.98438 30.050013 189.6875ZM27.909388 194.01562L27.909388 189.67188Q26.925013 189.76562 26.440638 190.17188Q25.675013 190.79688 25.675013 191.79688Q25.675013 192.71875 26.284388 193.34375Q26.893763 193.95312 27.909388 194.01562ZM30.221888 187.53125L30.018763 186.23438Q30.800013 186.125 31.221888 185.625Q31.643763 185.125 31.643763 184.21875Q31.643763 183.3125 31.284388 182.875Q30.909388 182.4375 30.409388 182.4375Q29.956263 182.4375 29.706263 182.82812Q29.518763 183.09375 29.253138 184.17188Q28.893763 185.625 28.628138 186.1875Q28.346888 186.73438 27.878138 187.03125Q27.409388 187.3125 26.831263 187.3125Q26.315638 187.3125 25.878138 187.07812Q25.425013 186.84375 25.143763 186.4375Q24.909388 186.125 24.753138 185.59375Q24.596888 185.0625 24.596888 184.45312Q24.596888 183.54688 24.862513 182.85938Q25.128138 182.15625 25.581263 181.82812Q26.018763 181.5 26.784388 181.375L26.956263 182.65625Q26.346888 182.75 26.018763 183.17188Q25.675013 183.59375 25.675013 184.35938Q25.675013 185.26562 25.987513 185.65625Q26.284388 186.04688 26.690638 186.04688Q26.940638 186.04688 27.143763 185.89062Q27.362513 185.71875 27.503138 185.375Q27.565638 185.1875 27.831263 184.21875Q28.206263 182.8125 28.440638 182.26562Q28.675013 181.70312 29.143763 181.39062Q29.596888 181.07812 30.268763 181.07812Q30.925013 181.07812 31.503138 181.46875Q32.08126 181.84375 32.409386 182.57812Q32.721886 183.29688 32.721886 184.21875Q32.721886 185.73438 32.096886 186.53125Q31.471888 187.3125 30.221888 187.53125ZM30.221888 179.53125L30.018763 178.23438Q30.800013 178.125 31.221888 177.625Q31.643763 177.125 31.643763 176.21875Q31.643763 175.3125 31.284388 174.875Q30.909388 174.4375 30.409388 174.4375Q29.956263 174.4375 29.706263 174.82812Q29.518763 175.09375 29.253138 176.17188Q28.893763 177.625 28.628138 178.1875Q28.346888 178.73438 27.878138 179.03125Q27.409388 179.3125 26.831263 179.3125Q26.315638 179.3125 25.878138 179.07812Q25.425013 178.84375 25.143763 178.4375Q24.909388 178.125 24.753138 177.59375Q24.596888 177.0625 24.596888 176.45312Q24.596888 175.54688 24.862513 174.85938Q25.128138 174.15625 25.581263 173.82812Q26.018763 173.5 26.784388 173.375L26.956263 174.65625Q26.346888 174.75 26.018763 175.17188Q25.675013 175.59375 25.675013 176.35938Q25.675013 177.26562 25.987513 177.65625Q26.284388 178.04688 26.690638 178.04688Q26.940638 178.04688 27.143763 177.89062Q27.362513 177.71875 27.503138 177.375Q27.565638 177.1875 27.831263 176.21875Q28.206263 174.8125 28.440638 174.26562Q28.675013 173.70312 29.143763 173.39062Q29.596888 173.07812 30.268763 173.07812Q30.925013 173.07812 31.503138 173.46875Q32.08126 173.84375 32.409386 174.57812Q32.721886 175.29688 32.721886 176.21875Q32.721886 177.73438 32.096886 178.53125Q31.471888 179.3125 30.221888 179.53125ZM31.596888 165.9375Q32.20626 166.67188 32.471886 167.34375Q32.721886 168.01562 32.721886 168.79688Q32.721886 170.07812 32.096886 170.76562Q31.471888 171.45312 30.503138 171.45312Q29.925013 171.45312 29.456263 171.20312Q28.987513 170.9375 28.706263 170.51562Q28.409388 170.09375 28.268763 169.5625Q28.159388 169.1875 28.065638 168.39062Q27.878138 166.79688 27.612513 166.04688Q27.346888 166.03125 27.268763 166.03125Q26.456263 166.03125 26.128138 166.40625Q25.690638 166.92188 25.690638 167.90625Q25.690638 168.84375 26.018763 169.29688Q26.331263 169.73438 27.159388 169.9375L26.987513 171.23438Q26.159388 171.0625 25.659388 170.65625Q25.143763 170.25 24.878138 169.48438Q24.596888 168.71875 24.596888 167.71875Q24.596888 166.71875 24.831263 166.10938Q25.065638 165.48438 25.425013 165.1875Q25.768763 164.89062 26.315638 164.78125Q26.659388 164.71875 27.534388 164.71875L29.284388 164.71875Q31.128138 164.71875 31.612513 164.64062Q32.096886 164.54688 32.55001 164.29688L32.55001 165.67188Q32.14376 165.875 31.596888 165.9375ZM28.643763 166.04688Q28.940638 166.76562 29.143763 168.20312Q29.268763 169.01562 29.409388 169.35938Q29.550013 169.6875 29.831263 169.875Q30.112513 170.04688 30.456263 170.04688Q30.987513 170.04688 31.346888 169.65625Q31.690638 169.25 31.690638 168.48438Q31.690638 167.71875 31.362513 167.125Q31.018763 166.53125 30.440638 166.25Q30.003138 166.04688 29.128138 166.04688L28.643763 166.04688ZM33.190636 163.25L33.378136 161.96875Q33.971886 161.89062 34.253136 161.53125Q34.61251 161.03125 34.61251 160.1875Q34.61251 159.26562 34.23751 158.76562Q33.878136 158.26562 33.221886 158.09375Q32.815636 158.0 31.534388 158.0Q32.55001 158.85938 32.55001 160.15625Q32.55001 161.76562 31.393763 162.64062Q30.237513 163.51562 28.612513 163.51562Q27.503138 163.51562 26.565638 163.10938Q25.628138 162.70312 25.112513 161.95312Q24.596888 161.1875 24.596888 160.14062Q24.596888 158.76562 25.706263 157.875L24.768763 157.875L24.768763 156.65625L31.487513 156.65625Q33.315636 156.65625 34.065636 157.03125Q34.83126 157.40625 35.26876 158.20312Q35.70626 159.0 35.70626 160.17188Q35.70626 161.5625 35.08126 162.42188Q34.45626 163.28125 33.190636 163.25ZM28.518763 162.15625Q30.050013 162.15625 30.753138 161.5625Q31.456263 160.95312 31.456263 160.03125Q31.456263 159.125 30.768763 158.51562Q30.065638 157.89062 28.565638 157.89062Q27.143763 157.89062 26.425013 158.53125Q25.690638 159.15625 25.690638 160.04688Q25.690638 160.9375 26.409388 161.54688Q27.112513 162.15625 28.518763 162.15625ZM30.050013 149.6875L30.206263 148.32812Q31.409388 148.64062 32.065636 149.51562Q32.721886 150.39062 32.721886 151.75Q32.721886 153.45312 31.675013 154.45312Q30.628138 155.45312 28.721888 155.45312Q26.768763 155.45312 25.690638 154.4375Q24.596888 153.42188 24.596888 151.8125Q24.596888 150.25 25.659388 149.26562Q26.721888 148.28125 28.643763 148.28125Q28.768763 148.28125 29.003138 148.28125L29.003138 154.09375Q30.284388 154.01562 30.971888 153.375Q31.643763 152.71875 31.643763 151.73438Q31.643763 151.01562 31.268763 150.5Q30.878138 149.98438 30.050013 149.6875ZM27.909388 154.01562L27.909388 149.67188Q26.925013 149.76562 26.440638 150.17188Q25.675013 150.79688 25.675013 151.79688Q25.675013 152.71875 26.284388 153.34375Q26.893763 153.95312 27.909388 154.01562ZM30.221888 147.53125L30.018763 146.23438Q30.800013 146.125 31.221888 145.625Q31.643763 145.125 31.643763 144.21875Q31.643763 143.3125 31.284388 142.875Q30.909388 142.4375 30.409388 142.4375Q29.956263 142.4375 29.706263 142.82812Q29.518763 143.09375 29.253138 144.17188Q28.893763 145.625 28.628138 146.1875Q28.346888 146.73438 27.878138 147.03125Q27.409388 147.3125 26.831263 147.3125Q26.315638 147.3125 25.878138 147.07812Q25.425013 146.84375 25.143763 146.4375Q24.909388 146.125 24.753138 145.59375Q24.596888 145.0625 24.596888 144.45312Q24.596888 143.54688 24.862513 142.85938Q25.128138 142.15625 25.581263 141.82812Q26.018763 141.5 26.784388 141.375L26.956263 142.65625Q26.346888 142.75 26.018763 143.17188Q25.675013 143.59375 25.675013 144.35938Q25.675013 145.26562 25.987513 145.65625Q26.284388 146.04688 26.690638 146.04688Q26.940638 146.04688 27.143763 145.89062Q27.362513 145.71875 27.503138 145.375Q27.565638 145.1875 27.831263 144.21875Q28.206263 142.8125 28.440638 142.26562Q28.675013 141.70312 29.143763 141.39062Q29.596888 141.07812 30.268763 141.07812Q30.925013 141.07812 31.503138 141.46875Q32.08126 141.84375 32.409386 142.57812Q32.721886 143.29688 32.721886 144.21875Q32.721886 145.73438 32.096886 146.53125Q31.471888 147.3125 30.221888 147.53125ZM32.73751 136.0L21.628138 132.89062L21.628138 131.82812L32.73751 134.9375L32.73751 136.0ZM30.221888 127.53125L30.018763 126.234375Q30.800013 126.125 31.221888 125.625Q31.643763 125.125 31.643763 124.21875Q31.643763 123.3125 31.284388 122.875Q30.909388 122.4375 30.409388 122.4375Q29.956263 122.4375 29.706263 122.828125Q29.518763 123.09375 29.253138 124.171875Q28.893763 125.625 28.628138 126.1875Q28.346888 126.734375 27.878138 127.03125Q27.409388 127.3125 26.831263 127.3125Q26.315638 127.3125 25.878138 127.078125Q25.425013 126.84375 25.143763 126.4375Q24.909388 126.125 24.753138 125.59375Q24.596888 125.0625 24.596888 124.453125Q24.596888 123.546875 24.862513 122.859375Q25.128138 122.15625 25.581263 121.828125Q26.018763 121.5 26.784388 121.375L26.956263 122.65625Q26.346888 122.75 26.018763 123.171875Q25.675013 123.59375 25.675013 124.359375Q25.675013 125.265625 25.987513 125.65625Q26.284388 126.046875 26.690638 126.046875Q26.940638 126.046875 27.143763 125.890625Q27.362513 125.71875 27.503138 125.375Q27.565638 125.1875 27.831263 124.21875Q28.206263 122.8125 28.440638 122.265625Q28.675013 121.703125 29.143763 121.390625Q29.596888 121.078125 30.268763 121.078125Q30.925013 121.078125 31.503138 121.46875Q32.08126 121.84375 32.409386 122.578125Q32.721886 123.296875 32.721886 124.21875Q32.721886 125.734375 32.096886 126.53125Q31.471888 127.3125 30.221888 127.53125ZM30.050013 113.6875L30.206263 112.328125Q31.409388 112.640625 32.065636 113.515625Q32.721886 114.390625 32.721886 115.75Q32.721886 117.453125 31.675013 118.453125Q30.628138 119.453125 28.721888 119.453125Q26.768763 119.453125 25.690638 118.4375Q24.596888 117.421875 24.596888 115.8125Q24.596888 114.25 25.659388 113.265625Q26.721888 112.28125 28.643763 112.28125Q28.768763 112.28125 29.003138 112.28125L29.003138 118.09375Q30.284388 118.015625 30.971888 117.375Q31.643763 116.71875 31.643763 115.734375Q31.643763 115.015625 31.268763 114.5Q30.878138 113.984375 30.050013 113.6875ZM27.909388 118.015625L27.909388 113.671875Q26.925013 113.765625 26.440638 114.171875Q25.675013 114.796875 25.675013 115.796875Q25.675013 116.71875 26.284388 117.34375Q26.893763 117.953125 27.909388 118.015625ZM29.706263 105.9375L29.862513 104.640625Q31.206263 104.84375 31.971888 105.734375Q32.721886 106.609375 32.721886 107.875Q32.721886 109.46875 31.690638 110.4375Q30.643763 111.40625 28.690638 111.40625Q27.425013 111.40625 26.487513 111.0Q25.534388 110.578125 25.065638 109.734375Q24.596888 108.875 24.596888 107.875Q24.596888 106.609375 25.237513 105.796875Q25.878138 104.984375 27.050013 104.765625L27.253138 106.046875Q26.471888 106.234375 26.081263 106.703125Q25.675013 107.15625 25.675013 107.8125Q25.675013 108.8125 26.393763 109.4375Q27.112513 110.0625 28.659388 110.0625Q30.221888 110.0625 30.940638 109.46875Q31.643763 108.859375 31.643763 107.890625Q31.643763 107.109375 31.175013 106.59375Q30.690638 106.078125 29.706263 105.9375ZM28.659388 103.5Q26.503138 103.5 25.456263 102.296875Q24.596888 101.296875 24.596888 99.859375Q24.596888 98.25 25.643763 97.234375Q26.690638 96.21875 28.550013 96.21875Q30.050013 96.21875 30.909388 96.671875Q31.768763 97.109375 32.253136 97.984375Q32.721886 98.84375 32.721886 99.859375Q32.721886 101.484375 31.675013 102.5Q30.628138 103.5 28.659388 103.5ZM28.659388 102.140625Q30.159388 102.140625 30.909388 101.5Q31.643763 100.84375 31.643763 99.859375Q31.643763 98.875 30.893763 98.21875Q30.143763 97.5625 28.612513 97.5625Q27.175013 97.5625 26.440638 98.21875Q25.690638 98.875 25.690638 99.859375Q25.690638 100.84375 26.425013 101.5Q27.159388 102.140625 28.659388 102.140625ZM32.55001 95.015625L24.768763 95.015625L24.768763 93.828125L25.878138 93.828125Q24.596888 92.96875 24.596888 91.34375Q24.596888 90.640625 24.846888 90.0625Q25.096888 89.46875 25.518763 89.171875Q25.925013 88.875 26.487513 88.765625Q26.846888 88.6875 27.768763 88.6875L32.55001 88.6875L32.55001 90.015625L27.815638 90.015625Q27.018763 90.015625 26.628138 90.171875Q26.221888 90.3125 25.987513 90.703125Q25.737513 91.09375 25.737513 91.625Q25.737513 92.46875 26.268763 93.078125Q26.800013 93.6875 28.300013 93.6875L32.55001 93.6875L32.55001 95.015625ZM32.55001 81.96875L31.565638 81.96875Q32.721886 82.703125 32.721886 84.140625Q32.721886 85.0625 32.221886 85.84375Q31.706263 86.625 30.784388 87.0625Q29.862513 87.484375 28.675013 87.484375Q27.503138 87.484375 26.565638 87.09375Q25.612513 86.703125 25.112513 85.9375Q24.596888 85.15625 24.596888 84.203125Q24.596888 83.5 24.893763 82.953125Q25.190638 82.390625 25.659388 82.046875L21.815638 82.046875L21.815638 80.734375L32.55001 80.734375L32.55001 81.96875ZM28.675013 86.125Q30.159388 86.125 30.909388 85.5Q31.643763 84.875 31.643763 84.015625Q31.643763 83.15625 30.940638 82.546875Q30.221888 81.9375 28.784388 81.9375Q27.175013 81.9375 26.440638 82.5625Q25.690638 83.171875 25.690638 84.078125Q25.690638 84.953125 26.409388 85.546875Q27.128138 86.125 28.675013 86.125Z" fill-rule="nonzero"/><path fill="#000000" d="M99.675 326.65314Q99.675 324.7469 100.06563 323.59064Q100.45625 322.4344 101.22188 321.8094Q102.00313 321.16876 103.175 321.16876Q104.03438 321.16876 104.69063 321.52814Q105.34688 321.8719 105.76875 322.52814Q106.19063 323.16876 106.425 324.1219Q106.675 325.0594 106.675 326.65314Q106.675 328.54376 106.28438 329.71564Q105.89375 330.8719 105.1125 331.5125Q104.34688 332.1375 103.175 332.1375Q101.62813 332.1375 100.7375 331.0125Q99.675 329.6844 99.675 326.65314ZM101.03438 326.65314Q101.03438 329.29376 101.64375 330.16876Q102.26875 331.04376 103.175 331.04376Q104.08125 331.04376 104.69063 330.16876Q105.31563 329.29376 105.31563 326.65314Q105.31563 323.9969 104.69063 323.1375Q104.08125 322.2625 103.15938 322.2625Q102.25313 322.2625 101.70625 323.02814Q101.03438 324.0125 101.03438 326.65314Z" fill-rule="nonzero"/><path fill="#000000" d="M74.59688 270.80438L74.59688 272.07L67.50313 272.07Q67.4875 271.60126 67.65938 271.14813Q67.925 270.42938 68.51875 269.72626Q69.12813 269.02313 70.25313 268.10126Q72.00313 266.66376 72.6125 265.83563Q73.2375 264.99188 73.2375 264.24188Q73.2375 263.46063 72.675 262.92938Q72.1125 262.3825 71.20625 262.3825Q70.25313 262.3825 69.675 262.96063Q69.1125 263.52313 69.1125 264.53876L67.75313 264.39813Q67.89375 262.8825 68.8 262.08563Q69.70625 261.28876 71.2375 261.28876Q72.78438 261.28876 73.675 262.14813Q74.58125 263.0075 74.58125 264.27313Q74.58125 264.91376 74.31563 265.53876Q74.06563 266.16376 73.44063 266.85126Q72.83125 267.53876 71.40938 268.74188Q70.22188 269.72626 69.87813 270.08563Q69.55 270.445 69.33125 270.80438L74.59688 270.80438ZM75.675 269.2575L77.05 269.1325Q77.20625 270.14813 77.76875 270.66376Q78.33125 271.16376 79.12813 271.16376Q80.08125 271.16376 80.7375 270.445Q81.39375 269.72626 81.39375 268.55438Q81.39375 267.41376 80.75313 266.77313Q80.12813 266.11688 79.09688 266.11688Q78.45625 266.11688 77.94063 266.41376Q77.44063 266.695 77.14375 267.14813L75.90938 266.99188L76.94063 261.47626L82.28438 261.47626L82.28438 262.74188L78.00313 262.74188L77.425 265.61688Q78.39375 264.945 79.45625 264.945Q80.8625 264.945 81.81563 265.92938Q82.78438 266.89813 82.78438 268.42938Q82.78438 269.8825 81.94063 270.945Q80.90938 272.2575 79.12813 272.2575Q77.65938 272.2575 76.72188 271.445Q75.8 270.61688 75.675 269.2575ZM83.675 266.77313Q83.675 264.86688 84.06563 263.71063Q84.45625 262.55438 85.22188 261.92938Q86.00313 261.28876 87.175 261.28876Q88.03438 261.28876 88.69063 261.64813Q89.34688 261.99188 89.76875 262.64813Q90.19063 263.28876 90.425 264.24188Q90.675 265.17938 90.675 266.77313Q90.675 268.66376 90.28438 269.83563Q89.89375 270.99188 89.1125 271.6325Q88.34688 272.2575 87.175 272.2575Q85.62813 272.2575 84.7375 271.1325Q83.675 269.80438 83.675 266.77313ZM85.03438 266.77313Q85.03438 269.41376 85.64375 270.28876Q86.26875 271.16376 87.175 271.16376Q88.08125 271.16376 88.69063 270.28876Q89.31563 269.41376 89.31563 266.77313Q89.31563 264.11688 88.69063 263.2575Q88.08125 262.3825 87.15938 262.3825Q86.25313 262.3825 85.70625 263.14813Q85.03438 264.1325 85.03438 266.77313ZM91.675 266.77313Q91.675 264.86688 92.06563 263.71063Q92.45625 262.55438 93.22188 261.92938Q94.00313 261.28876 95.175 261.28876Q96.03438 261.28876 96.69063 261.64813Q97.34688 261.99188 97.76875 262.64813Q98.19063 263.28876 98.425 264.24188Q98.675 265.17938 98.675 266.77313Q98.675 268.66376 98.28438 269.83563Q97.89375 270.99188 97.1125 271.6325Q96.34688 272.2575 95.175 272.2575Q93.62813 272.2575 92.7375 271.1325Q91.675 269.80438 91.675 266.77313ZM93.03438 266.77313Q93.03438 269.41376 93.64375 270.28876Q94.26875 271.16376 95.175 271.16376Q96.08125 271.16376 96.69063 270.28876Q97.31563 269.41376 97.31563 266.77313Q97.31563 264.11688 96.69063 263.2575Q96.08125 262.3825 95.15938 262.3825Q94.25313 262.3825 93.70625 263.14813Q93.03438 264.1325 93.03438 266.77313ZM99.675 266.77313Q99.675 264.86688 100.06563 263.71063Q100.45625 262.55438 101.22188 261.92938Q102.00313 261.28876 103.175 261.28876Q104.03438 261.28876 104.69063 261.64813Q105.34688 261.99188 105.76875 262.64813Q106.19063 263.28876 106.425 264.24188Q106.675 265.17938 106.675 266.77313Q106.675 268.66376 106.28438 269.83563Q105.89375 270.99188 105.1125 271.6325Q104.34688 272.2575 103.175 272.2575Q101.62813 272.2575 100.7375 271.1325Q99.675 269.80438 99.675 266.77313ZM101.03438 266.77313Q101.03438 269.41376 101.64375 270.28876Q102.26875 271.16376 103.175 271.16376Q104.08125 271.16376 104.69063 270.28876Q105.31563 269.41376 105.31563 266.77313Q105.31563 264.11688 104.69063 263.2575Q104.08125 262.3825 103.15938 262.3825Q102.25313 262.3825 101.70625 263.14813Q101.03438 264.1325 101.03438 266.77313Z" fill-rule="nonzero"/><path fill="#000000" d="M67.675 209.3775L69.05 209.2525Q69.20625 210.26813 69.76875 210.78375Q70.33125 211.28375 71.12813 211.28375Q72.08125 211.28375 72.7375 210.565Q73.39375 209.84625 73.39375 208.67438Q73.39375 207.53375 72.75313 206.89313Q72.12813 206.23688 71.09688 206.23688Q70.45625 206.23688 69.94063 206.53375Q69.44063 206.815 69.14375 207.26813L67.90938 207.11188L68.94063 201.59625L74.28438 201.59625L74.28438 202.86188L70.00313 202.86188L69.425 205.73688Q70.39375 205.065 71.45625 205.065Q72.8625 205.065 73.81563 206.04938Q74.78438 207.01813 74.78438 208.54938Q74.78438 210.0025 73.94063 211.065Q72.90938 212.3775 71.12813 212.3775Q69.65938 212.3775 68.72188 211.565Q67.8 210.73688 67.675 209.3775ZM75.675 206.89313Q75.675 204.98688 76.06563 203.83063Q76.45625 202.67438 77.22188 202.04938Q78.00313 201.40875 79.175 201.40875Q80.03438 201.40875 80.69063 201.76813Q81.34688 202.11188 81.76875 202.76813Q82.19063 203.40875 82.425 204.36188Q82.675 205.29938 82.675 206.89313Q82.675 208.78375 82.28438 209.95563Q81.89375 211.11188 81.1125 211.7525Q80.34688 212.3775 79.175 212.3775Q77.62813 212.3775 76.7375 211.2525Q75.675 209.92438 75.675 206.89313ZM77.03438 206.89313Q77.03438 209.53375 77.64375 210.40875Q78.26875 211.28375 79.175 211.28375Q80.08125 211.28375 80.69063 210.40875Q81.31563 209.53375 81.31563 206.89313Q81.31563 204.23688 80.69063 203.3775Q80.08125 202.5025 79.15938 202.5025Q78.25313 202.5025 77.70625 203.26813Q77.03438 204.2525 77.03438 206.89313ZM83.675 206.89313Q83.675 204.98688 84.06563 203.83063Q84.45625 202.67438 85.22188 202.04938Q86.00313 201.40875 87.175 201.40875Q88.03438 201.40875 88.69063 201.76813Q89.34688 202.11188 89.76875 202.76813Q90.19063 203.40875 90.425 204.36188Q90.675 205.29938 90.675 206.89313Q90.675 208.78375 90.28438 209.95563Q89.89375 211.11188 89.1125 211.7525Q88.34688 212.3775 87.175 212.3775Q85.62813 212.3775 84.7375 211.2525Q83.675 209.92438 83.675 206.89313ZM85.03438 206.89313Q85.03438 209.53375 85.64375 210.40875Q86.26875 211.28375 87.175 211.28375Q88.08125 211.28375 88.69063 210.40875Q89.31563 209.53375 89.31563 206.89313Q89.31563 204.23688 88.69063 203.3775Q88.08125 202.5025 87.15938 202.5025Q86.25313 202.5025 85.70625 203.26813Q85.03438 204.2525 85.03438 206.89313ZM91.675 206.89313Q91.675 204.98688 92.06563 203.83063Q92.45625 202.67438 93.22188 202.04938Q94.00313 201.40875 95.175 201.40875Q96.03438 201.40875 96.69063 201.76813Q97.34688 202.11188 97.76875 202.76813Q98.19063 203.40875 98.425 204.36188Q98.675 205.29938 98.675 206.89313Q98.675 208.78375 98.28438 209.95563Q97.89375 211.11188 97.1125 211.7525Q96.34688 212.3775 95.175 212.3775Q93.62813 212.3775 92.7375 211.2525Q91.675 209.92438 91.675 206.89313ZM93.03438 206.89313Q93.03438 209.53375 93.64375 210.40875Q94.26875 211.28375 95.175 211.28375Q96.08125 211.28375 96.69063 210.40875Q97.31563 209.53375 97.31563 206.89313Q97.31563 204.23688 96.69063 203.3775Q96.08125 202.5025 95.15938 202.5025Q94.25313 202.5025 93.70625 203.26813Q93.03438 204.2525 93.03438 206.89313ZM99.675 206.89313Q99.675 204.98688 100.06563 203.83063Q100.45625 202.67438 101.22188 202.04938Q102.00313 201.40875 103.175 201.40875Q104.03438 201.40875 104.69063 201.76813Q105.34688 202.11188 105.76875 202.76813Q106.19063 203.40875 106.425 204.36188Q106.675 205.29938 106.675 206.89313Q106.675 208.78375 106.28438 209.95563Q105.89375 211.11188 105.1125 211.7525Q104.34688 212.3775 103.175 212.3775Q101.62813 212.3775 100.7375 211.2525Q99.675 209.92438 99.675 206.89313ZM101.03438 206.89313Q101.03438 209.53375 101.64375 210.40875Q102.26875 211.28375 103.175 211.28375Q104.08125 211.28375 104.69063 210.40875Q105.31563 209.53375 105.31563 206.89313Q105.31563 204.23688 104.69063 203.3775Q104.08125 202.5025 103.15938 202.5025Q102.25313 202.5025 101.70625 203.26813Q101.03438 204.2525 101.03438 206.89313Z" fill-rule="nonzero"/><path fill="#000000" d="M67.75313 142.98187L67.75313 141.71625L74.70625 141.71625L74.70625 142.73187Q73.69063 143.82562 72.675 145.63812Q71.675 147.45062 71.12813 149.35687Q70.72188 150.70062 70.6125 152.31L69.26875 152.31Q69.28438 151.04437 69.75313 149.2475Q70.2375 147.45062 71.12813 145.79437Q72.01875 144.1225 73.01875 142.98187L67.75313 142.98187ZM75.675 149.4975L77.05 149.3725Q77.20625 150.38812 77.76875 150.90375Q78.33125 151.40375 79.12813 151.40375Q80.08125 151.40375 80.7375 150.685Q81.39375 149.96625 81.39375 148.79437Q81.39375 147.65375 80.75313 147.01312Q80.12813 146.35687 79.09688 146.35687Q78.45625 146.35687 77.94063 146.65375Q77.44063 146.935 77.14375 147.38812L75.90938 147.23187L76.94063 141.71625L82.28438 141.71625L82.28438 142.98187L78.00313 142.98187L77.425 145.85687Q78.39375 145.185 79.45625 145.185Q80.8625 145.185 81.81563 146.16937Q82.78438 147.13812 82.78438 148.66937Q82.78438 150.1225 81.94063 151.185Q80.90938 152.4975 79.12813 152.4975Q77.65938 152.4975 76.72188 151.685Q75.8 150.85687 75.675 149.4975ZM83.675 147.01312Q83.675 145.10687 84.06563 143.95062Q84.45625 142.79437 85.22188 142.16937Q86.00313 141.52875 87.175 141.52875Q88.03438 141.52875 88.69063 141.88812Q89.34688 142.23187 89.76875 142.88812Q90.19063 143.52875 90.425 144.48187Q90.675 145.41937 90.675 147.01312Q90.675 148.90375 90.28438 150.07562Q89.89375 151.23187 89.1125 151.8725Q88.34688 152.4975 87.175 152.4975Q85.62813 152.4975 84.7375 151.3725Q83.675 150.04437 83.675 147.01312ZM85.03438 147.01312Q85.03438 149.65375 85.64375 150.52875Q86.26875 151.40375 87.175 151.40375Q88.08125 151.40375 88.69063 150.52875Q89.31563 149.65375 89.31563 147.01312Q89.31563 144.35687 88.69063 143.4975Q88.08125 142.6225 87.15938 142.6225Q86.25313 142.6225 85.70625 143.38812Q85.03438 144.3725 85.03438 147.01312ZM91.675 147.01312Q91.675 145.10687 92.06563 143.95062Q92.45625 142.79437 93.22188 142.16937Q94.00313 141.52875 95.175 141.52875Q96.03438 141.52875 96.69063 141.88812Q97.34688 142.23187 97.76875 142.88812Q98.19063 143.52875 98.425 144.48187Q98.675 145.41937 98.675 147.01312Q98.675 148.90375 98.28438 150.07562Q97.89375 151.23187 97.1125 151.8725Q96.34688 152.4975 95.175 152.4975Q93.62813 152.4975 92.7375 151.3725Q91.675 150.04437 91.675 147.01312ZM93.03438 147.01312Q93.03438 149.65375 93.64375 150.52875Q94.26875 151.40375 95.175 151.40375Q96.08125 151.40375 96.69063 150.52875Q97.31563 149.65375 97.31563 147.01312Q97.31563 144.35687 96.69063 143.4975Q96.08125 142.6225 95.15938 142.6225Q94.25313 142.6225 93.70625 143.38812Q93.03438 144.3725 93.03438 147.01312ZM99.675 147.01312Q99.675 145.10687 100.06563 143.95062Q100.45625 142.79437 101.22188 142.16937Q102.00313 141.52875 103.175 141.52875Q104.03438 141.52875 104.69063 141.88812Q105.34688 142.23187 105.76875 142.88812Q106.19063 143.52875 106.425 144.48187Q106.675 145.41937 106.675 147.01312Q106.675 148.90375 106.28438 150.07562Q105.89375 151.23187 105.1125 151.8725Q104.34688 152.4975 103.175 152.4975Q101.62813 152.4975 100.7375 151.3725Q99.675 150.04437 99.675 147.01312ZM101.03438 147.01312Q101.03438 149.65375 101.64375 150.52875Q102.26875 151.40375 103.175 151.40375Q104.08125 151.40375 104.69063 150.52875Q105.31563 149.65375 105.31563 147.01312Q105.31563 144.35687 104.69063 143.4975Q104.08125 142.6225 103.15938 142.6225Q102.25313 142.6225 101.70625 143.38812Q101.03438 144.3725 101.03438 147.01312Z" fill-rule="nonzero"/><path fill="#000000" d="M64.64375 92.43L63.315624 92.43L63.315624 84.02375Q62.846874 84.476875 62.065624 84.945625Q61.3 85.39875 60.690624 85.6175L60.690624 84.33625Q61.784374 83.820625 62.6125 83.08625Q63.440624 82.351875 63.784374 81.64875L64.64375 81.64875L64.64375 92.43ZM67.675 87.133125Q67.675 85.226875 68.06563 84.070625Q68.45625 82.914375 69.22188 82.289375Q70.00313 81.64875 71.175 81.64875Q72.03438 81.64875 72.69063 82.008125Q73.34688 82.351875 73.76875 83.008125Q74.19063 83.64875 74.425 84.601875Q74.675 85.539375 74.675 87.133125Q74.675 89.02375 74.28438 90.195625Q73.89375 91.351875 73.1125 91.9925Q72.34688 92.6175 71.175 92.6175Q69.62813 92.6175 68.7375 91.4925Q67.675 90.164375 67.675 87.133125ZM69.03438 87.133125Q69.03438 89.77375 69.64375 90.64875Q70.26875 91.52375 71.175 91.52375Q72.08125 91.52375 72.69063 90.64875Q73.31563 89.77375 73.31563 87.133125Q73.31563 84.476875 72.69063 83.6175Q72.08125 82.7425 71.15938 82.7425Q70.25313 82.7425 69.70625 83.508125Q69.03438 84.4925 69.03438 87.133125ZM75.675 87.133125Q75.675 85.226875 76.06563 84.070625Q76.45625 82.914375 77.22188 82.289375Q78.00313 81.64875 79.175 81.64875Q80.03438 81.64875 80.69063 82.008125Q81.34688 82.351875 81.76875 83.008125Q82.19063 83.64875 82.425 84.601875Q82.675 85.539375 82.675 87.133125Q82.675 89.02375 82.28438 90.195625Q81.89375 91.351875 81.1125 91.9925Q80.34688 92.6175 79.175 92.6175Q77.62813 92.6175 76.7375 91.4925Q75.675 90.164375 75.675 87.133125ZM77.03438 87.133125Q77.03438 89.77375 77.64375 90.64875Q78.26875 91.52375 79.175 91.52375Q80.08125 91.52375 80.69063 90.64875Q81.31563 89.77375 81.31563 87.133125Q81.31563 84.476875 80.69063 83.6175Q80.08125 82.7425 79.15938 82.7425Q78.25313 82.7425 77.70625 83.508125Q77.03438 84.4925 77.03438 87.133125ZM83.675 87.133125Q83.675 85.226875 84.06563 84.070625Q84.45625 82.914375 85.22188 82.289375Q86.00313 81.64875 87.175 81.64875Q88.03438 81.64875 88.69063 82.008125Q89.34688 82.351875 89.76875 83.008125Q90.19063 83.64875 90.425 84.601875Q90.675 85.539375 90.675 87.133125Q90.675 89.02375 90.28438 90.195625Q89.89375 91.351875 89.1125 91.9925Q88.34688 92.6175 87.175 92.6175Q85.62813 92.6175 84.7375 91.4925Q83.675 90.164375 83.675 87.133125ZM85.03438 87.133125Q85.03438 89.77375 85.64375 90.64875Q86.26875 91.52375 87.175 91.52375Q88.08125 91.52375 88.69063 90.64875Q89.31563 89.77375 89.31563 87.133125Q89.31563 84.476875 88.69063 83.6175Q88.08125 82.7425 87.15938 82.7425Q86.25313 82.7425 85.70625 83.508125Q85.03438 84.4925 85.03438 87.133125ZM91.675 87.133125Q91.675 85.226875 92.06563 84.070625Q92.45625 82.914375 93.22188 82.289375Q94.00313 81.64875 95.175 81.64875Q96.03438 81.64875 96.69063 82.008125Q97.34688 82.351875 97.76875 83.008125Q98.19063 83.64875 98.425 84.601875Q98.675 85.539375 98.675 87.133125Q98.675 89.02375 98.28438 90.195625Q97.89375 91.351875 97.1125 91.9925Q96.34688 92.6175 95.175 92.6175Q93.62813 92.6175 92.7375 91.4925Q91.675 90.164375 91.675 87.133125ZM93.03438 87.133125Q93.03438 89.77375 93.64375 90.64875Q94.26875 91.52375 95.175 91.52375Q96.08125 91.52375 96.69063 90.64875Q97.31563 89.77375 97.31563 87.133125Q97.31563 84.476875 96.69063 83.6175Q96.08125 82.7425 95.15938 82.7425Q94.25313 82.7425 93.70625 83.508125Q93.03438 84.4925 93.03438 87.133125ZM99.675 87.133125Q99.675 85.226875 100.06563 84.070625Q100.45625 82.914375 101.22188 82.289375Q102.00313 81.64875 103.175 81.64875Q104.03438 81.64875 104.69063 82.008125Q105.34688 82.351875 105.76875 83.008125Q106.19063 83.64875 106.425 84.601875Q106.675 85.539375 106.675 87.133125Q106.675 89.02375 106.28438 90.195625Q105.89375 91.351875 105.1125 91.9925Q104.34688 92.6175 103.175 92.6175Q101.62813 92.6175 100.7375 91.4925Q99.675 90.164375 99.675 87.133125ZM101.03438 87.133125Q101.03438 89.77375 101.64375 90.64875Q102.26875 91.52375 103.175 91.52375Q104.08125 91.52375 104.69063 90.64875Q105.31563 89.77375 105.31563 87.133125Q105.31563 84.476875 104.69063 83.6175Q104.08125 82.7425 103.15938 82.7425Q102.25313 82.7425 101.70625 83.508125Q101.03438 84.4925 101.03438 87.133125Z" fill-rule="nonzero"/><path fill="#000000" d="M64.64375 32.55L63.315624 32.55L63.315624 24.14375Q62.846874 24.596874 62.065624 25.065624Q61.3 25.51875 60.690624 25.7375L60.690624 24.45625Q61.784374 23.940624 62.6125 23.20625Q63.440624 22.471874 63.784374 21.76875L64.64375 21.76875L64.64375 32.55ZM74.59688 31.284374L74.59688 32.55L67.50313 32.55Q67.4875 32.08125 67.65938 31.628124Q67.925 30.909374 68.51875 30.20625Q69.12813 29.503124 70.25313 28.58125Q72.00313 27.14375 72.6125 26.315624Q73.2375 25.471874 73.2375 24.721874Q73.2375 23.940624 72.675 23.409374Q72.1125 22.8625 71.20625 22.8625Q70.25313 22.8625 69.675 23.440624Q69.1125 24.003124 69.1125 25.01875L67.75313 24.878124Q67.89375 23.3625 68.8 22.565624Q69.70625 21.76875 71.2375 21.76875Q72.78438 21.76875 73.675 22.628124Q74.58125 23.4875 74.58125 24.753124Q74.58125 25.39375 74.31563 26.01875Q74.06563 26.64375 73.44063 27.33125Q72.83125 28.01875 71.40938 29.221874Q70.22188 30.20625 69.87813 30.565624Q69.55 30.925 69.33125 31.284374L74.59688 31.284374ZM75.675 29.7375L77.05 29.6125Q77.20625 30.628124 77.76875 31.14375Q78.33125 31.64375 79.12813 31.64375Q80.08125 31.64375 80.7375 30.925Q81.39375 30.20625 81.39375 29.034374Q81.39375 27.89375 80.75313 27.253124Q80.12813 26.596874 79.09688 26.596874Q78.45625 26.596874 77.94063 26.89375Q77.44063 27.175 77.14375 27.628124L75.90938 27.471874L76.94063 21.95625L82.28438 21.95625L82.28438 23.221874L78.00313 23.221874L77.425 26.096874Q78.39375 25.425 79.45625 25.425Q80.8625 25.425 81.81563 26.409374Q82.78438 27.378124 82.78438 28.909374Q82.78438 30.3625 81.94063 31.425Q80.90938 32.7375 79.12813 32.7375Q77.65938 32.7375 76.72188 31.925Q75.8 31.096874 75.675 29.7375ZM83.675 27.253124Q83.675 25.346874 84.06563 24.190624Q84.45625 23.034374 85.22188 22.409374Q86.00313 21.76875 87.175 21.76875Q88.03438 21.76875 88.69063 22.128124Q89.34688 22.471874 89.76875 23.128124Q90.19063 23.76875 90.425 24.721874Q90.675 25.659374 90.675 27.253124Q90.675 29.14375 90.28438 30.315624Q89.89375 31.471874 89.1125 32.1125Q88.34688 32.7375 87.175 32.7375Q85.62813 32.7375 84.7375 31.6125Q83.675 30.284374 83.675 27.253124ZM85.03438 27.253124Q85.03438 29.89375 85.64375 30.76875Q86.26875 31.64375 87.175 31.64375Q88.08125 31.64375 88.69063 30.76875Q89.31563 29.89375 89.31563 27.253124Q89.31563 24.596874 88.69063 23.7375Q88.08125 22.8625 87.15938 22.8625Q86.25313 22.8625 85.70625 23.628124Q85.03438 24.6125 85.03438 27.253124ZM91.675 27.253124Q91.675 25.346874 92.06563 24.190624Q92.45625 23.034374 93.22188 22.409374Q94.00313 21.76875 95.175 21.76875Q96.03438 21.76875 96.69063 22.128124Q97.34688 22.471874 97.76875 23.128124Q98.19063 23.76875 98.425 24.721874Q98.675 25.659374 98.675 27.253124Q98.675 29.14375 98.28438 30.315624Q97.89375 31.471874 97.1125 32.1125Q96.34688 32.7375 95.175 32.7375Q93.62813 32.7375 92.7375 31.6125Q91.675 30.284374 91.675 27.253124ZM93.03438 27.253124Q93.03438 29.89375 93.64375 30.76875Q94.26875 31.64375 95.175 31.64375Q96.08125 31.64375 96.69063 30.76875Q97.31563 29.89375 97.31563 27.253124Q97.31563 24.596874 96.69063 23.7375Q96.08125 22.8625 95.15938 22.8625Q94.25313 22.8625 93.70625 23.628124Q93.03438 24.6125 93.03438 27.253124ZM99.675 27.253124Q99.675 25.346874 100.06563 24.190624Q100.45625 23.034374 101.22188 22.409374Q102.00313 21.76875 103.175 21.76875Q104.03438 21.76875 104.69063 22.128124Q105.34688 22.471874 105.76875 23.128124Q106.19063 23.76875 106.425 24.721874Q106.675 25.659374 106.675 27.253124Q106.675 29.14375 106.28438 30.315624Q105.89375 31.471874 105.1125 32.1125Q104.34688 32.7375 103.175 32.7375Q101.62813 32.7375 100.7375 31.6125Q99.675 30.284374 99.675 27.253124ZM101.03438 27.253124Q101.03438 29.89375 101.64375 30.76875Q102.26875 31.64375 103.175 31.64375Q104.08125 31.64375 104.69063 30.76875Q105.31563 29.89375 105.31563 27.253124Q105.31563 24.596874 104.69063 23.7375Q104.08125 22.8625 103.15938 22.8625Q102.25313 22.8625 101.70625 23.628124Q101.03438 24.6125 101.03438 27.253124Z" fill-rule="nonzero"/><path fill="#000000" d="M156.11124 348.45L160.23624 337.71564L161.75186 337.71564L166.15811 348.45L164.53311 348.45L163.28311 345.2L158.79874 345.2L157.61124 348.45L156.11124 348.45ZM159.20499 344.04376L162.84561 344.04376L161.72061 341.0594Q161.20499 339.71564 160.95499 338.84064Q160.75186 339.8719 160.37686 340.8875L159.20499 344.04376ZM166.23624 348.45L166.23624 337.71564L168.37686 337.71564L170.92374 345.3094Q171.26749 346.3719 171.43936 346.90314Q171.61124 346.325 172.00186 345.1844L174.57999 337.71564L176.48624 337.71564L176.48624 348.45L175.11124 348.45L175.11124 339.46564L172.00186 348.45L170.72061 348.45L167.61124 339.3094L167.61124 348.45L166.23624 348.45ZM185.42374 347.29376Q186.40811 347.98126 187.25186 348.29376L186.82999 349.27814Q185.67374 348.8719 184.51749 347.96564Q183.32999 348.6375 181.87686 348.6375Q180.42374 348.6375 179.23624 347.9344Q178.04874 347.23126 177.40811 345.96564Q176.76749 344.6844 176.76749 343.075Q176.76749 341.4969 177.40811 340.2Q178.06436 338.8875 179.25186 338.21564Q180.43936 337.52814 181.90811 337.52814Q183.39249 337.52814 184.57999 338.23126Q185.78311 338.9344 186.40811 340.21564Q187.03311 341.48126 187.03311 343.075Q187.03311 344.40314 186.62686 345.46564Q186.23624 346.5125 185.42374 347.29376ZM182.29874 345.48126Q183.51749 345.825 184.32999 346.5125Q185.57999 345.3719 185.57999 343.075Q185.57999 341.7625 185.12686 340.79376Q184.68936 339.825 183.82999 339.29376Q182.98624 338.7469 181.92374 338.7469Q180.32999 338.7469 179.28311 339.84064Q178.23624 340.91876 178.23624 343.075Q178.23624 345.16876 179.26749 346.29376Q180.31436 347.41876 181.92374 347.41876Q182.68936 347.41876 183.36124 347.1375Q182.68936 346.7 181.95499 346.5125L182.29874 345.48126ZM189.28311 348.45L189.28311 337.71564L193.32999 337.71564Q194.40811 337.71564 194.97061 337.8094Q195.75186 337.95 196.28311 338.325Q196.82999 338.6844 197.15811 339.35626Q197.48624 340.0125 197.48624 340.825Q197.48624 342.1844 196.61124 343.1375Q195.73624 344.09064 193.45499 344.09064L190.70499 344.09064L190.70499 348.45L189.28311 348.45ZM190.70499 342.825L193.48624 342.825Q194.86124 342.825 195.43936 342.3094Q196.01749 341.79376 196.01749 340.85626Q196.01749 340.1844 195.67374 339.71564Q195.32999 339.23126 194.78311 339.075Q194.42374 338.98126 193.45499 338.98126L190.70499 338.98126L190.70499 342.825ZM207.72061 348.45L206.39249 348.45L206.39249 340.04376Q205.92374 340.4969 205.14249 340.96564Q204.37686 341.41876 203.76749 341.6375L203.76749 340.35626Q204.86124 339.84064 205.68936 339.10626Q206.51749 338.3719 206.86124 337.66876L207.72061 337.66876L207.72061 348.45ZM211.48624 348.45L211.48624 346.95L212.98624 346.95L212.98624 348.45L211.48624 348.45ZM214.75186 343.15314Q214.75186 341.2469 215.14249 340.09064Q215.53311 338.9344 216.29874 338.3094Q217.07999 337.66876 218.25186 337.66876Q219.11124 337.66876 219.76749 338.02814Q220.42374 338.3719 220.84561 339.02814Q221.26749 339.66876 221.50186 340.6219Q221.75186 341.5594 221.75186 343.15314Q221.75186 345.04376 221.36124 346.21564Q220.97061 347.3719 220.18936 348.0125Q219.42374 348.6375 218.25186 348.6375Q216.70499 348.6375 215.81436 347.5125Q214.75186 346.1844 214.75186 343.15314ZM216.11124 343.15314Q216.11124 345.79376 216.72061 346.66876Q217.34561 347.54376 218.25186 347.54376Q219.15811 347.54376 219.76749 346.66876Q220.39249 345.79376 220.39249 343.15314Q220.39249 340.4969 219.76749 339.6375Q219.15811 338.7625 218.23624 338.7625Q217.32999 338.7625 216.78311 339.52814Q216.11124 340.5125 216.11124 343.15314ZM227.12686 339.23126L227.12686 337.71564L228.43936 337.71564L228.43936 339.23126L227.12686 339.23126ZM227.12686 348.45L227.12686 340.66876L228.43936 340.66876L228.43936 348.45L227.12686 348.45ZM230.11124 348.45L230.11124 340.66876L231.29874 340.66876L231.29874 341.77814Q232.15811 340.4969 233.78311 340.4969Q234.48624 340.4969 235.06436 340.7469Q235.65811 340.9969 235.95499 341.41876Q236.25186 341.825 236.36124 342.3875Q236.43936 342.7469 236.43936 343.66876L236.43936 348.45L235.11124 348.45L235.11124 343.71564Q235.11124 342.91876 234.95499 342.52814Q234.81436 342.1219 234.42374 341.8875Q234.03311 341.6375 233.50186 341.6375Q232.65811 341.6375 232.04874 342.16876Q231.43936 342.7 231.43936 344.2L231.43936 348.45L230.11124 348.45ZM245.97061 348.45L245.97061 345.8719L241.31436 345.8719L241.31436 344.66876L246.22061 337.71564L247.29874 337.71564L247.29874 344.66876L248.75186 344.66876L248.75186 345.8719L247.29874 345.8719L247.29874 348.45L245.97061 348.45ZM245.97061 344.66876L245.97061 339.825L242.61124 344.66876L245.97061 344.66876ZM250.48624 348.45L250.48624 346.95L251.98624 346.95L251.98624 348.45L250.48624 348.45ZM253.75186 343.15314Q253.75186 341.2469 254.14249 340.09064Q254.53311 338.9344 255.29874 338.3094Q256.08 337.66876 257.25186 337.66876Q258.11124 337.66876 258.7675 338.02814Q259.42374 338.3719 259.8456 339.02814Q260.2675 339.66876 260.50186 340.6219Q260.75186 341.5594 260.75186 343.15314Q260.75186 345.04376 260.36124 346.21564Q259.9706 347.3719 259.18936 348.0125Q258.42374 348.6375 257.25186 348.6375Q255.70499 348.6375 254.81436 347.5125Q253.75186 346.1844 253.75186 343.15314ZM255.11124 343.15314Q255.11124 345.79376 255.72061 346.66876Q256.3456 347.54376 257.25186 347.54376Q258.1581 347.54376 258.7675 346.66876Q259.3925 345.79376 259.3925 343.15314Q259.3925 340.4969 258.7675 339.6375Q258.1581 338.7625 257.23624 338.7625Q256.33 338.7625 255.78311 339.52814Q255.11124 340.5125 255.11124 343.15314Z" fill-rule="nonzero"/><path fill="#000000" d="M291.48438 348.45L295.60938 337.71564L297.125 337.71564L301.53125 348.45L299.90625 348.45L298.65625 345.2L294.17188 345.2L292.98438 348.45L291.48438 348.45ZM294.57812 344.04376L298.21875 344.04376L297.09375 341.0594Q296.57812 339.71564 296.32812 338.84064Q296.125 339.8719 295.75 340.8875L294.57812 344.04376ZM301.60938 348.45L301.60938 337.71564L303.75 337.71564L306.29688 345.3094Q306.64062 346.3719 306.8125 346.90314Q306.98438 346.325 307.375 345.1844L309.95312 337.71564L311.85938 337.71564L311.85938 348.45L310.48438 348.45L310.48438 339.46564L307.375 348.45L306.09375 348.45L302.98438 339.3094L302.98438 348.45L301.60938 348.45ZM320.79688 347.29376Q321.78125 347.98126 322.625 348.29376L322.20312 349.27814Q321.04688 348.8719 319.89062 347.96564Q318.70312 348.6375 317.25 348.6375Q315.79688 348.6375 314.60938 347.9344Q313.42188 347.23126 312.78125 345.96564Q312.14062 344.6844 312.14062 343.075Q312.14062 341.4969 312.78125 340.2Q313.4375 338.8875 314.625 338.21564Q315.8125 337.52814 317.28125 337.52814Q318.76562 337.52814 319.95312 338.23126Q321.15625 338.9344 321.78125 340.21564Q322.40625 341.48126 322.40625 343.075Q322.40625 344.40314 322.0 345.46564Q321.60938 346.5125 320.79688 347.29376ZM317.67188 345.48126Q318.89062 345.825 319.70312 346.5125Q320.95312 345.3719 320.95312 343.075Q320.95312 341.7625 320.5 340.79376Q320.0625 339.825 319.20312 339.29376Q318.35938 338.7469 317.29688 338.7469Q315.70312 338.7469 314.65625 339.84064Q313.60938 340.91876 313.60938 343.075Q313.60938 345.16876 314.64062 346.29376Q315.6875 347.41876 317.29688 347.41876Q318.0625 347.41876 318.73438 347.1375Q318.0625 346.7 317.32812 346.5125L317.67188 345.48126ZM324.65625 348.45L324.65625 337.71564L328.70312 337.71564Q329.78125 337.71564 330.34375 337.8094Q331.125 337.95 331.65625 338.325Q332.20312 338.6844 332.53125 339.35626Q332.85938 340.0125 332.85938 340.825Q332.85938 342.1844 331.98438 343.1375Q331.10938 344.09064 328.82812 344.09064L326.07812 344.09064L326.07812 348.45L324.65625 348.45ZM326.07812 342.825L328.85938 342.825Q330.23438 342.825 330.8125 342.3094Q331.39062 341.79376 331.39062 340.85626Q331.39062 340.1844 331.04688 339.71564Q330.70312 339.23126 330.15625 339.075Q329.79688 338.98126 328.82812 338.98126L326.07812 338.98126L326.07812 342.825ZM343.09375 348.45L341.76562 348.45L341.76562 340.04376Q341.29688 340.4969 340.51562 340.96564Q339.75 341.41876 339.14062 341.6375L339.14062 340.35626Q340.23438 339.84064 341.0625 339.10626Q341.89062 338.3719 342.23438 337.66876L343.09375 337.66876L343.09375 348.45ZM346.85938 348.45L346.85938 346.95L348.35938 346.95L348.35938 348.45L346.85938 348.45ZM350.125 343.15314Q350.125 341.2469 350.51562 340.09064Q350.90625 338.9344 351.67188 338.3094Q352.45312 337.66876 353.625 337.66876Q354.48438 337.66876 355.14062 338.02814Q355.79688 338.3719 356.21875 339.02814Q356.64062 339.66876 356.875 340.6219Q357.125 341.5594 357.125 343.15314Q357.125 345.04376 356.73438 346.21564Q356.34375 347.3719 355.5625 348.0125Q354.79688 348.6375 353.625 348.6375Q352.07812 348.6375 351.1875 347.5125Q350.125 346.1844 350.125 343.15314ZM351.48438 343.15314Q351.48438 345.79376 352.09375 346.66876Q352.71875 347.54376 353.625 347.54376Q354.53125 347.54376 355.14062 346.66876Q355.76562 345.79376 355.76562 343.15314Q355.76562 340.4969 355.14062 339.6375Q354.53125 338.7625 353.60938 338.7625Q352.70312 338.7625 352.15625 339.52814Q351.48438 340.5125 351.48438 343.15314ZM362.5 339.23126L362.5 337.71564L363.8125 337.71564L363.8125 339.23126L362.5 339.23126ZM362.5 348.45L362.5 340.66876L363.8125 340.66876L363.8125 348.45L362.5 348.45ZM365.48438 348.45L365.48438 340.66876L366.67188 340.66876L366.67188 341.77814Q367.53125 340.4969 369.15625 340.4969Q369.85938 340.4969 370.4375 340.7469Q371.03125 340.9969 371.32812 341.41876Q371.625 341.825 371.73438 342.3875Q371.8125 342.7469 371.8125 343.66876L371.8125 348.45L370.48438 348.45L370.48438 343.71564Q370.48438 342.91876 370.32812 342.52814Q370.1875 342.1219 369.79688 341.8875Q369.40625 341.6375 368.875 341.6375Q368.03125 341.6375 367.42188 342.16876Q366.8125 342.7 366.8125 344.2L366.8125 348.45L365.48438 348.45ZM377.125 345.6219L378.45312 345.4344Q378.67188 346.5594 379.21875 347.0594Q379.76562 347.54376 380.54688 347.54376Q381.48438 347.54376 382.125 346.90314Q382.76562 346.2625 382.76562 345.3094Q382.76562 344.40314 382.17188 343.8094Q381.57812 343.21564 380.65625 343.21564Q380.28125 343.21564 379.73438 343.3719L379.875 342.21564Q380.01562 342.23126 380.09375 342.23126Q380.9375 342.23126 381.60938 341.79376Q382.28125 341.34064 382.28125 340.4344Q382.28125 339.7 381.78125 339.23126Q381.29688 338.7469 380.51562 338.7469Q379.75 338.7469 379.23438 339.23126Q378.73438 339.71564 378.57812 340.6844L377.26562 340.45Q377.5 339.1219 378.35938 338.40314Q379.21875 337.66876 380.48438 337.66876Q381.375 337.66876 382.10938 338.04376Q382.84375 338.41876 383.23438 339.075Q383.64062 339.73126 383.64062 340.46564Q383.64062 341.15314 383.26562 341.73126Q382.89062 342.29376 382.15625 342.6375Q383.10938 342.85626 383.625 343.54376Q384.15625 344.23126 384.15625 345.27814Q384.15625 346.6844 383.125 347.66876Q382.10938 348.6375 380.54688 348.6375Q379.125 348.6375 378.1875 347.79376Q377.26562 346.95 377.125 345.6219ZM385.85938 348.45L385.85938 346.95L387.35938 346.95L387.35938 348.45L385.85938 348.45ZM394.09375 348.45L392.76562 348.45L392.76562 340.04376Q392.29688 340.4969 391.51562 340.96564Q390.75 341.41876 390.14062 341.6375L390.14062 340.35626Q391.23438 339.84064 392.0625 339.10626Q392.89062 338.3719 393.23438 337.66876L394.09375 337.66876L394.09375 348.45ZM397.125 345.6219L398.45312 345.4344Q398.67188 346.5594 399.21875 347.0594Q399.76562 347.54376 400.54688 347.54376Q401.48438 347.54376 402.125 346.90314Q402.76562 346.2625 402.76562 345.3094Q402.76562 344.40314 402.17188 343.8094Q401.57812 343.21564 400.65625 343.21564Q400.28125 343.21564 399.73438 343.3719L399.875 342.21564Q400.01562 342.23126 400.09375 342.23126Q400.9375 342.23126 401.60938 341.79376Q402.28125 341.34064 402.28125 340.4344Q402.28125 339.7 401.78125 339.23126Q401.29688 338.7469 400.51562 338.7469Q399.75 338.7469 399.23438 339.23126Q398.73438 339.71564 398.57812 340.6844L397.26562 340.45Q397.5 339.1219 398.35938 338.40314Q399.21875 337.66876 400.48438 337.66876Q401.375 337.66876 402.10938 338.04376Q402.84375 338.41876 403.23438 339.075Q403.64062 339.73126 403.64062 340.46564Q403.64062 341.15314 403.26562 341.73126Q402.89062 342.29376 402.15625 342.6375Q403.10938 342.85626 403.625 343.54376Q404.15625 344.23126 404.15625 345.27814Q404.15625 346.6844 403.125 347.66876Q402.10938 348.6375 400.54688 348.6375Q399.125 348.6375 398.1875 347.79376Q397.26562 346.95 397.125 345.6219Z" fill-rule="nonzero"/><path fill="#000000" d="M428.8575 348.45L432.9825 337.71564L434.49814 337.71564L438.9044 348.45L437.2794 348.45L436.0294 345.2L431.545 345.2L430.3575 348.45L428.8575 348.45ZM431.95126 344.04376L435.5919 344.04376L434.4669 341.0594Q433.95126 339.71564 433.70126 338.84064Q433.49814 339.8719 433.12314 340.8875L431.95126 344.04376ZM438.9825 348.45L438.9825 337.71564L441.12314 337.71564L443.67 345.3094Q444.01376 346.3719 444.18564 346.90314Q444.3575 346.325 444.74814 345.1844L447.32626 337.71564L449.2325 337.71564L449.2325 348.45L447.8575 348.45L447.8575 339.46564L444.74814 348.45L443.4669 348.45L440.3575 339.3094L440.3575 348.45L438.9825 348.45ZM458.17 347.29376Q459.1544 347.98126 459.99814 348.29376L459.57626 349.27814Q458.42 348.8719 457.26376 347.96564Q456.07626 348.6375 454.62314 348.6375Q453.17 348.6375 451.9825 347.9344Q450.795 347.23126 450.1544 345.96564Q449.51376 344.6844 449.51376 343.075Q449.51376 341.4969 450.1544 340.2Q450.81064 338.8875 451.99814 338.21564Q453.18564 337.52814 454.6544 337.52814Q456.13876 337.52814 457.32626 338.23126Q458.5294 338.9344 459.1544 340.21564Q459.7794 341.48126 459.7794 343.075Q459.7794 344.40314 459.37314 345.46564Q458.9825 346.5125 458.17 347.29376ZM455.045 345.48126Q456.26376 345.825 457.07626 346.5125Q458.32626 345.3719 458.32626 343.075Q458.32626 341.7625 457.87314 340.79376Q457.43564 339.825 456.57626 339.29376Q455.7325 338.7469 454.67 338.7469Q453.07626 338.7469 452.0294 339.84064Q450.9825 340.91876 450.9825 343.075Q450.9825 345.16876 452.01376 346.29376Q453.06064 347.41876 454.67 347.41876Q455.43564 347.41876 456.1075 347.1375Q455.43564 346.7 454.70126 346.5125L455.045 345.48126ZM462.0294 348.45L462.0294 337.71564L466.07626 337.71564Q467.1544 337.71564 467.7169 337.8094Q468.49814 337.95 469.0294 338.325Q469.57626 338.6844 469.9044 339.35626Q470.2325 340.0125 470.2325 340.825Q470.2325 342.1844 469.3575 343.1375Q468.4825 344.09064 466.20126 344.09064L463.45126 344.09064L463.45126 348.45L462.0294 348.45ZM463.45126 342.825L466.2325 342.825Q467.6075 342.825 468.18564 342.3094Q468.76376 341.79376 468.76376 340.85626Q468.76376 340.1844 468.42 339.71564Q468.07626 339.23126 467.5294 339.075Q467.17 338.98126 466.20126 338.98126L463.45126 338.98126L463.45126 342.825ZM475.49814 343.15314Q475.49814 341.2469 475.88876 340.09064Q476.2794 338.9344 477.045 338.3094Q477.82626 337.66876 478.99814 337.66876Q479.8575 337.66876 480.51376 338.02814Q481.17 338.3719 481.5919 339.02814Q482.01376 339.66876 482.24814 340.6219Q482.49814 341.5594 482.49814 343.15314Q482.49814 345.04376 482.1075 346.21564Q481.7169 347.3719 480.93564 348.0125Q480.17 348.6375 478.99814 348.6375Q477.45126 348.6375 476.56064 347.5125Q475.49814 346.1844 475.49814 343.15314ZM476.8575 343.15314Q476.8575 345.79376 477.4669 346.66876Q478.0919 347.54376 478.99814 347.54376Q479.9044 347.54376 480.51376 346.66876Q481.13876 345.79376 481.13876 343.15314Q481.13876 340.4969 480.51376 339.6375Q479.9044 338.7625 478.9825 338.7625Q478.07626 338.7625 477.5294 339.52814Q476.8575 340.5125 476.8575 343.15314ZM484.2325 348.45L484.2325 346.95L485.7325 346.95L485.7325 348.45L484.2325 348.45ZM487.70126 345.96564L488.9669 345.85626Q489.12314 346.7469 489.57626 347.15314Q490.0294 347.54376 490.74814 347.54376Q491.3419 347.54376 491.795 347.27814Q492.26376 346.9969 492.56064 346.52814Q492.8575 346.0594 493.045 345.27814Q493.24814 344.48126 493.24814 343.65314Q493.24814 343.575 493.2325 343.40314Q492.8419 344.02814 492.1544 344.41876Q491.4669 344.8094 490.67 344.8094Q489.3419 344.8094 488.42 343.84064Q487.49814 342.8719 487.49814 341.29376Q487.49814 339.65314 488.45126 338.66876Q489.42 337.66876 490.87314 337.66876Q491.92 337.66876 492.7794 338.23126Q493.6544 338.79376 494.1075 339.84064Q494.56064 340.8875 494.56064 342.85626Q494.56064 344.91876 494.1075 346.1375Q493.67 347.35626 492.7794 347.9969Q491.9044 348.6375 490.7169 348.6375Q489.45126 348.6375 488.6544 347.9344Q487.8575 347.23126 487.70126 345.96564ZM493.0919 341.23126Q493.0919 340.09064 492.4825 339.4344Q491.88876 338.7625 491.0294 338.7625Q490.1544 338.7625 489.49814 339.48126Q488.8575 340.2 488.8575 341.34064Q488.8575 342.35626 489.4669 342.9969Q490.0919 343.6375 490.99814 343.6375Q491.92 343.6375 492.49814 342.9969Q493.0919 342.35626 493.0919 341.23126ZM496.2325 348.45L496.2325 346.95L497.7325 346.95L497.7325 348.45L496.2325 348.45ZM504.4669 348.45L503.13876 348.45L503.13876 340.04376Q502.67 340.4969 501.88876 340.96564Q501.12314 341.41876 500.51376 341.6375L500.51376 340.35626Q501.6075 339.84064 502.43564 339.10626Q503.26376 338.3719 503.6075 337.66876L504.4669 337.66876L504.4669 348.45ZM511.87314 339.23126L511.87314 337.71564L513.18567 337.71564L513.18567 339.23126L511.87314 339.23126ZM511.87314 348.45L511.87314 340.66876L513.18567 340.66876L513.18567 348.45L511.87314 348.45ZM514.85754 348.45L514.85754 340.66876L516.04504 340.66876L516.04504 341.77814Q516.9044 340.4969 518.5294 340.4969Q519.23254 340.4969 519.81067 340.7469Q520.4044 340.9969 520.7013 341.41876Q520.99817 341.825 521.10754 342.3875Q521.18567 342.7469 521.18567 343.66876L521.18567 348.45L519.85754 348.45L519.85754 343.71564Q519.85754 342.91876 519.7013 342.52814Q519.56067 342.1219 519.17004 341.8875Q518.7794 341.6375 518.24817 341.6375Q517.4044 341.6375 516.79504 342.16876Q516.18567 342.7 516.18567 344.2L516.18567 348.45L514.85754 348.45ZM530.7169 348.45L530.7169 345.8719L526.06067 345.8719L526.06067 344.66876L530.9669 337.71564L532.04504 337.71564L532.04504 344.66876L533.49817 344.66876L533.49817 345.8719L532.04504 345.8719L532.04504 348.45L530.7169 348.45ZM530.7169 344.66876L530.7169 339.825L527.35754 344.66876L530.7169 344.66876ZM535.23254 348.45L535.23254 346.95L536.73254 346.95L536.73254 348.45L535.23254 348.45ZM538.49817 343.15314Q538.49817 341.2469 538.8888 340.09064Q539.2794 338.9344 540.04504 338.3094Q540.8263 337.66876 541.99817 337.66876Q542.85754 337.66876 543.5138 338.02814Q544.17004 338.3719 544.5919 339.02814Q545.0138 339.66876 545.24817 340.6219Q545.49817 341.5594 545.49817 343.15314Q545.49817 345.04376 545.10754 346.21564Q544.7169 347.3719 543.93567 348.0125Q543.17004 348.6375 541.99817 348.6375Q540.4513 348.6375 539.56067 347.5125Q538.49817 346.1844 538.49817 343.15314ZM539.85754 343.15314Q539.85754 345.79376 540.4669 346.66876Q541.0919 347.54376 541.99817 347.54376Q542.9044 347.54376 543.5138 346.66876Q544.1388 345.79376 544.1388 343.15314Q544.1388 340.4969 543.5138 339.6375Q542.9044 338.7625 541.98254 338.7625Q541.0763 338.7625 540.5294 339.52814Q539.85754 340.5125 539.85754 343.15314Z" fill-rule="nonzero"/></svg>