<svg version="1.1" viewBox="0.0 0.0 600.0 371.0" fill="none" stroke="none" stroke-linecap="square" stroke-miterlimit="10" width="600" height="371" xmlns:xlink="http://www.w3.org/1999/xlink" xmlns="http://www.w3.org/2000/svg"><path fill="#ffffff" d="M0 0L600.0 0L600.0 371.0L0 371.0L0 0Z" fill-rule="nonzero"/><path stroke="#333333" stroke-width="1.0" stroke-linecap="butt" d="M118.5 308.5L581.5 308.5" fill-rule="nonzero"/><path stroke="#cccccc" stroke-width="1.0" stroke-linecap="butt" d="M118.5 238.5L581.5 238.5" fill-rule="nonzero"/><path stroke="#cccccc" stroke-width="1.0" stroke-linecap="butt" d="M118.5 168.5L581.5 168.5" fill-rule="nonzero"/><path stroke="#cccccc" stroke-width="1.0" stroke-linecap="butt" d="M118.5 97.5L581.5 97.5" fill-rule="nonzero"/><path stroke="#cccccc" stroke-width="1.0" stroke-linecap="butt" d="M118.5 27.5L581.5 27.5" fill-rule="nonzero"/><path stroke="#e6e6e6" stroke-width="1.0" stroke-linecap="butt" d="M118.5 294.5L581.5 294.5" fill-rule="nonzero"/><path stroke="#e6e6e6" stroke-width="1.0" stroke-linecap="butt" d="M118.5 280.5L581.5 280.5" fill-rule="nonzero"/><path stroke="#e6e6e6" stroke-width="1.0" stroke-linecap="butt" d="M118.5 266.5L581.5 266.5" fill-rule="nonzero"/><path stroke="#e6e6e6" stroke-width="1.0" stroke-linecap="butt" d="M118.5 252.5L581.5 252.5" fill-rule="nonzero"/><path stroke="#e6e6e6" stroke-width="1.0" stroke-linecap="butt" d="M118.5 224.5L581.5 224.5" fill-rule="nonzero"/><path stroke="#e6e6e6" stroke-width="1.0" stroke-linecap="butt" d="M118.5 210.5L581.5 210.5" fill-rule="nonzero"/><path stroke="#e6e6e6" stroke-width="1.0" stroke-linecap="butt" d="M118.5 196.5L581.5 196.5" fill-rule="nonzero"/><path stroke="#e6e6e6" stroke-width="1.0" stroke-linecap="butt" d="M118.5 182.5L581.5 182.5" fill-rule="nonzero"/><path stroke="#e6e6e6" stroke-width="1.0" stroke-linecap="butt" d="M118.5 154.5L581.5 154.5" fill-rule="nonzero"/><path stroke="#e6e6e6" stroke-width="1.0" stroke-linecap="butt" d="M118.5 140.5L581.5 140.5" fill-rule="nonzero"/><path stroke="#e6e6e6" stroke-width="1.0" stroke-linecap="butt" d="M118.5 126.5L581.5 126.5" fill-rule="nonzero"/><path stroke="#e6e6e6" stroke-width="1.0" stroke-linecap="butt" d="M118.5 111.5L581.5 111.5" fill-rule="nonzero"/><path stroke="#e6e6e6" stroke-width="1.0" stroke-linecap="butt" d="M118.5 83.5L581.5 83.5" fill-rule="nonzero"/><path stroke="#e6e6e6" stroke-width="1.0" stroke-linecap="butt" d="M118.5 69.5L581.5 69.5" fill-rule="nonzero"/><path stroke="#e6e6e6" stroke-width="1.0" stroke-linecap="butt" d="M118.5 55.5L581.5 55.5" fill-rule="nonzero"/><path stroke="#e6e6e6" stroke-width="1.0" stroke-linecap="butt" d="M118.5 41.5L581.5 41.5" fill-rule="nonzero"/><clipPath id="id_0"><path d="M118.55 27.55L581.45 27.55L581.45 308.95L118.55 308.95L118.55 27.55Z" clip-rule="nonzero"/></clipPath><path stroke="#000000" stroke-width="2.0" stroke-linecap="butt" stroke-opacity="0.0" clip-path="url(#id_0)" d="M257.0 309.0L167.0 309.0L167.0 31.0C167.0 29.89543 167.89543 29.0 169.0 29.0L255.0 29.0C256.10458 29.0 257.0 29.89543 257.0 31.0Z" fill-rule="nonzero"/><path fill="#4285f4" clip-path="url(#id_0)" d="M257.0 309.0L167.0 309.0L167.0 31.0C167.0 29.89543 167.89543 29.0 169.0 29.0L255.0 29.0C256.10458 29.0 257.0 29.89543 257.0 31.0Z" fill-rule="nonzero"/><path stroke="#000000" stroke-width="2.0" stroke-linecap="butt" stroke-opacity="0.0" clip-path="url(#id_0)" d="M395.0 309.0L305.0 309.0L305.0 250.0C305.0 248.89543 305.89542 248.0 307.0 248.0L393.0 248.0C394.10458 248.0 395.0 248.89543 395.0 250.0Z" fill-rule="nonzero"/><path fill="#4285f4" clip-path="url(#id_0)" d="M395.0 309.0L305.0 309.0L305.0 250.0C305.0 248.89543 305.89542 248.0 307.0 248.0L393.0 248.0C394.10458 248.0 395.0 248.89543 395.0 250.0Z" fill-rule="nonzero"/><path stroke="#000000" stroke-width="2.0" stroke-linecap="butt" stroke-opacity="0.0" clip-path="url(#id_0)" d="M533.0 309.0L443.0 309.0L443.0 62.0C443.0 60.89543 443.89542 60.0 445.0 60.0L531.0 60.0C532.10455 60.0 533.0 60.89543 533.0 62.0Z" fill-rule="nonzero"/><path fill="#4285f4" clip-path="url(#id_0)" d="M533.0 309.0L443.0 309.0L443.0 62.0C443.0 60.89543 443.89542 60.0 445.0 60.0L531.0 60.0C532.10455 60.0 533.0 60.89543 533.0 62.0Z" fill-rule="nonzero"/><path stroke="#4285f4" stroke-width="3.0" stroke-linejoin="round" stroke-linecap="round" d="M193.65625 43.017445L194.67188 42.923695Q194.79688 43.642445 195.15625 43.97057Q195.53125 44.28307 196.09375 44.28307Q196.57812 44.28307 196.9375 44.06432Q197.3125 43.829945 197.54688 43.47057Q197.78125 43.09557 197.9375 42.47057Q198.09375 41.829945 198.09375 41.173695Q198.09375 41.09557 198.09375 40.954945Q197.78125 41.454945 197.23438 41.78307Q196.6875 42.09557 196.04688 42.09557Q194.96875 42.09557 194.23438 41.329945Q193.5 40.548695 193.5 39.28307Q193.5 37.97057 194.26562 37.173695Q195.04688 36.37682 196.20312 36.37682Q197.03125 36.37682 197.71875 36.829945Q198.42188 37.28307 198.78125 38.12682Q199.14062 38.954945 199.14062 40.53307Q199.14062 42.173695 198.78125 43.15807Q198.4375 44.12682 197.71875 44.642445Q197.01562 45.142445 196.07812 45.142445Q195.0625 45.142445 194.42188 44.59557Q193.78125 44.03307 193.65625 43.017445ZM197.96875 39.22057Q197.96875 38.31432 197.48438 37.78307Q197.01562 37.25182 196.32812 37.25182Q195.625 37.25182 195.09375 37.829945Q194.57812 38.392445 194.57812 39.31432Q194.57812 40.12682 195.07812 40.642445Q195.57812 41.15807 196.29688 41.15807Q197.03125 41.15807 197.5 40.642445Q197.96875 40.12682 197.96875 39.22057ZM200.65625 43.017445L201.67188 42.923695Q201.79688 43.642445 202.15625 43.97057Q202.53125 44.28307 203.09375 44.28307Q203.57812 44.28307 203.9375 44.06432Q204.3125 43.829945 204.54688 43.47057Q204.78125 43.09557 204.9375 42.47057Q205.09375 41.829945 205.09375 41.173695Q205.09375 41.09557 205.09375 40.954945Q204.78125 41.454945 204.23438 41.78307Q203.6875 42.09557 203.04688 42.09557Q201.96875 42.09557 201.23438 41.329945Q200.5 40.548695 200.5 39.28307Q200.5 37.97057 201.26562 37.173695Q202.04688 36.37682 203.20312 36.37682Q204.03125 36.37682 204.71875 36.829945Q205.42188 37.28307 205.78125 38.12682Q206.14062 38.954945 206.14062 40.53307Q206.14062 42.173695 205.78125 43.15807Q205.4375 44.12682 204.71875 44.642445Q204.01562 45.142445 203.07812 45.142445Q202.0625 45.142445 201.42188 44.59557Q200.78125 44.03307 200.65625 43.017445ZM204.96875 39.22057Q204.96875 38.31432 204.48438 37.78307Q204.01562 37.25182 203.32812 37.25182Q202.625 37.25182 202.09375 37.829945Q201.57812 38.392445 201.57812 39.31432Q201.57812 40.12682 202.07812 40.642445Q202.57812 41.15807 203.29688 41.15807Q204.03125 41.15807 204.5 40.642445Q204.96875 40.12682 204.96875 39.22057ZM208.0625 45.00182L208.0625 43.798695L209.26562 43.798695L209.26562 45.00182Q209.26562 45.65807 209.03125 46.06432Q208.79688 46.486195 208.29688 46.704945L208.0 46.25182Q208.32812 46.111195 208.48438 45.81432Q208.64062 45.53307 208.67188 45.00182L208.0625 45.00182ZM213.875 45.00182L213.875 42.93932L210.15625 42.93932L210.15625 41.97057L214.07812 36.40807L214.9375 36.40807L214.9375 41.97057L216.09375 41.97057L216.09375 42.93932L214.9375 42.93932L214.9375 45.00182L213.875 45.00182ZM213.875 41.97057L213.875 38.111195L211.1875 41.97057L213.875 41.97057ZM221.46875 45.00182L220.42188 45.00182L220.42188 38.28307Q220.03125 38.642445 219.40625 39.017445Q218.79688 39.37682 218.3125 39.548695L218.3125 38.53307Q219.1875 38.111195 219.84375 37.53307Q220.51562 36.93932 220.79688 36.37682L221.46875 36.37682L221.46875 45.00182ZM224.5 42.736195L225.5625 42.59557Q225.73438 43.486195 226.17188 43.892445Q226.60938 44.28307 227.23438 44.28307Q227.98438 44.28307 228.5 43.767445Q229.01562 43.25182 229.01562 42.486195Q229.01562 41.767445 228.53125 41.298695Q228.0625 40.81432 227.32812 40.81432Q227.03125 40.81432 226.57812 40.93932L226.70312 40.00182Q226.8125 40.017445 226.875 40.017445Q227.54688 40.017445 228.07812 39.673695Q228.625 39.31432 228.625 38.579945Q228.625 38.00182 228.23438 37.62682Q227.84375 37.236195 227.21875 37.236195Q226.60938 37.236195 226.1875 37.62682Q225.78125 38.017445 225.67188 38.78307L224.60938 38.59557Q224.79688 37.548695 225.48438 36.97057Q226.17188 36.37682 227.1875 36.37682Q227.89062 36.37682 228.48438 36.68932Q229.07812 36.986195 229.39062 37.50182Q229.70312 38.017445 229.70312 38.611195Q229.70312 39.15807 229.40625 39.62682Q229.10938 40.079945 228.53125 40.34557Q229.28125 40.517445 229.70312 41.079945Q230.125 41.62682 230.125 42.47057Q230.125 43.59557 229.29688 44.37682Q228.48438 45.15807 227.23438 45.15807Q226.10938 45.15807 225.35938 44.486195Q224.60938 43.798695 224.5 42.736195Z" fill-rule="nonzero"/><path fill="#ffffff" d="M193.65625 43.017445L194.67188 42.923695Q194.79688 43.642445 195.15625 43.97057Q195.53125 44.28307 196.09375 44.28307Q196.57812 44.28307 196.9375 44.06432Q197.3125 43.829945 197.54688 43.47057Q197.78125 43.09557 197.9375 42.47057Q198.09375 41.829945 198.09375 41.173695Q198.09375 41.09557 198.09375 40.954945Q197.78125 41.454945 197.23438 41.78307Q196.6875 42.09557 196.04688 42.09557Q194.96875 42.09557 194.23438 41.329945Q193.5 40.548695 193.5 39.28307Q193.5 37.97057 194.26562 37.173695Q195.04688 36.37682 196.20312 36.37682Q197.03125 36.37682 197.71875 36.829945Q198.42188 37.28307 198.78125 38.12682Q199.14062 38.954945 199.14062 40.53307Q199.14062 42.173695 198.78125 43.15807Q198.4375 44.12682 197.71875 44.642445Q197.01562 45.142445 196.07812 45.142445Q195.0625 45.142445 194.42188 44.59557Q193.78125 44.03307 193.65625 43.017445ZM197.96875 39.22057Q197.96875 38.31432 197.48438 37.78307Q197.01562 37.25182 196.32812 37.25182Q195.625 37.25182 195.09375 37.829945Q194.57812 38.392445 194.57812 39.31432Q194.57812 40.12682 195.07812 40.642445Q195.57812 41.15807 196.29688 41.15807Q197.03125 41.15807 197.5 40.642445Q197.96875 40.12682 197.96875 39.22057ZM200.65625 43.017445L201.67188 42.923695Q201.79688 43.642445 202.15625 43.97057Q202.53125 44.28307 203.09375 44.28307Q203.57812 44.28307 203.9375 44.06432Q204.3125 43.829945 204.54688 43.47057Q204.78125 43.09557 204.9375 42.47057Q205.09375 41.829945 205.09375 41.173695Q205.09375 41.09557 205.09375 40.954945Q204.78125 41.454945 204.23438 41.78307Q203.6875 42.09557 203.04688 42.09557Q201.96875 42.09557 201.23438 41.329945Q200.5 40.548695 200.5 39.28307Q200.5 37.97057 201.26562 37.173695Q202.04688 36.37682 203.20312 36.37682Q204.03125 36.37682 204.71875 36.829945Q205.42188 37.28307 205.78125 38.12682Q206.14062 38.954945 206.14062 40.53307Q206.14062 42.173695 205.78125 43.15807Q205.4375 44.12682 204.71875 44.642445Q204.01562 45.142445 203.07812 45.142445Q202.0625 45.142445 201.42188 44.59557Q200.78125 44.03307 200.65625 43.017445ZM204.96875 39.22057Q204.96875 38.31432 204.48438 37.78307Q204.01562 37.25182 203.32812 37.25182Q202.625 37.25182 202.09375 37.829945Q201.57812 38.392445 201.57812 39.31432Q201.57812 40.12682 202.07812 40.642445Q202.57812 41.15807 203.29688 41.15807Q204.03125 41.15807 204.5 40.642445Q204.96875 40.12682 204.96875 39.22057ZM208.0625 45.00182L208.0625 43.798695L209.26562 43.798695L209.26562 45.00182Q209.26562 45.65807 209.03125 46.06432Q208.79688 46.486195 208.29688 46.704945L208.0 46.25182Q208.32812 46.111195 208.48438 45.81432Q208.64062 45.53307 208.67188 45.00182L208.0625 45.00182ZM213.875 45.00182L213.875 42.93932L210.15625 42.93932L210.15625 41.97057L214.07812 36.40807L214.9375 36.40807L214.9375 41.97057L216.09375 41.97057L216.09375 42.93932L214.9375 42.93932L214.9375 45.00182L213.875 45.00182ZM213.875 41.97057L213.875 38.111195L211.1875 41.97057L213.875 41.97057ZM221.46875 45.00182L220.42188 45.00182L220.42188 38.28307Q220.03125 38.642445 219.40625 39.017445Q218.79688 39.37682 218.3125 39.548695L218.3125 38.53307Q219.1875 38.111195 219.84375 37.53307Q220.51562 36.93932 220.79688 36.37682L221.46875 36.37682L221.46875 45.00182ZM224.5 42.736195L225.5625 42.59557Q225.73438 43.486195 226.17188 43.892445Q226.60938 44.28307 227.23438 44.28307Q227.98438 44.28307 228.5 43.767445Q229.01562 43.25182 229.01562 42.486195Q229.01562 41.767445 228.53125 41.298695Q228.0625 40.81432 227.32812 40.81432Q227.03125 40.81432 226.57812 40.93932L226.70312 40.00182Q226.8125 40.017445 226.875 40.017445Q227.54688 40.017445 228.07812 39.673695Q228.625 39.31432 228.625 38.579945Q228.625 38.00182 228.23438 37.62682Q227.84375 37.236195 227.21875 37.236195Q226.60938 37.236195 226.1875 37.62682Q225.78125 38.017445 225.67188 38.78307L224.60938 38.59557Q224.79688 37.548695 225.48438 36.97057Q226.17188 36.37682 227.1875 36.37682Q227.89062 36.37682 228.48438 36.68932Q229.07812 36.986195 229.39062 37.50182Q229.70312 38.017445 229.70312 38.611195Q229.70312 39.15807 229.40625 39.62682Q229.10938 40.079945 228.53125 40.34557Q229.28125 40.517445 229.70312 41.079945Q230.125 41.62682 230.125 42.47057Q230.125 43.59557 229.29688 44.37682Q228.48438 45.15807 227.23438 45.15807Q226.10938 45.15807 225.35938 44.486195Q224.60938 43.798695 224.5 42.736195Z" fill-rule="nonzero"/><path stroke="#4285f4" stroke-width="3.0" stroke-linejoin="round" stroke-linecap="round" d="M337.04688 262.41733L337.04688 263.43295L331.35938 263.43295Q331.35938 263.05795 331.48438 262.69858Q331.70312 262.12045 332.17188 261.55795Q332.65625 260.99545 333.5625 260.26108Q334.96875 259.10483 335.45312 258.43295Q335.95312 257.76108 335.95312 257.16733Q335.95312 256.54233 335.5 256.12045Q335.04688 255.68294 334.32812 255.68294Q333.5625 255.68294 333.10938 256.13608Q332.65625 256.5892 332.64062 257.4017L331.5625 257.29233Q331.67188 256.07358 332.39062 255.44856Q333.125 254.80794 334.35938 254.80794Q335.59375 254.80794 336.3125 255.49544Q337.03125 256.18295 337.03125 257.19858Q337.03125 257.7142 336.8125 258.2142Q336.60938 258.69858 336.10938 259.26108Q335.625 259.80795 334.5 260.76108Q333.54688 261.55795 333.26562 261.85483Q333.0 262.13608 332.82812 262.41733L337.04688 262.41733ZM342.46875 263.43295L341.42188 263.43295L341.42188 256.7142Q341.03125 257.07358 340.40625 257.44858Q339.79688 257.80795 339.3125 257.97983L339.3125 256.9642Q340.1875 256.54233 340.84375 255.96419Q341.51562 255.37044 341.79688 254.80794L342.46875 254.80794L342.46875 263.43295ZM346.0625 263.43295L346.0625 262.22983L347.26562 262.22983L347.26562 263.43295Q347.26562 264.0892 347.03125 264.49545Q346.79688 264.91733 346.29688 265.13608L346.0 264.68295Q346.32812 264.54233 346.48438 264.24545Q346.64062 263.9642 346.67188 263.43295L346.0625 263.43295ZM348.5625 255.96419L348.5625 254.94856L354.125 254.94856L354.125 255.77669Q353.3125 256.6517 352.5 258.10483Q351.70312 259.54233 351.26562 261.07358Q350.9375 262.1517 350.85938 263.43295L349.76562 263.43295Q349.78125 262.41733 350.15625 260.97983Q350.54688 259.54233 351.25 258.2142Q351.96875 256.88608 352.78125 255.96419L348.5625 255.96419ZM355.65625 261.44858L356.67188 261.35483Q356.79688 262.07358 357.15625 262.4017Q357.53125 262.7142 358.09375 262.7142Q358.57812 262.7142 358.9375 262.49545Q359.3125 262.26108 359.54688 261.9017Q359.78125 261.5267 359.9375 260.9017Q360.09375 260.26108 360.09375 259.60483Q360.09375 259.5267 360.09375 259.38608Q359.78125 259.88608 359.23438 260.2142Q358.6875 260.5267 358.04688 260.5267Q356.96875 260.5267 356.23438 259.76108Q355.5 258.97983 355.5 257.7142Q355.5 256.4017 356.26562 255.60481Q357.04688 254.80794 358.20312 254.80794Q359.03125 254.80794 359.71875 255.26106Q360.42188 255.71419 360.78125 256.55795Q361.14062 257.38608 361.14062 258.9642Q361.14062 260.60483 360.78125 261.5892Q360.4375 262.55795 359.71875 263.07358Q359.01562 263.57358 358.07812 263.57358Q357.0625 263.57358 356.42188 263.0267Q355.78125 262.4642 355.65625 261.44858ZM359.96875 257.6517Q359.96875 256.74545 359.48438 256.2142Q359.01562 255.68294 358.32812 255.68294Q357.625 255.68294 357.09375 256.26108Q356.57812 256.82358 356.57812 257.74545Q356.57812 258.55795 357.07812 259.07358Q357.57812 259.5892 358.29688 259.5892Q359.03125 259.5892 359.5 259.07358Q359.96875 258.55795 359.96875 257.6517ZM362.5 259.19858Q362.5 257.66733 362.8125 256.74545Q363.125 255.80794 363.73438 255.30794Q364.35938 254.80794 365.29688 254.80794Q365.98438 254.80794 366.5 255.08919Q367.03125 255.37044 367.375 255.90169Q367.71875 256.41733 367.90625 257.16733Q368.09375 257.91733 368.09375 259.19858Q368.09375 260.7142 367.78125 261.63608Q367.48438 262.55795 366.85938 263.07358Q366.25 263.57358 365.29688 263.57358Q364.0625 263.57358 363.34375 262.68295Q362.5 261.62045 362.5 259.19858ZM363.57812 259.19858Q363.57812 261.30795 364.07812 262.01108Q364.57812 262.7142 365.29688 262.7142Q366.03125 262.7142 366.51562 262.01108Q367.01562 261.30795 367.01562 259.19858Q367.01562 257.07358 366.51562 256.38608Q366.03125 255.68294 365.28125 255.68294Q364.5625 255.68294 364.125 256.29233Q363.57812 257.07358 363.57812 259.19858Z" fill-rule="nonzero"/><path fill="#ffffff" d="M337.04688 262.41733L337.04688 263.43295L331.35938 263.43295Q331.35938 263.05795 331.48438 262.69858Q331.70312 262.12045 332.17188 261.55795Q332.65625 260.99545 333.5625 260.26108Q334.96875 259.10483 335.45312 258.43295Q335.95312 257.76108 335.95312 257.16733Q335.95312 256.54233 335.5 256.12045Q335.04688 255.68295 334.32812 255.68295Q333.5625 255.68295 333.10938 256.13608Q332.65625 256.5892 332.64062 257.4017L331.5625 257.29233Q331.67188 256.07358 332.39062 255.44858Q333.125 254.80795 334.35938 254.80795Q335.59375 254.80795 336.3125 255.49545Q337.03125 256.18295 337.03125 257.19858Q337.03125 257.7142 336.8125 258.2142Q336.60938 258.69858 336.10938 259.26108Q335.625 259.80795 334.5 260.76108Q333.54688 261.55795 333.26562 261.85483Q333.0 262.13608 332.82812 262.41733L337.04688 262.41733ZM342.46875 263.43295L341.42188 263.43295L341.42188 256.7142Q341.03125 257.07358 340.40625 257.44858Q339.79688 257.80795 339.3125 257.97983L339.3125 256.9642Q340.1875 256.54233 340.84375 255.9642Q341.51562 255.37045 341.79688 254.80795L342.46875 254.80795L342.46875 263.43295ZM346.0625 263.43295L346.0625 262.22983L347.26562 262.22983L347.26562 263.43295Q347.26562 264.0892 347.03125 264.49545Q346.79688 264.91733 346.29688 265.13608L346.0 264.68295Q346.32812 264.54233 346.48438 264.24545Q346.64062 263.9642 346.67188 263.43295L346.0625 263.43295ZM348.5625 255.9642L348.5625 254.94858L354.125 254.94858L354.125 255.7767Q353.3125 256.6517 352.5 258.10483Q351.70312 259.54233 351.26562 261.07358Q350.9375 262.1517 350.85938 263.43295L349.76562 263.43295Q349.78125 262.41733 350.15625 260.97983Q350.54688 259.54233 351.25 258.2142Q351.96875 256.88608 352.78125 255.9642L348.5625 255.9642ZM355.65625 261.44858L356.67188 261.35483Q356.79688 262.07358 357.15625 262.4017Q357.53125 262.7142 358.09375 262.7142Q358.57812 262.7142 358.9375 262.49545Q359.3125 262.26108 359.54688 261.9017Q359.78125 261.5267 359.9375 260.9017Q360.09375 260.26108 360.09375 259.60483Q360.09375 259.5267 360.09375 259.38608Q359.78125 259.88608 359.23438 260.2142Q358.6875 260.5267 358.04688 260.5267Q356.96875 260.5267 356.23438 259.76108Q355.5 258.97983 355.5 257.7142Q355.5 256.4017 356.26562 255.60483Q357.04688 254.80795 358.20312 254.80795Q359.03125 254.80795 359.71875 255.26108Q360.42188 255.7142 360.78125 256.55795Q361.14062 257.38608 361.14062 258.9642Q361.14062 260.60483 360.78125 261.5892Q360.4375 262.55795 359.71875 263.07358Q359.01562 263.57358 358.07812 263.57358Q357.0625 263.57358 356.42188 263.0267Q355.78125 262.4642 355.65625 261.44858ZM359.96875 257.6517Q359.96875 256.74545 359.48438 256.2142Q359.01562 255.68295 358.32812 255.68295Q357.625 255.68295 357.09375 256.26108Q356.57812 256.82358 356.57812 257.74545Q356.57812 258.55795 357.07812 259.07358Q357.57812 259.5892 358.29688 259.5892Q359.03125 259.5892 359.5 259.07358Q359.96875 258.55795 359.96875 257.6517ZM362.5 259.19858Q362.5 257.66733 362.8125 256.74545Q363.125 255.80795 363.73438 255.30795Q364.35938 254.80795 365.29688 254.80795Q365.98438 254.80795 366.5 255.0892Q367.03125 255.37045 367.375 255.9017Q367.71875 256.41733 367.90625 257.16733Q368.09375 257.91733 368.09375 259.19858Q368.09375 260.7142 367.78125 261.63608Q367.48438 262.55795 366.85938 263.07358Q366.25 263.57358 365.29688 263.57358Q364.0625 263.57358 363.34375 262.68295Q362.5 261.62045 362.5 259.19858ZM363.57812 259.19858Q363.57812 261.30795 364.07812 262.01108Q364.57812 262.7142 365.29688 262.7142Q366.03125 262.7142 366.51562 262.01108Q367.01562 261.30795 367.01562 259.19858Q367.01562 257.07358 366.51562 256.38608Q366.03125 255.68295 365.28125 255.68295Q364.5625 255.68295 364.125 256.29233Q363.57812 257.07358 363.57812 259.19858Z" fill-rule="nonzero"/><path stroke="#4285f4" stroke-width="3.0" stroke-linejoin="round" stroke-linecap="round" d="M471.125 70.959076Q470.46875 70.709076 470.14062 70.271576Q469.82812 69.81845 469.82812 69.209076Q469.82812 68.271576 470.5 67.63095Q471.1875 66.990326 472.29688 66.990326Q473.42188 66.990326 474.10938 67.646576Q474.79688 68.302826 474.79688 69.240326Q474.79688 69.834076 474.48438 70.271576Q474.17188 70.709076 473.53125 70.959076Q474.32812 71.209076 474.73438 71.7872Q475.14062 72.365326 475.14062 73.1622Q475.14062 74.25595 474.35938 75.00595Q473.59375 75.75595 472.3125 75.75595Q471.04688 75.75595 470.26562 75.00595Q469.48438 74.25595 469.48438 73.13095Q469.48438 72.2872 469.90625 71.7247Q470.34375 71.1622 471.125 70.959076ZM470.90625 69.1622Q470.90625 69.771576 471.29688 70.1622Q471.70312 70.552826 472.32812 70.552826Q472.9375 70.552826 473.32812 70.177826Q473.71875 69.7872 473.71875 69.2247Q473.71875 68.646576 473.3125 68.25595Q472.90625 67.8497 472.3125 67.8497Q471.70312 67.8497 471.29688 68.240326Q470.90625 68.63095 470.90625 69.1622ZM470.57812 73.13095Q470.57812 73.584076 470.78125 74.00595Q471.0 74.427826 471.42188 74.6622Q471.84375 74.896576 472.32812 74.896576Q473.07812 74.896576 473.5625 74.4122Q474.0625 73.927826 474.0625 73.177826Q474.0625 72.4122 473.5625 71.9122Q473.0625 71.4122 472.29688 71.4122Q471.54688 71.4122 471.0625 71.9122Q470.57812 72.396576 470.57812 73.13095ZM478.125 70.959076Q477.46875 70.709076 477.14062 70.271576Q476.82812 69.81845 476.82812 69.209076Q476.82812 68.271576 477.5 67.63095Q478.1875 66.990326 479.29688 66.990326Q480.42188 66.990326 481.10938 67.646576Q481.79688 68.302826 481.79688 69.240326Q481.79688 69.834076 481.48438 70.271576Q481.17188 70.709076 480.53125 70.959076Q481.32812 71.209076 481.73438 71.7872Q482.14062 72.365326 482.14062 73.1622Q482.14062 74.25595 481.35938 75.00595Q480.59375 75.75595 479.3125 75.75595Q478.04688 75.75595 477.26562 75.00595Q476.48438 74.25595 476.48438 73.13095Q476.48438 72.2872 476.90625 71.7247Q477.34375 71.1622 478.125 70.959076ZM477.90625 69.1622Q477.90625 69.771576 478.29688 70.1622Q478.70312 70.552826 479.32812 70.552826Q479.9375 70.552826 480.32812 70.177826Q480.71875 69.7872 480.71875 69.2247Q480.71875 68.646576 480.3125 68.25595Q479.90625 67.8497 479.3125 67.8497Q478.70312 67.8497 478.29688 68.240326Q477.90625 68.63095 477.90625 69.1622ZM477.57812 73.13095Q477.57812 73.584076 477.78125 74.00595Q478.0 74.427826 478.42188 74.6622Q478.84375 74.896576 479.32812 74.896576Q480.07812 74.896576 480.5625 74.4122Q481.0625 73.927826 481.0625 73.177826Q481.0625 72.4122 480.5625 71.9122Q480.0625 71.4122 479.29688 71.4122Q478.54688 71.4122 478.0625 71.9122Q477.57812 72.396576 477.57812 73.13095ZM484.0625 75.615326L484.0625 74.4122L485.26562 74.4122L485.26562 75.615326Q485.26562 76.271576 485.03125 76.677826Q484.79688 77.0997 484.29688 77.31845L484.0 76.865326Q484.32812 76.7247 484.48438 76.427826Q484.64062 76.146576 484.67188 75.615326L484.0625 75.615326ZM486.5 73.365326L487.60938 73.271576Q487.73438 74.084076 488.17188 74.490326Q488.625 74.896576 489.26562 74.896576Q490.01562 74.896576 490.54688 74.31845Q491.07812 73.740326 491.07812 72.802826Q491.07812 71.896576 490.5625 71.38095Q490.0625 70.8497 489.23438 70.8497Q488.73438 70.8497 488.3125 71.084076Q487.90625 71.31845 487.67188 71.677826L486.6875 71.552826L487.51562 67.146576L491.79688 67.146576L491.79688 68.146576L488.35938 68.146576L487.90625 70.459076Q488.67188 69.9122 489.51562 69.9122Q490.64062 69.9122 491.40625 70.69345Q492.1875 71.4747 492.1875 72.709076Q492.1875 73.865326 491.51562 74.7247Q490.6875 75.75595 489.26562 75.75595Q488.09375 75.75595 487.34375 75.0997Q486.60938 74.44345 486.5 73.365326ZM493.5 73.3497L494.5625 73.209076Q494.73438 74.0997 495.17188 74.50595Q495.60938 74.896576 496.23438 74.896576Q496.98438 74.896576 497.5 74.38095Q498.01562 73.865326 498.01562 73.0997Q498.01562 72.38095 497.53125 71.9122Q497.0625 71.427826 496.32812 71.427826Q496.03125 71.427826 495.57812 71.552826L495.70312 70.615326Q495.8125 70.63095 495.875 70.63095Q496.54688 70.63095 497.07812 70.2872Q497.625 69.927826 497.625 69.19345Q497.625 68.615326 497.23438 68.240326Q496.84375 67.8497 496.21875 67.8497Q495.60938 67.8497 495.1875 68.240326Q494.78125 68.63095 494.67188 69.396576L493.60938 69.209076Q493.79688 68.1622 494.48438 67.584076Q495.17188 66.990326 496.1875 66.990326Q496.89062 66.990326 497.48438 67.302826Q498.07812 67.5997 498.39062 68.115326Q498.70312 68.63095 498.70312 69.2247Q498.70312 69.771576 498.40625 70.240326Q498.10938 70.69345 497.53125 70.959076Q498.28125 71.13095 498.70312 71.69345Q499.125 72.240326 499.125 73.084076Q499.125 74.209076 498.29688 74.990326Q497.48438 75.771576 496.23438 75.771576Q495.10938 75.771576 494.35938 75.0997Q493.60938 74.4122 493.5 73.3497ZM503.875 75.615326L503.875 73.552826L500.15625 73.552826L500.15625 72.584076L504.07812 67.021576L504.9375 67.021576L504.9375 72.584076L506.09375 72.584076L506.09375 73.552826L504.9375 73.552826L504.9375 75.615326L503.875 75.615326ZM503.875 72.584076L503.875 68.7247L501.1875 72.584076L503.875 72.584076Z" fill-rule="nonzero"/><path fill="#ffffff" d="M471.125 70.959076Q470.46875 70.709076 470.14062 70.271576Q469.82812 69.81845 469.82812 69.209076Q469.82812 68.271576 470.5 67.63095Q471.1875 66.990326 472.29688 66.990326Q473.42188 66.990326 474.10938 67.646576Q474.79688 68.302826 474.79688 69.240326Q474.79688 69.834076 474.48438 70.271576Q474.17188 70.709076 473.53125 70.959076Q474.32812 71.209076 474.73438 71.7872Q475.14062 72.365326 475.14062 73.1622Q475.14062 74.25595 474.35938 75.00595Q473.59375 75.75595 472.3125 75.75595Q471.04688 75.75595 470.26562 75.00595Q469.48438 74.25595 469.48438 73.13095Q469.48438 72.2872 469.90625 71.7247Q470.34375 71.1622 471.125 70.959076ZM470.90625 69.1622Q470.90625 69.771576 471.29688 70.1622Q471.70312 70.552826 472.32812 70.552826Q472.9375 70.552826 473.32812 70.177826Q473.71875 69.7872 473.71875 69.2247Q473.71875 68.646576 473.3125 68.25595Q472.90625 67.8497 472.3125 67.8497Q471.70312 67.8497 471.29688 68.240326Q470.90625 68.63095 470.90625 69.1622ZM470.57812 73.13095Q470.57812 73.584076 470.78125 74.00595Q471.0 74.427826 471.42188 74.6622Q471.84375 74.896576 472.32812 74.896576Q473.07812 74.896576 473.5625 74.4122Q474.0625 73.927826 474.0625 73.177826Q474.0625 72.4122 473.5625 71.9122Q473.0625 71.4122 472.29688 71.4122Q471.54688 71.4122 471.0625 71.9122Q470.57812 72.396576 470.57812 73.13095ZM478.125 70.959076Q477.46875 70.709076 477.14062 70.271576Q476.82812 69.81845 476.82812 69.209076Q476.82812 68.271576 477.5 67.63095Q478.1875 66.990326 479.29688 66.990326Q480.42188 66.990326 481.10938 67.646576Q481.79688 68.302826 481.79688 69.240326Q481.79688 69.834076 481.48438 70.271576Q481.17188 70.709076 480.53125 70.959076Q481.32812 71.209076 481.73438 71.7872Q482.14062 72.365326 482.14062 73.1622Q482.14062 74.25595 481.35938 75.00595Q480.59375 75.75595 479.3125 75.75595Q478.04688 75.75595 477.26562 75.00595Q476.48438 74.25595 476.48438 73.13095Q476.48438 72.2872 476.90625 71.7247Q477.34375 71.1622 478.125 70.959076ZM477.90625 69.1622Q477.90625 69.771576 478.29688 70.1622Q478.70312 70.552826 479.32812 70.552826Q479.9375 70.552826 480.32812 70.177826Q480.71875 69.7872 480.71875 69.2247Q480.71875 68.646576 480.3125 68.25595Q479.90625 67.8497 479.3125 67.8497Q478.70312 67.8497 478.29688 68.240326Q477.90625 68.63095 477.90625 69.1622ZM477.57812 73.13095Q477.57812 73.584076 477.78125 74.00595Q478.0 74.427826 478.42188 74.6622Q478.84375 74.896576 479.32812 74.896576Q480.07812 74.896576 480.5625 74.4122Q481.0625 73.927826 481.0625 73.177826Q481.0625 72.4122 480.5625 71.9122Q480.0625 71.4122 479.29688 71.4122Q478.54688 71.4122 478.0625 71.9122Q477.57812 72.396576 477.57812 73.13095ZM484.0625 75.615326L484.0625 74.4122L485.26562 74.4122L485.26562 75.615326Q485.26562 76.271576 485.03125 76.677826Q484.79688 77.0997 484.29688 77.31845L484.0 76.865326Q484.32812 76.7247 484.48438 76.427826Q484.64062 76.146576 484.67188 75.615326L484.0625 75.615326ZM486.5 73.365326L487.60938 73.271576Q487.73438 74.084076 488.17188 74.490326Q488.625 74.896576 489.26562 74.896576Q490.01562 74.896576 490.54688 74.31845Q491.07812 73.740326 491.07812 72.802826Q491.07812 71.896576 490.5625 71.38095Q490.0625 70.8497 489.23438 70.8497Q488.73438 70.8497 488.3125 71.084076Q487.90625 71.31845 487.67188 71.677826L486.6875 71.552826L487.51562 67.146576L491.79688 67.146576L491.79688 68.146576L488.35938 68.146576L487.90625 70.459076Q488.67188 69.9122 489.51562 69.9122Q490.64062 69.9122 491.40625 70.69345Q492.1875 71.4747 492.1875 72.709076Q492.1875 73.865326 491.51562 74.7247Q490.6875 75.75595 489.26562 75.75595Q488.09375 75.75595 487.34375 75.0997Q486.60938 74.44345 486.5 73.365326ZM493.5 73.3497L494.5625 73.209076Q494.73438 74.0997 495.17188 74.50595Q495.60938 74.896576 496.23438 74.896576Q496.98438 74.896576 497.5 74.38095Q498.01562 73.865326 498.01562 73.0997Q498.01562 72.38095 497.53125 71.9122Q497.0625 71.427826 496.32812 71.427826Q496.03125 71.427826 495.57812 71.552826L495.70312 70.615326Q495.8125 70.63095 495.875 70.63095Q496.54688 70.63095 497.07812 70.2872Q497.625 69.927826 497.625 69.19345Q497.625 68.615326 497.23438 68.240326Q496.84375 67.8497 496.21875 67.8497Q495.60938 67.8497 495.1875 68.240326Q494.78125 68.63095 494.67188 69.396576L493.60938 69.209076Q493.79688 68.1622 494.48438 67.584076Q495.17188 66.990326 496.1875 66.990326Q496.89062 66.990326 497.48438 67.302826Q498.07812 67.5997 498.39062 68.115326Q498.70312 68.63095 498.70312 69.2247Q498.70312 69.771576 498.40625 70.240326Q498.10938 70.69345 497.53125 70.959076Q498.28125 71.13095 498.70312 71.69345Q499.125 72.240326 499.125 73.084076Q499.125 74.209076 498.29688 74.990326Q497.48438 75.771576 496.23438 75.771576Q495.10938 75.771576 494.35938 75.0997Q493.60938 74.4122 493.5 73.3497ZM503.875 75.615326L503.875 73.552826L500.15625 73.552826L500.15625 72.584076L504.07812 67.021576L504.9375 67.021576L504.9375 72.584076L506.09375 72.584076L506.09375 73.552826L504.9375 73.552826L504.9375 75.615326L503.875 75.615326ZM503.875 72.584076L503.875 68.7247L501.1875 72.584076L503.875 72.584076Z" fill-rule="nonzero"/><path fill="#000000" d="M32.55001 287.10938L23.081263 287.10938L23.081263 290.64062L21.815638 290.64062L21.815638 282.14062L23.081263 282.14062L23.081263 285.6875L32.55001 285.6875L32.55001 287.10938ZM32.55001 281.01562L21.815638 281.01562L21.815638 279.6875L25.659388 279.6875Q24.596888 278.76562 24.596888 277.35938Q24.596888 276.5 24.940638 275.85938Q25.284388 275.21875 25.878138 274.95312Q26.471888 274.67188 27.628138 274.67188L32.55001 274.67188L32.55001 276.0L27.628138 276.0Q26.628138 276.0 26.190638 276.42188Q25.737513 276.84375 25.737513 277.64062Q25.737513 278.21875 26.034388 278.73438Q26.331263 279.25 26.862513 279.46875Q27.378138 279.6875 28.300013 279.6875L32.55001 279.6875L32.55001 281.01562ZM32.55001 273.03125L24.768763 273.03125L24.768763 271.84375L25.956263 271.84375Q25.128138 271.39062 24.862513 271.0Q24.596888 270.60938 24.596888 270.15625Q24.596888 269.48438 25.018763 268.79688L26.237513 269.25Q25.956263 269.73438 25.956263 270.21875Q25.956263 270.65625 26.221888 271.0Q26.471888 271.34375 26.940638 271.48438Q27.643763 271.70312 28.471888 271.70312L32.55001 271.70312L32.55001 273.03125ZM28.659388 268.5Q26.503138 268.5 25.456263 267.29688Q24.596888 266.29688 24.596888 264.85938Q24.596888 263.25 25.643763 262.23438Q26.690638 261.21875 28.550013 261.21875Q30.050013 261.21875 30.909388 261.67188Q31.768763 262.10938 32.253136 262.98438Q32.721886 263.84375 32.721886 264.85938Q32.721886 266.48438 31.675013 267.5Q30.628138 268.5 28.659388 268.5ZM28.659388 267.14062Q30.159388 267.14062 30.909388 266.5Q31.643763 265.84375 31.643763 264.85938Q31.643763 263.875 30.893763 263.21875Q30.143763 262.5625 28.612513 262.5625Q27.175013 262.5625 26.440638 263.21875Q25.690638 263.875 25.690638 264.85938Q25.690638 265.84375 26.425013 266.5Q27.159388 267.14062 28.659388 267.14062ZM32.55001 254.90625L31.409388 254.90625Q32.721886 255.82812 32.721886 257.375Q32.721886 258.0625 32.45626 258.67188Q32.190636 259.26562 31.800013 259.5625Q31.393763 259.84375 30.815638 259.95312Q30.440638 260.04688 29.596888 260.04688L24.768763 260.04688L24.768763 258.71875L29.081263 258.71875Q30.112513 258.71875 30.471888 258.64062Q31.003138 258.51562 31.300013 258.125Q31.596888 257.71875 31.596888 257.125Q31.596888 256.53125 31.300013 256.01562Q30.987513 255.48438 30.471888 255.26562Q29.940638 255.04688 28.940638 255.04688L24.768763 255.04688L24.768763 253.73438L32.55001 253.73438L32.55001 254.90625ZM33.190636 252.25L33.378136 250.96875Q33.971886 250.89062 34.253136 250.53125Q34.61251 250.03125 34.61251 249.1875Q34.61251 248.26562 34.23751 247.76562Q33.878136 247.26562 33.221886 247.09375Q32.815636 247.0 31.534388 247.0Q32.55001 247.85938 32.55001 249.15625Q32.55001 250.76562 31.393763 251.64062Q30.237513 252.51562 28.612513 252.51562Q27.503138 252.51562 26.565638 252.10938Q25.628138 251.70312 25.112513 250.95312Q24.596888 250.1875 24.596888 249.14062Q24.596888 247.76562 25.706263 246.875L24.768763 246.875L24.768763 245.65625L31.487513 245.65625Q33.315636 245.65625 34.065636 246.03125Q34.83126 246.40625 35.26876 247.20312Q35.70626 248.0 35.70626 249.17188Q35.70626 250.5625 35.08126 251.42188Q34.45626 252.28125 33.190636 252.25ZM28.518763 251.15625Q30.050013 251.15625 30.753138 250.5625Q31.456263 249.95312 31.456263 249.03125Q31.456263 248.125 30.768763 247.51562Q30.065638 246.89062 28.565638 246.89062Q27.143763 246.89062 26.425013 247.53125Q25.690638 248.15625 25.690638 249.04688Q25.690638 249.9375 26.409388 250.54688Q27.112513 251.15625 28.518763 251.15625ZM32.55001 244.01562L21.815638 244.01562L21.815638 242.6875L25.659388 242.6875Q24.596888 241.76562 24.596888 240.35938Q24.596888 239.5 24.940638 238.85938Q25.284388 238.21875 25.878138 237.95312Q26.471888 237.67188 27.628138 237.67188L32.55001 237.67188L32.55001 239.0L27.628138 239.0Q26.628138 239.0 26.190638 239.42188Q25.737513 239.84375 25.737513 240.64062Q25.737513 241.21875 26.034388 241.73438Q26.331263 242.25 26.862513 242.46875Q27.378138 242.6875 28.300013 242.6875L32.55001 242.6875L32.55001 244.01562ZM35.534386 236.01562L24.768763 236.01562L24.768763 234.8125L25.784388 234.8125Q25.190638 234.39062 24.893763 233.85938Q24.596888 233.3125 24.596888 232.54688Q24.596888 231.5625 25.112513 230.79688Q25.628138 230.03125 26.565638 229.65625Q27.487513 229.26562 28.596888 229.26562Q29.800013 229.26562 30.753138 229.6875Q31.706263 230.10938 32.221886 230.9375Q32.721886 231.75 32.721886 232.65625Q32.721886 233.3125 32.45626 233.84375Q32.17501 234.35938 31.737513 234.6875L35.534386 234.6875L35.534386 236.01562ZM28.706263 234.8125Q30.206263 234.8125 30.925013 234.20312Q31.643763 233.59375 31.643763 232.73438Q31.643763 231.85938 30.909388 231.23438Q30.159388 230.60938 28.596888 230.60938Q27.112513 230.60938 26.378138 231.21875Q25.628138 231.82812 25.628138 232.67188Q25.628138 233.51562 26.425013 234.17188Q27.206263 234.8125 28.706263 234.8125ZM32.55001 222.90625L31.409388 222.90625Q32.721886 223.82812 32.721886 225.375Q32.721886 226.0625 32.45626 226.67188Q32.190636 227.26562 31.800013 227.5625Q31.393763 227.84375 30.815638 227.95312Q30.440638 228.04688 29.596888 228.04688L24.768763 228.04688L24.768763 226.71875L29.081263 226.71875Q30.112513 226.71875 30.471888 226.64062Q31.003138 226.51562 31.300013 226.125Q31.596888 225.71875 31.596888 225.125Q31.596888 224.53125 31.300013 224.01562Q30.987513 223.48438 30.471888 223.26562Q29.940638 223.04688 28.940638 223.04688L24.768763 223.04688L24.768763 221.73438L32.55001 221.73438L32.55001 222.90625ZM31.378138 217.125L32.534386 216.9375Q32.659386 217.5 32.659386 217.9375Q32.659386 218.65625 32.42501 219.0625Q32.190636 219.45312 31.831263 219.60938Q31.456263 219.76562 30.268763 219.76562L25.800013 219.76562L25.800013 220.73438L24.768763 220.73438L24.768763 219.76562L22.846888 219.76562L22.050013 218.45312L24.768763 218.45312L24.768763 217.125L25.800013 217.125L25.800013 218.45312L30.346888 218.45312Q30.909388 218.45312 31.081263 218.39062Q31.237513 218.3125 31.331263 218.15625Q31.425013 218.0 31.425013 217.71875Q31.425013 217.48438 31.378138 217.125ZM26.268763 215.64062L24.768763 215.64062L24.768763 214.14062L26.268763 214.14062L26.268763 215.64062ZM32.55001 215.64062L31.050013 215.64062L31.050013 214.14062L32.55001 214.14062L32.55001 215.64062ZM32.55001 208.01562L24.768763 208.01562L24.768763 206.82812L25.862513 206.82812Q25.284388 206.46875 24.940638 205.85938Q24.596888 205.25 24.596888 204.46875Q24.596888 203.60938 24.956263 203.0625Q25.315638 202.5 25.956263 202.28125Q24.596888 201.35938 24.596888 199.875Q24.596888 198.71875 25.237513 198.09375Q25.878138 197.46875 27.206263 197.46875L32.55001 197.46875L32.55001 198.78125L27.643763 198.78125Q26.862513 198.78125 26.518763 198.90625Q26.159388 199.03125 25.956263 199.375Q25.737513 199.71875 25.737513 200.17188Q25.737513 200.98438 26.284388 201.53125Q26.831263 202.07812 28.034388 202.07812L32.55001 202.07812L32.55001 203.39062L27.503138 203.39062Q26.612513 203.39062 26.175013 203.71875Q25.737513 204.03125 25.737513 204.76562Q25.737513 205.32812 26.034388 205.79688Q26.331263 206.26562 26.893763 206.48438Q27.456263 206.6875 28.518763 206.6875L32.55001 206.6875L32.55001 208.01562ZM30.050013 189.6875L30.206263 188.32812Q31.409388 188.64062 32.065636 189.51562Q32.721886 190.39062 32.721886 191.75Q32.721886 193.45312 31.675013 194.45312Q30.628138 195.45312 28.721888 195.45312Q26.768763 195.45312 25.690638 194.4375Q24.596888 193.42188 24.596888 191.8125Q24.596888 190.25 25.659388 189.26562Q26.721888 188.28125 28.643763 188.28125Q28.768763 188.28125 29.003138 188.28125L29.003138 194.09375Q30.284388 194.01562 30.971888 193.375Q31.643763 192.71875 31.643763 191.73438Q31.643763 191.01562 31.268763 190.5Q30.878138 189.98438 30.050013 189.6875ZM27.909388 194.01562L27.909388 189.67188Q26.925013 189.76562 26.440638 190.17188Q25.675013 190.79688 25.675013 191.79688Q25.675013 192.71875 26.284388 193.34375Q26.893763 193.95312 27.909388 194.01562ZM30.221888 187.53125L30.018763 186.23438Q30.800013 186.125 31.221888 185.625Q31.643763 185.125 31.643763 184.21875Q31.643763 183.3125 31.284388 182.875Q30.909388 182.4375 30.409388 182.4375Q29.956263 182.4375 29.706263 182.82812Q29.518763 183.09375 29.253138 184.17188Q28.893763 185.625 28.628138 186.1875Q28.346888 186.73438 27.878138 187.03125Q27.409388 187.3125 26.831263 187.3125Q26.315638 187.3125 25.878138 187.07812Q25.425013 186.84375 25.143763 186.4375Q24.909388 186.125 24.753138 185.59375Q24.596888 185.0625 24.596888 184.45312Q24.596888 183.54688 24.862513 182.85938Q25.128138 182.15625 25.581263 181.82812Q26.018763 181.5 26.784388 181.375L26.956263 182.65625Q26.346888 182.75 26.018763 183.17188Q25.675013 183.59375 25.675013 184.35938Q25.675013 185.26562 25.987513 185.65625Q26.284388 186.04688 26.690638 186.04688Q26.940638 186.04688 27.143763 185.89062Q27.362513 185.71875 27.503138 185.375Q27.565638 185.1875 27.831263 184.21875Q28.206263 182.8125 28.440638 182.26562Q28.675013 181.70312 29.143763 181.39062Q29.596888 181.07812 30.268763 181.07812Q30.925013 181.07812 31.503138 181.46875Q32.08126 181.84375 32.409386 182.57812Q32.721886 183.29688 32.721886 184.21875Q32.721886 185.73438 32.096886 186.53125Q31.471888 187.3125 30.221888 187.53125ZM30.221888 179.53125L30.018763 178.23438Q30.800013 178.125 31.221888 177.625Q31.643763 177.125 31.643763 176.21875Q31.643763 175.3125 31.284388 174.875Q30.909388 174.4375 30.409388 174.4375Q29.956263 174.4375 29.706263 174.82812Q29.518763 175.09375 29.253138 176.17188Q28.893763 177.625 28.628138 178.1875Q28.346888 178.73438 27.878138 179.03125Q27.409388 179.3125 26.831263 179.3125Q26.315638 179.3125 25.878138 179.07812Q25.425013 178.84375 25.143763 178.4375Q24.909388 178.125 24.753138 177.59375Q24.596888 177.0625 24.596888 176.45312Q24.596888 175.54688 24.862513 174.85938Q25.128138 174.15625 25.581263 173.82812Q26.018763 173.5 26.784388 173.375L26.956263 174.65625Q26.346888 174.75 26.018763 175.17188Q25.675013 175.59375 25.675013 176.35938Q25.675013 177.26562 25.987513 177.65625Q26.284388 178.04688 26.690638 178.04688Q26.940638 178.04688 27.143763 177.89062Q27.362513 177.71875 27.503138 177.375Q27.565638 177.1875 27.831263 176.21875Q28.206263 174.8125 28.440638 174.26562Q28.675013 173.70312 29.143763 173.39062Q29.596888 173.07812 30.268763 173.07812Q30.925013 173.07812 31.503138 173.46875Q32.08126 173.84375 32.409386 174.57812Q32.721886 175.29688 32.721886 176.21875Q32.721886 177.73438 32.096886 178.53125Q31.471888 179.3125 30.221888 179.53125ZM31.596888 165.9375Q32.20626 166.67188 32.471886 167.34375Q32.721886 168.01562 32.721886 168.79688Q32.721886 170.07812 32.096886 170.76562Q31.471888 171.45312 30.503138 171.45312Q29.925013 171.45312 29.456263 171.20312Q28.987513 170.9375 28.706263 170.51562Q28.409388 170.09375 28.268763 169.5625Q28.159388 169.1875 28.065638 168.39062Q27.878138 166.79688 27.612513 166.04688Q27.346888 166.03125 27.268763 166.03125Q26.456263 166.03125 26.128138 166.40625Q25.690638 166.92188 25.690638 167.90625Q25.690638 168.84375 26.018763 169.29688Q26.331263 169.73438 27.159388 169.9375L26.987513 171.23438Q26.159388 171.0625 25.659388 170.65625Q25.143763 170.25 24.878138 169.48438Q24.596888 168.71875 24.596888 167.71875Q24.596888 166.71875 24.831263 166.10938Q25.065638 165.48438 25.425013 165.1875Q25.768763 164.89062 26.315638 164.78125Q26.659388 164.71875 27.534388 164.71875L29.284388 164.71875Q31.128138 164.71875 31.612513 164.64062Q32.096886 164.54688 32.55001 164.29688L32.55001 165.67188Q32.14376 165.875 31.596888 165.9375ZM28.643763 166.04688Q28.940638 166.76562 29.143763 168.20312Q29.268763 169.01562 29.409388 169.35938Q29.550013 169.6875 29.831263 169.875Q30.112513 170.04688 30.456263 170.04688Q30.987513 170.04688 31.346888 169.65625Q31.690638 169.25 31.690638 168.48438Q31.690638 167.71875 31.362513 167.125Q31.018763 166.53125 30.440638 166.25Q30.003138 166.04688 29.128138 166.04688L28.643763 166.04688ZM33.190636 163.25L33.378136 161.96875Q33.971886 161.89062 34.253136 161.53125Q34.61251 161.03125 34.61251 160.1875Q34.61251 159.26562 34.23751 158.76562Q33.878136 158.26562 33.221886 158.09375Q32.815636 158.0 31.534388 158.0Q32.55001 158.85938 32.55001 160.15625Q32.55001 161.76562 31.393763 162.64062Q30.237513 163.51562 28.612513 163.51562Q27.503138 163.51562 26.565638 163.10938Q25.628138 162.70312 25.112513 161.95312Q24.596888 161.1875 24.596888 160.14062Q24.596888 158.76562 25.706263 157.875L24.768763 157.875L24.768763 156.65625L31.487513 156.65625Q33.315636 156.65625 34.065636 157.03125Q34.83126 157.40625 35.26876 158.20312Q35.70626 159.0 35.70626 160.17188Q35.70626 161.5625 35.08126 162.42188Q34.45626 163.28125 33.190636 163.25ZM28.518763 162.15625Q30.050013 162.15625 30.753138 161.5625Q31.456263 160.95312 31.456263 160.03125Q31.456263 159.125 30.768763 158.51562Q30.065638 157.89062 28.565638 157.89062Q27.143763 157.89062 26.425013 158.53125Q25.690638 159.15625 25.690638 160.04688Q25.690638 160.9375 26.409388 161.54688Q27.112513 162.15625 28.518763 162.15625ZM30.050013 149.6875L30.206263 148.32812Q31.409388 148.64062 32.065636 149.51562Q32.721886 150.39062 32.721886 151.75Q32.721886 153.45312 31.675013 154.45312Q30.628138 155.45312 28.721888 155.45312Q26.768763 155.45312 25.690638 154.4375Q24.596888 153.42188 24.596888 151.8125Q24.596888 150.25 25.659388 149.26562Q26.721888 148.28125 28.643763 148.28125Q28.768763 148.28125 29.003138 148.28125L29.003138 154.09375Q30.284388 154.01562 30.971888 153.375Q31.643763 152.71875 31.643763 151.73438Q31.643763 151.01562 31.268763 150.5Q30.878138 149.98438 30.050013 149.6875ZM27.909388 154.01562L27.909388 149.67188Q26.925013 149.76562 26.440638 150.17188Q25.675013 150.79688 25.675013 151.79688Q25.675013 152.71875 26.284388 153.34375Q26.893763 153.95312 27.909388 154.01562ZM30.221888 147.53125L30.018763 146.23438Q30.800013 146.125 31.221888 145.625Q31.643763 145.125 31.643763 144.21875Q31.643763 143.3125 31.284388 142.875Q30.909388 142.4375 30.409388 142.4375Q29.956263 142.4375 29.706263 142.82812Q29.518763 143.09375 29.253138 144.17188Q28.893763 145.625 28.628138 146.1875Q28.346888 146.73438 27.878138 147.03125Q27.409388 147.3125 26.831263 147.3125Q26.315638 147.3125 25.878138 147.07812Q25.425013 146.84375 25.143763 146.4375Q24.909388 146.125 24.753138 145.59375Q24.596888 145.0625 24.596888 144.45312Q24.596888 143.54688 24.862513 142.85938Q25.128138 142.15625 25.581263 141.82812Q26.018763 141.5 26.784388 141.375L26.956263 142.65625Q26.346888 142.75 26.018763 143.17188Q25.675013 143.59375 25.675013 144.35938Q25.675013 145.26562 25.987513 145.65625Q26.284388 146.04688 26.690638 146.04688Q26.940638 146.04688 27.143763 145.89062Q27.362513 145.71875 27.503138 145.375Q27.565638 145.1875 27.831263 144.21875Q28.206263 142.8125 28.440638 142.26562Q28.675013 141.70312 29.143763 141.39062Q29.596888 141.07812 30.268763 141.07812Q30.925013 141.07812 31.503138 141.46875Q32.08126 141.84375 32.409386 142.57812Q32.721886 143.29688 32.721886 144.21875Q32.721886 145.73438 32.096886 146.53125Q31.471888 147.3125 30.221888 147.53125ZM32.73751 136.0L21.628138 132.89062L21.628138 131.82812L32.73751 134.9375L32.73751 136.0ZM30.221888 127.53125L30.018763 126.234375Q30.800013 126.125 31.221888 125.625Q31.643763 125.125 31.643763 124.21875Q31.643763 123.3125 31.284388 122.875Q30.909388 122.4375 30.409388 122.4375Q29.956263 122.4375 29.706263 122.828125Q29.518763 123.09375 29.253138 124.171875Q28.893763 125.625 28.628138 126.1875Q28.346888 126.734375 27.878138 127.03125Q27.409388 127.3125 26.831263 127.3125Q26.315638 127.3125 25.878138 127.078125Q25.425013 126.84375 25.143763 126.4375Q24.909388 126.125 24.753138 125.59375Q24.596888 125.0625 24.596888 124.453125Q24.596888 123.546875 24.862513 122.859375Q25.128138 122.15625 25.581263 121.828125Q26.018763 121.5 26.784388 121.375L26.956263 122.65625Q26.346888 122.75 26.018763 123.171875Q25.675013 123.59375 25.675013 124.359375Q25.675013 125.265625 25.987513 125.65625Q26.284388 126.046875 26.690638 126.046875Q26.940638 126.046875 27.143763 125.890625Q27.362513 125.71875 27.503138 125.375Q27.565638 125.1875 27.831263 124.21875Q28.206263 122.8125 28.440638 122.265625Q28.675013 121.703125 29.143763 121.390625Q29.596888 121.078125 30.268763 121.078125Q30.925013 121.078125 31.503138 121.46875Q32.08126 121.84375 32.409386 122.578125Q32.721886 123.296875 32.721886 124.21875Q32.721886 125.734375 32.096886 126.53125Q31.471888 127.3125 30.221888 127.53125ZM30.050013 113.6875L30.206263 112.328125Q31.409388 112.640625 32.065636 113.515625Q32.721886 114.390625 32.721886 115.75Q32.721886 117.453125 31.675013 118.453125Q30.628138 119.453125 28.721888 119.453125Q26.768763 119.453125 25.690638 118.4375Q24.596888 117.421875 24.596888 115.8125Q24.596888 114.25 25.659388 113.265625Q26.721888 112.28125 28.643763 112.28125Q28.768763 112.28125 29.003138 112.28125L29.003138 118.09375Q30.284388 118.015625 30.971888 117.375Q31.643763 116.71875 31.643763 115.734375Q31.643763 115.015625 31.268763 114.5Q30.878138 113.984375 30.050013 113.6875ZM27.909388 118.015625L27.909388 113.671875Q26.925013 113.765625 26.440638 114.171875Q25.675013 114.796875 25.675013 115.796875Q25.675013 116.71875 26.284388 117.34375Q26.893763 117.953125 27.909388 118.015625ZM29.706263 105.9375L29.862513 104.640625Q31.206263 104.84375 31.971888 105.734375Q32.721886 106.609375 32.721886 107.875Q32.721886 109.46875 31.690638 110.4375Q30.643763 111.40625 28.690638 111.40625Q27.425013 111.40625 26.487513 111.0Q25.534388 110.578125 25.065638 109.734375Q24.596888 108.875 24.596888 107.875Q24.596888 106.609375 25.237513 105.796875Q25.878138 104.984375 27.050013 104.765625L27.253138 106.046875Q26.471888 106.234375 26.081263 106.703125Q25.675013 107.15625 25.675013 107.8125Q25.675013 108.8125 26.393763 109.4375Q27.112513 110.0625 28.659388 110.0625Q30.221888 110.0625 30.940638 109.46875Q31.643763 108.859375 31.643763 107.890625Q31.643763 107.109375 31.175013 106.59375Q30.690638 106.078125 29.706263 105.9375ZM28.659388 103.5Q26.503138 103.5 25.456263 102.296875Q24.596888 101.296875 24.596888 99.859375Q24.596888 98.25 25.643763 97.234375Q26.690638 96.21875 28.550013 96.21875Q30.050013 96.21875 30.909388 96.671875Q31.768763 97.109375 32.253136 97.984375Q32.721886 98.84375 32.721886 99.859375Q32.721886 101.484375 31.675013 102.5Q30.628138 103.5 28.659388 103.5ZM28.659388 102.140625Q30.159388 102.140625 30.909388 101.5Q31.643763 100.84375 31.643763 99.859375Q31.643763 98.875 30.893763 98.21875Q30.143763 97.5625 28.612513 97.5625Q27.175013 97.5625 26.440638 98.21875Q25.690638 98.875 25.690638 99.859375Q25.690638 100.84375 26.425013 101.5Q27.159388 102.140625 28.659388 102.140625ZM32.55001 95.015625L24.768763 95.015625L24.768763 93.828125L25.878138 93.828125Q24.596888 92.96875 24.596888 91.34375Q24.596888 90.640625 24.846888 90.0625Q25.096888 89.46875 25.518763 89.171875Q25.925013 88.875 26.487513 88.765625Q26.846888 88.6875 27.768763 88.6875L32.55001 88.6875L32.55001 90.015625L27.815638 90.015625Q27.018763 90.015625 26.628138 90.171875Q26.221888 90.3125 25.987513 90.703125Q25.737513 91.09375 25.737513 91.625Q25.737513 92.46875 26.268763 93.078125Q26.800013 93.6875 28.300013 93.6875L32.55001 93.6875L32.55001 95.015625ZM32.55001 81.96875L31.565638 81.96875Q32.721886 82.703125 32.721886 84.140625Q32.721886 85.0625 32.221886 85.84375Q31.706263 86.625 30.784388 87.0625Q29.862513 87.484375 28.675013 87.484375Q27.503138 87.484375 26.565638 87.09375Q25.612513 86.703125 25.112513 85.9375Q24.596888 85.15625 24.596888 84.203125Q24.596888 83.5 24.893763 82.953125Q25.190638 82.390625 25.659388 82.046875L21.815638 82.046875L21.815638 80.734375L32.55001 80.734375L32.55001 81.96875ZM28.675013 86.125Q30.159388 86.125 30.909388 85.5Q31.643763 84.875 31.643763 84.015625Q31.643763 83.15625 30.940638 82.546875Q30.221888 81.9375 28.784388 81.9375Q27.175013 81.9375 26.440638 82.5625Q25.690638 83.171875 25.690638 84.078125Q25.690638 84.953125 26.409388 85.546875Q27.128138 86.125 28.675013 86.125Z" fill-rule="nonzero"/><path fill="#000000" d="M103.675 308.65314Q103.675 306.7469 104.06563 305.59064Q104.45625 304.4344 105.22188 303.8094Q106.00313 303.16876 107.175 303.16876Q108.03438 303.16876 108.69063 303.52814Q109.34688 303.8719 109.76875 304.52814Q110.19063 305.16876 110.425 306.1219Q110.675 307.0594 110.675 308.65314Q110.675 310.54376 110.28438 311.71564Q109.89375 312.8719 109.1125 313.5125Q108.34688 314.1375 107.175 314.1375Q105.62813 314.1375 104.7375 313.0125Q103.675 311.6844 103.675 308.65314ZM105.03438 308.65314Q105.03438 311.29376 105.64375 312.16876Q106.26875 313.04376 107.175 313.04376Q108.08125 313.04376 108.69063 312.16876Q109.31563 311.29376 109.31563 308.65314Q109.31563 305.9969 108.69063 305.1375Q108.08125 304.2625 107.15938 304.2625Q106.25313 304.2625 105.70625 305.02814Q105.03438 306.0125 105.03438 308.65314Z" fill-rule="nonzero"/><path fill="#000000" d="M74.59688 242.33438L74.59688 243.6L67.50313 243.6Q67.4875 243.13126 67.65938 242.67813Q67.925 241.95938 68.51875 241.25626Q69.12813 240.55313 70.25313 239.63126Q72.00313 238.19376 72.6125 237.36563Q73.2375 236.52188 73.2375 235.77188Q73.2375 234.99063 72.675 234.45938Q72.1125 233.9125 71.20625 233.9125Q70.25313 233.9125 69.675 234.49063Q69.1125 235.05313 69.1125 236.06876L67.75313 235.92813Q67.89375 234.4125 68.8 233.61563Q69.70625 232.81876 71.2375 232.81876Q72.78438 232.81876 73.675 233.67813Q74.58125 234.5375 74.58125 235.80313Q74.58125 236.44376 74.31563 237.06876Q74.06563 237.69376 73.44063 238.38126Q72.83125 239.06876 71.40938 240.27188Q70.22188 241.25626 69.87813 241.61563Q69.55 241.975 69.33125 242.33438L74.59688 242.33438ZM75.675 240.7875L77.05 240.6625Q77.20625 241.67813 77.76875 242.19376Q78.33125 242.69376 79.12813 242.69376Q80.08125 242.69376 80.7375 241.975Q81.39375 241.25626 81.39375 240.08438Q81.39375 238.94376 80.75313 238.30313Q80.12813 237.64688 79.09688 237.64688Q78.45625 237.64688 77.94063 237.94376Q77.44063 238.225 77.14375 238.67813L75.90938 238.52188L76.94063 233.00626L82.28438 233.00626L82.28438 234.27188L78.00313 234.27188L77.425 237.14688Q78.39375 236.475 79.45625 236.475Q80.8625 236.475 81.81563 237.45938Q82.78438 238.42813 82.78438 239.95938Q82.78438 241.4125 81.94063 242.475Q80.90938 243.7875 79.12813 243.7875Q77.65938 243.7875 76.72188 242.975Q75.8 242.14688 75.675 240.7875ZM84.37813 243.6L84.37813 242.1L85.87813 242.1L85.87813 243.6Q85.87813 244.42813 85.58125 244.92813Q85.3 245.44376 84.65938 245.725L84.3 245.1625Q84.70625 244.975 84.90938 244.61563Q85.1125 244.27188 85.12813 243.6L84.37813 243.6ZM87.675 238.30313Q87.675 236.39688 88.06563 235.24063Q88.45625 234.08438 89.22188 233.45938Q90.00313 232.81876 91.175 232.81876Q92.03438 232.81876 92.69063 233.17813Q93.34688 233.52188 93.76875 234.17813Q94.19063 234.81876 94.425 235.77188Q94.675 236.70938 94.675 238.30313Q94.675 240.19376 94.28438 241.36563Q93.89375 242.52188 93.1125 243.1625Q92.34688 243.7875 91.175 243.7875Q89.62813 243.7875 88.7375 242.6625Q87.675 241.33438 87.675 238.30313ZM89.03438 238.30313Q89.03438 240.94376 89.64375 241.81876Q90.26875 242.69376 91.175 242.69376Q92.08125 242.69376 92.69063 241.81876Q93.31563 240.94376 93.31563 238.30313Q93.31563 235.64688 92.69063 234.7875Q92.08125 233.9125 91.15938 233.9125Q90.25313 233.9125 89.70625 234.67813Q89.03438 235.6625 89.03438 238.30313ZM95.675 238.30313Q95.675 236.39688 96.06563 235.24063Q96.45625 234.08438 97.22188 233.45938Q98.00313 232.81876 99.175 232.81876Q100.03438 232.81876 100.69063 233.17813Q101.34688 233.52188 101.76875 234.17813Q102.19063 234.81876 102.425 235.77188Q102.675 236.70938 102.675 238.30313Q102.675 240.19376 102.28438 241.36563Q101.89375 242.52188 101.1125 243.1625Q100.34688 243.7875 99.175 243.7875Q97.62813 243.7875 96.7375 242.6625Q95.675 241.33438 95.675 238.30313ZM97.03438 238.30313Q97.03438 240.94376 97.64375 241.81876Q98.26875 242.69376 99.175 242.69376Q100.08125 242.69376 100.69063 241.81876Q101.31563 240.94376 101.31563 238.30313Q101.31563 235.64688 100.69063 234.7875Q100.08125 233.9125 99.15938 233.9125Q98.25313 233.9125 97.70625 234.67813Q97.03438 235.6625 97.03438 238.30313ZM103.675 238.30313Q103.675 236.39688 104.06563 235.24063Q104.45625 234.08438 105.22188 233.45938Q106.00313 232.81876 107.175 232.81876Q108.03438 232.81876 108.69063 233.17813Q109.34688 233.52188 109.76875 234.17813Q110.19063 234.81876 110.425 235.77188Q110.675 236.70938 110.675 238.30313Q110.675 240.19376 110.28438 241.36563Q109.89375 242.52188 109.1125 243.1625Q108.34688 243.7875 107.175 243.7875Q105.62813 243.7875 104.7375 242.6625Q103.675 241.33438 103.675 238.30313ZM105.03438 238.30313Q105.03438 240.94376 105.64375 241.81876Q106.26875 242.69376 107.175 242.69376Q108.08125 242.69376 108.69063 241.81876Q109.31563 240.94376 109.31563 238.30313Q109.31563 235.64688 108.69063 234.7875Q108.08125 233.9125 107.15938 233.9125Q106.25313 233.9125 105.70625 234.67813Q105.03438 235.6625 105.03438 238.30313Z" fill-rule="nonzero"/><path fill="#000000" d="M67.675 170.4375L69.05 170.3125Q69.20625 171.32812 69.76875 171.84375Q70.33125 172.34375 71.12813 172.34375Q72.08125 172.34375 72.7375 171.625Q73.39375 170.90625 73.39375 169.73438Q73.39375 168.59375 72.75313 167.95312Q72.12813 167.29688 71.09688 167.29688Q70.45625 167.29688 69.94063 167.59375Q69.44063 167.875 69.14375 168.32812L67.90938 168.17188L68.94063 162.65625L74.28438 162.65625L74.28438 163.92188L70.00313 163.92188L69.425 166.79688Q70.39375 166.125 71.45625 166.125Q72.8625 166.125 73.81563 167.10938Q74.78438 168.07812 74.78438 169.60938Q74.78438 171.0625 73.94063 172.125Q72.90938 173.4375 71.12813 173.4375Q69.65938 173.4375 68.72188 172.625Q67.8 171.79688 67.675 170.4375ZM75.675 167.95312Q75.675 166.04688 76.06563 164.89062Q76.45625 163.73438 77.22188 163.10938Q78.00313 162.46875 79.175 162.46875Q80.03438 162.46875 80.69063 162.82812Q81.34688 163.17188 81.76875 163.82812Q82.19063 164.46875 82.425 165.42188Q82.675 166.35938 82.675 167.95312Q82.675 169.84375 82.28438 171.01562Q81.89375 172.17188 81.1125 172.8125Q80.34688 173.4375 79.175 173.4375Q77.62813 173.4375 76.7375 172.3125Q75.675 170.98438 75.675 167.95312ZM77.03438 167.95312Q77.03438 170.59375 77.64375 171.46875Q78.26875 172.34375 79.175 172.34375Q80.08125 172.34375 80.69063 171.46875Q81.31563 170.59375 81.31563 167.95312Q81.31563 165.29688 80.69063 164.4375Q80.08125 163.5625 79.15938 163.5625Q78.25313 163.5625 77.70625 164.32812Q77.03438 165.3125 77.03438 167.95312ZM84.37813 173.25L84.37813 171.75L85.87813 171.75L85.87813 173.25Q85.87813 174.07812 85.58125 174.57812Q85.3 175.09375 84.65938 175.375L84.3 174.8125Q84.70625 174.625 84.90938 174.26562Q85.1125 173.92188 85.12813 173.25L84.37813 173.25ZM87.675 167.95312Q87.675 166.04688 88.06563 164.89062Q88.45625 163.73438 89.22188 163.10938Q90.00313 162.46875 91.175 162.46875Q92.03438 162.46875 92.69063 162.82812Q93.34688 163.17188 93.76875 163.82812Q94.19063 164.46875 94.425 165.42188Q94.675 166.35938 94.675 167.95312Q94.675 169.84375 94.28438 171.01562Q93.89375 172.17188 93.1125 172.8125Q92.34688 173.4375 91.175 173.4375Q89.62813 173.4375 88.7375 172.3125Q87.675 170.98438 87.675 167.95312ZM89.03438 167.95312Q89.03438 170.59375 89.64375 171.46875Q90.26875 172.34375 91.175 172.34375Q92.08125 172.34375 92.69063 171.46875Q93.31563 170.59375 93.31563 167.95312Q93.31563 165.29688 92.69063 164.4375Q92.08125 163.5625 91.15938 163.5625Q90.25313 163.5625 89.70625 164.32812Q89.03438 165.3125 89.03438 167.95312ZM95.675 167.95312Q95.675 166.04688 96.06563 164.89062Q96.45625 163.73438 97.22188 163.10938Q98.00313 162.46875 99.175 162.46875Q100.03438 162.46875 100.69063 162.82812Q101.34688 163.17188 101.76875 163.82812Q102.19063 164.46875 102.425 165.42188Q102.675 166.35938 102.675 167.95312Q102.675 169.84375 102.28438 171.01562Q101.89375 172.17188 101.1125 172.8125Q100.34688 173.4375 99.175 173.4375Q97.62813 173.4375 96.7375 172.3125Q95.675 170.98438 95.675 167.95312ZM97.03438 167.95312Q97.03438 170.59375 97.64375 171.46875Q98.26875 172.34375 99.175 172.34375Q100.08125 172.34375 100.69063 171.46875Q101.31563 170.59375 101.31563 167.95312Q101.31563 165.29688 100.69063 164.4375Q100.08125 163.5625 99.15938 163.5625Q98.25313 163.5625 97.70625 164.32812Q97.03438 165.3125 97.03438 167.95312ZM103.675 167.95312Q103.675 166.04688 104.06563 164.89062Q104.45625 163.73438 105.22188 163.10938Q106.00313 162.46875 107.175 162.46875Q108.03438 162.46875 108.69063 162.82812Q109.34688 163.17188 109.76875 163.82812Q110.19063 164.46875 110.425 165.42188Q110.675 166.35938 110.675 167.95312Q110.675 169.84375 110.28438 171.01562Q109.89375 172.17188 109.1125 172.8125Q108.34688 173.4375 107.175 173.4375Q105.62813 173.4375 104.7375 172.3125Q103.675 170.98438 103.675 167.95312ZM105.03438 167.95312Q105.03438 170.59375 105.64375 171.46875Q106.26875 172.34375 107.175 172.34375Q108.08125 172.34375 108.69063 171.46875Q109.31563 170.59375 109.31563 167.95312Q109.31563 165.29688 108.69063 164.4375Q108.08125 163.5625 107.15938 163.5625Q106.25313 163.5625 105.70625 164.32812Q105.03438 165.3125 105.03438 167.95312Z" fill-rule="nonzero"/><path fill="#000000" d="M67.75313 93.57188L67.75313 92.30625L74.70625 92.30625L74.70625 93.32188Q73.69063 94.41563 72.675 96.22813Q71.675 98.04063 71.12813 99.94688Q70.72188 101.29063 70.6125 102.9L69.26875 102.9Q69.28438 101.63438 69.75313 99.8375Q70.2375 98.04063 71.12813 96.38438Q72.01875 94.7125 73.01875 93.57188L67.75313 93.57188ZM75.675 100.0875L77.05 99.9625Q77.20625 100.97813 77.76875 101.49375Q78.33125 101.99375 79.12813 101.99375Q80.08125 101.99375 80.7375 101.275Q81.39375 100.55625 81.39375 99.38438Q81.39375 98.24375 80.75313 97.60313Q80.12813 96.94688 79.09688 96.94688Q78.45625 96.94688 77.94063 97.24375Q77.44063 97.525 77.14375 97.97813L75.90938 97.82188L76.94063 92.30625L82.28438 92.30625L82.28438 93.57188L78.00313 93.57188L77.425 96.44688Q78.39375 95.775 79.45625 95.775Q80.8625 95.775 81.81563 96.75938Q82.78438 97.72813 82.78438 99.25938Q82.78438 100.7125 81.94063 101.775Q80.90938 103.0875 79.12813 103.0875Q77.65938 103.0875 76.72188 102.275Q75.8 101.44688 75.675 100.0875ZM84.37813 102.9L84.37813 101.4L85.87813 101.4L85.87813 102.9Q85.87813 103.72813 85.58125 104.22813Q85.3 104.74375 84.65938 105.025L84.3 104.4625Q84.70625 104.275 84.90938 103.91563Q85.1125 103.57188 85.12813 102.9L84.37813 102.9ZM87.675 97.60313Q87.675 95.69688 88.06563 94.54063Q88.45625 93.38438 89.22188 92.75938Q90.00313 92.11875 91.175 92.11875Q92.03438 92.11875 92.69063 92.47813Q93.34688 92.82188 93.76875 93.47813Q94.19063 94.11875 94.425 95.07188Q94.675 96.00938 94.675 97.60313Q94.675 99.49375 94.28438 100.66563Q93.89375 101.82188 93.1125 102.4625Q92.34688 103.0875 91.175 103.0875Q89.62813 103.0875 88.7375 101.9625Q87.675 100.63438 87.675 97.60313ZM89.03438 97.60313Q89.03438 100.24375 89.64375 101.11875Q90.26875 101.99375 91.175 101.99375Q92.08125 101.99375 92.69063 101.11875Q93.31563 100.24375 93.31563 97.60313Q93.31563 94.94688 92.69063 94.0875Q92.08125 93.2125 91.15938 93.2125Q90.25313 93.2125 89.70625 93.97813Q89.03438 94.9625 89.03438 97.60313ZM95.675 97.60313Q95.675 95.69688 96.06563 94.54063Q96.45625 93.38438 97.22188 92.75938Q98.00313 92.11875 99.175 92.11875Q100.03438 92.11875 100.69063 92.47813Q101.34688 92.82188 101.76875 93.47813Q102.19063 94.11875 102.425 95.07188Q102.675 96.00938 102.675 97.60313Q102.675 99.49375 102.28438 100.66563Q101.89375 101.82188 101.1125 102.4625Q100.34688 103.0875 99.175 103.0875Q97.62813 103.0875 96.7375 101.9625Q95.675 100.63438 95.675 97.60313ZM97.03438 97.60313Q97.03438 100.24375 97.64375 101.11875Q98.26875 101.99375 99.175 101.99375Q100.08125 101.99375 100.69063 101.11875Q101.31563 100.24375 101.31563 97.60313Q101.31563 94.94688 100.69063 94.0875Q100.08125 93.2125 99.15938 93.2125Q98.25313 93.2125 97.70625 93.97813Q97.03438 94.9625 97.03438 97.60313ZM103.675 97.60313Q103.675 95.69688 104.06563 94.54063Q104.45625 93.38438 105.22188 92.75938Q106.00313 92.11875 107.175 92.11875Q108.03438 92.11875 108.69063 92.47813Q109.34688 92.82188 109.76875 93.47813Q110.19063 94.11875 110.425 95.07188Q110.675 96.00938 110.675 97.60313Q110.675 99.49375 110.28438 100.66563Q109.89375 101.82188 109.1125 102.4625Q108.34688 103.0875 107.175 103.0875Q105.62813 103.0875 104.7375 101.9625Q103.675 100.63438 103.675 97.60313ZM105.03438 97.60313Q105.03438 100.24375 105.64375 101.11875Q106.26875 101.99375 107.175 101.99375Q108.08125 101.99375 108.69063 101.11875Q109.31563 100.24375 109.31563 97.60313Q109.31563 94.94688 108.69063 94.0875Q108.08125 93.2125 107.15938 93.2125Q106.25313 93.2125 105.70625 93.97813Q105.03438 94.9625 105.03438 97.60313Z" fill-rule="nonzero"/><path fill="#000000" d="M64.64375 32.55L63.315624 32.55L63.315624 24.14375Q62.846874 24.596874 62.065624 25.065624Q61.3 25.51875 60.690624 25.7375L60.690624 24.45625Q61.784374 23.940624 62.6125 23.20625Q63.440624 22.471874 63.784374 21.76875L64.64375 21.76875L64.64375 32.55ZM67.675 27.253124Q67.675 25.346874 68.06563 24.190624Q68.45625 23.034374 69.22188 22.409374Q70.00313 21.76875 71.175 21.76875Q72.03438 21.76875 72.69063 22.128124Q73.34688 22.471874 73.76875 23.128124Q74.19063 23.76875 74.425 24.721874Q74.675 25.659374 74.675 27.253124Q74.675 29.14375 74.28438 30.315624Q73.89375 31.471874 73.1125 32.1125Q72.34688 32.7375 71.175 32.7375Q69.62813 32.7375 68.7375 31.6125Q67.675 30.284374 67.675 27.253124ZM69.03438 27.253124Q69.03438 29.89375 69.64375 30.76875Q70.26875 31.64375 71.175 31.64375Q72.08125 31.64375 72.69063 30.76875Q73.31563 29.89375 73.31563 27.253124Q73.31563 24.596874 72.69063 23.7375Q72.08125 22.8625 71.15938 22.8625Q70.25313 22.8625 69.70625 23.628124Q69.03438 24.6125 69.03438 27.253124ZM75.675 27.253124Q75.675 25.346874 76.06563 24.190624Q76.45625 23.034374 77.22188 22.409374Q78.00313 21.76875 79.175 21.76875Q80.03438 21.76875 80.69063 22.128124Q81.34688 22.471874 81.76875 23.128124Q82.19063 23.76875 82.425 24.721874Q82.675 25.659374 82.675 27.253124Q82.675 29.14375 82.28438 30.315624Q81.89375 31.471874 81.1125 32.1125Q80.34688 32.7375 79.175 32.7375Q77.62813 32.7375 76.7375 31.6125Q75.675 30.284374 75.675 27.253124ZM77.03438 27.253124Q77.03438 29.89375 77.64375 30.76875Q78.26875 31.64375 79.175 31.64375Q80.08125 31.64375 80.69063 30.76875Q81.31563 29.89375 81.31563 27.253124Q81.31563 24.596874 80.69063 23.7375Q80.08125 22.8625 79.15938 22.8625Q78.25313 22.8625 77.70625 23.628124Q77.03438 24.6125 77.03438 27.253124ZM84.37813 32.55L84.37813 31.05L85.87813 31.05L85.87813 32.55Q85.87813 33.378124 85.58125 33.878124Q85.3 34.39375 84.65938 34.675L84.3 34.1125Q84.70625 33.925 84.90938 33.565624Q85.1125 33.221874 85.12813 32.55L84.37813 32.55ZM87.675 27.253124Q87.675 25.346874 88.06563 24.190624Q88.45625 23.034374 89.22188 22.409374Q90.00313 21.76875 91.175 21.76875Q92.03438 21.76875 92.69063 22.128124Q93.34688 22.471874 93.76875 23.128124Q94.19063 23.76875 94.425 24.721874Q94.675 25.659374 94.675 27.253124Q94.675 29.14375 94.28438 30.315624Q93.89375 31.471874 93.1125 32.1125Q92.34688 32.7375 91.175 32.7375Q89.62813 32.7375 88.7375 31.6125Q87.675 30.284374 87.675 27.253124ZM89.03438 27.253124Q89.03438 29.89375 89.64375 30.76875Q90.26875 31.64375 91.175 31.64375Q92.08125 31.64375 92.69063 30.76875Q93.31563 29.89375 93.31563 27.253124Q93.31563 24.596874 92.69063 23.7375Q92.08125 22.8625 91.15938 22.8625Q90.25313 22.8625 89.70625 23.628124Q89.03438 24.6125 89.03438 27.253124ZM95.675 27.253124Q95.675 25.346874 96.06563 24.190624Q96.45625 23.034374 97.22188 22.409374Q98.00313 21.76875 99.175 21.76875Q100.03438 21.76875 100.69063 22.128124Q101.34688 22.471874 101.76875 23.128124Q102.19063 23.76875 102.425 24.721874Q102.675 25.659374 102.675 27.253124Q102.675 29.14375 102.28438 30.315624Q101.89375 31.471874 101.1125 32.1125Q100.34688 32.7375 99.175 32.7375Q97.62813 32.7375 96.7375 31.6125Q95.675 30.284374 95.675 27.253124ZM97.03438 27.253124Q97.03438 29.89375 97.64375 30.76875Q98.26875 31.64375 99.175 31.64375Q100.08125 31.64375 100.69063 30.76875Q101.31563 29.89375 101.31563 27.253124Q101.31563 24.596874 100.69063 23.7375Q100.08125 22.8625 99.15938 22.8625Q98.25313 22.8625 97.70625 23.628124Q97.03438 24.6125 97.03438 27.253124ZM103.675 27.253124Q103.675 25.346874 104.06563 24.190624Q104.45625 23.034374 105.22188 22.409374Q106.00313 21.76875 107.175 21.76875Q108.03438 21.76875 108.69063 22.128124Q109.34688 22.471874 109.76875 23.128124Q110.19063 23.76875 110.425 24.721874Q110.675 25.659374 110.675 27.253124Q110.675 29.14375 110.28438 30.315624Q109.89375 31.471874 109.1125 32.1125Q108.34688 32.7375 107.175 32.7375Q105.62813 32.7375 104.7375 31.6125Q103.675 30.284374 103.675 27.253124ZM105.03438 27.253124Q105.03438 29.89375 105.64375 30.76875Q106.26875 31.64375 107.175 31.64375Q108.08125 31.64375 108.69063 30.76875Q109.31563 29.89375 109.31563 27.253124Q109.31563 24.596874 108.69063 23.7375Q108.08125 22.8625 107.15938 22.8625Q106.25313 22.8625 105.70625 23.628124Q105.03438 24.6125 105.03438 27.253124Z" fill-rule="nonzero"/><path fill="#000000" d="M185.94589 327.66876L181.47714 327.66876L180.47714 330.45L179.02402 330.45L183.10214 319.77814L184.33652 319.77814L188.41464 330.45L186.96152 330.45L185.94589 327.66876ZM181.89902 326.5125L185.52402 326.5125L183.71152 321.52814L181.89902 326.5125ZM191.86777 319.77814L195.36777 328.48126L198.85214 319.77814L200.66464 319.77814L200.66464 330.45L199.25839 330.45L199.25839 326.29376L199.39902 321.8094L195.89902 330.45L194.82089 330.45L191.32089 321.84064L191.46152 326.29376L191.46152 330.45L190.05527 330.45L190.05527 319.77814L191.86777 319.77814ZM211.19589 325.46564Q211.19589 327.0125 210.71152 328.1375Q210.22714 329.2469 209.33652 329.8719L211.24277 331.3719L210.27402 332.2469L208.03964 330.46564Q207.50839 330.59064 206.91464 330.59064Q205.66464 330.59064 204.68027 329.98126Q203.71152 329.35626 203.16464 328.21564Q202.63339 327.0594 202.61777 325.5594L202.61777 324.79376Q202.61777 323.2469 203.14902 322.075Q203.69589 320.8875 204.66464 320.2625Q205.64902 319.6375 206.89902 319.6375Q208.19589 319.6375 209.16464 320.2625Q210.14902 320.8875 210.66464 322.0594Q211.19589 323.21564 211.19589 324.77814L211.19589 325.46564ZM209.78964 324.77814Q209.78964 322.8875 209.03964 321.8719Q208.28964 320.84064 206.89902 320.84064Q205.57089 320.84064 204.80527 321.85626Q204.05527 322.8719 204.02402 324.6844L204.02402 325.46564Q204.02402 327.29376 204.78964 328.35626Q205.55527 329.40314 206.91464 329.40314Q208.27402 329.40314 209.02402 328.41876Q209.77402 327.41876 209.78964 325.5594L209.78964 324.77814ZM214.46152 326.27814L214.46152 330.45L213.05527 330.45L213.05527 319.77814L216.99277 319.77814Q218.74277 319.77814 219.72714 320.6844Q220.72714 321.575 220.72714 323.04376Q220.72714 324.59064 219.75839 325.4344Q218.78964 326.27814 216.97714 326.27814L214.46152 326.27814ZM214.46152 325.1219L216.99277 325.1219Q218.11777 325.1219 218.71152 324.59064Q219.32089 324.0594 219.32089 323.0594Q219.32089 322.10626 218.71152 321.54376Q218.11777 320.96564 217.07089 320.95L214.46152 320.95L214.46152 325.1219ZM230.16464 330.45L228.80527 330.45L228.80527 321.41876L226.07089 322.41876L226.07089 321.1844L229.94589 319.73126L230.16464 319.73126L230.16464 330.45ZM233.88339 329.7469Q233.88339 329.3875 234.08652 329.15314Q234.28964 328.91876 234.71152 328.91876Q235.13339 328.91876 235.33652 329.15314Q235.55527 329.3875 235.55527 329.7469Q235.55527 330.075 235.33652 330.3094Q235.13339 330.52814 234.71152 330.52814Q234.28964 330.52814 234.08652 330.3094Q233.88339 330.075 233.88339 329.7469ZM244.39902 325.90314Q244.39902 328.27814 243.58652 329.4344Q242.77402 330.59064 241.03964 330.59064Q239.33652 330.59064 238.50839 329.46564Q237.69589 328.34064 237.66464 326.09064L237.66464 324.27814Q237.66464 321.91876 238.47714 320.77814Q239.28964 319.6375 241.02402 319.6375Q242.74277 319.6375 243.55527 320.7469Q244.36777 321.84064 244.39902 324.1375L244.39902 325.90314ZM243.03964 324.04376Q243.03964 322.325 242.55527 321.54376Q242.07089 320.7469 241.02402 320.7469Q239.99277 320.7469 239.50839 321.54376Q239.03964 322.325 239.02402 323.95L239.02402 326.10626Q239.02402 327.84064 239.52402 328.66876Q240.02402 329.4969 241.03964 329.4969Q242.03964 329.4969 242.52402 328.71564Q243.02402 327.9344 243.03964 326.2625L243.03964 324.04376Z" fill-rule="nonzero"/><path fill="#000000" d="M172.47714 344.1375L169.96152 344.1375L169.96152 348.45L168.55527 348.45L168.55527 337.77814L172.08652 337.77814Q173.88339 337.77814 174.85214 338.60626Q175.82089 339.41876 175.82089 340.9969Q175.82089 341.9969 175.27402 342.73126Q174.74277 343.46564 173.78964 343.84064L176.28964 348.35626L176.28964 348.45L174.78964 348.45L172.47714 344.1375ZM169.96152 342.98126L172.13339 342.98126Q173.18027 342.98126 173.78964 342.45Q174.41464 341.90314 174.41464 340.9969Q174.41464 340.0125 173.82089 339.48126Q173.22714 338.95 172.11777 338.95L169.96152 338.95L169.96152 342.98126ZM182.24277 348.45Q182.11777 348.21564 182.05527 347.6219Q181.10214 348.59064 179.78964 348.59064Q178.61777 348.59064 177.86777 347.9344Q177.11777 347.27814 177.11777 346.2469Q177.11777 345.0125 178.05527 344.325Q179.00839 343.6375 180.71152 343.6375L182.02402 343.6375L182.02402 343.02814Q182.02402 342.3094 181.60214 341.8875Q181.18027 341.46564 180.35214 341.46564Q179.61777 341.46564 179.13339 341.84064Q178.64902 342.2 178.64902 342.71564L177.27402 342.71564Q177.27402 342.1219 177.69589 341.575Q178.11777 341.02814 178.83652 340.7Q179.57089 340.3719 180.43027 340.3719Q181.80527 340.3719 182.57089 341.0594Q183.35214 341.7469 183.38339 342.95L183.38339 346.59064Q183.38339 347.6844 183.66464 348.325L183.66464 348.45L182.24277 348.45ZM179.99277 347.41876Q180.63339 347.41876 181.19589 347.09064Q181.77402 346.7625 182.02402 346.23126L182.02402 344.60626L180.96152 344.60626Q178.47714 344.60626 178.47714 346.0594Q178.47714 346.7 178.89902 347.0594Q179.32089 347.41876 179.99277 347.41876ZM192.05527 344.575Q192.05527 346.3875 191.21152 347.4969Q190.38339 348.59064 188.97714 348.59064Q187.47714 348.59064 186.66464 347.52814L186.58652 348.45L185.35214 348.45L185.35214 337.2L186.69589 337.2L186.69589 341.40314Q187.52402 340.3719 188.96152 340.3719Q190.41464 340.3719 191.22714 341.46564Q192.05527 342.5594 192.05527 344.46564L192.05527 344.575ZM190.69589 344.41876Q190.69589 343.04376 190.16464 342.29376Q189.63339 341.52814 188.63339 341.52814Q187.28964 341.52814 186.69589 342.77814L186.69589 346.2Q187.32089 347.45 188.64902 347.45Q189.61777 347.45 190.14902 346.7Q190.69589 345.9344 190.69589 344.41876ZM200.05527 344.575Q200.05527 346.3875 199.21152 347.4969Q198.38339 348.59064 196.97714 348.59064Q195.47714 348.59064 194.66464 347.52814L194.58652 348.45L193.35214 348.45L193.35214 337.2L194.69589 337.2L194.69589 341.40314Q195.52402 340.3719 196.96152 340.3719Q198.41464 340.3719 199.22714 341.46564Q200.05527 342.5594 200.05527 344.46564L200.05527 344.575ZM198.69589 344.41876Q198.69589 343.04376 198.16464 342.29376Q197.63339 341.52814 196.63339 341.52814Q195.28964 341.52814 194.69589 342.77814L194.69589 346.2Q195.32089 347.45 196.64902 347.45Q197.61777 347.45 198.14902 346.7Q198.69589 345.9344 198.69589 344.41876ZM202.82089 348.45L201.46152 348.45L201.46152 340.52814L202.82089 340.52814L202.82089 348.45ZM201.35214 338.41876Q201.35214 338.09064 201.55527 337.8719Q201.75839 337.6375 202.14902 337.6375Q202.55527 337.6375 202.75839 337.8719Q202.96152 338.09064 202.96152 338.41876Q202.96152 338.7469 202.75839 338.96564Q202.55527 339.1844 202.14902 339.1844Q201.75839 339.1844 201.55527 338.96564Q201.35214 338.7469 201.35214 338.41876ZM207.18027 338.60626L207.18027 340.52814L208.66464 340.52814L208.66464 341.575L207.18027 341.575L207.18027 346.48126Q207.18027 346.96564 207.38339 347.2Q207.58652 347.4344 208.05527 347.4344Q208.28964 347.4344 208.69589 347.35626L208.69589 348.45Q208.16464 348.59064 207.66464 348.59064Q206.75839 348.59064 206.28964 348.04376Q205.83652 347.4969 205.83652 346.48126L205.83652 341.575L204.38339 341.575L204.38339 340.52814L205.83652 340.52814L205.83652 338.60626L207.18027 338.60626ZM212.36777 337.77814L215.86777 346.48126L219.35214 337.77814L221.16464 337.77814L221.16464 348.45L219.75839 348.45L219.75839 344.29376L219.89902 339.8094L216.39902 348.45L215.32089 348.45L211.82089 339.84064L211.96152 344.29376L211.96152 348.45L210.55527 348.45L210.55527 337.77814L212.36777 337.77814ZM231.69589 343.46564Q231.69589 345.0125 231.21152 346.1375Q230.72714 347.2469 229.83652 347.8719L231.74277 349.3719L230.77402 350.2469L228.53964 348.46564Q228.00839 348.59064 227.41464 348.59064Q226.16464 348.59064 225.18027 347.98126Q224.21152 347.35626 223.66464 346.21564Q223.13339 345.0594 223.11777 343.5594L223.11777 342.79376Q223.11777 341.2469 223.64902 340.075Q224.19589 338.8875 225.16464 338.2625Q226.14902 337.6375 227.39902 337.6375Q228.69589 337.6375 229.66464 338.2625Q230.64902 338.8875 231.16464 340.0594Q231.69589 341.21564 231.69589 342.77814L231.69589 343.46564ZM230.28964 342.77814Q230.28964 340.8875 229.53964 339.8719Q228.78964 338.84064 227.39902 338.84064Q226.07089 338.84064 225.30527 339.85626Q224.55527 340.8719 224.52402 342.6844L224.52402 343.46564Q224.52402 345.29376 225.28964 346.35626Q226.05527 347.40314 227.41464 347.40314Q228.77402 347.40314 229.52402 346.41876Q230.27402 345.41876 230.28964 343.5594L230.28964 342.77814ZM242.93027 344.8719L244.41464 344.8719L244.41464 345.98126L242.93027 345.98126L242.93027 348.45L241.57089 348.45L241.57089 345.98126L236.71152 345.98126L236.71152 345.16876L241.47714 337.77814L242.93027 337.77814L242.93027 344.8719ZM238.24277 344.8719L241.57089 344.8719L241.57089 339.6375L241.39902 339.9344L238.24277 344.8719ZM245.38339 347.7469Q245.38339 347.3875 245.58652 347.15314Q245.78964 346.91876 246.21152 346.91876Q246.63339 346.91876 246.83652 347.15314Q247.05527 347.3875 247.05527 347.7469Q247.05527 348.075 246.83652 348.3094Q246.63339 348.52814 246.21152 348.52814Q245.78964 348.52814 245.58652 348.3094Q245.38339 348.075 245.38339 347.7469ZM255.89902 343.90314Q255.89902 346.27814 255.08652 347.4344Q254.27402 348.59064 252.53964 348.59064Q250.83652 348.59064 250.00839 347.46564Q249.19589 346.34064 249.16464 344.09064L249.16464 342.27814Q249.16464 339.91876 249.97714 338.77814Q250.78964 337.6375 252.52402 337.6375Q254.24277 337.6375 255.05527 338.7469Q255.86777 339.84064 255.89902 342.1375L255.89902 343.90314ZM254.53964 342.04376Q254.53964 340.325 254.05527 339.54376Q253.57089 338.7469 252.52402 338.7469Q251.49277 338.7469 251.00839 339.54376Q250.53964 340.325 250.52402 341.95L250.52402 344.10626Q250.52402 345.84064 251.02402 346.66876Q251.52402 347.4969 252.53964 347.4969Q253.53964 347.4969 254.02402 346.71564Q254.52402 345.9344 254.53964 344.2625L254.53964 342.04376Z" fill-rule="nonzero"/><path fill="#000000" d="M324.125 327.66876L319.65625 327.66876L318.65625 330.45L317.20312 330.45L321.28125 319.77814L322.51562 319.77814L326.59375 330.45L325.14062 330.45L324.125 327.66876ZM320.07812 326.5125L323.70312 326.5125L321.89062 321.52814L320.07812 326.5125ZM330.04688 319.77814L333.54688 328.48126L337.03125 319.77814L338.84375 319.77814L338.84375 330.45L337.4375 330.45L337.4375 326.29376L337.57812 321.8094L334.07812 330.45L333.0 330.45L329.5 321.84064L329.64062 326.29376L329.64062 330.45L328.23438 330.45L328.23438 319.77814L330.04688 319.77814ZM349.375 325.46564Q349.375 327.0125 348.89062 328.1375Q348.40625 329.2469 347.51562 329.8719L349.42188 331.3719L348.45312 332.2469L346.21875 330.46564Q345.6875 330.59064 345.09375 330.59064Q343.84375 330.59064 342.85938 329.98126Q341.89062 329.35626 341.34375 328.21564Q340.8125 327.0594 340.79688 325.5594L340.79688 324.79376Q340.79688 323.2469 341.32812 322.075Q341.875 320.8875 342.84375 320.2625Q343.82812 319.6375 345.07812 319.6375Q346.375 319.6375 347.34375 320.2625Q348.32812 320.8875 348.84375 322.0594Q349.375 323.21564 349.375 324.77814L349.375 325.46564ZM347.96875 324.77814Q347.96875 322.8875 347.21875 321.8719Q346.46875 320.84064 345.07812 320.84064Q343.75 320.84064 342.98438 321.85626Q342.23438 322.8719 342.20312 324.6844L342.20312 325.46564Q342.20312 327.29376 342.96875 328.35626Q343.73438 329.40314 345.09375 329.40314Q346.45312 329.40314 347.20312 328.41876Q347.95312 327.41876 347.96875 325.5594L347.96875 324.77814ZM352.64062 326.27814L352.64062 330.45L351.23438 330.45L351.23438 319.77814L355.17188 319.77814Q356.92188 319.77814 357.90625 320.6844Q358.90625 321.575 358.90625 323.04376Q358.90625 324.59064 357.9375 325.4344Q356.96875 326.27814 355.15625 326.27814L352.64062 326.27814ZM352.64062 325.1219L355.17188 325.1219Q356.29688 325.1219 356.89062 324.59064Q357.5 324.0594 357.5 323.0594Q357.5 322.10626 356.89062 321.54376Q356.29688 320.96564 355.25 320.95L352.64062 320.95L352.64062 325.1219ZM368.34375 330.45L366.98438 330.45L366.98438 321.41876L364.25 322.41876L364.25 321.1844L368.125 319.73126L368.34375 319.73126L368.34375 330.45ZM372.0625 329.7469Q372.0625 329.3875 372.26562 329.15314Q372.46875 328.91876 372.89062 328.91876Q373.3125 328.91876 373.51562 329.15314Q373.73438 329.3875 373.73438 329.7469Q373.73438 330.075 373.51562 330.3094Q373.3125 330.52814 372.89062 330.52814Q372.46875 330.52814 372.26562 330.3094Q372.0625 330.075 372.0625 329.7469ZM382.57812 325.90314Q382.57812 328.27814 381.76562 329.4344Q380.95312 330.59064 379.21875 330.59064Q377.51562 330.59064 376.6875 329.46564Q375.875 328.34064 375.84375 326.09064L375.84375 324.27814Q375.84375 321.91876 376.65625 320.77814Q377.46875 319.6375 379.20312 319.6375Q380.92188 319.6375 381.73438 320.7469Q382.54688 321.84064 382.57812 324.1375L382.57812 325.90314ZM381.21875 324.04376Q381.21875 322.325 380.73438 321.54376Q380.25 320.7469 379.20312 320.7469Q378.17188 320.7469 377.6875 321.54376Q377.21875 322.325 377.20312 323.95L377.20312 326.10626Q377.20312 327.84064 377.70312 328.66876Q378.20312 329.4969 379.21875 329.4969Q380.21875 329.4969 380.70312 328.71564Q381.20312 327.9344 381.21875 326.2625L381.21875 324.04376Z" fill-rule="nonzero"/><path fill="#000000" d="M306.65625 344.1375L304.14062 344.1375L304.14062 348.45L302.73438 348.45L302.73438 337.77814L306.26562 337.77814Q308.0625 337.77814 309.03125 338.60626Q310.0 339.41876 310.0 340.9969Q310.0 341.9969 309.45312 342.73126Q308.92188 343.46564 307.96875 343.84064L310.46875 348.35626L310.46875 348.45L308.96875 348.45L306.65625 344.1375ZM304.14062 342.98126L306.3125 342.98126Q307.35938 342.98126 307.96875 342.45Q308.59375 341.90314 308.59375 340.9969Q308.59375 340.0125 308.0 339.48126Q307.40625 338.95 306.29688 338.95L304.14062 338.95L304.14062 342.98126ZM316.42188 348.45Q316.29688 348.21564 316.23438 347.6219Q315.28125 348.59064 313.96875 348.59064Q312.79688 348.59064 312.04688 347.9344Q311.29688 347.27814 311.29688 346.2469Q311.29688 345.0125 312.23438 344.325Q313.1875 343.6375 314.89062 343.6375L316.20312 343.6375L316.20312 343.02814Q316.20312 342.3094 315.78125 341.8875Q315.35938 341.46564 314.53125 341.46564Q313.79688 341.46564 313.3125 341.84064Q312.82812 342.2 312.82812 342.71564L311.45312 342.71564Q311.45312 342.1219 311.875 341.575Q312.29688 341.02814 313.01562 340.7Q313.75 340.3719 314.60938 340.3719Q315.98438 340.3719 316.75 341.0594Q317.53125 341.7469 317.5625 342.95L317.5625 346.59064Q317.5625 347.6844 317.84375 348.325L317.84375 348.45L316.42188 348.45ZM314.17188 347.41876Q314.8125 347.41876 315.375 347.09064Q315.95312 346.7625 316.20312 346.23126L316.20312 344.60626L315.14062 344.60626Q312.65625 344.60626 312.65625 346.0594Q312.65625 346.7 313.07812 347.0594Q313.5 347.41876 314.17188 347.41876ZM326.23438 344.575Q326.23438 346.3875 325.39062 347.4969Q324.5625 348.59064 323.15625 348.59064Q321.65625 348.59064 320.84375 347.52814L320.76562 348.45L319.53125 348.45L319.53125 337.2L320.875 337.2L320.875 341.40314Q321.70312 340.3719 323.14062 340.3719Q324.59375 340.3719 325.40625 341.46564Q326.23438 342.5594 326.23438 344.46564L326.23438 344.575ZM324.875 344.41876Q324.875 343.04376 324.34375 342.29376Q323.8125 341.52814 322.8125 341.52814Q321.46875 341.52814 320.875 342.77814L320.875 346.2Q321.5 347.45 322.82812 347.45Q323.79688 347.45 324.32812 346.7Q324.875 345.9344 324.875 344.41876ZM334.23438 344.575Q334.23438 346.3875 333.39062 347.4969Q332.5625 348.59064 331.15625 348.59064Q329.65625 348.59064 328.84375 347.52814L328.76562 348.45L327.53125 348.45L327.53125 337.2L328.875 337.2L328.875 341.40314Q329.70312 340.3719 331.14062 340.3719Q332.59375 340.3719 333.40625 341.46564Q334.23438 342.5594 334.23438 344.46564L334.23438 344.575ZM332.875 344.41876Q332.875 343.04376 332.34375 342.29376Q331.8125 341.52814 330.8125 341.52814Q329.46875 341.52814 328.875 342.77814L328.875 346.2Q329.5 347.45 330.82812 347.45Q331.79688 347.45 332.32812 346.7Q332.875 345.9344 332.875 344.41876ZM337.0 348.45L335.64062 348.45L335.64062 340.52814L337.0 340.52814L337.0 348.45ZM335.53125 338.41876Q335.53125 338.09064 335.73438 337.8719Q335.9375 337.6375 336.32812 337.6375Q336.73438 337.6375 336.9375 337.8719Q337.14062 338.09064 337.14062 338.41876Q337.14062 338.7469 336.9375 338.96564Q336.73438 339.1844 336.32812 339.1844Q335.9375 339.1844 335.73438 338.96564Q335.53125 338.7469 335.53125 338.41876ZM341.35938 338.60626L341.35938 340.52814L342.84375 340.52814L342.84375 341.575L341.35938 341.575L341.35938 346.48126Q341.35938 346.96564 341.5625 347.2Q341.76562 347.4344 342.23438 347.4344Q342.46875 347.4344 342.875 347.35626L342.875 348.45Q342.34375 348.59064 341.84375 348.59064Q340.9375 348.59064 340.46875 348.04376Q340.01562 347.4969 340.01562 346.48126L340.01562 341.575L338.5625 341.575L338.5625 340.52814L340.01562 340.52814L340.01562 338.60626L341.35938 338.60626ZM346.54688 337.77814L350.04688 346.48126L353.53125 337.77814L355.34375 337.77814L355.34375 348.45L353.9375 348.45L353.9375 344.29376L354.07812 339.8094L350.57812 348.45L349.5 348.45L346.0 339.84064L346.14062 344.29376L346.14062 348.45L344.73438 348.45L344.73438 337.77814L346.54688 337.77814ZM365.875 343.46564Q365.875 345.0125 365.39062 346.1375Q364.90625 347.2469 364.01562 347.8719L365.92188 349.3719L364.95312 350.2469L362.71875 348.46564Q362.1875 348.59064 361.59375 348.59064Q360.34375 348.59064 359.35938 347.98126Q358.39062 347.35626 357.84375 346.21564Q357.3125 345.0594 357.29688 343.5594L357.29688 342.79376Q357.29688 341.2469 357.82812 340.075Q358.375 338.8875 359.34375 338.2625Q360.32812 337.6375 361.57812 337.6375Q362.875 337.6375 363.84375 338.2625Q364.82812 338.8875 365.34375 340.0594Q365.875 341.21564 365.875 342.77814L365.875 343.46564ZM364.46875 342.77814Q364.46875 340.8875 363.71875 339.8719Q362.96875 338.84064 361.57812 338.84064Q360.25 338.84064 359.48438 339.85626Q358.73438 340.8719 358.70312 342.6844L358.70312 343.46564Q358.70312 345.29376 359.46875 346.35626Q360.23438 347.40314 361.59375 347.40314Q362.95312 347.40314 363.70312 346.41876Q364.45312 345.41876 364.46875 343.5594L364.46875 342.77814ZM373.35938 342.46564L374.375 342.46564Q375.32812 342.45 375.875 341.96564Q376.4375 341.46564 376.4375 340.6219Q376.4375 338.7469 374.5625 338.7469Q373.6875 338.7469 373.15625 339.2625Q372.64062 339.7625 372.64062 340.59064L371.28125 340.59064Q371.28125 339.3094 372.20312 338.48126Q373.14062 337.6375 374.5625 337.6375Q376.07812 337.6375 376.92188 338.4344Q377.78125 339.23126 377.78125 340.65314Q377.78125 341.35626 377.32812 342.0125Q376.89062 342.65314 376.10938 342.98126Q376.98438 343.2625 377.46875 343.90314Q377.95312 344.54376 377.95312 345.48126Q377.95312 346.91876 377.01562 347.7625Q376.07812 348.59064 374.57812 348.59064Q373.07812 348.59064 372.125 347.77814Q371.1875 346.96564 371.1875 345.6375L372.54688 345.6375Q372.54688 346.48126 373.09375 346.9969Q373.65625 347.4969 374.57812 347.4969Q375.54688 347.4969 376.0625 346.98126Q376.59375 346.46564 376.59375 345.5125Q376.59375 344.575 376.01562 344.075Q375.45312 343.575 374.375 343.5594L373.35938 343.5594L373.35938 342.46564ZM379.5625 347.7469Q379.5625 347.3875 379.76562 347.15314Q379.96875 346.91876 380.39062 346.91876Q380.8125 346.91876 381.01562 347.15314Q381.23438 347.3875 381.23438 347.7469Q381.23438 348.075 381.01562 348.3094Q380.8125 348.52814 380.39062 348.52814Q379.96875 348.52814 379.76562 348.3094Q379.5625 348.075 379.5625 347.7469ZM387.84375 348.45L386.48438 348.45L386.48438 339.41876L383.75 340.41876L383.75 339.1844L387.625 337.73126L387.84375 337.73126L387.84375 348.45ZM393.35938 342.46564L394.375 342.46564Q395.32812 342.45 395.875 341.96564Q396.4375 341.46564 396.4375 340.6219Q396.4375 338.7469 394.5625 338.7469Q393.6875 338.7469 393.15625 339.2625Q392.64062 339.7625 392.64062 340.59064L391.28125 340.59064Q391.28125 339.3094 392.20312 338.48126Q393.14062 337.6375 394.5625 337.6375Q396.07812 337.6375 396.92188 338.4344Q397.78125 339.23126 397.78125 340.65314Q397.78125 341.35626 397.32812 342.0125Q396.89062 342.65314 396.10938 342.98126Q396.98438 343.2625 397.46875 343.90314Q397.95312 344.54376 397.95312 345.48126Q397.95312 346.91876 397.01562 347.7625Q396.07812 348.59064 394.57812 348.59064Q393.07812 348.59064 392.125 347.77814Q391.1875 346.96564 391.1875 345.6375L392.54688 345.6375Q392.54688 346.48126 393.09375 346.9969Q393.65625 347.4969 394.57812 347.4969Q395.54688 347.4969 396.0625 346.98126Q396.59375 346.46564 396.59375 345.5125Q396.59375 344.575 396.01562 344.075Q395.45312 343.575 394.375 343.5594L393.35938 343.5594L393.35938 342.46564Z" fill-rule="nonzero"/><path fill="#000000" d="M456.3041 327.66876L451.83536 327.66876L450.83536 330.45L449.38223 330.45L453.46036 319.77814L454.69473 319.77814L458.77286 330.45L457.31973 330.45L456.3041 327.66876ZM452.25723 326.5125L455.88223 326.5125L454.06973 321.52814L452.25723 326.5125ZM462.22598 319.77814L465.72598 328.48126L469.21036 319.77814L471.02286 319.77814L471.02286 330.45L469.6166 330.45L469.6166 326.29376L469.75723 321.8094L466.25723 330.45L465.1791 330.45L461.6791 321.84064L461.81973 326.29376L461.81973 330.45L460.41348 330.45L460.41348 319.77814L462.22598 319.77814ZM481.5541 325.46564Q481.5541 327.0125 481.06973 328.1375Q480.58536 329.2469 479.69473 329.8719L481.60098 331.3719L480.63223 332.2469L478.39786 330.46564Q477.8666 330.59064 477.27286 330.59064Q476.02286 330.59064 475.03848 329.98126Q474.06973 329.35626 473.52286 328.21564Q472.9916 327.0594 472.97598 325.5594L472.97598 324.79376Q472.97598 323.2469 473.50723 322.075Q474.0541 320.8875 475.02286 320.2625Q476.00723 319.6375 477.25723 319.6375Q478.5541 319.6375 479.52286 320.2625Q480.50723 320.8875 481.02286 322.0594Q481.5541 323.21564 481.5541 324.77814L481.5541 325.46564ZM480.14786 324.77814Q480.14786 322.8875 479.39786 321.8719Q478.64786 320.84064 477.25723 320.84064Q475.9291 320.84064 475.16348 321.85626Q474.41348 322.8719 474.38223 324.6844L474.38223 325.46564Q474.38223 327.29376 475.14786 328.35626Q475.91348 329.40314 477.27286 329.40314Q478.63223 329.40314 479.38223 328.41876Q480.13223 327.41876 480.14786 325.5594L480.14786 324.77814ZM484.81973 326.27814L484.81973 330.45L483.41348 330.45L483.41348 319.77814L487.35098 319.77814Q489.10098 319.77814 490.08536 320.6844Q491.08536 321.575 491.08536 323.04376Q491.08536 324.59064 490.1166 325.4344Q489.14786 326.27814 487.33536 326.27814L484.81973 326.27814ZM484.81973 325.1219L487.35098 325.1219Q488.47598 325.1219 489.06973 324.59064Q489.6791 324.0594 489.6791 323.0594Q489.6791 322.10626 489.06973 321.54376Q488.47598 320.96564 487.4291 320.95L484.81973 320.95L484.81973 325.1219ZM502.75723 325.90314Q502.75723 328.27814 501.94473 329.4344Q501.13223 330.59064 499.39786 330.59064Q497.69473 330.59064 496.8666 329.46564Q496.0541 328.34064 496.02286 326.09064L496.02286 324.27814Q496.02286 321.91876 496.83536 320.77814Q497.64786 319.6375 499.38223 319.6375Q501.10098 319.6375 501.91348 320.7469Q502.72598 321.84064 502.75723 324.1375L502.75723 325.90314ZM501.39786 324.04376Q501.39786 322.325 500.91348 321.54376Q500.4291 320.7469 499.38223 320.7469Q498.35098 320.7469 497.8666 321.54376Q497.39786 322.325 497.38223 323.95L497.38223 326.10626Q497.38223 327.84064 497.88223 328.66876Q498.38223 329.4969 499.39786 329.4969Q500.39786 329.4969 500.88223 328.71564Q501.38223 327.9344 501.39786 326.2625L501.39786 324.04376ZM504.2416 329.7469Q504.2416 329.3875 504.44473 329.15314Q504.64786 328.91876 505.06973 328.91876Q505.4916 328.91876 505.69473 329.15314Q505.91348 329.3875 505.91348 329.7469Q505.91348 330.075 505.69473 330.3094Q505.4916 330.52814 505.06973 330.52814Q504.64786 330.52814 504.44473 330.3094Q504.2416 330.075 504.2416 329.7469ZM513.2572 325.7625Q512.8353 326.2625 512.2416 326.575Q511.64786 326.8875 510.94473 326.8875Q510.02286 326.8875 509.33536 326.4344Q508.66348 325.98126 508.28848 325.15314Q507.91348 324.325 507.91348 323.325Q507.91348 322.2625 508.31973 321.40314Q508.72598 320.54376 509.47598 320.09064Q510.22598 319.6375 511.21036 319.6375Q512.8041 319.6375 513.7103 320.825Q514.6166 322.0125 514.6166 324.04376L514.6166 324.45Q514.6166 327.5594 513.3822 328.9969Q512.16345 330.41876 509.6791 330.45L509.41348 330.45L509.41348 329.3094L509.69473 329.3094Q511.38223 329.27814 512.2728 328.4344Q513.1791 327.59064 513.2572 325.7625ZM511.16348 325.7625Q511.85098 325.7625 512.4291 325.35626Q513.0072 324.9344 513.2728 324.3094L513.2728 323.7625Q513.2728 322.4344 512.6791 321.60626Q512.10095 320.7625 511.22598 320.7625Q510.33536 320.7625 509.78848 321.45Q509.2416 322.1375 509.2416 323.2625Q509.2416 324.35626 509.75723 325.0594Q510.28848 325.7625 511.16348 325.7625ZM516.2416 329.7469Q516.2416 329.3875 516.4447 329.15314Q516.6478 328.91876 517.0697 328.91876Q517.4916 328.91876 517.6947 329.15314Q517.91345 329.3875 517.91345 329.7469Q517.91345 330.075 517.6947 330.3094Q517.4916 330.52814 517.0697 330.52814Q516.6478 330.52814 516.4447 330.3094Q516.2416 330.075 516.2416 329.7469ZM524.5228 330.45L523.16345 330.45L523.16345 321.41876L520.4291 322.41876L520.4291 321.1844L524.3041 319.73126L524.5228 319.73126L524.5228 330.45Z" fill-rule="nonzero"/><path fill="#000000" d="M448.83536 344.1375L446.31973 344.1375L446.31973 348.45L444.91348 348.45L444.91348 337.77814L448.44473 337.77814Q450.2416 337.77814 451.21036 338.60626Q452.1791 339.41876 452.1791 340.9969Q452.1791 341.9969 451.63223 342.73126Q451.10098 343.46564 450.14786 343.84064L452.64786 348.35626L452.64786 348.45L451.14786 348.45L448.83536 344.1375ZM446.31973 342.98126L448.4916 342.98126Q449.53848 342.98126 450.14786 342.45Q450.77286 341.90314 450.77286 340.9969Q450.77286 340.0125 450.1791 339.48126Q449.58536 338.95 448.47598 338.95L446.31973 338.95L446.31973 342.98126ZM458.60098 348.45Q458.47598 348.21564 458.41348 347.6219Q457.46036 348.59064 456.14786 348.59064Q454.97598 348.59064 454.22598 347.9344Q453.47598 347.27814 453.47598 346.2469Q453.47598 345.0125 454.41348 344.325Q455.3666 343.6375 457.06973 343.6375L458.38223 343.6375L458.38223 343.02814Q458.38223 342.3094 457.96036 341.8875Q457.53848 341.46564 456.71036 341.46564Q455.97598 341.46564 455.4916 341.84064Q455.00723 342.2 455.00723 342.71564L453.63223 342.71564Q453.63223 342.1219 454.0541 341.575Q454.47598 341.02814 455.19473 340.7Q455.9291 340.3719 456.78848 340.3719Q458.16348 340.3719 458.9291 341.0594Q459.71036 341.7469 459.7416 342.95L459.7416 346.59064Q459.7416 347.6844 460.02286 348.325L460.02286 348.45L458.60098 348.45ZM456.35098 347.41876Q456.9916 347.41876 457.5541 347.09064Q458.13223 346.7625 458.38223 346.23126L458.38223 344.60626L457.31973 344.60626Q454.83536 344.60626 454.83536 346.0594Q454.83536 346.7 455.25723 347.0594Q455.6791 347.41876 456.35098 347.41876ZM468.41348 344.575Q468.41348 346.3875 467.56973 347.4969Q466.7416 348.59064 465.33536 348.59064Q463.83536 348.59064 463.02286 347.52814L462.94473 348.45L461.71036 348.45L461.71036 337.2L463.0541 337.2L463.0541 341.40314Q463.88223 340.3719 465.31973 340.3719Q466.77286 340.3719 467.58536 341.46564Q468.41348 342.5594 468.41348 344.46564L468.41348 344.575ZM467.0541 344.41876Q467.0541 343.04376 466.52286 342.29376Q465.9916 341.52814 464.9916 341.52814Q463.64786 341.52814 463.0541 342.77814L463.0541 346.2Q463.6791 347.45 465.00723 347.45Q465.97598 347.45 466.50723 346.7Q467.0541 345.9344 467.0541 344.41876ZM476.41348 344.575Q476.41348 346.3875 475.56973 347.4969Q474.7416 348.59064 473.33536 348.59064Q471.83536 348.59064 471.02286 347.52814L470.94473 348.45L469.71036 348.45L469.71036 337.2L471.0541 337.2L471.0541 341.40314Q471.88223 340.3719 473.31973 340.3719Q474.77286 340.3719 475.58536 341.46564Q476.41348 342.5594 476.41348 344.46564L476.41348 344.575ZM475.0541 344.41876Q475.0541 343.04376 474.52286 342.29376Q473.9916 341.52814 472.9916 341.52814Q471.64786 341.52814 471.0541 342.77814L471.0541 346.2Q471.6791 347.45 473.00723 347.45Q473.97598 347.45 474.50723 346.7Q475.0541 345.9344 475.0541 344.41876ZM479.1791 348.45L477.81973 348.45L477.81973 340.52814L479.1791 340.52814L479.1791 348.45ZM477.71036 338.41876Q477.71036 338.09064 477.91348 337.8719Q478.1166 337.6375 478.50723 337.6375Q478.91348 337.6375 479.1166 337.8719Q479.31973 338.09064 479.31973 338.41876Q479.31973 338.7469 479.1166 338.96564Q478.91348 339.1844 478.50723 339.1844Q478.1166 339.1844 477.91348 338.96564Q477.71036 338.7469 477.71036 338.41876ZM483.53848 338.60626L483.53848 340.52814L485.02286 340.52814L485.02286 341.575L483.53848 341.575L483.53848 346.48126Q483.53848 346.96564 483.7416 347.2Q483.94473 347.4344 484.41348 347.4344Q484.64786 347.4344 485.0541 347.35626L485.0541 348.45Q484.52286 348.59064 484.02286 348.59064Q483.1166 348.59064 482.64786 348.04376Q482.19473 347.4969 482.19473 346.48126L482.19473 341.575L480.7416 341.575L480.7416 340.52814L482.19473 340.52814L482.19473 338.60626L483.53848 338.60626ZM488.72598 337.77814L492.22598 346.48126L495.71036 337.77814L497.52286 337.77814L497.52286 348.45L496.1166 348.45L496.1166 344.29376L496.25723 339.8094L492.75723 348.45L491.6791 348.45L488.1791 339.84064L488.31973 344.29376L488.31973 348.45L486.91348 348.45L486.91348 337.77814L488.72598 337.77814ZM508.0541 343.46564Q508.0541 345.0125 507.56973 346.1375Q507.08536 347.2469 506.19473 347.8719L508.10098 349.3719L507.13223 350.2469L504.89786 348.46564Q504.3666 348.59064 503.77286 348.59064Q502.52286 348.59064 501.53848 347.98126Q500.56973 347.35626 500.02286 346.21564Q499.4916 345.0594 499.47598 343.5594L499.47598 342.79376Q499.47598 341.2469 500.00723 340.075Q500.5541 338.8875 501.52286 338.2625Q502.50723 337.6375 503.75723 337.6375Q505.0541 337.6375 506.02286 338.2625Q507.00723 338.8875 507.52286 340.0594Q508.0541 341.21564 508.0541 342.77814L508.0541 343.46564ZM506.64786 342.77814Q506.64786 340.8875 505.89786 339.8719Q505.14786 338.84064 503.75723 338.84064Q502.4291 338.84064 501.66348 339.85626Q500.91348 340.8719 500.88223 342.6844L500.88223 343.46564Q500.88223 345.29376 501.64786 346.35626Q502.41348 347.40314 503.77286 347.40314Q505.13223 347.40314 505.88223 346.41876Q506.63223 345.41876 506.64786 343.5594L506.64786 342.77814ZM519.28845 344.8719L520.7728 344.8719L520.7728 345.98126L519.28845 345.98126L519.28845 348.45L517.9291 348.45L517.9291 345.98126L513.0697 345.98126L513.0697 345.16876L517.8353 337.77814L519.28845 337.77814L519.28845 344.8719ZM514.60095 344.8719L517.9291 344.8719L517.9291 339.6375L517.7572 339.9344L514.60095 344.8719ZM521.7416 347.7469Q521.7416 347.3875 521.9447 347.15314Q522.1478 346.91876 522.5697 346.91876Q522.9916 346.91876 523.1947 347.15314Q523.41345 347.3875 523.41345 347.7469Q523.41345 348.075 523.1947 348.3094Q522.9916 348.52814 522.5697 348.52814Q522.1478 348.52814 521.9447 348.3094Q521.7416 348.075 521.7416 347.7469ZM532.2572 343.90314Q532.2572 346.27814 531.4447 347.4344Q530.6322 348.59064 528.8978 348.59064Q527.1947 348.59064 526.3666 347.46564Q525.5541 346.34064 525.5228 344.09064L525.5228 342.27814Q525.5228 339.91876 526.3353 338.77814Q527.1478 337.6375 528.8822 337.6375Q530.60095 337.6375 531.41345 338.7469Q532.22595 339.84064 532.2572 342.1375L532.2572 343.90314ZM530.8978 342.04376Q530.8978 340.325 530.41345 339.54376Q529.9291 338.7469 528.8822 338.7469Q527.85095 338.7469 527.3666 339.54376Q526.8978 340.325 526.8822 341.95L526.8822 344.10626Q526.8822 345.84064 527.3822 346.66876Q527.8822 347.4969 528.8978 347.4969Q529.8978 347.4969 530.3822 346.71564Q530.8822 345.9344 530.8978 344.2625L530.8978 342.04376Z" fill-rule="nonzero"/></svg>