<svg id="Layer_1" data-name="Layer 1" xmlns="http://www.w3.org/2000/svg" xmlns:xlink="http://www.w3.org/1999/xlink" viewBox="0 0 984 305"><defs><style>.cls-1,.cls-2,.cls-22,.cls-3,.cls-58,.cls-59,.cls-6,.cls-60,.cls-8{fill:none;}.cls-2{clip-rule:evenodd;}.cls-3,.cls-42{fill-rule:evenodd;}.cls-4{clip-path:url(#clip-path);}.cls-15,.cls-42,.cls-5,.cls-61,.cls-7{fill:#fff;}.cls-5,.cls-6,.cls-8{stroke:#866e8b;}.cls-5,.cls-59,.cls-6,.cls-60,.cls-61{stroke-linecap:round;}.cls-5,.cls-6,.cls-60,.cls-61{stroke-linejoin:round;}.cls-42,.cls-5,.cls-58,.cls-59,.cls-6,.cls-60,.cls-61,.cls-7,.cls-8{stroke-width:3px;}.cls-22,.cls-42,.cls-58,.cls-59,.cls-60,.cls-61,.cls-7{stroke:#ef6924;}.cls-22,.cls-42,.cls-58,.cls-59,.cls-7,.cls-8{stroke-miterlimit:10;}.cls-9{fill:#866e8b;}.cls-10{isolation:isolate;}.cls-11{clip-path:url(#clip-path-2);}.cls-12{clip-path:url(#clip-path-3);}.cls-13{clip-path:url(#clip-path-4);}.cls-14{clip-path:url(#clip-path-5);}.cls-16{clip-path:url(#clip-path-6);}.cls-17{clip-path:url(#clip-path-7);}.cls-18{clip-path:url(#clip-path-8);}.cls-19{clip-path:url(#clip-path-9);}.cls-20{clip-path:url(#clip-path-10);}.cls-21{clip-path:url(#clip-path-12);}.cls-22{stroke-width:6px;}.cls-23{clip-path:url(#clip-path-14);}.cls-24{clip-path:url(#clip-path-15);}.cls-25{clip-path:url(#clip-path-16);}.cls-26{clip-path:url(#clip-path-18);}.cls-27{clip-path:url(#clip-path-20);}.cls-28{clip-path:url(#clip-path-22);}.cls-29{clip-path:url(#clip-path-24);}.cls-30{clip-path:url(#clip-path-26);}.cls-31{clip-path:url(#clip-path-28);}.cls-32{clip-path:url(#clip-path-30);}.cls-33{clip-path:url(#clip-path-32);}.cls-34{clip-path:url(#clip-path-33);}.cls-35{clip-path:url(#clip-path-34);}.cls-36{clip-path:url(#clip-path-36);}.cls-37{clip-path:url(#clip-path-38);}.cls-38{clip-path:url(#clip-path-40);}.cls-39{clip-path:url(#clip-path-42);}.cls-40{clip-path:url(#clip-path-44);}.cls-41{clip-path:url(#clip-path-45);}.cls-43{clip-path:url(#clip-path-47);}.cls-44{clip-path:url(#clip-path-48);}.cls-45{clip-path:url(#clip-path-49);}.cls-46{clip-path:url(#clip-path-51);}.cls-47{clip-path:url(#clip-path-53);}.cls-48{clip-path:url(#clip-path-54);}.cls-49{clip-path:url(#clip-path-55);}.cls-50{clip-path:url(#clip-path-57);}.cls-51{clip-path:url(#clip-path-59);}.cls-52{clip-path:url(#clip-path-61);}.cls-53{clip-path:url(#clip-path-63);}.cls-54{clip-path:url(#clip-path-71);}.cls-55{clip-path:url(#clip-path-73);}.cls-56{clip-path:url(#clip-path-75);}.cls-57{clip-path:url(#clip-path-77);}.cls-62{clip-path:url(#clip-path-78);}.cls-63{clip-path:url(#clip-path-79);}.cls-64{clip-path:url(#clip-path-80);}.cls-65{clip-path:url(#clip-path-82);}.cls-66{clip-path:url(#clip-path-84);}.cls-67{clip-path:url(#clip-path-86);}.cls-68{clip-path:url(#clip-path-88);}.cls-69{clip-path:url(#clip-path-90);}.cls-70{clip-path:url(#clip-path-91);}.cls-71{clip-path:url(#clip-path-92);}.cls-72{clip-path:url(#clip-path-93);}.cls-73{clip-path:url(#clip-path-94);}.cls-74{clip-path:url(#clip-path-95);}.cls-75{clip-path:url(#clip-path-96);}.cls-76{clip-path:url(#clip-path-97);}.cls-77{clip-path:url(#clip-path-98);}.cls-78{clip-path:url(#clip-path-99);}.cls-79{fill:#ef6924;}</style><clipPath id="clip-path"><rect class="cls-1" x="289.67" y="220.59" width="213.51" height="215.2"/></clipPath><clipPath id="clip-path-2"><rect class="cls-1" x="740.64" y="216.26" width="103" height="39"/></clipPath><clipPath id="clip-path-3"><circle class="cls-1" cx="792.13" cy="235.47" r="8.34" transform="translate(-24.02 365.15) rotate(-25.58)"/></clipPath><clipPath id="clip-path-4"><circle class="cls-1" cx="800.08" cy="222.75" r="8.34" transform="translate(-22.92 334.2) rotate(-23.27)"/></clipPath><clipPath id="clip-path-5"><rect class="cls-1" x="789.64" y="212.26" width="20" height="20"/></clipPath><clipPath id="clip-path-6"><circle class="cls-1" cx="804.05" cy="216.39" r="8.34" transform="translate(156.99 740.44) rotate(-54.07)"/></clipPath><clipPath id="clip-path-7"><rect class="cls-1" x="793.64" y="206.26" width="20" height="20"/></clipPath><clipPath id="clip-path-8"><circle class="cls-1" cx="797.03" cy="200.03" r="8.34" transform="translate(172.83 734.49) rotate(-54.66)"/></clipPath><clipPath id="clip-path-9"><rect class="cls-1" x="529.64" y="-19.74" width="984" height="303"/></clipPath><clipPath id="clip-path-10"><rect class="cls-1" x="745.64" y="180.26" width="103" height="39"/></clipPath><clipPath id="clip-path-12"><rect class="cls-1" x="786.64" y="190.26" width="20" height="20"/></clipPath><clipPath id="clip-path-14"><circle class="cls-1" cx="797.28" cy="202.68" r="8.34" transform="translate(112.78 658.96) rotate(-47.95)"/></clipPath><clipPath id="clip-path-15"><rect class="cls-1" x="874.2" y="-313.61" width="303" height="984" transform="translate(675.63 1158.86) rotate(-80.22)"/></clipPath><clipPath id="clip-path-16"><rect class="cls-1" x="746.71" y="180.92" width="101" height="44" transform="translate(461.79 954.06) rotate(-80.22)"/></clipPath><clipPath id="clip-path-18"><rect class="cls-1" x="787.29" y="192.43" width="20" height="20" transform="translate(462.34 953.73) rotate(-80.22)"/></clipPath><clipPath id="clip-path-20"><path class="cls-2" d="M797.07,203a8.34,8.34,0,1,0-1.48-11.7A8.34,8.34,0,0,0,797.07,203Z"/></clipPath><clipPath id="clip-path-22"><rect class="cls-1" x="751.34" y="174.12" width="101" height="45" transform="translate(471.85 953.4) rotate(-80.22)"/></clipPath><clipPath id="clip-path-24"><rect class="cls-1" x="792.42" y="186.21" width="20" height="20" transform="translate(472.73 953.63) rotate(-80.22)"/></clipPath><clipPath id="clip-path-26"><path class="cls-2" d="M802,196.63a8.34,8.34,0,1,0-1.48-11.7A8.34,8.34,0,0,0,802,196.63Z"/></clipPath><clipPath id="clip-path-28"><rect class="cls-1" x="756.48" y="167.9" width="101" height="45" transform="translate(482.24 953.29) rotate(-80.22)"/></clipPath><clipPath id="clip-path-30"><rect class="cls-1" x="797.55" y="179.99" width="20" height="20" transform="translate(483.12 953.52) rotate(-80.22)"/></clipPath><clipPath id="clip-path-32"><path class="cls-2" d="M810.34,187.86a8.34,8.34,0,1,0-1.48-11.7A8.34,8.34,0,0,0,810.34,187.86Z"/></clipPath><clipPath id="clip-path-33"><rect class="cls-1" x="877.66" y="-316.06" width="303" height="984" transform="translate(680.92 1160.24) rotate(-80.22)"/></clipPath><clipPath id="clip-path-34"><rect class="cls-1" x="764.66" y="158.74" width="102" height="45" transform="translate(498.47 954.24) rotate(-80.22)"/></clipPath><clipPath id="clip-path-36"><rect class="cls-1" x="805.17" y="171.15" width="20" height="20" transform="translate(498.14 953.69) rotate(-80.22)"/></clipPath><clipPath id="clip-path-38"><path class="cls-2" d="M815.24,181.54a8.34,8.34,0,1,0-1.48-11.7A8.34,8.34,0,0,0,815.24,181.54Z"/></clipPath><clipPath id="clip-path-40"><rect class="cls-1" x="769.3" y="152.94" width="102" height="44" transform="matrix(0.17, -0.99, 0.99, 0.17, 508.53, 953.58)"/></clipPath><clipPath id="clip-path-42"><rect class="cls-1" x="810.3" y="164.94" width="20" height="20" transform="translate(508.53 953.58) rotate(-80.22)"/></clipPath><clipPath id="clip-path-44"><path class="cls-2" d="M842,139.89l-12.34,15.92a4.5,4.5,0,0,0,7.12,5.51l12.17-15.7a20.89,20.89,0,1,1-7-5.73Z"/></clipPath><clipPath id="clip-path-45"><rect class="cls-1" x="808.22" y="134.73" width="48" height="48" transform="translate(534.4 951.88) rotate(-80.22)"/></clipPath><clipPath id="clip-path-47"><circle class="cls-1" cx="695.07" cy="254.7" r="8.34" transform="translate(-27.96 95.9) rotate(-7.74)"/></clipPath><clipPath id="clip-path-48"><rect class="cls-1" x="574.87" y="-22.29" width="984" height="303"/></clipPath><clipPath id="clip-path-49"><rect class="cls-1" x="661.87" y="209.71" width="66" height="90"/></clipPath><clipPath id="clip-path-51"><rect class="cls-1" x="685.87" y="244.71" width="19" height="20"/></clipPath><clipPath id="clip-path-53"><circle class="cls-1" cx="739.98" cy="197.94" r="8.34" transform="translate(320.9 839.13) rotate(-71.81)"/></clipPath><clipPath id="clip-path-54"><rect class="cls-1" x="540.64" y="-9.74" width="984" height="303"/></clipPath><clipPath id="clip-path-55"><rect class="cls-1" x="700.64" y="159.26" width="78" height="78"/></clipPath><clipPath id="clip-path-57"><rect class="cls-1" x="730.64" y="189.26" width="18" height="18"/></clipPath><clipPath id="clip-path-59"><circle class="cls-1" cx="739.98" cy="206.28" r="8.34" transform="translate(204.33 756.92) rotate(-61.37)"/></clipPath><clipPath id="clip-path-61"><rect class="cls-1" x="700.64" y="167.26" width="78" height="78"/></clipPath><clipPath id="clip-path-63"><rect class="cls-1" x="730.64" y="197.26" width="18" height="18"/></clipPath><clipPath id="clip-path-71"><circle class="cls-1" cx="739.98" cy="189.6" r="8.34" transform="translate(56.73 531.2) rotate(-40.93)"/></clipPath><clipPath id="clip-path-73"><rect class="cls-1" x="700.64" y="151.26" width="78" height="77"/></clipPath><clipPath id="clip-path-75"><rect class="cls-1" x="730.64" y="180.26" width="18" height="18"/></clipPath><clipPath id="clip-path-77"><path class="cls-1" d="M793.5,252.64c-2-9.42-7.77-8.67-10.83-8.67-12.84,0-23.25,16.16-23.25,36.09V328c0,13.53,7.06,24.5,15.78,24.5h14.93C796.77,352.49,794.43,274.6,793.5,252.64Z"/></clipPath><clipPath id="clip-path-78"><circle class="cls-1" cx="791.33" cy="282.88" r="8.34"/></clipPath><clipPath id="clip-path-79"><rect class="cls-1" x="286.59" y="537.77" width="984" height="303" transform="translate(-128.59 1197.52) rotate(-70.78)"/></clipPath><clipPath id="clip-path-80"><rect class="cls-1" x="758.6" y="237.9" width="66" height="90" transform="translate(263.85 937.23) rotate(-70.78)"/></clipPath><clipPath id="clip-path-82"><rect class="cls-1" x="781.13" y="273.24" width="20" height="19" transform="translate(263.69 936.67) rotate(-70.78)"/></clipPath><clipPath id="clip-path-84"><circle class="cls-1" cx="799.26" cy="283.89" r="8.34"/></clipPath><clipPath id="clip-path-86"><rect class="cls-1" x="766.68" y="238.45" width="65" height="91" transform="translate(267.94 945.09) rotate(-70.78)"/></clipPath><clipPath id="clip-path-88"><rect class="cls-1" x="789.68" y="274.45" width="19" height="19" transform="translate(267.94 945.09) rotate(-70.78)"/></clipPath><clipPath id="clip-path-90"><rect class="cls-1" x="774.89" y="239.2" width="65" height="91" transform="translate(272.74 953.34) rotate(-70.78)"/></clipPath><clipPath id="clip-path-91"><circle class="cls-1" cx="807.2" cy="284.9" r="8.34"/></clipPath><clipPath id="clip-path-92"><path class="cls-2" d="M826.51,295.76a8.34,8.34,0,1,1-.5-16.47"/></clipPath><clipPath id="clip-path-93"><rect class="cls-1" x="288.47" y="538.43" width="984" height="303" transform="translate(-127.95 1199.74) rotate(-70.78)"/></clipPath><clipPath id="clip-path-94"><rect class="cls-1" x="792.4" y="242.63" width="65" height="90" transform="translate(281.72 971.84) rotate(-70.78)"/></clipPath><clipPath id="clip-path-95"><circle class="cls-1" cx="824.96" cy="287.57" r="8.34"/></clipPath><clipPath id="clip-path-96"><rect class="cls-1" x="815.4" y="277.63" width="19" height="20" transform="translate(281.72 971.84) rotate(-70.78)"/></clipPath><clipPath id="clip-path-97"><rect class="cls-1" x="780.2" y="250.75" width="129" height="73" transform="translate(-40.86 395.93) rotate(-25.78)"/></clipPath><clipPath id="clip-path-98"><path class="cls-2" d="M846.25,283.7a4.5,4.5,0,0,0-.35,9l19.86.77a20.89,20.89,0,1,1-19.23-26.77"/></clipPath><clipPath id="clip-path-99"><rect class="cls-1" x="777.34" y="-11.13" width="213.51" height="215.2"/></clipPath></defs><title>pipeline</title><g class="cls-4"><path class="cls-5" d="M718.32,336.38H431.43a17.55,17.55,0,0,0-17.53,17.54v60.55c0,31-12.32,69-45,92.18-19.42,13.76-55.81,21.85-86.83,21.85L310.62,531V432h-9.24a17.56,17.56,0,0,0,17.54-17.54V353.92A112.64,112.64,0,0,1,431.43,241.4H718.32"/><path class="cls-6" d="M288.68,455.76h12.7a41.33,41.33,0,0,0,41.28-41.29V353.92a88.87,88.87,0,0,1,88.77-88.77H718.32"/><path class="cls-6" d="M718.32,288.89H431.43a65,65,0,0,0-65,65v60.55a65,65,0,0,1-65,65h-12.7"/><rect class="cls-5" x="445.48" y="269.2" width="29.38" height="16.48" transform="translate(737.6 -182.72) rotate(90)"/></g><path class="cls-7" d="M845.9,292.69l19.86.77a20.91,20.91,0,0,1-20.85,15"/><polyline class="cls-5" points="496.65 369.82 496.65 -29.88 576.18 -29.88 576.18 369.68"/><rect class="cls-5" x="491.24" y="279.33" width="89.97" height="25.66" transform="translate(1072.45 584.32) rotate(180)"/><rect class="cls-5" x="491.24" y="25.93" width="89.97" height="25.66" transform="translate(1072.45 77.53) rotate(180)"/><polyline class="cls-5" points="556.65 339.82 556.65 -9.88 636.18 -9.88 636.18 339.68"/><rect class="cls-5" x="551.24" y="249.33" width="89.97" height="25.66" transform="translate(1192.45 524.32) rotate(180)"/><rect class="cls-5" x="551.24" y="-4.07" width="89.97" height="25.66" transform="translate(1192.45 17.53) rotate(180)"/><ellipse class="cls-8" cx="596.23" cy="160.24" rx="27.05" ry="17.17"/><ellipse class="cls-8" cx="596.23" cy="160.24" rx="27.05" ry="17.17" transform="matrix(0.5, -0.87, 0.87, 0.5, 159.34, 596.47)"/><ellipse class="cls-8" cx="596.23" cy="160.24" rx="17.17" ry="27.05" transform="translate(-0.24 319.58) rotate(-30)"/><circle class="cls-9" cx="596.53" cy="160.37" r="6.37"/><path class="cls-7" d="M846.53,266.69a20.89,20.89,0,0,1,19.84,17.79l-20.12-.78"/><path class="cls-6" d="M851.63,223.91a15.11,15.11,0,0,0-5.35,10.33h0a15.29,15.29,0,0,0,.53,5.42l8.92-2.83Z"/><polygon class="cls-5" points="862.81 262.28 862.81 262.28 861.66 297.75 847.85 296.57 852.72 261.43 862.81 262.28"/><path class="cls-6" d="M862.65,267.35,852,266.44Z"/><path class="cls-5" d="M851.34,271.46l11.15,1Z"/><path class="cls-6" d="M850.64,276.49l11.68,1Z"/><path class="cls-6" d="M849.94,281.51l12.21,1Z"/><path class="cls-6" d="M849.25,286.53,862,287.62Z"/><path class="cls-6" d="M848.55,291.55l13.27,1.13Z"/><path class="cls-5" d="M862.81,262.28l-10.09-.86h0A30.31,30.31,0,0,0,846,239.69l23.05-7.32-5-15.7A15.13,15.13,0,0,1,874.41,222h0a15.11,15.11,0,0,1,3.52,11.07,14.29,14.29,0,0,1-5,9.73A28.56,28.56,0,0,0,862.81,262.28Z"/><path class="cls-6" d="M861.66,297.75l-13.81-1.18-1.74,12.56a7.6,7.6,0,0,0,15.14,1.29Z"/><polygon class="cls-6" points="864.09 244.32 856.85 246.62 854.11 242.18 863.76 239.11 864.09 244.32"/><circle class="cls-6" cx="818.7" cy="71.64" r="2.85"/><circle class="cls-6" cx="948.13" cy="147.1" r="2.85"/><g class="cls-10"><g class="cls-13"><g class="cls-14"><circle class="cls-15" cx="800.08" cy="222.75" r="8.34" transform="translate(-22.92 334.2) rotate(-23.27)"/></g></g></g><g class="cls-10"><g class="cls-16"><g class="cls-17"><circle class="cls-15" cx="804.05" cy="216.39" r="8.34" transform="translate(156.99 740.44) rotate(-54.07)"/></g></g></g><g class="cls-18"><g class="cls-19"><g class="cls-10"><g class="cls-20"><g class="cls-18"><g class="cls-21"><circle class="cls-15" cx="797.03" cy="200.03" r="8.34" transform="translate(172.83 734.49) rotate(-54.66)"/></g></g><g class="cls-21"><circle class="cls-22" cx="797.03" cy="200.03" r="8.34"/></g></g></g></g></g><g class="cls-23"><g class="cls-24"><g class="cls-10"><g class="cls-25"><g class="cls-23"><g class="cls-26"><circle class="cls-15" cx="797.28" cy="202.68" r="8.34" transform="translate(112.78 658.96) rotate(-47.95)"/></g></g><g class="cls-26"><circle class="cls-22" cx="797.28" cy="202.68" r="8.34"/></g></g></g></g></g><g class="cls-27"><g class="cls-24"><g class="cls-10"><g class="cls-28"><g class="cls-27"><g class="cls-29"><path class="cls-15" d="M797.07,203a8.34,8.34,0,1,0-1.48-11.7A8.34,8.34,0,0,0,797.07,203Z"/></g></g><g class="cls-29"><circle class="cls-22" cx="802.18" cy="196.36" r="8.34" transform="translate(32.11 494.77) rotate(-34.94)"/></g></g></g></g></g><g class="cls-30"><g class="cls-24"><g class="cls-10"><g class="cls-31"><g class="cls-30"><g class="cls-32"><path class="cls-15" d="M802,196.63a8.34,8.34,0,1,0-1.48-11.7A8.34,8.34,0,0,0,802,196.63Z"/></g></g><g class="cls-32"><circle class="cls-22" cx="807.08" cy="190.04" r="8.34" transform="translate(55.94 541.15) rotate(-38.3)"/></g></g></g></g></g><g class="cls-33"><g class="cls-34"><g class="cls-10"><g class="cls-35"><g class="cls-33"><g class="cls-36"><path class="cls-15" d="M810.34,187.86a8.34,8.34,0,1,0-1.48-11.7A8.34,8.34,0,0,0,810.34,187.86Z"/></g></g><g class="cls-36"><circle class="cls-22" cx="815.45" cy="181.27" r="8.34" transform="translate(63.18 544.45) rotate(-38.3)"/></g></g></g></g></g><g class="cls-37"><g class="cls-34"><g class="cls-10"><g class="cls-38"><g class="cls-37"><g class="cls-39"><path class="cls-15" d="M815.24,181.54a8.34,8.34,0,1,0-1.48-11.7A8.34,8.34,0,0,0,815.24,181.54Z"/></g></g><g class="cls-39"><circle class="cls-22" cx="820.35" cy="174.94" r="8.34" transform="translate(226.73 767.56) rotate(-56.99)"/></g></g></g></g></g><g class="cls-10"><g class="cls-40"><g class="cls-41"><path class="cls-15" d="M842,139.89l-12.34,15.92a4.5,4.5,0,0,0,7.12,5.51l12.17-15.7a20.89,20.89,0,1,1-7-5.73Z"/></g></g><g class="cls-41"><path class="cls-7" d="M842,139.89l-12.34,15.92a4.5,4.5,0,0,0,7.12,5.51l12.17-15.7a20.89,20.89,0,1,1-7-5.73Z"/></g></g><path class="cls-42" d="M691,291.37l40.76,64.77c12.52,2.16,32.76-96.09,32.76-96.09.44-2.53,8.07-8.42,8.07-8.42l47.3-51.47a6,6,0,0,0-.39-8.49L804.19,177.8a6,6,0,0,0-8.46.42Z"/><g class="cls-43"><g class="cls-44"><g class="cls-10"><g class="cls-45"><g class="cls-43"><g class="cls-46"><circle class="cls-15" cx="695.07" cy="254.7" r="8.34" transform="translate(-27.96 95.9) rotate(-7.74)"/></g></g><g class="cls-46"><circle class="cls-22" cx="695.07" cy="254.7" r="8.34"/></g></g></g></g></g><g class="cls-47"><g class="cls-48"><g class="cls-10"><g class="cls-49"><g class="cls-47"><g class="cls-50"><circle class="cls-15" cx="739.98" cy="197.94" r="8.34" transform="translate(320.9 839.13) rotate(-71.81)"/></g></g><g class="cls-50"><circle class="cls-22" cx="739.98" cy="197.94" r="8.34"/></g></g></g></g></g><g class="cls-51"><g class="cls-48"><g class="cls-10"><g class="cls-52"><g class="cls-51"><g class="cls-53"><circle class="cls-15" cx="739.98" cy="206.28" r="8.34" transform="translate(204.33 756.92) rotate(-61.37)"/></g></g><g class="cls-53"><circle class="cls-22" cx="739.98" cy="206.28" r="8.34"/></g></g></g></g></g><g class="cls-47"><g class="cls-48"><g class="cls-10"><g class="cls-49"><g class="cls-47"><g class="cls-50"><circle class="cls-15" cx="739.98" cy="197.94" r="8.34" transform="translate(320.9 839.13) rotate(-71.81)"/></g></g><g class="cls-50"><circle class="cls-22" cx="739.98" cy="197.94" r="8.34"/></g></g></g></g></g><g class="cls-54"><g class="cls-48"><g class="cls-10"><g class="cls-55"><g class="cls-54"><g class="cls-56"><circle class="cls-15" cx="739.98" cy="189.6" r="8.34" transform="translate(56.73 531.2) rotate(-40.93)"/></g></g><g class="cls-56"><circle class="cls-22" cx="739.98" cy="189.6" r="8.34"/></g></g></g></g></g><path class="cls-7" d="M793.62,343.79V264.43c0-30.24-21.26-54.76-47.48-54.76s-47.47,24.52-47.47,54.76v79.36c0,11.88,8.34,21.5,18.64,21.5C717.31,365.29,793.62,355.67,793.62,343.79Z"/><g class="cls-57"><g class="cls-10"><line class="cls-58" x1="727.45" y1="353.91" x2="809.44" y2="226.65"/><line class="cls-58" x1="734.54" y1="353.91" x2="816.53" y2="226.65"/><line class="cls-58" x1="741.62" y1="353.91" x2="823.62" y2="226.65"/><line class="cls-58" x1="748.71" y1="353.91" x2="830.7" y2="226.65"/><line class="cls-58" x1="755.8" y1="353.91" x2="837.79" y2="226.65"/><line class="cls-58" x1="762.88" y1="353.91" x2="844.88" y2="226.65"/><line class="cls-58" x1="769.97" y1="353.91" x2="851.97" y2="226.65"/><line class="cls-58" x1="777.06" y1="353.91" x2="859.05" y2="226.65"/><line class="cls-58" x1="670.75" y1="353.91" x2="752.74" y2="226.65"/><line class="cls-58" x1="677.84" y1="353.91" x2="759.83" y2="226.65"/><line class="cls-58" x1="684.92" y1="353.91" x2="766.92" y2="226.65"/><line class="cls-58" x1="692.01" y1="353.91" x2="774.01" y2="226.65"/><line class="cls-58" x1="699.1" y1="353.91" x2="781.09" y2="226.65"/><line class="cls-58" x1="706.19" y1="353.91" x2="788.18" y2="226.65"/><line class="cls-58" x1="713.27" y1="353.91" x2="795.27" y2="226.65"/><line class="cls-58" x1="720.36" y1="353.91" x2="802.36" y2="226.65"/><line class="cls-58" x1="784.15" y1="353.91" x2="866.14" y2="226.65"/><line class="cls-58" x1="791.23" y1="353.91" x2="873.23" y2="226.65"/><line class="cls-58" x1="798.32" y1="353.91" x2="880.32" y2="226.65"/><line class="cls-58" x1="805.41" y1="353.91" x2="887.4" y2="226.65"/></g></g><path class="cls-59" d="M790.5,246.86c-2.47-2.34-4.51-3.09-8.37-2.89-12.84,0-23.25,16.16-23.25,36.09V328c0,13.53,7.06,24.5,15.78,24.5h17.6"/><path class="cls-42" d="M727.9,366.88H706.64a23,23,0,0,1-23-23V264.52c0-.36,0-.71,0-1.06.29-13.32,5.05-25.74,14.94-37.14a56.24,56.24,0,0,1,27.89-16.45c9.21-1.16,17.78.41,24.93,1.58,12,15.54,37.77,113.36-1.21,138.34l-9.3,9.67"/><path class="cls-7" d="M751.55,215l-20.38.89c-2.37.17-4.4-1.12-4.53-2.87l-.65-9.17c-.21-2.84,4.32-4.59,7.17-2.78l20.06,6.9C756.08,209.74,755.38,214.69,751.55,215Z"/><path class="cls-7" d="M708.67,112c-1-.9-20.53-10-22.82-11-11.37-4.89-4.48-2.1-21.18-8.85-27.29-11-40-26.22-36.54-34.81a8,8,0,0,1,1.24-2.06c4.51-5.44,18.68-8,41.6,7.73,19.92,13.66,26,21.18,29.44,24.49,2.78,2.65-.56.9,5,4.62,6.4-4,6.65,11.18,13,12.34"/><rect class="cls-7" x="683.09" y="91.62" width="80.23" height="98.12" rx="21.25" transform="translate(18.5 355.63) rotate(-27.97)"/><path class="cls-58" d="M767.07,172.08c-11.24,6-24.88,2.3-31.11-9.42l-12.18-22.94-11.46-21.59c-6.23-11.73-.75-25.54,10.49-31.51"/><path class="cls-59" d="M752,140.26c6,3.88,10.57,3,15.29,0"/><path class="cls-58" d="M763.17,143.34l2.64,5a3.42,3.42,0,0,0,4.64,1.42l1.13-.6"/><path class="cls-60" d="M746.17,105.11h0a17.46,17.46,0,0,1,17.46,17.46V129a0,0,0,0,1,0,0H728.71a0,0,0,0,1,0,0v-6.42A17.46,17.46,0,0,1,746.17,105.11Z" transform="translate(1460.08 -129.54) rotate(152.03)"/><path class="cls-59" d="M726.66,118.72l-28.51,15.14c-7.82,4.15-8.06,15.47-.26,19.68.36.19.74.38,1.13.56"/><path class="cls-7" d="M669.46,74.75c-16.82,18-7.92,41-2.6,51.14a5.73,5.73,0,0,0,8,2.28c14.88-8.71,65.85-40,65.85-40l3.94-2.5c2.48-1.58,1.24-4.84-1.61-5.54-3.79-.93-9.77,1.11-9.77,1.11s-9.13-11.76-11.72-14C706.78,54.91,682.58,60.71,669.46,74.75Z"/><path class="cls-61" d="M686.19,124c-1.27-.4-7.16-2.18-9.66-2.1-12.37.39-4.95,0-22.93,1-29.4,1.59-47.36-6.78-47.85-16a7.58,7.58,0,0,1,.25-2.39c1.78-6.84,13.52-15.16,41-10.64,23.83,3.93,32.41,8.4,37,9.7,10.41,2.93,17.23,9.38,23.42,7.76"/><circle class="cls-59" cx="746.15" cy="116.72" r="6.31"/><g class="cls-62"><g class="cls-63"><g class="cls-10"><g class="cls-64"><g class="cls-62"><g class="cls-65"><circle class="cls-15" cx="791.33" cy="282.88" r="8.34"/></g></g><g class="cls-65"><circle class="cls-22" cx="791.33" cy="282.88" r="8.34"/></g></g></g></g></g><g class="cls-66"><g class="cls-63"><g class="cls-10"><g class="cls-67"><g class="cls-66"><g class="cls-68"><circle class="cls-15" cx="799.26" cy="283.89" r="8.34"/></g></g><g class="cls-68"><circle class="cls-22" cx="799.26" cy="283.89" r="8.34"/></g></g></g></g></g><g class="cls-10"><path class="cls-58" d="M821.08,293.32a7.21,7.21,0,1,1-.23-11.58"/></g><g class="cls-71"><g class="cls-72"><g class="cls-10"><g class="cls-73"><g class="cls-75"><circle class="cls-22" cx="824.96" cy="287.57" r="8.34"/></g></g></g></g></g><g class="cls-10"><g class="cls-76"><path class="cls-7" d="M846.25,283.7a4.5,4.5,0,0,0-.35,9"/><path class="cls-58" d="M844.91,308.43a20.89,20.89,0,1,1,1.62-41.74"/></g></g><path class="cls-7" d="M806.82,271.92,765.74,266a5.48,5.48,0,0,1-3.28-1.74l-23.34-26a15.09,15.09,0,0,0-21.29-1.12h0a15.09,15.09,0,0,0-1.12,21.29l29.41,32.67a8.7,8.7,0,0,0,.69.67,7.38,7.38,0,0,0,4.62,2.58l51.12,7.32a7.38,7.38,0,0,0,8.36-6.27l2.18-15.2A7.38,7.38,0,0,0,806.82,271.92Z"/><g class="cls-78"><path class="cls-5" d="M1206,88.27H919.11a17.56,17.56,0,0,1-17.54-17.54V10.18c0-31-12.32-69-45-92.17-19.42-13.77-55.81-21.85-86.83-21.85l28.54-2.53v99h-9.25a17.56,17.56,0,0,1,17.54,17.54V70.73A112.65,112.65,0,0,0,919.11,183.25H1206"/><path class="cls-6" d="M776.36-31.1h12.69a41.33,41.33,0,0,1,41.29,41.28V70.73a88.88,88.88,0,0,0,88.77,88.78H1206"/><path class="cls-6" d="M1206,112h-75.92c-17.36,0-154.36-2.92-218.42-4.3a33.89,33.89,0,0,1-33.16-33.54l-.66-64a88.88,88.88,0,0,0-88.78-88.77H776.36"/><path class="cls-6" d="M1206,135.76H919.11a65,65,0,0,1-65-65V10.18a65,65,0,0,0-65-65H776.36"/><rect class="cls-5" x="803.96" y="63.84" width="29.38" height="16.48"/><rect class="cls-5" x="851.34" y="-10.23" width="29.38" height="16.48"/><rect class="cls-5" x="933.15" y="138.97" width="29.38" height="16.48" transform="translate(800.62 1095.05) rotate(-90)"/></g><path class="cls-42" d="M846.53,266.69a20.9,20.9,0,0,1,19.84,17.79l-20.12-.78"/><path class="cls-79" d="M981.5,305H2.5a1.5,1.5,0,0,1,0-3h979a1.5,1.5,0,0,1,0,3Z"/></svg>