<?xml version="1.0" encoding="UTF-8" standalone="no"?>
<!-- Uploaded to: SVG Repo, www.svgrepo.com, Generator: SVG Repo Mixer Tools -->

<svg
   fill="#000000"
   width="740"
   height="740"
   viewBox="0 0 29.6 29.6"
   enable-background="new 0 0 32 32"
   id="Layer_3"
   version="1.1"
   xml:space="preserve"
   sodipodi:docname="announcement.svg"
   inkscape:version="1.3.2 (091e20ef0f, 2023-11-25)"
   xmlns:inkscape="http://www.inkscape.org/namespaces/inkscape"
   xmlns:sodipodi="http://sodipodi.sourceforge.net/DTD/sodipodi-0.dtd"
   xmlns="http://www.w3.org/2000/svg"
   xmlns:svg="http://www.w3.org/2000/svg"><defs
   id="defs4" /><sodipodi:namedview
   id="namedview4"
   pagecolor="#ffffff"
   bordercolor="#666666"
   borderopacity="1.0"
   inkscape:showpageshadow="2"
   inkscape:pageopacity="0.0"
   inkscape:pagecheckerboard="0"
   inkscape:deskcolor="#d1d1d1"
   inkscape:zoom="1.029672"
   inkscape:cx="228.22803"
   inkscape:cy="413.23841"
   inkscape:window-width="1916"
   inkscape:window-height="1029"
   inkscape:window-x="0"
   inkscape:window-y="0"
   inkscape:window-maximized="0"
   inkscape:current-layer="Layer_3" />

<g
   id="g4"
   transform="translate(-1.2,-1.1996259)">

<path
   d="m 5.063,19.369 0.521,4.602 c 0.007,0.067 0.021,0.133 0.042,0.197 0.412,1.266 1.591,2.072 2.855,2.072 0.308,0 0.619,-0.048 0.927,-0.148 1.572,-0.512 2.436,-2.208 1.924,-3.781 l -0.83,-2.551 h 0.261 l 7.789,3.895 c 0.142,0.07 0.294,0.105 0.447,0.105 0.183,0 0.365,-0.05 0.525,-0.149 C 19.82,23.429 20,23.107 20,22.76 v -4.142 c 1.721,-0.447 3,-2 3,-3.858 0,-1.858 -1.279,-3.411 -3,-3.858 V 6.76 C 20,6.413 19.82,6.092 19.525,5.909 19.23,5.726 18.862,5.71 18.552,5.865 L 10.764,9.76 H 7 c -2.757,0 -5,2.243 -5,5 0,2.071 1.265,3.851 3.063,4.609 z M 9.43,22.93 C 9.601,23.454 9.314,24.019 8.789,24.19 8.29,24.353 7.757,24.101 7.558,23.628 L 7.119,19.76 H 8.398 Z M 21,14.76 c 0,0.737 -0.405,1.375 -1,1.722 v -3.443 c 0.595,0.346 1,0.984 1,1.721 z m -3,6.382 -6,-3 v -6.764 l 6,-3 z M 7,11.76 h 3 v 6 H 7 c -1.654,0 -3,-1.346 -3,-3 0,-1.654 1.346,-3 3,-3 z"
   id="path1" />

<path
   d="m 27,15.76 h 2 c 0.553,0 1,-0.448 1,-1 0,-0.552 -0.447,-1 -1,-1 h -2 c -0.553,0 -1,0.448 -1,1 0,0.552 0.447,1 1,1 z"
   id="path2" />

<path
   d="m 27,10.467 c 0.256,0 0.512,-0.098 0.707,-0.293 L 29.121,8.76 c 0.391,-0.391 0.391,-1.023 0,-1.414 -0.391,-0.391 -1.023,-0.391 -1.414,0 L 26.293,8.76 c -0.391,0.391 -0.391,1.023 0,1.414 0.195,0.196 0.451,0.293 0.707,0.293 z"
   id="path3" />

<path
   d="m 27.707,22.174 c 0.195,0.195 0.451,0.293 0.707,0.293 0.256,0 0.512,-0.098 0.707,-0.293 0.391,-0.391 0.391,-1.023 0,-1.414 l -1.414,-1.414 c -0.391,-0.391 -1.023,-0.391 -1.414,0 -0.391,0.391 -0.391,1.023 0,1.414 z"
   id="path4" />

</g>

</svg>
