<?xml version="1.0" encoding="UTF-8" standalone="no"?>
<svg width="84px" height="80px" viewBox="0 0 84 80" version="1.1" xmlns="http://www.w3.org/2000/svg" xmlns:xlink="http://www.w3.org/1999/xlink">
    <!-- Generator: Sketch 42 (36781) - https://www.bohemiancoding.com/sketch -->
    <title>clouds</title>
    <desc>Created with Sketch.</desc>
    <defs></defs>
    <g id="Page-1" stroke="none" stroke-width="1" fill="none" fill-rule="evenodd" stroke-linejoin="round">
        <g id="clouds" stroke="#866E8B" stroke-width="3">
            <g id="Page-1" transform="translate(2.000000, 5.000000)">
                <path d="M69.7279363,50.8148207 C68.5218805,50.8148207 67.3728765,51.063745 66.3252271,51.5128287 L66.3057849,51.3464542 C68.31949,49.1969721 69.5606056,46.2768127 69.5606056,43.0570518 C69.5606056,36.4552988 64.3542311,31.1035857 57.9319203,31.1035857 C54.1072191,31.1035857 50.7143904,33.0022311 48.5948685,35.9319522 C48.8727968,34.6873307 49.02451,33.392988 49.02451,32.0616733 C49.02451,22.5403984 41.5156653,14.8215139 32.2528765,14.8215139 C22.9897689,14.8215139 15.4809243,22.5403984 15.4809243,32.0616733 C15.4809243,33.1105976 15.5771793,34.1356175 15.7515219,35.1329084 L15.7515219,35.1351394 C7.06243825,35.6129084 0.15949004,43.0057371 0.15949004,52.0568924 C0.15949004,61.4165737 7.54084462,69.0038247 16.6461833,69.0038247 C17.1663426,69.0038247 17.6801275,68.9760956 18.1881753,68.9276494 L68.3714422,68.9276494 L68.3679363,68.8967331 C68.8112829,68.9671713 69.2654661,69.0038247 69.7279363,69.0038247 C74.6143108,69.0038247 78.5754263,64.9321116 78.5754263,59.9093227 C78.5754263,54.8865339 74.6143108,50.8148207 69.7279363,50.8148207 Z" id="Stroke-1"></path>
                <path d="M16.7394104,43.7236016 C6.69287649,43.7236016 4.78881275,60.902247 16.9535936,60.902247" id="Stroke-3" stroke-linecap="round"></path>
                <path d="M32.2526534,14.8216096 C41.5154422,14.8216096 49.0246056,22.5401753 49.0246056,32.0617689 C49.0246056,33.3930837 48.8728924,34.6871076 48.5949641,35.9317291 C50.7141673,33.002008 54.106996,31.1036813 57.9316972,31.1036813 C63.8462789,31.1036813 68.7259602,35.6436016 69.461259,41.5177052 L72.0407012,41.5177052 L72.0381514,41.4941195 C72.3769562,41.5479841 72.7240478,41.5760319 73.0778327,41.5760319 C76.8126534,41.5760319 79.8405418,38.4636813 79.8405418,34.6243187 C79.8405418,30.7849562 76.8126534,27.6722869 73.0778327,27.6722869 C72.155761,27.6722869 71.2776733,27.8625657 70.4767171,28.2058327 L70.4617371,28.0786614 C72.0011793,26.4356335 72.9497052,24.2036016 72.9497052,21.7424064 C72.9497052,16.6960319 68.9697849,12.6051952 64.0607809,12.6051952 C61.1371155,12.6051952 58.5436494,14.0563506 56.9235697,16.2960319 C57.1361594,15.3446375 57.2521753,14.3553147 57.2521753,13.3376255 C57.2521753,6.05953785 51.512255,0.159298805 44.4317769,0.159298805 C37.3512988,0.159298805 31.6116972,6.05953785 31.6116972,13.3376255 C31.6116972,13.8450359 31.6438884,14.3441594 31.6993466,14.8359522 C31.8835697,14.8298964 32.0671554,14.8216096 32.2526534,14.8216096 Z" id="Stroke-5"></path>
            </g>
        </g>
    </g>
</svg>