<?xml version="1.0" encoding="UTF-8" standalone="no"?>
<svg width="88px" height="111px" viewBox="0 0 88 111" version="1.1" xmlns="http://www.w3.org/2000/svg" xmlns:xlink="http://www.w3.org/1999/xlink">
    <!-- Generator: Sketch 42 (36781) - https://www.bohemiancoding.com/sketch -->
    <title>Commercial Distribution Commercial Distribution Commercial Distribution Commercial Distribution Commercial Distribution commercial_distribution_iphone</title>
    <desc>Created with Sketch.</desc>
    <defs>
        <path d="M15.3017987,0.0148387935 L19.1070595,0.0148387935 C20.0724141,0.0148387935 20.8623341,0.793875453 20.8623341,1.76396158 L20.8623341,13.1355782 C20.8623341,14.033789 21.5241589,14.7975231 22.3939063,14.900931 L33.2671408,14.900931 C34.2403853,14.900931 35.0224154,15.6799676 35.0303053,16.6500537 L35.0303053,34.9472136 C35.0303053,35.9098803 34.2482752,36.6968001 33.2750307,36.6968001 L19.1070595,36.6968001 L15.3017987,36.6968001 L5.7763478,36.6968001 L1.97108703,36.6968001 C1.00573242,36.6968001 0.216276561,35.9177634 0.216276561,34.9472136 L0.216276561,1.76396158 C0.216276561,0.801758562 0.997842502,0.0148387935 1.97108703,0.0148387935 L5.7763478,0.0148387935 C6.74170241,0.0148387935 7.53162238,0.793875453 7.53162238,1.76396158 L7.53162238,13.2547523 C7.58778003,14.0973176 8.23382504,14.7975231 9.07154863,14.900931 L11.9193447,14.900931 C12.7807381,14.8211724 13.4991847,14.1214306 13.5465242,13.2547523 L13.5465242,1.76396158 C13.5465242,0.801758562 14.3285542,0.0148387935 15.3017987,0.0148387935 Z M20.9421615,27.4489857 C20.9421615,28.410725 21.7237274,29.1981085 22.696972,29.1981085 L26.5022327,29.1981085 C27.4671232,29.1981085 28.2570432,28.4190719 28.2570432,27.4489857 L28.2570432,23.8705179 C28.2570432,22.9083149 27.4754773,22.1213951 26.5022327,22.1213951 L22.696972,22.1213951 C21.7316174,22.1213951 20.9421615,22.9004318 20.9421615,23.8705179 L20.9421615,27.4489857 Z" id="path-1"></path>
    </defs>
    <g id="Page-1" stroke="none" stroke-width="1" fill="none" fill-rule="evenodd">
        <g id="Commercial-Distribution-Commercial-Distribution-Commercial-Distribution-Commercial-Distribution-Commercial-Distribution-commercial_distribution_iphone">
            <g id="Group" transform="translate(2.000000, 1.000000)">
                <path d="M67.054082,36.6448681 L80.3550905,36.6448681 C82.6510565,36.6448681 84.5126129,38.5043544 84.5126129,40.7983391 L80.3518417,86.0877281 C80.3518417,98.2383814 70.4931578,108.088558 58.3320103,108.088558 L26.2998737,108.088558 C14.1387262,108.088558 4.28004227,98.2383814 4.28004227,86.0877281 L0.119735208,40.7983391 C0.119735208,38.5043544 1.9808275,36.6448681 4.27679348,36.6448681 L16.5386534,36.6448681" id="Stroke-17" stroke="#866E8B" stroke-width="3" stroke-linecap="round" stroke-linejoin="round"></path>
                <path d="M59.9844375,42.3699528 L59.9844375,18.3728414 L59.9793323,18.3728414 C59.9797964,18.3032846 59.9844375,18.2351189 59.9844375,18.1650983 C59.9844375,8.41554728 52.0740991,0.512034879 42.3161276,0.512034879 C32.5581562,0.512034879 24.6473537,8.41554728 24.6473537,18.1650983 C24.6473537,18.2351189 24.6519948,18.3032846 24.652923,18.3728414 L24.6473537,18.3728414 L24.6473537,42.3699528" id="Stroke-19" stroke="#866E8B" stroke-width="3" stroke-linecap="round" stroke-linejoin="round"></path>
                <path d="M30.6221097,48.2431473 C30.6221097,51.4404436 28.0281833,54.0321316 24.8281256,54.0321316 C21.628532,54.0321316 19.0346056,51.4404436 19.0346056,48.2431473 C19.0346056,45.045851 21.628532,42.454163 24.8281256,42.454163 C28.0281833,42.454163 30.6221097,45.045851 30.6221097,48.2431473 Z" id="Stroke-21" stroke="#866E8B" stroke-width="3" stroke-linecap="round" stroke-linejoin="round"></path>
                <path d="M65.9873188,48.2431473 C65.9873188,51.4404436 63.3933924,54.0321316 60.1933347,54.0321316 C56.9937411,54.0321316 54.3998147,51.4404436 54.3998147,48.2431473 C54.3998147,45.045851 56.9937411,42.454163 60.1933347,42.454163 C63.3933924,42.454163 65.9873188,45.045851 65.9873188,48.2431473 Z" id="Stroke-23" stroke="#866E8B" stroke-width="3" stroke-linecap="round" stroke-linejoin="round"></path>
                <g id="Group-28" transform="translate(24.687592, 62.485050)">
                    <mask id="mask-2" fill="white">
                        <use xlink:href="#path-1"></use>
                    </mask>
                    <g id="Clip-27"></g>
                    <polygon id="Fill-26" fill="#FF6600" mask="url(#mask-2)" points="-0.75650385 37.6687411 36.0030857 37.6687411 36.0030857 -0.957102182 -0.75650385 -0.957102182"></polygon>
                </g>
            </g>
        </g>
    </g>
</svg>