<?xml version="1.0" encoding="UTF-8" standalone="no"?>
<svg width="84px" height="80px" viewBox="0 0 84 80" version="1.1" xmlns="http://www.w3.org/2000/svg" xmlns:xlink="http://www.w3.org/1999/xlink">
    <!-- Generator: Sketch 42 (36781) - https://www.bohemiancoding.com/sketch -->
    <title>gauge</title>
    <desc>Created with Sketch.</desc>
    <defs></defs>
    <g id="Page-1" stroke="none" stroke-width="1" fill="none" fill-rule="evenodd">
        <g id="gauge">
            <g id="Page-1" transform="translate(2.000000, 5.000000)">
                <path d="M7.21517131,41.1155378 L14.0766853,41.1155378" id="Stroke-3" stroke="#866E8B" stroke-width="3" stroke-linecap="round" stroke-linejoin="round"></path>
                <path d="M31.7077291,22.9818645 C30.4305976,22.9818645 29.1980876,23.5794741 28.4108367,24.5805896 C27.6216733,25.5839363 27.3440637,26.8798725 27.6487649,28.1359681 C27.6532271,28.1544542 27.6576892,28.1729402 27.6627888,28.1914263 L31.8658167,44.3549323 C29.3746614,47.4854502 28.6173705,51.762741 30.0172112,55.6215458 C30.1851793,56.0840159 30.3885259,56.5391554 30.6578486,57.0542151 C31.2624701,58.2111873 32.4596016,58.9366056 33.7650996,58.9366056 L48.0337849,58.9366056 C49.3376892,58.9366056 50.5338645,58.2127809 51.1391235,57.0577211 C52.6635857,54.1490359 52.8981673,50.717004 51.7832669,47.6419442 C50.329243,43.6349323 46.7984064,40.7785179 42.6897211,40.1276813 L35.4253386,25.3069641 C35.4170518,25.2907092 35.4090837,25.2744542 35.4007968,25.2581992 C34.685259,23.8542151 33.2701195,22.9818645 31.7077291,22.9818645 M31.7077291,26.4878406 C31.9273307,26.4878406 32.1478884,26.5971633 32.2769721,26.8499124 L40.4411155,43.5058486 C40.5944223,43.4969243 40.7470916,43.4927809 40.899761,43.4927809 C44.194741,43.4927809 47.2898805,45.5370837 48.4873307,48.8371633 C49.3039044,51.0889562 49.0639044,53.4650518 48.0337849,55.4306295 L33.7650996,55.4306295 C33.5968127,55.1087171 33.4406375,54.777243 33.3131474,54.426008 C32.1070916,51.1017052 33.1936255,47.504255 35.7520319,45.3684781 L31.0559363,27.3091952 C30.938008,26.8240956 31.321753,26.4878406 31.7077291,26.4878406" id="Fill-5" stroke="#FFFFFF" fill="#866E8B"></path>
                <path d="M70.6272191,67.8721594 C75.7669801,60.959012 80.026741,48.7904064 79.8316813,39.4425179 C79.3905657,18.3043506 62.5147092,0.988972112 41.5473785,0.188972112 C18.8391713,-0.677322709 0.159330677,17.6155857 0.159330677,40.304988 C0.159330677,49.3070598 4.38243825,61.1464223 9.34976892,67.841243 C10.2931952,69.1126375 12.0745498,69.3848287 13.3418008,68.4420398 L22.2323187,57.3411633 L57.8332749,57.3411633 L66.2370996,67.9043506 C66.842996,68.6657849 67.7975777,69.1100876 68.7614024,68.9759044 C69.4801275,68.8758247 70.1593307,68.5013227 70.6272191,67.8721594 Z" id="Stroke-1" stroke="#866E8B" stroke-width="3" stroke-linecap="round" stroke-linejoin="round"></path>
                <path d="M65.6271873,41.1155378 L72.4887012,41.1155378" id="Stroke-7" stroke="#866E8B" stroke-width="3" stroke-linecap="round" stroke-linejoin="round"></path>
                <path d="M58.0778008,22.8403825 L62.929753,17.9514582" id="Stroke-9" stroke="#866E8B" stroke-width="3" stroke-linecap="round" stroke-linejoin="round"></path>
                <path d="M39.8406375,15.2331793 L39.8406375,8.3190757" id="Stroke-11" stroke="#866E8B" stroke-width="3" stroke-linecap="round" stroke-linejoin="round"></path>
                <path d="M21.6261673,22.8403825 L16.7742151,17.9514582" id="Stroke-13" stroke="#866E8B" stroke-width="3" stroke-linecap="round" stroke-linejoin="round"></path>
            </g>
        </g>
    </g>
</svg>