<?xml version="1.0" encoding="UTF-8" standalone="no"?>
<svg width="84px" height="80px" viewBox="0 0 84 80" version="1.1" xmlns="http://www.w3.org/2000/svg" xmlns:xlink="http://www.w3.org/1999/xlink">
    <!-- Generator: Sketch 42 (36781) - https://www.bohemiancoding.com/sketch -->
    <title>monitor</title>
    <desc>Created with Sketch.</desc>
    <defs></defs>
    <g id="Page-1" stroke="none" stroke-width="1" fill="none" fill-rule="evenodd">
        <g id="monitor">
            <g id="Page-1" transform="translate(2.000000, 5.000000)">
                <path d="M76.6533865,56.6508048 L3.34661355,56.6508048 C1.58629482,56.6508048 0.15936255,55.2238725 0.15936255,53.4635538 L0.15936255,3.34658167 C0.15936255,1.58626295 1.58629482,0.159330677 3.34661355,0.159330677 L76.6533865,0.159330677 C78.4137052,0.159330677 79.8406375,1.58626295 79.8406375,3.34658167 L79.8406375,53.4635538 C79.8406375,55.2238725 78.4137052,56.6508048 76.6533865,56.6508048 Z" id="Stroke-1" stroke="#866E8B" stroke-width="3" stroke-linecap="round" stroke-linejoin="round"></path>
                <path d="M0.699665339,44 L78.6999841,44" id="Stroke-3" stroke="#866E8B" stroke-width="3" stroke-linecap="round" stroke-linejoin="round"></path>
                <path id="Fill-5" fill="#866F8D"></path>
                <path d="M39.9999363,48.7319203 C38.9701355,48.7319203 38.1350757,49.5609243 38.1350757,50.5837131 C38.1350757,51.6061833 38.9701355,52.4351873 39.9999363,52.4351873 C41.0297371,52.4351873 41.8647968,51.6061833 41.8647968,50.5837131 C41.8647968,49.5609243 41.0297371,48.7319203 39.9999363,48.7319203" id="Fill-7" fill="#866E8B"></path>
                <path d="M29.0470757,69 L50.7681912,69" id="Stroke-9" stroke="#866F8D" stroke-width="3" stroke-linecap="round" stroke-linejoin="round"></path>
                <path d="M34.558757,56.963761 C34.558757,56.963761 35.5193944,65.5467092 29.1557291,69.0039203" id="Stroke-11" stroke="#866F8D" stroke-width="3" stroke-linecap="round" stroke-linejoin="round"></path>
                <path d="M45.5498008,56.963761 C45.5498008,56.963761 44.5891633,65.5467092 50.9528287,69.0039203" id="Stroke-13" stroke="#866F8D" stroke-width="3" stroke-linecap="round" stroke-linejoin="round"></path>
                <path d="M25.6741355,10.836239 L10.9056892,25.5004622" id="Stroke-15" stroke="#866E8B" stroke-width="3" stroke-linecap="round"></path>
                <path d="M18.1268526,8.43486853 L8.02358566,18.466741" id="Stroke-17" stroke="#866E8B" stroke-width="3" stroke-linecap="round" stroke-linejoin="round"></path>
            </g>
        </g>
    </g>
</svg>