<svg xmlns="http://www.w3.org/2000/svg" viewBox="444 257.1 253.00008 42.692239" width="253" height="42.693">
    <path d="m 680.0166,257.09975 c -1.94763,0 -3.65805,0.31285 -5.12501,0.93958 -1.43471,0.62102 -2.69879,1.47529 -3.77145,2.54773 -1.05288,1.04851 -1.94658,2.27546 -2.65406,3.69467 -0.68666,1.39278 -1.20686,2.88908 -1.61366,4.46924 -0.41407,1.58131 -0.70642,3.21056 -0.88121,4.86511 -0.15918,1.66662 -0.23617,3.25125 -0.23617,4.81185 0,1.5606 0.0853,3.16989 0.2601,4.81185 0.17895,1.62604 0.45153,3.18663 0.85728,4.73454 0.41929,1.52041 0.99566,2.97168 1.69065,4.34493 0.69916,1.34114 1.57725,2.52825 2.63013,3.53532 1.0685,1.02049 2.32426,1.80078 3.77145,2.39373 l 0.28403,0.10648 0.26009,0.10079 0.31317,0.0768 0.28403,0.10607 0.28923,0.0772 0.30796,0.0768 0.31315,0.0533 0.31316,0.0528 0.31317,0.0533 0.33709,0.0532 0.31316,0.0475 0.33708,0.0293 0.33709,0.024 h 0.33709 l 0.36623,0.0293 h 17.34969 v -3.43452 l -9.02651,0.62098 -0.13005,-0.13005 c 0.57327,-0.15403 1.09347,-0.46697 1.5606,-0.93433 0.48795,-0.48768 0.93116,-1.05706 1.32443,-1.74348 0.38703,-0.68682 0.73244,-1.43461 1.0404,-2.23482 0.31316,-0.80104 0.56494,-1.58986 0.7803,-2.37015 0.23201,-0.79986 0.43905,-1.5399 0.57326,-2.23488 0.15918,-0.70706 0.26426,-1.30862 0.33709,-1.79667 0.19975,-1.08107 0.33396,-2.17756 0.41928,-3.25124 0.0936,-1.09242 0.15398,-2.19827 0.15398,-3.30327 0,-1.54926 -0.077,-3.12526 -0.23097,-4.75983 -0.15918,-1.65329 -0.43905,-3.27528 -0.83336,-4.83587 -0.38599,-1.58006 -0.927,-3.05982 -1.61366,-4.47445 -0.65441,-1.39445 -1.52418,-2.64168 -2.57706,-3.69466 -1.02792,-1.06849 -2.2712,-1.91746 -3.71839,-2.52297 -1.44616,-0.62227 -3.10872,-0.93511 -5.04281,-0.93511 z m -0.21224,3.43404 c 1.50025,0 2.81323,0.30484 3.90149,0.91035 1.11426,0.59345 2.04022,1.3778 2.80907,2.36494 0.7595,0.98026 1.35252,2.11815 1.8207,3.41052 0.47131,1.26846 0.84481,2.56449 1.09242,3.92554 0.25282,1.37447 0.41096,2.74363 0.49627,4.08429 l 0.0239,0.23659 v 0.2601 l 0.0291,0.23086 0.0239,0.2601 v 0.46693 l 0.0249,0.23607 v 0.23659 l 0.0281,0.46693 v 0.44341 l 0.0239,0.4377 v 0.41939 c 0,1.1745 -0.0562,2.40103 -0.13006,3.69466 -0.0811,1.2672 -0.24345,2.54773 -0.49107,3.79496 -0.2601,1.22777 -0.60134,2.40228 -1.06952,3.53537 -0.44634,1.13427 -1.06017,2.10599 -1.8207,2.96717 -0.76782,0.83354 -1.69378,1.52036 -2.80804,2.02796 -1.08097,0.50029 -2.41372,0.75633 -3.95455,0.75633 -1.48673,0 -2.77579,-0.25604 -3.84844,-0.80509 -1.07265,-0.55272 -1.97052,-1.29645 -2.73105,-2.21085 -0.74805,-0.91766 -1.35356,-1.95075 -1.8207,-3.14965 -0.43905,-1.2066 -0.7959,-2.46652 -1.06849,-3.74298 -0.2601,-1.29239 -0.45153,-2.58883 -0.54517,-3.87674 -0.0811,-1.30049 -0.13005,-2.50746 -0.13005,-3.6414 0,-1.13382 0.0489,-2.35754 0.13005,-3.66615 0.0936,-1.3005 0.26426,-2.61682 0.49627,-3.93001 0.2601,-1.31995 0.618,-2.5883 1.06433,-3.79495 0.46818,-1.22778 1.05705,-2.3047 1.79677,-3.25125 0.75949,-0.927 1.68649,-1.67525 2.75498,-2.24009 1.09345,-0.56087 2.39396,-0.8576 3.9015,-0.8576 z m -22.54649,0.55682 -12.17267,38.03594 h -3.77561 L 629.0849,261.09061 h -0.12589 v 38.03594 h -3.30742 v -41.34326 h 5.94172 l 11.55779,36.19451 h 0.12589 l 11.57859,-36.19451 h 5.79503 v 41.34326 h -3.27518 v -38.03594 z" fill="#a9b5af"/>
    <path d="m 569.16104,257.77924 v 29.67488 c 0,1.60128 0.16647,3.15782 0.5202,4.65827 0.35374,1.48662 0.91035,2.79526 1.69065,3.94904 0.80007,1.12696 1.8363,2.02878 3.09206,2.70707 1.27242,0.68683 2.82053,1.01683 4.63395,1.01683 1.39308,0 2.62492,-0.17923 3.71838,-0.57344 1.09346,-0.38608 2.0319,-0.93961 2.83197,-1.61384 0.82503,-0.70714 1.52002,-1.5033 2.0808,-2.4177 0.57325,-0.93514 1.02895,-1.94669 1.38268,-3.02042 0.36102,-1.08794 0.6336,-2.21815 0.7803,-3.40532 l 0.077,-0.46692 0.0239,-0.44342 0.053,-0.4429 0.0239,-0.44342 0.0291,-0.43769 0.0239,-0.47266 v -0.88111 c 0,-1.03229 -0.0604,-2.12137 -0.20704,-3.28048 -0.1134,-1.16192 -0.31316,-2.3202 -0.62631,-3.42885 -0.30068,-1.12571 -0.68667,-2.19139 -1.19439,-3.2037 -0.48794,-1.0278 -1.10906,-1.95075 -1.84878,-2.73104 -0.72828,-0.79987 -1.57309,-1.41391 -2.57291,-1.86825 -0.98734,-0.47265 -2.1453,-0.70351 -3.43436,-0.70351 -1.98716,0 -3.66116,0.52831 -5.04697,1.61386 -1.38165,1.06839 -2.36171,2.53514 -2.91,4.41722 h -0.10612 v -18.20698 h -3.01508 z m 10.74108,15.03251 c 0.8937,0 1.67817,0.22358 2.36483,0.65025 0.67938,0.41418 1.25576,0.96362 1.74371,1.63738 0.51188,0.68687 0.91034,1.46717 1.2235,2.3409 0.33293,0.88683 0.60552,1.78053 0.78031,2.70753 0.19871,0.8937 0.33293,1.76743 0.41407,2.64855 v 0.31337 l 0.0291,0.15481 0.0239,0.15803 v 0.44342 l 0.0291,0.15408 v 0.28486 l 0.0239,0.13005 v 0.67824 c 0,0.80152 -0.0614,1.65454 -0.15397,2.54825 -0.0739,0.88631 -0.19976,1.74344 -0.41928,2.62575 -0.21953,0.85304 -0.50772,1.68252 -0.88122,2.47094 -0.36622,0.80429 -0.8292,1.53581 -1.38269,2.16209 -0.53997,0.60148 -1.19022,1.08103 -1.95075,1.45452 -0.75533,0.34544 -1.65007,0.5202 -2.64885,0.5202 -0.96758,0 -1.83319,-0.17476 -2.54898,-0.5202 -0.71059,-0.35397 -1.31195,-0.82093 -1.8207,-1.40575 -0.47962,-0.59376 -0.88954,-1.24401 -1.22247,-1.99952 -0.31316,-0.7803 -0.55766,-1.6053 -0.75637,-2.44697 -0.16646,-0.83354 -0.29235,-1.67802 -0.36206,-2.52418 -0.0645,-0.85302 -0.10508,-1.65735 -0.10508,-2.41768 0,-0.73972 0.053,-1.58058 0.15398,-2.49498 0.10612,-0.91888 0.29236,-1.83734 0.5202,-2.78431 0.2601,-0.94646 0.5691,-1.87751 0.96341,-2.7838 0.38599,-0.8937 0.85729,-1.67806 1.43055,-2.36493 0.56077,-0.69904 1.23911,-1.25576 1.97883,-1.69065 0.75638,-0.42667 1.61782,-0.65025 2.57291,-0.65025 z m -87.21019,-15.03251 v 41.35584 h 3.58812 v -18.70365 h 4.96583 c 1.58546,0 2.87785,0.19882 3.85364,0.62673 0.99566,0.41366 1.78002,1.01116 2.36482,1.79146 0.60552,0.7803 1.07255,1.71989 1.40662,2.81231 0.34947,1.08919 0.67012,2.31686 0.96237,3.69019 l 2.10598,9.78296 h 3.58813 l -2.3409,-11.16076 c -0.23617,-1.19397 -0.47547,-2.27213 -0.75221,-3.25125 -0.25157,-0.98713 -0.62507,-1.86533 -1.09242,-2.62451 -0.46818,-0.7803 -1.09773,-1.43908 -1.89873,-1.97998 -0.80028,-0.54829 -1.84067,-0.98765 -3.14928,-1.3005 v -0.10081 c 0.43082,-0.10654 0.84167,-0.21984 1.24722,-0.31337 0.41533,-0.126 0.84616,-0.26416 1.27699,-0.44343 1.03186,-0.40679 1.90559,-0.9298 2.62898,-1.58411 0.73973,-0.65877 1.35335,-1.39028 1.8207,-2.21084 0.46704,-0.82545 0.79695,-1.70324 1.01241,-2.67903 0.23493,-0.9709 0.33688,-2.032 0.33688,-3.1212 0,-2.032 -0.34135,-3.706 -1.06432,-5.04718 -0.72423,-1.37322 -1.70335,-2.46689 -2.91395,-3.27601 -1.20707,-0.82545 -2.61359,-1.3932 -4.21486,-1.71916 -1.59723,-0.35352 -3.2679,-0.5437 -5.04386,-0.5437 z m 3.58812,3.29878 h 4.73507 c 1.25128,0 2.47906,0.0866 3.66491,0.26011 1.21113,0.17926 2.2922,0.54943 3.22773,1.06963 0.93834,0.52832 1.66953,1.25171 2.23436,2.21085 l 0.10654,0.20683 0.10071,0.18332 0.10612,0.18332 0.0768,0.20683 0.0772,0.20683 0.0822,0.20735 0.0479,0.23607 0.0822,0.23086 0.0479,0.23607 0.0293,0.23659 0.0528,0.2601 0.0239,0.26009 0.0239,0.2601 0.0294,0.28362 v 0.54423 c 0,1.71989 -0.32596,3.15855 -0.98755,4.29165 -0.64296,1.10625 -1.50452,1.9881 -2.57707,2.65426 -1.07254,0.65431 -2.30875,1.12571 -3.69466,1.40652 -1.3854,0.26821 -2.79524,0.41418 -4.23838,0.41418 h -3.25125 z m 33.34604,8.87264 c -1.15505,0 -2.31291,0.15002 -3.48783,0.44341 -1.17046,0.26697 -2.21085,0.70633 -3.14471,1.3005 -0.93553,0.58845 -1.71177,1.38134 -2.31739,2.3409 -0.58439,0.93386 -0.88517,2.05156 -0.88517,3.40481 h 3.66948 c 0.33283,-1.6739 0.96768,-2.86515 1.92682,-3.5641 0.95499,-0.70633 2.28805,-1.06443 4.00221,-1.06443 1.11438,0 2.0447,0.14556 2.78432,0.41418 0.73962,0.27269 1.34524,0.65431 1.79676,1.14642 0.46736,0.46693 0.80424,1.02375 1.01107,1.69065 0.24064,0.64171 0.39462,1.34524 0.46734,2.10483 0.10612,0.75221 0.15492,1.53251 0.13005,2.34089 v 2.50019 c -1.04039,0.007 -2.17339,0.056 -3.3813,0.13005 -1.18178,0.0808 -2.38147,0.23492 -3.58854,0.46693 -1.18584,0.21953 -2.35629,0.52831 -3.48201,0.93438 -1.11842,0.39827 -2.10566,0.927 -2.96721,1.61335 -0.85708,0.667 -1.55249,1.49932 -2.0808,2.49945 -0.50761,0.97578 -0.75637,2.13769 -0.75637,3.50686 0,1.11437 0.15939,2.13404 0.47234,3.07365 0.33283,0.93392 0.79611,1.74268 1.40121,2.41772 0.62226,0.66569 1.39445,1.19442 2.28804,1.56059 0.91858,0.39421 1.94347,0.57344 3.09727,0.57344 1.8695,0 3.56015,-0.39868 5.04802,-1.19971 1.49516,-0.80022 2.77162,-1.95481 3.8193,-3.48209 h 0.13005 v 4.03155 h 2.96722 v -19.48396 c 0,-1.58005 -0.12193,-2.98261 -0.39014,-4.18958 -0.27269,-1.21518 -0.77219,-2.21896 -1.45864,-3.03994 -0.65431,-0.81234 -1.5606,-1.44314 -2.70297,-1.84993 -1.1538,-0.40565 -2.62169,-0.62101 -4.36842,-0.62101 z m 2.57165,15.91935 h 3.3813 c 0,1.14121 -0.0727,2.25111 -0.20725,3.29879 -0.1341,1.03307 -0.51572,2.05681 -1.11717,3.04438 -0.35353,0.60554 -0.79695,1.15053 -1.32443,1.6374 -0.50033,0.49216 -1.06974,0.90751 -1.69065,1.24849 -0.62632,0.36535 -1.27251,0.64618 -1.98008,0.83231 -0.67377,0.17923 -1.37729,0.2601 -2.0808,0.2601 -0.5689,0 -1.10907,-0.0809 -1.63738,-0.2601 -0.50356,-0.18613 -0.96362,-0.45436 -1.35377,-0.7803 -0.39015,-0.33284 -0.70311,-0.75957 -0.93387,-1.24726 -0.21546,-0.48687 -0.31336,-1.00422 -0.31336,-1.58457 0,-1.27246 0.30889,-2.33684 0.93428,-3.15045 0.62632,-0.84044 1.40661,-1.48663 2.34089,-1.97478 0.95509,-0.47952 1.99955,-0.84449 3.1212,-1.0404 l 0.20808,-0.028 0.21141,-0.0247 0.20683,-0.0533 h 0.20683 l 0.20725,-0.052 h 0.20808 l 0.21141,-0.0248 0.20683,-0.024 0.20683,-0.0292 h 0.18332 l 0.20683,-0.024 h 0.39015 l 0.20724,-0.028 z m 11.31435,-28.09077 v 29.67488 c 0,1.60128 0.1675,3.15782 0.5202,4.65827 0.35362,1.48662 0.93968,2.79526 1.71998,3.94904 0.79976,1.12696 1.82476,2.02878 3.09186,2.70707 1.27241,0.68683 2.7966,1.01683 4.6048,1.01683 1.39414,0 2.64158,-0.17923 3.74752,-0.57344 1.09346,-0.38608 2.03191,-0.93961 2.83197,-1.61384 0.8136,-0.70714 1.49609,-1.5033 2.05687,-2.4177 0.56077,-0.93514 1.03624,-1.94669 1.37749,-3.02042 0.37454,-1.08794 0.65024,-2.21815 0.80943,-3.40532 l 0.0479,-0.46692 0.053,-0.44342 0.0291,-0.4429 0.0239,-0.44342 0.0239,-0.43769 0.0291,-0.47266 v -0.43769 l 0.0239,-0.44342 c 0,-1.03229 -0.0728,-2.12137 -0.20704,-3.28048 -0.1134,-1.16192 -0.33709,-2.3202 -0.65024,-3.42885 -0.29236,-1.12571 -0.68667,-2.19139 -1.19854,-3.2037 -0.48795,-1.0278 -1.10595,-1.95075 -1.84567,-2.73104 -0.72724,-0.79987 -1.57621,-1.41391 -2.57604,-1.86825 -0.98837,-0.47265 -2.14217,-0.70351 -3.43019,-0.70351 -1.98716,0 -3.65388,0.52831 -5.04801,1.61386 -1.38165,1.06839 -2.36056,2.53514 -2.91416,4.41722 h -0.10071 v -18.20698 h -3.02049 z m 10.74628,15.03251 c 0.90202,0 1.67816,0.22358 2.36482,0.65025 0.68667,0.41418 1.27969,0.96362 1.76764,1.63738 0.51188,0.68687 0.91035,1.46717 1.22351,2.3409 0.33293,0.88683 0.57742,1.78053 0.75637,2.70753 0.19456,0.8937 0.33293,1.76743 0.41408,2.64855 v 0.15928 l 0.0239,0.15409 v 0.15481 l 0.0291,0.15803 v 0.31337 l 0.0239,0.13005 v 0.15408 l 0.0291,0.15481 v 0.93834 c 0,0.80152 -0.0374,1.65454 -0.13005,2.54825 -0.0853,0.88631 -0.23618,1.74344 -0.44322,2.62575 -0.21952,0.85304 -0.51188,1.68252 -0.88642,2.47094 -0.3735,0.80429 -0.82503,1.53581 -1.37749,2.16209 -0.55245,0.60148 -1.19125,1.08103 -1.95074,1.45452 -0.7595,0.34544 -1.65424,0.5202 -2.65406,0.5202 -0.96653,0 -1.80405,-0.17476 -2.52401,-0.5202 -0.70643,-0.35397 -1.30778,-0.82093 -1.81654,-1.40575 -0.47962,-0.59376 -0.88954,-1.24401 -1.22247,-1.99952 -0.31295,-0.7803 -0.58564,-1.6053 -0.78029,-2.44697 -0.17885,-0.83354 -0.2935,-1.67802 -0.36622,-2.52418 -0.0614,-0.85302 -0.10196,-1.65735 -0.10196,-2.41768 0,-0.73972 0.0613,-1.58058 0.15523,-2.49498 0.1134,-0.91888 0.27955,-1.83734 0.52019,-2.78431 0.24751,-0.94646 0.57628,-1.87751 0.96321,-2.7838 0.39326,-0.8937 0.86873,-1.67806 1.43054,-2.36493 0.57222,-0.69904 1.23496,-1.25576 1.97468,-1.69065 0.75949,-0.42667 1.62926,-0.65025 2.57707,-0.65025 z m 43.90796,-2.21085 v 28.52565 h -2.98699 V 270.6009 Z m 0.73972,-12.81761 v 4.85533 h -4.4217 v -4.85533 z m 20.14108,41.74885 -0.39847,0.0658 -0.38183,0.0488 -0.3735,0.0533 -0.38599,0.0321 -0.38703,0.028 -0.3735,0.0252 -0.3735,0.007 h -0.37454 c -2.53962,0 -4.4217,-0.53971 -5.68162,-1.63334 -1.24745,-1.09324 -1.86128,-2.8806 -1.86128,-5.38935 V 273.4621 h -4.56735 v -2.8611 h 4.56735 v -6.5878 l 2.97554,-1.98737 v 8.57517 h 7.61572 v 2.8611 h -7.61572 v 18.35249 c 0,0.82216 0.0811,1.53662 0.2393,2.16331 0.15502,0.62505 0.40263,1.15378 0.75636,1.61261 0.37767,0.42754 0.85313,0.76039 1.46696,0.98838 0.60552,0.21945 1.34524,0.32025 2.21918,0.32025 0.6336,0 1.12155,-0.028 1.49505,-0.11339 0.38599,-0.0935 0.86561,-0.24019 1.43887,-0.40681 z m -173.38046,-42.013 c -0.92294,0 -1.66667,0.73514 -1.66667,1.66141 V 297.468 c 0,0.92702 0.74373,1.66708 1.66667,1.66708 h 38.28257 c 0.92305,0 1.66672,-0.74006 1.66672,-1.66708 v -21.64107 c 0,-0.92626 -0.74367,-1.66141 -1.66672,-1.66141 H 470.6363 c -0.92304,0 -1.66672,-0.74004 -1.66672,-1.66714 v -13.31783 c 0,-0.92627 -0.74368,-1.66141 -1.66672,-1.66141 h -4.98975 c -0.92304,0 -1.66672,0.73514 -1.66672,1.66141 v 13.31783 c 0,0.9271 -0.74368,1.66714 -1.66672,1.66714 h -4.98981 c -0.92295,0 -1.66667,-0.74004 -1.66667,-1.66714 v -13.31783 c 0,-0.92627 -0.74371,-1.66141 -1.66666,-1.66141 z" fill="#f60"/>
    <path d="m 471.46446,282.48018 h 3.33344 c 1.38175,0 2.49487,1.11312 2.49487,2.49894 v 3.32854 c 0,1.3858 -1.11312,2.49975 -2.49487,2.49975 h -3.33344 c -1.38175,0 -2.49488,-1.11395 -2.49488,-2.49975 v -3.32854 c 0,-1.38582 1.11313,-2.49894 2.49488,-2.49894 z" fill="#fff"/>
</svg>
