<?xml version="1.0" encoding="UTF-8" standalone="no"?>
<svg width="94px" height="109px" viewBox="0 0 94 109" version="1.1" xmlns="http://www.w3.org/2000/svg" xmlns:xlink="http://www.w3.org/1999/xlink">
    <!-- Generator: Sketch 42 (36781) - http://www.bohemiancoding.com/sketch -->
    <title>Support_and_hosting_iphone</title>
    <desc>Created with Sketch.</desc>
    <defs>
        <path d="M15.3017987,0.260606311 L19.1070595,0.260606311 C20.0724141,0.260606311 20.8623341,1.03964297 20.8623341,2.0097291 L20.8623341,13.3808821 C20.8623341,14.2795565 21.5241589,15.0432906 22.3939063,15.1462348 L33.2671408,15.1462348 C34.2403853,15.1462348 35.0224154,15.9257351 35.0303053,16.8958213 L35.0303053,35.1934448 C35.0303053,36.1551841 34.2482752,36.9430313 33.2750307,36.9430313 L19.1070595,36.9430313 L15.3017987,36.9430313 L5.7763478,36.9430313 L1.97108703,36.9430313 C1.00573242,36.9430313 0.216276561,36.1630672 0.216276561,35.1934448 L0.216276561,2.0097291 C0.216276561,1.04752608 0.997842502,0.260606311 1.97108703,0.260606311 L5.7763478,0.260606311 C6.74170241,0.260606311 7.53162238,1.03964297 7.53162238,2.0097291 L7.53162238,13.5005198 C7.58778003,14.3435488 8.23382504,15.0432906 9.07154863,15.1462348 L11.9193447,15.1462348 C12.7807381,15.06694 13.4991847,14.3671981 13.5465242,13.5005198 L13.5465242,2.0097291 C13.5465242,1.04752608 14.3285542,0.260606311 15.3017987,0.260606311 Z M20.9421615,27.6947532 C20.9421615,28.6569563 21.7237274,29.443876 22.696972,29.443876 L26.5022327,29.443876 C27.4671232,29.443876 28.2570432,28.6648394 28.2570432,27.6947532 L28.2570432,24.1162854 C28.2570432,23.1540824 27.4754773,22.366699 26.5022327,22.366699 L22.696972,22.366699 C21.7316174,22.366699 20.9421615,23.1457356 20.9421615,24.1162854 L20.9421615,27.6947532 Z" id="path-1"></path>
    </defs>
    <g id="Page-1" stroke="none" stroke-width="1" fill="none" fill-rule="evenodd">
        <g id="Support_and_hosting_iphone">
            <g id="Group-2" transform="translate(1.000000, 23.000000)">
                <g id="Group-39" transform="translate(0.912599, 0.578832)" stroke="#866E8B" stroke-width="3" stroke-linecap="round" stroke-linejoin="round">
                    <path d="M7.99355384,31.5424988 C10.8390294,13.6687083 26.3357555,0.00681657077 45.0260417,0.00681657077 C63.3742768,0.00681657077 78.64498,13.1734635 81.8895925,30.5663844" id="Stroke-29"></path>
                    <path d="M17.2914967,29.0295955 C7.96979127,29.1863302 0.459982188,36.7805465 0.459982188,46.1317687 C0.459982188,55.4829909 7.96979127,63.0772072 17.2914967,63.2339419 L17.2914967,29.0295955 Z" id="Stroke-31"></path>
                    <path d="M73.2020972,63.2340811 C82.5238027,63.0773463 90.0336117,55.48313 90.0336117,46.1319078 C90.0336117,36.7806856 82.5238027,29.1864693 73.2020972,29.0297346 L73.2020972,63.2340811 Z" id="Stroke-33"></path>
                    <path d="M77.7392639,62.8026895 C77.7392639,62.8026895 78.6173653,72.1617948 67.493974,76.5489768 C66.5954516,76.903253 65.7730438,77.207912 65.0188605,77.4685183" id="Stroke-35"></path>
                    <path d="M64.1279032,78.5951537 C64.1279032,81.5833158 61.1464426,84.0057488 57.4683487,84.0057488 C53.7902548,84.0057488 50.8087943,81.5833158 50.8087943,78.5951537 C50.8087943,75.6069917 53.7902548,73.1845586 57.4683487,73.1845586 C61.1464426,73.1845586 64.1279032,75.6069917 64.1279032,78.5951537 Z" id="Stroke-37"></path>
                </g>
                <g id="Group-42" transform="translate(29.687592, 27.937858)">
                    <mask id="mask-2" fill="white">
                        <use xlink:href="#path-1"></use>
                    </mask>
                    <g id="Clip-41"></g>
                    <polygon id="Fill-40" fill="#FF6600" mask="url(#mask-2)" points="-0.75650385 37.9145086 36.0030857 37.9145086 36.0030857 -0.711334664 -0.75650385 -0.711334664"></polygon>
                </g>
            </g>
        </g>
    </g>
</svg>