<svg version="1.1" viewBox="0.0 0.0 1026.8215223097113 299.90813648293965" fill="none" stroke="none" stroke-linecap="square" stroke-miterlimit="10" xmlns:xlink="http://www.w3.org/1999/xlink" xmlns="http://www.w3.org/2000/svg"><clipPath id="p.0"><path d="m0 0l1026.8215 0l0 299.90814l-1026.8215 0l0 -299.90814z" clip-rule="nonzero"/></clipPath><g clip-path="url(#p.0)"><path fill="#000000" fill-opacity="0.0" d="m0 0l1026.8215 0l0 299.90814l-1026.8215 0z" fill-rule="evenodd"/><path fill="#0091da" d="m69.74889 58.341206l0 0c18.483902 0 33.468063 30.69141 33.468063 68.55118c0 37.85978 -14.984161 68.551186 -33.468063 68.551186l877.88275 0c18.483948 0 33.46808 -30.691406 33.46808 -68.551186c0 -37.85977 -14.984131 -68.55118 -33.46808 -68.55118z" fill-rule="evenodd"/><path fill="#66bde8" d="m69.74889 58.341206l0 0c-18.483894 0 -33.468056 30.69141 -33.468056 68.55118c0 37.85978 14.984161 68.551186 33.468056 68.551186l0 0c18.483902 0 33.468063 -30.691406 33.468063 -68.551186c0 -37.85977 -14.984161 -68.55118 -33.468063 -68.55118z" fill-rule="evenodd"/><path fill="#000000" fill-opacity="0.0" d="m69.74889 195.44357l0 0c18.483902 0 33.468063 -30.691406 33.468063 -68.551186c0 -37.85977 -14.984161 -68.55118 -33.468063 -68.55118l0 0c-18.483894 0 -33.468056 30.69141 -33.468056 68.55118c0 37.85978 14.984161 68.551186 33.468056 68.551186l877.88275 0c18.483948 0 33.46808 -30.691406 33.46808 -68.551186c0 -37.85977 -14.984131 -68.55118 -33.46808 -68.55118l-877.88275 0" fill-rule="evenodd"/><path fill="#1a428a" d="m140.93907 85.657906l72.85039 0l0 62.04725l-72.85039 0z" fill-rule="evenodd"/><path fill="#ffffff" d="m164.06763 124.16153l0 -15.265625l4.609375 0l2.765625 10.40625l2.734375 -10.40625l4.625 0l0 15.265625l-2.859375 0l0 -12.015625l-3.03125 12.015625l-2.96875 0l-3.015625 -12.015625l0 12.015625l-2.859375 0z" fill-rule="nonzero"/><path fill="#ffffff" d="m188.17511 121.94278q1.46875 0 2.3125 1.046875q0.984375 1.25 0.984375 4.15625q0 2.890625 -1.0 4.140625q-0.828125 1.046875 -2.296875 1.046875q-1.484375 0 -2.40625 -1.140625q-0.90625 -1.140625 -0.90625 -4.078125q0 -2.875 1.0 -4.125q0.828125 -1.046875 2.3125 -1.046875zm0 1.609375q-0.359375 0 -0.640625 0.234375q-0.265625 0.21875 -0.421875 0.8125q-0.203125 0.75 -0.203125 2.546875q0 1.78125 0.171875 2.453125q0.1875 0.671875 0.453125 0.90625q0.28125 0.21875 0.640625 0.21875q0.34375 0 0.625 -0.21875q0.28125 -0.234375 0.4375 -0.828125q0.203125 -0.75 0.203125 -2.53125q0 -1.796875 -0.1875 -2.46875q-0.1875 -0.671875 -0.46875 -0.890625q-0.265625 -0.234375 -0.609375 -0.234375z" fill-rule="nonzero"/><path fill="#1a428a" d="m228.32817 85.657906l72.85039 0l0 62.04725l-72.85039 0z" fill-rule="evenodd"/><path fill="#ffffff" d="m251.45674 124.16153l0 -15.265625l4.6093597 0l2.765625 10.40625l2.734375 -10.40625l4.625 0l0 15.265625l-2.859375 0l0 -12.015625l-3.03125 12.015625l-2.96875 0l-3.0156097 -12.015625l0 12.015625l-2.859375 0z" fill-rule="nonzero"/><path fill="#ffffff" d="m277.2517 132.16153l-1.953125 0l0 -7.359375q-1.0625 1.0 -2.515625 1.484375l0 -1.765625q0.765625 -0.25 1.65625 -0.953125q0.890625 -0.703125 1.234375 -1.625l1.578125 0l0 10.21875z" fill-rule="nonzero"/><path fill="#1a428a" d="m315.7173 85.657906l72.8504 0l0 62.04725l-72.8504 0z" fill-rule="evenodd"/><path fill="#ffffff" d="m338.84586 124.16153l0 -15.265625l4.609375 0l2.765625 10.40625l2.734375 -10.40625l4.625 0l0 15.265625l-2.859375 0l0 -12.015625l-3.03125 12.015625l-2.96875 0l-3.015625 -12.015625l0 12.015625l-2.859375 0z" fill-rule="nonzero"/><path fill="#ffffff" d="m366.2346 130.34903l0 1.8125l-6.828125 0q0.109375 -1.03125 0.65625 -1.953125q0.5625 -0.921875 2.203125 -2.4375q1.3125 -1.21875 1.609375 -1.65625q0.40625 -0.609375 0.40625 -1.203125q0 -0.65625 -0.359375 -1.0q-0.34375 -0.359375 -0.953125 -0.359375q-0.609375 0 -0.984375 0.375q-0.359375 0.375 -0.40625 1.21875l-1.953125 -0.1875q0.171875 -1.609375 1.09375 -2.3125q0.921875 -0.703125 2.296875 -0.703125q1.5 0 2.359375 0.8125q0.859375 0.8125 0.859375 2.015625q0 0.6875 -0.25 1.3125q-0.234375 0.625 -0.765625 1.296875q-0.359375 0.453125 -1.28125 1.3125q-0.921875 0.84375 -1.171875 1.125q-0.25 0.265625 -0.40625 0.53125l3.875 0z" fill-rule="nonzero"/><path fill="#1a428a" d="m403.10638 85.657906l72.8504 0l0 62.04725l-72.8504 0z" fill-rule="evenodd"/><path fill="#ffffff" d="m426.23495 124.16153l0 -15.265625l4.609375 0l2.765625 10.40625l2.734375 -10.40625l4.625 0l0 15.265625l-2.859375 0l0 -12.015625l-3.03125 12.015625l-2.96875 0l-3.015625 -12.015625l0 12.015625l-2.859375 0z" fill-rule="nonzero"/><path fill="#ffffff" d="m446.96744 129.4584l1.890625 -0.234375q0.09375 0.734375 0.484375 1.125q0.40625 0.375 0.953125 0.375q0.609375 0 1.015625 -0.453125q0.421875 -0.46875 0.421875 -1.25q0 -0.734375 -0.40625 -1.15625q-0.390625 -0.4375 -0.953125 -0.4375q-0.375 0 -0.890625 0.140625l0.203125 -1.578125q0.796875 0.015625 1.203125 -0.34375q0.421875 -0.375 0.421875 -0.96875q0 -0.515625 -0.3125 -0.8125q-0.296875 -0.3125 -0.796875 -0.3125q-0.5 0 -0.859375 0.34375q-0.34375 0.34375 -0.421875 1.015625l-1.796875 -0.3125q0.1875 -0.921875 0.5625 -1.46875q0.375 -0.5625 1.046875 -0.875q0.6875 -0.3125 1.515625 -0.3125q1.4375 0 2.3125 0.921875q0.71875 0.75 0.71875 1.6875q0 1.34375 -1.46875 2.140625q0.875 0.1875 1.390625 0.84375q0.53125 0.640625 0.53125 1.5625q0 1.34375 -0.984375 2.296875q-0.96875 0.9375 -2.4375 0.9375q-1.375 0 -2.28125 -0.796875q-0.90625 -0.796875 -1.0625 -2.078125z" fill-rule="nonzero"/><path fill="#1a428a" d="m490.49548 85.657906l72.8504 0l0 62.04725l-72.8504 0z" fill-rule="evenodd"/><path fill="#ffffff" d="m513.6241 124.16153l0 -15.265625l4.609375 0l2.765625 10.40625l2.734375 -10.40625l4.625 0l0 15.265625l-2.859375 0l0 -12.015625l-3.03125 12.015625l-2.96875 0l-3.015625 -12.015625l0 12.015625l-2.859375 0z" fill-rule="nonzero"/><path fill="#ffffff" d="m538.2472 132.16153l0 -2.046875l-4.15625 0l0 -1.703125l4.40625 -6.46875l1.640625 0l0 6.453125l1.265625 0l0 1.71875l-1.265625 0l0 2.046875l-1.890625 0zm0 -3.765625l0 -3.46875l-2.328125 3.46875l2.328125 0z" fill-rule="nonzero"/><path fill="#1a428a" d="m593.8846 85.657906l72.8504 0l0 62.04725l-72.8504 0z" fill-rule="evenodd"/><path fill="#ffffff" d="m617.0132 124.16153l0 -15.265625l4.609375 0l2.765625 10.40625l2.734375 -10.40625l4.625 0l0 15.265625l-2.859375 0l0 -12.015625l-3.03125 12.015625l-2.96875 0l-3.015625 -12.015625l0 12.015625l-2.859375 0z" fill-rule="nonzero"/><path fill="#ffffff" d="m637.8394 129.53653l1.953125 -0.1875q0.078125 0.65625 0.484375 1.046875q0.421875 0.375 0.953125 0.375q0.609375 0 1.03125 -0.484375q0.421875 -0.5 0.421875 -1.5q0 -0.9375 -0.421875 -1.40625q-0.421875 -0.46875 -1.09375 -0.46875q-0.828125 0 -1.5 0.734375l-1.578125 -0.21875l1.0 -5.3125l5.15625 0l0 1.828125l-3.6875 0l-0.296875 1.734375q0.640625 -0.328125 1.328125 -0.328125q1.296875 0 2.203125 0.953125q0.90625 0.9375 0.90625 2.4375q0 1.265625 -0.734375 2.25q-1.0 1.34375 -2.765625 1.34375q-1.40625 0 -2.296875 -0.75q-0.875 -0.765625 -1.0625 -2.046875z" fill-rule="nonzero"/><path fill="#000000" fill-opacity="0.0" d="m43.540684 234.30934l176.7874 0l0 62.047256l-176.7874 0z" fill-rule="evenodd"/><path fill="#002142" d="m110.137505 271.19296l0 -11.453125l7.734375 0l0 1.34375l-6.21875 0l0 3.546875l5.375 0l0 1.359375l-5.375 0l0 5.203125l-1.515625 0zm9.9609375 0l0 -11.453125l1.515625 0l0 11.453125l-1.515625 0zm4.2109375 0l0 -11.453125l5.0781326 0q1.53125 0 2.328125 0.3125q0.796875 0.296875 1.265625 1.078125q0.484375 0.78125 0.484375 1.734375q0 1.21875 -0.796875 2.0625q-0.78125 0.828125 -2.4375 1.046875q0.609375 0.296875 0.921875 0.578125q0.65625 0.609375 1.25 1.515625l2.0 3.125l-1.90625 0l-1.515625 -2.390625q-0.671875 -1.03125 -1.109375 -1.578125q-0.421875 -0.546875 -0.765625 -0.765625q-0.328125 -0.21875 -0.6875 -0.296875q-0.25 -0.0625 -0.8437576 -0.0625l-1.75 0l0 5.09375l-1.515625 0zm1.515625 -6.40625l3.2500076 0q1.046875 0 1.625 -0.203125q0.59375 -0.21875 0.890625 -0.6875q0.3125 -0.484375 0.3125 -1.03125q0 -0.8125 -0.59375 -1.328125q-0.59375 -0.53125 -1.859375 -0.53125l-3.6250076 0l0 3.78125zm9.492195 2.71875l1.4375 -0.125q0.09375 0.859375 0.46875 1.421875q0.375 0.546875 1.15625 0.890625q0.78125 0.328125 1.75 0.328125q0.875 0 1.53125 -0.25q0.671875 -0.265625 0.984375 -0.703125q0.328125 -0.453125 0.328125 -0.984375q0 -0.546875 -0.3125 -0.9375q-0.3125 -0.40625 -1.03125 -0.6875q-0.453125 -0.171875 -2.03125 -0.546875q-1.578125 -0.390625 -2.21875 -0.71875q-0.8125 -0.4375 -1.21875 -1.0625q-0.40625 -0.640625 -0.40625 -1.4375q0 -0.859375 0.484375 -1.609375q0.5 -0.765625 1.4375 -1.15625q0.953125 -0.390625 2.109375 -0.390625q1.28125 0 2.25 0.421875q0.96875 0.40625 1.484375 1.203125q0.53125 0.796875 0.578125 1.796875l-1.453125 0.109375q-0.125 -1.078125 -0.796875 -1.625q-0.671875 -0.5625 -2.0 -0.5625q-1.375 0 -2.0 0.5q-0.625 0.5 -0.625 1.21875q0 0.609375 0.4375 1.015625q0.4375 0.390625 2.28125 0.8125q1.859375 0.421875 2.546875 0.734375q1.0 0.453125 1.46875 1.171875q0.484375 0.703125 0.484375 1.625q0 0.90625 -0.53125 1.71875q-0.515625 0.8125 -1.5 1.265625q-0.984375 0.453125 -2.203125 0.453125q-1.5625 0 -2.609375 -0.453125q-1.046875 -0.46875 -1.65625 -1.375q-0.59375 -0.90625 -0.625 -2.0625zm14.109375 3.6875l0 -10.109375l-3.78125 0l0 -1.34375l9.078125 0l0 1.34375l-3.78125 0l0 10.109375l-1.515625 0z" fill-rule="nonzero"/><path fill="#000000" fill-opacity="0.0" d="m137.15486 250.30971l33.85826 -90.519684" fill-rule="evenodd"/><path stroke="#002142" stroke-width="1.0" stroke-linejoin="round" stroke-linecap="butt" d="m137.15486 250.30971l31.75624 -84.89995" fill-rule="evenodd"/><path fill="#002142" stroke="#002142" stroke-width="1.0" stroke-linecap="butt" d="m170.45815 165.98843l0.042816162 -4.8291626l-3.136917 3.6718292z" fill-rule="evenodd"/><path fill="#000000" fill-opacity="0.0" d="m405.97638 246.65092l32.44095 -86.86615" fill-rule="evenodd"/><path stroke="#002142" stroke-width="1.0" stroke-linejoin="round" stroke-linecap="butt" d="m405.97638 246.65092l30.341766 -81.24533" fill-rule="evenodd"/><path fill="#002142" stroke="#002142" stroke-width="1.0" stroke-linecap="butt" d="m437.86554 165.98346l0.04031372 -4.8291626l-3.1350098 3.6734314z" fill-rule="evenodd"/><path fill="#000000" fill-opacity="0.0" d="m313.5248 234.30934l176.78738 0l0 62.047256l-176.78738 0z" fill-rule="evenodd"/><path fill="#002142" d="m364.61774 265.61484q0 -2.859375 1.53125 -4.46875q1.53125 -1.609375 3.953125 -1.609375q1.578125 0 2.84375 0.765625q1.28125 0.75 1.953125 2.109375q0.671875 1.34375 0.671875 3.0625q0 1.75 -0.703125 3.125q-0.703125 1.375 -2.0 2.09375q-1.28125 0.703125 -2.78125 0.703125q-1.609375 0 -2.890625 -0.78125q-1.265625 -0.796875 -1.921875 -2.140625q-0.65625 -1.359375 -0.65625 -2.859375zm1.5625 0.015625q0 2.078125 1.109375 3.265625q1.109375 1.1875 2.796875 1.1875q1.703125 0 2.8125 -1.203125q1.109375 -1.203125 1.109375 -3.40625q0 -1.40625 -0.484375 -2.4375q-0.46875 -1.046875 -1.375 -1.625q-0.90625 -0.578125 -2.046875 -0.578125q-1.609375 0 -2.765625 1.109375q-1.15625 1.109375 -1.15625 3.6875zm11.4140625 5.5625l0 -11.453125l7.734375 0l0 1.34375l-6.21875 0l0 3.546875l5.375 0l0 1.359375l-5.375 0l0 5.203125l-1.515625 0zm9.7734375 0l0 -11.453125l7.734375 0l0 1.34375l-6.21875 0l0 3.546875l5.375 0l0 1.359375l-5.375 0l0 5.203125l-1.515625 0zm9.1796875 -3.6875l1.4375 -0.125q0.09375 0.859375 0.46875 1.421875q0.375 0.546875 1.15625 0.890625q0.78125 0.328125 1.75 0.328125q0.875 0 1.53125 -0.25q0.671875 -0.265625 0.984375 -0.703125q0.328125 -0.453125 0.328125 -0.984375q0 -0.546875 -0.3125 -0.9375q-0.3125 -0.40625 -1.03125 -0.6875q-0.453125 -0.171875 -2.03125 -0.546875q-1.578125 -0.390625 -2.21875 -0.71875q-0.8125 -0.4375 -1.21875 -1.0625q-0.40625 -0.640625 -0.40625 -1.4375q0 -0.859375 0.484375 -1.609375q0.5 -0.765625 1.4375 -1.15625q0.953125 -0.390625 2.109375 -0.390625q1.28125 0 2.25 0.421875q0.96875 0.40625 1.484375 1.203125q0.53125 0.796875 0.578125 1.796875l-1.453125 0.109375q-0.125 -1.078125 -0.796875 -1.625q-0.671875 -0.5625 -2.0 -0.5625q-1.375 0 -2.0 0.5q-0.625 0.5 -0.625 1.21875q0 0.609375 0.4375 1.015625q0.4375 0.390625 2.28125 0.8125q1.859375 0.421875 2.546875 0.734375q1.0 0.453125 1.46875 1.171875q0.484375 0.703125 0.484375 1.625q0 0.90625 -0.53125 1.71875q-0.515625 0.8125 -1.5 1.265625q-0.984375 0.453125 -2.203125 0.453125q-1.5625 0 -2.609375 -0.453125q-1.046875 -0.46875 -1.65625 -1.375q-0.59375 -0.90625 -0.625 -2.0625zm11.21875 3.6875l0 -11.453125l8.28125 0l0 1.34375l-6.765625 0l0 3.515625l6.34375 0l0 1.34375l-6.34375 0l0 3.890625l7.03125 0l0 1.359375l-8.546875 0zm13.5625 0l0 -10.109375l-3.78125 0l0 -1.34375l9.078125 0l0 1.34375l-3.78125 0l0 10.109375l-1.515625 0zm10.4453125 -3.03125l1.40625 -0.1875q0.25 1.203125 0.828125 1.734375q0.578125 0.515625 1.421875 0.515625q0.984375 0 1.671875 -0.6875q0.6875 -0.6875 0.6875 -1.703125q0 -0.96875 -0.640625 -1.59375q-0.625 -0.625 -1.609375 -0.625q-0.390625 0 -0.984375 0.15625l0.15625 -1.234375q0.140625 0.015625 0.21875 0.015625q0.90625 0 1.625 -0.46875q0.71875 -0.46875 0.71875 -1.453125q0 -0.765625 -0.53125 -1.265625q-0.515625 -0.515625 -1.34375 -0.515625q-0.828125 0 -1.375 0.515625q-0.546875 0.515625 -0.703125 1.546875l-1.40625 -0.25q0.265625 -1.421875 1.171875 -2.1875q0.921875 -0.78125 2.28125 -0.78125q0.9375 0 1.71875 0.40625q0.796875 0.390625 1.203125 1.09375q0.421875 0.6875 0.421875 1.46875q0 0.75 -0.40625 1.359375q-0.390625 0.609375 -1.171875 0.96875q1.015625 0.234375 1.578125 0.96875q0.5625 0.734375 0.5625 1.84375q0 1.5 -1.09375 2.546875q-1.09375 1.046875 -2.765625 1.046875q-1.5 0 -2.5 -0.890625q-1.0 -0.90625 -1.140625 -2.34375z" fill-rule="nonzero"/><path fill="#000000" fill-opacity="0.0" d="m642.79266 245.73753l-10.078735 -85.95276" fill-rule="evenodd"/><path stroke="#002142" stroke-width="1.0" stroke-linejoin="round" stroke-linecap="butt" d="m642.79266 245.73753l-9.380005 -79.993576" fill-rule="evenodd"/><path fill="#002142" stroke="#002142" stroke-width="1.0" stroke-linecap="butt" d="m635.05316 165.55159l-2.1690063 -4.314865l-1.1119995 4.699585z" fill-rule="evenodd"/><path fill="#000000" fill-opacity="0.0" d="m558.46124 233.95181l176.78741 0l0 62.04724l-176.78741 0z" fill-rule="evenodd"/><path fill="#002142" d="m628.019 270.83542l0 -11.453125l1.515625 0l0 10.09375l5.640625 0l0 1.359375l-7.15625 0zm7.6953125 0l4.40625 -11.453125l1.640625 0l4.6875 11.453125l-1.734375 0l-1.328125 -3.46875l-4.796875 0l-1.25 3.46875l-1.625 0zm3.3125 -4.703125l3.890625 0l-1.203125 -3.171875q-0.546875 -1.453125 -0.8125 -2.375q-0.21875 1.09375 -0.609375 2.1875l-1.265625 3.359375zm8.109375 1.015625l1.4375 -0.125q0.09375 0.859375 0.46875 1.421875q0.375 0.546875 1.15625 0.890625q0.78125 0.328125 1.75 0.328125q0.875 0 1.53125 -0.25q0.671875 -0.265625 0.984375 -0.703125q0.328125 -0.453125 0.328125 -0.984375q0 -0.546875 -0.3125 -0.9375q-0.3125 -0.40625 -1.03125 -0.6875q-0.453125 -0.171875 -2.03125 -0.546875q-1.578125 -0.390625 -2.21875 -0.71875q-0.8125 -0.4375 -1.21875 -1.0625q-0.40625 -0.640625 -0.40625 -1.4375q0 -0.859375 0.484375 -1.609375q0.5 -0.765625 1.4375 -1.15625q0.953125 -0.390625 2.109375 -0.390625q1.28125 0 2.25 0.421875q0.96875 0.40625 1.484375 1.203125q0.53125 0.796875 0.578125 1.796875l-1.453125 0.109375q-0.125 -1.078125 -0.796875 -1.625q-0.671875 -0.5625 -2.0 -0.5625q-1.375 0 -2.0 0.5q-0.625 0.5 -0.625 1.21875q0 0.609375 0.4375 1.015625q0.4375 0.390625 2.28125 0.8125q1.859375 0.421875 2.546875 0.734375q1.0 0.453125 1.46875 1.171875q0.484375 0.703125 0.484375 1.625q0 0.90625 -0.53125 1.71875q-0.515625 0.8125 -1.5 1.265625q-0.984375 0.453125 -2.203125 0.453125q-1.5625 0 -2.609375 -0.453125q-1.046875 -0.46875 -1.65625 -1.375q-0.59375 -0.90625 -0.625 -2.0625zm14.109375 3.6875l0 -10.109375l-3.78125 0l0 -1.34375l9.078125 0l0 1.34375l-3.78125 0l0 10.109375l-1.515625 0z" fill-rule="nonzero"/><path fill="#1a428a" d="m681.2731 85.657906l72.8504 0l0 62.04725l-72.8504 0z" fill-rule="evenodd"/><path fill="#ffffff" d="m704.4016 124.16153l0 -15.265625l4.609375 0l2.765625 10.40625l2.734375 -10.40625l4.625 0l0 15.265625l-2.859375 0l0 -12.015625l-3.03125 12.015625l-2.96875 0l-3.015625 -12.015625l0 12.015625l-2.859375 0z" fill-rule="nonzero"/><path fill="#ffffff" d="m731.8216 124.47403l-1.890625 0.203125q-0.078125 -0.578125 -0.375 -0.84375q-0.28125 -0.28125 -0.75 -0.28125q-0.609375 0 -1.046875 0.5625q-0.421875 0.546875 -0.53125 2.296875q0.734375 -0.859375 1.8125 -0.859375q1.21875 0 2.09375 0.9375q0.875 0.921875 0.875 2.390625q0 1.5625 -0.921875 2.515625q-0.921875 0.9375 -2.359375 0.9375q-1.53125 0 -2.53125 -1.1875q-0.984375 -1.203125 -0.984375 -3.9375q0 -2.796875 1.03125 -4.03125q1.03125 -1.234375 2.6875 -1.234375q1.15625 0 1.90625 0.65625q0.765625 0.640625 0.984375 1.875zm-4.421875 4.25q0 0.953125 0.4375 1.484375q0.4375 0.515625 1.0 0.515625q0.53125 0 0.890625 -0.421875q0.359375 -0.4375 0.359375 -1.390625q0 -1.0 -0.390625 -1.453125q-0.375 -0.46875 -0.96875 -0.46875q-0.5625 0 -0.953125 0.4375q-0.375 0.4375 -0.375 1.296875z" fill-rule="nonzero"/><path fill="#1a428a" d="m768.6615 85.663155l72.8504 0l0 62.04725l-72.8504 0z" fill-rule="evenodd"/><path fill="#ffffff" d="m791.79004 124.16678l0 -15.265625l4.609375 0l2.765625 10.40625l2.734375 -10.40625l4.625 0l0 15.265625l-2.859375 0l0 -12.015625l-3.03125 12.015625l-2.96875 0l-3.015625 -12.015625l0 12.015625l-2.859375 0z" fill-rule="nonzero"/><path fill="#ffffff" d="m812.60065 123.9324l0 -1.8125l6.671875 0l0 1.421875q-0.828125 0.8125 -1.6875 2.34375q-0.859375 1.515625 -1.3125 3.234375q-0.4375 1.703125 -0.421875 3.046875l-1.890625 0q0.046875 -2.109375 0.875 -4.296875q0.828125 -2.203125 2.203125 -3.9375l-4.4375 0z" fill-rule="nonzero"/><path fill="#000000" fill-opacity="0.0" d="m130.7559 77.31759l444.37793 0l0 110.58268l-444.37793 0z" fill-rule="evenodd"/><path stroke="#1a428a" stroke-width="2.0" stroke-linejoin="round" stroke-linecap="butt" d="m130.7559 77.31759l444.37793 0l0 110.58268l-444.37793 0z" fill-rule="evenodd"/><path fill="#ffffff" d="m331.818 171.52089l2.046875 0.65625q-0.46875 1.71875 -1.578125 2.546875q-1.09375 0.828125 -2.78125 0.828125q-2.078125 0 -3.4375 -1.421875q-1.34375 -1.421875 -1.34375 -3.90625q0 -2.609375 1.359375 -4.0625q1.359375 -1.453125 3.5625 -1.453125q1.921875 0 3.125 1.140625q0.71875 0.671875 1.0625 1.9375l-2.09375 0.5q-0.1875 -0.828125 -0.78125 -1.296875q-0.578125 -0.46875 -1.421875 -0.46875q-1.171875 0 -1.90625 0.84375q-0.71875 0.828125 -0.71875 2.703125q0 1.984375 0.71875 2.84375q0.71875 0.84375 1.859375 0.84375q0.84375 0 1.453125 -0.53125q0.609375 -0.546875 0.875 -1.703125zm5.865509 -6.625l0 3.84375q0.96875 -1.125 2.3125 -1.125q0.703125 0 1.25 0.265625q0.5625 0.25 0.84375 0.65625q0.28125 0.390625 0.390625 0.875q0.109375 0.484375 0.109375 1.515625l0 4.453125l-2.015625 0l0 -4.015625q0 -1.1875 -0.125 -1.515625q-0.109375 -0.328125 -0.40625 -0.515625q-0.28125 -0.1875 -0.71875 -0.1875q-0.5 0 -0.890625 0.25q-0.390625 0.234375 -0.578125 0.734375q-0.171875 0.484375 -0.171875 1.4375l0 3.8125l-2.015625 0l0 -10.484375l2.015625 0zm11.937012 10.484375l0 -1.140625q-0.40625 0.609375 -1.09375 0.96875q-0.671875 0.34375 -1.421875 0.34375q-0.765625 0 -1.375 -0.328125q-0.609375 -0.34375 -0.875 -0.953125q-0.265625 -0.609375 -0.265625 -1.6875l0 -4.796875l2.0 0l0 3.484375q0 1.609375 0.109375 1.96875q0.109375 0.359375 0.40625 0.578125q0.296875 0.203125 0.75 0.203125q0.515625 0 0.921875 -0.28125q0.40625 -0.28125 0.546875 -0.703125q0.15625 -0.421875 0.15625 -2.046875l0 -3.203125l2.015625 0l0 7.59375l-1.875 0zm10.874481 0l-2.015625 0l0 -3.875q0 -1.234375 -0.125 -1.59375q-0.125 -0.359375 -0.421875 -0.5625q-0.296875 -0.203125 -0.703125 -0.203125q-0.515625 0 -0.9375 0.296875q-0.40625 0.28125 -0.5625 0.75q-0.15625 0.46875 -0.15625 1.75l0 3.4375l-2.015625 0l0 -7.59375l1.875 0l0 1.109375q1.0 -1.28125 2.5 -1.28125q0.671875 0 1.21875 0.234375q0.546875 0.234375 0.828125 0.609375q0.296875 0.375 0.40625 0.84375q0.109375 0.46875 0.109375 1.359375l0 4.71875zm1.9682617 0l0 -10.484375l2.0 0l0 5.5625l2.359375 -2.671875l2.484375 0l-2.609375 2.765625l2.796875 4.828125l-2.171875 0l-1.921875 -3.40625l-0.9375 0.96875l0 2.4375l-2.0 0zm17.004333 0l-2.015625 0l0 -7.578125q-1.09375 1.03125 -2.59375 1.53125l0 -1.828125q0.796875 -0.265625 1.71875 -0.984375q0.921875 -0.71875 1.265625 -1.671875l1.625 0l0 10.53125z" fill-rule="nonzero"/><path fill="#000000" fill-opacity="0.0" d="m584.9029 77.31759l269.22833 0l0 110.58268l-269.22833 0z" fill-rule="evenodd"/><path stroke="#1a428a" stroke-width="2.0" stroke-linejoin="round" stroke-linecap="butt" d="m584.9029 77.31759l269.22833 0l0 110.58268l-269.22833 0z" fill-rule="evenodd"/><path fill="#ffffff" d="m698.39014 171.52089l2.046875 0.65625q-0.46875 1.71875 -1.578125 2.546875q-1.09375 0.828125 -2.78125 0.828125q-2.078125 0 -3.4375 -1.421875q-1.34375 -1.421875 -1.34375 -3.90625q0 -2.609375 1.359375 -4.0625q1.359375 -1.453125 3.5625 -1.453125q1.921875 0 3.125 1.140625q0.71875 0.671875 1.0625 1.9375l-2.09375 0.5q-0.1875 -0.828125 -0.78125 -1.296875q-0.578125 -0.46875 -1.421875 -0.46875q-1.171875 0 -1.90625 0.84375q-0.71875 0.828125 -0.71875 2.703125q0 1.984375 0.71875 2.84375q0.71875 0.84375 1.859375 0.84375q0.84375 0 1.453125 -0.53125q0.609375 -0.546875 0.875 -1.703125zm5.8655396 -6.625l0 3.84375q0.96875 -1.125 2.3125 -1.125q0.703125 0 1.25 0.265625q0.5625 0.25 0.84375 0.65625q0.28125 0.390625 0.390625 0.875q0.109375 0.484375 0.109375 1.515625l0 4.453125l-2.015625 0l0 -4.015625q0 -1.1875 -0.125 -1.515625q-0.109375 -0.328125 -0.40625 -0.515625q-0.28125 -0.1875 -0.71875 -0.1875q-0.5 0 -0.890625 0.25q-0.390625 0.234375 -0.578125 0.734375q-0.171875 0.484375 -0.171875 1.4375l0 3.8125l-2.015625 0l0 -10.484375l2.015625 0zm11.937012 10.484375l0 -1.140625q-0.40625 0.609375 -1.09375 0.96875q-0.671875 0.34375 -1.421875 0.34375q-0.765625 0 -1.375 -0.328125q-0.609375 -0.34375 -0.875 -0.953125q-0.265625 -0.609375 -0.265625 -1.6875l0 -4.796875l2.0 0l0 3.484375q0 1.609375 0.109375 1.96875q0.109375 0.359375 0.40625 0.578125q0.296875 0.203125 0.75 0.203125q0.515625 0 0.921875 -0.28125q0.40625 -0.28125 0.546875 -0.703125q0.15625 -0.421875 0.15625 -2.046875l0 -3.203125l2.015625 0l0 7.59375l-1.875 0zm10.874451 0l-2.015625 0l0 -3.875q0 -1.234375 -0.125 -1.59375q-0.125 -0.359375 -0.421875 -0.5625q-0.296875 -0.203125 -0.703125 -0.203125q-0.515625 0 -0.9375 0.296875q-0.40625 0.28125 -0.5625 0.75q-0.15625 0.46875 -0.15625 1.75l0 3.4375l-2.015625 0l0 -7.59375l1.875 0l0 1.109375q1.0 -1.28125 2.5 -1.28125q0.671875 0 1.21875 0.234375q0.546875 0.234375 0.828125 0.609375q0.296875 0.375 0.40625 0.84375q0.109375 0.46875 0.109375 1.359375l0 4.71875zm1.9682617 0l0 -10.484375l2.0 0l0 5.5625l2.359375 -2.671875l2.484375 0l-2.609375 2.765625l2.796875 4.828125l-2.171875 0l-1.921875 -3.40625l-0.9375 0.96875l0 2.4375l-2.0 0zm18.644958 -1.875l0 1.875l-7.046875 0q0.125 -1.0625 0.6875 -2.0q0.578125 -0.953125 2.265625 -2.515625q1.359375 -1.28125 1.671875 -1.71875q0.40625 -0.625 0.40625 -1.234375q0 -0.671875 -0.359375 -1.03125q-0.359375 -0.359375 -1.0 -0.359375q-0.625 0 -1.0 0.375q-0.375 0.375 -0.421875 1.25l-2.015625 -0.1875q0.1875 -1.671875 1.125 -2.390625q0.953125 -0.71875 2.375 -0.71875q1.546875 0 2.421875 0.84375q0.890625 0.828125 0.890625 2.078125q0 0.703125 -0.25 1.34375q-0.25 0.640625 -0.796875 1.34375q-0.375 0.46875 -1.328125 1.34375q-0.9375 0.859375 -1.203125 1.15625q-0.25 0.28125 -0.40625 0.546875l3.984375 0z" fill-rule="nonzero"/><path fill="#000000" fill-opacity="0.0" d="m942.4724 244.82152l-37.763733 -85.03937" fill-rule="evenodd"/><path stroke="#002142" stroke-width="1.0" stroke-linejoin="round" stroke-linecap="butt" d="m942.4724 244.82152l-35.328613 -79.55574" fill-rule="evenodd"/><path fill="#002142" stroke="#002142" stroke-width="1.0" stroke-linecap="butt" d="m908.6534 164.59541l-3.3513794 -3.4771729l0.33221436 4.8179016z" fill-rule="evenodd"/><path fill="#000000" fill-opacity="0.0" d="m862.46124 233.95181l176.78741 0l0 62.04724l-176.78741 0z" fill-rule="evenodd"/><path fill="#002142" d="m930.73773 270.83542l0 -11.453125l1.5625 0l6.015625 8.984375l0 -8.984375l1.453125 0l0 11.453125l-1.5625 0l-6.015625 -9.0l0 9.0l-1.453125 0zm11.6015625 0l0 -11.453125l8.28125 0l0 1.34375l-6.765625 0l0 3.515625l6.34375 0l0 1.34375l-6.34375 0l0 3.890625l7.03125 0l0 1.359375l-8.546875 0zm9.484375 0l4.421875 -5.96875l-3.90625 -5.484375l1.8125 0l2.078125 2.9375q0.640625 0.90625 0.921875 1.40625q0.375 -0.625 0.90625 -1.3125l2.296875 -3.03125l1.65625 0l-4.03125 5.390625l4.34375 6.0625l-1.875 0l-2.890625 -4.09375q-0.234375 -0.34375 -0.5 -0.765625q-0.375 0.625 -0.546875 0.859375l-2.875 4.0l-1.8125 0zm14.75 0l0 -10.109375l-3.78125 0l0 -1.34375l9.078125 0l0 1.34375l-3.78125 0l0 10.109375l-1.515625 0z" fill-rule="nonzero"/></g></svg>