<svg xmlns="http://www.w3.org/2000/svg" baseProfile="tiny" viewBox="0 0 700 600" overflow="visible" fill="#fff" xmlns:v="https://vecta.io/nano"><path d="M135.9 476.5l3.8 8.9 3.8-9.1 4.1-8.5 39.6-78c.7-1.3 1.4-2.4 2.2-3.1.7-.7 1.6-1.3 2.5-1.6.9-.4 2-.5 3.1-.5h31.4v154.1h-31.5V450c0-4.3.2-9 .6-14l-40.8 79.3c-1.3 2.5-3 4.3-5.1 5.6-2.2 1.3-4.6 1.9-7.4 1.9h-4.9c-2.8 0-5.2-.6-7.4-1.9s-3.9-3.1-5.1-5.6l-41.1-79.4c.3 2.5.5 4.9.6 7.4l.2 6.7v88.7H53V384.5h31.4c1.2 0 2.2.2 3.1.5a9.63 9.63 0 0 1 2.5 1.6c.7.7 1.5 1.8 2.2 3.1l39.7 78.3 4 8.5zm259.5-15c0 6.6-.7 13-2.1 19.1s-3.4 11.8-5.9 17.2c-2.6 5.4-5.8 10.3-9.5 14.9-3.8 4.6-8.1 8.6-12.9 12.2l39 42.6h-29.4c-4.2 0-8.1-.5-11.5-1.5-3.5-1-6.5-3.1-9.2-6.2l-19.2-21.5c-3.1.6-6.3 1.1-9.5 1.5s-6.5.5-9.9.5c-12 0-22.9-2-32.8-6s-18.3-9.6-25.3-16.7a74.13 74.13 0 0 1-16.3-25c-3.8-9.6-5.8-20-5.8-31.1s1.9-21.5 5.8-31.1a74.13 74.13 0 0 1 16.3-25c7-7.1 15.5-12.6 25.3-16.6 9.9-4 20.8-6 32.8-6s22.9 2 32.7 6.1 18.3 9.6 25.2 16.7c7 7.1 12.4 15.4 16.2 25 4.1 9.5 6 19.8 6 30.9zm-36.6 0c0-7.6-1-14.5-3-20.6s-4.8-11.3-8.5-15.5-8.2-7.5-13.6-9.7c-5.4-2.3-11.5-3.4-18.3-3.4-6.9 0-13.1 1.1-18.5 3.4s-9.9 5.5-13.6 9.7-6.5 9.4-8.5 15.5-3 13-3 20.6c0 7.7 1 14.6 3 20.7s4.8 11.3 8.5 15.5 8.3 7.5 13.6 9.7c5.4 2.2 11.5 3.3 18.5 3.3 6.8 0 12.9-1.1 18.3-3.3s9.9-5.4 13.6-9.7c3.7-4.2 6.5-9.4 8.5-15.5s3-13 3-20.7zm151-77.1v28.4h-41.4v125.8h-35.8V412.8h-41.4v-28.4h118.6zm137.2 0v28.4h-43.4v125.8h-35.8V412.8h-41.4v-28.4H647zm-449.9-180v117.1c0 8.4 6.8 15.3 15.3 15.3H332c-1-73.2-61.1-132.4-134.9-132.4zm0-96.6v49.8c99 .9 179.4 80.7 180.4 179.1h51.7c-1-126.3-104.7-228.8-232.1-228.9zm305.8 213.6V217.3C468.1 130.9 397.3 62.7 309 30.8h-96.6c-8.4 0-15.3 6.8-15.3 15.3v15c152.6.9 276.6 124 277.6 275.6h13c8.4 0 15.2-6.8 15.2-15.3zM463.6 73.6c14.5 14.4 27.6 29.7 39.4 47.8V48.1c0-10.4-6.8-17.3-15.3-17.3h-77.3c18 12.6 37.2 26.9 53.2 42.8z"/></svg>