<?xml version="1.0" encoding="UTF-8"?>
<svg width="984px" height="305px" viewBox="0 0 984 305" version="1.1" xmlns="http://www.w3.org/2000/svg" xmlns:xlink="http://www.w3.org/1999/xlink">
    <!-- Generator: Sketch 49.1 (51147) - http://www.bohemiancoding.com/sketch -->
    <title>Artboard Copy</title>
    <desc>Created with Sketch.</desc>
    <defs>
        <path d="M110.088867,63.2858654 L110.088867,135.616164 C110.088867,148.318714 99.7914164,158.616164 87.0888672,158.616164 L23,158.616164 C10.2974508,158.616164 -1.99710005e-15,148.318714 -3.55271368e-15,135.616164 L-1.26462443e-16,63.2858654 L1.57772181e-30,55.0444336 C3.38247644e-15,24.6442324 24.6442324,5.58442637e-15 55.0444336,0 C85.4446348,-5.58442637e-15 110.088867,24.6442324 110.088867,55.0444336 L110.088867,63.2858654 Z" id="path-1"></path>
        <circle id="path-3" cx="14.5" cy="14.5" r="14.5"></circle>
        <path d="M596,259.697011 C599.878049,255.388068 603.002033,252.587255 605.371951,251.294572 C607.74187,250.001889 611.512195,249.463271 616.682927,249.678718 C619.268293,247.739694 621.961382,246.554734 624.762195,246.12384 C628.963415,245.477499 631.871951,247.416523 635.75,250.64823 C639.628049,253.879938 642.536585,256.142133 644.79878,256.465304 C646.306911,256.680751 647.168699,256.35758 647.384146,255.495791 L649,257.434816 C647.922764,258.296604 646.953252,258.835222 646.091463,259.050669 C644.79878,259.37384 641.243902,259.050669 639.304878,257.434816 C637.365854,255.818962 630.256098,249.678718 627.02439,248.709206 C624.869919,248.062865 622.607724,248.709206 620.237805,250.64823 C620.237805,251.294572 621.422764,252.587255 623.792683,254.526279 C627.347561,257.434816 626.054878,261.959206 625.408537,263.251889 C624.762195,264.544572 619.914634,266.806767 615.713415,263.57506 C612.912602,261.420588 612.481707,257.86571 614.420732,252.910425 C611.835366,253.125873 609.465447,253.556767 607.310976,254.203108 C605.156504,254.84945 601.924797,257.219369 597.615854,261.312865 L596,259.697011 Z M617.329268,253.556767 C616.252033,256.142133 616.036585,258.296604 616.682927,260.020182 C617.652439,262.605547 621.207317,262.605547 622.176829,262.282377 C623.146341,261.959206 624.115854,258.081157 621.530488,256.142133 C619.806911,254.84945 618.406504,253.987661 617.329268,253.556767 Z" id="path-5"></path>
        <circle id="path-6" cx="659" cy="40" r="6"></circle>
        <circle id="path-7" cx="622.5" cy="185.5" r="3.5"></circle>
        <path d="M575.143582,104.770942 C579.02163,100.461999 582.145614,97.6611856 584.515533,96.3685027 C586.885451,95.0758197 590.655777,94.5372019 595.826508,94.752649 C598.411874,92.8136246 601.104964,91.6286653 603.905777,91.197771 C608.106996,90.5514295 611.015533,92.4904539 614.893582,95.7221612 C618.77163,98.9538685 621.680167,101.216064 623.942362,101.539234 C625.450492,101.754682 626.312281,101.431511 626.527728,100.569722 L628.143582,102.508747 C627.066346,103.370535 626.096834,103.909153 625.235045,104.1246 C623.942362,104.447771 620.387484,104.1246 618.44846,102.508747 C616.509435,100.892893 609.399679,94.752649 606.167972,93.7831368 C604.0135,93.1367954 601.751305,93.7831368 599.381386,95.7221612 C599.381386,96.3685027 600.566346,97.6611856 602.936264,99.60021 C606.491142,102.508747 605.19846,107.033137 604.552118,108.32582 C603.905777,109.618503 599.058216,111.880698 594.856996,108.64899 C592.056183,106.494519 591.625289,102.939641 593.564313,97.9843563 C590.978947,98.1998035 588.609029,98.6306978 586.454557,99.2770393 C584.300086,99.9233807 581.068378,102.293299 576.759435,106.386795 L575.143582,104.770942 Z M596.47285,98.6306978 C595.395614,101.216064 595.180167,103.370535 595.826508,105.094112 C596.796021,107.679478 600.350899,107.679478 601.320411,107.356308 C602.289923,107.033137 603.259435,103.155088 600.674069,101.216064 C598.950492,99.9233807 597.550086,99.0615921 596.47285,98.6306978 Z" id="path-8"></path>
        <path d="M913.199997,256.577947 C917.134921,252.310566 920.01664,249.678189 921.845155,248.680818 C923.673669,247.683446 926.58267,247.267875 930.572156,247.434103 C932.5669,245.938046 934.644757,245.023788 936.805729,244.691331 C940.047187,244.192645 942.291273,245.688703 945.283388,248.182132 C948.275503,250.675561 950.519589,252.420961 952.264989,252.670304 C953.42859,252.836533 954.093504,252.58719 954.259733,251.922276 L955.506447,253.418333 C954.675304,254.083247 953.927275,254.498819 953.262361,254.665048 C952.264989,254.91439 949.522217,254.665048 948.02616,253.418333 C946.530103,252.171618 941.044559,247.434103 938.55113,246.686075 C936.888843,246.187389 935.143443,246.686075 933.314928,248.182132 C933.314928,248.680818 934.229186,249.678189 936.0577,251.174247 C938.800472,253.418333 937.803101,256.909134 937.304415,257.906505 C936.805729,258.903877 933.065586,260.649277 929.824128,258.155848 C927.663156,256.493562 927.330699,253.75079 928.826756,249.927532 C926.832013,250.093761 925.003498,250.426218 923.341212,250.924904 C921.678926,251.42359 919.185497,253.252104 915.860925,256.410448 L913.199997,256.577947 Z M931.070842,250.426218 C930.239699,252.420961 930.073471,254.083247 930.572156,255.413076 C931.320185,257.40782 934.062957,257.40782 934.810986,257.158477 C935.559015,256.909134 936.307043,253.917019 934.3123,252.420961 C932.982471,251.42359 931.901985,250.758675 931.070842,250.426218 Z" id="path-9"></path>
    </defs>
    <g id="Artboard-Copy" stroke="none" stroke-width="1" fill="none" fill-rule="evenodd">
        <g id="Group-8" transform="translate(788.500000, 182.000000) scale(-1, 1) translate(-788.500000, -182.000000) translate(647.000000, 7.000000)">
            <path d="M111.799126,100.067379 C111.330692,98.8064015 110.115468,96.8792594 110.059902,94.3641001 C109.784595,81.9023679 109.784595,89.3900621 109.784595,71.2472297 C109.784595,41.6032244 100.399704,23.9975322 91.0669427,23.9975322 C90.278488,23.9975322 89.4786302,24.1243126 88.6755142,24.3795867 C81.897085,26.5399939 74.1654497,38.8040387 80.1996269,66.1383208 C85.4427595,89.8892418 89.2815539,94.465053 91.0659151,98.9704316 C92.4907007,102.567908 92.1105814,98.7895841 93.5050384,105.354755 C87.313063,109.802349 99.6930022,105.933511 98.4060617,112.251974 C110.081768,106.81852 119.575893,102.400296 126.888436,98.9973018 C134.200979,102.400296 143.695103,106.81852 155.37081,112.251974 C154.083869,105.933511 168.200289,99.9542718 162.008315,95.5066771 C163.402771,88.9415065 163.022652,92.7198309 164.447438,89.122354 C166.231799,84.6169754 170.970398,76.143684 176.21353,52.392763 C182.247707,25.0584809 174.516072,12.7944361 167.737643,10.634029 C166.934527,10.3787548 166.134669,10.2519744 165.346215,10.2519744 C156.013453,10.2519744 146.628562,27.8576666 146.628562,57.5016719 C146.628562,75.6445043 146.628562,68.1568101 146.353254,80.6185423 C146.297689,83.1337016 144.18266,88.958324 143.714226,90.2193018 C141.96997,90.0350031 139.7126,89.9608897 137.452486,89.9608897 C135.878494,89.9608897 131.603459,89.9967454 126.888436,90.055881 C122.173412,89.9967454 119.63486,99.8089673 118.060867,99.8089673 C115.800752,99.8089673 113.543383,99.8830807 111.799126,100.067379 Z" id="Combined-Shape" stroke="#F06823" stroke-width="3" fill="#FFFFFF" fill-rule="nonzero" transform="translate(128.206578, 61.251974) scale(-1, 1) rotate(13.000000) translate(-128.206578, -61.251974) "></path>
            <g id="Group-2" transform="translate(198.500000, 180.500000) rotate(-45.000000) translate(-198.500000, -180.500000) translate(157.000000, 162.000000)">
                <g id="Oval-15" transform="translate(0.000000, 20.000000)">
                    <g id="path-1-link" fill="#FFFFFF">
                        <circle id="path-1" cx="8.33896484" cy="8.3389648" r="8.33896484"></circle>
                    </g>
                    <circle id="Oval" stroke="#F06823" stroke-width="3" cx="8.33896484" cy="8.3389648" r="6.83896484"></circle>
                </g>
                <g id="Oval-15" transform="translate(7.000000, 20.000000)">
                    <g id="path-2-link" fill="#FFFFFF">
                        <circle id="path-2" cx="8.8389648" cy="8.3389648" r="8.33896484"></circle>
                    </g>
                    <circle id="Oval" stroke="#F06823" stroke-width="3" cx="8.8389648" cy="8.3389648" r="6.83896484"></circle>
                </g>
                <g id="Oval-15" transform="translate(16.000000, 20.000000)">
                    <g id="path-1-link" fill="#FFFFFF">
                        <circle id="path-1" cx="8.33896484" cy="8.3389648" r="8.33896484"></circle>
                    </g>
                    <circle id="Oval" stroke="#F06823" stroke-width="3" cx="8.33896484" cy="8.3389648" r="6.83896484"></circle>
                </g>
                <g id="Oval-15" transform="translate(23.000000, 20.000000)">
                    <g id="path-2-link" fill="#FFFFFF">
                        <circle id="path-2" cx="8.8389648" cy="8.3389648" r="8.33896484"></circle>
                    </g>
                    <circle id="Oval" stroke="#F06823" stroke-width="3" cx="8.8389648" cy="8.3389648" r="6.83896484"></circle>
                </g>
                <g id="Oval-15" transform="translate(31.000000, 20.000000)">
                    <g id="path-3-link" fill="#FFFFFF">
                        <circle id="path-3" cx="8.3389648" cy="8.3389648" r="8.33896484"></circle>
                    </g>
                    <circle id="Oval" stroke="#F06823" stroke-width="3" cx="8.3389648" cy="8.3389648" r="6.83896484"></circle>
                </g>
                <g id="Oval-15" transform="translate(38.000000, 20.000000)">
                    <g id="path-4-link" fill="#FFFFFF">
                        <circle id="path-4" cx="8.8389648" cy="8.3389648" r="8.33896484"></circle>
                    </g>
                    <circle id="Oval" stroke="#F06823" stroke-width="3" cx="8.8389648" cy="8.3389648" r="6.83896484"></circle>
                </g>
                <g id="Group-4" transform="translate(73.629144, 28.384013) rotate(89.000000) translate(-73.629144, -28.384013) translate(65.129144, 0.384013)">
                    <g id="Oval-15" transform="translate(0.000000, 39.000000)">
                        <g id="path-5-link" fill="#FFFFFF">
                            <circle id="path-5" cx="8.3389648" cy="8.3389648" r="8.33896484"></circle>
                        </g>
                        <circle id="Oval" stroke="#F06823" stroke-width="3" cx="8.3389648" cy="8.3389648" r="6.83896484"></circle>
                    </g>
                    <g id="Oval-15" transform="translate(0.000000, 32.000000)">
                        <g id="path-6-link" fill="#FFFFFF">
                            <circle id="path-6" cx="8.3389648" cy="8.3389648" r="8.33896484"></circle>
                        </g>
                        <circle id="Oval" stroke="#F06823" stroke-width="3" cx="8.3389648" cy="8.3389648" r="6.83896484"></circle>
                    </g>
                    <g id="Oval-15" transform="translate(0.000000, 24.000000)">
                        <g id="path-7-link" fill="#FFFFFF">
                            <circle id="path-7" cx="8.3389648" cy="8.3389648" r="8.33896484"></circle>
                        </g>
                        <circle id="Oval" stroke="#F06823" stroke-width="3" cx="8.3389648" cy="8.3389648" r="6.83896484"></circle>
                    </g>
                    <g id="Oval-15" transform="translate(0.000000, 16.000000)">
                        <g id="path-8-link" fill="#FFFFFF">
                            <circle id="path-8" cx="8.3389648" cy="8.3389648" r="8.33896484"></circle>
                        </g>
                        <circle id="Oval" stroke="#F06823" stroke-width="3" cx="8.3389648" cy="8.3389648" r="6.83896484"></circle>
                    </g>
                    <g id="Oval-15" transform="translate(0.000000, 8.000000)">
                        <g id="path-9-link" fill="#FFFFFF">
                            <circle id="path-9" cx="8.3389648" cy="8.3389648" r="8.33896484"></circle>
                        </g>
                        <circle id="Oval" stroke="#F06823" stroke-width="3" cx="8.3389648" cy="8.3389648" r="6.83896484"></circle>
                    </g>
                    <g id="Oval-15">
                        <g id="path-10-link" fill="#FFFFFF">
                            <circle id="path-10" cx="8.3389648" cy="8.33896484" r="8.33896484"></circle>
                        </g>
                        <circle id="Oval" stroke="#F06823" stroke-width="3" cx="8.3389648" cy="8.33896484" r="6.83896484"></circle>
                    </g>
                </g>
            </g>
            <g id="Group-15" transform="translate(81.000000, 191.000000)">
                <g id="Mask" fill="#FFFFFF" fill-rule="nonzero">
                    <path d="M110.088867,63.2858654 L110.088867,135.616164 C110.088867,148.318714 99.7914164,158.616164 87.0888672,158.616164 L23,158.616164 C10.2974508,158.616164 -1.99710005e-15,148.318714 -3.55271368e-15,135.616164 L-1.26462443e-16,63.2858654 L1.57772181e-30,55.0444336 C3.38247644e-15,24.6442324 24.6442324,5.58442637e-15 55.0444336,0 C85.4446348,-5.58442637e-15 110.088867,24.6442324 110.088867,55.0444336 L110.088867,63.2858654 Z" id="path-22"></path>
                </g>
                <g id="Path-10-Clipped">
                    <mask id="mask-2" fill="white">
                        <use xlink:href="#path-1"></use>
                    </mask>
                    <g id="path-22"></g>
                    <g id="Path-10" mask="url(#mask-2)">
                        <g transform="translate(-100.000000, 0.000000)" id="Group">
                            <g>
                                <path d="M88,127.262033 L215.262033,-2.27373675e-13" id="Shape" stroke="#F06823" stroke-width="3"></path>
                                <path d="M99,127.262033 L226.262033,-2.27373675e-13" id="Shape" stroke="#F06823" stroke-width="3"></path>
                                <path d="M110,127.262033 L237.262033,-2.27373675e-13" id="Shape" stroke="#F06823" stroke-width="3"></path>
                                <path d="M121,127.262033 L248.262033,-2.27373675e-13" id="Shape" stroke="#F06823" stroke-width="3"></path>
                                <path d="M132,127.262033 L259.262033,-2.27373675e-13" id="Shape" stroke="#F06823" stroke-width="3"></path>
                                <path d="M143,127.262033 L270.262033,-2.27373675e-13" id="Shape" stroke="#F06823" stroke-width="3"></path>
                                <path d="M154,127.262033 L281.262033,-2.27373675e-13" id="Shape" stroke="#F06823" stroke-width="3"></path>
                                <path d="M165,127.262033 L292.262033,-2.27373675e-13" id="Shape" stroke="#F06823" stroke-width="3"></path>
                                <path d="M0,127.262033 L127.262033,-2.27373675e-13" id="Shape" stroke="#F06823" stroke-width="3"></path>
                                <path d="M11,127.262033 L138.262033,-2.27373675e-13" id="Shape" stroke="#F06823" stroke-width="3"></path>
                                <path d="M22,127.262033 L149.262033,-2.27373675e-13" id="Shape" stroke="#F06823" stroke-width="3"></path>
                                <path d="M33,127.262033 L160.262033,-2.27373675e-13" id="Shape" stroke="#F06823" stroke-width="3"></path>
                                <path d="M44,127.262033 L171.262033,-2.27373675e-13" id="Shape" stroke="#F06823" stroke-width="3"></path>
                                <path d="M55,127.262033 L182.262033,-2.27373675e-13" id="Shape" stroke="#F06823" stroke-width="3"></path>
                                <path d="M66,127.262033 L193.262033,-2.27373675e-13" id="Shape" stroke="#F06823" stroke-width="3"></path>
                                <path d="M77,127.262033 L204.262033,-2.27373675e-13" id="Shape" stroke="#F06823" stroke-width="3"></path>
                                <path d="M176,127.262033 L303.262033,-2.27373675e-13" id="Shape" stroke="#F06823" stroke-width="3"></path>
                                <path d="M187,127.262033 L314.262033,-2.27373675e-13" id="Shape" stroke="#F06823" stroke-width="3"></path>
                                <path d="M198,127.262033 L325.262033,-2.27373675e-13" id="Shape" stroke="#F06823" stroke-width="3"></path>
                                <path d="M209,127.262033 L336.262033,-2.27373675e-13" id="Shape" stroke="#F06823" stroke-width="3"></path>
                                <path d="M220,127.262033 L347.262033,-2.27373675e-13" id="Shape" stroke="#F06823" stroke-width="3"></path>
                                <path d="M231,127.262033 L358.262033,-2.27373675e-13" id="Shape" stroke="#F06823" stroke-width="3"></path>
                                <path d="M242,127.262033 L369.262033,-2.27373675e-13" id="Shape" stroke="#F06823" stroke-width="3"></path>
                            </g>
                        </g>
                    </g>
                </g>
            </g>
            <g id="Group-5" transform="translate(128.000000, 162.000000)">
                <g id="Group-21" transform="translate(0.000000, 8.338965)">
                    <g id="Oval-15">
                        <g id="path-24-link" fill="#FFFFFF">
                            <circle id="path-24" cx="8.33896484" cy="8.33896484" r="8.33896484"></circle>
                        </g>
                        <circle id="Oval" stroke="#F06823" stroke-width="3" cx="8.33896484" cy="8.33896484" r="6.83896484"></circle>
                    </g>
                    <g id="Oval-15" transform="translate(0.000000, 8.000000)">
                        <g id="path-25-link" fill="#FFFFFF">
                            <circle id="path-25" cx="8.33896484" cy="8.6779297" r="8.33896484"></circle>
                        </g>
                        <circle id="Oval" stroke="#F06823" stroke-width="3" cx="8.33896484" cy="8.6779297" r="6.83896484"></circle>
                    </g>
                </g>
                <g id="Group-21" transform="translate(0.000000, 8.338965)">
                    <g id="Oval-15">
                        <g id="path-26-link" fill="#FFFFFF">
                            <circle id="path-26" cx="8.33896484" cy="8.33896484" r="8.33896484"></circle>
                        </g>
                        <circle id="Oval" stroke="#F06823" stroke-width="3" cx="8.33896484" cy="8.33896484" r="6.83896484"></circle>
                    </g>
                </g>
                <g id="Oval-15">
                    <g id="path-27-link" fill="#FFFFFF">
                        <circle id="path-27" cx="8.33896484" cy="8.33896484" r="8.33896484"></circle>
                    </g>
                    <circle id="Oval" stroke="#F06823" stroke-width="3" cx="8.33896484" cy="8.33896484" r="6.83896484"></circle>
                </g>
            </g>
            <g id="Group-18" transform="translate(133.000000, 76.000000) rotate(-11.000000) translate(-133.000000, -76.000000) translate(123.000000, 52.000000)">
                <path d="M10,10 L10,47.0540146" id="Path-19" stroke="#F06823" stroke-width="3"></path>
                <g id="Oval-15">
                    <g id="path-28-link" fill="#FFFFFF">
                        <circle id="path-28" cx="10" cy="10" r="10"></circle>
                    </g>
                    <circle id="Oval" stroke="#F06823" stroke-width="3" cx="10" cy="10" r="8.5"></circle>
                </g>
            </g>
            <g id="Rectangle-2" transform="translate(80.000000, 86.000000)">
                <g id="path-29-link" fill="#FFFFFF">
                    <rect id="path-29" x="0" y="0" width="112.511719" height="86.6161644" rx="23"></rect>
                </g>
                <rect id="Rectangle-path" stroke="#F06823" stroke-width="3" x="1.5" y="1.5" width="109.511719" height="83.6161644" rx="23"></rect>
            </g>
            <g id="Group-3" transform="translate(110.000000, 102.000000)">
                <g id="Oval-15">
                    <g id="path-30-link" fill="#FFFFFF">
                        <circle id="path-30" cx="10" cy="10" r="10"></circle>
                    </g>
                    <path d="M18.5,10 C18.5,5.30557963 14.6944204,1.5 10,1.5 C5.30557963,1.5 1.5,5.30557963 1.5,10" id="Oval" stroke="#F06823" stroke-width="3"></path>
                </g>
                <g id="Oval-15" transform="translate(50.000000, 0.000000)">
                    <g id="path-31-link" fill="#FFFFFF">
                        <circle id="path-31" cx="10" cy="10" r="10"></circle>
                    </g>
                    <path d="M18.5,10 C18.5,5.30557963 14.6944204,1.5 10,1.5 C5.30557963,1.5 1.5,5.30557963 1.5,10" id="Oval" stroke="#F06823" stroke-width="3"></path>
                </g>
            </g>
            <g id="Group-7" transform="translate(63.500000, 178.500000) scale(-1, 1) translate(-63.500000, -178.500000) translate(0.000000, 119.000000)">
                <g id="Group-2" transform="translate(42.500000, 76.500000) rotate(-45.000000) translate(-42.500000, -76.500000) translate(1.000000, 58.000000)">
                    <g id="Oval-15" transform="translate(0.000000, 20.000000)">
                        <g id="path-1-link" fill="#FFFFFF">
                            <circle id="path-1" cx="8.33896484" cy="8.3389648" r="8.33896484"></circle>
                        </g>
                        <circle id="Oval" stroke="#F06823" stroke-width="3" cx="8.33896484" cy="8.3389648" r="6.83896484"></circle>
                    </g>
                    <g id="Oval-15" transform="translate(7.000000, 20.000000)">
                        <g id="path-2-link" fill="#FFFFFF">
                            <circle id="path-2" cx="8.8389648" cy="8.3389648" r="8.33896484"></circle>
                        </g>
                        <circle id="Oval" stroke="#F06823" stroke-width="3" cx="8.8389648" cy="8.3389648" r="6.83896484"></circle>
                    </g>
                    <g id="Oval-15" transform="translate(16.000000, 20.000000)">
                        <g id="path-1-link" fill="#FFFFFF">
                            <circle id="path-1" cx="8.33896484" cy="8.3389648" r="8.33896484"></circle>
                        </g>
                        <circle id="Oval" stroke="#F06823" stroke-width="3" cx="8.33896484" cy="8.3389648" r="6.83896484"></circle>
                    </g>
                    <g id="Oval-15" transform="translate(23.000000, 20.000000)">
                        <g id="path-2-link" fill="#FFFFFF">
                            <circle id="path-2" cx="8.8389648" cy="8.3389648" r="8.33896484"></circle>
                        </g>
                        <circle id="Oval" stroke="#F06823" stroke-width="3" cx="8.8389648" cy="8.3389648" r="6.83896484"></circle>
                    </g>
                    <g id="Oval-15" transform="translate(31.000000, 20.000000)">
                        <g id="path-3-link" fill="#FFFFFF">
                            <circle id="path-3" cx="8.3389648" cy="8.3389648" r="8.33896484"></circle>
                        </g>
                        <circle id="Oval" stroke="#F06823" stroke-width="3" cx="8.3389648" cy="8.3389648" r="6.83896484"></circle>
                    </g>
                    <g id="Oval-15" transform="translate(38.000000, 20.000000)">
                        <g id="path-4-link" fill="#FFFFFF">
                            <circle id="path-4" cx="8.8389648" cy="8.3389648" r="8.33896484"></circle>
                        </g>
                        <circle id="Oval" stroke="#F06823" stroke-width="3" cx="8.8389648" cy="8.3389648" r="6.83896484"></circle>
                    </g>
                    <g id="Group-4" transform="translate(73.629144, 28.384013) rotate(89.000000) translate(-73.629144, -28.384013) translate(65.129144, 0.384013)">
                        <g id="Oval-15" transform="translate(0.000000, 39.000000)">
                            <g id="path-5-link" fill="#FFFFFF">
                                <circle id="path-5" cx="8.3389648" cy="8.3389648" r="8.33896484"></circle>
                            </g>
                            <circle id="Oval" stroke="#F06823" stroke-width="3" cx="8.3389648" cy="8.3389648" r="6.83896484"></circle>
                        </g>
                        <g id="Oval-15" transform="translate(0.000000, 32.000000)">
                            <g id="path-6-link" fill="#FFFFFF">
                                <circle id="path-6" cx="8.3389648" cy="8.3389648" r="8.33896484"></circle>
                            </g>
                            <circle id="Oval" stroke="#F06823" stroke-width="3" cx="8.3389648" cy="8.3389648" r="6.83896484"></circle>
                        </g>
                        <g id="Oval-15" transform="translate(0.000000, 24.000000)">
                            <g id="path-7-link" fill="#FFFFFF">
                                <circle id="path-7" cx="8.3389648" cy="8.3389648" r="8.33896484"></circle>
                            </g>
                            <circle id="Oval" stroke="#F06823" stroke-width="3" cx="8.3389648" cy="8.3389648" r="6.83896484"></circle>
                        </g>
                        <g id="Oval-15" transform="translate(0.000000, 16.000000)">
                            <g id="path-8-link" fill="#FFFFFF">
                                <circle id="path-8" cx="8.3389648" cy="8.3389648" r="8.33896484"></circle>
                            </g>
                            <circle id="Oval" stroke="#F06823" stroke-width="3" cx="8.3389648" cy="8.3389648" r="6.83896484"></circle>
                        </g>
                        <g id="Oval-15" transform="translate(0.000000, 8.000000)">
                            <g id="path-9-link" fill="#FFFFFF">
                                <circle id="path-9" cx="8.3389648" cy="8.3389648" r="8.33896484"></circle>
                            </g>
                            <circle id="Oval" stroke="#F06823" stroke-width="3" cx="8.3389648" cy="8.3389648" r="6.83896484"></circle>
                        </g>
                        <g id="Oval-15">
                            <g id="path-10-link" fill="#FFFFFF">
                                <circle id="path-10" cx="8.3389648" cy="8.33896484" r="8.33896484"></circle>
                            </g>
                            <circle id="Oval" stroke="#F06823" stroke-width="3" cx="8.3389648" cy="8.33896484" r="6.83896484"></circle>
                        </g>
                    </g>
                </g>
                <g id="Combined-Shape" transform="translate(97.500000, 30.000000) rotate(33.000000) translate(-97.500000, -30.000000) translate(76.000000, 9.000000)">
                    <g id="path-33-link" fill="#FFFFFF">
                        <path d="M17.4345703,0.1875 C7.75659303,2.007879 0.434570312,10.504477 0.434570312,20.711224 C0.434570312,32.245292 9.78477977,41.595501 21.3188477,41.595501 C32.8529155,41.595501 42.203125,32.245292 42.203125,20.711224 C42.203125,10.942091 35.4955057,2.739606 26.4345703,0.458073 L26.4345703,20.326947 C26.4345703,22.812228 24.4198517,24.826947 21.9345703,24.826947 C19.4492889,24.826947 17.4345703,22.812228 17.4345703,20.326947 L17.4345703,0.1875 Z" id="path-33"></path>
                    </g>
                    <path d="M15.9345703,2.083571 C7.76238365,4.436799 1.93457031,11.970539 1.93457031,20.711224 C1.93457031,31.416865 10.6132069,40.095501 21.3188477,40.095501 C32.0244884,40.095501 40.703125,31.416865 40.703125,20.711224 C40.703125,12.443641 35.4832783,5.219326 27.9345703,2.484043 L27.9345703,20.326947 C27.9345703,23.640655 25.2482788,26.326947 21.9345703,26.326947 C18.6208618,26.326947 15.9345703,23.640655 15.9345703,20.326947 L15.9345703,2.083571 Z" id="Shape" stroke="#F06823" stroke-width="3"></path>
                </g>
            </g>
            <path d="M192,325.446969 L192,245.890917 C192,215.575501 167.375661,191 136.999999,191 C106.624339,191 82,215.575501 82,245.890917 L82,325.446969 C82,337.35038 91.6687969,347 103.595862,347 L170.404138,347 C182.331203,347 192,337.35038 192,325.446969 Z" id="Combined-Shape" stroke="#F06823" stroke-width="3"></path>
            <g id="Combined-Shape" transform="translate(80.000000, 189.000000)">
                <g id="path-32-link" fill="#FFFFFF">
                    <path d="M91.175339,62.983496 C91.175634,62.924617 91.175781,62.865704 91.175781,62.806756 L91.175781,57.587891 C91.175781,38.485526 75.690255,23 56.587891,23 C37.4855261,23 22,38.485526 22,57.587891 L22,62.806756 C22,62.865704 22.0001475,62.924617 22.000442,62.983496 C22.0001475,63.0315 22,63.07954 22,63.127614 L22,105.517613 C22,118.220162 32.2974508,128.517613 45,128.517613 L68.175781,128.517613 C80.87833,128.517613 91.175781,118.220162 91.175781,105.517613 L91.175781,63.127614 C91.175781,63.07954 91.175634,63.0315 91.175339,62.983496 Z M112.511719,62.680153 L112.511719,135.616164 C112.511719,148.318714 102.214268,158.616164 89.511719,158.616164 L23,158.616164 C10.2974508,158.616164 0,148.318714 0,135.616164 L0,62.680153 L0,56.255859 C0,25.186606 25.1866062,0 56.255859,0 C87.325113,0 112.511719,25.186606 112.511719,56.255859 L112.511719,62.680153 Z" id="path-32"></path>
                </g>
                <path d="M92.67532,62.991001 L92.675311,62.974292 C92.675703,63.050918 92.675703,63.050918 92.675781,63.127614 L92.675781,105.517613 C92.675781,119.048589 81.706758,130.017613 68.175781,130.017613 L45,130.017613 C31.4690236,130.017613 20.5,119.048589 20.5,105.517613 L20.5,63.127614 C20.5000785,63.050918 20.5000785,63.050918 20.5004608,62.991001 C20.5000769,62.898913 20.5000769,62.898913 20.5,62.806756 L20.5,57.587891 C20.5,37.657099 36.657099,21.5 56.587891,21.5 C76.518682,21.5 92.675781,37.657099 92.675781,57.587891 L92.675781,62.806756 C92.675704,62.898913 92.675704,62.898913 92.67532,62.991001 Z M111.011719,135.616164 L111.011719,56.255859 C111.011719,26.015033 86.496685,1.5 56.255859,1.5 C26.0150333,1.5 1.5,26.015033 1.5,56.255859 L1.5,135.616164 C1.5,147.490287 11.1258779,157.116164 23,157.116164 L89.511719,157.116164 C101.385841,157.116164 111.011719,147.490287 111.011719,135.616164 Z" id="Shape" stroke="#F06823" stroke-width="3"></path>
            </g>
            <g id="Combined-Shape" transform="translate(253.500000, 134.000000) rotate(33.000000) translate(-253.500000, -134.000000) translate(232.000000, 113.000000)">
                <g id="path-33-link" fill="#FFFFFF">
                    <path d="M17.4345703,0.1875 C7.75659303,2.007879 0.434570312,10.504477 0.434570312,20.711224 C0.434570312,32.245292 9.78477977,41.595501 21.3188477,41.595501 C32.8529155,41.595501 42.203125,32.245292 42.203125,20.711224 C42.203125,10.942091 35.4955057,2.739606 26.4345703,0.458073 L26.4345703,20.326947 C26.4345703,22.812228 24.4198517,24.826947 21.9345703,24.826947 C19.4492889,24.826947 17.4345703,22.812228 17.4345703,20.326947 L17.4345703,0.1875 Z" id="path-33"></path>
                </g>
                <path d="M15.9345703,2.083571 C7.76238365,4.436799 1.93457031,11.970539 1.93457031,20.711224 C1.93457031,31.416865 10.6132069,40.095501 21.3188477,40.095501 C32.0244884,40.095501 40.703125,31.416865 40.703125,20.711224 C40.703125,12.443641 35.4832783,5.219326 27.9345703,2.484043 L27.9345703,20.326947 C27.9345703,23.640655 25.2482788,26.326947 21.9345703,26.326947 C18.6208618,26.326947 15.9345703,23.640655 15.9345703,20.326947 L15.9345703,2.083571 Z" id="Shape" stroke="#F06823" stroke-width="3"></path>
            </g>
            <g id="Group-2" transform="translate(131.000000, 123.000000)">
                <g id="Group">
                    <mask id="mask-4" fill="white">
                        <use xlink:href="#path-3"></use>
                    </mask>
                    <use id="Mask" fill="#FFFFFF" xlink:href="#path-3"></use>
                    <g mask="url(#mask-4)">
                        <g transform="translate(14.055556, 7.805556) scale(-1, 1) translate(-14.055556, -7.805556) translate(5.555556, 0.805556)">
                            <g id="Group-19" stroke="none" stroke-width="1" fill-rule="evenodd" transform="translate(7.555556, 7.000000) scale(-1, 1) translate(-7.555556, -7.000000) translate(7.055556, 0.000000)">
                                <g id="Group-17" stroke="#F06823" stroke-width="3">
                                    <path d="M0,0.402777778 L0,13.2916667" id="Path-18"></path>
                                </g>
                            </g>
                            <path d="M-4.4408921e-16,0 L16.1111111,0 L16.1111111,10.875 C16.1111111,12.2096881 15.0291325,13.2916667 13.6944444,13.2916667 L2.41666667,13.2916667 C1.08197852,13.2916667 3.12083551e-16,12.2096881 -4.4408921e-16,10.875 L-4.4408921e-16,0 Z" id="Rectangle-4" stroke="#F06823" stroke-width="3"></path>
                        </g>
                    </g>
                </g>
                <circle id="Oval-4" stroke="#F06823" stroke-width="3" cx="14.5" cy="16.5" r="14.5"></circle>
            </g>
        </g>
        <g id="Group-32" transform="translate(791.000000, 288.500000) scale(-1, 1) translate(-791.000000, -288.500000) translate(674.000000, 136.000000)" fill="#FFFFFF" stroke="#F06823" stroke-linecap="round" stroke-width="3">
            <path d="M190.173913,58 C186.84058,66.6666667 187.34058,76 191.673913,86 C196.007246,96 201.173913,104.833333 207.173913,112.5 L219.683909,112.5 C210.010578,99.8333333 204.007246,90.5 201.673913,84.5 C199.34058,78.5 198.673913,73.1666667 199.673913,68.5 L190.173913,58 Z" id="Path-36"></path>
            <path d="M0,96.0237324 L0,144.023732 C3.38176876e-16,146.785156 2.23857625,149.023732 5,149.023732 L6.43125891,149.023732 C9.01839044,149.023732 11.1782584,150.997308 11.4109874,153.57395 L25,304.023732 L198.558348,304.023732 L219.891411,153.322924 C220.240507,150.856842 222.351385,149.023732 224.842054,149.023732 L228.586252,149.023732 C231.347676,149.023732 233.586252,146.785156 233.586252,144.023732 L233.586252,96 L0,96.0237324 Z" id="Path-32"></path>
            <path d="M24,148 L210.010752,148" id="Path-33"></path>
            <path d="M187.955548,25.2285623 L215,60 C217.666667,64.6666667 217.666667,68.5 215,71.5 C212.333333,74.5 208.5,75.1666667 203.5,73.5 L171.416485,37.9479967 C170.948826,37.9824621 170.476461,38 170,38 C159.50659,38 151,29.4934102 151,19 C151,8.50658975 159.50659,0 170,0 C180.49341,0 189,8.50658975 189,19 C189,21.1815927 188.63232,23.2773092 187.955548,25.2285623 Z" id="Combined-Shape"></path>
            <path d="M169,31.25 C169,26.9166667 170.833333,23.9166667 174.5,22.25 C178.166667,20.5833333 181.166667,20.5833333 183.5,22.25" id="Path-35"></path>
        </g>
        <path d="M3,304 L982,304" id="Path-11" stroke="#F06823" stroke-width="3" stroke-linecap="round"></path>
        <g id="Combined-Shape" stroke-linecap="round">
            <use fill="#FFFFFF" fill-rule="evenodd" xlink:href="#path-5"></use>
            <path stroke="#876E8C" stroke-width="3" d="M616.217145,248.1604 C618.863447,246.264967 621.63937,245.086627 624.534109,244.641283 C628.800378,243.984934 631.735106,245.349923 636.710277,249.495898 C641.270056,253.295714 643.428871,254.754373 645.010913,254.980379 C645.455114,255.043837 645.775954,255.042344 645.960781,255.004593 L646.64538,252.266197 L651.132006,257.650148 L649.937043,258.606119 C648.705032,259.591727 647.553967,260.231208 646.455267,260.505883 C644.325314,261.038371 640.403709,260.30307 638.344601,258.587148 C638.367666,258.606368 636.86178,257.341026 636.260647,256.842692 C635.191644,255.956498 634.191803,255.148711 633.211016,254.386236 C632.694455,253.984655 632.19444,253.604616 631.711851,253.247553 C629.432283,251.560918 627.626432,250.455864 626.593368,250.145945 C625.246144,249.741778 623.804209,250.017961 622.205507,251.0596 C622.214319,251.069301 622.223236,251.079072 622.232256,251.088912 C622.768353,251.673746 623.60825,252.437288 624.74254,253.365343 C628.233132,256.221282 628.34326,260.736544 626.750177,263.922709 C625.280877,266.861311 618.981268,267.981241 614.798848,264.763996 C611.873916,262.514047 611.07495,259.067546 612.260042,254.662189 C610.652258,254.892429 609.146299,255.218557 607.741997,255.639848 C605.882134,256.197807 602.794711,258.461917 598.648978,262.400364 L597.589006,263.407337 L593.933036,259.751367 L594.885059,258.693564 C598.867611,254.268506 602.099604,251.370857 604.653673,249.977728 C607.22455,248.575432 611.06546,247.992807 616.217145,248.1604 Z M618.170403,255.663854 C617.724292,257.215302 617.710386,258.488071 618.087421,259.493496 C618.328831,260.137259 618.907477,260.565216 619.793681,260.786767 C620.378752,260.933034 621.048814,260.957045 621.451848,260.909208 C621.457172,260.897455 621.462589,260.885129 621.468065,260.872254 C621.589871,260.585846 621.674006,260.188691 621.687518,259.769838 C621.719848,258.767586 621.370214,257.896927 620.630488,257.342133 C619.700878,256.644925 618.878479,256.085178 618.170403,255.663854 Z M621.373401,261.054441 C621.371824,261.056302 621.370292,261.05815 621.368803,261.059984 C621.372806,261.055053 621.377563,261.048407 621.38295,261.040134 Z"></path>
        </g>
        <circle id="Oval-5" fill="#F06823" cx="932" cy="95" r="6"></circle>
        <circle id="Oval-5" fill="#876E8C" cx="671" cy="95" r="6"></circle>
        <circle id="Oval-5" fill="#876E8C" cx="944" cy="195" r="6"></circle>
        <g id="Oval-6" stroke-linecap="round">
            <use fill="#FFFFFF" fill-rule="evenodd" xlink:href="#path-6"></use>
            <circle stroke="#876E8C" stroke-width="3" cx="659" cy="40" r="7.5"></circle>
        </g>
        <g id="Oval-7" stroke-linecap="round">
            <use fill="#FFFFFF" fill-rule="evenodd" xlink:href="#path-7"></use>
            <circle stroke="#876E8C" stroke-width="3" cx="622.5" cy="185.5" r="5"></circle>
        </g>
        <path d="M907.477995,34.6845794 C908.617946,38.4005928 909.001608,41.2522751 908.628979,43.2396264 C908.200588,45.524379 907.772197,46.8095523 907.343806,47.0951464 C909.05737,49.951087 909.628558,52.2358396 909.05737,53.949404 C908.200588,56.5197506 901.34633,64.2307905 900.917939,66.372746 C900.632345,67.8007164 900.346751,70.6566571 900.061157,74.9405681 L897.062419,74.9405681 C896.776825,68.9430926 896.919622,65.3731668 897.49081,64.2307905 C898.347593,62.5172261 903.059895,57.3765328 904.345068,55.6629684 C905.630241,53.949404 906.058633,51.8074485 905.20185,51.3790574 C904.345068,50.9506663 904.345068,52.8784263 900.917939,53.949404 C897.49081,55.0203818 891.921726,52.2358396 891.921726,49.2371019 C891.921726,46.2383641 893.206899,42.8112353 897.919202,42.3828442 C901.060736,42.0972501 903.059895,42.6684383 903.916677,44.0964086 C905.344647,43.5252205 905.915835,42.5256413 905.630241,41.0976709 C905.414418,40.0185518 905.117045,38.8578836 904.738122,37.6156662 C903.316802,38.8371372 901.565628,39.9457321 899.204375,40.2408887 C895.777246,40.6692798 891.921726,38.9557154 891.064944,36.3853688 C890.208162,33.8150221 891.972125,29.5311111 896.634028,29.10272 C899.741964,28.8171259 902.597904,29.5311111 905.20185,31.2446755 L909.05737,24.818809 L911.627717,26.5323734 C909.928565,30.3554652 908.545324,33.0728672 907.477995,34.6845794 Z M898.347593,37.242151 C900.240344,37.242151 901.774721,36.0913676 901.774721,34.6718043 C901.774721,33.2522411 900.240344,32.1014577 898.347593,32.1014577 C896.454842,32.1014577 894.920464,33.2522411 894.920464,34.6718043 C894.920464,36.0913676 896.454842,37.242151 898.347593,37.242151 Z M899.204375,50.9506663 C901.097126,50.9506663 902.631504,49.7998829 902.631504,48.3803197 C902.631504,46.9607564 901.097126,45.809973 899.204375,45.809973 C897.311624,45.809973 895.777246,46.9607564 895.777246,48.3803197 C895.777246,49.7998829 897.311624,50.9506663 899.204375,50.9506663 Z" id="Combined-Shape" stroke="#876E8C" fill="#876E8C" transform="translate(901.241890, 49.879689) rotate(-134.000000) translate(-901.241890, -49.879689) "></path>
        <g id="Combined-Shape" stroke-linecap="round" transform="translate(601.643582, 100.690898) rotate(49.000000) translate(-601.643582, -100.690898) ">
            <use fill="#FFFFFF" fill-rule="evenodd" xlink:href="#path-8"></use>
            <path stroke="#F06823" stroke-width="3" d="M595.360726,93.2343306 C598.007029,91.3388977 600.782952,90.1605579 603.677691,89.7152134 C607.94396,89.0588643 610.878688,90.4238541 615.853858,94.5698293 C620.413637,98.3696452 622.572453,99.8283042 624.154494,100.05431 C624.598695,100.117767 624.919536,100.116275 625.104363,100.078523 L625.788962,97.340128 L630.275588,102.724079 L629.080624,103.68005 C627.848613,104.665658 626.697548,105.305139 625.598848,105.579814 C623.468895,106.112302 619.54729,105.377001 617.488183,103.661078 C617.511248,103.680299 616.005361,102.414957 615.404228,101.916623 C614.335226,101.030429 613.335385,100.222642 612.354598,99.4601666 C611.838037,99.0585863 611.338022,98.6785472 610.855433,98.3214833 C608.575864,96.6348484 606.770013,95.5297953 605.73695,95.2198762 C604.389726,94.815709 602.94779,95.0918915 601.349088,96.1335308 C601.357901,96.1432318 601.366817,96.1530026 601.375837,96.1628426 C601.911935,96.7476764 602.751832,97.5112192 603.886121,98.439274 C607.376713,101.295213 607.486842,105.810475 605.893759,108.99664 C604.424458,111.935242 598.124849,113.055172 593.94243,109.837926 C591.017497,107.587978 590.218531,104.141477 591.403623,99.7361197 C589.795839,99.9663594 588.289881,100.292488 586.885579,100.713779 C585.025716,101.271738 581.938292,103.535848 577.792559,107.474295 L576.732587,108.481268 L573.076617,104.825298 L574.02864,103.767495 C578.011192,99.3424367 581.243185,96.4447881 583.797255,95.0516593 C586.368132,93.6493628 590.209042,93.0667378 595.360726,93.2343306 Z M597.313985,100.737784 C596.867874,102.289233 596.853968,103.562002 597.231002,104.567427 C597.472413,105.21119 598.051059,105.639146 598.937263,105.860697 C599.522333,106.006965 600.192395,106.030976 600.59543,105.983139 C600.600754,105.971386 600.606171,105.95906 600.611646,105.946185 C600.733452,105.659776 600.817588,105.262621 600.831099,104.843769 C600.86343,103.841517 600.513795,102.970858 599.774069,102.416064 C598.844459,101.718856 598.022061,101.159109 597.313985,100.737784 Z M600.516982,106.128372 C600.515405,106.130233 600.513873,106.132081 600.512385,106.133915 C600.516387,106.128983 600.521145,106.122338 600.526532,106.114065 Z"></path>
        </g>
        <g id="Combined-Shape" stroke-linecap="round" transform="translate(934.353222, 252.015769) rotate(-135.000000) translate(-934.353222, -252.015769) ">
            <use fill="#FFFFFF" fill-rule="evenodd" xlink:href="#path-9"></use>
            <path stroke="#F06823" stroke-width="3" d="M954.079942,254.049602 C954.591407,253.88575 955.013551,253.599582 955.314513,253.178415 L954.569405,252.24703 C954.073937,252.643404 953.637439,252.918296 953.271146,253.079047 L954.079942,254.049602 Z M915.225715,254.947464 C915.094323,255.070595 914.961688,255.195756 914.827801,255.322949 L915.76669,254.913411 L915.225715,254.947464 Z M930.108135,245.916534 C932.163942,244.463158 934.323886,243.555506 936.577643,243.208774 C939.992332,242.683437 942.336278,243.773644 946.243665,247.0298 C949.702354,249.912042 951.348212,251.024107 952.477121,251.18538 C952.646123,251.209523 952.784082,251.219899 952.888713,251.221694 L953.520967,248.692681 L957.638453,253.633665 L956.44349,254.589636 C955.457572,255.378371 954.52799,255.894805 953.626164,256.120261 C951.881171,256.55651 948.742753,255.968056 947.065883,254.570665 C947.082816,254.584775 945.921409,253.608887 945.458681,253.22529 C944.636444,252.543663 943.867692,251.922575 943.114112,251.336733 C942.717624,251.0285 942.333988,250.736914 941.963931,250.463112 C940.236529,249.185021 938.866729,248.3468 938.120108,248.122814 C937.281748,247.871306 936.381436,248.000174 935.375109,248.569845 C935.770961,248.964499 936.316716,249.448077 937.007557,250.013311 C939.849567,252.338592 939.938676,255.992084 938.646056,258.577326 C937.412194,261.04505 932.30113,261.953683 928.909562,259.344784 C926.642791,257.601115 925.948315,254.982651 926.703074,251.695517 C925.667834,251.86384 924.690923,252.086037 923.772234,252.361643 C922.404556,252.771947 920.055411,254.494653 916.894049,257.497947 L916.498991,257.873252 L909.562632,258.309879 L912.097251,255.561113 C916.140195,251.176585 919.109065,248.464599 921.126877,247.363974 C923.154851,246.257806 926.135403,245.797831 930.108135,245.916534 Z M931.93538,252.587779 C931.726189,253.514875 931.748751,254.27866 931.97665,254.886391 C932.204052,255.492795 933.277534,255.842382 933.999196,255.796018 C934.049521,255.630203 934.084006,255.424532 934.090962,255.208875 C934.112535,254.540107 933.886142,253.976343 933.4123,253.620961 C932.869615,253.213947 932.376226,252.869407 931.93538,252.587779 Z"></path>
        </g>
    </g>
</svg>