<?xml version="1.0" encoding="UTF-8"?>
<svg width="628px" height="248px" viewBox="0 0 628 248" version="1.1" xmlns="http://www.w3.org/2000/svg" xmlns:xlink="http://www.w3.org/1999/xlink">
    <!-- Generator: Sketch 49.1 (51147) - http://www.bohemiancoding.com/sketch -->
    <title>hero-tablet_2</title>
    <desc>Created with Sketch.</desc>
    <defs>
        <path d="M69.4254116,39.4044068 L69.4254116,84.4402531 C69.4254116,92.349388 62.9315239,98.7610078 54.9209072,98.7610078 L14.5045045,98.7610078 C6.49388789,98.7610078 -2.57169608e-15,92.349388 -3.55271368e-15,84.4402531 L-1.3920147e-15,39.4044068 L-1.31226361e-15,34.2729492 C8.20829639e-16,15.3445221 15.5414078,3.47709566e-15 34.7127059,0 C53.8840039,-3.47709566e-15 69.4254116,15.3445221 69.4254116,34.2729492 L69.4254116,39.4044068 Z" id="path-1"></path>
        <ellipse id="path-3" cx="9" cy="9.35483871" rx="9" ry="9.35483871"></ellipse>
        <path d="M584,55.5775141 C584.406088,51.7055283 584.997806,48.9506061 585.775152,47.3127476 C586.552498,45.6748891 588.388379,43.8939252 591.282795,41.969856 C591.922057,39.8957793 592.917512,38.1888789 594.26916,36.8491548 C596.296632,34.8395685 598.642325,34.7449485 602.025056,34.9699596 C605.407786,35.1949707 607.881049,35.2759362 609.237719,34.5585291 C610.142165,34.0802576 610.716467,33.5607479 610.960624,33 L611.903043,33.4268707 C611.657945,34.3203336 611.343806,34.9956874 610.960624,35.4529321 C610.385852,36.1387993 608.326841,37.366488 606.635475,37.2539825 C604.94411,37.1414769 598.657389,36.6118995 596.518822,37.3608467 C595.093111,37.8601448 594.119153,39.1043087 593.596948,41.0933384 C593.852088,41.4445096 595.006184,41.6790938 597.059234,41.7970911 C600.138809,41.974087 601.222452,44.9425667 601.381562,45.9000498 C601.540673,46.8575329 599.799882,50.0001879 596.241565,49.9027471 C593.869354,49.8377867 592.231966,48.0764391 591.3294,44.6187045 C590.009762,45.7563247 588.892228,46.925955 587.976799,48.1275955 C587.061369,49.3292359 586.241029,51.8925674 585.51578,55.81759 L584,55.5775141 Z M593.164811,43.8217422 C593.600089,45.6516614 594.333501,46.9072789 595.365048,47.5885946 C596.912367,48.610568 598.843809,47.2072937 599.242995,46.648997 C599.642182,46.0907002 598.638094,43.6009621 596.467987,43.5680117 C595.021249,43.5460448 593.92019,43.6306216 593.164811,43.8217422 Z" id="path-5"></path>
        <circle id="path-6" cx="442.690068" cy="151.690068" r="2.69006842"></circle>
    </defs>
    <g id="hero-tablet_2" stroke="none" stroke-width="1" fill="none" fill-rule="evenodd">
        <g id="Group-8" transform="translate(532.000000, 164.500000) scale(-1, 1) translate(-532.000000, -164.500000) translate(450.000000, 48.000000)">
            <path d="M60.8741058,63.4043239 C60.5784922,62.6131221 59.2437654,58.9584571 59.2086998,57.3803179 C59.0349621,49.5611918 59.0349621,54.2593529 59.0349621,42.8756149 C59.0349621,24.2754547 53.1124581,13.2287459 47.2228513,13.2287459 C46.7252829,13.2287459 46.2205182,13.3082944 45.7136974,13.4684664 C41.436048,14.8240159 36.5568606,22.5191029 40.3648365,39.670025 C43.6736095,54.5725636 46.6639873,59.8891387 47.7900405,62.7160429 C48.689177,64.9732833 52.1650313,62.1698924 53.0450284,66.2892151 C49.1374711,69.0798627 54.9291905,66.9680975 54.1170437,70.9326234 C61.4852078,67.5233973 67.4766458,64.7511783 72.0913574,62.6159661 C76.7060691,64.7511783 82.6975065,67.5233973 90.065671,70.9326234 C89.2535238,66.9680975 98.1619447,63.2164178 94.2543877,60.4257702 C95.1343844,56.3064474 94.8945035,58.6771608 95.7936403,56.4199204 C96.9196932,53.5930162 99.9100713,48.2764411 103.218844,33.3739025 C107.02682,16.2229804 102.147633,8.52789344 97.8699833,7.17234386 C97.3631626,7.01217187 96.8583977,6.93262336 96.3608294,6.93262336 C90.4712224,6.93262336 84.5487187,17.9793322 84.5487187,36.5794924 C84.5487187,47.9632304 84.5487187,43.2650693 84.3749806,51.0841954 C84.339915,52.6623346 83.0051882,56.3169996 82.7095746,57.1082014 C81.6088302,56.9925629 80.1842766,56.9460604 78.7579909,56.9460604 C77.7646948,56.9460604 75.0668575,56.9685581 72.0913574,57.0056628 C69.1158567,56.9685581 66.4180199,56.9460604 65.4247238,56.9460604 C63.9984376,56.9460604 61.9748503,63.2886854 60.8741058,63.4043239 Z" id="Combined-Shape" stroke="#F06823" stroke-width="2" fill="#FFFFFF" fill-rule="nonzero" transform="translate(71.791840, 38.932623) scale(-1, 1) rotate(13.000000) translate(-71.791840, -38.932623) "></path>
            <g id="Group-12" transform="translate(127.693598, 103.414679) scale(-1, 1) rotate(-391.000000) translate(-127.693598, -103.414679) translate(110.693598, 62.414679)">
                <g id="Group-2" transform="translate(0.000000, 46.000000)">
                    <g id="Oval-15" transform="translate(0.389831, 24.944256)">
                        <g id="path-12-link"></g>
                    </g>
                    <g id="Oval-15" transform="translate(5.406780, 24.944256)">
                        <g id="path-13-link"></g>
                    </g>
                    <g id="Oval-15" transform="translate(9.796610, 24.944256)">
                        <g id="path-14-link"></g>
                    </g>
                    <g id="Oval-15" transform="translate(14.813559, 24.944256)" stroke="#F06823" stroke-width="2">
                        <ellipse id="Oval" cx="5.2295203" cy="5.3335712" rx="4.28884236" ry="4.37417674"></ellipse>
                    </g>
                    <g id="Oval-15" transform="translate(14.813559, 20.467082)">
                        <g id="path-16-link" fill="#FFFFFF">
                            <ellipse id="path-16" cx="5.2295203" cy="5.3335712" rx="5.22952032" ry="5.33357122"></ellipse>
                        </g>
                        <ellipse id="Oval" stroke="#F06823" stroke-width="2" cx="5.2295203" cy="5.3335712" rx="4.28884236" ry="4.37417674"></ellipse>
                    </g>
                    <g id="Oval-15" transform="translate(14.813559, 15.350312)">
                        <g id="path-17-link" fill="#FFFFFF">
                            <ellipse id="path-17" cx="5.2295203" cy="5.3335712" rx="5.22952032" ry="5.33357122"></ellipse>
                        </g>
                        <ellipse id="Oval" stroke="#F06823" stroke-width="2" cx="5.2295203" cy="5.3335712" rx="4.28884236" ry="4.37417674"></ellipse>
                    </g>
                    <g id="Oval-15" transform="translate(14.813559, 10.233541)">
                        <g id="path-18-link" fill="#FFFFFF">
                            <ellipse id="path-18" cx="5.2295203" cy="5.3335712" rx="5.22952032" ry="5.33357122"></ellipse>
                        </g>
                        <ellipse id="Oval" stroke="#F06823" stroke-width="2" cx="5.2295203" cy="5.3335712" rx="4.28884236" ry="4.37417674"></ellipse>
                    </g>
                    <g id="Oval-15" transform="translate(14.813559, 5.116771)">
                        <g id="path-19-link" fill="#FFFFFF">
                            <ellipse id="path-19" cx="5.2295203" cy="5.3335712" rx="5.22952032" ry="5.33357122"></ellipse>
                        </g>
                        <ellipse id="Oval" stroke="#F06823" stroke-width="2" cx="5.2295203" cy="5.3335712" rx="4.28884236" ry="4.37417674"></ellipse>
                    </g>
                    <g id="Oval-15" transform="translate(14.813559, 0.000000)">
                        <g id="path-20-link" fill="#FFFFFF">
                            <ellipse id="path-20" cx="5.2295203" cy="5.33357122" rx="5.22952032" ry="5.33357122"></ellipse>
                        </g>
                        <ellipse id="Oval" stroke="#F06823" stroke-width="2" cx="5.2295203" cy="5.33357122" rx="4.28884236" ry="4.37417674"></ellipse>
                    </g>
                </g>
                <g id="Group-2" transform="translate(0.021190, 20.868266)">
                    <g id="Oval-15" transform="translate(0.389831, 24.944256)">
                        <g id="path-12-link"></g>
                    </g>
                    <g id="Oval-15" transform="translate(5.406780, 24.944256)">
                        <g id="path-13-link"></g>
                    </g>
                    <g id="Oval-15" transform="translate(9.796610, 24.944256)">
                        <g id="path-14-link"></g>
                    </g>
                    <g id="Oval-15" transform="translate(14.813559, 24.944256)" stroke="#F06823" stroke-width="2">
                        <ellipse id="Oval" cx="5.2295203" cy="5.3335712" rx="4.28884236" ry="4.37417674"></ellipse>
                    </g>
                    <g id="Oval-15" transform="translate(14.813559, 20.467082)">
                        <g id="path-16-link" fill="#FFFFFF">
                            <ellipse id="path-16" cx="5.2295203" cy="5.3335712" rx="5.22952032" ry="5.33357122"></ellipse>
                        </g>
                        <ellipse id="Oval" stroke="#F06823" stroke-width="2" cx="5.2295203" cy="5.3335712" rx="4.28884236" ry="4.37417674"></ellipse>
                    </g>
                    <g id="Oval-15" transform="translate(14.813559, 15.350312)">
                        <g id="path-17-link" fill="#FFFFFF">
                            <ellipse id="path-17" cx="5.2295203" cy="5.3335712" rx="5.22952032" ry="5.33357122"></ellipse>
                        </g>
                        <ellipse id="Oval" stroke="#F06823" stroke-width="2" cx="5.2295203" cy="5.3335712" rx="4.28884236" ry="4.37417674"></ellipse>
                    </g>
                    <g id="Oval-15" transform="translate(14.813559, 10.233541)">
                        <g id="path-18-link" fill="#FFFFFF">
                            <ellipse id="path-18" cx="5.2295203" cy="5.3335712" rx="5.22952032" ry="5.33357122"></ellipse>
                        </g>
                        <ellipse id="Oval" stroke="#F06823" stroke-width="2" cx="5.2295203" cy="5.3335712" rx="4.28884236" ry="4.37417674"></ellipse>
                    </g>
                    <g id="Oval-15" transform="translate(14.813559, 5.116771)">
                        <g id="path-19-link" fill="#FFFFFF">
                            <ellipse id="path-19" cx="5.2295203" cy="5.3335712" rx="5.22952032" ry="5.33357122"></ellipse>
                        </g>
                        <ellipse id="Oval" stroke="#F06823" stroke-width="2" cx="5.2295203" cy="5.3335712" rx="4.28884236" ry="4.37417674"></ellipse>
                    </g>
                    <g id="Oval-15" transform="translate(14.813559, 0.000000)">
                        <g id="path-20-link" fill="#FFFFFF">
                            <ellipse id="path-20" cx="5.2295203" cy="5.33357122" rx="5.22952032" ry="5.33357122"></ellipse>
                        </g>
                        <ellipse id="Oval" stroke="#F06823" stroke-width="2" cx="5.2295203" cy="5.33357122" rx="4.28884236" ry="4.37417674"></ellipse>
                    </g>
                </g>
                <g id="Combined-Shape" transform="translate(6.661017, 0.000000)">
                    <g id="path-21-link" fill="#FFFFFF">
                        <path d="M10.6610169,3.64993152e-15 C4.59177695,1.16430786 0,6.59870033 0,13.1268984 C0,20.5040458 5.8636907,26.4844054 13.0969197,26.4844054 C20.3301487,26.4844054 26.1938394,20.5040458 26.1938394,13.1268984 C26.1938394,6.8785967 21.9873662,1.63231752 16.3050847,0.173057326 L16.3050847,12.8811161 C16.3050847,14.4706928 15.0416171,15.7592995 13.4830508,15.7592995 C11.9244845,15.7592995 10.6610169,14.4706928 10.6610169,12.8811161 L10.6610169,3.64993152e-15 Z" id="path-21"></path>
                    </g>
                    <path d="M9.72033898,1.21271984 C4.59540834,2.71783577 0.940677966,7.53638845 0.940677966,13.1268984 C0.940677966,19.9741869 6.38321278,25.5250109 13.0969197,25.5250109 C19.8106266,25.5250109 25.2531614,19.9741869 25.2531614,13.1268984 C25.2531614,7.83898236 21.9796982,3.2183376 17.2457627,1.46886023 L17.2457627,12.8811161 C17.2457627,15.0005518 15.5611392,16.718694 13.4830508,16.718694 C11.4049625,16.718694 9.72033898,15.0005518 9.72033898,12.8811161 L9.72033898,1.21271984 Z" id="Shape" stroke="#F06823" stroke-width="2"></path>
                </g>
            </g>
            <g id="Group-12" transform="translate(35.688405, 115.899507) rotate(-391.000000) translate(-35.688405, -115.899507) translate(18.688405, 74.899507)">
                <g id="Group-2" transform="translate(0.000000, 46.000000)">
                    <g id="Oval-15" transform="translate(0.389831, 24.944256)">
                        <g id="path-12-link"></g>
                    </g>
                    <g id="Oval-15" transform="translate(5.406780, 24.944256)">
                        <g id="path-13-link"></g>
                    </g>
                    <g id="Oval-15" transform="translate(9.796610, 24.944256)">
                        <g id="path-14-link"></g>
                    </g>
                    <g id="Oval-15" transform="translate(14.813559, 24.944256)" stroke="#F06823" stroke-width="2">
                        <ellipse id="Oval" cx="5.2295203" cy="5.3335712" rx="4.28884236" ry="4.37417674"></ellipse>
                    </g>
                    <g id="Oval-15" transform="translate(14.813559, 20.467082)">
                        <g id="path-16-link" fill="#FFFFFF">
                            <ellipse id="path-16" cx="5.2295203" cy="5.3335712" rx="5.22952032" ry="5.33357122"></ellipse>
                        </g>
                        <ellipse id="Oval" stroke="#F06823" stroke-width="2" cx="5.2295203" cy="5.3335712" rx="4.28884236" ry="4.37417674"></ellipse>
                    </g>
                    <g id="Oval-15" transform="translate(14.813559, 15.350312)">
                        <g id="path-17-link" fill="#FFFFFF">
                            <ellipse id="path-17" cx="5.2295203" cy="5.3335712" rx="5.22952032" ry="5.33357122"></ellipse>
                        </g>
                        <ellipse id="Oval" stroke="#F06823" stroke-width="2" cx="5.2295203" cy="5.3335712" rx="4.28884236" ry="4.37417674"></ellipse>
                    </g>
                    <g id="Oval-15" transform="translate(14.813559, 10.233541)">
                        <g id="path-18-link" fill="#FFFFFF">
                            <ellipse id="path-18" cx="5.2295203" cy="5.3335712" rx="5.22952032" ry="5.33357122"></ellipse>
                        </g>
                        <ellipse id="Oval" stroke="#F06823" stroke-width="2" cx="5.2295203" cy="5.3335712" rx="4.28884236" ry="4.37417674"></ellipse>
                    </g>
                    <g id="Oval-15" transform="translate(14.813559, 5.116771)">
                        <g id="path-19-link" fill="#FFFFFF">
                            <ellipse id="path-19" cx="5.2295203" cy="5.3335712" rx="5.22952032" ry="5.33357122"></ellipse>
                        </g>
                        <ellipse id="Oval" stroke="#F06823" stroke-width="2" cx="5.2295203" cy="5.3335712" rx="4.28884236" ry="4.37417674"></ellipse>
                    </g>
                    <g id="Oval-15" transform="translate(14.813559, 0.000000)">
                        <g id="path-20-link" fill="#FFFFFF">
                            <ellipse id="path-20" cx="5.2295203" cy="5.33357122" rx="5.22952032" ry="5.33357122"></ellipse>
                        </g>
                        <ellipse id="Oval" stroke="#F06823" stroke-width="2" cx="5.2295203" cy="5.33357122" rx="4.28884236" ry="4.37417674"></ellipse>
                    </g>
                </g>
                <g id="Group-2" transform="translate(0.021190, 20.868266)">
                    <g id="Oval-15" transform="translate(0.389831, 24.944256)">
                        <g id="path-12-link"></g>
                    </g>
                    <g id="Oval-15" transform="translate(5.406780, 24.944256)">
                        <g id="path-13-link"></g>
                    </g>
                    <g id="Oval-15" transform="translate(9.796610, 24.944256)">
                        <g id="path-14-link"></g>
                    </g>
                    <g id="Oval-15" transform="translate(14.813559, 24.944256)" stroke="#F06823" stroke-width="2">
                        <ellipse id="Oval" cx="5.2295203" cy="5.3335712" rx="4.28884236" ry="4.37417674"></ellipse>
                    </g>
                    <g id="Oval-15" transform="translate(14.813559, 20.467082)">
                        <g id="path-16-link" fill="#FFFFFF">
                            <ellipse id="path-16" cx="5.2295203" cy="5.3335712" rx="5.22952032" ry="5.33357122"></ellipse>
                        </g>
                        <ellipse id="Oval" stroke="#F06823" stroke-width="2" cx="5.2295203" cy="5.3335712" rx="4.28884236" ry="4.37417674"></ellipse>
                    </g>
                    <g id="Oval-15" transform="translate(14.813559, 15.350312)">
                        <g id="path-17-link" fill="#FFFFFF">
                            <ellipse id="path-17" cx="5.2295203" cy="5.3335712" rx="5.22952032" ry="5.33357122"></ellipse>
                        </g>
                        <ellipse id="Oval" stroke="#F06823" stroke-width="2" cx="5.2295203" cy="5.3335712" rx="4.28884236" ry="4.37417674"></ellipse>
                    </g>
                    <g id="Oval-15" transform="translate(14.813559, 10.233541)">
                        <g id="path-18-link" fill="#FFFFFF">
                            <ellipse id="path-18" cx="5.2295203" cy="5.3335712" rx="5.22952032" ry="5.33357122"></ellipse>
                        </g>
                        <ellipse id="Oval" stroke="#F06823" stroke-width="2" cx="5.2295203" cy="5.3335712" rx="4.28884236" ry="4.37417674"></ellipse>
                    </g>
                    <g id="Oval-15" transform="translate(14.813559, 5.116771)">
                        <g id="path-19-link" fill="#FFFFFF">
                            <ellipse id="path-19" cx="5.2295203" cy="5.3335712" rx="5.22952032" ry="5.33357122"></ellipse>
                        </g>
                        <ellipse id="Oval" stroke="#F06823" stroke-width="2" cx="5.2295203" cy="5.3335712" rx="4.28884236" ry="4.37417674"></ellipse>
                    </g>
                    <g id="Oval-15" transform="translate(14.813559, 0.000000)">
                        <g id="path-20-link" fill="#FFFFFF">
                            <ellipse id="path-20" cx="5.2295203" cy="5.33357122" rx="5.22952032" ry="5.33357122"></ellipse>
                        </g>
                        <ellipse id="Oval" stroke="#F06823" stroke-width="2" cx="5.2295203" cy="5.33357122" rx="4.28884236" ry="4.37417674"></ellipse>
                    </g>
                </g>
                <g id="Combined-Shape" transform="translate(6.661017, 0.000000)">
                    <g id="path-21-link" fill="#FFFFFF">
                        <path d="M10.6610169,3.64993152e-15 C4.59177695,1.16430786 0,6.59870033 0,13.1268984 C0,20.5040458 5.8636907,26.4844054 13.0969197,26.4844054 C20.3301487,26.4844054 26.1938394,20.5040458 26.1938394,13.1268984 C26.1938394,6.8785967 21.9873662,1.63231752 16.3050847,0.173057326 L16.3050847,12.8811161 C16.3050847,14.4706928 15.0416171,15.7592995 13.4830508,15.7592995 C11.9244845,15.7592995 10.6610169,14.4706928 10.6610169,12.8811161 L10.6610169,3.64993152e-15 Z" id="path-21"></path>
                    </g>
                    <path d="M9.72033898,1.21271984 C4.59540834,2.71783577 0.940677966,7.53638845 0.940677966,13.1268984 C0.940677966,19.9741869 6.38321278,25.5250109 13.0969197,25.5250109 C19.8106266,25.5250109 25.2531614,19.9741869 25.2531614,13.1268984 C25.2531614,7.83898236 21.9796982,3.2183376 17.2457627,1.46886023 L17.2457627,12.8811161 C17.2457627,15.0005518 15.5611392,16.718694 13.4830508,16.718694 C11.4049625,16.718694 9.72033898,15.0005518 9.72033898,12.8811161 L9.72033898,1.21271984 Z" id="Shape" stroke="#F06823" stroke-width="2"></path>
                </g>
            </g>
            <g id="Group-15" transform="translate(44.000000, 122.000000)">
                <g id="Mask" fill="#FFFFFF" fill-rule="nonzero">
                    <path d="M69.4254116,39.4044068 L69.4254116,84.4402531 C69.4254116,92.349388 62.9315239,98.7610078 54.9209072,98.7610078 L14.5045045,98.7610078 C6.49388789,98.7610078 -2.57169608e-15,92.349388 -3.55271368e-15,84.4402531 L-1.3920147e-15,39.4044068 L-1.31226361e-15,34.2729492 C8.20829639e-16,15.3445221 15.5414078,3.47709566e-15 34.7127059,0 C53.8840039,-3.47709566e-15 69.4254116,15.3445221 69.4254116,34.2729492 L69.4254116,39.4044068 Z" id="path-22"></path>
                </g>
                <g id="Path-10-Clipped">
                    <mask id="mask-2" fill="white">
                        <use xlink:href="#path-1"></use>
                    </mask>
                    <g id="path-22"></g>
                    <g id="Path-10" mask="url(#mask-2)">
                        <g transform="translate(-64.954955, 0.000000)" id="Group">
                            <g transform="translate(0.000000, 0.000000)">
                                <path d="M55.4954955,79.2386243 L135.750832,-2.27373675e-13" id="Shape" stroke="#F06823" stroke-width="2"></path>
                                <path d="M62.4324324,79.2386243 L142.687769,-2.27373675e-13" id="Shape" stroke="#F06823" stroke-width="2"></path>
                                <path d="M69.3693694,79.2386243 L149.624705,-2.27373675e-13" id="Shape" stroke="#F06823" stroke-width="2"></path>
                                <path d="M76.3063063,79.2386243 L156.561642,-2.27373675e-13" id="Shape" stroke="#F06823" stroke-width="2"></path>
                                <path d="M83.2432432,79.2386243 L163.498579,-2.27373675e-13" id="Shape" stroke="#F06823" stroke-width="2"></path>
                                <path d="M90.1801802,79.2386243 L170.435516,-2.27373675e-13" id="Shape" stroke="#F06823" stroke-width="2"></path>
                                <path d="M97.1171171,79.2386243 L177.372453,-2.27373675e-13" id="Shape" stroke="#F06823" stroke-width="2"></path>
                                <path d="M104.054054,79.2386243 L184.30939,-2.27373675e-13" id="Shape" stroke="#F06823" stroke-width="2"></path>
                                <path d="M1.27897692e-13,79.2386243 L80.2553361,-2.27373675e-13" id="Shape" stroke="#F06823" stroke-width="2"></path>
                                <path d="M6.93693694,79.2386243 L87.1922731,-2.27373675e-13" id="Shape" stroke="#F06823" stroke-width="2"></path>
                                <path d="M13.8738739,79.2386243 L94.12921,-2.27373675e-13" id="Shape" stroke="#F06823" stroke-width="2"></path>
                                <path d="M20.8108108,79.2386243 L101.066147,-2.27373675e-13" id="Shape" stroke="#F06823" stroke-width="2"></path>
                                <path d="M27.7477477,79.2386243 L108.003084,-2.27373675e-13" id="Shape" stroke="#F06823" stroke-width="2"></path>
                                <path d="M34.6846847,79.2386243 L114.940021,-2.27373675e-13" id="Shape" stroke="#F06823" stroke-width="2"></path>
                                <path d="M41.6216216,79.2386243 L121.876958,-2.27373675e-13" id="Shape" stroke="#F06823" stroke-width="2"></path>
                                <path d="M48.5585586,79.2386243 L128.813895,-2.27373675e-13" id="Shape" stroke="#F06823" stroke-width="2"></path>
                                <path d="M110.990991,79.2386243 L191.246327,-2.27373675e-13" id="Shape" stroke="#F06823" stroke-width="2"></path>
                                <path d="M117.927928,79.2386243 L198.183264,-2.27373675e-13" id="Shape" stroke="#F06823" stroke-width="2"></path>
                                <path d="M124.864865,79.2386243 L205.120201,-2.27373675e-13" id="Shape" stroke="#F06823" stroke-width="2"></path>
                                <path d="M131.801802,79.2386243 L212.057138,-2.27373675e-13" id="Shape" stroke="#F06823" stroke-width="2"></path>
                                <path d="M138.738739,79.2386243 L218.994075,-2.27373675e-13" id="Shape" stroke="#F06823" stroke-width="2"></path>
                                <path d="M145.675676,79.2386243 L225.931012,-2.27373675e-13" id="Shape" stroke="#F06823" stroke-width="2"></path>
                                <path d="M152.612613,79.2386243 L232.867949,-2.27373675e-13" id="Shape" stroke="#F06823" stroke-width="2"></path>
                            </g>
                        </g>
                    </g>
                </g>
            </g>
            <g id="Group-5" transform="translate(74.000000, 102.000000)">
                <g id="Group-21" transform="translate(0.000000, 5.224163)">
                    <g id="Oval-15">
                        <g id="path-24-link" fill="#FFFFFF">
                            <ellipse id="path-24" cx="4.90527344" cy="5.22416293" rx="4.90527344" ry="5.22416293"></ellipse>
                        </g>
                        <ellipse id="Oval" stroke="#F06823" stroke-width="2" cx="4.90527344" cy="5.22416293" rx="4.02292049" ry="4.28444864"></ellipse>
                    </g>
                    <g id="Oval-15" transform="translate(0.000000, 5.011810)">
                        <g id="path-25-link" fill="#FFFFFF">
                            <ellipse id="path-25" cx="4.90527344" cy="5.43651634" rx="4.90527344" ry="5.22416293"></ellipse>
                        </g>
                        <ellipse id="Oval" stroke="#F06823" stroke-width="2" cx="4.90527344" cy="5.43651634" rx="4.02292049" ry="4.28444864"></ellipse>
                    </g>
                </g>
                <g id="Group-21" transform="translate(0.000000, 5.224163)">
                    <g id="Oval-15">
                        <g id="path-26-link" fill="#FFFFFF">
                            <ellipse id="path-26" cx="4.90527344" cy="5.22416293" rx="4.90527344" ry="5.22416293"></ellipse>
                        </g>
                        <ellipse id="Oval" stroke="#F06823" stroke-width="2" cx="4.90527344" cy="5.22416293" rx="4.02292049" ry="4.28444864"></ellipse>
                    </g>
                </g>
                <g id="Oval-15">
                    <g id="path-27-link" fill="#FFFFFF">
                        <ellipse id="path-27" cx="4.90527344" cy="5.22416293" rx="4.90527344" ry="5.22416293"></ellipse>
                    </g>
                    <ellipse id="Oval" stroke="#F06823" stroke-width="2" cx="4.90527344" cy="5.22416293" rx="4.02292049" ry="4.28444864"></ellipse>
                </g>
            </g>
            <g id="Group-18" transform="translate(74.500000, 49.000000) rotate(-11.000000) translate(-74.500000, -49.000000) translate(68.000000, 34.000000)">
                <path d="M6.5,6.25 L6.5,29.4087591" id="Path-19" stroke="#F06823" stroke-width="2"></path>
                <g id="Oval-15">
                    <g id="path-28-link" fill="#FFFFFF">
                        <ellipse id="path-28" cx="6.5" cy="6.25" rx="6.5" ry="6.25"></ellipse>
                    </g>
                    <ellipse id="Oval" stroke="#F06823" stroke-width="2" cx="6.5" cy="6.25" rx="5.525" ry="5.3125"></ellipse>
                </g>
            </g>
            <g id="Rectangle-2" transform="translate(43.000000, 54.000000)">
                <g id="path-29-link" fill="#FFFFFF">
                    <rect id="path-29" x="0" y="0" width="70.693204" height="53.7617572" rx="23"></rect>
                </g>
                <rect id="Rectangle-path" stroke="#F06823" stroke-width="2" x="0.942477876" y="0.931034483" width="68.8082482" height="51.8996882" rx="18"></rect>
            </g>
            <g id="Group-3" transform="translate(62.000000, 65.000000)">
                <g id="Oval-15">
                    <g id="path-30-link" fill="#FFFFFF">
                        <ellipse id="path-30" cx="6.28571429" cy="6.5" rx="6.28571429" ry="6.5"></ellipse>
                    </g>
                    <path d="M11.6285714,6.5 C11.6285714,3.44862676 9.23649281,0.975 6.28571429,0.975 C3.33493577,0.975 0.942857143,3.44862676 0.942857143,6.5" id="Oval" stroke="#F06823" stroke-width="2"></path>
                </g>
                <g id="Oval-15" transform="translate(31.875000, 0.000000)">
                    <g id="path-31-link" fill="#FFFFFF">
                        <ellipse id="path-31" cx="6.28571429" cy="6.5" rx="6.28571429" ry="6.5"></ellipse>
                    </g>
                    <path d="M11.6285714,6.5 C11.6285714,3.44862676 9.23649281,0.975 6.28571429,0.975 C3.33493577,0.975 0.942857143,3.44862676 0.942857143,6.5" id="Oval" stroke="#F06823" stroke-width="2"></path>
                </g>
            </g>
            <path d="M113,207.322115 L113,156.834621 C113,137.595991 97.5538234,122 78.4999997,122 C59.4461761,122 44,137.595991 44,156.834621 L44,207.322115 C44,214.876203 50.0649726,221 57.5464954,221 L99.4535046,221 C106.935027,221 113,214.876203 113,207.322115 Z" id="Combined-Shape" stroke="#F06823" stroke-width="2"></path>
            <g id="Combined-Shape" transform="translate(43.000000, 119.000000)">
                <g id="path-32-link" fill="#FFFFFF">
                    <path d="M57.2871599,45.1579783 C57.2873453,45.1157631 57.2874376,45.0735236 57.2874376,45.031259 L57.2874376,41.2894313 C57.2874376,27.593396 47.5575938,16.490566 35.5552235,16.490566 C23.5528527,16.490566 13.8230088,27.593396 13.8230088,41.2894313 L13.8230088,45.031259 C13.8230088,45.0735236 13.8231015,45.1157631 13.8232866,45.1579783 C13.8231015,45.1923962 13.8230088,45.22684 13.8230088,45.2613082 L13.8230088,75.6541376 C13.8230088,84.7616256 20.2930886,92.1447037 28.2743363,92.1447037 L42.8361102,92.1447037 C50.8173578,92.1447037 57.2874376,84.7616256 57.2874376,75.6541376 L57.2874376,45.2613082 C57.2874376,45.22684 57.2873453,45.1923962 57.2871599,45.1579783 Z M70.693204,44.9404871 L70.693204,97.2342308 C70.693204,106.341719 64.2231241,113.724797 56.2418765,113.724797 L14.4513274,113.724797 C6.47007971,113.724797 0,106.341719 0,97.2342308 L0,44.9404871 L0,40.3343895 C0,18.0583213 15.8252127,0 35.3466017,0 C54.8679914,0 70.693204,18.0583213 70.693204,40.3343895 L70.693204,44.9404871 Z" id="path-32"></path>
                </g>
                <path d="M58.4467933,45.2562773 L58.4467876,45.2442515 C58.4470346,45.2994008 58.4470346,45.2994008 58.4470837,45.3546004 L58.4470837,75.8635126 C58.4470837,85.602021 51.5358363,93.4966423 43.0103796,93.4966423 L28.4080256,93.4966423 C19.8825693,93.4966423 12.9713215,85.602021 12.9713215,75.8635126 L12.9713215,45.3546004 C12.971371,45.2994008 12.971371,45.2994008 12.9716119,45.2562773 C12.97137,45.1899998 12.97137,45.1899998 12.9713215,45.1236726 L12.9713215,41.3675533 C12.9713215,27.0229721 23.1514177,15.3943916 35.7092029,15.3943916 C48.2669875,15.3943916 58.4470837,27.0229721 58.4470837,41.3675533 L58.4470837,45.1236726 C58.4470352,45.1899998 58.4470352,45.1899998 58.4467933,45.2562773 Z M70,97.5260291 L70,40.4088638 C70,18.6439492 54.5538234,1 35.4999997,1 C16.4461761,1 1,18.6439492 1,40.4088638 L1,97.5260291 C1,106.072068 7.0649726,113 14.5464954,113 L56.4535046,113 C63.9350273,113 70,106.072068 70,97.5260291 Z" id="Shape" stroke="#F06823" stroke-width="2"></path>
            </g>
            <g id="Group-2" transform="translate(76.000000, 77.000000)">
                <g id="Group">
                    <mask id="mask-4" fill="white">
                        <use xlink:href="#path-3"></use>
                    </mask>
                    <use id="Mask" fill="#FFFFFF" xlink:href="#path-3"></use>
                    <g mask="url(#mask-4)">
                        <g transform="translate(9.000000, 5.519713) scale(-1, 1) translate(-9.000000, -5.519713) translate(4.000000, 0.519713)">
                            <g id="Group-19" stroke="none" stroke-width="1" fill-rule="evenodd" transform="translate(5.000000, 5.000000) scale(-1, 1) translate(-5.000000, -5.000000) translate(4.000000, 0.000000)">
                                <g id="Group-17" transform="translate(-0.000000, 0.000000)" stroke="#F06823" stroke-width="2">
                                    <path d="M1,0.259856631 L1,9.57985633" id="Path-18"></path>
                                </g>
                            </g>
                            <path d="M-4.4408921e-16,0 L10,0 L10,7.01612903 C10,7.87721813 9.3284271,8.57526882 8.5,8.57526882 L1.5,8.57526882 C0.671572875,8.57526882 2.52594e-17,7.87721813 -4.4408921e-16,7.01612903 L-4.4408921e-16,0 Z" id="Rectangle-4" stroke="#F06823" stroke-width="2"></path>
                        </g>
                    </g>
                </g>
                <ellipse id="Oval-4" stroke="#F06823" stroke-width="2" cx="9" cy="10.6451613" rx="9" ry="9.35483871"></ellipse>
            </g>
        </g>
        <g id="Group-32" transform="translate(533.500000, 227.500000) scale(-1, 1) translate(-533.500000, -227.500000) translate(469.000000, 143.000000)" fill="#FFFFFF" stroke="#F06823" stroke-linecap="round" stroke-width="2">
            <path d="M103.166413,32 C101.377913,36.7706422 101.646188,41.9082569 103.971238,47.412844 C106.296288,52.9174312 109.068462,57.7798165 112.287762,62 L119,62 C113.809775,55.0275229 110.588687,49.8899083 109.336737,46.587156 C108.084788,43.2844037 107.727088,40.3486239 108.263638,37.7798165 L103.166413,32 Z" id="Path-36"></path>
            <path d="M0,54.0131198 L3.99680289e-15,80.2752395 C1.96733207e-15,81.9527613 1.35990011,83.3126614 3.03742191,83.3126614 L3.03742191,83.3126614 C4.75737525,83.3126614 6.1932388,84.6247993 6.34780329,86.3377936 L13.8064632,169 L109.655541,169 L121.267037,86.89056 C121.557258,84.8382946 123.313818,83.3126614 125.386503,83.3126614 L125.386503,83.3126614 C127.382182,83.3126614 129,81.6948436 129,79.6991641 L129,54 L0,54.0131198 Z" id="Path-32"></path>
            <path d="M13,82.5 L116,82.5" id="Path-33"></path>
            <path d="M101.157572,13.9041717 L115.909091,33.0676908 C117.363636,35.6396223 117.363636,37.7522804 115.909091,39.4056649 C114.454545,41.0590494 112.363636,41.4264682 109.636364,40.5079213 L92.1362644,20.9142104 C91.881178,20.9332052 91.6235243,20.9428709 91.3636364,20.9428709 C85.639958,20.9428709 81,16.2546495 81,10.4714354 C81,4.68822133 85.639958,0 91.3636364,0 C97.0873147,0 101.727273,4.68822133 101.727273,10.4714354 C101.727273,11.6737726 101.52672,12.8287811 101.157572,13.9041717 Z" id="Combined-Shape"></path>
            <path d="M91,18 C91,15.4634146 92.0114943,13.7073171 94.0344828,12.7317073 C96.0574713,11.7560976 97.7126437,11.7560976 99,12.7317073" id="Path-35"></path>
        </g>
        <path d="M4,247 L624,247" id="Path-11" stroke="#F06823" stroke-width="3" stroke-linecap="round"></path>
        <path d="M413.387624,124.597013 C414.833497,121.982749 416.20529,120.248095 417.503003,119.39305 C418.994914,118.41005 419.934179,117.960734 420.320799,118.045101 C420.9849,115.572898 421.943128,114.037253 423.195482,113.438164 C425.074014,112.539531 432.996823,112.212113 434.409784,111.305354 C435.351759,110.700847 437.083227,109.333936 439.604188,107.20462 L441.205239,108.862556 C438.041847,112.222556 435.991873,114.049619 435.055316,114.343746 C433.650481,114.784936 428.292368,114.924265 426.658811,115.128607 C425.025254,115.332949 423.612293,116.239708 423.832888,116.942126 C424.053482,117.644543 425.119299,116.615297 427.541191,117.938277 C429.963083,119.261258 431.39695,123.826972 429.739014,125.428023 C428.081078,127.029074 425.500129,128.148301 422.747344,125.771694 C420.912154,124.18729 420.160585,122.777037 420.492635,121.540936 C419.414433,121.056404 418.556825,121.27429 417.919813,122.194594 C417.438422,122.890069 416.955483,123.67417 416.470998,124.546898 C417.905177,124.680561 419.453061,125.056859 420.876939,126.204758 C422.943559,127.870821 424.054661,130.917339 423.091015,132.763364 C422.12737,134.609389 418.817095,135.921348 416.091219,133.572605 C414.273968,132.006777 413.143905,130.046587 412.701029,127.692037 L407.089815,128.991227 L406.664878,126.655252 C409.685773,125.553496 411.926688,124.867417 413.387624,124.597013 Z M419.676446,128.279504 C418.665891,127.233044 417.210431,126.999133 416.425586,127.757049 C415.64074,128.514965 415.823714,129.977702 416.834269,131.024162 C417.844824,132.070623 419.300284,132.304534 420.08513,131.546618 C420.869975,130.788701 420.687001,129.325965 419.676446,128.279504 Z M426.798141,120.48672 C425.787585,119.44026 424.332126,119.206348 423.54728,119.964265 C422.762435,120.722181 422.945409,122.184918 423.955964,123.231378 C424.966519,124.277839 426.421979,124.51175 427.206824,123.753834 C427.99167,122.995917 427.808696,121.533181 426.798141,120.48672 Z" id="Combined-Shape" fill="#876E8C" transform="translate(423.935058, 121.020320) rotate(-314.000000) translate(-423.935058, -121.020320) "></path>
        <circle id="Oval-5" fill="#876E8C" cx="523.157045" cy="36.8429549" r="3.84295489"></circle>
        <g id="Combined-Shape" stroke-linecap="round">
            <use fill="#FFFFFF" fill-rule="evenodd" xlink:href="#path-5"></use>
            <path stroke="#8B7490" stroke-width="2" d="M590.436583,41.3334861 C591.1258,39.2590556 592.168535,37.5232592 593.565193,36.1389222 C595.622155,34.1001063 597.753625,33.6836244 602.091426,33.9721646 C606.070475,34.2368413 607.819719,34.1771605 608.770253,33.6745177 C609.492517,33.2925843 609.905022,32.919435 610.043766,32.6007873 L610.44887,31.670399 L613.093249,32.8681773 L612.867415,33.6914203 C612.58736,34.7123144 612.214824,35.5132109 611.727075,36.095235 C610.781471,37.2236105 608.362751,38.3710866 606.569104,38.2517775 C606.661535,38.2579257 605.193932,38.1545466 604.620692,38.1185257 C603.464191,38.0458541 602.406925,37.9969743 601.409845,37.9769337 C599.229794,37.9331161 597.605,38.040007 596.849349,38.3046433 C595.953622,38.6183357 595.276701,39.3417348 594.818465,40.5455542 C594.82985,40.5479395 594.841383,40.5503197 594.853064,40.5526939 C595.3756,40.6589059 596.133662,40.7422444 597.116613,40.7987386 C600.136367,40.9722963 601.976365,43.3791595 602.368035,45.7361221 C602.728943,47.9079711 599.752118,50.9992548 596.214191,50.9023724 C593.737234,50.8345435 591.943562,49.2757097 590.84984,46.4103235 C590.063613,47.1728479 589.371214,47.9473813 588.772264,48.7335944 C587.981097,49.7721218 587.197114,52.2218477 586.499134,55.9992901 L586.322033,56.9577531 L582.906494,56.4167848 L583.005455,55.4732076 C583.422406,51.4976456 584.034432,48.6481716 584.871738,46.8839774 C585.714529,45.1082266 587.571226,43.2758835 590.436583,41.3334861 Z M594.4434,44.6280683 C594.814322,45.65342 595.311237,46.3546242 595.916169,46.7541693 C596.57912,47.1920355 597.793458,46.7548017 598.317214,46.202474 C598.314739,46.1895205 598.311831,46.1756523 598.308454,46.1609756 C598.261365,45.9563713 598.149929,45.7065384 597.991429,45.4728954 C597.612096,44.9137258 597.076322,44.5773638 596.452805,44.5678965 C595.667797,44.5559771 594.996567,44.5768028 594.4434,44.6280683 Z M598.329127,46.2992456 C598.328999,46.300926 598.328892,46.302579 598.328805,46.3042043 C598.32904,46.2998148 598.329007,46.2942098 598.328671,46.2874838 Z"></path>
        </g>
        <path d="M456,24.358318 L459.751935,19 L460.426992,21.602134 C460.815922,23.1013364 462.236328,24.0959151 463.778139,23.9486324 C465.361114,23.7974174 466.851749,24.7166082 467.427412,26.1989335 L467.665758,26.8126722 C468.301545,28.4498191 469.897717,29.5106697 471.653335,29.4629036 C473.428066,29.4146174 475.059672,30.4322212 475.797024,32.0472496 L476.354373,33.2680156 C477.000205,34.6825889 478.487477,35.5163145 480.031202,35.3291495 C481.550089,35.144996 482.99611,36.0299123 483.523332,37.466215 L483.675574,37.8809665 C484.306707,39.6003507 485.949152,40.7385685 487.780667,40.7258043 L490.750044,40.70511 L486.99811,46.063428 L484.408271,46.1338913 C482.440418,46.1874319 480.642073,45.0257783 479.88175,43.2099532 L479.585518,42.5024819 C479.019477,41.1506462 477.600047,40.3635685 476.153599,40.5994738 C474.697159,40.8370088 473.261858,40.070667 472.648979,38.7282732 L472.045089,37.4055676 C471.307738,35.7905392 469.676132,34.7729353 467.9014,34.8212215 C466.159074,34.868626 464.58743,33.780118 464.019135,32.1323962 L463.965675,31.9773915 C463.415622,30.3825624 461.87879,29.342318 460.193762,29.4242753 C458.53732,29.5048421 457.051641,28.412063 456.635197,26.8068014 L456,24.358318 Z" id="Rectangle-2" fill="#F27535"></path>
        <circle id="Oval-5" fill="#F06823" cx="562.842955" cy="28.8429549" r="3.84295489"></circle>
        <g id="Oval-7" stroke-linecap="round">
            <use fill="#FFFFFF" fill-rule="evenodd" xlink:href="#path-6"></use>
            <circle stroke="#876E8C" stroke-width="2" cx="442.690068" cy="151.690068" r="3.69006842"></circle>
        </g>
    </g>
</svg>