<?xml version="1.0" encoding="UTF-8"?>
<svg width="984px" height="305px" viewBox="0 0 984 305" version="1.1" xmlns="http://www.w3.org/2000/svg" xmlns:xlink="http://www.w3.org/1999/xlink">
    <!-- Generator: Sketch 49.1 (51147) - http://www.bohemiancoding.com/sketch -->
    <title>Artboard Copy</title>
    <desc>Created with Sketch.</desc>
    <defs>
        <path d="M145.723876,83.9831296 L145.723876,179.96862 C145.723876,196.825463 132.093211,210.490633 115.278934,210.490633 L30.4449418,210.490633 C13.6306648,210.490633 -1.49355862e-15,196.825463 -3.55271368e-15,179.96862 L9.82591509e-16,83.9831296 L1.14998898e-15,73.0463867 C5.62734977e-15,32.7039814 32.6214009,7.41077965e-15 72.861938,0 C113.102475,-7.41077965e-15 145.723876,32.7039814 145.723876,73.0463867 L145.723876,83.9831296 Z" id="path-1"></path>
    </defs>
    <g id="Artboard-Copy" stroke="none" stroke-width="1" fill="none" fill-rule="evenodd">
        <g id="Group-31" transform="translate(135.000000, 228.000000)">
            <g id="Group-15" transform="translate(2.000000, 3.000000)">
                <g id="Mask" fill="#FFFFFF" fill-rule="nonzero">
                    <path d="M145.723876,83.9831296 L145.723876,179.96862 C145.723876,196.825463 132.093211,210.490633 115.278934,210.490633 L30.4449418,210.490633 C13.6306648,210.490633 -1.49355862e-15,196.825463 -3.55271368e-15,179.96862 L9.82591509e-16,83.9831296 L1.14998898e-15,73.0463867 C5.62734977e-15,32.7039814 32.6214009,7.41077965e-15 72.861938,0 C113.102475,-7.41077965e-15 145.723876,32.7039814 145.723876,73.0463867 L145.723876,83.9831296 Z" id="path-22"></path>
                </g>
                <g id="Path-10-Clipped">
                    <mask id="mask-2" fill="white">
                        <use xlink:href="#path-1"></use>
                    </mask>
                    <g id="path-22"></g>
                    <g id="Path-10" mask="url(#mask-2)">
                        <g transform="translate(-132.369312, 0.000000)" id="Group">
                            <g>
                                <path d="M116.484995,168.882321 L284.940872,-2.27373675e-13" id="Shape" stroke="#F06823" stroke-width="3"></path>
                                <path d="M131.045619,168.882321 L299.501496,-2.27373675e-13" id="Shape" stroke="#F06823" stroke-width="3"></path>
                                <path d="M145.606243,168.882321 L314.062121,-2.27373675e-13" id="Shape" stroke="#F06823" stroke-width="3"></path>
                                <path d="M160.166868,168.882321 L328.622745,-2.27373675e-13" id="Shape" stroke="#F06823" stroke-width="3"></path>
                                <path d="M174.727492,168.882321 L343.183369,-2.27373675e-13" id="Shape" stroke="#F06823" stroke-width="3"></path>
                                <path d="M189.288116,168.882321 L357.743994,-2.27373675e-13" id="Shape" stroke="#F06823" stroke-width="3"></path>
                                <path d="M203.84874,168.882321 L372.304618,-2.27373675e-13" id="Shape" stroke="#F06823" stroke-width="3"></path>
                                <path d="M218.409365,168.882321 L386.865242,-2.27373675e-13" id="Shape" stroke="#F06823" stroke-width="3"></path>
                                <path d="M0,168.882321 L168.455878,-2.27373675e-13" id="Shape" stroke="#F06823" stroke-width="3"></path>
                                <path d="M14.5606243,168.882321 L183.016502,-2.27373675e-13" id="Shape" stroke="#F06823" stroke-width="3"></path>
                                <path d="M29.1212486,168.882321 L197.577126,-2.27373675e-13" id="Shape" stroke="#F06823" stroke-width="3"></path>
                                <path d="M43.681873,168.882321 L212.13775,-2.27373675e-13" id="Shape" stroke="#F06823" stroke-width="3"></path>
                                <path d="M58.2424973,168.882321 L226.698375,-2.27373675e-13" id="Shape" stroke="#F06823" stroke-width="3"></path>
                                <path d="M72.8031216,168.882321 L241.258999,-2.27373675e-13" id="Shape" stroke="#F06823" stroke-width="3"></path>
                                <path d="M87.3637459,168.882321 L255.819623,-2.27373675e-13" id="Shape" stroke="#F06823" stroke-width="3"></path>
                                <path d="M101.92437,168.882321 L270.380248,-2.27373675e-13" id="Shape" stroke="#F06823" stroke-width="3"></path>
                                <path d="M232.969989,168.882321 L401.425867,-2.27373675e-13" id="Shape" stroke="#F06823" stroke-width="3"></path>
                                <path d="M247.530613,168.882321 L415.986491,-2.27373675e-13" id="Shape" stroke="#F06823" stroke-width="3"></path>
                                <path d="M262.091238,168.882321 L430.547115,-2.27373675e-13" id="Shape" stroke="#F06823" stroke-width="3"></path>
                                <path d="M276.651862,168.882321 L445.10774,-2.27373675e-13" id="Shape" stroke="#F06823" stroke-width="3"></path>
                                <path d="M291.212486,168.882321 L459.668364,-2.27373675e-13" id="Shape" stroke="#F06823" stroke-width="3"></path>
                                <path d="M305.773111,168.882321 L474.228988,-2.27373675e-13" id="Shape" stroke="#F06823" stroke-width="3"></path>
                                <path d="M320.333735,168.882321 L488.789613,-2.27373675e-13" id="Shape" stroke="#F06823" stroke-width="3"></path>
                            </g>
                        </g>
                    </g>
                </g>
            </g>
            <path d="M150,181.400786 L150,75.836025 C150,35.609799 117.316786,3 76.9999993,3 C36.6832132,3 4,35.609799 4,75.836025 L4,181.400786 C4,197.195697 16.8331304,210 32.663599,210 L121.336401,210 C137.166869,210 150,197.195697 150,181.400786 Z" id="Combined-Shape" stroke="#F06823" stroke-width="3"></path>
            <g id="Combined-Shape">
                <g id="path-32-link" fill="#FFFFFF">
                    <path d="M123.449795,85.1663625 C123.450195,85.0867463 123.450394,85.007084 123.450394,84.9273745 L123.450394,77.8704186 C123.450394,52.0401767 102.483266,31.1006289 76.6190029,31.1006289 C50.7547389,31.1006289 29.7876106,52.0401767 29.7876106,77.8704186 L29.7876106,84.9273745 C29.7876106,85.007084 29.7878103,85.0867463 29.7882091,85.1663625 C29.7878103,85.2312736 29.7876106,85.2962333 29.7876106,85.3612391 L29.7876106,142.681049 C29.7876106,159.857452 43.7301767,173.781678 60.9292035,173.781678 L92.3088008,173.781678 C109.507827,173.781678 123.450394,159.857452 123.450394,142.681049 L123.450394,85.3612391 C123.450394,85.2962333 123.450195,85.2312736 123.449795,85.1663625 Z M152.338876,84.7561817 L152.338876,183.380348 C152.338876,200.556752 138.39631,214.480976 121.197283,214.480976 L31.1415929,214.480976 C13.9425661,214.480976 0,200.556752 0,183.380348 L0,84.7561817 L0,76.0692433 C0,34.0573603 34.102219,0 76.1694374,0 C118.236657,0 152.338876,34.0573603 152.338876,76.0692433 L152.338876,84.7561817 Z" id="path-32"></path>
                </g>
                <path d="M125.219209,84.98052 L125.219197,84.9579716 C125.219726,85.0613765 125.219726,85.0613765 125.219832,85.1648757 L125.219832,142.369086 C125.219832,160.628789 110.395707,175.431204 92.1092201,175.431204 L60.7882289,175.431204 C42.5017429,175.431204 27.6776172,160.628789 27.6776172,142.369086 L27.6776172,85.1648757 C27.6777233,85.0613765 27.6777233,85.0613765 27.67824,84.98052 C27.6777211,84.8562496 27.6777211,84.8562496 27.6776172,84.7318861 L27.6776172,77.6891624 C27.6776172,50.7930726 49.5131858,28.9894842 76.4487251,28.9894842 C103.384263,28.9894842 125.219832,50.7930726 125.219832,77.6891624 L125.219832,84.7318861 C125.219728,84.8562496 125.219728,84.8562496 125.219209,84.98052 Z M150,182.986304 L150,75.8916196 C150,35.0824048 116.869071,2 75.9999993,2 C35.1309285,2 2,35.0824048 2,75.8916196 L2,182.986304 C2,199.010127 15.0089267,212 31.056251,212 L120.943749,212 C136.991073,212 150,199.010127 150,182.986304 Z" id="Shape" stroke="#F06823" stroke-width="3"></path>
            </g>
        </g>
        <path d="M188.080351,122.999176 C187.511863,121.45386 184.945081,114.315842 184.877647,111.233539 C184.543536,95.9618084 184.543536,105.137904 184.543536,82.904041 C184.543536,46.5756032 173.154105,25 161.827938,25 C160.871076,25 159.900375,25.1553682 158.925719,25.4682041 C150.69947,28.1157619 141.316418,43.1452285 148.639448,76.6431232 C155.002473,105.749644 160.7532,116.13358 162.918687,121.654877 C164.647795,126.06355 164.186486,121.43325 165.878788,129.478802 C158.364255,134.929286 175.495833,142.256785 173.934012,150 C188.103559,143.341355 199.625555,137.926865 208.5,133.756529 C217.374446,137.926865 228.896441,143.341355 243.065988,150 C241.504167,142.256785 258.635745,134.929286 251.121213,129.478802 C252.813514,121.43325 252.352204,126.06355 254.081314,121.654877 C256.2468,116.13358 261.997527,105.749644 268.360551,76.6431232 C275.683582,43.1452285 266.30053,28.1157619 258.074281,25.4682041 C257.099626,25.1553682 256.128924,25 255.172062,25 C243.845895,25 232.456464,46.5756032 232.456464,82.904041 C232.456464,105.137904 232.456464,95.9618084 232.122353,111.233539 C232.054919,114.315842 229.488137,121.45386 228.919649,122.999176 C226.802833,122.77332 224.063306,122.682494 221.320449,122.682494 C219.410265,122.682494 214.222116,122.726435 208.5,122.798905 C202.777884,122.726435 197.589736,122.682494 195.679551,122.682494 C192.936693,122.682494 190.197167,122.77332 188.080351,122.999176 Z" id="Combined-Shape" stroke="#F06823" stroke-width="3" fill="#FFFFFF" fill-rule="nonzero" transform="translate(208.500000, 87.500000) scale(-1, 1) translate(-208.500000, -87.500000) "></path>
        <g id="Group-5" transform="translate(197.000000, 212.000000)">
            <g id="Group-21" transform="translate(0.000000, 10.006758)">
                <g id="Oval-15">
                    <g id="path-24-link" fill="#FFFFFF">
                        <ellipse id="path-24" cx="10.3010742" cy="10.0067578" rx="10.3010742" ry="10.0067578"></ellipse>
                    </g>
                    <ellipse id="Oval" stroke="#F06823" stroke-width="3" cx="10.3010742" cy="10.0067578" rx="8.44813304" ry="8.20675781"></ellipse>
                </g>
                <g id="Oval-15" transform="translate(0.000000, 9.600000)">
                    <g id="path-25-link" fill="#FFFFFF">
                        <ellipse id="path-25" cx="10.3010742" cy="10.4135156" rx="10.3010742" ry="10.0067578"></ellipse>
                    </g>
                    <ellipse id="Oval" stroke="#F06823" stroke-width="3" cx="10.3010742" cy="10.4135156" rx="8.44813304" ry="8.20675781"></ellipse>
                </g>
            </g>
            <g id="Group-21" transform="translate(0.000000, 10.006758)">
                <g id="Oval-15">
                    <g id="path-26-link" fill="#FFFFFF">
                        <ellipse id="path-26" cx="10.3010742" cy="10.0067578" rx="10.3010742" ry="10.0067578"></ellipse>
                    </g>
                    <ellipse id="Oval" stroke="#F06823" stroke-width="3" cx="10.3010742" cy="10.0067578" rx="8.44813304" ry="8.20675781"></ellipse>
                </g>
            </g>
            <g id="Oval-15">
                <g id="path-27-link" fill="#FFFFFF">
                    <ellipse id="path-27" cx="10.3010742" cy="10.0067578" rx="10.3010742" ry="10.0067578"></ellipse>
                </g>
                <ellipse id="Oval" stroke="#F06823" stroke-width="3" cx="10.3010742" cy="10.0067578" rx="8.44813304" ry="8.20675781"></ellipse>
            </g>
        </g>
        <g id="Group-18" transform="translate(196.000000, 76.000000)">
            <path d="M12,12.0949074 L12,56.911395" id="Path-19" stroke="#F06823" stroke-width="3"></path>
            <g id="Oval-15">
                <g id="path-28-link" fill="#FFFFFF">
                    <ellipse id="path-28" cx="12" cy="12.0949074" rx="12" ry="12.0949074"></ellipse>
                </g>
                <ellipse id="Oval" stroke="#F06823" stroke-width="3" cx="12" cy="12.0949074" rx="10.2" ry="10.2806713"></ellipse>
            </g>
        </g>
        <g id="Rectangle-2" transform="translate(139.000000, 118.000000)">
            <g id="path-29-link" fill="#FFFFFF">
                <rect id="path-29" x="0" y="0" width="136.408013" height="105.532338" rx="23"></rect>
            </g>
            <rect id="Rectangle-path" stroke="#F06823" stroke-width="3" x="1.81858407" y="1.82758621" width="132.770845" height="101.877166" rx="23"></rect>
        </g>
        <g id="Group-3" transform="translate(165.000000, 145.000000)">
            <g id="Oval-15">
                <g id="path-30-link" fill="#FFFFFF">
                    <ellipse id="path-30" cx="12.1358885" cy="12" rx="12.1358885" ry="12"></ellipse>
                </g>
                <path d="M22.4513937,12 C22.4513937,6.36669555 17.8329847,1.8 12.1358885,1.8 C6.43879228,1.8 1.82038328,6.36669555 1.82038328,12" id="Oval" stroke="#F06823" stroke-width="3"></path>
            </g>
            <g id="Oval-15" transform="translate(61.000000, 0.000000)">
                <g id="path-31-link" fill="#FFFFFF">
                    <ellipse id="path-31" cx="12.1358885" cy="12" rx="12.1358885" ry="12"></ellipse>
                </g>
                <path d="M22.4513937,12 C22.4513937,6.36669555 17.8329847,1.8 12.1358885,1.8 C6.43879228,1.8 1.82038328,6.36669555 1.82038328,12" id="Oval" stroke="#F06823" stroke-width="3"></path>
            </g>
        </g>
        <g id="Group-2" transform="translate(198.000000, 182.000000)" stroke="#F06823" stroke-width="3">
            <g id="Group">
                <g transform="translate(10.455556, 8.966667) scale(-1, 1) translate(-10.455556, -8.966667) translate(0.455556, 0.966667)">
                    <g id="Group-19" transform="translate(9.368056, 8.000000) scale(-1, 1) translate(-9.368056, -8.000000) translate(8.868056, 0.000000)">
                        <g id="Group-17">
                            <path d="M0,0.483333333 L0,15.95" id="Path-18"></path>
                        </g>
                    </g>
                    <path d="M-4.4408921e-16,0 L19.7361111,0 L19.7361111,13.05 C19.7361111,14.6516257 18.4106874,15.95 16.7756944,15.95 L2.96041667,15.95 C1.32542369,15.95 4.82222422e-16,14.6516257 -4.4408921e-16,13.05 L-4.4408921e-16,0 Z" id="Rectangle-4"></path>
                </g>
            </g>
        </g>
        <g id="Oval-15" transform="translate(221.000000, 290.000000)">
            <g id="path-28-link" fill="#FFFFFF">
                <ellipse id="path-28" cx="12" cy="12.0949074" rx="12" ry="12.0949074"></ellipse>
            </g>
            <ellipse id="Oval" stroke="#F06823" stroke-width="3" cx="12" cy="12.0949074" rx="10.2" ry="10.2806713"></ellipse>
        </g>
        <path d="M165,177 C185.322379,180.333333 200.86698,182 211.633803,182 C222.400626,182 235.522692,180.333333 251,177" id="Line-2" stroke="#F06823" stroke-width="3"></path>
        <path d="M246.972212,307.837844 C251.942774,307.837844 254.964957,301.612364 254.964957,296.641802 C254.964957,291.671239 247.875622,282.197786 242.905059,282.197786 C237.934497,282.197786 240.606358,293.867281 240.606358,298.837844 C240.606358,303.808407 242.001649,307.837844 246.972212,307.837844 Z" id="Oval-10" stroke="#F06823" stroke-width="3" fill="#FFFFFF" transform="translate(247.427072, 295.017815) scale(-1, 1) rotate(-215.000000) translate(-247.427072, -295.017815) "></path>
        <g id="Group-23" transform="translate(257.273223, 258.497513) scale(-1, 1) rotate(44.000000) translate(-257.273223, -258.497513) translate(221.773223, 240.997513)" stroke-width="3">
            <path d="M70.0184551,25.5188112 L70.0184551,34.043316 L-1.84741111e-13,34.043316 L-1.84741111e-13,25.5188112 C0.158684356,25.5278864 0.318586467,25.532487 0.479578459,25.532487 C4.98226424,25.532487 8.63241227,21.9337495 8.63241227,17.4944818 C8.63241227,13.0552142 4.98226424,9.45647666 0.479578459,9.45647666 C0.318586467,9.45647666 0.158684356,9.46107727 -2.3456237e-13,9.47015242 L-1.84741111e-13,2.84217094e-13 L70.0184551,2.84217094e-13 L70.0184551,9.47015242 C65.7389945,9.71489445 62.3451997,13.2139387 62.3451997,17.4944818 C62.3451997,21.775025 65.7389945,25.2740692 70.0184551,25.5188112 Z" id="Combined-Shape" stroke="#F06823" fill="#F06823"></path>
            <path d="M50.3557382,0.472823833 L50.3557382,33.6918529" id="Line" stroke="#FFFFFF" stroke-dasharray="4,3,4,3"></path>
        </g>
        <g id="Oval-15" transform="translate(173.000000, 291.000000)">
            <g id="path-28-link" fill="#FFFFFF">
                <ellipse id="path-28" cx="12" cy="12.0949074" rx="12" ry="12.0949074"></ellipse>
            </g>
            <ellipse id="Oval" stroke="#F06823" stroke-width="3" cx="12" cy="12.0949074" rx="10.2" ry="10.2806713"></ellipse>
        </g>
        <g id="Group-23" transform="translate(239.899131, 244.065324) scale(-1, 1) rotate(65.000000) translate(-239.899131, -244.065324) translate(204.399131, 226.565324)" stroke="#F06823" stroke-width="3">
            <path d="M70.0184551,25.5188112 L70.0184551,34.043316 L4.54747351e-13,34.043316 L4.54747351e-13,25.5188112 C0.158684356,25.5278864 0.318586467,25.532487 0.479578459,25.532487 C4.98226424,25.532487 8.63241227,21.9337495 8.63241227,17.4944818 C8.63241227,13.0552142 4.98226424,9.45647666 0.479578459,9.45647666 C0.318586467,9.45647666 0.158684356,9.46107727 4.05148137e-13,9.47015242 L4.54747351e-13,0 L70.0184551,0 L70.0184551,9.47015242 C65.7389945,9.71489445 62.3451997,13.2139387 62.3451997,17.4944818 C62.3451997,21.775025 65.7389945,25.2740692 70.0184551,25.5188112 Z" id="Combined-Shape" fill="#FFFFFF"></path>
            <path d="M50.3557382,0.472823833 L50.3557382,33.6918529" id="Line" stroke-dasharray="4,3,4,3"></path>
        </g>
        <g id="Group-23" transform="translate(161.119070, 265.935242) rotate(-141.000000) translate(-161.119070, -265.935242) translate(122.619070, 238.435242)" stroke-width="3">
            <path d="M14.7057043,25.6757378 C19.676267,25.6757378 22.6984499,19.4502582 22.6984499,14.4796955 C22.6984499,9.50913271 15.6091148,0.0356800441 10.638552,0.0356800441 C5.66798926,0.0356800441 8.3398506,11.705175 8.3398506,16.6757378 C8.3398506,21.6463005 9.73514151,25.6757378 14.7057043,25.6757378 Z" id="Oval-10" stroke="#F06823" fill="#FFFFFF" transform="translate(15.160564, 12.855709) rotate(-424.000000) translate(-15.160564, -12.855709) "></path>
            <g id="Group-4" transform="translate(42.247984, 34.887810) rotate(-185.000000) translate(-42.247984, -34.887810) translate(9.247984, 17.887810)">
                <path d="M65.7618945,25.0892496 L65.7618945,33.3625226 L0.741897824,33.3625226 L0.741897824,25.0892496 C0.889254064,25.0980573 1.03774113,25.1025223 1.18724027,25.1025223 C5.36848954,25.1025223 8.75806179,21.6098458 8.75806179,17.301411 C8.75806179,12.9929762 5.36848954,9.50029968 1.18724027,9.50029968 C1.03774113,9.50029968 0.889254064,9.5047647 0.741897824,9.51357239 L0.741897824,0.322521647 L65.7618945,0.322521647 L65.7618945,9.51357239 C61.7879349,9.75110145 58.6364154,13.1470228 58.6364154,17.301411 C58.6364154,21.4557992 61.7879349,24.8517206 65.7618945,25.0892496 Z" id="Combined-Shape" stroke="#F06823" fill="#F06823"></path>
                <path d="M44.0633657,0.486531191 L44.0633657,11.4237989 L44.0633657,33.7055603" id="Line" stroke="#FFFFFF" stroke-dasharray="4,3,4,3"></path>
            </g>
        </g>
        <g id="Group-23" transform="translate(186.114529, 244.065324) rotate(-297.000000) translate(-186.114529, -244.065324) translate(150.614529, 226.565324)" stroke="#F06823" stroke-width="3">
            <path d="M70.0184551,25.5188112 L70.0184551,34.043316 L0,34.043316 L0,25.5188112 C0.158684356,25.5278864 0.318586467,25.532487 0.479578459,25.532487 C4.98226424,25.532487 8.63241227,21.9337495 8.63241227,17.4944818 C8.63241227,13.0552142 4.98226424,9.45647666 0.479578459,9.45647666 C0.318586467,9.45647666 0.158684356,9.46107727 -5.01265696e-14,9.47015242 L0,0 L70.0184551,0 L70.0184551,9.47015242 C65.7389945,9.71489445 62.3451997,13.2139387 62.3451997,17.4944818 C62.3451997,21.775025 65.7389945,25.2740692 70.0184551,25.5188112 Z" id="Combined-Shape" fill="#FFFFFF"></path>
            <path d="M50.3557382,0.472823833 L50.3557382,33.6918529" id="Line" stroke-dasharray="4,3,4,3"></path>
        </g>
        <g id="Group-23" transform="translate(209.500000, 242.500000) rotate(-270.000000) translate(-209.500000, -242.500000) translate(174.000000, 225.000000)" stroke-width="3">
            <path d="M0,9.59259343 L0,0 L70.0184551,0 L70.0184551,9.47015242 C65.7389945,9.71489445 62.3451997,13.2139387 62.3451997,17.4944818 C62.3451997,21.775025 65.7389945,25.2740692 70.0184551,25.5188112 L70.0184551,34.043316 L0,34.043316 L0,25.3963702 C3.78522878,24.7013791 6.65086732,21.4278699 6.65086732,17.4944818 C6.65086732,13.5610937 3.78522878,10.2875846 1.27675648e-15,9.59259343 Z" id="Combined-Shape" stroke="#F06823" fill="#F06823"></path>
            <path d="M50.3557382,0.472823833 L50.3557382,33.6918529" id="Line" stroke="#FFFFFF" stroke-dasharray="4,3,4,3"></path>
        </g>
        <g id="Group-23" transform="translate(61.057025, 219.855479) scale(-1, 1) rotate(163.000000) translate(-61.057025, -219.855479) translate(29.557025, 204.355479)" stroke-width="3">
            <path d="M62.0763642,22.6242498 L62.0763642,30.1818325 L0,30.1818325 L0,22.6242498 C0.140685022,22.6322956 0.282449671,22.6363744 0.425180577,22.6363744 C4.4171333,22.6363744 7.65325038,19.4458364 7.65325038,15.5101084 C7.65325038,11.5743803 4.4171333,8.38384236 0.425180577,8.38384236 C0.282449671,8.38384236 0.140685022,8.38792113 -4.44921877e-14,8.3959669 L0,-5.68434189e-14 L62.0763642,-5.68434189e-14 L62.0763642,8.3959669 C58.2823166,8.6129482 55.273475,11.7151009 55.273475,15.5101084 C55.273475,19.3051158 58.2823166,22.4072685 62.0763642,22.6242498 Z" id="Combined-Shape" stroke="#876E8C" fill="#876E8C"></path>
            <path d="M44.6439606,0.419192118 L44.6439606,29.8702354" id="Line" stroke="#FFFFFF" stroke-dasharray="4,3,4,3"></path>
        </g>
        <g id="Group-23" transform="translate(352.282190, 99.736469) scale(-1, 1) rotate(227.000000) translate(-352.282190, -99.736469) translate(319.282190, 83.736469)" stroke-width="3">
            <path d="M65.500845,23.8723305 L65.500845,31.8468318 L0,31.8468318 L0,23.8723305 C0.148445997,23.8808201 0.29803118,23.8851239 0.448635924,23.8851239 C4.66080717,23.8851239 8.07544664,20.5185779 8.07544664,16.365733 C8.07544664,12.2128881 4.66080717,8.84634217 0.448635924,8.84634217 C0.29803118,8.84634217 0.148445997,8.85064595 -4.69346784e-14,8.85913556 L0,0 L65.500845,0 L65.500845,8.85913556 C61.4974964,9.08808677 58.3226702,12.3613717 58.3226702,16.365733 C58.3226702,20.3700944 61.4974964,23.6433793 65.500845,23.8723305 Z" id="Combined-Shape" stroke="#866E8B" fill="#876E8C"></path>
            <path d="M47.1067721,0.442317109 L47.1067721,31.5180452" id="Line" stroke="#FFFFFF" stroke-dasharray="4,3,4,3"></path>
        </g>
        <g id="Group-23" transform="translate(360.933726, 213.634262) scale(-1, 1) rotate(28.000000) translate(-360.933726, -213.634262) translate(325.433726, 196.134262)" stroke="#F06823" stroke-width="3">
            <path d="M70.0184551,25.5188112 L70.0184551,34.043316 L0,34.043316 L0,25.5188112 C0.158684356,25.5278864 0.318586467,25.532487 0.479578459,25.532487 C4.98226424,25.532487 8.63241227,21.9337495 8.63241227,17.4944818 C8.63241227,13.0552142 4.98226424,9.45647666 0.479578459,9.45647666 C0.318586467,9.45647666 0.158684356,9.46107727 -4.97102359e-14,9.47015242 L0,0 L70.0184551,0 L70.0184551,9.47015242 C65.7389945,9.71489445 62.3451997,13.2139387 62.3451997,17.4944818 C62.3451997,21.775025 65.7389945,25.2740692 70.0184551,25.5188112 Z" id="Combined-Shape" fill="#FFFFFF"></path>
            <path d="M50.3557382,0.472823833 L50.3557382,33.6918529" id="Line" stroke-dasharray="4,3,4,3"></path>
        </g>
        <g id="Group-23" transform="translate(80.114526, 89.770455) scale(-1, 1) rotate(-41.000000) translate(-80.114526, -89.770455) translate(46.114526, 73.009892)" stroke="#F06823" stroke-width="3">
            <path d="M67.0599288,24.4405516 L67.0599288,32.604866 L0,32.604866 L0,24.4405516 C0.151979383,24.4492433 0.305125067,24.4536495 0.459314581,24.4536495 C4.77174603,24.4536495 8.26766245,21.0069713 8.26766245,16.7552784 C8.26766245,12.5035854 4.77174603,9.05690722 0.459314581,9.05690722 C0.305125067,9.05690722 0.151979383,9.06131344 -4.70734562e-14,9.07000513 L0,0 L67.0599288,0 L67.0599288,9.07000513 C62.9612905,9.30440595 59.7108955,12.6556032 59.7108955,16.7552784 C59.7108955,20.8549535 62.9612905,24.2061508 67.0599288,24.4405516 Z" id="Combined-Shape" fill="#FFFFFF"></path>
            <path d="M48.228031,0.452845361 L48.228031,32.2682535" id="Line" stroke-dasharray="4,3,4,3"></path>
        </g>
        <path d="M184.671429,307 C195.898589,307 205,297.59798 205,286 C205,274.40202 195.898589,265 184.671429,265 C173.444269,265 170.292683,274.40202 170.292683,286 C170.292683,297.59798 173.444269,307 184.671429,307 Z" id="Oval-10" stroke="#F06823" stroke-width="3" fill="#FFFFFF"></path>
        <path d="M228.671429,307 C239.898589,307 249,297.59798 249,286 C249,274.40202 239.898589,265 228.671429,265 C217.444269,265 214.292683,274.40202 214.292683,286 C214.292683,297.59798 217.444269,307 228.671429,307 Z" id="Oval-10" stroke="#F06823" stroke-width="3" fill="#FFFFFF" transform="translate(231.646341, 286.000000) scale(-1, 1) translate(-231.646341, -286.000000) "></path>
        <rect id="Rectangle-3" stroke="#F06823" stroke-width="3" stroke-linecap="round" stroke-linejoin="round" transform="translate(328.548974, 47.506714) rotate(-31.000000) translate(-328.548974, -47.506714) " x="324.548974" y="39.5067144" width="8" height="16"></rect>
        <rect id="Rectangle-3" stroke="#F06823" stroke-width="3" stroke-linecap="round" stroke-linejoin="round" transform="translate(65.485281, 269.485281) rotate(-135.000000) translate(-65.485281, -269.485281) " x="61.4852814" y="261.485281" width="8" height="16"></rect>
        <rect id="Rectangle-3" stroke="#876E8C" stroke-width="3" stroke-linecap="round" stroke-linejoin="round" transform="translate(57.485281, 144.485281) rotate(-135.000000) translate(-57.485281, -144.485281) " x="53.4852814" y="136.485281" width="8" height="16"></rect>
        <rect id="Rectangle-3" stroke="#876E8C" stroke-width="3" stroke-linecap="round" stroke-linejoin="round" transform="translate(380.485281, 152.485281) rotate(-228.000000) translate(-380.485281, -152.485281) " x="376.485281" y="144.485281" width="8" height="16"></rect>
        <rect id="Rectangle-3" stroke="#866E8B" stroke-width="3" fill="#876E8C" stroke-linecap="round" stroke-linejoin="round" transform="translate(328.631546, 273.904062) rotate(-32.000000) translate(-328.631546, -273.904062) " x="324.631546" y="265.904062" width="8" height="16"></rect>
        <rect id="Rectangle-3" stroke="#876E8C" stroke-width="3" fill="#876E8C" stroke-linecap="round" stroke-linejoin="round" transform="translate(110.548974, 33.917491) rotate(-31.000000) translate(-110.548974, -33.917491) " x="106.548974" y="25.9174907" width="8" height="16"></rect>
        <path d="M3,304 L982,304" id="Path-11" stroke="#F06823" stroke-width="3" stroke-linecap="round"></path>
    </g>
</svg>