<?xml version="1.0" encoding="UTF-8" standalone="no"?>
<svg width="189px" height="570px" viewBox="0 0 189 570" version="1.1" xmlns="http://www.w3.org/2000/svg" xmlns:xlink="http://www.w3.org/1999/xlink">
    <!-- Generator: Sketch 42 (36781) - http://www.bohemiancoding.com/sketch -->
    <title>commercial_services_tablet</title>
    <desc>Created with Sketch.</desc>
    <defs>
        <path d="M15.3017987,0.0148387935 L19.1070595,0.0148387935 C20.0724141,0.0148387935 20.8623341,0.793875453 20.8623341,1.76396158 L20.8623341,13.1355782 C20.8623341,14.033789 21.5241589,14.7975231 22.3939063,14.900931 L33.2671408,14.900931 C34.2403853,14.900931 35.0224154,15.6799676 35.0303053,16.6500537 L35.0303053,34.9472136 C35.0303053,35.9098803 34.2482752,36.6968001 33.2750307,36.6968001 L19.1070595,36.6968001 L15.3017987,36.6968001 L5.7763478,36.6968001 L1.97108703,36.6968001 C1.00573242,36.6968001 0.216276561,35.9177634 0.216276561,34.9472136 L0.216276561,1.76396158 C0.216276561,0.801758562 0.997842502,0.0148387935 1.97108703,0.0148387935 L5.7763478,0.0148387935 C6.74170241,0.0148387935 7.53162238,0.793875453 7.53162238,1.76396158 L7.53162238,13.2547523 C7.58778003,14.0973176 8.23382504,14.7975231 9.07154863,14.900931 L11.9193447,14.900931 C12.7807381,14.8211724 13.4991847,14.1214306 13.5465242,13.2547523 L13.5465242,1.76396158 C13.5465242,0.801758562 14.3285542,0.0148387935 15.3017987,0.0148387935 Z M20.9421615,27.4489857 C20.9421615,28.410725 21.7237274,29.1981085 22.696972,29.1981085 L26.5022327,29.1981085 C27.4671232,29.1981085 28.2570432,28.4190719 28.2570432,27.4489857 L28.2570432,23.8705179 C28.2570432,22.9083149 27.4754773,22.1213951 26.5022327,22.1213951 L22.696972,22.1213951 C21.7316174,22.1213951 20.9421615,22.9004318 20.9421615,23.8705179 L20.9421615,27.4489857 Z" id="path-1"></path>
        <path d="M15.3017987,0.260606311 L19.1070595,0.260606311 C20.0724141,0.260606311 20.8623341,1.03964297 20.8623341,2.0097291 L20.8623341,13.3808821 C20.8623341,14.2795565 21.5241589,15.0432906 22.3939063,15.1462348 L33.2671408,15.1462348 C34.2403853,15.1462348 35.0224154,15.9257351 35.0303053,16.8958213 L35.0303053,35.1934448 C35.0303053,36.1551841 34.2482752,36.9430313 33.2750307,36.9430313 L19.1070595,36.9430313 L15.3017987,36.9430313 L5.7763478,36.9430313 L1.97108703,36.9430313 C1.00573242,36.9430313 0.216276561,36.1630672 0.216276561,35.1934448 L0.216276561,2.0097291 C0.216276561,1.04752608 0.997842502,0.260606311 1.97108703,0.260606311 L5.7763478,0.260606311 C6.74170241,0.260606311 7.53162238,1.03964297 7.53162238,2.0097291 L7.53162238,13.5005198 C7.58778003,14.3435488 8.23382504,15.0432906 9.07154863,15.1462348 L11.9193447,15.1462348 C12.7807381,15.06694 13.4991847,14.3671981 13.5465242,13.5005198 L13.5465242,2.0097291 C13.5465242,1.04752608 14.3285542,0.260606311 15.3017987,0.260606311 Z M20.9421615,27.6947532 C20.9421615,28.6569563 21.7237274,29.443876 22.696972,29.443876 L26.5022327,29.443876 C27.4671232,29.443876 28.2570432,28.6648394 28.2570432,27.6947532 L28.2570432,24.1162854 C28.2570432,23.1540824 27.4754773,22.366699 26.5022327,22.366699 L22.696972,22.366699 C21.7316174,22.366699 20.9421615,23.1457356 20.9421615,24.1162854 L20.9421615,27.6947532 Z" id="path-3"></path>
        <path d="M15.3017987,0.0579640372 L19.1070595,0.0579640372 C20.0724141,0.0579640372 20.8623341,0.837000697 20.8623341,1.80755054 L20.8623341,13.1787035 C20.8623341,14.0773779 21.5241589,14.8406484 22.3939063,14.9440562 L33.2671408,14.9440562 C34.2403853,14.9440562 35.0224154,15.7230929 35.0303053,16.693179 L35.0303053,34.9908025 C35.0303053,35.9530056 34.2482752,36.7399253 33.2750307,36.7399253 L19.1070595,36.7399253 L15.3017987,36.7399253 L5.7763478,36.7399253 L1.97108703,36.7399253 C1.00573242,36.7399253 0.216276561,35.9608887 0.216276561,34.9908025 L0.216276561,1.80755054 C0.216276561,0.844883806 0.997842502,0.0579640372 1.97108703,0.0579640372 L5.7763478,0.0579640372 C6.74170241,0.0579640372 7.53162238,0.837000697 7.53162238,1.80755054 L7.53162238,13.2978776 C7.58778003,14.1409065 8.23382504,14.8406484 9.07154863,14.9440562 L11.9193447,14.9440562 C12.7807381,14.8642977 13.4991847,14.1645558 13.5465242,13.2978776 L13.5465242,1.80755054 C13.5465242,0.844883806 14.3285542,0.0579640372 15.3017987,0.0579640372 Z M20.9421615,27.4916473 C20.9421615,28.454314 21.7237274,29.2412338 22.696972,29.2412338 L26.5022327,29.2412338 C27.4671232,29.2412338 28.2570432,28.4621971 28.2570432,27.4916473 L28.2570432,23.9136432 C28.2570432,22.9514402 27.4754773,22.1640567 26.5022327,22.1640567 L22.696972,22.1640567 C21.7316174,22.1640567 20.9421615,22.943557 20.9421615,23.9136432 L20.9421615,27.4916473 Z" id="path-5"></path>
    </defs>
    <g id="Page-1" stroke="none" stroke-width="1" fill="none" fill-rule="evenodd">
        <g id="commercial_services_tablet">
            <path d="M85.9233891,51.2690167 L106.710537,51.2690167" id="Stroke-15" stroke="#866E8B" stroke-width="3" stroke-linecap="round" stroke-linejoin="round"></path>
            <g id="Group-4" transform="translate(6.000000, 6.000000)">
                <path d="M30.73407,462.218498 C13.9174071,455.385698 -0.949517913,426.766766 0.634034932,393.122584 C2.15214787,360.863047 18.5687455,334.341486 34.9746686,327.605601" id="Stroke-1" stroke="#F06923" stroke-width="3" stroke-linecap="round" stroke-linejoin="round" stroke-dasharray="1,7"></path>
                <path d="M140.92591,118.631753 C157.742573,125.464553 172.609498,154.083485 171.025945,187.727667 C169.507833,219.987204 153.091235,246.508765 136.685312,253.24465" id="Stroke-3" stroke="#F06923" stroke-width="3" stroke-linecap="round" stroke-linejoin="round" stroke-dasharray="1,7"></path>
                <g id="Group" transform="translate(48.000000, 0.000000)">
                    <path d="M67.054082,36.6448681 L80.3550905,36.6448681 C82.6510565,36.6448681 84.5126129,38.5043544 84.5126129,40.7983391 L80.3518417,86.0877281 C80.3518417,98.2383814 70.4931578,108.088558 58.3320103,108.088558 L26.2998737,108.088558 C14.1387262,108.088558 4.28004227,98.2383814 4.28004227,86.0877281 L0.119735208,40.7983391 C0.119735208,38.5043544 1.9808275,36.6448681 4.27679348,36.6448681 L16.5386534,36.6448681" id="Stroke-17" stroke="#866E8B" stroke-width="3" stroke-linecap="round" stroke-linejoin="round"></path>
                    <path d="M59.9844375,42.3699528 L59.9844375,18.3728414 L59.9793323,18.3728414 C59.9797964,18.3032846 59.9844375,18.2351189 59.9844375,18.1650983 C59.9844375,8.41554728 52.0740991,0.512034879 42.3161276,0.512034879 C32.5581562,0.512034879 24.6473537,8.41554728 24.6473537,18.1650983 C24.6473537,18.2351189 24.6519948,18.3032846 24.652923,18.3728414 L24.6473537,18.3728414 L24.6473537,42.3699528" id="Stroke-19" stroke="#866E8B" stroke-width="3" stroke-linecap="round" stroke-linejoin="round"></path>
                    <path d="M30.6221097,48.2431473 C30.6221097,51.4404436 28.0281833,54.0321316 24.8281256,54.0321316 C21.628532,54.0321316 19.0346056,51.4404436 19.0346056,48.2431473 C19.0346056,45.045851 21.628532,42.454163 24.8281256,42.454163 C28.0281833,42.454163 30.6221097,45.045851 30.6221097,48.2431473 Z" id="Stroke-21" stroke="#866E8B" stroke-width="3" stroke-linecap="round" stroke-linejoin="round"></path>
                    <path d="M65.9873188,48.2431473 C65.9873188,51.4404436 63.3933924,54.0321316 60.1933347,54.0321316 C56.9937411,54.0321316 54.3998147,51.4404436 54.3998147,48.2431473 C54.3998147,45.045851 56.9937411,42.454163 60.1933347,42.454163 C63.3933924,42.454163 65.9873188,45.045851 65.9873188,48.2431473 Z" id="Stroke-23" stroke="#866E8B" stroke-width="3" stroke-linecap="round" stroke-linejoin="round"></path>
                    <g id="Group-28" transform="translate(24.687592, 62.485050)">
                        <mask id="mask-2" fill="white">
                            <use xlink:href="#path-1"></use>
                        </mask>
                        <g id="Clip-27"></g>
                        <polygon id="Fill-26" fill="#FF6600" mask="url(#mask-2)" points="-0.75650385 37.6687411 36.0030857 37.6687411 36.0030857 -0.957102182 -0.75650385 -0.957102182"></polygon>
                    </g>
                </g>
                <g id="Group-2" transform="translate(43.000000, 246.000000)">
                    <g id="Group-39" transform="translate(0.912599, 0.578832)" stroke="#866E8B" stroke-width="3" stroke-linecap="round" stroke-linejoin="round">
                        <path d="M7.99355384,31.5424988 C10.8390294,13.6687083 26.3357555,0.00681657077 45.0260417,0.00681657077 C63.3742768,0.00681657077 78.64498,13.1734635 81.8895925,30.5663844" id="Stroke-29"></path>
                        <path d="M17.2914967,29.0295955 C7.96979127,29.1863302 0.459982188,36.7805465 0.459982188,46.1317687 C0.459982188,55.4829909 7.96979127,63.0772072 17.2914967,63.2339419 L17.2914967,29.0295955 Z" id="Stroke-31"></path>
                        <path d="M73.2020972,63.2340811 C82.5238027,63.0773463 90.0336117,55.48313 90.0336117,46.1319078 C90.0336117,36.7806856 82.5238027,29.1864693 73.2020972,29.0297346 L73.2020972,63.2340811 Z" id="Stroke-33"></path>
                        <path d="M77.7392639,62.8026895 C77.7392639,62.8026895 78.6173653,72.1617948 67.493974,76.5489768 C66.5954516,76.903253 65.7730438,77.207912 65.0188605,77.4685183" id="Stroke-35"></path>
                        <path d="M64.1279032,78.5951537 C64.1279032,81.5833158 61.1464426,84.0057488 57.4683487,84.0057488 C53.7902548,84.0057488 50.8087943,81.5833158 50.8087943,78.5951537 C50.8087943,75.6069917 53.7902548,73.1845586 57.4683487,73.1845586 C61.1464426,73.1845586 64.1279032,75.6069917 64.1279032,78.5951537 Z" id="Stroke-37"></path>
                    </g>
                    <g id="Group-42" transform="translate(29.687592, 27.937858)">
                        <mask id="mask-4" fill="white">
                            <use xlink:href="#path-3"></use>
                        </mask>
                        <g id="Clip-41"></g>
                        <polygon id="Fill-40" fill="#FF6600" mask="url(#mask-4)" points="-0.75650385 37.9145086 36.0030857 37.9145086 36.0030857 -0.711334664 -0.75650385 -0.711334664"></polygon>
                    </g>
                </g>
                <g id="Group-3" transform="translate(48.000000, 469.000000)">
                    <g id="Group-59" transform="translate(24.687592, 24.273775)">
                        <mask id="mask-6" fill="white">
                            <use xlink:href="#path-5"></use>
                        </mask>
                        <g id="Clip-58"></g>
                        <polygon id="Fill-57" fill="#FF6600" mask="url(#mask-6)" points="-0.75650385 37.7118663 36.0030857 37.7118663 36.0030857 -0.913976938 -0.75650385 -0.913976938"></polygon>
                    </g>
                    <path d="M77.0861121,25.9401711 L77.0861121,3.31286583 C77.0861121,1.54426713 75.6515394,0.11093242 73.8814132,0.11093242 L10.8001308,0.11093242 C9.03046875,0.11093242 7.595432,1.54426713 7.595432,3.31286583 L7.595432,8.40489057 L11.7937963,8.40489057 C13.5634584,8.40489057 14.9984951,9.83822528 14.9984951,11.6063603 C14.9984951,13.3744953 13.5634584,14.8082937 11.7937963,14.8082937 L7.595432,14.8082937 L7.595432,21.2218985 L11.7937963,21.2218985 C13.5634584,21.2218985 14.9984951,22.6552332 14.9984951,24.4233682 C14.9984951,26.1919669 13.5634584,27.6253016 11.7937963,27.6253016 L7.595432,27.6253016 L7.595432,34.0389064 L11.7937963,34.0389064 C13.5634584,34.0389064 14.9984951,35.4722411 14.9984951,37.2408398 C14.9984951,39.0089748 13.5634584,40.4423095 11.7937963,40.4423095 L7.595432,40.4423095 L7.595432,46.8559143 L11.7937963,46.8559143 C13.5634584,46.8559143 14.9984951,48.2897127 14.9984951,50.0578477 C14.9984951,51.8259827 13.5634584,53.2597811 11.7937963,53.2597811 L7.595432,53.2597811 L7.595432,59.6733859 L11.7937963,59.6733859 C13.5634584,59.6733859 14.9984951,61.1067206 14.9984951,62.8748556 C14.9984951,64.6429906 13.5634584,66.076789 11.7937963,66.076789 L7.595432,66.076789 L7.595432,72.4903938 L11.7937963,72.4903938 C13.5634584,72.4903938 14.9984951,73.9237285 14.9984951,75.6918635 C14.9984951,77.4604622 13.5634584,78.8937969 11.7937963,78.8937969 L7.595432,78.8937969 L7.595432,79.2837789" id="Stroke-60" stroke="#866E8B" stroke-width="3" stroke-linecap="round" stroke-linejoin="round"></path>
                    <path d="M7.59566406,85.6874603 L7.59566406,85.7597994 C7.59566406,87.5283981 9.03023669,88.9617328 10.8003629,88.9617328 L73.8816453,88.9617328 C75.6513074,88.9617328 77.0863441,87.5283981 77.0863441,85.7597994 L77.0863441,68.1874219" id="Stroke-62" stroke="#866E8B" stroke-width="3" stroke-linecap="round" stroke-linejoin="round"></path>
                    <path d="M7.59566406,8.40475146 L3.39729974,8.40475146 C1.62763767,8.40475146 0.193065029,9.83808617 0.193065029,11.6066849 C0.193065029,13.3748199 1.62763767,14.8081546 3.39729974,14.8081546 L7.59566406,14.8081546" id="Stroke-64" stroke="#866E8B" stroke-width="3" stroke-linecap="round" stroke-linejoin="round"></path>
                    <path d="M7.59566406,21.2218521 L3.39729974,21.2218521 C1.62763767,21.2218521 0.193065029,22.6551868 0.193065029,24.4237855 C0.193065029,26.1919205 1.62763767,27.6252552 3.39729974,27.6252552 L7.59566406,27.6252552" id="Stroke-66" stroke="#866E8B" stroke-width="3" stroke-linecap="round" stroke-linejoin="round"></path>
                    <path d="M7.59566406,34.0389991 L3.39729974,34.0389991 C1.62763767,34.0389991 0.193065029,35.4723338 0.193065029,37.2409325 C0.193065029,39.0090675 1.62763767,40.4424022 3.39729974,40.4424022 L7.59566406,40.4424022" id="Stroke-68" stroke="#866E8B" stroke-width="3" stroke-linecap="round" stroke-linejoin="round"></path>
                    <path d="M7.59566406,46.8560998 L3.39729974,46.8560998 C1.62763767,46.8560998 0.193065029,48.2894345 0.193065029,50.0580332 C0.193065029,51.8261682 1.62763767,53.2595029 3.39729974,53.2595029 L7.59566406,53.2595029" id="Stroke-70" stroke="#866E8B" stroke-width="3" stroke-linecap="round" stroke-linejoin="round"></path>
                    <path d="M7.59566406,59.6732468 L3.39729974,59.6732468 C1.62763767,59.6732468 0.193065029,61.1065815 0.193065029,62.8751802 C0.193065029,64.6433152 1.62763767,66.0766499 3.39729974,66.0766499 L7.59566406,66.0766499" id="Stroke-72" stroke="#866E8B" stroke-width="3" stroke-linecap="round" stroke-linejoin="round"></path>
                    <path d="M7.59566406,72.4903474 L3.39729974,72.4903474 C1.62763767,72.4903474 0.193065029,73.9236821 0.193065029,75.6922808 C0.193065029,77.4604158 1.62763767,78.8937505 3.39729974,78.8937505 L7.59566406,78.8937505" id="Stroke-74" stroke="#866E8B" stroke-width="3" stroke-linecap="round" stroke-linejoin="round"></path>
                    <path d="M6.91566265,79.2840108 L6.91566265,85.6874139" id="Stroke-76" stroke="#866E8B" stroke-width="3" stroke-linecap="round" stroke-linejoin="round"></path>
                    <path d="M67.6685209,82.6642416 L65.755448,82.1045408 C63.1930813,81.3547181 61.7241643,78.6716787 62.4741706,76.1115231 L77.0241066,26.4646297 L77.6358073,24.3769969 L88.8283513,27.6512695 L73.6667147,79.3857956 C72.9162443,81.9459512 70.2308877,83.4140644 67.6685209,82.6642416 Z" id="Stroke-78" stroke="#866E8B" stroke-width="3" stroke-linecap="round" stroke-linejoin="round"></path>
                    <polygon id="Stroke-80" stroke="#866E8B" stroke-width="3" stroke-linecap="round" stroke-linejoin="round" points="88.8082088 27.7198061 77.6156648 24.4455336 86.4662957 14.9774559"></polygon>
                    <path d="M64.1810846,71.9802639 L74.5359051,75.0096963" id="Stroke-82" stroke="#866E8B" stroke-width="3" stroke-linecap="round" stroke-linejoin="round"></path>
                </g>
            </g>
        </g>
    </g>
</svg>