<svg width="60" height="60" viewBox="0 0 60 60" fill="none" xmlns="http://www.w3.org/2000/svg">
<path fill-rule="evenodd" clip-rule="evenodd" d="M30 0C13.147 0.316691 -0.270513 14.2134 0.00414245 31.0671V59.9917H11.1455C14.3798 60.0636 17.0628 57.5052 17.1446 54.2711V40.0016C17.0628 36.7675 14.3798 34.2091 11.1455 34.281H4.28926V31.0671C4.0142 16.5798 15.5135 4.60136 30 4.28512C44.4865 4.60136 55.9858 16.5798 55.7107 31.0671V34.281H48.8545C45.6202 34.2091 42.9372 36.7675 42.8554 40.0016V54.2925C42.9488 57.5182 45.6283 60.0637 48.8545 59.9917H59.9959V31.0671C60.2705 14.2134 46.853 0.316691 30 0ZM11.1455 38.5662C12.0106 38.5036 12.7693 39.139 12.8595 40.0017V54.2926C12.7693 55.1553 12.0106 55.7906 11.1455 55.7281H4.28927V38.5662H11.1455ZM47.1405 40.0017V54.2711C47.2308 55.1338 47.9894 55.7692 48.8545 55.7067H55.7107V38.5662H48.8545C47.9894 38.5036 47.2308 39.139 47.1405 40.0017Z" fill="#FD6721"/>
</svg>
