<svg xmlns="http://www.w3.org/2000/svg" xmlns:xlink="http://www.w3.org/1999/xlink" viewBox="0 0 260 399"><defs><style>.a,.as,.at,.au,.b,.d{fill:none;}.b{clip-rule:evenodd;}.c{clip-path:url(#a);}.at,.au,.d{stroke:#ef6924;}.as,.au,.d{stroke-linecap:round;}.at,.d{stroke-miterlimit:10;}.d{stroke-width:3px;}.e{clip-path:url(#b);}.f{clip-path:url(#c);}.g{clip-path:url(#d);}.h{clip-path:url(#e);}.i{clip-path:url(#f);}.j{clip-path:url(#g);}.k{clip-path:url(#h);}.l{clip-path:url(#i);}.m{clip-path:url(#j);}.n{clip-path:url(#k);}.o{clip-path:url(#l);}.p{clip-path:url(#m);}.q{clip-path:url(#n);}.r{clip-path:url(#o);}.s{clip-path:url(#p);}.t{clip-path:url(#q);}.u{clip-path:url(#r);}.v{clip-path:url(#s);}.w{clip-path:url(#t);}.x{clip-path:url(#v);}.y{clip-path:url(#w);}.z{clip-path:url(#x);}.aa{clip-path:url(#y);}.ab{clip-path:url(#z);}.ac{clip-path:url(#aa);}.ad{clip-path:url(#ab);}.ae{clip-path:url(#ac);}.af{clip-path:url(#ad);}.ag{clip-path:url(#ae);}.ah{clip-path:url(#af);}.ai{clip-path:url(#ag);}.aj{clip-path:url(#ah);}.ak{clip-path:url(#ai);}.al{clip-path:url(#aj);}.am{clip-path:url(#ak);}.an{clip-path:url(#al);}.ao{clip-path:url(#am);}.ap{clip-path:url(#an);}.aq{fill:#866e8b;}.ar{fill:#ef6924;}.as{stroke:#866e8b;}.as,.au{stroke-linejoin:round;}.as,.at,.au{stroke-width:2px;}</style><clipPath id="a"><rect class="a" x="-742.08" y="92.81" width="7.71" height="15.42" transform="translate(-157.22 -365.85) rotate(-31)"/></clipPath><clipPath id="b"><path class="a" d="M-141.41,94.1a27.25,27.25,0,0,0,1.63-5.91c.17-7.68.17-3.07.17-14.24,0-18.27,5.82-29.11,11.6-29.11a4.76,4.76,0,0,1,1.48.23c4.2,1.33,9,8.89,5.26,25.73-3.25,14.63-6.19,19.85-7.3,22.63-.88,2.21-.64-.11-1.51,3.93,3.84,2.74-4.91,6.43-4.11,10.32l-17.65-8.17-17.65,8.17c.8-3.89-7.95-7.58-4.11-10.32-.87-4-.63-1.72-1.51-3.93-1.11-2.78-4-8-7.29-22.63-3.74-16.84,1.05-24.4,5.25-25.73a4.8,4.8,0,0,1,1.48-.23c5.78,0,11.6,10.84,11.6,29.11,0,11.17,0,6.56.17,14.24a27.25,27.25,0,0,0,1.63,5.91c1.09-.11,2.48-.15,3.88-.15l6.55,0,6.55,0C-143.89,94-142.49,94-141.41,94.1Z"/></clipPath><clipPath id="c"><ellipse class="a" cx="-134.5" cy="186.6" rx="5.06" ry="5.25"/></clipPath><clipPath id="d"><ellipse class="a" cx="-129.95" cy="186.6" rx="5.06" ry="5.25"/></clipPath><clipPath id="e"><ellipse class="a" cx="-124.79" cy="186.6" rx="5.06" ry="5.25"/></clipPath><clipPath id="f"><ellipse class="a" cx="-120.24" cy="186.6" rx="5.06" ry="5.25"/></clipPath><clipPath id="g"><ellipse class="a" cx="-115.68" cy="186.6" rx="5.06" ry="5.25"/></clipPath><clipPath id="h"><ellipse class="a" cx="-111.13" cy="186.6" rx="5.06" ry="5.25"/></clipPath><clipPath id="i"><ellipse class="a" cx="-106.58" cy="186.6" rx="5.06" ry="5.25"/></clipPath><clipPath id="j"><ellipse class="a" cx="-106.58" cy="182.19" rx="5.06" ry="5.25"/></clipPath><clipPath id="k"><ellipse class="a" cx="-106.58" cy="177.15" rx="5.06" ry="5.25"/></clipPath><clipPath id="l"><ellipse class="a" cx="-106.58" cy="172.11" rx="5.06" ry="5.25"/></clipPath><clipPath id="m"><ellipse class="a" cx="-106.58" cy="167.07" rx="5.06" ry="5.25"/></clipPath><clipPath id="n"><ellipse class="a" cx="-106.58" cy="162.03" rx="5.06" ry="5.25"/></clipPath><clipPath id="o"><ellipse class="a" cx="-179.09" cy="186.09" rx="5.13" ry="5.24"/></clipPath><clipPath id="p"><ellipse class="a" cx="-183.71" cy="186.09" rx="5.13" ry="5.24"/></clipPath><clipPath id="q"><path class="a" d="M-118.53,198.41v44.22a14.15,14.15,0,0,1-14.24,14.07h-39.69a14.16,14.16,0,0,1-14.24-14.07V193.37a33.87,33.87,0,0,1,34.09-33.65,33.87,33.87,0,0,1,34.08,33.65Z"/></clipPath><clipPath id="r"><path class="b" d="M-118.53,198.41v44.22a14.15,14.15,0,0,1-14.24,14.07h-39.69a14.16,14.16,0,0,1-14.24-14.07V193.37a33.87,33.87,0,0,1,34.09-33.65,33.87,33.87,0,0,1,34.08,33.65Z"/></clipPath><clipPath id="s"><ellipse class="a" cx="-152.42" cy="150.34" rx="4.82" ry="5.13"/></clipPath><clipPath id="t"><ellipse class="a" cx="-152.42" cy="155.47" rx="4.82" ry="5.13"/></clipPath><clipPath id="v"><ellipse class="a" cx="-152.42" cy="145.21" rx="4.82" ry="5.13"/></clipPath><clipPath id="w"><ellipse class="a" cx="-150.86" cy="77.48" rx="6.38" ry="6.14"/></clipPath><clipPath id="x"><rect class="a" x="-187.68" y="92.95" width="69.42" height="52.79" rx="22.58"/></clipPath><clipPath id="y"><ellipse class="a" cx="-167.76" cy="113.08" rx="6.17" ry="6.38"/></clipPath><clipPath id="z"><ellipse class="a" cx="-136.46" cy="113.08" rx="6.17" ry="6.38"/></clipPath><clipPath id="aa"><path class="b" d="M-118.26,200.9v51.35c0,8.94-6.36,16.19-14.19,16.19h-41c-7.84,0-14.19-7.25-14.19-16.19V196.38c0-21.87,15.54-39.6,34.71-39.6s34.71,17.73,34.71,39.6Zm-13.17.22v-3.8c0-13.45-9.55-24.35-21.34-24.35s-21.34,10.9-21.34,24.35v33.74c0,8.94,6.36,16.19,14.19,16.19h14.3c7.84,0,14.19-7.25,14.19-16.19V201.12Z"/></clipPath><clipPath id="ab"><path class="b" d="M-109.18,138.24a13.11,13.11,0,0,0-10.48,12.95,13,13,0,0,0,12.88,13.19,13,13,0,0,0,12.87-13.19,13.13,13.13,0,0,0-9.72-12.78V151a2.8,2.8,0,0,1-2.77,2.84,2.81,2.81,0,0,1-2.78-2.84Z"/></clipPath><clipPath id="ac"><ellipse class="a" cx="-153.31" cy="127.67" rx="8.84" ry="9.19"/></clipPath><clipPath id="ad"><path class="b" d="M-103.37,138.12c0,.27,0,.53,0,.8A9,9,0,0,0-94.46,148a9,9,0,0,0,8.9-8.29Q-93.43,139.06-103.37,138.12Zm-4.68-.44q-6.54-.63-13.87-1.36a2.59,2.59,0,0,1-2.35.87c-1.27-.22-3.82-3.21-5.1-8.12s-1.28-9.62,0-11.36a2.16,2.16,0,0,1,3-.86q54.75-34.18,58.75-34.19c4,0,12.56,4.11,17.24,27.91s-.64,29.14-5.32,30.51q-2.79.82-25.61-1a13.5,13.5,0,0,1-13.35,12.26,13.52,13.52,0,0,1-13.41-13.63C-108.09,138.36-108.08,138-108,137.68Zm50.93.14c4.58-1.06,5.68-13.24,2.46-27.21S-64.22,86.16-68.8,87.22s-5.68,13.24-2.46,27.22S-61.7,138.88-57.12,137.82Z"/></clipPath><clipPath id="ae"><path class="b" d="M-125.81,116.56a26.56,26.56,0,0,0,.36,11.49q1.45,6,4.58,8.22"/></clipPath><clipPath id="af"><ellipse class="a" cx="-200.11" cy="185.9" rx="5.13" ry="5.24"/></clipPath><clipPath id="ag"><ellipse class="a" cx="-204.73" cy="185.9" rx="5.13" ry="5.24"/></clipPath><clipPath id="ah"><ellipse class="a" cx="-209.35" cy="185.9" rx="5.13" ry="5.24"/></clipPath><clipPath id="ai"><ellipse class="a" cx="-209.35" cy="181.51" rx="5.13" ry="5.24"/></clipPath><clipPath id="aj"><ellipse class="a" cx="-209.35" cy="176.48" rx="5.13" ry="5.24"/></clipPath><clipPath id="ak"><ellipse class="a" cx="-209.35" cy="171.46" rx="5.13" ry="5.24"/></clipPath><clipPath id="al"><ellipse class="a" cx="-209.35" cy="166.44" rx="5.13" ry="5.24"/></clipPath><clipPath id="am"><ellipse class="a" cx="-209.35" cy="161.41" rx="5.13" ry="5.24"/></clipPath><clipPath id="an"><path class="b" d="M-206.65,135.68a13.06,13.06,0,0,1,10.47,12.89A13,13,0,0,1-209,161.69a13,13,0,0,1-12.86-13.12,13.09,13.09,0,0,1,9.71-12.72v12.48a2.8,2.8,0,0,0,2.77,2.83,2.8,2.8,0,0,0,2.77-2.83Z"/></clipPath></defs><title>Rabbit-MQ-CFP-2020-phone</title><line class="d" x1="4" y1="397" x2="256" y2="397"/><polygon class="aq" points="162.46 347.76 153.27 353.95 164.37 357.56 167.49 367.88 174.42 358.77 185.34 358.77 178.76 350 182.05 339.68 171.65 343.46 162.46 336.59 162.46 347.76"/><ellipse class="ar" cx="117.25" cy="355.49" rx="4.29" ry="4.37"/><rect class="as" x="75.5" y="351.94" width="8" height="16" transform="translate(-236.73 170.52) rotate(-46.62)"/><ellipse class="at" cx="217.2" cy="362.49" rx="4.29" ry="4.37"/><polygon class="au" points="55.11 344.41 31.7 344.41 43.41 367.82 55.11 344.41"/></svg>