<svg xmlns="http://www.w3.org/2000/svg" xmlns:xlink="http://www.w3.org/1999/xlink" viewBox="0 0 984 305"><defs><style>.a,.ax,.az,.b,.bg,.d,.h{fill:none;}.b{clip-rule:evenodd;}.c{fill:#866e8b;}.d{stroke:#ef6925;}.ax,.bd,.bg,.d{stroke-linecap:round;}.ax,.bd,.d{stroke-linejoin:round;}.ax,.bd,.bg,.d,.h{stroke-width:3px;}.e{clip-path:url(#a);}.f{clip-path:url(#b);}.g{fill:#fff;}.ax,.az,.bd,.bg,.h{stroke:#ef6924;}.az,.bg,.h{stroke-miterlimit:10;}.i{clip-path:url(#c);}.j{clip-path:url(#e);}.k{clip-path:url(#g);}.l{clip-path:url(#i);}.m{clip-path:url(#k);}.n{clip-path:url(#m);}.o{clip-path:url(#o);}.p{clip-path:url(#q);}.q{clip-path:url(#s);}.r{clip-path:url(#u);}.s{clip-path:url(#w);}.t{clip-path:url(#y);}.u{clip-path:url(#aa);}.v{clip-path:url(#ac);}.w{clip-path:url(#ae);}.x{clip-path:url(#ag);}.y{clip-path:url(#ai);}.z{clip-path:url(#ak);}.aa{clip-path:url(#am);}.ab{clip-path:url(#ao);}.ac{clip-path:url(#aq);}.ad{clip-path:url(#as);}.ae{clip-path:url(#au);}.af{clip-path:url(#aw);}.ag{clip-path:url(#ay);}.ah{isolation:isolate;}.ai{clip-path:url(#ba);}.aj{clip-path:url(#bb);}.ak{clip-path:url(#bc);}.al{clip-path:url(#be);}.am{clip-path:url(#bi);}.an{clip-path:url(#bk);}.ao{clip-path:url(#bm);}.ap{clip-path:url(#bo);}.aq{clip-path:url(#bq);}.ar{clip-path:url(#bs);}.as{clip-path:url(#bu);}.at{clip-path:url(#bw);}.au{clip-path:url(#by);}.av{clip-path:url(#bz);}.aw{clip-path:url(#ca);}.ay{clip-path:url(#cc);}.az{stroke-width:3px;}.ba{clip-path:url(#ce);}.bb{clip-path:url(#cf);}.bc{fill:#ef6924;}.bd{fill:url(#cg);}.be{clip-path:url(#ch);}.bf{clip-path:url(#ci);}</style><clipPath id="a"><path class="a" d="M786.46,130.59c.45-1.21,2.49-6.83,2.54-9.25.27-12,.27-4.8.27-22.28,0-28.58,9-45.55,18-45.55a7.42,7.42,0,0,1,2.3.37c6.54,2.08,14,13.9,8.17,40.25-5,22.9-9.62,31.06-11.34,35.41-1.37,3.46-1-.18-2.35,6.15,6,4.29-7.64,10.05-6.4,16.14l-27.45-12.78-27.46,12.78c1.24-6.09-12.36-11.85-6.4-16.14-1.34-6.33-1-2.69-2.35-6.15-1.72-4.35-6.28-12.51-11.34-35.41-5.82-26.35,1.64-38.17,8.17-40.25a7.53,7.53,0,0,1,2.31-.37c9,0,18,17,18,45.55,0,17.48,0,10.27.26,22.28.06,2.42,2.1,8,2.55,9.25,1.68-.17,3.86-.25,6-.25,1.52,0,5.64,0,10.19.1s8.66-.1,10.18-.1C782.6,130.34,784.78,130.42,786.46,130.59Z"/></clipPath><clipPath id="b"><rect class="a" x="628.06" y="14.95" width="948.51" height="294"/></clipPath><clipPath id="c"><circle class="a" cx="800.93" cy="270.72" r="8.04" transform="translate(-44.38 255.82) rotate(-17.67)"/></clipPath><clipPath id="e"><circle class="a" cx="808.16" cy="270.72" r="8.04" transform="translate(-44.04 258.01) rotate(-17.67)"/></clipPath><clipPath id="g"><circle class="a" cx="816.35" cy="270.72" r="8.04" transform="translate(-43.66 260.5) rotate(-17.67)"/></clipPath><clipPath id="i"><circle class="a" cx="823.58" cy="270.72" r="8.04" transform="translate(-43.32 262.69) rotate(-17.67)"/></clipPath><clipPath id="k"><circle class="a" cx="830.81" cy="270.72" r="8.04" transform="translate(-42.98 264.89) rotate(-17.67)"/></clipPath><clipPath id="m"><circle class="a" cx="838.04" cy="270.72" r="8.04" transform="translate(-42.63 267.08) rotate(-17.67)"/></clipPath><clipPath id="o"><circle class="a" cx="845.27" cy="270.72" r="8.04" transform="translate(-42.29 269.27) rotate(-17.67)"/></clipPath><clipPath id="q"><circle class="a" cx="845.27" cy="263.97" r="8.04" transform="translate(-40.23 271.62) rotate(-17.84)"/></clipPath><clipPath id="s"><circle class="a" cx="845.27" cy="256.26" r="8.04" transform="translate(-37.87 271.25) rotate(-17.84)"/></clipPath><clipPath id="u"><circle class="a" cx="845.27" cy="248.55" r="8.04" transform="translate(-35.5 270.88) rotate(-17.84)"/></clipPath><clipPath id="w"><circle class="a" cx="845.27" cy="240.84" r="8.04" transform="translate(-33.14 270.51) rotate(-17.84)"/></clipPath><clipPath id="y"><circle class="a" cx="845.27" cy="233.13" r="8.04" transform="translate(-30.98 264.91) rotate(-17.5)"/></clipPath><clipPath id="aa"><circle class="a" cx="720.24" cy="268.43" r="8.04"/></clipPath><clipPath id="ac"><circle class="a" cx="713.01" cy="268.43" r="8.04"/></clipPath><clipPath id="ae"><circle class="a" cx="705.78" cy="268.43" r="8.04"/></clipPath><clipPath id="ag"><circle class="a" cx="698.55" cy="268.43" r="8.04"/></clipPath><clipPath id="ai"><circle class="a" cx="691.32" cy="268.43" r="8.04"/></clipPath><clipPath id="ak"><circle class="a" cx="691.32" cy="261.69" r="8.04"/></clipPath><clipPath id="am"><circle class="a" cx="691.32" cy="253.98" r="8.04"/></clipPath><clipPath id="ao"><circle class="a" cx="691.32" cy="246.26" r="8.04"/></clipPath><clipPath id="aq"><circle class="a" cx="691.32" cy="238.55" r="8.04"/></clipPath><clipPath id="as"><circle class="a" cx="691.32" cy="230.84" r="8.04"/></clipPath><clipPath id="au"><path class="b" d="M695.53,191.35a20.12,20.12,0,1,1-8.67.26v19.16a4.34,4.34,0,0,0,8.67,0Z"/></clipPath><clipPath id="aw"><path class="a" d="M821.89,290.91v69.72a22.17,22.17,0,0,1-22.17,22.18H738a22.17,22.17,0,0,1-22.17-22.18V283a53.06,53.06,0,1,1,106.11,0Z"/></clipPath><clipPath id="ay"><path class="b" d="M821.89,290.91v69.72a22.17,22.17,0,0,1-22.17,22.18H738a22.17,22.17,0,0,1-22.17-22.18V283a53.06,53.06,0,1,1,106.11,0Z"/></clipPath><clipPath id="ba"><rect class="a" x="604.92" y="214.49" width="353.76" height="153.27"/></clipPath><clipPath id="bb"><rect class="a" x="715.78" y="229.91" width="107" height="79.04"/></clipPath><clipPath id="bc"><circle class="a" cx="769.12" cy="218.03" r="8.04" transform="translate(-6.41 412.03) rotate(-29.87)"/></clipPath><clipPath id="be"><circle class="a" cx="769.12" cy="226.07" r="8.04" transform="translate(-32.35 243.26) rotate(-17.61)"/></clipPath><clipPath id="bi"><circle class="a" cx="769.12" cy="209.99" r="8.04" transform="matrix(0.98, -0.2, 0.2, 0.98, -26.52, 158.93)"/></clipPath><clipPath id="bk"><circle class="a" cx="769.76" cy="103.63" r="9.64"/></clipPath><clipPath id="bm"><rect class="a" x="714.81" y="126.77" width="108.45" height="83.49" rx="22.17"/></clipPath><clipPath id="bo"><circle class="a" cx="745.66" cy="158.58" r="9.64"/></clipPath><clipPath id="bq"><circle class="a" cx="793.85" cy="158.58" r="9.64"/></clipPath><clipPath id="bs"><path class="b" d="M823.27,288.4v70.31a22.18,22.18,0,0,1-22.18,22.17H737a22.18,22.18,0,0,1-22.17-22.17v-76.5a54.23,54.23,0,1,1,108.46,0Zm-20.57.29v-5.2a33.34,33.34,0,1,0-66.68,0v46.2a22.16,22.16,0,0,0,22.17,22.17h22.34a22.17,22.17,0,0,0,22.17-22.17v-41Z"/></clipPath><clipPath id="bu"><path class="b" d="M840.54,195.39a20.13,20.13,0,1,0,8.68.26V214.8a4.34,4.34,0,0,1-8.68,0Z"/></clipPath><clipPath id="bw"><circle class="a" cx="769.27" cy="182.2" r="13.98"/></clipPath><clipPath id="by"><rect class="a" x="746.62" y="153.76" width="45.3" height="47.23"/></clipPath><clipPath id="bz"><rect class="a" x="755.3" y="168.22" width="27.95" height="27.95"/></clipPath><clipPath id="ca"><path class="b" d="M848.26,193.73c0,.4,0,.81,0,1.23a14,14,0,0,0,27.95,1.23Q863.82,195.17,848.26,193.73Zm-7.33-.68q-10.23-1-21.72-2.1a4.06,4.06,0,0,1-3.67,1.34c-2-.34-6-4.95-8-12.5s-2-14.84,0-17.5q2-2.67,4.67-1.34,85.74-52.66,92-52.67c6.26,0,19.67,6.34,27,43s-1,44.88-8.33,47q-4.35,1.26-40.1-1.57a21,21,0,0,1-41.9-2.1C840.88,194.09,840.9,193.57,840.93,193.05Zm79.62.21c7.17-1.65,9-20.45,4-42s-14.82-37.64-22-36-9,20.45-4,42S913.37,194.92,920.55,193.26Z"/></clipPath><clipPath id="cc"><path class="b" d="M813.13,160.51a40.16,40.16,0,0,0,.56,17.69q2.28,9.3,7.15,12.67"/></clipPath><clipPath id="ce"><rect class="a" x="946.79" y="96.46" width="7.71" height="15.42" transform="translate(82.13 504.5) rotate(-31)"/></clipPath><clipPath id="cf"><rect class="a" x="912.52" y="54.94" width="948.51" height="294"/></clipPath><pattern id="cg" width="8" height="8" patternTransform="translate(4.21 2.75) scale(0.96)" patternUnits="userSpaceOnUse" viewBox="0 0 8 8"><rect class="a" width="8" height="8"/><circle class="d" cx="4" cy="4" r="0.66"/></pattern><clipPath id="ch"><rect class="c" x="684.75" y="30.36" width="7.71" height="15.42" transform="translate(78.75 360.1) rotate(-31)"/></clipPath><clipPath id="ci"><rect class="c" x="650.49" y="-11.17" width="948.51" height="294"/></clipPath></defs><title>Rabbit-MQ-CFP-2020-PC</title><g class="e"><g class="f"><rect class="g" x="715.78" y="48.69" width="108.92" height="107.96"/></g></g><path class="h" d="M786.46,130.59c.45-1.21,2.49-6.83,2.54-9.25.27-12,.27-4.8.27-22.28,0-28.58,9-45.55,18-45.55a7.42,7.42,0,0,1,2.3.37c6.54,2.08,14,13.9,8.17,40.25-5,22.9-9.62,31.06-11.34,35.41-1.37,3.46-1-.18-2.35,6.15,6,4.29-7.64,10.05-6.4,16.14l-27.45-12.78-27.46,12.78c1.24-6.09-12.36-11.85-6.4-16.14-1.34-6.33-1-2.69-2.35-6.15-1.72-4.35-6.28-12.51-11.34-35.41-5.82-26.35,1.64-38.17,8.17-40.25a7.53,7.53,0,0,1,2.31-.37c9,0,18,17,18,45.55,0,17.48,0,10.27.26,22.28.06,2.42,2.1,8,2.55,9.25,1.68-.17,3.86-.25,6-.25,1.52,0,5.64,0,10.19.1s8.66-.1,10.18-.1C782.6,130.34,784.78,130.42,786.46,130.59Z"/><g class="i"><g class="f"><rect class="g" x="788.07" y="257.86" width="25.72" height="25.72"/></g></g><circle class="h" cx="800.93" cy="270.72" r="6.59"/><g class="j"><g class="f"><rect class="g" x="795.3" y="257.86" width="25.72" height="25.72"/></g></g><circle class="h" cx="808.16" cy="270.72" r="6.59"/><g class="k"><g class="f"><rect class="g" x="803.49" y="257.86" width="25.72" height="25.72"/></g></g><circle class="h" cx="816.35" cy="270.72" r="6.59"/><g class="l"><g class="f"><rect class="g" x="810.72" y="257.86" width="25.72" height="25.72"/></g></g><circle class="h" cx="823.58" cy="270.72" r="6.59"/><g class="m"><g class="f"><rect class="g" x="817.95" y="257.86" width="25.72" height="25.72"/></g></g><circle class="h" cx="830.81" cy="270.72" r="6.59"/><g class="n"><g class="f"><rect class="g" x="825.18" y="257.86" width="25.72" height="25.72"/></g></g><circle class="h" cx="838.04" cy="270.72" r="6.59"/><g class="o"><g class="f"><rect class="g" x="832.41" y="257.86" width="25.72" height="25.72"/></g></g><circle class="h" cx="845.27" cy="270.72" r="6.59"/><g class="p"><g class="f"><rect class="g" x="832.41" y="251.12" width="25.72" height="25.72"/></g></g><circle class="h" cx="845.27" cy="263.97" r="6.59"/><g class="q"><g class="f"><rect class="g" x="832.41" y="243.4" width="25.72" height="25.72"/></g></g><circle class="h" cx="845.27" cy="256.26" r="6.59"/><g class="r"><g class="f"><rect class="g" x="832.41" y="235.69" width="25.72" height="25.72"/></g></g><circle class="h" cx="845.27" cy="248.55" r="6.59"/><g class="s"><g class="f"><rect class="g" x="832.41" y="227.98" width="25.72" height="25.72"/></g></g><circle class="h" cx="845.27" cy="240.84" r="6.59"/><g class="t"><g class="f"><rect class="g" x="832.41" y="220.27" width="25.72" height="25.72"/></g></g><circle class="h" cx="845.27" cy="233.13" r="6.59"/><g class="u"><g class="f"><rect class="g" x="707.38" y="255.58" width="25.72" height="25.72"/></g></g><circle class="h" cx="720.24" cy="268.43" r="6.59"/><g class="v"><g class="f"><rect class="g" x="700.15" y="255.58" width="25.72" height="25.72"/></g></g><circle class="h" cx="713.01" cy="268.43" r="6.59"/><g class="w"><g class="f"><rect class="g" x="692.92" y="255.58" width="25.72" height="25.72"/></g></g><circle class="h" cx="705.78" cy="268.43" r="6.59"/><g class="x"><g class="f"><rect class="g" x="685.69" y="255.58" width="25.72" height="25.72"/></g></g><circle class="h" cx="698.55" cy="268.43" r="6.59"/><g class="y"><g class="f"><rect class="g" x="678.46" y="255.58" width="25.72" height="25.72"/></g></g><circle class="h" cx="691.32" cy="268.43" r="6.59"/><g class="z"><g class="f"><rect class="g" x="678.46" y="248.83" width="25.72" height="25.72"/></g></g><circle class="h" cx="691.32" cy="261.69" r="6.59"/><g class="aa"><g class="f"><rect class="g" x="678.46" y="241.12" width="25.72" height="25.72"/></g></g><circle class="h" cx="691.32" cy="253.98" r="6.59"/><g class="ab"><g class="f"><rect class="g" x="678.46" y="233.41" width="25.72" height="25.72"/></g></g><circle class="h" cx="691.32" cy="246.26" r="6.59"/><g class="ac"><g class="f"><rect class="g" x="678.46" y="225.69" width="25.72" height="25.72"/></g></g><circle class="h" cx="691.32" cy="238.55" r="6.59"/><g class="ad"><g class="f"><rect class="g" x="678.46" y="217.98" width="25.72" height="25.72"/></g></g><circle class="h" cx="691.32" cy="230.84" r="6.59"/><g class="ae"><g class="f"><rect class="g" x="666.84" y="186.53" width="49.9" height="49.55"/></g></g><path class="h" d="M697,193.18a18.69,18.69,0,1,1-11.57.39v17.2a5.79,5.79,0,0,0,11.57,0Z"/><g class="af"><g class="f"><rect class="g" x="710.96" y="225.09" width="115.76" height="162.53"/></g></g><g class="ag"><g class="f"><g class="ah"><g class="ai"><g class="aj"><line class="h" x1="704.21" y1="352.58" x2="826.88" y2="229.91"/><line class="h" x1="714.81" y1="352.58" x2="837.48" y2="229.91"/><line class="h" x1="725.41" y1="352.58" x2="848.09" y2="229.91"/><line class="h" x1="736.02" y1="352.58" x2="858.69" y2="229.91"/><line class="h" x1="746.62" y1="352.58" x2="869.29" y2="229.91"/><line class="h" x1="757.22" y1="352.58" x2="879.9" y2="229.91"/><line class="h" x1="767.83" y1="352.58" x2="890.5" y2="229.91"/><line class="h" x1="778.43" y1="352.58" x2="901.1" y2="229.91"/><line class="h" x1="619.38" y1="352.58" x2="742.05" y2="229.91"/><line class="h" x1="629.99" y1="352.58" x2="752.66" y2="229.91"/><line class="h" x1="640.59" y1="352.58" x2="763.26" y2="229.91"/><line class="h" x1="651.19" y1="352.58" x2="773.86" y2="229.91"/><line class="h" x1="661.79" y1="352.58" x2="784.47" y2="229.91"/><line class="h" x1="672.4" y1="352.58" x2="795.07" y2="229.91"/><line class="h" x1="683" y1="352.58" x2="805.67" y2="229.91"/><line class="h" x1="693.6" y1="352.58" x2="816.28" y2="229.91"/><line class="h" x1="789.03" y1="352.58" x2="911.71" y2="229.91"/><line class="h" x1="799.64" y1="352.58" x2="922.31" y2="229.91"/><line class="h" x1="810.24" y1="352.58" x2="932.91" y2="229.91"/><line class="h" x1="820.84" y1="352.58" x2="943.52" y2="229.91"/></g></g></g></g></g><g class="ak"><g class="f"><rect class="g" x="756.26" y="205.17" width="25.72" height="25.72"/></g></g><circle class="h" cx="769.12" cy="218.03" r="6.59"/><g class="al"><g class="f"><rect class="g" x="756.26" y="213.21" width="25.72" height="25.72"/></g></g><circle class="h" cx="769.12" cy="226.07" r="6.59"/><g class="ak"><g class="f"><rect class="g" x="756.26" y="205.17" width="25.72" height="25.72"/></g></g><circle class="h" cx="769.12" cy="218.03" r="6.59"/><g class="am"><g class="f"><rect class="g" x="756.26" y="197.14" width="25.72" height="25.72"/></g></g><circle class="h" cx="769.12" cy="209.99" r="6.59"/><line class="h" x1="769.76" y1="103.63" x2="769.76" y2="139.35"/><g class="an"><g class="f"><rect class="g" x="755.3" y="89.18" width="28.92" height="28.92"/></g></g><circle class="h" cx="769.76" cy="103.63" r="8.19"/><g class="ao"><g class="f"><rect class="g" x="709.99" y="121.95" width="118.09" height="93.13"/></g></g><rect class="h" x="716.26" y="128.21" width="105.56" height="80.6" rx="22.17"/><g class="ap"><g class="f"><rect class="g" x="731.2" y="144.12" width="28.92" height="28.92"/></g></g><path class="h" d="M753.85,158.58a8.2,8.2,0,0,0-16.39,0"/><g class="aq"><g class="f"><rect class="g" x="779.39" y="144.12" width="28.92" height="28.92"/></g></g><path class="h" d="M802.05,158.58a8.2,8.2,0,0,0-16.39,0"/><path class="h" d="M822.77,359.51V282.82a53,53,0,0,0-106,0v76.69a20.79,20.79,0,0,0,20.82,20.77H802A20.79,20.79,0,0,0,822.77,359.51Z"/><g class="ar"><g class="f"><rect class="g" x="709.99" y="223.16" width="118.09" height="162.53"/></g></g><path class="h" d="M821.82,358.71v-76.5a52.78,52.78,0,0,0-105.56,0v76.5A20.72,20.72,0,0,0,737,379.43h64.11A20.73,20.73,0,0,0,821.82,358.71Zm-17.68-70h0v41a23.61,23.61,0,0,1-23.61,23.62H758.19a23.62,23.62,0,0,1-23.62-23.62v-46.2a34.79,34.79,0,0,1,69.57,0v5.21Z"/><g class="as"><g class="f"><rect class="g" x="819.34" y="190.57" width="49.9" height="49.55"/></g></g><path class="h" d="M839.1,197.22a18.67,18.67,0,1,0,11.56.38v17.2a5.78,5.78,0,1,1-11.56,0Z"/><g class="at"><g class="f"><g class="ah"><g class="au"><g class="av"><rect class="g" x="750.48" y="163.4" width="37.59" height="37.59"/><line class="h" x1="769.27" y1="169.38" x2="769.27" y2="181.81"/><path class="h" d="M777,169H761.51v10.49a2.33,2.33,0,0,0,2.33,2.33h10.87a2.33,2.33,0,0,0,2.33-2.33Z"/></g></g></g></g></g><circle class="h" cx="769.27" cy="184.12" r="13.98"/><g class="aw"><g class="f"><rect class="g" x="801.21" y="103.46" width="137.66" height="116.98"/></g></g><path class="ax" d="M848.26,193.73c0,.4,0,.81,0,1.23a14,14,0,0,0,27.95,1.23Q863.82,195.17,848.26,193.73Zm-7.33-.68q-10.23-1-21.72-2.1a4.06,4.06,0,0,1-3.67,1.34c-2-.34-6-4.95-8-12.5s-2-14.84,0-17.5q2-2.67,4.67-1.34,85.74-52.66,92-52.67c6.26,0,19.67,6.34,27,43s-1,44.88-8.33,47q-4.35,1.26-40.1-1.57a21,21,0,0,1-41.9-2.1C840.88,194.09,840.9,193.57,840.93,193.05Zm79.62.21c7.17-1.65,9-20.45,4-42s-14.82-37.64-22-36-9,20.45-4,42S913.37,194.92,920.55,193.26Z"/><g class="ay"><g class="f"><rect class="g" x="807.83" y="155.58" width="17.3" height="40.25" transform="translate(-5.63 28.6) rotate(-2)"/></g></g><path class="az" d="M813.13,160.51a40.16,40.16,0,0,0,.56,17.69q2.28,9.3,7.15,12.67"/><rect class="ax" x="762.02" y="32.48" width="7.71" height="15.42" transform="translate(-0.87 23.45) rotate(-1.75)"/><polygon class="c" points="872.65 54.75 861.33 62.38 875 66.83 878.85 79.54 887.39 68.31 900.85 68.31 892.73 57.5 896.79 44.79 883.97 49.45 872.65 40.98 872.65 54.75"/><g class="ba"><g class="bb"><rect class="bc" x="941.97" y="91.64" width="17.35" height="25.06" transform="translate(82.13 504.5) rotate(-31)"/></g></g><polygon class="bd" points="635 83.47 625.45 91.42 638.11 94.41 642.62 105.81 649.37 94.78 661.47 93.69 653.28 84.39 655.87 72.35 644.74 77.68 633.86 70.79 635 83.47"/><rect class="c" x="684.75" y="30.36" width="7.71" height="15.42" transform="translate(78.75 360.1) rotate(-31)"/><g class="be"><rect class="c" x="650.49" y="-11.17" width="948.51" height="294"/><g class="bf"><rect class="c" x="679.93" y="25.54" width="17.35" height="25.06" transform="translate(78.75 360.1) rotate(-31)"/></g></g><line class="bg" x1="2.5" y1="303" x2="981.5" y2="303"/></svg>