<svg xmlns="http://www.w3.org/2000/svg" xmlns:xlink="http://www.w3.org/1999/xlink" viewBox="0 0 628 248"><defs><style>.a,.ar,.b,.cb,.cd,.cp,.cq{fill:none;}.b{clip-rule:evenodd;}.c{fill:#866e8b;}.d{clip-path:url(#a);}.e{clip-path:url(#b);}.f{clip-path:url(#c);}.g{clip-path:url(#d);}.h{clip-path:url(#e);}.i{clip-path:url(#f);}.j{clip-path:url(#g);}.k{clip-path:url(#h);}.l{clip-path:url(#i);}.m{clip-path:url(#j);}.n{clip-path:url(#k);}.o{clip-path:url(#l);}.p{clip-path:url(#m);}.q{clip-path:url(#n);}.r{clip-path:url(#o);}.s{clip-path:url(#p);}.t{clip-path:url(#q);}.u{clip-path:url(#r);}.v{clip-path:url(#s);}.w{clip-path:url(#t);}.x{clip-path:url(#u);}.y{clip-path:url(#v);}.z{clip-path:url(#w);}.aa{clip-path:url(#x);}.ab{clip-path:url(#y);}.ac{clip-path:url(#z);}.ad{clip-path:url(#aa);}.ae{clip-path:url(#ab);}.af{clip-path:url(#ad);}.ag{clip-path:url(#ae);}.ah{clip-path:url(#af);}.ai{clip-path:url(#ag);}.aj{clip-path:url(#ah);}.ak{clip-path:url(#ai);}.al{clip-path:url(#aj);}.am{clip-path:url(#ak);}.an{clip-path:url(#al);}.ao{clip-path:url(#am);}.ap{clip-path:url(#an);}.aq{clip-path:url(#ao);}.ar,.cb,.cd,.ce,.cq{stroke:#ef6924;}.ar,.cd,.ce,.cq{stroke-miterlimit:10;}.ar,.cb,.ce,.cp{stroke-width:2px;}.as{clip-path:url(#ap);}.at{clip-path:url(#aq);}.au,.ce{fill:#fff;}.av{clip-path:url(#ar);}.aw{clip-path:url(#at);}.ax{clip-path:url(#av);}.ay{clip-path:url(#ax);}.az{clip-path:url(#az);}.ba{clip-path:url(#bb);}.bb{clip-path:url(#bd);}.bc{clip-path:url(#bf);}.bd{clip-path:url(#bh);}.be{clip-path:url(#bj);}.bf{clip-path:url(#bl);}.bg{clip-path:url(#bn);}.bh{clip-path:url(#bp);}.bi{clip-path:url(#br);}.bj{clip-path:url(#bt);}.bk{clip-path:url(#bv);}.bl{isolation:isolate;}.bm{clip-path:url(#bx);}.bn{clip-path:url(#by);}.bo{clip-path:url(#bz);}.bp{clip-path:url(#cb);}.bq{clip-path:url(#cf);}.br{clip-path:url(#ch);}.bs{clip-path:url(#cj);}.bt{clip-path:url(#cl);}.bu{clip-path:url(#cn);}.bv{clip-path:url(#cp);}.bw{clip-path:url(#cr);}.bx{clip-path:url(#ct);}.by{clip-path:url(#cv);}.bz{clip-path:url(#cw);}.ca{clip-path:url(#cx);}.cb,.cp,.cq{stroke-linecap:round;}.cb,.cp{stroke-linejoin:round;}.cc{clip-path:url(#cz);}.cd{stroke-width:2px;}.cf{clip-path:url(#db);}.cg{clip-path:url(#dc);}.ch{clip-path:url(#dd);}.ci{clip-path:url(#df);}.cj{clip-path:url(#dh);}.ck{clip-path:url(#dj);}.cl{clip-path:url(#dl);}.cm{clip-path:url(#dn);}.cn{clip-path:url(#dp);}.co{clip-path:url(#dr);}.cp{stroke:#866e8b;}.cq{stroke-width:3px;}</style><clipPath id="a"><path class="a" d="M-238.06,129.63c.45-1.22,2.49-6.83,2.54-9.26.27-12,.27-4.79.27-22.28,0-28.58,9-45.55,18-45.55a7.73,7.73,0,0,1,2.3.37c6.54,2.08,14,13.91,8.17,40.25-5,22.9-9.62,31.07-11.34,35.41-1.37,3.47-1-.17-2.35,6.15,6,4.29-7.64,10.05-6.4,16.14l-27.45-12.77-27.46,12.77c1.24-6.09-12.36-11.85-6.39-16.14-1.35-6.32-1-2.68-2.36-6.15-1.72-4.34-6.28-12.51-11.34-35.41-5.81-26.34,1.64-38.17,8.17-40.25a7.84,7.84,0,0,1,2.31-.37c9,0,18,17,18,45.55,0,17.49,0,10.27.27,22.28.05,2.43,2.09,8,2.54,9.26,1.68-.18,3.86-.25,6-.25,1.51,0,5.63,0,10.18.09s8.66-.09,10.18-.09C-241.92,129.38-239.74,129.45-238.06,129.63Z"/></clipPath><clipPath id="b"><circle class="a" cx="-223.59" cy="269.76" r="8.04" transform="translate(-92.4 -55.13) rotate(-17.67)"/></clipPath><clipPath id="c"><circle class="a" cx="-216.36" cy="269.76" r="8.04" transform="translate(-92.06 -52.94) rotate(-17.67)"/></clipPath><clipPath id="d"><circle class="a" cx="-208.17" cy="269.76" r="8.04" transform="translate(-91.68 -50.45) rotate(-17.67)"/></clipPath><clipPath id="e"><circle class="a" cx="-200.94" cy="269.76" r="8.04" transform="translate(-91.34 -48.26) rotate(-17.67)"/></clipPath><clipPath id="f"><circle class="a" cx="-193.71" cy="269.76" r="8.04" transform="translate(-91 -46.06) rotate(-17.67)"/></clipPath><clipPath id="g"><circle class="a" cx="-186.48" cy="269.76" r="8.04" transform="translate(-90.65 -43.87) rotate(-17.67)"/></clipPath><clipPath id="h"><circle class="a" cx="-179.25" cy="269.76" r="8.04" transform="translate(-90.31 -41.67) rotate(-17.67)"/></clipPath><clipPath id="i"><circle class="a" cx="-179.25" cy="263.01" r="8.04" transform="translate(-89.18 -42.27) rotate(-17.84)"/></clipPath><clipPath id="j"><circle class="a" cx="-179.25" cy="255.3" r="8.04" transform="translate(-86.82 -42.64) rotate(-17.84)"/></clipPath><clipPath id="k"><circle class="a" cx="-179.25" cy="247.58" r="8.04" transform="translate(-84.46 -43.01) rotate(-17.84)"/></clipPath><clipPath id="l"><circle class="a" cx="-179.25" cy="239.87" r="8.04" transform="translate(-82.1 -43.38) rotate(-17.84)"/></clipPath><clipPath id="m"><circle class="a" cx="-179.25" cy="232.16" r="8.04" transform="translate(-78.09 -43.15) rotate(-17.5)"/></clipPath><clipPath id="n"><circle class="a" cx="-304.28" cy="267.47" r="8.04"/></clipPath><clipPath id="o"><circle class="a" cx="-311.51" cy="267.47" r="8.04"/></clipPath><clipPath id="p"><circle class="a" cx="-318.74" cy="267.47" r="8.04"/></clipPath><clipPath id="q"><circle class="a" cx="-325.97" cy="267.47" r="8.04"/></clipPath><clipPath id="r"><circle class="a" cx="-333.2" cy="267.47" r="8.04"/></clipPath><clipPath id="s"><circle class="a" cx="-333.2" cy="260.72" r="8.04"/></clipPath><clipPath id="t"><circle class="a" cx="-333.2" cy="253.01" r="8.04"/></clipPath><clipPath id="u"><circle class="a" cx="-333.2" cy="245.3" r="8.04"/></clipPath><clipPath id="v"><circle class="a" cx="-333.2" cy="237.59" r="8.04"/></clipPath><clipPath id="w"><circle class="a" cx="-333.2" cy="229.87" r="8.04"/></clipPath><clipPath id="x"><path class="b" d="M-329,190.39a20.13,20.13,0,0,1,16.39,19.78,20.13,20.13,0,0,1-20.13,20.13,20.13,20.13,0,0,1-20.13-20.13,20.13,20.13,0,0,1,15.2-19.52V209.8a4.34,4.34,0,0,0,4.34,4.34A4.34,4.34,0,0,0-329,209.8Z"/></clipPath><clipPath id="y"><path class="a" d="M-202.63,290v69.72a22.17,22.17,0,0,1-22.17,22.17h-61.77a22.17,22.17,0,0,1-22.17-22.17V282a53.06,53.06,0,0,1,53.06-53.06A53.06,53.06,0,0,1-202.63,282Z"/></clipPath><clipPath id="z"><path class="b" d="M-202.63,290v69.72a22.17,22.17,0,0,1-22.17,22.17h-61.77a22.17,22.17,0,0,1-22.17-22.17V282a53.06,53.06,0,0,1,53.06-53.06A53.06,53.06,0,0,1-202.63,282Z"/></clipPath><clipPath id="aa"><circle class="a" cx="-255.4" cy="217.07" r="8.04" transform="translate(-142.04 -98.37) rotate(-29.87)"/></clipPath><clipPath id="ab"><circle class="a" cx="-255.4" cy="225.1" r="8.04" transform="translate(-80.06 -66.72) rotate(-17.61)"/></clipPath><clipPath id="ad"><circle class="a" cx="-255.4" cy="209.03" r="8.04" transform="matrix(0.98, -0.2, 0.2, 0.98, -47.24, -47.08)"/></clipPath><clipPath id="ae"><circle class="a" cx="-254.76" cy="102.67" r="9.64"/></clipPath><clipPath id="af"><rect class="a" x="-309.71" y="125.8" width="108.45" height="83.49" rx="22.17"/></clipPath><clipPath id="ag"><circle class="a" cx="-278.86" cy="157.61" r="9.64"/></clipPath><clipPath id="ah"><circle class="a" cx="-230.67" cy="157.61" r="9.64"/></clipPath><clipPath id="ai"><path class="b" d="M-201.25,287.44v70.3a22.17,22.17,0,0,1-22.17,22.17h-64.12a22.17,22.17,0,0,1-22.17-22.17v-76.5A54.22,54.22,0,0,1-255.48,227a54.22,54.22,0,0,1,54.23,54.22Zm-20.57.29v-5.2a33.34,33.34,0,0,0-33.34-33.34,33.34,33.34,0,0,0-33.34,33.34v46.2a22.17,22.17,0,0,0,22.17,22.17H-244a22.18,22.18,0,0,0,22.17-22.17v-41Z"/></clipPath><clipPath id="aj"><path class="b" d="M-184,194.42a20.14,20.14,0,0,0-16.38,19.79,20.13,20.13,0,0,0,20.13,20.13,20.14,20.14,0,0,0,20.13-20.13,20.15,20.15,0,0,0-15.2-19.53v19.16a4.33,4.33,0,0,1-4.34,4.33,4.33,4.33,0,0,1-4.34-4.33Z"/></clipPath><clipPath id="ak"><circle class="a" cx="-255.25" cy="181.23" r="13.98"/></clipPath><clipPath id="al"><path class="b" d="M-176.26,192.76c0,.41-.05.82-.05,1.23a14,14,0,0,0,14,14,14,14,0,0,0,13.95-12.77Q-160.7,194.2-176.26,192.76Zm-7.33-.68q-10.22-1-21.72-2.09a4.07,4.07,0,0,1-3.67,1.33c-2-.33-6-4.94-8-12.5s-2-14.83,0-17.5q2-2.67,4.67-1.33,85.76-52.68,92-52.67c6.26,0,19.67,6.33,27,43s-1,44.89-8.34,47q-4.35,1.26-40.1-1.56a21,21,0,0,1-20.9,18.9,21,21,0,0,1-21-21C-183.64,193.13-183.62,192.6-183.59,192.08Zm79.62.22c7.17-1.66,9-20.45,4-42s-14.81-37.64-22-36-9,20.45-4,42S-111.15,194-104,192.3Z"/></clipPath><clipPath id="am"><path class="b" d="M-211.39,159.54a40.21,40.21,0,0,0,.56,17.7q2.28,9.28,7.15,12.66"/></clipPath><clipPath id="an"><rect class="a" x="-77.73" y="95.5" width="7.71" height="15.42" transform="translate(-63.71 -23.31) rotate(-31)"/></clipPath><clipPath id="ao"><rect class="c" x="-339.77" y="29.4" width="7.71" height="15.42" transform="translate(-67.09 -167.71) rotate(-31)"/></clipPath><clipPath id="ap"><path class="a" d="M522.93,96.79a27.52,27.52,0,0,0,1.63-5.92c.18-7.67.18-3.06.18-14.24,0-18.26,5.81-29.11,11.59-29.11a4.88,4.88,0,0,1,1.49.24c4.2,1.33,9,8.88,5.25,25.72-3.25,14.64-6.19,19.86-7.29,22.63-.89,2.22-.65-.11-1.51,3.94,3.83,2.74-4.92,6.42-4.12,10.31L512.5,102.2l-17.65,8.16c.8-3.89-8-7.57-4.11-10.31-.86-4-.63-1.72-1.51-3.94-1.11-2.77-4-8-7.29-22.63-3.74-16.84,1.05-24.39,5.25-25.72a4.82,4.82,0,0,1,1.48-.24c5.79,0,11.6,10.85,11.6,29.11,0,11.18,0,6.57.17,14.24a28.07,28.07,0,0,0,1.64,5.92,37.66,37.66,0,0,1,3.88-.16c1,0,3.62,0,6.54.06s5.57-.06,6.55-.06A37.66,37.66,0,0,1,522.93,96.79Z"/></clipPath><clipPath id="aq"><rect class="a" x="440.33" y="-1.58" width="616.65" height="243.52"/></clipPath><clipPath id="ar"><ellipse class="a" cx="529.84" cy="189.28" rx="5.06" ry="5.25"/></clipPath><clipPath id="at"><ellipse class="a" cx="534.39" cy="189.28" rx="5.06" ry="5.25"/></clipPath><clipPath id="av"><ellipse class="a" cx="539.55" cy="189.28" rx="5.06" ry="5.25"/></clipPath><clipPath id="ax"><ellipse class="a" cx="544.11" cy="189.28" rx="5.06" ry="5.25"/></clipPath><clipPath id="az"><ellipse class="a" cx="548.66" cy="189.28" rx="5.06" ry="5.25"/></clipPath><clipPath id="bb"><ellipse class="a" cx="553.21" cy="189.28" rx="5.06" ry="5.25"/></clipPath><clipPath id="bd"><ellipse class="a" cx="557.77" cy="189.28" rx="5.06" ry="5.25"/></clipPath><clipPath id="bf"><ellipse class="a" cx="557.77" cy="184.87" rx="5.06" ry="5.25"/></clipPath><clipPath id="bh"><ellipse class="a" cx="557.77" cy="179.83" rx="5.06" ry="5.25"/></clipPath><clipPath id="bj"><ellipse class="a" cx="557.77" cy="174.79" rx="5.06" ry="5.25"/></clipPath><clipPath id="bl"><ellipse class="a" cx="557.77" cy="169.75" rx="5.06" ry="5.25"/></clipPath><clipPath id="bn"><ellipse class="a" cx="557.77" cy="164.71" rx="5.06" ry="5.25"/></clipPath><clipPath id="bp"><ellipse class="a" cx="485.25" cy="188.77" rx="5.13" ry="5.24"/></clipPath><clipPath id="br"><ellipse class="a" cx="480.64" cy="188.77" rx="5.13" ry="5.24"/></clipPath><clipPath id="bt"><path class="a" d="M545.82,201.1v44.22a14.16,14.16,0,0,1-14.25,14.06H491.89a14.16,14.16,0,0,1-14.25-14.06V196.06a34.09,34.09,0,0,1,68.18,0Z"/></clipPath><clipPath id="bv"><path class="b" d="M545.82,201.1v44.22a14.16,14.16,0,0,1-14.25,14.06H491.89a14.16,14.16,0,0,1-14.25-14.06V196.06a34.09,34.09,0,0,1,68.18,0Z"/></clipPath><clipPath id="bx"><rect class="a" x="404" y="151.6" width="228.79" height="99.17"/></clipPath><clipPath id="by"><rect class="a" x="476.66" y="162.4" width="69.72" height="79.54"/></clipPath><clipPath id="bz"><ellipse class="a" cx="511.92" cy="153.03" rx="4.82" ry="5.13"/></clipPath><clipPath id="cb"><ellipse class="a" cx="511.92" cy="158.16" rx="4.82" ry="5.13"/></clipPath><clipPath id="cf"><ellipse class="a" cx="511.92" cy="147.9" rx="4.82" ry="5.13"/></clipPath><clipPath id="ch"><ellipse class="a" cx="513.48" cy="80.17" rx="6.38" ry="6.14"/></clipPath><clipPath id="cj"><rect class="a" x="476.66" y="95.63" width="69.42" height="52.79" rx="22.58"/></clipPath><clipPath id="cl"><ellipse class="a" cx="496.58" cy="115.76" rx="6.17" ry="6.38"/></clipPath><clipPath id="cn"><ellipse class="a" cx="527.88" cy="115.76" rx="6.17" ry="6.38"/></clipPath><clipPath id="cp"><path class="b" d="M546.08,203.59v51.35c0,8.94-6.36,16.19-14.19,16.19h-41c-7.83,0-14.19-7.25-14.19-16.19V199.06c0-21.87,15.54-39.6,34.71-39.6s34.71,17.73,34.71,39.6Zm-13.17.21V200c0-13.45-9.55-24.35-21.33-24.35s-21.34,10.9-21.34,24.35v33.75c0,8.94,6.35,16.19,14.19,16.19h14.29c7.84,0,14.19-7.25,14.19-16.19V203.8Z"/></clipPath><clipPath id="cr"><path class="b" d="M555.16,140.92a12.89,12.89,0,1,0,5.55.17v12.54a2.78,2.78,0,1,1-5.55,0Z"/></clipPath><clipPath id="ct"><ellipse class="a" cx="511.03" cy="130.35" rx="8.84" ry="9.19"/></clipPath><clipPath id="cv"><rect class="a" x="495.32" y="111.34" width="30.44" height="33.39"/></clipPath><clipPath id="cw"><rect class="a" x="502.19" y="121.16" width="18.66" height="18.66"/></clipPath><clipPath id="cx"><path class="b" d="M561,140.81c0,.26,0,.52,0,.79a8.93,8.93,0,0,0,17.84.8Q570.91,141.74,561,140.81Zm-4.68-.45c-4.35-.41-9-.87-13.87-1.35a2.55,2.55,0,0,1-2.34.86c-1.28-.21-3.83-3.21-5.11-8.11s-1.28-9.63,0-11.36a2.17,2.17,0,0,1,3-.87Q592.7,85.35,596.7,85.35c4,0,12.56,4.11,17.24,27.91s-.64,29.13-5.32,30.51q-2.77.81-25.61-1a13.41,13.41,0,0,1-26.76-1.36C556.25,141,556.27,140.7,556.29,140.36Zm50.93.14c4.59-1.05,5.69-13.24,2.46-27.21s-9.56-24.44-14.14-23.38-5.68,13.24-2.45,27.21S602.64,141.56,607.22,140.5Z"/></clipPath><clipPath id="cz"><path class="b" d="M538.53,119.24a26.56,26.56,0,0,0,.37,11.49q1.46,6,4.57,8.22"/></clipPath><clipPath id="db"><ellipse class="a" cx="464.23" cy="188.59" rx="5.13" ry="5.24"/></clipPath><clipPath id="dc"><rect class="a" x="428.55" y="135.42" width="616.65" height="243.52"/></clipPath><clipPath id="dd"><ellipse class="a" cx="459.62" cy="188.59" rx="5.13" ry="5.24"/></clipPath><clipPath id="df"><ellipse class="a" cx="455" cy="188.59" rx="5.13" ry="5.24"/></clipPath><clipPath id="dh"><ellipse class="a" cx="455" cy="184.19" rx="5.13" ry="5.24"/></clipPath><clipPath id="dj"><ellipse class="a" cx="455" cy="179.17" rx="5.13" ry="5.24"/></clipPath><clipPath id="dl"><ellipse class="a" cx="455" cy="174.14" rx="5.13" ry="5.24"/></clipPath><clipPath id="dn"><ellipse class="a" cx="455" cy="169.12" rx="5.13" ry="5.24"/></clipPath><clipPath id="dp"><ellipse class="a" cx="455" cy="164.1" rx="5.13" ry="5.24"/></clipPath><clipPath id="dr"><path class="b" d="M457.69,138.37a12.87,12.87,0,1,1-5.54.17V151a2.77,2.77,0,1,0,5.54,0Z"/></clipPath></defs><title>Rabbit-MQ-CFP-2020-Tablet</title><rect class="c" x="-339.77" y="29.4" width="7.71" height="15.42" transform="translate(-67.09 -167.71) rotate(-31)"/><g class="aq"><rect class="c" x="-374.03" y="-12.13" width="948.51" height="294"/></g><ellipse class="ar" cx="475.04" cy="188.59" rx="4.21" ry="4.3"/><g class="as"><g class="at"><rect class="au" x="475.68" y="42.61" width="73.64" height="72.66"/></g></g><path class="ar" d="M522.93,96.79a27.52,27.52,0,0,0,1.63-5.92c.18-7.67.18-3.06.18-14.24,0-18.26,5.81-29.11,11.59-29.11a4.88,4.88,0,0,1,1.49.24c4.2,1.33,9,8.88,5.25,25.72-3.25,14.64-6.19,19.86-7.29,22.63-.89,2.22-.65-.11-1.51,3.94,3.83,2.74-4.92,6.42-4.12,10.31L512.5,102.2l-17.65,8.16c.8-3.89-8-7.57-4.11-10.31-.86-4-.63-1.72-1.51-3.94-1.11-2.77-4-8-7.29-22.63-3.74-16.84,1.05-24.39,5.25-25.72a4.82,4.82,0,0,1,1.48-.24c5.79,0,11.6,10.85,11.6,29.11,0,11.18,0,6.57.17,14.24a28.07,28.07,0,0,0,1.64,5.92,37.66,37.66,0,0,1,3.88-.16c1,0,3.62,0,6.54.06s5.57-.06,6.55-.06A37.66,37.66,0,0,1,522.93,96.79Z"/><g class="av"><g class="at"><rect class="au" x="519.87" y="179.12" width="19.94" height="20.33"/></g></g><ellipse class="ar" cx="529.84" cy="189.28" rx="4.15" ry="4.31"/><g class="aw"><g class="at"><rect class="au" x="524.42" y="179.12" width="19.94" height="20.33"/></g></g><ellipse class="ar" cx="534.39" cy="189.28" rx="4.15" ry="4.31"/><g class="ax"><g class="at"><rect class="au" x="529.58" y="179.12" width="19.94" height="20.33"/></g></g><ellipse class="ar" cx="539.55" cy="189.28" rx="4.15" ry="4.31"/><g class="ay"><g class="at"><rect class="au" x="534.13" y="179.12" width="19.94" height="20.33"/></g></g><ellipse class="ar" cx="544.11" cy="189.28" rx="4.15" ry="4.31"/><g class="az"><g class="at"><rect class="au" x="538.69" y="179.12" width="19.94" height="20.33"/></g></g><ellipse class="ar" cx="548.66" cy="189.28" rx="4.15" ry="4.31"/><g class="ba"><g class="at"><rect class="au" x="543.24" y="179.12" width="19.94" height="20.33"/></g></g><ellipse class="ar" cx="553.21" cy="189.28" rx="4.15" ry="4.31"/><g class="bb"><g class="at"><rect class="au" x="547.79" y="179.12" width="19.94" height="20.33"/></g></g><ellipse class="ar" cx="557.77" cy="189.28" rx="4.15" ry="4.31"/><g class="bc"><g class="at"><rect class="au" x="547.79" y="174.71" width="19.94" height="20.33"/></g></g><ellipse class="ar" cx="557.77" cy="184.87" rx="4.15" ry="4.31"/><g class="bd"><g class="at"><rect class="au" x="547.79" y="169.67" width="19.94" height="20.33"/></g></g><ellipse class="ar" cx="557.77" cy="179.83" rx="4.15" ry="4.31"/><g class="be"><g class="at"><rect class="au" x="547.79" y="164.63" width="19.94" height="20.33"/></g></g><ellipse class="ar" cx="557.77" cy="174.79" rx="4.15" ry="4.31"/><g class="bf"><g class="at"><rect class="au" x="547.79" y="159.59" width="19.94" height="20.33"/></g></g><ellipse class="ar" cx="557.77" cy="169.75" rx="4.15" ry="4.31"/><g class="bg"><g class="at"><rect class="au" x="547.79" y="154.55" width="19.94" height="20.33"/></g></g><ellipse class="ar" cx="557.77" cy="164.71" rx="4.15" ry="4.31"/><g class="bh"><g class="at"><rect class="au" x="475.21" y="178.63" width="20.09" height="20.29"/></g></g><ellipse class="ar" cx="485.25" cy="188.77" rx="4.21" ry="4.3"/><g class="bi"><g class="at"><rect class="au" x="470.59" y="178.63" width="20.09" height="20.29"/></g></g><ellipse class="ar" cx="480.64" cy="188.77" rx="4.21" ry="4.3"/><g class="bj"><g class="at"><rect class="au" x="472.73" y="157.5" width="77.99" height="106.8"/></g></g><g class="bk"><g class="at"><g class="bl"><g class="bm"><g class="bn"><line class="ar" x1="468.36" y1="240.21" x2="547.16" y2="162.4"/><line class="ar" x1="475.17" y1="240.21" x2="553.97" y2="162.4"/><line class="ar" x1="481.98" y1="240.21" x2="560.78" y2="162.4"/><line class="ar" x1="488.79" y1="240.21" x2="567.6" y2="162.4"/><line class="ar" x1="495.6" y1="240.21" x2="574.41" y2="162.4"/><line class="ar" x1="502.41" y1="240.21" x2="581.22" y2="162.4"/><line class="ar" x1="509.23" y1="240.21" x2="588.03" y2="162.4"/><line class="ar" x1="516.04" y1="240.21" x2="594.84" y2="162.4"/><line class="ar" x1="413.86" y1="240.21" x2="492.67" y2="162.4"/><line class="ar" x1="420.68" y1="240.21" x2="499.48" y2="162.4"/><line class="ar" x1="427.49" y1="240.21" x2="506.29" y2="162.4"/><line class="ar" x1="434.3" y1="240.21" x2="513.1" y2="162.4"/><line class="ar" x1="441.11" y1="240.21" x2="519.91" y2="162.4"/><line class="ar" x1="447.92" y1="240.21" x2="526.73" y2="162.4"/><line class="ar" x1="454.73" y1="240.21" x2="533.54" y2="162.4"/><line class="ar" x1="461.54" y1="240.21" x2="540.35" y2="162.4"/><line class="ar" x1="522.85" y1="240.21" x2="601.65" y2="162.4"/><line class="ar" x1="529.66" y1="240.21" x2="608.46" y2="162.4"/><line class="ar" x1="536.47" y1="240.21" x2="615.28" y2="162.4"/><line class="ar" x1="543.28" y1="240.21" x2="622.09" y2="162.4"/></g></g></g></g></g><g class="bo"><g class="at"><rect class="au" x="502.19" y="142.99" width="19.45" height="20.08"/></g></g><ellipse class="ar" cx="511.92" cy="153.03" rx="3.95" ry="4.21"/><g class="bp"><g class="at"><rect class="au" x="502.19" y="148.12" width="19.45" height="20.08"/></g></g><ellipse class="ar" cx="511.92" cy="158.16" rx="3.95" ry="4.21"/><g class="bo"><g class="at"><rect class="au" x="502.19" y="142.99" width="19.45" height="20.08"/></g></g><ellipse class="ar" cx="511.92" cy="153.03" rx="3.95" ry="4.21"/><g class="bq"><g class="at"><rect class="au" x="502.19" y="137.86" width="19.45" height="20.08"/></g></g><ellipse class="ar" cx="511.92" cy="147.9" rx="3.95" ry="4.21"/><line class="ar" x1="513.48" y1="80.17" x2="513.48" y2="102.91"/><g class="br"><g class="at"><rect class="au" x="502.19" y="69.12" width="22.58" height="22.09"/></g></g><ellipse class="ar" cx="513.48" cy="80.17" rx="5.43" ry="5.22"/><g class="bs"><g class="at"><rect class="au" x="471.75" y="90.72" width="79.23" height="62.61"/></g></g><rect class="ar" x="477.59" y="96.55" width="67.56" height="50.96" rx="17.67"/><g class="bt"><g class="at"><rect class="au" x="485.5" y="104.47" width="22.16" height="22.58"/></g></g><path class="ar" d="M501.83,115.76a5.25,5.25,0,1,0-10.49,0"/><g class="bu"><g class="at"><rect class="au" x="516.8" y="104.47" width="22.16" height="22.58"/></g></g><path class="ar" d="M533.13,115.76a5.25,5.25,0,1,0-10.5,0"/><path class="ar" d="M545.4,246.18V196.61a33.88,33.88,0,1,0-67.76,0v49.57A13.38,13.38,0,0,0,491,259.62H532.1A13.38,13.38,0,0,0,545.4,246.18Z"/><g class="bv"><g class="at"><rect class="au" x="471.75" y="154.55" width="79.23" height="121.49"/></g></g><path class="ar" d="M545.4,255.22V199.14c0-21.37-15.17-38.7-33.88-38.7s-33.88,17.33-33.88,38.7v56.08c0,8.39,6,15.2,13.31,15.2H532.1C539.44,270.42,545.4,263.61,545.4,255.22ZM534.05,203.9h0V234c0,9.56-6.78,17.32-15.15,17.32H504.56c-8.37,0-15.16-7.76-15.16-17.32V200.08c0-14.09,10-25.5,22.33-25.5s22.32,11.41,22.32,25.5v3.82Z"/><g class="bw"><g class="at"><rect class="au" x="539.77" y="136.01" width="35.57" height="35.96"/></g></g><path class="ar" d="M554.24,142.12a12,12,0,1,0,7.4.25v11.26a3.7,3.7,0,1,1-7.4,0Z"/><g class="bx"><g class="at"><g class="bl"><g class="by"><g class="bz"><rect class="au" x="497.28" y="116.25" width="27.49" height="28.19"/><line class="ar" x1="511.03" y1="121.93" x2="511.03" y2="131.08"/><path class="ar" d="M515.94,121.67h-9.82v6.89a1.5,1.5,0,0,0,1.47,1.53h6.88a1.5,1.5,0,0,0,1.47-1.53Z"/></g></g></g></g></g><ellipse class="ar" cx="511.03" cy="131.62" rx="8.84" ry="9.19"/><g class="ca"><g class="at"><rect class="au" x="529.1" y="80.44" width="91.57" height="79.49"/></g></g><path class="cb" d="M561,140.81c0,.26,0,.52,0,.79a8.93,8.93,0,0,0,17.84.8Q570.91,141.74,561,140.81Zm-4.68-.45c-4.35-.41-9-.87-13.87-1.35a2.55,2.55,0,0,1-2.34.86c-1.28-.21-3.83-3.21-5.11-8.11s-1.28-9.63,0-11.36a2.17,2.17,0,0,1,3-.87Q592.7,85.35,596.7,85.35c4,0,12.56,4.11,17.24,27.91s-.64,29.13-5.32,30.51q-2.77.81-25.61-1a13.41,13.41,0,0,1-26.76-1.36C556.25,141,556.27,140.7,556.29,140.36Zm50.93.14c4.59-1.05,5.69-13.24,2.46-27.21s-9.56-24.44-14.14-23.38-5.68,13.24-2.45,27.21S602.64,141.56,607.22,140.5Z"/><g class="cc"><g class="at"><rect class="au" x="533.32" y="114.26" width="14.71" height="29.69" transform="translate(-4.18 18.95) rotate(-2)"/></g></g><path class="cd" d="M538.53,119.24a26.56,26.56,0,0,0,.37,11.49q1.46,6,4.57,8.22"/><ellipse class="ce" cx="469.14" cy="188.59" rx="4.21" ry="4.3"/><g class="cf"><g class="cg"><rect class="au" x="454.19" y="178.44" width="20.09" height="20.29"/></g></g><ellipse class="ar" cx="464.23" cy="188.59" rx="4.21" ry="4.3"/><g class="ch"><g class="cg"><rect class="au" x="449.57" y="178.44" width="20.09" height="20.29"/></g></g><ellipse class="ar" cx="459.62" cy="188.59" rx="4.21" ry="4.3"/><g class="ci"><g class="cg"><rect class="au" x="444.95" y="178.44" width="20.09" height="20.29"/></g></g><ellipse class="ar" cx="455" cy="188.59" rx="4.21" ry="4.3"/><g class="cj"><g class="cg"><rect class="au" x="444.95" y="174.05" width="20.09" height="20.29"/></g></g><ellipse class="ar" cx="455" cy="184.19" rx="4.21" ry="4.3"/><g class="ck"><g class="cg"><rect class="au" x="444.95" y="169.02" width="20.09" height="20.29"/></g></g><ellipse class="ar" cx="455" cy="179.17" rx="4.21" ry="4.3"/><g class="cl"><g class="cg"><rect class="au" x="444.95" y="164" width="20.09" height="20.29"/></g></g><ellipse class="ar" cx="455" cy="174.14" rx="4.21" ry="4.3"/><g class="cm"><g class="cg"><rect class="au" x="444.95" y="158.97" width="20.09" height="20.29"/></g></g><ellipse class="ar" cx="455" cy="169.12" rx="4.21" ry="4.3"/><g class="cn"><g class="cg"><rect class="au" x="444.95" y="153.95" width="20.09" height="20.29"/></g></g><ellipse class="ar" cx="455" cy="164.1" rx="4.21" ry="4.3"/><g class="co"><g class="cg"><rect class="au" x="437.53" y="133.46" width="35.54" height="35.82"/></g></g><path class="ar" d="M458.61,139.56a11.94,11.94,0,1,1-7.39.25V151a3.7,3.7,0,1,0,7.39,0Z"/><rect class="cp" x="501.16" y="32.19" width="5.23" height="10.47" transform="matrix(0.86, -0.52, 0.52, 0.86, 52.68, 264.81)"/><polygon class="c" points="576.24 47.3 568.55 52.48 577.83 55.49 580.44 64.12 586.24 56.5 595.37 56.5 589.86 49.17 592.62 40.54 583.92 43.7 576.24 37.95 576.24 47.3"/><path class="cb" d="M445,63.41A13.43,13.43,0,1,1,458.45,50,13.45,13.45,0,0,1,445,63.41Zm0-20.69A7.27,7.27,0,1,0,452.28,50,7.27,7.27,0,0,0,445,42.72Z"/><line class="cq" x1="4" y1="246" x2="624" y2="246"/></svg>