<svg xmlns="http://www.w3.org/2000/svg" xmlns:xlink="http://www.w3.org/1999/xlink" version="1.1" class="marks" width="638" height="354" viewBox="0 0 638 354"><rect width="638" height="354" fill="white"/><g fill="none" stroke-miterlimit="10" transform="translate(64,10)"><g class="mark-group role-frame root" role="graphics-object" aria-roledescription="group mark container"><g transform="translate(0,0)"><path class="background" aria-hidden="true" d="M0.5,0.5h510.00000000000006v300h-510.00000000000006Z" stroke="#ddd"/><g><g class="mark-group role-axis" aria-hidden="true"><g transform="translate(0.5,0.5)"><path class="background" aria-hidden="true" d="M0,0h0v0h0Z" pointer-events="none"/><g><g class="mark-rule role-axis-grid" pointer-events="none"><line transform="translate(0,300)" x2="510.00000000000006" y2="0" stroke="#ddd" stroke-width="1" opacity="1"/><line transform="translate(0,275)" x2="510.00000000000006" y2="0" stroke="#ddd" stroke-width="1" opacity="1"/><line transform="translate(0,250)" x2="510.00000000000006" y2="0" stroke="#ddd" stroke-width="1" opacity="1"/><line transform="translate(0,225)" x2="510.00000000000006" y2="0" stroke="#ddd" stroke-width="1" opacity="1"/><line transform="translate(0,200)" x2="510.00000000000006" y2="0" stroke="#ddd" stroke-width="1" opacity="1"/><line transform="translate(0,175)" x2="510.00000000000006" y2="0" stroke="#ddd" stroke-width="1" opacity="1"/><line transform="translate(0,150)" x2="510.00000000000006" y2="0" stroke="#ddd" stroke-width="1" opacity="1"/><line transform="translate(0,125)" x2="510.00000000000006" y2="0" stroke="#ddd" stroke-width="1" opacity="1"/><line transform="translate(0,100)" x2="510.00000000000006" y2="0" stroke="#ddd" stroke-width="1" opacity="1"/><line transform="translate(0,75)" x2="510.00000000000006" y2="0" stroke="#ddd" stroke-width="1" opacity="1"/><line transform="translate(0,50)" x2="510.00000000000006" y2="0" stroke="#ddd" stroke-width="1" opacity="1"/><line transform="translate(0,25)" x2="510.00000000000006" y2="0" stroke="#ddd" stroke-width="1" opacity="1"/><line transform="translate(0,0)" x2="510.00000000000006" y2="0" stroke="#ddd" stroke-width="1" opacity="1"/></g></g><path class="foreground" aria-hidden="true" d="" pointer-events="none" display="none"/></g></g><g class="mark-group role-axis" role="graphics-symbol" aria-roledescription="axis" aria-label="X-axis titled 'chunk size' for a discrete scale with 10 values: 1, 2, 4, 8, 16, ending with 384"><g transform="translate(0.5,300.5)"><path class="background" aria-hidden="true" d="M0,0h0v0h0Z" pointer-events="none"/><g><g class="mark-rule role-axis-tick" pointer-events="none"><line transform="translate(30,0)" x2="0" y2="5" stroke="#888" stroke-width="1" opacity="1"/><line transform="translate(80,0)" x2="0" y2="5" stroke="#888" stroke-width="1" opacity="1"/><line transform="translate(130,0)" x2="0" y2="5" stroke="#888" stroke-width="1" opacity="1"/><line transform="translate(180,0)" x2="0" y2="5" stroke="#888" stroke-width="1" opacity="1"/><line transform="translate(230,0)" x2="0" y2="5" stroke="#888" stroke-width="1" opacity="1"/><line transform="translate(280,0)" x2="0" y2="5" stroke="#888" stroke-width="1" opacity="1"/><line transform="translate(330,0)" x2="0" y2="5" stroke="#888" stroke-width="1" opacity="1"/><line transform="translate(380,0)" x2="0" y2="5" stroke="#888" stroke-width="1" opacity="1"/><line transform="translate(430,0)" x2="0" y2="5" stroke="#888" stroke-width="1" opacity="1"/><line transform="translate(480,0)" x2="0" y2="5" stroke="#888" stroke-width="1" opacity="1"/></g><g class="mark-text role-axis-label" pointer-events="none"><text text-anchor="end" transform="translate(29.5,7) rotate(270) translate(0,3)" font-family="sans-serif" font-size="10px" fill="#000" opacity="1">1</text><text text-anchor="end" transform="translate(79.5,7) rotate(270) translate(0,3)" font-family="sans-serif" font-size="10px" fill="#000" opacity="1">2</text><text text-anchor="end" transform="translate(129.5,7) rotate(270) translate(0,3)" font-family="sans-serif" font-size="10px" fill="#000" opacity="1">4</text><text text-anchor="end" transform="translate(179.5,7) rotate(270) translate(0,3)" font-family="sans-serif" font-size="10px" fill="#000" opacity="1">8</text><text text-anchor="end" transform="translate(229.5,7) rotate(270) translate(0,3)" font-family="sans-serif" font-size="10px" fill="#000" opacity="1">16</text><text text-anchor="end" transform="translate(279.5,7) rotate(270) translate(0,3)" font-family="sans-serif" font-size="10px" fill="#000" opacity="1">32</text><text text-anchor="end" transform="translate(329.5,7) rotate(270) translate(0,3)" font-family="sans-serif" font-size="10px" fill="#000" opacity="1">64</text><text text-anchor="end" transform="translate(379.5,7) rotate(270) translate(0,3)" font-family="sans-serif" font-size="10px" fill="#000" opacity="1">128</text><text text-anchor="end" transform="translate(429.5,7) rotate(270) translate(0,3)" font-family="sans-serif" font-size="10px" fill="#000" opacity="1">256</text><text text-anchor="end" transform="translate(479.5,7) rotate(270) translate(0,3)" font-family="sans-serif" font-size="10px" fill="#000" opacity="1">384</text></g><g class="mark-rule role-axis-domain" pointer-events="none"><line transform="translate(0,0)" x2="510.00000000000006" y2="0" stroke="#888" stroke-width="1" opacity="1"/></g><g class="mark-text role-axis-title" pointer-events="none"><text text-anchor="middle" transform="translate(255.00000000000003,36.70000076293945)" font-family="sans-serif" font-size="11px" font-weight="bold" fill="#000" opacity="1">chunk size</text></g></g><path class="foreground" aria-hidden="true" d="" pointer-events="none" display="none"/></g></g><g class="mark-group role-axis" role="graphics-symbol" aria-roledescription="axis" aria-label="Y-axis titled 'consuming rate (msg/s)' for a linear scale with values from 0 to 240,000"><g transform="translate(0.5,0.5)"><path class="background" aria-hidden="true" d="M0,0h0v0h0Z" pointer-events="none"/><g><g class="mark-rule role-axis-tick" pointer-events="none"><line transform="translate(0,300)" x2="-5" y2="0" stroke="#888" stroke-width="1" opacity="1"/><line transform="translate(0,275)" x2="-5" y2="0" stroke="#888" stroke-width="1" opacity="1"/><line transform="translate(0,250)" x2="-5" y2="0" stroke="#888" stroke-width="1" opacity="1"/><line transform="translate(0,225)" x2="-5" y2="0" stroke="#888" stroke-width="1" opacity="1"/><line transform="translate(0,200)" x2="-5" y2="0" stroke="#888" stroke-width="1" opacity="1"/><line transform="translate(0,175)" x2="-5" y2="0" stroke="#888" stroke-width="1" opacity="1"/><line transform="translate(0,150)" x2="-5" y2="0" stroke="#888" stroke-width="1" opacity="1"/><line transform="translate(0,125)" x2="-5" y2="0" stroke="#888" stroke-width="1" opacity="1"/><line transform="translate(0,100)" x2="-5" y2="0" stroke="#888" stroke-width="1" opacity="1"/><line transform="translate(0,75)" x2="-5" y2="0" stroke="#888" stroke-width="1" opacity="1"/><line transform="translate(0,50)" x2="-5" y2="0" stroke="#888" stroke-width="1" opacity="1"/><line transform="translate(0,25)" x2="-5" y2="0" stroke="#888" stroke-width="1" opacity="1"/><line transform="translate(0,0)" x2="-5" y2="0" stroke="#888" stroke-width="1" opacity="1"/></g><g class="mark-text role-axis-label" pointer-events="none"><text text-anchor="end" transform="translate(-7,303)" font-family="sans-serif" font-size="10px" fill="#000" opacity="1">0</text><text text-anchor="end" transform="translate(-7,278)" font-family="sans-serif" font-size="10px" fill="#000" opacity="1">20,000</text><text text-anchor="end" transform="translate(-7,253)" font-family="sans-serif" font-size="10px" fill="#000" opacity="1">40,000</text><text text-anchor="end" transform="translate(-7,228)" font-family="sans-serif" font-size="10px" fill="#000" opacity="1">60,000</text><text text-anchor="end" transform="translate(-7,203.00000000000003)" font-family="sans-serif" font-size="10px" fill="#000" opacity="1">80,000</text><text text-anchor="end" transform="translate(-7,177.99999999999997)" font-family="sans-serif" font-size="10px" fill="#000" opacity="1">100,000</text><text text-anchor="end" transform="translate(-7,153)" font-family="sans-serif" font-size="10px" fill="#000" opacity="1">120,000</text><text text-anchor="end" transform="translate(-7,127.99999999999999)" font-family="sans-serif" font-size="10px" fill="#000" opacity="1">140,000</text><text text-anchor="end" transform="translate(-7,103.00000000000001)" font-family="sans-serif" font-size="10px" fill="#000" opacity="1">160,000</text><text text-anchor="end" transform="translate(-7,78)" font-family="sans-serif" font-size="10px" fill="#000" opacity="1">180,000</text><text text-anchor="end" transform="translate(-7,52.999999999999986)" font-family="sans-serif" font-size="10px" fill="#000" opacity="1">200,000</text><text text-anchor="end" transform="translate(-7,28.00000000000001)" font-family="sans-serif" font-size="10px" fill="#000" opacity="1">220,000</text><text text-anchor="end" transform="translate(-7,3)" font-family="sans-serif" font-size="10px" fill="#000" opacity="1">240,000</text></g><g class="mark-rule role-axis-domain" pointer-events="none"><line transform="translate(0,300)" x2="0" y2="-300" stroke="#888" stroke-width="1" opacity="1"/></g><g class="mark-text role-axis-title" pointer-events="none"><text text-anchor="middle" transform="translate(-47.16666793823242,150) rotate(-90) translate(0,-2)" font-family="sans-serif" font-size="11px" font-weight="bold" fill="#000" opacity="1">consuming rate (msg/s)</text></g></g><path class="foreground" aria-hidden="true" d="" pointer-events="none" display="none"/></g></g><g class="mark-rect role-mark marks" role="graphics-object" aria-roledescription="rect mark container"><path aria-label="chunk size: 1; consuming rate (msg/s): 21068; version: 4.1.4; consuming rate: NaN" role="graphics-symbol" aria-roledescription="bar" d="M10,273.665h20v26.33499999999998h-20Z" fill="#4c78a8"/><path aria-label="chunk size: 128; consuming rate (msg/s): 83484; version: 4.1.4; consuming rate: NaN" role="graphics-symbol" aria-roledescription="bar" d="M360,195.645h20v104.35499999999999h-20Z" fill="#4c78a8"/><path aria-label="chunk size: 16; consuming rate (msg/s): 82674; version: 4.1.4; consuming rate: NaN" role="graphics-symbol" aria-roledescription="bar" d="M210,196.6575h20v103.3425h-20Z" fill="#4c78a8"/><path aria-label="chunk size: 2; consuming rate (msg/s): 40177; version: 4.1.4; consuming rate: NaN" role="graphics-symbol" aria-roledescription="bar" d="M60,249.77875h20v50.22125h-20Z" fill="#4c78a8"/><path aria-label="chunk size: 256; consuming rate (msg/s): 84669; version: 4.1.4; consuming rate: NaN" role="graphics-symbol" aria-roledescription="bar" d="M410,194.16375h20v105.83625h-20Z" fill="#4c78a8"/><path aria-label="chunk size: 32; consuming rate (msg/s): 76240; version: 4.1.4; consuming rate: NaN" role="graphics-symbol" aria-roledescription="bar" d="M260,204.70000000000002h20v95.29999999999998h-20Z" fill="#4c78a8"/><path aria-label="chunk size: 384; consuming rate (msg/s): 90661; version: 4.1.4; consuming rate: NaN" role="graphics-symbol" aria-roledescription="bar" d="M460,186.67375h20v113.32624999999999h-20Z" fill="#4c78a8"/><path aria-label="chunk size: 4; consuming rate (msg/s): 55374; version: 4.1.4; consuming rate: NaN" role="graphics-symbol" aria-roledescription="bar" d="M110,230.78249999999997h20v69.21750000000003h-20Z" fill="#4c78a8"/><path aria-label="chunk size: 64; consuming rate (msg/s): 83824; version: 4.1.4; consuming rate: NaN" role="graphics-symbol" aria-roledescription="bar" d="M310,195.22000000000003h20v104.77999999999997h-20Z" fill="#4c78a8"/><path aria-label="chunk size: 8; consuming rate (msg/s): 73572; version: 4.1.4; consuming rate: NaN" role="graphics-symbol" aria-roledescription="bar" d="M160,208.035h20v91.965h-20Z" fill="#4c78a8"/><path aria-label="chunk size: 1; consuming rate (msg/s): 198859; version: 4.2.0; consuming rate: NaN" role="graphics-symbol" aria-roledescription="bar" d="M30,51.42625000000001h20v248.57375h-20Z" fill="#f58518"/><path aria-label="chunk size: 128; consuming rate (msg/s): 225275; version: 4.2.0; consuming rate: NaN" role="graphics-symbol" aria-roledescription="bar" d="M380,18.406250000000014h20v281.59375h-20Z" fill="#f58518"/><path aria-label="chunk size: 16; consuming rate (msg/s): 172850; version: 4.2.0; consuming rate: NaN" role="graphics-symbol" aria-roledescription="bar" d="M230,83.9375h20v216.0625h-20Z" fill="#f58518"/><path aria-label="chunk size: 2; consuming rate (msg/s): 213174; version: 4.2.0; consuming rate: NaN" role="graphics-symbol" aria-roledescription="bar" d="M80,33.532499999999985h20v266.46750000000003h-20Z" fill="#f58518"/><path aria-label="chunk size: 256; consuming rate (msg/s): 176201; version: 4.2.0; consuming rate: NaN" role="graphics-symbol" aria-roledescription="bar" d="M430,79.74875h20v220.25125h-20Z" fill="#f58518"/><path aria-label="chunk size: 32; consuming rate (msg/s): 172721; version: 4.2.0; consuming rate: NaN" role="graphics-symbol" aria-roledescription="bar" d="M280,84.09875h20v215.90125h-20Z" fill="#f58518"/><path aria-label="chunk size: 384; consuming rate (msg/s): 195784; version: 4.2.0; consuming rate: NaN" role="graphics-symbol" aria-roledescription="bar" d="M480,55.27000000000001h20v244.73h-20Z" fill="#f58518"/><path aria-label="chunk size: 4; consuming rate (msg/s): 188406; version: 4.2.0; consuming rate: NaN" role="graphics-symbol" aria-roledescription="bar" d="M130,64.4925h20v235.5075h-20Z" fill="#f58518"/><path aria-label="chunk size: 64; consuming rate (msg/s): 227773; version: 4.2.0; consuming rate: NaN" role="graphics-symbol" aria-roledescription="bar" d="M330,15.283750000000007h20v284.71625h-20Z" fill="#f58518"/><path aria-label="chunk size: 8; consuming rate (msg/s): 163212; version: 4.2.0; consuming rate: NaN" role="graphics-symbol" aria-roledescription="bar" d="M180,95.98499999999999h20v204.01500000000001h-20Z" fill="#f58518"/></g><g class="mark-group role-legend" role="graphics-symbol" aria-roledescription="legend" aria-label="Symbol legend titled 'version' for fill color with 2 values: 4.1.4, 4.2.0"><g transform="translate(529,0)"><path class="background" aria-hidden="true" d="M0,0h40v40h-40Z" pointer-events="none"/><g><g class="mark-group role-legend-entry"><g transform="translate(0,16)"><path class="background" aria-hidden="true" d="M0,0h0v0h0Z" pointer-events="none"/><g><g class="mark-group role-scope" role="graphics-object" aria-roledescription="group mark container"><g transform="translate(0,0)"><path class="background" aria-hidden="true" d="M0,0h38.233333587646484v11h-38.233333587646484Z" pointer-events="none" opacity="1"/><g><g class="mark-symbol role-legend-symbol" pointer-events="none"><path transform="translate(6,6)" d="M-5,-5h10v10h-10Z" fill="#4c78a8" stroke-width="1.5" opacity="1"/></g><g class="mark-text role-legend-label" pointer-events="none"><text text-anchor="start" transform="translate(16,9)" font-family="sans-serif" font-size="10px" fill="#000" opacity="1">4.1.4</text></g></g><path class="foreground" aria-hidden="true" d="" pointer-events="none" display="none"/></g><g transform="translate(0,13)"><path class="background" aria-hidden="true" d="M0,0h38.233333587646484v11h-38.233333587646484Z" pointer-events="none" opacity="1"/><g><g class="mark-symbol role-legend-symbol" pointer-events="none"><path transform="translate(6,6)" d="M-5,-5h10v10h-10Z" fill="#f58518" stroke-width="1.5" opacity="1"/></g><g class="mark-text role-legend-label" pointer-events="none"><text text-anchor="start" transform="translate(16,9)" font-family="sans-serif" font-size="10px" fill="#000" opacity="1">4.2.0</text></g></g><path class="foreground" aria-hidden="true" d="" pointer-events="none" display="none"/></g></g></g><path class="foreground" aria-hidden="true" d="" pointer-events="none" display="none"/></g></g><g class="mark-text role-legend-title" pointer-events="none"><text text-anchor="start" transform="translate(0,9)" font-family="sans-serif" font-size="11px" font-weight="bold" fill="#000" opacity="1">version</text></g></g><path class="foreground" aria-hidden="true" d="" pointer-events="none" display="none"/></g></g></g><path class="foreground" aria-hidden="true" d="" display="none"/></g></g></g></svg>