<?xml version="1.0" encoding="UTF-8" standalone="no"?>
<!-- Created with Inkscape (http://www.inkscape.org/) -->

<svg
   width="195mm"
   height="60mm"
   viewBox="0 0 194.99999 60"
   version="1.1"
   id="svg1"
   inkscape:version="1.3.2 (091e20ef0f, 2023-11-25)"
   sodipodi:docname="metadata-store-role.svg"
   xml:space="preserve"
   xmlns:inkscape="http://www.inkscape.org/namespaces/inkscape"
   xmlns:sodipodi="http://sodipodi.sourceforge.net/DTD/sodipodi-0.dtd"
   xmlns="http://www.w3.org/2000/svg"
   xmlns:svg="http://www.w3.org/2000/svg"><sodipodi:namedview
     id="namedview1"
     pagecolor="#ffffff"
     bordercolor="#666666"
     borderopacity="1.0"
     inkscape:showpageshadow="2"
     inkscape:pageopacity="0.0"
     inkscape:pagecheckerboard="0"
     inkscape:deskcolor="#d1d1d1"
     inkscape:document-units="px"
     inkscape:zoom="2.8881126"
     inkscape:cx="446.13912"
     inkscape:cy="23.717912"
     inkscape:window-width="1916"
     inkscape:window-height="1029"
     inkscape:window-x="0"
     inkscape:window-y="0"
     inkscape:window-maximized="0"
     inkscape:current-layer="layer1"
     showgrid="false"
     showguides="true" /><defs
     id="defs1" /><g
     inkscape:label="Layer 1"
     inkscape:groupmode="layer"
     id="layer1"
     transform="translate(-37.333735,-133.2555)"><text
       xml:space="preserve"
       style="font-style:normal;font-variant:normal;font-weight:normal;font-stretch:normal;font-size:4.23333px;line-height:1.25;font-family:Raleway;-inkscape-font-specification:'Raleway, @wght=400';font-variant-ligatures:normal;font-variant-caps:normal;font-variant-numeric:normal;font-variant-east-asian:normal;font-variation-settings:'wght' 400;text-align:center;letter-spacing:0px;text-anchor:middle;fill:#000000;fill-opacity:1;stroke-width:0.264583"
       x="202.79694"
       y="174.95424"
       id="text12"><tspan
         sodipodi:role="line"
         style="font-style:normal;font-variant:normal;font-weight:normal;font-stretch:normal;font-size:4.23333px;font-family:Raleway;-inkscape-font-specification:'Raleway, @wght=400';font-variant-ligatures:normal;font-variant-caps:normal;font-variant-numeric:normal;font-variant-east-asian:normal;font-variation-settings:'wght' 400;text-align:center;text-anchor:middle;fill:#000000;fill-opacity:1;stroke-width:0.264583"
         x="202.79694"
         y="174.95424"
         id="tspan12">Runtime parameters</tspan></text><g
       style="fill:none;stroke:#000000"
       id="g11"
       transform="matrix(0.49308712,0,0,0.49308712,196.98996,155.17991)"><path
         d="m 12,15 c 1.6569,0 3,-1.3431 3,-3 0,-1.6569 -1.3431,-3 -3,-3 -1.6569,0 -3,1.3431 -3,3 0,1.6569 1.3431,3 3,3 z"
         stroke-width="2"
         stroke-linecap="round"
         stroke-linejoin="round"
         id="path1-0"
         stroke="#000000"
         style="stroke:#000000" /><path
         d="m 18.7273,14.7273 c -0.121,0.2742 -0.1571,0.5783 -0.1037,0.8732 0.0535,0.2949 0.1941,0.5671 0.4037,0.7813 l 0.0545,0.0546 c 0.1691,0.1688 0.3032,0.3693 0.3947,0.5901 0.0915,0.2207 0.1386,0.4573 0.1386,0.6962 0,0.239 -0.0471,0.4756 -0.1386,0.6963 -0.0915,0.2207 -0.2256,0.4212 -0.3947,0.5901 -0.1688,0.169 -0.3694,0.3031 -0.5901,0.3946 -0.2207,0.0915 -0.4573,0.1386 -0.6962,0.1386 -0.239,0 -0.4756,-0.0471 -0.6963,-0.1386 -0.2207,-0.0915 -0.4212,-0.2256 -0.5901,-0.3946 L 16.4545,18.9545 C 16.2403,18.745 15.9682,18.6044 15.6733,18.5509 15.3784,18.4974 15.0742,18.5335 14.8,18.6545 c -0.2689,0.1153 -0.4982,0.3066 -0.6597,0.5505 -0.1615,0.2439 -0.2482,0.5297 -0.2494,0.8223 v 0.1545 c 0,0.4822 -0.1915,0.9447 -0.5325,1.2857 C 13.0174,21.8084 12.5549,22 12.0727,22 11.5905,22 11.1281,21.8084 10.7871,21.4675 10.4461,21.1265 10.2545,20.664 10.2545,20.1818 V 20.1 C 10.2475,19.7991 10.1501,19.5073 9.97501,19.2625 9.79991,19.0176 9.55521,18.8312 9.27273,18.7273 8.99853,18.6063 8.69437,18.5702 8.39947,18.6236 8.10456,18.6771 7.83244,18.8177 7.61818,19.0273 L 7.56364,19.0818 C 7.39478,19.2509 7.19425,19.385 6.97353,19.4765 6.7528,19.568 6.51621,19.6151 6.27727,19.6151 6.03834,19.6151 5.80174,19.568 5.58102,19.4765 5.36029,19.385 5.15977,19.2509 4.99091,19.0818 4.82186,18.913 4.68775,18.7124 4.59626,18.4917 4.50476,18.271 4.45766,18.0344 4.45766,17.7955 c 0,-0.239 0.0471,-0.4756 0.1386,-0.6963 0.09149,-0.2207 0.2256,-0.4212 0.39465,-0.5901 L 5.04545,16.4545 C 5.25503,16.2403 5.39562,15.9682 5.4491,15.6733 5.50257,15.3784 5.46647,15.0742 5.34545,14.8 5.23022,14.5311 5.03887,14.3018 4.79497,14.1403 4.55107,13.9788 4.26526,13.8921 3.97273,13.8909 H 3.81818 c -0.48221,0 -0.94467,-0.1915 -1.28565,-0.5325 C 2.19156,13.0174 2,12.5549 2,12.0727 2,11.5905 2.19156,11.1281 2.53253,10.7871 2.87351,10.4461 3.33597,10.2545 3.81818,10.2545 H 3.9 C 4.2009,10.2475 4.49273,10.1501 4.73754,9.97501 4.98236,9.79991 5.16883,9.55521 5.27273,9.27273 5.39374,8.99853 5.42984,8.69437 5.37637,8.39947 5.3229,8.10456 5.18231,7.83244 4.97273,7.61818 L 4.91818,7.56364 C 4.74913,7.39478 4.61503,7.19425 4.52353,6.97353 4.43203,6.7528 4.38493,6.51621 4.38493,6.27727 c 0,-0.23893 0.0471,-0.47553 0.1386,-0.69625 0.0915,-0.22073 0.2256,-0.42125 0.39465,-0.59011 0.16886,-0.16905 0.36939,-0.30316 0.59011,-0.39465 0.22072,-0.0915 0.45732,-0.1386 0.69626,-0.1386 0.23893,0 0.47553,0.0471 0.69625,0.1386 0.22072,0.09149 0.42125,0.2256 0.59011,0.39465 L 7.54545,5.04545 C 7.75971,5.25503 8.03183,5.39562 8.32674,5.4491 8.62164,5.50257 8.9258,5.46647 9.2,5.34545 H 9.27273 C 9.54161,5.23022 9.77093,5.03887 9.93245,4.79497 10.094,4.55107 10.1807,4.26526 10.1818,3.97273 V 3.81818 c 0,-0.48221 0.1916,-0.94467 0.5326,-1.28565 C 11.0553,2.19156 11.5178,2 12,2 c 0.4822,0 0.9447,0.19156 1.2856,0.53253 0.341,0.34098 0.5326,0.80344 0.5326,1.28565 V 3.9 c 0.0011,0.29253 0.0878,0.57834 0.2494,0.82224 0.1615,0.2439 0.3908,0.43525 0.6597,0.55049 0.2742,0.12101 0.5783,0.15711 0.8732,0.10364 0.2949,-0.05347 0.5671,-0.19406 0.7813,-0.40364 l 0.0546,-0.05455 c 0.1688,-0.16905 0.3693,-0.30315 0.5901,-0.39465 0.2207,-0.0915 0.4573,-0.1386 0.6962,-0.1386 0.239,0 0.4756,0.0471 0.6963,0.1386 0.2207,0.0915 0.4212,0.2256 0.5901,0.39465 0.169,0.16886 0.3031,0.36939 0.3946,0.59011 0.0915,0.22072 0.1386,0.45732 0.1386,0.69626 0,0.23893 -0.0471,0.47553 -0.1386,0.69625 -0.0915,0.22072 -0.2256,0.42125 -0.3946,0.59011 L 18.9545,7.54545 C 18.745,7.75971 18.6044,8.03183 18.5509,8.32674 18.4974,8.62164 18.5335,8.9258 18.6545,9.2 v 0.07273 c 0.1153,0.26888 0.3066,0.4982 0.5505,0.65972 0.2439,0.16155 0.5297,0.24825 0.8223,0.24935 h 0.1545 c 0.4822,0 0.9447,0.1916 1.2857,0.5326 C 21.8084,11.0553 22,11.5178 22,12 c 0,0.4822 -0.1916,0.9447 -0.5325,1.2856 -0.341,0.341 -0.8035,0.5326 -1.2857,0.5326 H 20.1 c -0.2925,0.0011 -0.5783,0.0878 -0.8222,0.2494 -0.2439,0.1615 -0.4353,0.3908 -0.5505,0.6597 z"
         stroke-width="2"
         stroke-linecap="round"
         stroke-linejoin="round"
         id="path2"
         stroke="#000000"
         style="stroke:#000000" /></g><text
       xml:space="preserve"
       style="font-style:normal;font-variant:normal;font-weight:normal;font-stretch:normal;font-size:4.23333px;line-height:1.25;font-family:Raleway;-inkscape-font-specification:'Raleway, @wght=400';font-variant-ligatures:normal;font-variant-caps:normal;font-variant-numeric:normal;font-variant-east-asian:normal;font-variation-settings:'wght' 400;text-align:center;letter-spacing:0px;text-anchor:middle;fill:#000000;fill-opacity:1;stroke-width:0.264583"
       x="164.93829"
       y="174.95424"
       id="text6-5"
       transform="translate(9.1964554e-7)"><tspan
         sodipodi:role="line"
         style="font-style:normal;font-variant:normal;font-weight:normal;font-stretch:normal;font-size:4.23333px;font-family:Raleway;-inkscape-font-specification:'Raleway, @wght=400';font-variant-ligatures:normal;font-variant-caps:normal;font-variant-numeric:normal;font-variant-east-asian:normal;font-variation-settings:'wght' 400;text-align:center;text-anchor:middle;fill:#000000;fill-opacity:1;stroke-width:0.264583"
         x="164.93829"
         y="174.95424"
         id="tspan7">Topology</tspan></text><path
       d="m 167.64393,165.43613 h -0.10848 c -0.91133,0 -1.36695,0 -1.71506,-0.17737 -0.30618,-0.15599 -0.55508,-0.4049 -0.71108,-0.71108 -0.17736,-0.34811 -0.17736,-0.80372 -0.17736,-1.71505 v -3.47134 c 0,-0.91131 0,-1.36696 0.17736,-1.71504 0.156,-0.30617 0.4049,-0.5551 0.71108,-0.7111 0.34811,-0.17736 0.80373,-0.17736 1.71506,-0.17736 h 0.10848 m 0,8.67834 c 0,0.59913 0.48566,1.08479 1.08479,1.08479 0.59913,0 1.08479,-0.48566 1.08479,-1.08479 0,-0.59913 -0.48566,-1.0848 -1.08479,-1.0848 -0.59913,0 -1.08479,0.48567 -1.08479,1.0848 z m 0,-8.67834 c 0,0.59912 0.48566,1.08479 1.08479,1.08479 0.59913,0 1.08479,-0.48567 1.08479,-1.08479 0,-0.59911 -0.48566,-1.08479 -1.08479,-1.08479 -0.59913,0 -1.08479,0.48568 -1.08479,1.08479 z m -5.42396,4.33917 h 5.42396 m -5.42396,0 c 0,0.59913 -0.48568,1.08479 -1.08479,1.08479 -0.59912,0 -1.08479,-0.48566 -1.08479,-1.08479 0,-0.59913 0.48567,-1.08479 1.08479,-1.08479 0.59911,0 1.08479,0.48566 1.08479,1.08479 z m 5.42396,0 c 0,0.59913 0.48566,1.08479 1.08479,1.08479 0.59913,0 1.08479,-0.48566 1.08479,-1.08479 0,-0.59913 -0.48566,-1.08479 -1.08479,-1.08479 -0.59913,0 -1.08479,0.48566 -1.08479,1.08479 z"
       stroke-width="1.08479"
       stroke-linecap="round"
       stroke-linejoin="round"
       id="path1"
       stroke="#000000"
       style="fill:none;stroke:#000000"
       transform="translate(9.1964554e-7)" /><text
       xml:space="preserve"
       style="font-style:normal;font-variant:normal;font-weight:normal;font-stretch:normal;font-size:4.23333px;line-height:1.25;font-family:Raleway;-inkscape-font-specification:'Raleway, @wght=400';font-variant-ligatures:normal;font-variant-caps:normal;font-variant-numeric:normal;font-variant-east-asian:normal;font-variation-settings:'wght' 400;text-align:center;letter-spacing:0px;text-anchor:middle;fill:#000000;fill-opacity:1;stroke-width:0.264583"
       x="127.0077"
       y="174.95424"
       id="text6-5-4"
       transform="translate(9.1964554e-7)"><tspan
         sodipodi:role="line"
         style="font-style:normal;font-variant:normal;font-weight:normal;font-stretch:normal;font-size:4.23333px;font-family:Raleway;-inkscape-font-specification:'Raleway, @wght=400';font-variant-ligatures:normal;font-variant-caps:normal;font-variant-numeric:normal;font-variant-east-asian:normal;font-variation-settings:'wght' 400;text-align:center;text-anchor:middle;fill:#000000;fill-opacity:1;stroke-width:0.264583"
         x="127.0077"
         y="174.95424"
         id="tspan7-6">Virtual hosts</tspan></text><path
       d="m 123.999,158.13906 h 0.005 m -0.005,5.91579 h 0.005 m -0.39931,-3.94386 h 6.70456 c 0.55219,0 0.82831,0 1.03921,-0.10746 0.18551,-0.0945 0.33636,-0.24536 0.43086,-0.43088 0.10747,-0.21091 0.10747,-0.487 0.10747,-1.0392 v -0.78877 c 0,-0.55219 0,-0.82829 -0.10747,-1.0392 -0.0945,-0.18552 -0.24535,-0.33636 -0.43086,-0.43088 -0.2109,-0.10747 -0.48702,-0.10747 -1.03921,-0.10747 h -6.70456 c -0.5522,0 -0.82829,0 -1.0392,0.10747 -0.18552,0.0945 -0.33636,0.24536 -0.43088,0.43088 -0.10747,0.21091 -0.10747,0.487 -0.10747,1.0392 v 0.78877 c 0,0.5522 0,0.82829 0.10747,1.0392 0.0945,0.18552 0.24536,0.33635 0.43088,0.43088 0.21091,0.10746 0.48701,0.10746 1.0392,0.10746 z m 0,5.91579 h 6.70456 c 0.55219,0 0.82831,0 1.03921,-0.10747 0.18551,-0.0945 0.33636,-0.24535 0.43086,-0.43086 0.10747,-0.2109 0.10747,-0.48702 0.10747,-1.03921 v -0.78877 c 0,-0.55219 0,-0.82831 -0.10747,-1.03921 -0.0945,-0.18551 -0.24535,-0.33636 -0.43086,-0.43087 -0.2109,-0.10747 -0.48702,-0.10747 -1.03921,-0.10747 h -6.70456 c -0.5522,0 -0.82829,0 -1.0392,0.10747 -0.18552,0.0945 -0.33636,0.24536 -0.43088,0.43087 -0.10747,0.2109 -0.10747,0.48702 -0.10747,1.03921 v 0.78877 c 0,0.55219 0,0.82831 0.10747,1.03921 0.0945,0.18551 0.24536,0.33636 0.43088,0.43086 0.21091,0.10747 0.48701,0.10747 1.0392,0.10747 z"
       stroke-width="0.985965"
       stroke-linecap="round"
       stroke-linejoin="round"
       id="path1-2"
       stroke="#000000"
       style="fill:none;stroke:#000000"
       transform="translate(9.1964554e-7)" /><text
       xml:space="preserve"
       style="font-style:normal;font-variant:normal;font-weight:normal;font-stretch:normal;font-size:4.23333px;line-height:1.25;font-family:Raleway;-inkscape-font-specification:'Raleway, @wght=400';font-variant-ligatures:normal;font-variant-caps:normal;font-variant-numeric:normal;font-variant-east-asian:normal;font-variation-settings:'wght' 400;text-align:center;letter-spacing:0px;text-anchor:middle;fill:#000000;fill-opacity:1;stroke-width:0.264583"
       x="88.87178"
       y="174.95424"
       id="text6-5-9"
       transform="translate(9.1964554e-7)"><tspan
         sodipodi:role="line"
         style="font-style:normal;font-variant:normal;font-weight:normal;font-stretch:normal;font-size:4.23333px;font-family:Raleway;-inkscape-font-specification:'Raleway, @wght=400';font-variant-ligatures:normal;font-variant-caps:normal;font-variant-numeric:normal;font-variant-east-asian:normal;font-variation-settings:'wght' 400;text-align:center;text-anchor:middle;fill:#000000;fill-opacity:1;stroke-width:0.264583"
         x="88.87178"
         y="174.95424"
         id="tspan22">Internal users</tspan></text><path
       d="m 93.802822,166.52056 c 0,-0.84102 0,-1.26147 -0.103772,-1.60364 -0.233696,-0.77039 -0.836619,-1.37331 -1.607011,-1.60701 -0.342169,-0.10377 -0.762618,-0.10377 -1.603637,-0.10377 h -3.013108 c -0.840995,0 -1.261499,0 -1.603661,0.10377 -0.770398,0.2337 -1.373267,0.83662 -1.606963,1.60701 -0.103796,0.34217 -0.103796,0.76262 -0.103796,1.60364 m 7.532772,-8.1354 c 0,1.49769 -1.214102,2.7118 -2.711798,2.7118 -1.497684,0 -2.711798,-1.21411 -2.711798,-2.7118 0,-1.49768 1.214114,-2.71179 2.711798,-2.71179 1.497696,0 2.711798,1.21411 2.711798,2.71179 z"
       stroke-width="1.20524"
       stroke-linecap="round"
       stroke-linejoin="round"
       id="path1-86"
       stroke="#000000"
       style="fill:none;stroke:#000000"
       transform="translate(9.1964554e-7)" /><text
       xml:space="preserve"
       style="font-style:normal;font-variant:normal;font-weight:normal;font-stretch:normal;font-size:4.23333px;line-height:1.25;font-family:Raleway;-inkscape-font-specification:'Raleway, @wght=400';font-variant-ligatures:normal;font-variant-caps:normal;font-variant-numeric:normal;font-variant-east-asian:normal;font-variation-settings:'wght' 400;text-align:center;letter-spacing:0px;text-anchor:middle;fill:#000000;fill-opacity:1;stroke-width:0.264583"
       x="50.896729"
       y="174.95424"
       id="text6-02-1"
       transform="translate(9.1964554e-7)"><tspan
         sodipodi:role="line"
         id="tspan6-11-1"
         style="font-style:normal;font-variant:normal;font-weight:normal;font-stretch:normal;font-size:4.23333px;font-family:Raleway;-inkscape-font-specification:'Raleway, @wght=400';font-variant-ligatures:normal;font-variant-caps:normal;font-variant-numeric:normal;font-variant-east-asian:normal;font-variation-settings:'wght' 400;text-align:center;text-anchor:middle;fill:#000000;fill-opacity:1;stroke-width:0.264583"
         x="50.896729"
         y="174.95424">Messages</tspan></text><path
       d="m 46.076548,158.63183 4.025499,2.81784 c 0.325988,0.22822 0.488982,0.34231 0.666274,0.38648 0.156585,0.0391 0.320367,0.0391 0.476952,0 0.177292,-0.0442 0.340286,-0.15826 0.666274,-0.38648 l 4.025499,-2.81784 m -7.493979,6.40933 h 5.12746 c 0.82838,0 1.242521,0 1.558944,-0.16122 0.278313,-0.14179 0.504562,-0.36804 0.646356,-0.64636 0.161219,-0.31642 0.161219,-0.73056 0.161219,-1.55894 v -3.15536 c 0,-0.82836 0,-1.24254 -0.161219,-1.55893 -0.141794,-0.27831 -0.368043,-0.50458 -0.646356,-0.64638 -0.316423,-0.16121 -0.730564,-0.16121 -1.558944,-0.16121 h -5.12746 c -0.82836,0 -1.242541,0 -1.55893,0.16121 -0.278307,0.1418 -0.504576,0.36807 -0.64638,0.64638 -0.161209,0.31639 -0.161209,0.73057 -0.161209,1.55893 v 3.15536 c 0,0.82838 0,1.24252 0.161209,1.55894 0.141804,0.27832 0.368073,0.50457 0.64638,0.64636 0.316389,0.16122 0.73057,0.16122 1.55893,0.16122 z"
       stroke-width="0.98605"
       stroke-linecap="round"
       stroke-linejoin="round"
       id="path1-8"
       stroke="#000000"
       style="fill:none;stroke:#000000"
       transform="translate(9.1964554e-7)" /><rect
       style="font-variation-settings:'wght' 400;fill:none;fill-opacity:1;fill-rule:evenodd;stroke:#000000;stroke-width:0.268699;stroke-linejoin:round;stroke-dasharray:1.07479, 0.537398;stroke-dashoffset:0;stroke-opacity:1"
       id="rect20"
       width="157.51302"
       height="46.973965"
       x="70.598801"
       y="141.99547"
       rx="1.0916115"
       ry="1.0582386"
       transform="translate(9.1964554e-7)" /><rect
       style="font-variation-settings:'wght' 500;fill:#73a942;fill-opacity:1;fill-rule:evenodd;stroke:#000000;stroke-width:0.264583;stroke-linejoin:round;stroke-dasharray:none;stroke-opacity:1"
       id="metadata-store-label-bg"
       width="64.894218"
       height="8.2458239"
       x="116.90814"
       y="137.53326"
       rx="1.0583333"
       ry="1.0583333"
       transform="translate(9.1964554e-7)" /><text
       xml:space="preserve"
       style="font-style:normal;font-variant:normal;font-weight:bold;font-stretch:normal;font-size:4.23333px;line-height:1.25;font-family:Raleway;-inkscape-font-specification:'Raleway Bold';font-variant-ligatures:normal;font-variant-caps:normal;font-variant-numeric:normal;font-variant-east-asian:normal;text-align:center;letter-spacing:0px;text-anchor:middle;fill:#000000;fill-opacity:1;stroke-width:0.264583"
       x="149.23036"
       y="143.18018"
       id="text6-0"
       transform="translate(9.1964554e-7)"><tspan
         sodipodi:role="line"
         id="tspan6-1"
         style="font-style:normal;font-variant:normal;font-weight:bold;font-stretch:normal;font-size:4.23333px;font-family:Raleway;-inkscape-font-specification:'Raleway Bold';font-variant-ligatures:normal;font-variant-caps:normal;font-variant-numeric:normal;font-variant-east-asian:normal;text-align:center;text-anchor:middle;fill:#000000;fill-opacity:1;stroke-width:0.264583"
         x="149.23036"
         y="143.18018">Metadata store</tspan></text></g></svg>
