<?xml version="1.0" encoding="UTF-8"?>
<svg width="260px" height="399px" viewBox="0 0 260 399" version="1.1" xmlns="http://www.w3.org/2000/svg" xmlns:xlink="http://www.w3.org/1999/xlink" style="background: #FFFFFF;">
    <!-- Generator: Sketch 49.1 (51147) - http://www.bohemiancoding.com/sketch -->
    <title>hero-iphone_2</title>
    <desc>Created with Sketch.</desc>
    <defs></defs>
    <g id="hero-iphone_2" stroke="none" stroke-width="1" fill="none" fill-rule="evenodd" stroke-linecap="round">
        <path d="M1,398 L259,398" id="Path-11" stroke="#F06823" stroke-width="3"></path>
        <g id="Group-32" transform="translate(82.000000, 306.000000)" fill="#FFFFFF" stroke="#F06823" stroke-linejoin="round" stroke-width="2">
            <path d="M39.4045746,56.8217184 C37.2900168,54.5042891 36,51.418297 36,48.030303 C36,40.8338654 41.8202983,35 49,35 C56.1797017,35 62,40.8338654 62,48.030303 C62,51.3327614 60.7742983,54.3482744 58.7539981,56.644734 C56.2823404,61.4823378 55.0465116,65.1765173 55.0465116,67.7272727 C55.0465116,71.6666667 52.7768136,75 49.139882,75 C45.5029504,75 43.2648386,72.5757576 43.2648386,67.7272727 C43.2648386,64.6436636 41.9780839,61.0084789 39.4045746,56.8217184 Z" id="Combined-Shape"></path>
            <path d="M44,64 L54.7040056,64" id="Path-13"></path>
            <path d="M48,63 L48,52" id="Path-13"></path>
            <circle id="Oval-3" cx="49.5" cy="53.5" r="3.5"></circle>
            <path d="M72.1167445,46 L96.65,46" id="Path-14"></path>
            <path d="M66,34 L83,17" id="Path-15"></path>
            <path d="M1.34111996,46 L27,46" id="Path-14" transform="translate(13.500000, 46.000000) scale(-1, 1) translate(-13.500000, -46.000000) "></path>
            <path d="M13,35 L29,19" id="Path-15" transform="translate(21.000000, 27.000000) scale(-1, 1) translate(-21.000000, -27.000000) "></path>
            <path d="M49.5,24 L49.5,0" id="Path-16"></path>
            <path d="M32.6666667,15.65 L39.3333333,27.35" id="Path-3"></path>
            <path d="M57,15 L64,27" id="Path-3" transform="translate(60.500000, 21.000000) scale(-1, 1) translate(-60.500000, -21.000000) "></path>
        </g>
    </g>
</svg>