<svg version="1.1" viewBox="0.0 0.0 1074.1391076115485 571.7847769028872" fill="none" stroke="none" stroke-linecap="square" stroke-miterlimit="10" xmlns:xlink="http://www.w3.org/1999/xlink" xmlns="http://www.w3.org/2000/svg"><clipPath id="p.0"><path d="m0 0l1074.1392 0l0 571.7848l-1074.1392 0l0 -571.7848z" clip-rule="nonzero"/></clipPath><g clip-path="url(#p.0)"><path fill="#000000" fill-opacity="0.0" d="m0 0l1074.1392 0l0 571.7848l-1074.1392 0z" fill-rule="evenodd"/><path fill="#0091da" d="m43.302784 241.13596l0 0c12.067825 0 21.850727 20.037903 21.850727 44.75589c0 24.718018 -9.782902 44.75592 -21.850727 44.75592l394.34576 0c12.067841 0 21.850739 -20.037903 21.850739 -44.75592c0 -24.717987 -9.782898 -44.75589 -21.850739 -44.75589z" fill-rule="evenodd"/><path fill="#66bde8" d="m43.302784 241.13596l0 0c-12.067823 0 -21.850727 20.037903 -21.850727 44.75589c0 24.718018 9.782904 44.75592 21.850727 44.75592l0 0c12.067825 0 21.850727 -20.037903 21.850727 -44.75592c0 -24.717987 -9.782902 -44.75589 -21.850727 -44.75589z" fill-rule="evenodd"/><path fill="#000000" fill-opacity="0.0" d="m43.302784 330.64777l0 0c12.067825 0 21.850727 -20.037903 21.850727 -44.75592c0 -24.717987 -9.782902 -44.75589 -21.850727 -44.75589l0 0c-12.067823 0 -21.850727 20.037903 -21.850727 44.75589c0 24.718018 9.782904 44.75592 21.850727 44.75592l394.34576 0c12.067841 0 21.850739 -20.037903 21.850739 -44.75592c0 -24.717987 -9.782898 -44.75589 -21.850739 -44.75589l-394.34576 0" fill-rule="evenodd"/><path fill="#0091da" d="m83.37626 280.96298l47.30709 0l0 37.19684l-47.30709 0z" fill-rule="evenodd"/><path stroke="#1a428a" stroke-width="4.0" stroke-linejoin="round" stroke-linecap="butt" d="m83.37626 280.96298l47.30709 0l0 37.19684l-47.30709 0z" fill-rule="evenodd"/><path fill="#ffffff" d="m99.662186 307.0414l0 -15.265625l4.609375 0l2.765625 10.40625l2.734375 -10.40625l4.625 0l0 15.265625l-2.859375 0l0 -12.015625l-3.03125 12.015625l-2.96875 0l-3.015625 -12.015625l0 12.015625l-2.859375 0z" fill-rule="nonzero"/><path fill="#0091da" d="m142.6571 280.96298l47.307083 0l0 37.19684l-47.307083 0z" fill-rule="evenodd"/><path stroke="#1a428a" stroke-width="4.0" stroke-linejoin="round" stroke-linecap="butt" d="m142.6571 280.96298l47.307083 0l0 37.19684l-47.307083 0z" fill-rule="evenodd"/><path fill="#ffffff" d="m158.94302 307.0414l0 -15.265625l4.609375 0l2.765625 10.40625l2.734375 -10.40625l4.625 0l0 15.265625l-2.859375 0l0 -12.015625l-3.03125 12.015625l-2.96875 0l-3.015625 -12.015625l0 12.015625l-2.859375 0z" fill-rule="nonzero"/><path fill="#0091da" d="m201.93794 280.96298l47.307083 0l0 37.19684l-47.307083 0z" fill-rule="evenodd"/><path stroke="#1a428a" stroke-width="4.0" stroke-linejoin="round" stroke-linecap="butt" d="m201.93794 280.96298l47.307083 0l0 37.19684l-47.307083 0z" fill-rule="evenodd"/><path fill="#ffffff" d="m218.22386 307.0414l0 -15.265625l4.609375 0l2.765625 10.40625l2.734375 -10.40625l4.625 0l0 15.265625l-2.859375 0l0 -12.015625l-3.03125 12.015625l-2.96875 0l-3.015625 -12.015625l0 12.015625l-2.859375 0z" fill-rule="nonzero"/><path fill="#0091da" d="m261.21878 280.96298l47.3071 0l0 37.19684l-47.3071 0z" fill-rule="evenodd"/><path stroke="#1a428a" stroke-width="4.0" stroke-linejoin="round" stroke-linecap="butt" d="m261.21878 280.96298l47.3071 0l0 37.19684l-47.3071 0z" fill-rule="evenodd"/><path fill="#ffffff" d="m277.5047 307.0414l0 -15.265625l4.609375 0l2.765625 10.40625l2.734375 -10.40625l4.625 0l0 15.265625l-2.859375 0l0 -12.015625l-3.03125 12.015625l-2.96875 0l-3.015625 -12.015625l0 12.015625l-2.859375 0z" fill-rule="nonzero"/><path fill="#0091da" d="m320.49963 280.96298l47.307068 0l0 37.19684l-47.307068 0z" fill-rule="evenodd"/><path stroke="#1a428a" stroke-width="4.0" stroke-linejoin="round" stroke-linecap="butt" d="m320.49963 280.96298l47.307068 0l0 37.19684l-47.307068 0z" fill-rule="evenodd"/><path fill="#ffffff" d="m336.78555 307.0414l0 -15.265625l4.609375 0l2.765625 10.40625l2.734375 -10.40625l4.625 0l0 15.265625l-2.859375 0l0 -12.015625l-3.03125 12.015625l-2.96875 0l-3.015625 -12.015625l0 12.015625l-2.859375 0z" fill-rule="nonzero"/><path fill="#78be20" d="m95.86414 255.58484l0 0c0 -2.0526276 1.6639786 -3.7165985 3.7166061 -3.7165985l14.897491 0l0 0c0.9857025 0 1.9310379 0.39157104 2.6280365 1.088562c0.6969986 0.6970062 1.0885696 1.642334 1.0885696 2.6280365l0 14.865997c0 2.0526428 -1.6639786 3.7166138 -3.7166061 3.7166138l-14.897491 0c-2.0526276 0 -3.7166061 -1.663971 -3.7166061 -3.7166138z" fill-rule="evenodd"/><path fill="#1a428a" d="m155.1459 255.58493l0 0c0 -2.0526276 1.6639862 -3.7165985 3.7166138 -3.7165985l14.897491 0l0 0c0.9857025 0 1.9310303 0.39157104 2.6280365 1.088562c0.6970062 0.6970062 1.0885773 1.642334 1.0885773 2.6280365l0 14.865997c0 2.0526428 -1.6639862 3.7166138 -3.7166138 3.7166138l-14.897491 0c-2.0526276 0 -3.7166138 -1.663971 -3.7166138 -3.7166138z" fill-rule="evenodd"/><path fill="#7f35b2" d="m214.42622 255.58502l0 0c0 -2.0526276 1.6639862 -3.7165985 3.7166138 -3.7165985l14.897491 0l0 0c0.9857025 0 1.9310455 0.39157104 2.6280365 1.088562c0.6970062 0.6970062 1.0885773 1.642334 1.0885773 2.6280365l0 14.865997c0 2.0526428 -1.6639862 3.7166138 -3.7166138 3.7166138l-14.897491 0c-2.0526276 0 -3.7166138 -1.663971 -3.7166138 -3.7166138z" fill-rule="evenodd"/><path fill="#7f35b2" d="m273.70706 255.58502l0 0c0 -2.0526276 1.6640015 -3.7165985 3.7166138 -3.7165985l14.897491 0l0 0c0.9857178 0 1.9310303 0.39157104 2.6280518 1.088562c0.69699097 0.6970062 1.088562 1.642334 1.088562 2.6280365l0 14.865997c0 2.0526428 -1.663971 3.7166138 -3.7166138 3.7166138l-14.897491 0c-2.0526123 0 -3.7166138 -1.663971 -3.7166138 -3.7166138z" fill-rule="evenodd"/><path fill="#0091da" d="m379.78046 281.27008l47.3071 0l0 37.19684l-47.3071 0z" fill-rule="evenodd"/><path stroke="#1a428a" stroke-width="4.0" stroke-linejoin="round" stroke-linecap="butt" d="m379.78046 281.27008l47.3071 0l0 37.19684l-47.3071 0z" fill-rule="evenodd"/><path fill="#ffffff" d="m396.06638 307.34848l0 -15.265625l4.609375 0l2.765625 10.40625l2.734375 -10.40625l4.625 0l0 15.265625l-2.859375 0l0 -12.015625l-3.03125 12.015625l-2.96875 0l-3.015625 -12.015625l0 12.015625l-2.859375 0z" fill-rule="nonzero"/><path fill="#78be20" d="m332.9875 255.58484l0 0c0 -2.0526276 1.6640015 -3.7165985 3.7166138 -3.7165985l14.897491 0l0 0c0.9857178 0 1.9310608 0.39157104 2.6280518 1.088562c0.69699097 0.6970062 1.088562 1.642334 1.088562 2.6280365l0 14.865997c0 2.0526428 -1.663971 3.7166138 -3.7166138 3.7166138l-14.897491 0c-2.0526123 0 -3.7166138 -1.663971 -3.7166138 -3.7166138z" fill-rule="evenodd"/><path fill="#78be20" d="m392.26834 255.58484l0 0c0 -2.0526276 1.663971 -3.7165985 3.7166138 -3.7165985l14.897491 0l0 0c0.98568726 0 1.9310303 0.39157104 2.6280212 1.088562c0.6970215 0.6970062 1.0885925 1.642334 1.0885925 2.6280365l0 14.865997c0 2.0526428 -1.6640015 3.7166138 -3.7166138 3.7166138l-14.897491 0c-2.0526428 0 -3.7166138 -1.663971 -3.7166138 -3.7166138z" fill-rule="evenodd"/><path fill="#0091da" d="m848.6241 22.616798l204.06293 0l0 107.874016l-204.06293 0z" fill-rule="evenodd"/><path fill="#ffffff" d="m919.5931 78.19505l2.234375 0.71875q-0.515625 1.875 -1.71875 2.796875q-1.1875 0.90625 -3.03125 0.90625q-2.28125 0 -3.75 -1.5625q-1.46875 -1.5625 -1.46875 -4.265625q0 -2.859375 1.46875 -4.4375q1.484375 -1.59375 3.890625 -1.59375q2.09375 0 3.40625 1.25q0.78125 0.734375 1.171875 2.109375l-2.28125 0.546875q-0.203125 -0.890625 -0.859375 -1.40625q-0.640625 -0.515625 -1.5625 -0.515625q-1.265625 0 -2.0625 0.921875q-0.796875 0.90625 -0.796875 2.953125q0 2.171875 0.78125 3.09375q0.78125 0.921875 2.03125 0.921875q0.921875 0 1.578125 -0.578125q0.671875 -0.59375 0.96875 -1.859375zm3.6953125 -0.046875q0 -1.09375 0.53125 -2.109375q0.546875 -1.03125 1.53125 -1.5625q1.0 -0.546875 2.21875 -0.546875q1.875 0 3.078125 1.21875q1.203125 1.21875 1.203125 3.09375q0 1.875 -1.21875 3.125q-1.203125 1.234375 -3.046875 1.234375q-1.140625 0 -2.1875 -0.515625q-1.03125 -0.515625 -1.578125 -1.515625q-0.53125 -1.0 -0.53125 -2.421875zm2.25 0.109375q0 1.234375 0.578125 1.890625q0.59375 0.65625 1.453125 0.65625q0.859375 0 1.4375 -0.65625q0.59375 -0.65625 0.59375 -1.90625q0 -1.21875 -0.59375 -1.875q-0.578125 -0.65625 -1.4375 -0.65625q-0.859375 0 -1.453125 0.65625q-0.578125 0.65625 -0.578125 1.890625zm15.5859375 4.15625l-2.203125 0l0 -4.234375q0 -1.34375 -0.140625 -1.734375q-0.140625 -0.40625 -0.453125 -0.625q-0.3125 -0.21875 -0.765625 -0.21875q-0.5625 0 -1.015625 0.3125q-0.453125 0.3125 -0.625 0.828125q-0.171875 0.515625 -0.171875 1.90625l0 3.765625l-2.1875 0l0 -8.296875l2.03125 0l0 1.21875q1.09375 -1.40625 2.734375 -1.40625q0.734375 0 1.328125 0.265625q0.609375 0.25 0.90625 0.65625q0.3125 0.40625 0.4375 0.921875q0.125 0.515625 0.125 1.484375l0 5.15625zm1.4453125 -2.375l2.203125 -0.328125q0.140625 0.640625 0.5625 0.96875q0.4375 0.328125 1.21875 0.328125q0.84375 0 1.28125 -0.3125q0.28125 -0.21875 0.28125 -0.578125q0 -0.25 -0.15625 -0.421875q-0.15625 -0.15625 -0.734375 -0.28125q-2.65625 -0.59375 -3.359375 -1.078125q-0.984375 -0.671875 -0.984375 -1.859375q0 -1.078125 0.84375 -1.8125q0.859375 -0.734375 2.640625 -0.734375q1.703125 0 2.53125 0.5625q0.828125 0.546875 1.140625 1.625l-2.0625 0.390625q-0.140625 -0.484375 -0.515625 -0.734375q-0.359375 -0.265625 -1.046875 -0.265625q-0.875 0 -1.25 0.234375q-0.25 0.171875 -0.25 0.453125q0 0.234375 0.21875 0.390625q0.296875 0.21875 2.046875 0.625q1.765625 0.390625 2.453125 0.96875q0.6875 0.59375 0.6875 1.640625q0 1.140625 -0.953125 1.96875q-0.953125 0.8125 -2.8125 0.8125q-1.703125 0 -2.6875 -0.6875q-0.984375 -0.6875 -1.296875 -1.875zm15.1328125 2.375l0 -1.25q-0.453125 0.671875 -1.1875 1.0625q-0.734375 0.375 -1.5625 0.375q-0.828125 0 -1.5 -0.359375q-0.65625 -0.375 -0.953125 -1.03125q-0.296875 -0.671875 -0.296875 -1.84375l0 -5.25l2.1875 0l0 3.8125q0 1.75 0.125 2.140625q0.125 0.390625 0.4375 0.625q0.328125 0.234375 0.8125 0.234375q0.5625 0 1.0 -0.3125q0.453125 -0.3125 0.609375 -0.765625q0.171875 -0.453125 0.171875 -2.234375l0 -3.5l2.203125 0l0 8.296875l-2.046875 0zm4.1484375 -8.296875l2.03125 0l0 1.125q1.078125 -1.3125 2.578125 -1.3125q0.796875 0 1.375 0.328125q0.59375 0.328125 0.96875 0.984375q0.546875 -0.65625 1.171875 -0.984375q0.640625 -0.328125 1.359375 -0.328125q0.921875 0 1.546875 0.375q0.640625 0.359375 0.953125 1.078125q0.21875 0.53125 0.21875 1.71875l0 5.3125l-2.1875 0l0 -4.75q0 -1.234375 -0.234375 -1.59375q-0.296875 -0.46875 -0.9375 -0.46875q-0.453125 0 -0.859375 0.28125q-0.40625 0.28125 -0.59375 0.828125q-0.171875 0.546875 -0.171875 1.71875l0 3.984375l-2.203125 0l0 -4.546875q0 -1.21875 -0.125 -1.5625q-0.109375 -0.359375 -0.359375 -0.53125q-0.234375 -0.171875 -0.65625 -0.171875q-0.515625 0 -0.921875 0.28125q-0.40625 0.265625 -0.578125 0.78125q-0.171875 0.515625 -0.171875 1.71875l0 4.03125l-2.203125 0l0 -8.296875zm19.195312 5.65625l2.1875 0.359375q-0.421875 1.203125 -1.328125 1.84375q-0.90625 0.625 -2.28125 0.625q-2.15625 0 -3.203125 -1.421875q-0.8125 -1.125 -0.8125 -2.859375q0 -2.0625 1.078125 -3.21875q1.078125 -1.171875 2.71875 -1.171875q1.859375 0 2.921875 1.21875q1.078125 1.21875 1.03125 3.75l-5.5 0q0.015625 0.96875 0.515625 1.515625q0.515625 0.546875 1.28125 0.546875q0.515625 0 0.859375 -0.28125q0.359375 -0.28125 0.53125 -0.90625zm0.125 -2.21875q-0.015625 -0.953125 -0.484375 -1.453125q-0.46875 -0.5 -1.140625 -0.5q-0.71875 0 -1.1875 0.53125q-0.46875 0.515625 -0.46875 1.421875l3.28125 0zm6.0703125 4.859375l-2.1875 0l0 -8.296875l2.03125 0l0 1.171875q0.53125 -0.828125 0.9375 -1.09375q0.421875 -0.265625 0.953125 -0.265625q0.75 0 1.453125 0.40625l-0.6875 1.921875q-0.546875 -0.359375 -1.03125 -0.359375q-0.453125 0 -0.78125 0.25q-0.3125 0.25 -0.5 0.921875q-0.1875 0.65625 -0.1875 2.78125l0 2.5625z" fill-rule="nonzero"/><path fill="#000000" fill-opacity="0.0" d="m459.4993 285.89185l389.13388 0" fill-rule="evenodd"/><path stroke="#0091da" stroke-width="2.0" stroke-linejoin="round" stroke-linecap="butt" d="m459.4993 285.89185l377.13382 0" fill-rule="evenodd"/><path fill="#0091da" stroke="#0091da" stroke-width="2.0" stroke-linecap="butt" d="m836.6331 289.1953l9.076172 -3.3034668l-9.076172 -3.3034668z" fill-rule="evenodd"/><path fill="#0091da" d="m693.8198 72.96167l47.307068 0l0 37.196854l-47.307068 0z" fill-rule="evenodd"/><path stroke="#1a428a" stroke-width="4.0" stroke-linejoin="round" stroke-linecap="butt" d="m693.8198 72.96167l47.307068 0l0 37.196854l-47.307068 0z" fill-rule="evenodd"/><path fill="#ffffff" d="m710.1058 99.0401l0 -15.265625l4.609375 0l2.765625 10.40625l2.734375 -10.40625l4.625 0l0 15.265625l-2.859375 0l0 -12.015625l-3.03125 12.015625l-2.96875 0l-3.015625 -12.015625l0 12.015625l-2.859375 0z" fill-rule="nonzero"/><path fill="#0091da" d="m646.9314 235.67165l47.307068 0l0 37.196854l-47.307068 0z" fill-rule="evenodd"/><path stroke="#1a428a" stroke-width="4.0" stroke-linejoin="round" stroke-linecap="butt" d="m646.9314 235.67165l47.307068 0l0 37.196854l-47.307068 0z" fill-rule="evenodd"/><path fill="#ffffff" d="m663.2173 261.75006l0 -15.26561l4.609375 0l2.765625 10.406235l2.734375 -10.406235l4.625 0l0 15.26561l-2.859375 0l0 -12.01561l-3.03125 12.01561l-2.96875 0l-3.015625 -12.01561l0 12.01561l-2.859375 0z" fill-rule="nonzero"/><path fill="#0091da" d="m731.7792 237.01416l47.307068 0l0 37.19687l-47.307068 0z" fill-rule="evenodd"/><path stroke="#1a428a" stroke-width="4.0" stroke-linejoin="round" stroke-linecap="butt" d="m731.7792 237.01416l47.307068 0l0 37.19687l-47.307068 0z" fill-rule="evenodd"/><path fill="#ffffff" d="m748.06506 263.0926l0 -15.265625l4.609375 0l2.765625 10.40625l2.734375 -10.40625l4.625 0l0 15.265625l-2.859375 0l0 -12.015625l-3.03125 12.015625l-2.96875 0l-3.015625 -12.015625l0 12.015625l-2.859375 0z" fill-rule="nonzero"/><path fill="#78be20" d="m706.30774 47.583534l0 0c0 -2.0526276 1.6639404 -3.71661 3.7165527 -3.71661l14.897522 0l0 0c0.9857178 0 1.9310303 0.39156723 2.6280518 1.0885696c0.69696045 0.6969986 1.088562 1.642334 1.088562 2.6280403l0 14.86599c0 2.0526276 -1.6640015 3.7166138 -3.7166138 3.7166138l-14.897522 0c-2.0526123 0 -3.7165527 -1.6639862 -3.7165527 -3.7166138z" fill-rule="evenodd"/><path fill="#7f35b2" d="m659.41943 210.29369l0 0c0 -2.0526276 1.6640015 -3.7165985 3.7166138 -3.7165985l14.897522 0l0 0c0.9857178 0 1.9310303 0.3915558 2.6280518 1.088562c0.69696045 0.6970062 1.088562 1.642334 1.088562 2.6280365l0 14.865997c0 2.0526276 -1.6640015 3.7166138 -3.7166138 3.7166138l-14.897522 0c-2.0526123 0 -3.7166138 -1.6639862 -3.7166138 -3.7166138z" fill-rule="evenodd"/><path fill="#7f35b2" d="m744.26746 211.63622l0 0c0 -2.0526276 1.6639404 -3.7166138 3.7166138 -3.7166138l14.897461 0l0 0c0.9857178 0 1.9310303 0.39157104 2.6280518 1.088562c0.6970215 0.6970062 1.088562 1.642334 1.088562 2.6280518l0 14.865982c0 2.0526276 -1.6640015 3.7166138 -3.7166138 3.7166138l-14.897461 0c-2.0526733 0 -3.7166138 -1.6639862 -3.7166138 -3.7166138z" fill-rule="evenodd"/><path fill="#0091da" d="m848.6241 231.95538l204.06293 0l0 107.87402l-204.06293 0z" fill-rule="evenodd"/><path fill="#ffffff" d="m919.5931 287.53363l2.234375 0.71875q-0.515625 1.875 -1.71875 2.796875q-1.1875 0.90625 -3.03125 0.90625q-2.28125 0 -3.75 -1.5625q-1.46875 -1.5625 -1.46875 -4.265625q0 -2.859375 1.46875 -4.4375q1.484375 -1.59375 3.890625 -1.59375q2.09375 0 3.40625 1.25q0.78125 0.734375 1.171875 2.109375l-2.28125 0.546875q-0.203125 -0.890625 -0.859375 -1.40625q-0.640625 -0.515625 -1.5625 -0.515625q-1.265625 0 -2.0625 0.921875q-0.796875 0.90625 -0.796875 2.953125q0 2.171875 0.78125 3.09375q0.78125 0.921875 2.03125 0.921875q0.921875 0 1.578125 -0.578125q0.671875 -0.59375 0.96875 -1.859375zm3.6953125 -0.046875q0 -1.09375 0.53125 -2.109375q0.546875 -1.03125 1.53125 -1.5625q1.0 -0.546875 2.21875 -0.546875q1.875 0 3.078125 1.21875q1.203125 1.21875 1.203125 3.09375q0 1.875 -1.21875 3.125q-1.203125 1.234375 -3.046875 1.234375q-1.140625 0 -2.1875 -0.515625q-1.03125 -0.515625 -1.578125 -1.515625q-0.53125 -1.0 -0.53125 -2.421875zm2.25 0.109375q0 1.234375 0.578125 1.890625q0.59375 0.65625 1.453125 0.65625q0.859375 0 1.4375 -0.65625q0.59375 -0.65625 0.59375 -1.90625q0 -1.21875 -0.59375 -1.875q-0.578125 -0.65625 -1.4375 -0.65625q-0.859375 0 -1.453125 0.65625q-0.578125 0.65625 -0.578125 1.890625zm15.5859375 4.15625l-2.203125 0l0 -4.234375q0 -1.34375 -0.140625 -1.734375q-0.140625 -0.40625 -0.453125 -0.625q-0.3125 -0.21875 -0.765625 -0.21875q-0.5625 0 -1.015625 0.3125q-0.453125 0.3125 -0.625 0.828125q-0.171875 0.515625 -0.171875 1.90625l0 3.765625l-2.1875 0l0 -8.296875l2.03125 0l0 1.21875q1.09375 -1.40625 2.734375 -1.40625q0.734375 0 1.328125 0.265625q0.609375 0.25 0.90625 0.65625q0.3125 0.40625 0.4375 0.921875q0.125 0.515625 0.125 1.484375l0 5.15625zm1.4453125 -2.375l2.203125 -0.328125q0.140625 0.640625 0.5625 0.96875q0.4375 0.328125 1.21875 0.328125q0.84375 0 1.28125 -0.3125q0.28125 -0.21875 0.28125 -0.578125q0 -0.25 -0.15625 -0.421875q-0.15625 -0.15625 -0.734375 -0.28125q-2.65625 -0.59375 -3.359375 -1.078125q-0.984375 -0.671875 -0.984375 -1.859375q0 -1.078125 0.84375 -1.8125q0.859375 -0.734375 2.640625 -0.734375q1.703125 0 2.53125 0.5625q0.828125 0.546875 1.140625 1.625l-2.0625 0.390625q-0.140625 -0.484375 -0.515625 -0.734375q-0.359375 -0.265625 -1.046875 -0.265625q-0.875 0 -1.25 0.234375q-0.25 0.171875 -0.25 0.453125q0 0.234375 0.21875 0.390625q0.296875 0.21875 2.046875 0.625q1.765625 0.390625 2.453125 0.96875q0.6875 0.59375 0.6875 1.640625q0 1.140625 -0.953125 1.96875q-0.953125 0.8125 -2.8125 0.8125q-1.703125 0 -2.6875 -0.6875q-0.984375 -0.6875 -1.296875 -1.875zm15.1328125 2.375l0 -1.25q-0.453125 0.671875 -1.1875 1.0625q-0.734375 0.375 -1.5625 0.375q-0.828125 0 -1.5 -0.359375q-0.65625 -0.375 -0.953125 -1.03125q-0.296875 -0.671875 -0.296875 -1.84375l0 -5.25l2.1875 0l0 3.8125q0 1.75 0.125 2.140625q0.125 0.390625 0.4375 0.625q0.328125 0.234375 0.8125 0.234375q0.5625 0 1.0 -0.3125q0.453125 -0.3125 0.609375 -0.765625q0.171875 -0.453125 0.171875 -2.234375l0 -3.5l2.203125 0l0 8.296875l-2.046875 0zm4.1484375 -8.296875l2.03125 0l0 1.125q1.078125 -1.3125 2.578125 -1.3125q0.796875 0 1.375 0.328125q0.59375 0.328125 0.96875 0.984375q0.546875 -0.65625 1.171875 -0.984375q0.640625 -0.328125 1.359375 -0.328125q0.921875 0 1.546875 0.375q0.640625 0.359375 0.953125 1.078125q0.21875 0.53125 0.21875 1.71875l0 5.3125l-2.1875 0l0 -4.75q0 -1.234375 -0.234375 -1.59375q-0.296875 -0.46875 -0.9375 -0.46875q-0.453125 0 -0.859375 0.28125q-0.40625 0.28125 -0.59375 0.828125q-0.171875 0.546875 -0.171875 1.71875l0 3.984375l-2.203125 0l0 -4.546875q0 -1.21875 -0.125 -1.5625q-0.109375 -0.359375 -0.359375 -0.53125q-0.234375 -0.171875 -0.65625 -0.171875q-0.515625 0 -0.921875 0.28125q-0.40625 0.265625 -0.578125 0.78125q-0.171875 0.515625 -0.171875 1.71875l0 4.03125l-2.203125 0l0 -8.296875zm19.195312 5.65625l2.1875 0.359375q-0.421875 1.203125 -1.328125 1.84375q-0.90625 0.625 -2.28125 0.625q-2.15625 0 -3.203125 -1.421875q-0.8125 -1.125 -0.8125 -2.859375q0 -2.0625 1.078125 -3.21875q1.078125 -1.171875 2.71875 -1.171875q1.859375 0 2.921875 1.21875q1.078125 1.21875 1.03125 3.75l-5.5 0q0.015625 0.96875 0.515625 1.515625q0.515625 0.546875 1.28125 0.546875q0.515625 0 0.859375 -0.28125q0.359375 -0.28125 0.53125 -0.90625zm0.125 -2.21875q-0.015625 -0.953125 -0.484375 -1.453125q-0.46875 -0.5 -1.140625 -0.5q-0.71875 0 -1.1875 0.53125q-0.46875 0.515625 -0.46875 1.421875l3.28125 0zm6.0703125 4.859375l-2.1875 0l0 -8.296875l2.03125 0l0 1.171875q0.53125 -0.828125 0.9375 -1.09375q0.421875 -0.265625 0.953125 -0.265625q0.75 0 1.453125 0.40625l-0.6875 1.921875q-0.546875 -0.359375 -1.03125 -0.359375q-0.453125 0 -0.78125 0.25q-0.3125 0.25 -0.5 0.921875q-0.1875 0.65625 -0.1875 2.78125l0 2.5625z" fill-rule="nonzero"/><path fill="#0091da" d="m848.6241 441.29398l204.06293 0l0 107.87399l-204.06293 0z" fill-rule="evenodd"/><path fill="#ffffff" d="m919.5931 496.87222l2.234375 0.71875q-0.515625 1.875 -1.71875 2.796875q-1.1875 0.90625 -3.03125 0.90625q-2.28125 0 -3.75 -1.5625q-1.46875 -1.5625 -1.46875 -4.265625q0 -2.859375 1.46875 -4.4375q1.484375 -1.59375 3.890625 -1.59375q2.09375 0 3.40625 1.25q0.78125 0.734375 1.171875 2.109375l-2.28125 0.546875q-0.203125 -0.890625 -0.859375 -1.40625q-0.640625 -0.515625 -1.5625 -0.515625q-1.265625 0 -2.0625 0.921875q-0.796875 0.90625 -0.796875 2.953125q0 2.171875 0.78125 3.09375q0.78125 0.921875 2.03125 0.921875q0.921875 0 1.578125 -0.578125q0.671875 -0.59375 0.96875 -1.859375zm3.6953125 -0.046875q0 -1.09375 0.53125 -2.109375q0.546875 -1.03125 1.53125 -1.5625q1.0 -0.546875 2.21875 -0.546875q1.875 0 3.078125 1.21875q1.203125 1.21875 1.203125 3.09375q0 1.875 -1.21875 3.125q-1.203125 1.234375 -3.046875 1.234375q-1.140625 0 -2.1875 -0.515625q-1.03125 -0.515625 -1.578125 -1.515625q-0.53125 -1.0 -0.53125 -2.421875zm2.25 0.109375q0 1.234375 0.578125 1.890625q0.59375 0.65625 1.453125 0.65625q0.859375 0 1.4375 -0.65625q0.59375 -0.65625 0.59375 -1.90625q0 -1.21875 -0.59375 -1.875q-0.578125 -0.65625 -1.4375 -0.65625q-0.859375 0 -1.453125 0.65625q-0.578125 0.65625 -0.578125 1.890625zm15.5859375 4.15625l-2.203125 0l0 -4.234375q0 -1.34375 -0.140625 -1.734375q-0.140625 -0.40625 -0.453125 -0.625q-0.3125 -0.21875 -0.765625 -0.21875q-0.5625 0 -1.015625 0.3125q-0.453125 0.3125 -0.625 0.828125q-0.171875 0.515625 -0.171875 1.90625l0 3.765625l-2.1875 0l0 -8.296875l2.03125 0l0 1.21875q1.09375 -1.40625 2.734375 -1.40625q0.734375 0 1.328125 0.265625q0.609375 0.25 0.90625 0.65625q0.3125 0.40625 0.4375 0.921875q0.125 0.515625 0.125 1.484375l0 5.15625zm1.4453125 -2.375l2.203125 -0.328125q0.140625 0.640625 0.5625 0.96875q0.4375 0.328125 1.21875 0.328125q0.84375 0 1.28125 -0.3125q0.28125 -0.21875 0.28125 -0.578125q0 -0.25 -0.15625 -0.421875q-0.15625 -0.15625 -0.734375 -0.28125q-2.65625 -0.59375 -3.359375 -1.078125q-0.984375 -0.671875 -0.984375 -1.859375q0 -1.078125 0.84375 -1.8125q0.859375 -0.734375 2.640625 -0.734375q1.703125 0 2.53125 0.5625q0.828125 0.546875 1.140625 1.625l-2.0625 0.390625q-0.140625 -0.484375 -0.515625 -0.734375q-0.359375 -0.265625 -1.046875 -0.265625q-0.875 0 -1.25 0.234375q-0.25 0.171875 -0.25 0.453125q0 0.234375 0.21875 0.390625q0.296875 0.21875 2.046875 0.625q1.765625 0.390625 2.453125 0.96875q0.6875 0.59375 0.6875 1.640625q0 1.140625 -0.953125 1.96875q-0.953125 0.8125 -2.8125 0.8125q-1.703125 0 -2.6875 -0.6875q-0.984375 -0.6875 -1.296875 -1.875zm15.1328125 2.375l0 -1.25q-0.453125 0.671875 -1.1875 1.0625q-0.734375 0.375 -1.5625 0.375q-0.828125 0 -1.5 -0.359375q-0.65625 -0.375 -0.953125 -1.03125q-0.296875 -0.671875 -0.296875 -1.84375l0 -5.25l2.1875 0l0 3.8125q0 1.75 0.125 2.140625q0.125 0.390625 0.4375 0.625q0.328125 0.234375 0.8125 0.234375q0.5625 0 1.0 -0.3125q0.453125 -0.3125 0.609375 -0.765625q0.171875 -0.453125 0.171875 -2.234375l0 -3.5l2.203125 0l0 8.296875l-2.046875 0zm4.1484375 -8.296875l2.03125 0l0 1.125q1.078125 -1.3125 2.578125 -1.3125q0.796875 0 1.375 0.328125q0.59375 0.328125 0.96875 0.984375q0.546875 -0.65625 1.171875 -0.984375q0.640625 -0.328125 1.359375 -0.328125q0.921875 0 1.546875 0.375q0.640625 0.359375 0.953125 1.078125q0.21875 0.53125 0.21875 1.71875l0 5.3125l-2.1875 0l0 -4.75q0 -1.234375 -0.234375 -1.59375q-0.296875 -0.46875 -0.9375 -0.46875q-0.453125 0 -0.859375 0.28125q-0.40625 0.28125 -0.59375 0.828125q-0.171875 0.546875 -0.171875 1.71875l0 3.984375l-2.203125 0l0 -4.546875q0 -1.21875 -0.125 -1.5625q-0.109375 -0.359375 -0.359375 -0.53125q-0.234375 -0.171875 -0.65625 -0.171875q-0.515625 0 -0.921875 0.28125q-0.40625 0.265625 -0.578125 0.78125q-0.171875 0.515625 -0.171875 1.71875l0 4.03125l-2.203125 0l0 -8.296875zm19.195312 5.65625l2.1875 0.359375q-0.421875 1.203125 -1.328125 1.84375q-0.90625 0.625 -2.28125 0.625q-2.15625 0 -3.203125 -1.421875q-0.8125 -1.125 -0.8125 -2.859375q0 -2.0625 1.078125 -3.21875q1.078125 -1.171875 2.71875 -1.171875q1.859375 0 2.921875 1.21875q1.078125 1.21875 1.03125 3.75l-5.5 0q0.015625 0.96875 0.515625 1.515625q0.515625 0.546875 1.28125 0.546875q0.515625 0 0.859375 -0.28125q0.359375 -0.28125 0.53125 -0.90625zm0.125 -2.21875q-0.015625 -0.953125 -0.484375 -1.453125q-0.46875 -0.5 -1.140625 -0.5q-0.71875 0 -1.1875 0.53125q-0.46875 0.515625 -0.46875 1.421875l3.28125 0zm6.0703125 4.859375l-2.1875 0l0 -8.296875l2.03125 0l0 1.171875q0.53125 -0.828125 0.9375 -1.09375q0.421875 -0.265625 0.953125 -0.265625q0.75 0 1.453125 0.40625l-0.6875 1.921875q-0.546875 -0.359375 -1.03125 -0.359375q-0.453125 0 -0.78125 0.25q-0.3125 0.25 -0.5 0.921875q-0.1875 0.65625 -0.1875 2.78125l0 2.5625z" fill-rule="nonzero"/><path fill="#000000" fill-opacity="0.0" d="m459.4993 285.89185l389.13388 -209.32281" fill-rule="evenodd"/><path stroke="#0091da" stroke-width="2.0" stroke-linejoin="round" stroke-linecap="butt" d="m459.4993 285.89185l378.56577 -203.63806" fill-rule="evenodd"/><path fill="#0091da" stroke="#0091da" stroke-width="2.0" stroke-linecap="butt" d="m839.63 85.16304l6.4282227 -7.2089233l-9.558105 1.3904037z" fill-rule="evenodd"/><path fill="#000000" fill-opacity="0.0" d="m459.4993 285.89185l389.13388 209.35434" fill-rule="evenodd"/><path stroke="#0091da" stroke-width="2.0" stroke-linejoin="round" stroke-linecap="butt" d="m459.4993 285.89185l378.56613 203.66895" fill-rule="evenodd"/><path fill="#0091da" stroke="#0091da" stroke-width="2.0" stroke-linecap="butt" d="m836.5003 492.46994l9.557983 1.3909912l-6.4277344 -7.20932z" fill-rule="evenodd"/><path fill="#0091da" d="m527.2582 161.1782l47.307068 0l0 37.196854l-47.307068 0z" fill-rule="evenodd"/><path stroke="#1a428a" stroke-width="4.0" stroke-linejoin="round" stroke-linecap="butt" d="m527.2582 161.1782l47.307068 0l0 37.196854l-47.307068 0z" fill-rule="evenodd"/><path fill="#ffffff" d="m543.54407 187.25664l0 -15.265625l4.609375 0l2.765625 10.40625l2.734375 -10.40625l4.625 0l0 15.265625l-2.859375 0l0 -12.015625l-3.03125 12.015625l-2.96875 0l-3.015625 -12.015625l0 12.015625l-2.859375 0z" fill-rule="nonzero"/><path fill="#78be20" d="m539.74603 135.80006l0 0c0 -2.0526276 1.6640015 -3.7165985 3.7166138 -3.7165985l14.897461 0l0 0c0.9857178 0 1.9310913 0.3915558 2.6280518 1.088562c0.6970215 0.6970062 1.088562 1.642334 1.088562 2.6280365l0 14.865997c0 2.0526276 -1.6639404 3.7166138 -3.7166138 3.7166138l-14.897461 0c-2.0526123 0 -3.7166138 -1.6639862 -3.7166138 -3.7166138z" fill-rule="evenodd"/><path fill="#78be20" d="m862.5702 69.12028l0 0c0 -2.0526276 1.6639404 -3.7166061 3.7166138 -3.7166061l14.897461 0l0 0c0.9857178 0 1.9310303 0.39156342 2.6280518 1.0885696c0.6970215 0.6969986 1.088562 1.642334 1.088562 2.6280365l0 14.86599c0 2.0526276 -1.6640015 3.7166138 -3.7166138 3.7166138l-14.897461 0c-2.0526733 0 -3.7166138 -1.6639862 -3.7166138 -3.7166138z" fill-rule="evenodd"/><path fill="#7f35b2" d="m862.57056 278.45773l0 0c0 -2.0526428 1.6640015 -3.7166138 3.7166138 -3.7166138l14.897522 0l0 0c0.9857178 0 1.9310303 0.39157104 2.6280518 1.088562c0.69696045 0.6970215 1.088562 1.642334 1.088562 2.6280518l0 14.865997c0 2.0526123 -1.6640015 3.7166138 -3.7166138 3.7166138l-14.897522 0c-2.0526123 0 -3.7166138 -1.6640015 -3.7166138 -3.7166138z" fill-rule="evenodd"/><path fill="#1a428a" d="m862.5711 487.79755l0 0c0 -2.0526428 1.6640015 -3.7166138 3.7166138 -3.7166138l14.897461 0l0 0c0.9857178 0 1.9310913 0.39157104 2.6280518 1.088562c0.6970215 0.69699097 1.088562 1.642334 1.088562 2.6280518l0 14.865967c0 2.0526428 -1.6639404 3.7166138 -3.7166138 3.7166138l-14.897461 0c-2.0526123 0 -3.7166138 -1.663971 -3.7166138 -3.7166138z" fill-rule="evenodd"/><path fill="#0091da" d="m611.6912 118.494484l47.307068 0l0 37.196846l-47.307068 0z" fill-rule="evenodd"/><path stroke="#1a428a" stroke-width="4.0" stroke-linejoin="round" stroke-linecap="butt" d="m611.6912 118.494484l47.307068 0l0 37.196846l-47.307068 0z" fill-rule="evenodd"/><path fill="#ffffff" d="m627.9772 144.5729l0 -15.265625l4.609375 0l2.765625 10.40625l2.734375 -10.40625l4.625 0l0 15.265625l-2.859375 0l0 -12.015625l-3.03125 12.015625l-2.96875 0l-3.015625 -12.015625l0 12.015625l-2.859375 0z" fill-rule="nonzero"/><path fill="#78be20" d="m624.1791 93.11634l0 0c0 -2.0526276 1.6640015 -3.7166061 3.7166138 -3.7166061l14.897522 0l0 0c0.9857178 0 1.9310303 0.39156342 2.6280518 1.0885696c0.69696045 0.6969986 1.088562 1.642334 1.088562 2.6280365l0 14.86599c0 2.0526276 -1.6640015 3.7166138 -3.7166138 3.7166138l-14.897522 0c-2.0526123 0 -3.7166138 -1.6639862 -3.7166138 -3.7166138z" fill-rule="evenodd"/><path fill="#0091da" d="m744.2687 391.81732l47.307068 0l0 37.19684l-47.307068 0z" fill-rule="evenodd"/><path stroke="#1a428a" stroke-width="4.0" stroke-linejoin="round" stroke-linecap="butt" d="m744.2687 391.81732l47.307068 0l0 37.19684l-47.307068 0z" fill-rule="evenodd"/><path fill="#ffffff" d="m760.55457 417.89575l0 -15.265625l4.609375 0l2.765625 10.40625l2.734375 -10.40625l4.625 0l0 15.265625l-2.859375 0l0 -12.015625l-3.03125 12.015625l-2.96875 0l-3.015625 -12.015625l0 12.015625l-2.859375 0z" fill-rule="nonzero"/><path fill="#1a428a" d="m756.75745 366.43927l0 0c0 -2.0526428 1.6640015 -3.7166138 3.7166138 -3.7166138l14.897522 0l0 0c0.98565674 0 1.9310303 0.39157104 2.6279907 1.088562c0.6970215 0.6970215 1.088562 1.642334 1.088562 2.6280518l0 14.865997c0 2.0526123 -1.6639404 3.7166138 -3.7165527 3.7166138l-14.897522 0c-2.0526123 0 -3.7166138 -1.6640015 -3.7166138 -3.7166138z" fill-rule="evenodd"/></g></svg>