<svg version="1.1" viewBox="0.0 0.0 1024.007874015748 188.73228346456693" fill="none" stroke="none" stroke-linecap="square" stroke-miterlimit="10" xmlns:xlink="http://www.w3.org/1999/xlink" xmlns="http://www.w3.org/2000/svg"><clipPath id="p.0"><path d="m0 0l1024.0079 0l0 188.73228l-1024.0079 0l0 -188.73228z" clip-rule="nonzero"/></clipPath><g clip-path="url(#p.0)"><path fill="#000000" fill-opacity="0.0" d="m0 0l1024.0079 0l0 188.73228l-1024.0079 0z" fill-rule="evenodd"/><path fill="#0091da" d="m595.7726 64.22611l0 0c12.067871 0 21.850769 20.037903 21.850769 44.755905c0 24.71801 -9.782898 44.755913 -21.850769 44.755913l394.34583 0c12.06781 0 21.850708 -20.037903 21.850708 -44.755913c0 -24.718002 -9.782898 -44.755905 -21.850708 -44.755905z" fill-rule="evenodd"/><path fill="#66bde8" d="m595.7726 64.22611l0 0c-12.06781 0 -21.850708 20.037903 -21.850708 44.755905c0 24.71801 9.782898 44.755913 21.850708 44.755913l0 0c12.067871 0 21.850769 -20.037903 21.850769 -44.755913c0 -24.718002 -9.782898 -44.755905 -21.850769 -44.755905z" fill-rule="evenodd"/><path fill="#000000" fill-opacity="0.0" d="m595.7726 153.73793l0 0c12.067871 0 21.850769 -20.037903 21.850769 -44.755913c0 -24.718002 -9.782898 -44.755905 -21.850769 -44.755905l0 0c-12.06781 0 -21.850708 20.037903 -21.850708 44.755905c0 24.71801 9.782898 44.755913 21.850708 44.755913l394.34583 0c12.06781 0 21.850708 -20.037903 21.850708 -44.755913c0 -24.718002 -9.782898 -44.755905 -21.850708 -44.755905l-394.34583 0" fill-rule="evenodd"/><path fill="#0091da" d="m635.84607 104.05315l47.307068 0l0 37.196854l-47.307068 0z" fill-rule="evenodd"/><path stroke="#1a428a" stroke-width="4.0" stroke-linejoin="round" stroke-linecap="butt" d="m635.84607 104.05315l47.307068 0l0 37.196854l-47.307068 0z" fill-rule="evenodd"/><path fill="#ffffff" d="m652.132 130.13158l0 -15.265633l4.609375 0l2.765625 10.40625l2.734375 -10.40625l4.625 0l0 15.265633l-2.859375 0l0 -12.015633l-3.03125 12.015633l-2.96875 0l-3.015625 -12.015633l0 12.015633l-2.859375 0z" fill-rule="nonzero"/><path fill="#0091da" d="m695.1269 104.05315l47.30713 0l0 37.196854l-47.30713 0z" fill-rule="evenodd"/><path stroke="#1a428a" stroke-width="4.0" stroke-linejoin="round" stroke-linecap="butt" d="m695.1269 104.05315l47.30713 0l0 37.196854l-47.30713 0z" fill-rule="evenodd"/><path fill="#ffffff" d="m711.41284 130.13158l0 -15.265633l4.609375 0l2.765625 10.40625l2.734375 -10.40625l4.625 0l0 15.265633l-2.859375 0l0 -12.015633l-3.03125 12.015633l-2.96875 0l-3.015625 -12.015633l0 12.015633l-2.859375 0z" fill-rule="nonzero"/><path fill="#0091da" d="m754.4078 104.05315l47.307068 0l0 37.196854l-47.307068 0z" fill-rule="evenodd"/><path stroke="#1a428a" stroke-width="4.0" stroke-linejoin="round" stroke-linecap="butt" d="m754.4078 104.05315l47.307068 0l0 37.196854l-47.307068 0z" fill-rule="evenodd"/><path fill="#ffffff" d="m770.69366 130.13158l0 -15.265633l4.609375 0l2.765625 10.40625l2.734375 -10.40625l4.625 0l0 15.265633l-2.859375 0l0 -12.015633l-3.03125 12.015633l-2.96875 0l-3.015625 -12.015633l0 12.015633l-2.859375 0z" fill-rule="nonzero"/><path fill="#0091da" d="m813.6886 104.05315l47.307068 0l0 37.196854l-47.307068 0z" fill-rule="evenodd"/><path stroke="#1a428a" stroke-width="4.0" stroke-linejoin="round" stroke-linecap="butt" d="m813.6886 104.05315l47.307068 0l0 37.196854l-47.307068 0z" fill-rule="evenodd"/><path fill="#ffffff" d="m829.97455 130.13158l0 -15.265633l4.609375 0l2.765625 10.40625l2.734375 -10.40625l4.625 0l0 15.265633l-2.859375 0l0 -12.015633l-3.03125 12.015633l-2.96875 0l-3.015625 -12.015633l0 12.015633l-2.859375 0z" fill-rule="nonzero"/><path fill="#0091da" d="m872.9694 104.05315l47.30713 0l0 37.196854l-47.30713 0z" fill-rule="evenodd"/><path stroke="#1a428a" stroke-width="4.0" stroke-linejoin="round" stroke-linecap="butt" d="m872.9694 104.05315l47.30713 0l0 37.196854l-47.30713 0z" fill-rule="evenodd"/><path fill="#ffffff" d="m889.2554 130.13158l0 -15.265633l4.609375 0l2.765625 10.40625l2.734375 -10.40625l4.625 0l0 15.265633l-2.859375 0l0 -12.015633l-3.03125 12.015633l-2.96875 0l-3.015625 -12.015633l0 12.015633l-2.859375 0z" fill-rule="nonzero"/><path fill="#78be20" d="m648.334 78.675l0 0c0 -2.0526276 1.6639404 -3.7166061 3.7165527 -3.7166061l14.897522 0l0 0c0.9857178 0 1.9310303 0.39157104 2.6280518 1.0885696c0.69696045 0.6969986 1.088562 1.642334 1.088562 2.6280365l0 14.865997c0 2.0526276 -1.6640015 3.7166061 -3.7166138 3.7166061l-14.897522 0c-2.0526123 0 -3.7165527 -1.6639786 -3.7165527 -3.7166061z" fill-rule="evenodd"/><path fill="#1a428a" d="m707.6157 78.675095l0 0c0 -2.0526276 1.6640015 -3.7166061 3.7166138 -3.7166061l14.897461 0l0 0c0.9857178 0 1.9310913 0.39157104 2.6280518 1.0885696c0.6970215 0.6969986 1.088562 1.642334 1.088562 2.6280365l0 14.865997c0 2.0526276 -1.6639404 3.7166061 -3.7166138 3.7166061l-14.897461 0c-2.0526123 0 -3.7166138 -1.6639786 -3.7166138 -3.7166061z" fill-rule="evenodd"/><path fill="#7f35b2" d="m766.89606 78.675186l0 0c0 -2.0526276 1.6640015 -3.7166061 3.7166138 -3.7166061l14.897461 0l0 0c0.9857178 0 1.9310303 0.39157104 2.6280518 1.0885696c0.6970215 0.6969986 1.088562 1.642334 1.088562 2.6280365l0 14.865997c0 2.0526276 -1.6640015 3.7166061 -3.7166138 3.7166061l-14.897461 0c-2.0526123 0 -3.7166138 -1.6639786 -3.7166138 -3.7166061z" fill-rule="evenodd"/><path fill="#7f35b2" d="m826.1769 78.675186l0 0c0 -2.0526276 1.6640015 -3.7166061 3.7166138 -3.7166061l14.897522 0l0 0c0.98565674 0 1.9310303 0.39157104 2.6279907 1.0885696c0.6970215 0.6969986 1.088562 1.642334 1.088562 2.6280365l0 14.865997c0 2.0526276 -1.6639404 3.7166061 -3.7165527 3.7166061l-14.897522 0c-2.0526123 0 -3.7166138 -1.6639786 -3.7166138 -3.7166061z" fill-rule="evenodd"/><path fill="#0091da" d="m932.2503 104.36023l47.307068 0l0 37.196854l-47.307068 0z" fill-rule="evenodd"/><path stroke="#1a428a" stroke-width="4.0" stroke-linejoin="round" stroke-linecap="butt" d="m932.2503 104.36023l47.307068 0l0 37.196854l-47.307068 0z" fill-rule="evenodd"/><path fill="#ffffff" d="m948.5362 130.43866l0 -15.265625l4.609375 0l2.765625 10.40625l2.734375 -10.40625l4.625 0l0 15.265625l-2.859375 0l0 -12.015625l-3.03125 12.015625l-2.96875 0l-3.015625 -12.015625l0 12.015625l-2.859375 0z" fill-rule="nonzero"/><path fill="#78be20" d="m885.45734 78.675l0 0c0 -2.0526276 1.6639404 -3.7166061 3.7166138 -3.7166061l14.897461 0l0 0c0.9857178 0 1.9310303 0.39157104 2.6280518 1.0885696c0.6970215 0.6969986 1.088562 1.642334 1.088562 2.6280365l0 14.865997c0 2.0526276 -1.6640015 3.7166061 -3.7166138 3.7166061l-14.897461 0c-2.0526733 0 -3.7166138 -1.6639786 -3.7166138 -3.7166061z" fill-rule="evenodd"/><path fill="#78be20" d="m944.73816 78.675l0 0c0 -2.0526276 1.6640015 -3.7166061 3.7166138 -3.7166061l14.897461 0l0 0c0.9857178 0 1.9310913 0.39157104 2.6280518 1.0885696c0.6970215 0.6969986 1.088562 1.642334 1.088562 2.6280365l0 14.865997c0 2.0526276 -1.6639404 3.7166061 -3.7166138 3.7166061l-14.897461 0c-2.0526123 0 -3.7166138 -1.6639786 -3.7166138 -3.7166061z" fill-rule="evenodd"/><path fill="#0091da" d="m12.038756 55.04554l204.06299 0l0 107.874016l-204.06299 0z" fill-rule="evenodd"/><path fill="#ffffff" d="m78.789 114.84255l0 -11.453125l3.703125 0q2.109375 0 2.75 0.171875q0.984375 0.25 1.640625 1.125q0.671875 0.859375 0.671875 2.21875q0 1.0625 -0.390625 1.78125q-0.375 0.71875 -0.96875 1.125q-0.578125 0.40625 -1.1875 0.546875q-0.828125 0.15625 -2.40625 0.15625l-1.5 0l0 4.328125l-2.3125 0zm2.3125 -9.515625l0 3.25l1.265625 0q1.359375 0 1.8125 -0.171875q0.46875 -0.1875 0.734375 -0.5625q0.265625 -0.390625 0.265625 -0.90625q0 -0.625 -0.375 -1.03125q-0.359375 -0.40625 -0.921875 -0.5q-0.421875 -0.078125 -1.671875 -0.078125l-1.109375 0zm13.796875 9.515625l0 -1.25q-0.453125 0.671875 -1.1875 1.0625q-0.734375 0.375 -1.5625 0.375q-0.828125 0 -1.5 -0.359375q-0.65625 -0.375 -0.953125 -1.03125q-0.296875 -0.671875 -0.296875 -1.84375l0 -5.25l2.1875 0l0 3.8125q0 1.75 0.125 2.140625q0.125 0.390625 0.4375 0.625q0.328125 0.234375 0.8125 0.234375q0.5625 0 1.0 -0.3125q0.453125 -0.3125 0.609375 -0.765625q0.171875 -0.453125 0.171875 -2.234375l0 -3.5l2.203125 0l0 8.296875l-2.046875 0zm4.2265625 0l0 -11.453125l2.1875 0l0 4.125q1.015625 -1.15625 2.40625 -1.15625q1.515625 0 2.5 1.09375q1.0 1.09375 1.0 3.15625q0 2.125 -1.015625 3.28125q-1.0 1.140625 -2.453125 1.140625q-0.703125 0 -1.40625 -0.359375q-0.6875 -0.359375 -1.1875 -1.046875l0 1.21875l-2.03125 0zm2.171875 -4.328125q0 1.28125 0.40625 1.90625q0.578125 0.875 1.515625 0.875q0.734375 0 1.234375 -0.625q0.515625 -0.625 0.515625 -1.953125q0 -1.421875 -0.515625 -2.046875q-0.515625 -0.640625 -1.3125 -0.640625q-0.796875 0 -1.328125 0.625q-0.515625 0.609375 -0.515625 1.859375zm7.6953125 4.328125l0 -11.453125l2.1875 0l0 11.453125l-2.1875 0zm4.4453125 -9.421875l0 -2.03125l2.1875 0l0 2.03125l-2.1875 0zm0 9.421875l0 -8.296875l2.1875 0l0 8.296875l-2.1875 0zm3.6640625 -2.375l2.203125 -0.328125q0.140625 0.640625 0.5625 0.96875q0.4375 0.328125 1.21875 0.328125q0.84375 0 1.28125 -0.3125q0.28125 -0.21875 0.28125 -0.578125q0 -0.25 -0.15625 -0.421875q-0.15625 -0.15625 -0.734375 -0.28125q-2.65625 -0.59375 -3.359375 -1.078125q-0.984375 -0.671875 -0.984375 -1.859375q0 -1.078125 0.84375 -1.8125q0.859375 -0.734375 2.640625 -0.734375q1.703125 0 2.53125 0.5625q0.828125 0.546875 1.140625 1.625l-2.0625 0.390625q-0.140625 -0.484375 -0.515625 -0.734375q-0.359375 -0.265625 -1.046875 -0.265625q-0.875 0 -1.25 0.234375q-0.25 0.171875 -0.25 0.453125q0 0.234375 0.21875 0.390625q0.296875 0.21875 2.046875 0.625q1.765625 0.390625 2.453125 0.96875q0.6875 0.59375 0.6875 1.640625q0 1.140625 -0.953125 1.96875q-0.953125 0.8125 -2.8125 0.8125q-1.703125 0 -2.6875 -0.6875q-0.984375 -0.6875 -1.296875 -1.875zm11.8671875 -9.078125l0 4.203125q1.0625 -1.234375 2.53125 -1.234375q0.765625 0 1.375 0.28125q0.609375 0.28125 0.90625 0.71875q0.3125 0.4375 0.421875 0.96875q0.125 0.53125 0.125 1.640625l0 4.875l-2.203125 0l0 -4.390625q0 -1.296875 -0.125 -1.640625q-0.125 -0.359375 -0.4375 -0.5625q-0.3125 -0.21875 -0.796875 -0.21875q-0.546875 0 -0.984375 0.265625q-0.421875 0.265625 -0.625 0.8125q-0.1875 0.53125 -0.1875 1.578125l0 4.15625l-2.203125 0l0 -11.453125l2.203125 0zm12.3828125 8.8125l2.1875 0.359375q-0.421875 1.203125 -1.328125 1.84375q-0.90625 0.625 -2.28125 0.625q-2.15625 0 -3.203125 -1.421875q-0.8125 -1.125 -0.8125 -2.859375q0 -2.0625 1.078125 -3.21875q1.078125 -1.171875 2.71875 -1.171875q1.859375 0 2.921875 1.21875q1.078125 1.21875 1.03125 3.75l-5.5 0q0.015625 0.96875 0.515625 1.515625q0.515625 0.546875 1.28125 0.546875q0.515625 0 0.859375 -0.28125q0.359375 -0.28125 0.53125 -0.90625zm0.125 -2.21875q-0.015625 -0.953125 -0.484375 -1.453125q-0.46875 -0.5 -1.140625 -0.5q-0.71875 0 -1.1875 0.53125q-0.46875 0.515625 -0.46875 1.421875l3.28125 0zm6.0703125 4.859375l-2.1875 0l0 -8.296875l2.03125 0l0 1.171875q0.53125 -0.828125 0.9375 -1.09375q0.421875 -0.265625 0.953125 -0.265625q0.75 0 1.453125 0.40625l-0.6875 1.921875q-0.546875 -0.359375 -1.03125 -0.359375q-0.453125 0 -0.78125 0.25q-0.3125 0.25 -0.5 0.921875q-0.1875 0.65625 -0.1875 2.78125l0 2.5625z" fill-rule="nonzero"/><path fill="#000000" fill-opacity="0.0" d="m216.09511 108.98202l357.82678 0" fill-rule="evenodd"/><path stroke="#0091da" stroke-width="2.0" stroke-linejoin="round" stroke-linecap="butt" d="m216.09511 108.98202l345.82678 0" fill-rule="evenodd"/><path fill="#0091da" stroke="#0091da" stroke-width="2.0" stroke-linecap="butt" d="m561.9219 112.285484l9.076172 -3.3034668l-9.076172 -3.3034668z" fill-rule="evenodd"/><path fill="#0091da" d="m279.7857 54.907475l47.3071 0l0 37.19685l-47.3071 0z" fill-rule="evenodd"/><path stroke="#1a428a" stroke-width="4.0" stroke-linejoin="round" stroke-linecap="butt" d="m279.7857 54.907475l47.3071 0l0 37.19685l-47.3071 0z" fill-rule="evenodd"/><path fill="#ffffff" d="m296.07162 80.9859l0 -15.265625l4.609375 0l2.765625 10.40625l2.734375 -10.40625l4.625 0l0 15.265625l-2.859375 0l0 -12.015625l-3.03125 12.015625l-2.96875 0l-3.015625 -12.015625l0 12.015625l-2.859375 0z" fill-rule="nonzero"/><path fill="#0091da" d="m368.70697 54.907475l47.3071 0l0 37.19685l-47.3071 0z" fill-rule="evenodd"/><path stroke="#1a428a" stroke-width="4.0" stroke-linejoin="round" stroke-linecap="butt" d="m368.70697 54.907475l47.3071 0l0 37.19685l-47.3071 0z" fill-rule="evenodd"/><path fill="#ffffff" d="m384.9929 80.9859l0 -15.265625l4.609375 0l2.765625 10.40625l2.734375 -10.40625l4.625 0l0 15.265625l-2.859375 0l0 -12.015625l-3.03125 12.015625l-2.96875 0l-3.015625 -12.015625l0 12.015625l-2.859375 0z" fill-rule="nonzero"/><path fill="#0091da" d="m457.62823 54.907475l47.307068 0l0 37.19685l-47.307068 0z" fill-rule="evenodd"/><path stroke="#1a428a" stroke-width="4.0" stroke-linejoin="round" stroke-linecap="butt" d="m457.62823 54.907475l47.307068 0l0 37.19685l-47.307068 0z" fill-rule="evenodd"/><path fill="#ffffff" d="m473.91415 80.9859l0 -15.265625l4.609375 0l2.765625 10.40625l2.734375 -10.40625l4.625 0l0 15.265625l-2.859375 0l0 -12.015625l-3.03125 12.015625l-2.96875 0l-3.015625 -12.015625l0 12.015625l-2.859375 0z" fill-rule="nonzero"/><path fill="#78be20" d="m292.2736 29.529337l0 0c0 -2.0526276 1.663971 -3.71661 3.7166138 -3.71661l14.897491 0l0 0c0.98568726 0 1.9310303 0.39156914 2.6280212 1.0885696c0.6970215 0.6969986 1.0885925 1.642334 1.0885925 2.6280403l0 14.865992c0 2.0526276 -1.6640015 3.71661 -3.7166138 3.71661l-14.897491 0c-2.0526428 0 -3.7166138 -1.6639824 -3.7166138 -3.71661z" fill-rule="evenodd"/><path fill="#7f35b2" d="m381.19507 29.52952l0 0c0 -2.0526276 1.663971 -3.71661 3.7165833 -3.71661l14.897491 0l0 0c0.9857178 0 1.9310608 0.39157104 2.6280518 1.0885696c0.69699097 0.6970005 1.088562 1.642334 1.088562 2.6280403l0 14.865992c0 2.0526276 -1.663971 3.71661 -3.7166138 3.71661l-14.897491 0c-2.0526123 0 -3.7165833 -1.6639824 -3.7165833 -3.71661z" fill-rule="evenodd"/><path fill="#7f35b2" d="m470.11652 29.52952l0 0c0 -2.0526276 1.663971 -3.71661 3.7166138 -3.71661l14.897491 0l0 0c0.98568726 0 1.9310303 0.39157104 2.6280212 1.0885696c0.6970215 0.6970005 1.0885925 1.642334 1.0885925 2.6280403l0 14.865992c0 2.0526276 -1.6640015 3.71661 -3.7166138 3.71661l-14.897491 0c-2.0526428 0 -3.7166138 -1.6639824 -3.7166138 -3.71661z" fill-rule="evenodd"/></g></svg>