<svg version="1.1" viewBox="0.0 0.0 658.7900262467192 148.3753280839895" fill="none" stroke="none" stroke-linecap="square" stroke-miterlimit="10" xmlns:xlink="http://www.w3.org/1999/xlink" xmlns="http://www.w3.org/2000/svg"><clipPath id="p.0"><path d="m0 0l658.79004 0l0 148.37534l-658.79004 0l0 -148.37534z" clip-rule="nonzero"/></clipPath><g clip-path="url(#p.0)"><path fill="#000000" fill-opacity="0.0" d="m0 0l658.79004 0l0 148.37534l-658.79004 0z" fill-rule="evenodd"/><path fill="#0091da" d="m47.8061 28.349081l0 0c12.067825 0 21.85073 20.0379 21.85073 44.755905c0 24.718002 -9.782906 44.755905 -21.85073 44.755905l394.3458 0c12.06781 0 21.850739 -20.037903 21.850739 -44.755905c0 -24.718006 -9.782928 -44.755905 -21.850739 -44.755905z" fill-rule="evenodd"/><path fill="#66bde8" d="m47.8061 28.349081l0 0c-12.067825 0 -21.850729 20.0379 -21.850729 44.755905c0 24.718002 9.782904 44.755905 21.850729 44.755905l0 0c12.067825 0 21.85073 -20.037903 21.85073 -44.755905c0 -24.718006 -9.782906 -44.755905 -21.85073 -44.755905z" fill-rule="evenodd"/><path fill="#000000" fill-opacity="0.0" d="m47.8061 117.86089l0 0c12.067825 0 21.85073 -20.037903 21.85073 -44.755905c0 -24.718006 -9.782906 -44.755905 -21.85073 -44.755905l0 0c-12.067825 0 -21.850729 20.0379 -21.850729 44.755905c0 24.718002 9.782904 44.755905 21.850729 44.755905l394.3458 0c12.06781 0 21.850739 -20.037903 21.850739 -44.755905c0 -24.718006 -9.782928 -44.755905 -21.850739 -44.755905l-394.3458 0" fill-rule="evenodd"/><path fill="#0091da" d="m87.87958 68.17612l47.307083 0l0 37.196846l-47.307083 0z" fill-rule="evenodd"/><path stroke="#1a428a" stroke-width="4.0" stroke-linejoin="round" stroke-linecap="butt" d="m87.87958 68.17612l47.307083 0l0 37.196846l-47.307083 0z" fill-rule="evenodd"/><path fill="#ffffff" d="m104.1655 94.25454l0 -15.265625l4.609375 0l2.765625 10.40625l2.734375 -10.40625l4.625 0l0 15.265625l-2.859375 0l0 -12.015625l-3.03125 12.015625l-2.96875 0l-3.015625 -12.015625l0 12.015625l-2.859375 0z" fill-rule="nonzero"/><path fill="#0091da" d="m147.16042 68.17612l47.307083 0l0 37.196846l-47.307083 0z" fill-rule="evenodd"/><path stroke="#1a428a" stroke-width="4.0" stroke-linejoin="round" stroke-linecap="butt" d="m147.16042 68.17612l47.307083 0l0 37.196846l-47.307083 0z" fill-rule="evenodd"/><path fill="#ffffff" d="m163.44633 94.25454l0 -15.265625l4.609375 0l2.765625 10.40625l2.734375 -10.40625l4.625 0l0 15.265625l-2.859375 0l0 -12.015625l-3.03125 12.015625l-2.96875 0l-3.015625 -12.015625l0 12.015625l-2.859375 0z" fill-rule="nonzero"/><path fill="#0091da" d="m206.44125 68.17612l47.307083 0l0 37.196846l-47.307083 0z" fill-rule="evenodd"/><path stroke="#1a428a" stroke-width="4.0" stroke-linejoin="round" stroke-linecap="butt" d="m206.44125 68.17612l47.307083 0l0 37.196846l-47.307083 0z" fill-rule="evenodd"/><path fill="#ffffff" d="m222.72717 94.25454l0 -15.265625l4.609375 0l2.765625 10.40625l2.734375 -10.40625l4.625 0l0 15.265625l-2.859375 0l0 -12.015625l-3.03125 12.015625l-2.96875 0l-3.015625 -12.015625l0 12.015625l-2.859375 0z" fill-rule="nonzero"/><path fill="#0091da" d="m265.7221 68.17612l47.307068 0l0 37.196846l-47.307068 0z" fill-rule="evenodd"/><path stroke="#1a428a" stroke-width="4.0" stroke-linejoin="round" stroke-linecap="butt" d="m265.7221 68.17612l47.307068 0l0 37.196846l-47.307068 0z" fill-rule="evenodd"/><path fill="#ffffff" d="m282.00803 94.25454l0 -15.265625l4.609375 0l2.765625 10.40625l2.734375 -10.40625l4.625 0l0 15.265625l-2.859375 0l0 -12.015625l-3.03125 12.015625l-2.96875 0l-3.015625 -12.015625l0 12.015625l-2.859375 0z" fill-rule="nonzero"/><path fill="#0091da" d="m325.00293 68.17612l47.3071 0l0 37.196846l-47.3071 0z" fill-rule="evenodd"/><path stroke="#1a428a" stroke-width="4.0" stroke-linejoin="round" stroke-linecap="butt" d="m325.00293 68.17612l47.3071 0l0 37.196846l-47.3071 0z" fill-rule="evenodd"/><path fill="#ffffff" d="m341.28885 94.25454l0 -15.265625l4.609375 0l2.765625 10.40625l2.734375 -10.40625l4.625 0l0 15.265625l-2.859375 0l0 -12.015625l-3.03125 12.015625l-2.96875 0l-3.015625 -12.015625l0 12.015625l-2.859375 0z" fill-rule="nonzero"/><path fill="#78be20" d="m100.367455 42.797974l0 0c0 -2.0526276 1.6639862 -3.71661 3.7166061 -3.71661l14.897491 0l0 0c0.98571014 0 1.9310379 0.39157104 2.6280441 1.0885696c0.6969986 0.6970024 1.0885696 1.642334 1.0885696 2.6280403l0 14.8659935c0 2.0526276 -1.6639862 3.71661 -3.7166138 3.71661l-14.897491 0c-2.05262 0 -3.7166061 -1.6639824 -3.7166061 -3.71661z" fill-rule="evenodd"/><path fill="#1a428a" d="m159.64922 42.798065l0 0c0 -2.0526237 1.6639862 -3.71661 3.7166138 -3.71661l14.897491 0l0 0c0.9857025 0 1.9310455 0.39157104 2.6280365 1.0885696c0.6970062 0.6970024 1.0885773 1.642334 1.0885773 2.6280403l0 14.8659935c0 2.0526276 -1.6639862 3.71661 -3.7166138 3.71661l-14.897491 0c-2.0526276 0 -3.7166138 -1.6639824 -3.7166138 -3.71661z" fill-rule="evenodd"/><path fill="#7f35b2" d="m218.92955 42.798157l0 0c0 -2.0526237 1.663971 -3.71661 3.7165985 -3.71661l14.897491 0l0 0c0.9857025 0 1.9310455 0.39157104 2.6280365 1.0885735c0.6970062 0.6969986 1.0885773 1.6423302 1.0885773 2.6280365l0 14.8659935c0 2.0526276 -1.6639862 3.71661 -3.7166138 3.71661l-14.897491 0c-2.0526276 0 -3.7165985 -1.6639824 -3.7165985 -3.71661z" fill-rule="evenodd"/><path fill="#7f35b2" d="m278.2104 42.798157l0 0c0 -2.0526237 1.663971 -3.71661 3.7166138 -3.71661l14.897491 0l0 0c0.98568726 0 1.9310303 0.39157104 2.6280212 1.0885735c0.6970215 0.6969986 1.0885925 1.6423302 1.0885925 2.6280365l0 14.8659935c0 2.0526276 -1.6640015 3.71661 -3.7166138 3.71661l-14.897491 0c-2.0526428 0 -3.7166138 -1.6639824 -3.7166138 -3.71661z" fill-rule="evenodd"/><path fill="#0091da" d="m384.28378 68.4832l47.307068 0l0 37.196854l-47.307068 0z" fill-rule="evenodd"/><path stroke="#1a428a" stroke-width="4.0" stroke-linejoin="round" stroke-linecap="butt" d="m384.28378 68.4832l47.307068 0l0 37.196854l-47.307068 0z" fill-rule="evenodd"/><path fill="#ffffff" d="m400.5697 94.56162l0 -15.265625l4.609375 0l2.765625 10.40625l2.734375 -10.40625l4.625 0l0 15.265625l-2.859375 0l0 -12.015625l-3.03125 12.015625l-2.96875 0l-3.015625 -12.015625l0 12.015625l-2.859375 0z" fill-rule="nonzero"/><path fill="#78be20" d="m337.4908 42.797974l0 0c0 -2.0526276 1.663971 -3.71661 3.7166138 -3.71661l14.897491 0l0 0c0.98568726 0 1.9310303 0.39157104 2.6280212 1.0885696c0.6970215 0.6970024 1.0885925 1.642334 1.0885925 2.6280403l0 14.8659935c0 2.0526276 -1.6640015 3.71661 -3.7166138 3.71661l-14.897491 0c-2.0526428 0 -3.7166138 -1.6639824 -3.7166138 -3.71661z" fill-rule="evenodd"/><path fill="#78be20" d="m396.77167 42.797974l0 0c0 -2.0526276 1.663971 -3.71661 3.7165833 -3.71661l14.897491 0l0 0c0.9857178 0 1.9310608 0.39157104 2.6280518 1.0885696c0.69699097 0.6970024 1.088562 1.642334 1.088562 2.6280403l0 14.8659935c0 2.0526276 -1.663971 3.71661 -3.7166138 3.71661l-14.897491 0c-2.0526123 0 -3.7165833 -1.6639824 -3.7165833 -3.71661z" fill-rule="evenodd"/><path fill="#1a428a" d="m522.9327 98.6852l0 0c0 -2.0526276 1.6640015 -3.7166061 3.7166138 -3.7166061l14.897522 0l0 0c0.98565674 0 1.9310303 0.39157104 2.6279907 1.0885696c0.6970215 0.6969986 1.088562 1.642334 1.088562 2.6280365l0 14.865997c0 2.0526276 -1.6639404 3.7166061 -3.7165527 3.7166061l-14.897522 0c-2.0526123 0 -3.7166138 -1.6639786 -3.7166138 -3.7166061z" fill-rule="evenodd"/><path fill="#7f35b2" d="m522.9322 65.82558l0 0c0 -2.0526237 1.6639404 -3.7166061 3.7166138 -3.7166061l14.897461 0l0 0c0.9857178 0 1.9310303 0.39157104 2.6280518 1.0885696c0.69696045 0.6969986 1.088562 1.642334 1.088562 2.6280365l0 14.865997c0 2.0526276 -1.6640015 3.7166061 -3.7166138 3.7166061l-14.897461 0c-2.0526733 0 -3.7166138 -1.6639786 -3.7166138 -3.7166061z" fill-rule="evenodd"/><path fill="#78be20" d="m522.93176 32.965954l0 0c0 -2.0526276 1.6640015 -3.71661 3.7166138 -3.71661l14.897461 0l0 0c0.9857178 0 1.9310303 0.39157104 2.6280518 1.0885696c0.6970215 0.6970005 1.088562 1.642334 1.088562 2.6280403l0 14.8659935c0 2.0526276 -1.6639404 3.71661 -3.7166138 3.71661l-14.897461 0c-2.0526123 0 -3.7166138 -1.6639824 -3.7166138 -3.71661z" fill-rule="evenodd"/><path fill="#000000" fill-opacity="0.0" d="m560.1102 20.401575l112.47241 0l0 40.0l-112.47241 0z" fill-rule="evenodd"/><path fill="#1a428a" d="m584.4227 47.881573l-3.34375 0l-1.328125 -3.46875l-6.109375 0l-1.265625 3.46875l-3.265625 0l5.953125 -15.265625l3.25 0l6.109375 15.265625zm-5.671875 -6.046875l-2.09375 -5.65625l-2.0625 5.65625l4.15625 0zm7.277466 6.046875l0 -15.265625l4.609375 0l2.765625 10.40625l2.734375 -10.40625l4.625 0l0 15.265625l-2.859375 0l0 -12.015625l-3.03125 12.015625l-2.96875 0l-3.015625 -12.015625l0 12.015625l-2.859375 0zm17.79773 0l0 -15.265625l11.328125 0l0 2.578125l-8.234375 0l0 3.390625l7.65625 0l0 2.5625l-7.65625 0l0 4.15625l8.515625 0l0 2.578125l-11.609375 0zm14.241333 0l0 -15.265625l6.484375 0q2.453125 0 3.5625 0.421875q1.109375 0.40625 1.765625 1.453125q0.671875 1.046875 0.671875 2.40625q0 1.71875 -1.015625 2.84375q-1.0 1.109375 -3.015625 1.40625q1.0 0.578125 1.640625 1.28125q0.65625 0.6875 1.765625 2.46875l1.859375 2.984375l-3.6875 0l-2.21875 -3.328125q-1.1875 -1.78125 -1.625 -2.234375q-0.4375 -0.46875 -0.9375 -0.640625q-0.484375 -0.171875 -1.546875 -0.171875l-0.625 0l0 6.375l-3.078125 0zm3.078125 -8.8125l2.28125 0q2.21875 0 2.765625 -0.1875q0.5625 -0.1875 0.875 -0.640625q0.3125 -0.46875 0.3125 -1.140625q0 -0.78125 -0.421875 -1.25q-0.40625 -0.46875 -1.15625 -0.59375q-0.375 -0.0625 -2.25 -0.0625l-2.40625 0l0 3.875z" fill-rule="nonzero"/><path fill="#000000" fill-opacity="0.0" d="m560.1102 53.259842l112.47241 0l0 40.0l-112.47241 0z" fill-rule="evenodd"/><path fill="#1a428a" d="m570.6571 80.739845l0 -15.265625l11.328125 0l0 2.578125l-8.234375 0l0 3.390625l7.65625 0l0 2.5625l-7.65625 0l0 4.15625l8.515625 0l0 2.578125l-11.609375 0zm14.194397 0l0 -15.265625l4.609375 0l2.765625 10.40625l2.734375 -10.40625l4.625 0l0 15.265625l-2.859375 0l0 -12.015625l-3.03125 12.015625l-2.96875 0l-3.015625 -12.015625l0 12.015625l-2.859375 0zm17.79779 0l0 -15.265625l11.328125 0l0 2.578125l-8.234375 0l0 3.390625l7.65625 0l0 2.5625l-7.65625 0l0 4.15625l8.515625 0l0 2.578125l-11.609375 0zm27.991272 0l-3.34375 0l-1.328125 -3.46875l-6.109375 0l-1.265625 3.46875l-3.265625 0l5.953125 -15.265625l3.25 0l6.109375 15.265625zm-5.671875 -6.046875l-2.09375 -5.65625l-2.0625 5.65625l4.15625 0z" fill-rule="nonzero"/><path fill="#000000" fill-opacity="0.0" d="m560.1102 86.92913l112.47241 0l0 40.0l-112.47241 0z" fill-rule="evenodd"/><path fill="#1a428a" d="m584.4227 114.409134l-3.34375 0l-1.328125 -3.46875l-6.109375 0l-1.265625 3.46875l-3.265625 0l5.953125 -15.265625l3.25 0l6.109375 15.265625zm-5.671875 -6.046875l-2.09375 -5.65625l-2.0625 5.65625l4.15625 0zm7.308716 6.046875l0 -15.265625l4.953125 0q2.8125 0 3.671875 0.234375q1.296875 0.34375 2.1875 1.5q0.890625 1.140625 0.890625 2.953125q0 1.40625 -0.515625 2.375q-0.515625 0.953125 -1.296875 1.5q-0.78125 0.546875 -1.59375 0.71875q-1.109375 0.21875 -3.203125 0.21875l-2.0 0l0 5.765625l-3.09375 0zm3.09375 -12.6875l0 4.328125l1.6875 0q1.8125 0 2.421875 -0.234375q0.625 -0.234375 0.96875 -0.75q0.359375 -0.515625 0.359375 -1.1875q0 -0.828125 -0.5 -1.359375q-0.484375 -0.546875 -1.234375 -0.6875q-0.546875 -0.109375 -2.21875 -0.109375l-1.484375 0zm23.31427 12.6875l-3.34375 0l-1.328125 -3.46875l-6.109375 0l-1.265625 3.46875l-3.265625 0l5.953125 -15.265625l3.25 0l6.109375 15.265625zm-5.671875 -6.046875l-2.09375 -5.65625l-2.0625 5.65625l4.15625 0zm17.07434 0.4375l3.0 0.9375q-0.6875 2.5 -2.296875 3.71875q-1.59375 1.21875 -4.046875 1.21875q-3.046875 0 -5.0 -2.078125q-1.953125 -2.078125 -1.953125 -5.6875q0 -3.8125 1.96875 -5.921875q1.96875 -2.109375 5.171875 -2.109375q2.796875 0 4.546875 1.65625q1.046875 0.984375 1.5625 2.8125l-3.046875 0.734375q-0.28125 -1.1875 -1.140625 -1.875q-0.84375 -0.6875 -2.078125 -0.6875q-1.703125 0 -2.765625 1.21875q-1.046875 1.21875 -1.046875 3.9375q0 2.90625 1.03125 4.140625q1.046875 1.21875 2.71875 1.21875q1.234375 0 2.109375 -0.78125q0.890625 -0.78125 1.265625 -2.453125z" fill-rule="nonzero"/></g></svg>