<?xml version="1.0" encoding="UTF-8" standalone="no"?>
<!-- Created with Inkscape (http://www.inkscape.org/) -->

<svg
   width="145mm"
   height="145mm"
   viewBox="0 0 145 145"
   version="1.1"
   id="svg1"
   xml:space="preserve"
   inkscape:version="1.3.2 (091e20ef0f, 2023-11-25)"
   sodipodi:docname="metadata-store-minority.svg"
   xmlns:inkscape="http://www.inkscape.org/namespaces/inkscape"
   xmlns:sodipodi="http://sodipodi.sourceforge.net/DTD/sodipodi-0.dtd"
   xmlns="http://www.w3.org/2000/svg"
   xmlns:svg="http://www.w3.org/2000/svg"><sodipodi:namedview
     id="namedview1"
     pagecolor="#ffffff"
     bordercolor="#666666"
     borderopacity="1.0"
     inkscape:showpageshadow="2"
     inkscape:pageopacity="0.0"
     inkscape:pagecheckerboard="0"
     inkscape:deskcolor="#d1d1d1"
     inkscape:document-units="px"
     inkscape:zoom="1.4429172"
     inkscape:cx="339.93635"
     inkscape:cy="280.33487"
     inkscape:window-width="1916"
     inkscape:window-height="1029"
     inkscape:window-x="0"
     inkscape:window-y="0"
     inkscape:window-maximized="0"
     inkscape:current-layer="layer1" /><defs
     id="defs1"><marker
       style="overflow:visible"
       id="X"
       refX="0"
       refY="0"
       orient="auto"
       inkscape:stockid="X"
       markerWidth="1"
       markerHeight="1"
       viewBox="0 0 1 1"
       inkscape:isstock="true"
       inkscape:collect="always"
       preserveAspectRatio="xMidYMid"><path
         style="fill:none;stroke:context-stroke;stroke-width:1"
         d="M -3,3 3,-3 M 3,3 -3,-3"
         id="path24" /></marker><marker
       style="overflow:visible"
       id="Triangle"
       refX="0"
       refY="0"
       orient="auto-start-reverse"
       inkscape:stockid="Triangle arrow"
       markerWidth="1"
       markerHeight="1"
       viewBox="0 0 1 1"
       inkscape:isstock="true"
       inkscape:collect="always"
       preserveAspectRatio="xMidYMid"><path
         transform="scale(0.5)"
         style="fill:context-stroke;fill-rule:evenodd;stroke:context-stroke;stroke-width:1pt"
         d="M 5.77,0 -2.88,5 V -5 Z"
         id="path135" /></marker></defs><g
     inkscape:label="Layer 1"
     inkscape:groupmode="layer"
     id="layer1"
     transform="translate(-37.015271,-57.053695)"><rect
       style="fill:none;fill-rule:evenodd;stroke:#000000;stroke-width:0.264583;stroke-dasharray:none"
       id="rect6"
       width="28.839584"
       height="28.839584"
       x="66.046844"
       y="165.10895"
       rx="1.0583333"
       ry="1.0583333" /><rect
       style="fill:none;fill-rule:evenodd;stroke:#000000;stroke-width:0.264583;stroke-dasharray:none"
       id="rect9"
       width="28.839584"
       height="28.839584"
       x="123.98234"
       y="165.10895"
       rx="1.0583333"
       ry="1.0583333" /><rect
       style="fill:none;fill-rule:evenodd;stroke:#000000;stroke-width:0.264583;stroke-dasharray:none"
       id="rect12"
       width="28.839584"
       height="28.839584"
       x="146.67647"
       y="104.54118"
       rx="1.0583333"
       ry="1.0583333" /><rect
       style="fill:none;fill-rule:evenodd;stroke:#000000;stroke-width:0.264583;stroke-dasharray:none"
       id="rect15"
       width="28.839584"
       height="28.839584"
       x="95.110695"
       y="65.158875"
       rx="1.0583333"
       ry="1.0583333" /><rect
       style="fill:none;fill-rule:evenodd;stroke:#000000;stroke-width:0.264583;stroke-dasharray:none"
       id="rect18"
       width="28.839584"
       height="28.839584"
       x="43.544918"
       y="104.54118"
       rx="1.0583333"
       ry="1.0583333" /><path
       d="m 114.41204,75.781892 c 0,0.898669 -2.18553,1.627188 -4.88156,1.627188 -2.69601,0 -4.88156,-0.728519 -4.88156,-1.627188 m 9.76312,0 c 0,-0.898668 -2.18553,-1.627187 -4.88156,-1.627187 -2.69601,0 -4.88156,0.728519 -4.88156,1.627187 m 9.76312,0 v 7.593542 c 0,0.900377 -2.16958,1.627187 -4.88156,1.627187 -2.71198,0 -4.88156,-0.72681 -4.88156,-1.627187 v -7.593542 m 9.76312,3.796771 c 0,0.900377 -2.16958,1.627187 -4.88156,1.627187 -2.71198,0 -4.88156,-0.72681 -4.88156,-1.627187"
       stroke="#000000"
       stroke-width="1.08479"
       stroke-linecap="round"
       stroke-linejoin="round"
       id="path1"
       style="fill:none" /><text
       xml:space="preserve"
       style="font-style:normal;font-variant:normal;font-weight:normal;font-stretch:normal;font-size:4.02167px;line-height:1.25;font-family:'Liberation Mono';-inkscape-font-specification:'Liberation Mono';text-align:center;letter-spacing:0px;baseline-shift:baseline;text-anchor:middle;stroke-width:0.264583;fill:#000000"
       x="80.356667"
       y="198.05328"
       id="text7"><tspan
         sodipodi:role="line"
         id="tspan7"
         style="font-style:normal;font-variant:normal;font-weight:normal;font-stretch:normal;font-size:4.02167px;font-family:'Liberation Mono';-inkscape-font-specification:'Liberation Mono';text-align:center;baseline-shift:baseline;text-anchor:middle;stroke-width:0.264583;fill:#000000"
         x="80.356667"
         y="198.05328">rabbit@host-5</tspan></text><path
       d="m 85.348193,175.73197 c 0,0.89867 -2.185529,1.62719 -4.881562,1.62719 -2.696011,0 -4.881563,-0.72852 -4.881563,-1.62719 m 9.763125,0 c 0,-0.89867 -2.185529,-1.62719 -4.881562,-1.62719 -2.696011,0 -4.881563,0.72852 -4.881563,1.62719 m 9.763125,0 v 7.59354 c 0,0.90038 -2.169583,1.62719 -4.881562,1.62719 -2.711979,0 -4.881563,-0.72681 -4.881563,-1.62719 v -7.59354 m 9.763125,3.79677 c 0,0.90038 -2.169583,1.62719 -4.881562,1.62719 -2.711979,0 -4.881563,-0.72681 -4.881563,-1.62719"
       stroke="#000000"
       stroke-width="1.08479"
       stroke-linecap="round"
       stroke-linejoin="round"
       id="path7"
       style="fill:none" /><text
       xml:space="preserve"
       style="font-style:normal;font-variant:normal;font-weight:normal;font-stretch:normal;font-size:4.02167px;line-height:1.25;font-family:'Liberation Mono';-inkscape-font-specification:'Liberation Mono';text-align:center;letter-spacing:0px;baseline-shift:baseline;text-anchor:middle;stroke-width:0.264583;fill:#000000"
       x="138.26663"
       y="198.05328"
       id="text10"><tspan
         sodipodi:role="line"
         id="tspan10"
         style="font-style:normal;font-variant:normal;font-weight:normal;font-stretch:normal;font-size:4.02167px;font-family:'Liberation Mono';-inkscape-font-specification:'Liberation Mono';text-align:center;baseline-shift:baseline;text-anchor:middle;stroke-width:0.264583;fill:#000000"
         x="138.26663"
         y="198.05328">rabbit@host-4</tspan></text><path
       d="m 143.28369,175.73197 c 0,0.89867 -2.18553,1.62719 -4.88156,1.62719 -2.69601,0 -4.88156,-0.72852 -4.88156,-1.62719 m 9.76312,0 c 0,-0.89867 -2.18553,-1.62719 -4.88156,-1.62719 -2.69601,0 -4.88156,0.72852 -4.88156,1.62719 m 9.76312,0 v 7.59354 c 0,0.90038 -2.16958,1.62719 -4.88156,1.62719 -2.71198,0 -4.88156,-0.72681 -4.88156,-1.62719 v -7.59354 m 9.76312,3.79677 c 0,0.90038 -2.16958,1.62719 -4.88156,1.62719 -2.71198,0 -4.88156,-0.72681 -4.88156,-1.62719"
       stroke="#000000"
       stroke-width="1.08479"
       stroke-linecap="round"
       stroke-linejoin="round"
       id="path10"
       style="fill:none" /><text
       xml:space="preserve"
       style="font-style:normal;font-variant:normal;font-weight:normal;font-stretch:normal;font-size:4.02167px;line-height:1.25;font-family:'Liberation Mono';-inkscape-font-specification:'Liberation Mono';text-align:center;letter-spacing:0px;baseline-shift:baseline;text-anchor:middle;stroke-width:0.264583;fill:#000000"
       x="160.9863"
       y="102.79483"
       id="text13"><tspan
         sodipodi:role="line"
         id="tspan13"
         style="font-style:normal;font-variant:normal;font-weight:normal;font-stretch:normal;font-size:4.02167px;font-family:'Liberation Mono';-inkscape-font-specification:'Liberation Mono';text-align:center;baseline-shift:baseline;text-anchor:middle;stroke-width:0.264583;fill:#000000"
         x="160.9863"
         y="102.79483">rabbit@host-3</tspan></text><path
       d="m 165.97782,115.16421 c 0,0.89867 -2.18553,1.62719 -4.88156,1.62719 -2.69601,0 -4.88156,-0.72852 -4.88156,-1.62719 m 9.76312,0 c 0,-0.89867 -2.18553,-1.62719 -4.88156,-1.62719 -2.69601,0 -4.88156,0.72852 -4.88156,1.62719 m 9.76312,0 v 7.59354 c 0,0.90038 -2.16958,1.62719 -4.88156,1.62719 -2.71198,0 -4.88156,-0.72681 -4.88156,-1.62719 v -7.59354 m 9.76312,3.79677 c 0,0.90038 -2.16958,1.62719 -4.88156,1.62719 -2.71198,0 -4.88156,-0.72681 -4.88156,-1.62719"
       stroke="#000000"
       stroke-width="1.08479"
       stroke-linecap="round"
       stroke-linejoin="round"
       id="path13"
       style="fill:none" /><text
       xml:space="preserve"
       style="font-style:normal;font-variant:normal;font-weight:normal;font-stretch:normal;font-size:4.02167px;line-height:1.25;font-family:'Liberation Mono';-inkscape-font-specification:'Liberation Mono';text-align:center;letter-spacing:0px;baseline-shift:baseline;text-anchor:middle;stroke-width:0.264583;fill:#000000"
       x="109.43525"
       y="63.412521"
       id="text16"><tspan
         sodipodi:role="line"
         id="tspan16"
         style="font-style:normal;font-variant:normal;font-weight:normal;font-stretch:normal;font-size:4.02167px;font-family:'Liberation Mono';-inkscape-font-specification:'Liberation Mono';text-align:center;baseline-shift:baseline;text-anchor:middle;stroke-width:0.264583;fill:#000000"
         x="109.43525"
         y="63.412521">rabbit@host-2</tspan></text><path
       d="m 62.846273,115.16421 c 0,0.89867 -2.185529,1.62719 -4.881562,1.62719 -2.696011,0 -4.881563,-0.72852 -4.881563,-1.62719 m 9.763125,0 c 0,-0.89867 -2.185529,-1.62719 -4.881562,-1.62719 -2.696011,0 -4.881563,0.72852 -4.881563,1.62719 m 9.763125,0 v 7.59354 c 0,0.90038 -2.169583,1.62719 -4.881562,1.62719 -2.711979,0 -4.881563,-0.72681 -4.881563,-1.62719 v -7.59354 m 9.763125,3.79677 c 0,0.90038 -2.169583,1.62719 -4.881562,1.62719 -2.711979,0 -4.881563,-0.72681 -4.881563,-1.62719"
       stroke="#000000"
       stroke-width="1.08479"
       stroke-linecap="round"
       stroke-linejoin="round"
       id="path16"
       style="fill:none" /><text
       xml:space="preserve"
       style="font-style:normal;font-variant:normal;font-weight:normal;font-stretch:normal;font-size:4.02167px;line-height:1.25;font-family:'Liberation Mono';-inkscape-font-specification:'Liberation Mono';text-align:center;letter-spacing:0px;baseline-shift:baseline;text-anchor:middle;stroke-width:0.264583;fill:#000000"
       x="57.824306"
       y="102.79483"
       id="text19"><tspan
         sodipodi:role="line"
         id="tspan19"
         style="font-style:normal;font-variant:normal;font-weight:normal;font-stretch:normal;font-size:4.02167px;font-family:'Liberation Mono';-inkscape-font-specification:'Liberation Mono';text-align:center;baseline-shift:baseline;text-anchor:middle;stroke-width:0.264583;fill:#000000"
         x="57.824306"
         y="102.79483">rabbit@host-1</tspan></text><path
       style="fill:none;stroke:#ff2a2a;stroke-width:0.264583px;stroke-linecap:butt;stroke-linejoin:miter;stroke-dasharray:1.05833, 1.05833;stroke-dashoffset:0;stroke-opacity:1;marker-start:url(#X)"
       d="m 123.7891,129.51475 6.0649,18.66584 8.1937,25.21764"
       id="path35"
       sodipodi:nodetypes="ccc" /><path
       style="fill:none;stroke:#ff2a2a;stroke-width:0.264583px;stroke-linecap:butt;stroke-linejoin:miter;stroke-dasharray:1.05833, 1.05833;stroke-dashoffset:0;stroke-opacity:1;marker-start:url(#X)"
       d="m 100.71818,146.27675 8.89063,6.45942 28.43889,20.66206"
       id="path36"
       sodipodi:nodetypes="ccc" /><path
       id="path2"
       style="fill:none;fill-rule:evenodd;stroke:#ff2a2a;stroke-width:0.264583;stroke-dasharray:1.05833, 1.05833;stroke-dashoffset:0;marker-start:url(#X)"
       inkscape:transform-center-x="-2.3529087e-06"
       inkscape:transform-center-y="-4.6329043"
       d="m 146.86,146.27675 -8.8123,27.12148"
       sodipodi:nodetypes="cc" /><path
       style="fill:none;stroke:#538d22;stroke-width:0.264583px;stroke-linecap:butt;stroke-linejoin:miter;stroke-dasharray:1.05833, 1.05833;stroke-dashoffset:0;stroke-opacity:1"
       d="M 63.388657,119.15527 H 155.6723"
       id="path33"
       sodipodi:nodetypes="cc" /><path
       id="path32"
       style="fill:none;fill-rule:evenodd;stroke:#538d22;stroke-width:0.264583;stroke-dasharray:1.05833, 1.05833;stroke-dashoffset:0;stroke-opacity:1"
       inkscape:transform-center-x="-2.3529087e-06"
       inkscape:transform-center-y="-4.6329043"
       d="M 63.38866,119.15527 109.53049,85.631273 155.6723,119.15527"
       sodipodi:nodetypes="ccc" /><g
       id="g15"
       transform="translate(0.44919539,-0.5269966)"
       style="stroke:#538d22;stroke-opacity:1"><g
         style="fill:none;stroke:#538d22;stroke-opacity:1"
         id="g10"
         transform="matrix(0.2405303,0,0,0.2405303,96.445661,167.11738)"><path
           d="m 8,15 h 8 M 15,9 h 0.01 M 9,9 H 9.01 M 22,12 C 22,17.5228 17.5228,22 12,22 6.47715,22 2,17.5228 2,12 2,6.47715 6.47715,2 12,2 17.5228,2 22,6.47715 22,12 Z M 15.5,9 c 0,0.27614 -0.2239,0.5 -0.5,0.5 -0.2761,0 -0.5,-0.22386 -0.5,-0.5 0,-0.27614 0.2239,-0.5 0.5,-0.5 0.2761,0 0.5,0.22386 0.5,0.5 z m -6,0 C 9.5,9.27614 9.27614,9.5 9,9.5 8.72386,9.5 8.5,9.27614 8.5,9 8.5,8.72386 8.72386,8.5 9,8.5 9.27614,8.5 9.5,8.72386 9.5,9 Z"
           stroke="#000000"
           stroke-width="2"
           stroke-linecap="round"
           stroke-linejoin="round"
           id="path1-1"
           style="stroke:#538d22;stroke-opacity:1" /></g><g
         style="fill:none;stroke:#538d22;stroke-opacity:1"
         id="g12"
         transform="matrix(0.26454232,0,0,0.26454232,99.861673,161.41637)"><path
           d="m 10,8.00224 c 0.1762,-0.50088 0.524,-0.92323 0.9817,-1.19226 0.4578,-0.26903 0.996,-0.36738 1.5193,-0.27761 0.5233,0.08976 0.998,0.36184 1.3399,0.76804 0.342,0.4062 0.5291,0.92031 0.5283,1.45127 C 14.3692,10.2506 12.1209,11 12.1209,11 m 0.029,3 h 0.01 M 7,18 v 2.3355 c 0,0.5329 0,0.7993 0.10923,0.9361 0.09499,0.119 0.23904,0.1883 0.39131,0.1881 0.17509,-2e-4 0.38313,-0.1666 0.79922,-0.4995 l 2.38544,-1.9084 c 0.4873,-0.3898 0.731,-0.5847 1.0023,-0.7233 0.2407,-0.123 0.4969,-0.2129 0.7617,-0.2672 C 12.7477,18 13.0597,18 13.6837,18 H 16.2 c 1.6802,0 2.5202,0 3.162,-0.327 0.5645,-0.2876 1.0234,-0.7465 1.311,-1.311 C 21,15.7202 21,14.8802 21,13.2 V 7.8 C 21,6.11984 21,5.27976 20.673,4.63803 20.3854,4.07354 19.9265,3.6146 19.362,3.32698 18.7202,3 17.8802,3 16.2,3 H 7.8 C 6.11984,3 5.27976,3 4.63803,3.32698 4.07354,3.6146 3.6146,4.07354 3.32698,4.63803 3,5.27976 3,6.11984 3,7.8 V 14 c 0,0.93 0,1.395 0.10222,1.7765 0.2774,1.0352 1.08605,1.8439 2.12132,2.1213 C 5.60504,18 6.07003,18 7,18 Z"
           stroke="#000000"
           stroke-width="2"
           stroke-linecap="round"
           stroke-linejoin="round"
           id="path1-37"
           style="stroke:#538d22;stroke-opacity:1" /></g></g><g
       id="g16"
       transform="translate(-1.0762783,-0.5269966)"
       style="stroke:#ff6600"><g
         style="fill:none;stroke:#ff6600"
         id="g5"
         transform="matrix(0.2405303,0,0,0.2405303,117.27746,167.11738)"><path
           d="m 16,16 c 0,0 -1.5,-2 -4,-2 -2.5,0 -4,2 -4,2 m 7,-7 h 0.01 M 9,9 H 9.01 M 22,12 C 22,17.5228 17.5228,22 12,22 6.47715,22 2,17.5228 2,12 2,6.47715 6.47715,2 12,2 17.5228,2 22,6.47715 22,12 Z M 15.5,9 c 0,0.27614 -0.2239,0.5 -0.5,0.5 -0.2761,0 -0.5,-0.22386 -0.5,-0.5 0,-0.27614 0.2239,-0.5 0.5,-0.5 0.2761,0 0.5,0.22386 0.5,0.5 z m -6,0 C 9.5,9.27614 9.27614,9.5 9,9.5 8.72386,9.5 8.5,9.27614 8.5,9 8.5,8.72386 8.72386,8.5 9,8.5 9.27614,8.5 9.5,8.72386 9.5,9 Z"
           stroke="#000000"
           stroke-width="2"
           stroke-linecap="round"
           stroke-linejoin="round"
           id="path1-58"
           style="stroke:#ff6600" /></g><g
         style="fill:none;stroke:#ff6600"
         id="g13"
         transform="matrix(-0.26454232,0,0,0.26454232,119.63417,161.41637)"><path
           d="m 7.5,10.5 h 0.01 m 4.49,0 h 0.01 m 4.49,0 h 0.01 M 7,18 v 2.3355 c 0,0.5329 0,0.7993 0.10923,0.9361 0.09499,0.119 0.23904,0.1883 0.39131,0.1881 0.17509,-2e-4 0.38313,-0.1666 0.79922,-0.4995 l 2.38544,-1.9084 c 0.4873,-0.3898 0.731,-0.5847 1.0023,-0.7233 0.2407,-0.123 0.4969,-0.2129 0.7617,-0.2672 C 12.7477,18 13.0597,18 13.6837,18 H 16.2 c 1.6802,0 2.5202,0 3.162,-0.327 0.5645,-0.2876 1.0234,-0.7465 1.311,-1.311 C 21,15.7202 21,14.8802 21,13.2 V 7.8 C 21,6.11984 21,5.27976 20.673,4.63803 20.3854,4.07354 19.9265,3.6146 19.362,3.32698 18.7202,3 17.8802,3 16.2,3 H 7.8 C 6.11984,3 5.27976,3 4.63803,3.32698 4.07354,3.6146 3.6146,4.07354 3.32698,4.63803 3,5.27976 3,6.11984 3,7.8 V 14 c 0,0.93 0,1.395 0.10222,1.7765 0.2774,1.0352 1.08605,1.8439 2.12132,2.1213 C 5.60504,18 6.07003,18 7,18 Z M 8,10.5 C 8,10.7761 7.77614,11 7.5,11 7.22386,11 7,10.7761 7,10.5 7,10.2239 7.22386,10 7.5,10 7.77614,10 8,10.2239 8,10.5 Z m 4.5,0 c 0,0.2761 -0.2239,0.5 -0.5,0.5 -0.2761,0 -0.5,-0.2239 -0.5,-0.5 0,-0.2761 0.2239,-0.5 0.5,-0.5 0.2761,0 0.5,0.2239 0.5,0.5 z m 4.5,0 C 17,10.7761 16.7761,11 16.5,11 16.2239,11 16,10.7761 16,10.5 16,10.2239 16.2239,10 16.5,10 c 0.2761,0 0.5,0.2239 0.5,0.5 z"
           stroke="#000000"
           stroke-width="2"
           stroke-linecap="round"
           stroke-linejoin="round"
           id="path1-2"
           style="stroke:#ff6600" /></g></g><path
       id="path32-0"
       style="fill:none;fill-rule:evenodd;stroke:#000000;stroke-width:0.264583;stroke-dasharray:1.05833, 1.05833;stroke-dashoffset:0;marker-start:url(#Triangle)"
       inkscape:transform-center-x="-2.3529087e-06"
       inkscape:transform-center-y="-4.6329043"
       d="M 103.7994,173.46605 H 80.929313"
       sodipodi:nodetypes="cc" /></g></svg>
