<?xml version="1.0" encoding="UTF-8" standalone="no"?>
<!-- Created with Inkscape (http://www.inkscape.org/) -->

<svg
   width="145mm"
   height="145mm"
   viewBox="0 0 145 145"
   version="1.1"
   id="svg1"
   xml:space="preserve"
   inkscape:version="1.3.2 (091e20ef0f, 2023-11-25)"
   sodipodi:docname="metadata-store-cluster.svg"
   xmlns:inkscape="http://www.inkscape.org/namespaces/inkscape"
   xmlns:sodipodi="http://sodipodi.sourceforge.net/DTD/sodipodi-0.dtd"
   xmlns="http://www.w3.org/2000/svg"
   xmlns:svg="http://www.w3.org/2000/svg"><sodipodi:namedview
     id="namedview1"
     pagecolor="#ffffff"
     bordercolor="#666666"
     borderopacity="1.0"
     inkscape:showpageshadow="2"
     inkscape:pageopacity="0.0"
     inkscape:pagecheckerboard="0"
     inkscape:deskcolor="#d1d1d1"
     inkscape:document-units="px"
     inkscape:zoom="1.0418268"
     inkscape:cx="375.78224"
     inkscape:cy="312.43198"
     inkscape:window-width="1916"
     inkscape:window-height="1029"
     inkscape:window-x="0"
     inkscape:window-y="0"
     inkscape:window-maximized="0"
     inkscape:current-layer="layer1" /><defs
     id="defs1" /><g
     inkscape:label="Layer 1"
     inkscape:groupmode="layer"
     id="layer1"
     transform="translate(-37.015271,-57.053695)"><rect
       style="fill:none;fill-rule:evenodd;stroke:#000000;stroke-width:0.264583;stroke-dasharray:none"
       id="rect6"
       width="28.839584"
       height="28.839584"
       x="66.046844"
       y="165.10895"
       rx="1.0583333"
       ry="1.0583333" /><rect
       style="fill:none;fill-rule:evenodd;stroke:#000000;stroke-width:0.264583;stroke-dasharray:none"
       id="rect9"
       width="28.839584"
       height="28.839584"
       x="123.98234"
       y="165.10895"
       rx="1.0583333"
       ry="1.0583333" /><rect
       style="fill:none;fill-rule:evenodd;stroke:#000000;stroke-width:0.264583;stroke-dasharray:none"
       id="rect12"
       width="28.839584"
       height="28.839584"
       x="146.67647"
       y="104.54118"
       rx="1.0583333"
       ry="1.0583333" /><rect
       style="fill:none;fill-rule:evenodd;stroke:#000000;stroke-width:0.264583;stroke-dasharray:none"
       id="rect15"
       width="28.839584"
       height="28.839584"
       x="95.110695"
       y="65.158875"
       rx="1.0583333"
       ry="1.0583333" /><rect
       style="fill:none;fill-rule:evenodd;stroke:#000000;stroke-width:0.264583;stroke-dasharray:none"
       id="rect18"
       width="28.839584"
       height="28.839584"
       x="43.544918"
       y="104.54118"
       rx="1.0583333"
       ry="1.0583333" /><path
       d="m 114.41204,75.781892 c 0,0.898669 -2.18553,1.627188 -4.88156,1.627188 -2.69601,0 -4.88156,-0.728519 -4.88156,-1.627188 m 9.76312,0 c 0,-0.898668 -2.18553,-1.627187 -4.88156,-1.627187 -2.69601,0 -4.88156,0.728519 -4.88156,1.627187 m 9.76312,0 v 7.593542 c 0,0.900377 -2.16958,1.627187 -4.88156,1.627187 -2.71198,0 -4.88156,-0.72681 -4.88156,-1.627187 v -7.593542 m 9.76312,3.796771 c 0,0.900377 -2.16958,1.627187 -4.88156,1.627187 -2.71198,0 -4.88156,-0.72681 -4.88156,-1.627187"
       stroke="#000000"
       stroke-width="1.08479"
       stroke-linecap="round"
       stroke-linejoin="round"
       id="path1"
       style="fill:none" /><text
       xml:space="preserve"
       style="font-style:normal;font-variant:normal;font-weight:normal;font-stretch:normal;font-size:4.02167px;line-height:1.25;font-family:'Liberation Mono';-inkscape-font-specification:'Liberation Mono';text-align:center;letter-spacing:0px;baseline-shift:baseline;text-anchor:middle;stroke-width:0.264583;fill:#000000"
       x="80.356667"
       y="198.05328"
       id="text7"><tspan
         sodipodi:role="line"
         id="tspan7"
         style="font-style:normal;font-variant:normal;font-weight:normal;font-stretch:normal;font-size:4.02167px;font-family:'Liberation Mono';-inkscape-font-specification:'Liberation Mono';text-align:center;baseline-shift:baseline;text-anchor:middle;stroke-width:0.264583;fill:#000000"
         x="80.356667"
         y="198.05328">rabbit@host-5</tspan></text><path
       d="m 85.348193,175.73197 c 0,0.89867 -2.185529,1.62719 -4.881562,1.62719 -2.696011,0 -4.881563,-0.72852 -4.881563,-1.62719 m 9.763125,0 c 0,-0.89867 -2.185529,-1.62719 -4.881562,-1.62719 -2.696011,0 -4.881563,0.72852 -4.881563,1.62719 m 9.763125,0 v 7.59354 c 0,0.90038 -2.169583,1.62719 -4.881562,1.62719 -2.711979,0 -4.881563,-0.72681 -4.881563,-1.62719 v -7.59354 m 9.763125,3.79677 c 0,0.90038 -2.169583,1.62719 -4.881562,1.62719 -2.711979,0 -4.881563,-0.72681 -4.881563,-1.62719"
       stroke="#000000"
       stroke-width="1.08479"
       stroke-linecap="round"
       stroke-linejoin="round"
       id="path7"
       style="fill:none" /><text
       xml:space="preserve"
       style="font-style:normal;font-variant:normal;font-weight:normal;font-stretch:normal;font-size:4.02167px;line-height:1.25;font-family:'Liberation Mono';-inkscape-font-specification:'Liberation Mono';text-align:center;letter-spacing:0px;baseline-shift:baseline;text-anchor:middle;stroke-width:0.264583;fill:#000000"
       x="138.26663"
       y="198.05328"
       id="text10"><tspan
         sodipodi:role="line"
         id="tspan10"
         style="font-style:normal;font-variant:normal;font-weight:normal;font-stretch:normal;font-size:4.02167px;font-family:'Liberation Mono';-inkscape-font-specification:'Liberation Mono';text-align:center;baseline-shift:baseline;text-anchor:middle;stroke-width:0.264583;fill:#000000"
         x="138.26663"
         y="198.05328">rabbit@host-4</tspan></text><path
       d="m 143.28369,175.73197 c 0,0.89867 -2.18553,1.62719 -4.88156,1.62719 -2.69601,0 -4.88156,-0.72852 -4.88156,-1.62719 m 9.76312,0 c 0,-0.89867 -2.18553,-1.62719 -4.88156,-1.62719 -2.69601,0 -4.88156,0.72852 -4.88156,1.62719 m 9.76312,0 v 7.59354 c 0,0.90038 -2.16958,1.62719 -4.88156,1.62719 -2.71198,0 -4.88156,-0.72681 -4.88156,-1.62719 v -7.59354 m 9.76312,3.79677 c 0,0.90038 -2.16958,1.62719 -4.88156,1.62719 -2.71198,0 -4.88156,-0.72681 -4.88156,-1.62719"
       stroke="#000000"
       stroke-width="1.08479"
       stroke-linecap="round"
       stroke-linejoin="round"
       id="path10"
       style="fill:none" /><text
       xml:space="preserve"
       style="font-style:normal;font-variant:normal;font-weight:normal;font-stretch:normal;font-size:4.02167px;line-height:1.25;font-family:'Liberation Mono';-inkscape-font-specification:'Liberation Mono';text-align:center;letter-spacing:0px;baseline-shift:baseline;text-anchor:middle;stroke-width:0.264583;fill:#000000"
       x="160.9863"
       y="102.79483"
       id="text13"><tspan
         sodipodi:role="line"
         id="tspan13"
         style="font-style:normal;font-variant:normal;font-weight:normal;font-stretch:normal;font-size:4.02167px;font-family:'Liberation Mono';-inkscape-font-specification:'Liberation Mono';text-align:center;baseline-shift:baseline;text-anchor:middle;stroke-width:0.264583;fill:#000000"
         x="160.9863"
         y="102.79483">rabbit@host-3</tspan></text><path
       d="m 165.97782,115.16421 c 0,0.89867 -2.18553,1.62719 -4.88156,1.62719 -2.69601,0 -4.88156,-0.72852 -4.88156,-1.62719 m 9.76312,0 c 0,-0.89867 -2.18553,-1.62719 -4.88156,-1.62719 -2.69601,0 -4.88156,0.72852 -4.88156,1.62719 m 9.76312,0 v 7.59354 c 0,0.90038 -2.16958,1.62719 -4.88156,1.62719 -2.71198,0 -4.88156,-0.72681 -4.88156,-1.62719 v -7.59354 m 9.76312,3.79677 c 0,0.90038 -2.16958,1.62719 -4.88156,1.62719 -2.71198,0 -4.88156,-0.72681 -4.88156,-1.62719"
       stroke="#000000"
       stroke-width="1.08479"
       stroke-linecap="round"
       stroke-linejoin="round"
       id="path13"
       style="fill:none" /><text
       xml:space="preserve"
       style="font-style:normal;font-variant:normal;font-weight:normal;font-stretch:normal;font-size:4.02167px;line-height:1.25;font-family:'Liberation Mono';-inkscape-font-specification:'Liberation Mono';text-align:center;letter-spacing:0px;baseline-shift:baseline;text-anchor:middle;stroke-width:0.264583;fill:#000000"
       x="109.43525"
       y="63.412521"
       id="text16"><tspan
         sodipodi:role="line"
         id="tspan16"
         style="font-style:normal;font-variant:normal;font-weight:normal;font-stretch:normal;font-size:4.02167px;font-family:'Liberation Mono';-inkscape-font-specification:'Liberation Mono';text-align:center;baseline-shift:baseline;text-anchor:middle;stroke-width:0.264583;fill:#000000"
         x="109.43525"
         y="63.412521">rabbit@host-2</tspan></text><path
       d="m 62.846273,115.16421 c 0,0.89867 -2.185529,1.62719 -4.881562,1.62719 -2.696011,0 -4.881563,-0.72852 -4.881563,-1.62719 m 9.763125,0 c 0,-0.89867 -2.185529,-1.62719 -4.881562,-1.62719 -2.696011,0 -4.881563,0.72852 -4.881563,1.62719 m 9.763125,0 v 7.59354 c 0,0.90038 -2.169583,1.62719 -4.881562,1.62719 -2.711979,0 -4.881563,-0.72681 -4.881563,-1.62719 v -7.59354 m 9.763125,3.79677 c 0,0.90038 -2.169583,1.62719 -4.881562,1.62719 -2.711979,0 -4.881563,-0.72681 -4.881563,-1.62719"
       stroke="#000000"
       stroke-width="1.08479"
       stroke-linecap="round"
       stroke-linejoin="round"
       id="path16"
       style="fill:none" /><text
       xml:space="preserve"
       style="font-style:normal;font-variant:normal;font-weight:normal;font-stretch:normal;font-size:4.02167px;line-height:1.25;font-family:'Liberation Mono';-inkscape-font-specification:'Liberation Mono';text-align:center;letter-spacing:0px;baseline-shift:baseline;text-anchor:middle;stroke-width:0.264583;fill:#000000"
       x="57.824306"
       y="102.79483"
       id="text19"><tspan
         sodipodi:role="line"
         id="tspan19"
         style="font-style:normal;font-variant:normal;font-weight:normal;font-stretch:normal;font-size:4.02167px;font-family:'Liberation Mono';-inkscape-font-specification:'Liberation Mono';text-align:center;baseline-shift:baseline;text-anchor:middle;stroke-width:0.264583;fill:#000000"
         x="57.824306"
         y="102.79483">rabbit@host-1</tspan></text><path
       id="path32"
       style="fill:none;fill-rule:evenodd;stroke:#538d22;stroke-width:0.264583;stroke-dasharray:1.05833, 1.05833;stroke-dashoffset:0;stroke-opacity:1"
       inkscape:transform-center-x="-2.3529087e-06"
       inkscape:transform-center-y="-4.6329043"
       d="m 109.53049,85.631273 46.14181,33.523997 -17.6246,54.24296 H 81.01327 L 63.38866,119.15527 Z"
       sodipodi:nodetypes="cccccc" /><path
       style="fill:none;stroke:#538d22;stroke-width:0.264583px;stroke-linecap:butt;stroke-linejoin:miter;stroke-dasharray:1.05833, 1.05833;stroke-dashoffset:0;stroke-opacity:1"
       d="M 63.388657,119.15527 H 155.6723"
       id="path33"
       sodipodi:nodetypes="cc" /><path
       style="fill:none;stroke:#538d22;stroke-width:0.264583px;stroke-linecap:butt;stroke-linejoin:miter;stroke-dasharray:1.05833, 1.05833;stroke-dashoffset:0;stroke-opacity:1"
       d="M 109.53049,85.631273 81.013267,173.39823"
       id="path34"
       sodipodi:nodetypes="cc" /><path
       style="fill:none;stroke:#538d22;stroke-width:0.264583px;stroke-linecap:butt;stroke-linejoin:miter;stroke-dasharray:1.05833, 1.05833;stroke-dashoffset:0;stroke-opacity:1"
       d="M 109.53049,85.631273 138.0477,173.39823"
       id="path35"
       sodipodi:nodetypes="cc" /><path
       style="fill:none;stroke:#538d22;stroke-width:0.264583px;stroke-linecap:butt;stroke-linejoin:miter;stroke-dasharray:1.05833, 1.05833;stroke-dashoffset:0;stroke-opacity:1"
       d="M 63.388657,119.15527 138.0477,173.39823"
       id="path36"
       sodipodi:nodetypes="cc" /><path
       style="fill:none;stroke:#538d22;stroke-width:0.264583px;stroke-linecap:butt;stroke-linejoin:miter;stroke-dasharray:1.05833, 1.05833;stroke-dashoffset:0;stroke-opacity:1"
       d="M 155.6723,119.15527 81.013267,173.39823"
       id="path37"
       sodipodi:nodetypes="cc" /></g></svg>
