<svg xmlns="http://www.w3.org/2000/svg" xmlns:xlink="http://www.w3.org/1999/xlink" viewBox="0 0 984 305"><defs><style>.a,.b,.bh,.j,.o{fill:none;}.b{clip-rule:evenodd;}.c{clip-path:url(#a);}.d{clip-path:url(#b);}.e{clip-path:url(#c);}.bi,.f,.i,.p{fill:#fff;}.bh,.bi,.f,.j,.o,.p{stroke:#ef6924;stroke-width:3px;}.bi,.f,.j,.o{stroke-miterlimit:10;}.g{clip-path:url(#d);}.h{clip-path:url(#e);}.k{clip-path:url(#f);}.l{clip-path:url(#h);}.m{clip-path:url(#j);}.n{isolation:isolate;}.bh,.bi,.o,.p{stroke-linecap:round;}.bh,.p{stroke-linejoin:round;}.q{clip-path:url(#k);}.r{clip-path:url(#l);}.s{clip-path:url(#m);}.t{clip-path:url(#n);}.u{clip-path:url(#o);}.v{clip-path:url(#p);}.w{clip-path:url(#q);}.x{clip-path:url(#r);}.y{clip-path:url(#s);}.z{clip-path:url(#t);}.aa{clip-path:url(#u);}.ab{clip-path:url(#v);}.ac{clip-path:url(#w);}.ad{clip-path:url(#x);}.ae{clip-path:url(#y);}.af{clip-path:url(#z);}.ag{clip-path:url(#aa);}.ah{clip-path:url(#ab);}.ai{clip-path:url(#ac);}.aj{clip-path:url(#ae);}.ak{clip-path:url(#af);}.al{clip-path:url(#ag);}.am{clip-path:url(#ah);}.an{clip-path:url(#ai);}.ao{clip-path:url(#aj);}.ap{clip-path:url(#ak);}.aq{clip-path:url(#al);}.ar{clip-path:url(#am);}.as{clip-path:url(#an);}.at{clip-path:url(#ao);}.au{clip-path:url(#ap);}.av{clip-path:url(#aq);}.aw{clip-path:url(#ar);}.ax{clip-path:url(#as);}.ay{clip-path:url(#at);}.az{clip-path:url(#au);}.ba{clip-path:url(#av);}.bb{clip-path:url(#aw);}.bc{clip-path:url(#ax);}.bd{clip-path:url(#ay);}.be{clip-path:url(#az);}.bf{clip-path:url(#bb);}.bg{clip-path:url(#bd);}.bj{clip-path:url(#be);}.bk{clip-path:url(#bf);}.bl{clip-path:url(#bg);}.bm{clip-path:url(#bi);}.bn{clip-path:url(#bk);}.bo{clip-path:url(#bl);}.bp{clip-path:url(#bm);}.bq{clip-path:url(#bn);}.br{clip-path:url(#bp);}.bs{clip-path:url(#br);}.bt{clip-path:url(#bs);}.bu{clip-path:url(#bt);}.bv{clip-path:url(#bu);}.bw{clip-path:url(#bw);}.bx{clip-path:url(#by);}.by{fill:#ef6924;}</style><clipPath id="a"><circle class="a" cx="1382.65" cy="168.32" r="5.56" transform="translate(548.06 1283.44) rotate(-60.13)"/></clipPath><clipPath id="b"><circle class="a" cx="1382.65" cy="173.88" r="5.56" transform="translate(798.65 1439.14) rotate(-72.39)"/></clipPath><clipPath id="c"><path class="b" d="M1377.09,168.32a5.56,5.56,0,1,1,11.12,0"/></clipPath><clipPath id="d"><circle class="a" cx="516.74" cy="205.57" r="6.54" transform="translate(81.12 551.27) rotate(-60.13)"/></clipPath><clipPath id="e"><rect class="a" x="-139.83" y="40.44" width="771.27" height="239.06"/></clipPath><clipPath id="f"><circle class="a" cx="516.74" cy="212.1" r="6.54" transform="translate(158.25 640.47) rotate(-72.39)"/></clipPath><clipPath id="h"><path class="b" d="M510.21,205.57a6.54,6.54,0,1,1,13.07,0"/></clipPath><clipPath id="j"><path class="a" d="M484.48,249.54c1.6-7.39,6.38-6.8,8.89-6.8,10.54,0,19.09,12.67,19.09,28.29V308.6c0,10.6-5.8,19.2-13,19.2H487.24C481.8,327.8,483.72,266.74,484.48,249.54Z"/></clipPath><clipPath id="k"><path class="a" d="M-509.41,97.75a27.25,27.25,0,0,0,1.63-5.91c.17-7.68.17-3.06.17-14.24,0-18.27,5.82-29.11,11.6-29.11a4.76,4.76,0,0,1,1.48.23c4.2,1.33,9,8.89,5.26,25.73-3.25,14.63-6.19,19.85-7.3,22.63-.88,2.22-.64-.11-1.51,3.93,3.84,2.74-4.91,6.43-4.11,10.32l-17.65-8.17-17.65,8.17c.8-3.89-8-7.58-4.11-10.32-.87-4-.63-1.71-1.51-3.93-1.11-2.78-4-8-7.29-22.63-3.74-16.84,1-24.4,5.25-25.73a4.8,4.8,0,0,1,1.48-.23c5.78,0,11.6,10.84,11.6,29.11,0,11.18,0,6.56.17,14.24a27.25,27.25,0,0,0,1.63,5.91c1.08-.11,2.48-.15,3.88-.15l6.55.05,6.55-.05C-511.89,97.6-510.49,97.64-509.41,97.75Z"/></clipPath><clipPath id="l"><ellipse class="a" cx="-502.5" cy="190.25" rx="5.06" ry="5.25"/></clipPath><clipPath id="m"><ellipse class="a" cx="-497.95" cy="190.25" rx="5.06" ry="5.25"/></clipPath><clipPath id="n"><ellipse class="a" cx="-492.79" cy="190.25" rx="5.06" ry="5.25"/></clipPath><clipPath id="o"><ellipse class="a" cx="-488.24" cy="190.25" rx="5.06" ry="5.25"/></clipPath><clipPath id="p"><ellipse class="a" cx="-483.68" cy="190.25" rx="5.06" ry="5.25"/></clipPath><clipPath id="q"><ellipse class="a" cx="-479.13" cy="190.25" rx="5.06" ry="5.25"/></clipPath><clipPath id="r"><ellipse class="a" cx="-474.58" cy="190.25" rx="5.06" ry="5.25"/></clipPath><clipPath id="s"><ellipse class="a" cx="-474.58" cy="185.84" rx="5.06" ry="5.25"/></clipPath><clipPath id="t"><ellipse class="a" cx="-474.58" cy="180.8" rx="5.06" ry="5.25"/></clipPath><clipPath id="u"><ellipse class="a" cx="-474.58" cy="175.76" rx="5.06" ry="5.25"/></clipPath><clipPath id="v"><ellipse class="a" cx="-474.58" cy="170.72" rx="5.06" ry="5.25"/></clipPath><clipPath id="w"><ellipse class="a" cx="-474.58" cy="165.68" rx="5.06" ry="5.25"/></clipPath><clipPath id="x"><ellipse class="a" cx="-547.09" cy="189.74" rx="5.13" ry="5.24"/></clipPath><clipPath id="y"><ellipse class="a" cx="-551.71" cy="189.74" rx="5.13" ry="5.24"/></clipPath><clipPath id="z"><path class="a" d="M-486.53,202.06v44.23a14.15,14.15,0,0,1-14.24,14.06h-39.69a14.16,14.16,0,0,1-14.24-14.06V197a33.87,33.87,0,0,1,34.09-33.65A33.87,33.87,0,0,1-486.53,197Z"/></clipPath><clipPath id="aa"><path class="b" d="M-486.53,202.06v44.23a14.15,14.15,0,0,1-14.24,14.06h-39.69a14.16,14.16,0,0,1-14.24-14.06V197a33.87,33.87,0,0,1,34.09-33.65A33.87,33.87,0,0,1-486.53,197Z"/></clipPath><clipPath id="ab"><ellipse class="a" cx="-520.42" cy="153.99" rx="4.82" ry="5.13"/></clipPath><clipPath id="ac"><ellipse class="a" cx="-520.42" cy="159.12" rx="4.82" ry="5.13"/></clipPath><clipPath id="ae"><ellipse class="a" cx="-520.42" cy="148.86" rx="4.82" ry="5.13"/></clipPath><clipPath id="af"><ellipse class="a" cx="-518.86" cy="81.14" rx="6.38" ry="6.14"/></clipPath><clipPath id="ag"><rect class="a" x="-555.68" y="96.6" width="69.42" height="52.79" rx="22.58"/></clipPath><clipPath id="ah"><ellipse class="a" cx="-535.76" cy="116.73" rx="6.17" ry="6.38"/></clipPath><clipPath id="ai"><ellipse class="a" cx="-504.46" cy="116.73" rx="6.17" ry="6.38"/></clipPath><clipPath id="aj"><path class="b" d="M-486.26,204.55V255.9c0,9-6.36,16.19-14.19,16.19h-41c-7.84,0-14.19-7.24-14.19-16.19V200c0-21.87,15.54-39.6,34.71-39.6s34.71,17.73,34.71,39.6Zm-13.17.22V201c0-13.45-9.55-24.35-21.34-24.35s-21.34,10.9-21.34,24.35v33.74c0,8.95,6.36,16.19,14.19,16.19h14.3c7.84,0,14.19-7.24,14.19-16.19V204.77Z"/></clipPath><clipPath id="ak"><path class="b" d="M-477.18,141.89a13.11,13.11,0,0,0-10.48,13A13,13,0,0,0-474.78,168a13,13,0,0,0,12.87-13.19,13.13,13.13,0,0,0-9.72-12.78V154.6a2.8,2.8,0,0,1-2.77,2.84,2.81,2.81,0,0,1-2.78-2.84Z"/></clipPath><clipPath id="al"><ellipse class="a" cx="-521.31" cy="131.32" rx="8.84" ry="9.19"/></clipPath><clipPath id="am"><path class="b" d="M-471.37,141.77c0,.27,0,.53,0,.8a9,9,0,0,0,9,9.09,9,9,0,0,0,8.9-8.29Q-461.43,142.71-471.37,141.77Zm-4.68-.44q-6.54-.63-13.87-1.36a2.59,2.59,0,0,1-2.35.87c-1.27-.22-3.82-3.21-5.11-8.12s-1.27-9.62,0-11.36a2.17,2.17,0,0,1,3-.86q54.76-34.18,58.76-34.19c4,0,12.56,4.11,17.24,27.92s-.64,29.13-5.32,30.5q-2.79.83-25.61-1A13.5,13.5,0,0,1-462.68,156a13.52,13.52,0,0,1-13.41-13.63C-476.09,142-476.08,141.67-476,141.33Zm50.93.14c4.58-1.06,5.68-13.24,2.46-27.21s-9.56-24.44-14.14-23.39-5.68,13.25-2.46,27.22S-429.7,142.53-425.12,141.47Z"/></clipPath><clipPath id="an"><path class="b" d="M-493.81,120.21a26.56,26.56,0,0,0,.36,11.49q1.45,6,4.58,8.22"/></clipPath><clipPath id="ao"><ellipse class="a" cx="-568.11" cy="189.56" rx="5.13" ry="5.24"/></clipPath><clipPath id="ap"><ellipse class="a" cx="-572.73" cy="189.56" rx="5.13" ry="5.24"/></clipPath><clipPath id="aq"><ellipse class="a" cx="-577.35" cy="189.56" rx="5.13" ry="5.24"/></clipPath><clipPath id="ar"><ellipse class="a" cx="-577.35" cy="185.16" rx="5.13" ry="5.24"/></clipPath><clipPath id="as"><ellipse class="a" cx="-577.35" cy="180.13" rx="5.13" ry="5.24"/></clipPath><clipPath id="at"><ellipse class="a" cx="-577.35" cy="175.11" rx="5.13" ry="5.24"/></clipPath><clipPath id="au"><ellipse class="a" cx="-577.35" cy="170.09" rx="5.13" ry="5.24"/></clipPath><clipPath id="av"><ellipse class="a" cx="-577.35" cy="165.06" rx="5.13" ry="5.24"/></clipPath><clipPath id="aw"><path class="b" d="M-574.65,139.33a13.06,13.06,0,0,1,10.47,12.89A13,13,0,0,1-577,165.34a13,13,0,0,1-12.86-13.12,13.09,13.09,0,0,1,9.71-12.72V152a2.8,2.8,0,0,0,2.77,2.83,2.8,2.8,0,0,0,2.77-2.83Z"/></clipPath><clipPath id="ax"><circle class="a" cx="730.76" cy="205.7" r="7.02" transform="translate(188.43 736.92) rotate(-60.13)"/></clipPath><clipPath id="ay"><rect class="a" x="25.18" y="28.24" width="828.84" height="256.91"/></clipPath><clipPath id="az"><circle class="a" cx="730.76" cy="212.72" r="7.02" transform="translate(306.94 844.89) rotate(-72.39)"/></clipPath><clipPath id="bb"><path class="b" d="M723.74,205.7a7,7,0,1,1,14,0"/></clipPath><clipPath id="bd"><path class="a" d="M696.09,253c1.72-7.94,6.86-7.31,9.56-7.31,11.33,0,20.51,13.61,20.51,30.4v40.37c0,11.4-6.24,20.64-13.92,20.64H699.07C693.21,337.05,695.28,271.44,696.09,253Z"/></clipPath><clipPath id="be"><circle class="a" cx="618.79" cy="183.74" r="8.38" transform="translate(151.27 628.8) rotate(-60.13)"/></clipPath><clipPath id="bf"><rect class="a" x="-222.55" y="-27.86" width="988.31" height="306.34"/></clipPath><clipPath id="bg"><circle class="a" cx="618.79" cy="192.11" r="8.38" transform="translate(248.48 723.79) rotate(-72.39)"/></clipPath><clipPath id="bi"><path class="b" d="M610.41,183.74a8.38,8.38,0,1,1,16.75,0"/></clipPath><clipPath id="bk"><path class="a" d="M577.45,240.08c2-9.47,8.16-8.71,11.39-8.71,13.51,0,24.45,16.23,24.45,36.25v48.14c0,13.59-7.43,24.6-16.6,24.6H581C574,340.36,576.47,262.13,577.45,240.08Z"/></clipPath><clipPath id="bl"><circle class="a" cx="931.09" cy="195.7" r="7.02" transform="translate(297.66 905.62) rotate(-60.13)"/></clipPath><clipPath id="bm"><rect class="a" x="225.51" y="18.24" width="828.84" height="256.91"/></clipPath><clipPath id="bn"><circle class="a" cx="931.09" cy="202.72" r="7.02" transform="translate(456.2 1028.86) rotate(-72.39)"/></clipPath><clipPath id="bp"><path class="b" d="M924.07,195.7a7,7,0,1,1,14,0"/></clipPath><clipPath id="br"><path class="a" d="M896.43,243c1.71-7.94,6.85-7.31,9.55-7.31,11.33,0,20.51,13.61,20.51,30.4v40.37c0,11.4-6.23,20.64-13.92,20.64H899.4C893.54,327.05,895.61,261.44,896.43,243Z"/></clipPath><clipPath id="bs"><circle class="a" cx="829.41" cy="205.57" r="6.54" transform="translate(238.06 822.4) rotate(-60.13)"/></clipPath><clipPath id="bt"><rect class="a" x="172.84" y="40.44" width="771.27" height="239.06"/></clipPath><clipPath id="bu"><circle class="a" cx="829.41" cy="212.1" r="6.54" transform="translate(376.33 938.49) rotate(-72.39)"/></clipPath><clipPath id="bw"><path class="b" d="M822.87,205.57a6.54,6.54,0,0,1,13.08,0"/></clipPath><clipPath id="by"><path class="a" d="M797.15,249.54c1.6-7.39,6.37-6.8,8.89-6.8,10.54,0,19.08,12.67,19.08,28.29V308.6c0,10.6-5.8,19.2-13,19.2H799.91C794.47,327.8,796.39,266.74,797.15,249.54Z"/></clipPath></defs><path class="f" d="M530.91,148.15c-.16-1,2-17,2.35-18.83,1.55-9.14.5-3.67,3-16.92,4.17-21.64-.2-35.82-7-37.13a6,6,0,0,0-1.8-.06c-5.25.63-12.62,8.49-12.06,29.3.49,18.08,2.75,24.93,3.42,28.47.54,2.83.79,0,.89,5-5.15,2.38,4.31,8.73,2.49,13.16"/><g class="g"><g class="h"><rect class="i" x="506.29" y="195.11" width="20.91" height="20.91"/></g></g><circle class="j" cx="516.74" cy="205.57" r="5.36"/><g class="k"><g class="h"><rect class="i" x="506.29" y="201.65" width="20.91" height="20.91"/></g></g><circle class="f" cx="516.74" cy="212.1" r="5.36"/><g class="l"><g class="h"><rect class="i" x="506.29" y="195.11" width="20.91" height="20.91"/></g></g><circle class="f" cx="516.74" cy="205.57" r="5.36"/><circle class="f" cx="516.74" cy="199.03" r="5.36"/><path class="f" d="M496.8,337.83h38.87c6.94,0,12.57-7.54,12.57-16.85v-62.2c0-23.71-14.33-42.92-32-42.92s-32,19.21-32,42.92V321C484.23,330.29,489.86,337.83,496.8,337.83Z"/><g class="m"><g class="n"><line class="j" x1="538.69" y1="328.91" x2="471.4" y2="229.16"/><line class="j" x1="532.88" y1="328.91" x2="465.58" y2="229.16"/><line class="j" x1="527.06" y1="328.91" x2="459.76" y2="229.16"/><line class="j" x1="521.24" y1="328.91" x2="453.95" y2="229.16"/><line class="j" x1="515.43" y1="328.91" x2="448.13" y2="229.16"/><line class="j" x1="509.61" y1="328.91" x2="442.31" y2="229.16"/><line class="j" x1="503.79" y1="328.91" x2="436.49" y2="229.16"/><line class="j" x1="497.97" y1="328.91" x2="430.68" y2="229.16"/><line class="j" x1="585.23" y1="328.91" x2="517.93" y2="229.16"/><line class="j" x1="579.41" y1="328.91" x2="512.11" y2="229.16"/><line class="j" x1="573.59" y1="328.91" x2="506.3" y2="229.16"/><line class="j" x1="567.78" y1="328.91" x2="500.48" y2="229.16"/><line class="j" x1="561.96" y1="328.91" x2="494.66" y2="229.16"/><line class="j" x1="556.14" y1="328.91" x2="488.85" y2="229.16"/><line class="j" x1="550.33" y1="328.91" x2="483.03" y2="229.16"/><line class="j" x1="544.51" y1="328.91" x2="477.21" y2="229.16"/><line class="j" x1="492.16" y1="328.91" x2="424.86" y2="229.16"/><line class="j" x1="486.34" y1="328.91" x2="419.04" y2="229.16"/><line class="j" x1="480.52" y1="328.91" x2="413.23" y2="229.16"/><line class="j" x1="474.71" y1="328.91" x2="407.41" y2="229.16"/></g></g><path class="j" d="M485.84,245c2-1.83,4.8-2.38,8-2.22,10.53,0,19.08,12.67,19.08,28.29V308.6c0,10.6-5.8,19.2-13,19.2H485.49"/><path class="f" d="M537.46,145.15c0-1,.29-5.6,1-7.34,3.43-8.61,1.26-3.48,6.52-15.9,8.61-20.3,7.29-35.07.9-37.78a5.56,5.56,0,0,0-1.74-.43c-5.27-.49-14.12,5.66-17.93,26.12-3.3,17.78-2.34,25-2.61,28.56-.58,8.08,2.22,14.52-.5,18.47"/><rect class="f" x="486.12" y="132.55" width="60.08" height="64.74" rx="21.25" transform="translate(1032.32 329.84) rotate(-180)"/><path class="j" d="M502.26,133.29c8.7,0,13.18,6.36,13.18,15.12v33.27a14.83,14.83,0,0,1-10.33,14.24l-2.56.73"/><path class="o" d="M504.84,176.13c-4.6,4.68-10.4,5.71-17.72,5.36"/><path class="j" d="M493.24,181.39v4.21a2.57,2.57,0,0,1-2.57,2.56h-1"/><line class="j" x1="502.28" y1="113.15" x2="508.36" y2="132.24"/><circle class="f" cx="502.51" cy="113.86" r="6.32"/><path class="o" d="M503.46,157.18H526.7a8.06,8.06,0,0,1,6.82,12.42c-.17.25-.34.5-.53.74"/><circle class="p" cx="491.62" cy="156.96" r="10.42"/><path class="o" d="M496.58,157a5,5,0,0,0-9.93,0"/><circle class="f" cx="522.78" cy="237.43" r="5.76"/><circle class="f" cx="522.53" cy="243.74" r="5.76"/><circle class="f" cx="522.71" cy="250.78" r="5.76"/><circle class="f" cx="522.39" cy="257.22" r="5.76"/><circle class="f" cx="522.38" cy="263.98" r="5.76"/><circle class="f" cx="522.6" cy="270.26" r="5.76"/><circle class="f" cx="522.35" cy="276.99" r="5.76"/><circle class="f" cx="522.11" cy="283.73" r="5.76"/><circle class="f" cx="521.86" cy="290.46" r="5.76"/><path class="f" d="M515.72,323.17a16.32,16.32,0,1,1,10.12,0l.54-15a5.05,5.05,0,0,0-10.1-.37Z"/><path class="f" d="M732.63,141.13c.2-1.12,8.6-17.37,9.63-19.22,5.11-9.18,1.92-3.74,9.65-16.92,12.63-21.54,13.32-38.33,6.54-42.3a6.61,6.61,0,0,0-1.9-.75c-5.85-1.31-16.69,4.3-24,26.73-6.31,19.49-6.48,27.67-7.1,31.7-.5,3.22.83.32-1,5.68-6.39.59,1.31,11-2.31,15"/><g class="bc"><g class="bd"><rect class="i" x="719.53" y="194.46" width="22.47" height="22.47"/></g></g><circle class="j" cx="730.76" cy="205.7" r="5.76"/><g class="be"><g class="bd"><rect class="i" x="719.53" y="201.48" width="22.47" height="22.47"/></g></g><circle class="f" cx="730.76" cy="212.72" r="5.76"/><g class="bf"><g class="bd"><rect class="i" x="719.53" y="194.46" width="22.47" height="22.47"/></g></g><circle class="f" cx="730.76" cy="205.7" r="5.76"/><circle class="f" cx="730.76" cy="198.67" r="5.76"/><path class="f" d="M709.33,347.83h41.78c7.46,0,13.5-8.11,13.5-18.11V262.88c0-25.48-15.39-46.13-34.39-46.13s-34.39,20.65-34.39,46.13v66.84C695.83,339.72,701.87,347.83,709.33,347.83Z"/><g class="bg"><g class="n"><line class="j" x1="754.35" y1="338.25" x2="682.03" y2="231.05"/><line class="j" x1="748.1" y1="338.25" x2="675.78" y2="231.05"/><line class="j" x1="741.85" y1="338.25" x2="669.53" y2="231.05"/><line class="j" x1="735.6" y1="338.25" x2="663.28" y2="231.05"/><line class="j" x1="729.35" y1="338.25" x2="657.03" y2="231.05"/><line class="j" x1="723.1" y1="338.25" x2="650.78" y2="231.05"/><line class="j" x1="716.85" y1="338.25" x2="644.53" y2="231.05"/><line class="j" x1="710.6" y1="338.25" x2="638.28" y2="231.05"/><line class="j" x1="804.36" y1="338.25" x2="732.04" y2="231.05"/><line class="j" x1="798.11" y1="338.25" x2="725.79" y2="231.05"/><line class="j" x1="791.86" y1="338.25" x2="719.54" y2="231.05"/><line class="j" x1="785.61" y1="338.25" x2="713.29" y2="231.05"/><line class="j" x1="779.36" y1="338.25" x2="707.04" y2="231.05"/><line class="j" x1="773.11" y1="338.25" x2="700.79" y2="231.05"/><line class="j" x1="766.86" y1="338.25" x2="694.54" y2="231.05"/><line class="j" x1="760.6" y1="338.25" x2="688.28" y2="231.05"/><line class="j" x1="704.35" y1="338.25" x2="632.02" y2="231.05"/><line class="j" x1="698.09" y1="338.25" x2="625.77" y2="231.05"/><line class="j" x1="691.84" y1="338.25" x2="619.52" y2="231.05"/><line class="j" x1="685.59" y1="338.25" x2="613.27" y2="231.05"/></g></g><path class="j" d="M697.56,248c2.18-2,5.16-2.56,8.57-2.39,11.32,0,20.5,13.61,20.5,30.4v40.37c0,11.4-6.23,20.64-13.92,20.64H697.18"/><circle class="f" cx="740.01" cy="241.67" r="5.76"/><circle class="f" cx="739.76" cy="247.98" r="5.76"/><circle class="f" cx="739.94" cy="255.02" r="5.76"/><circle class="f" cx="739.62" cy="261.46" r="5.76"/><circle class="f" cx="739.61" cy="268.22" r="5.76"/><circle class="f" cx="739.83" cy="274.5" r="5.76"/><circle class="f" cx="739.59" cy="281.24" r="5.76"/><circle class="f" cx="739.34" cy="287.97" r="5.76"/><circle class="f" cx="739.1" cy="294.71" r="5.76"/><path class="f" d="M733,327.41a16.33,16.33,0,1,1,10.11,0l.55-15a5.06,5.06,0,0,0-10.11-.36Z"/><path class="f" d="M745.62,134.49c.72-.88,4.06-4.89,5.87-6,8.94-5.49,3.5-2.31,16.69-10,21.57-12.59,30.39-26.89,26.43-33.68a6.88,6.88,0,0,0-1.3-1.58c-4.45-4-16.65-4.43-34,11.57-15.05,13.9-19.05,21.07-21.72,24.16-6,6.93-7.83,14.68-13,16.42"/><rect class="f" x="695.55" y="123.46" width="68.06" height="73.34" rx="21.25" transform="translate(1459.17 320.27) rotate(-180)"/><path class="j" d="M710.15,124.31c9.85,0,18.62,7.2,18.62,17.12v37.68a16.82,16.82,0,0,1-11.71,16.14l-4.85,1.1"/><path class="o" d="M695.48,153.8c0-3.9,2.72-7.07,6.07-7.07s6.06,3.17,6.06,7.07"/><path class="o" d="M708,172.83c-3,5.31-6.72,6.46-11.46,6.07"/><path class="j" d="M702.35,178.78v4.77a2.91,2.91,0,0,1-2.91,2.91h-1.09"/><line class="j" x1="716.35" y1="101.11" x2="716.35" y2="123.8"/><circle class="f" cx="716.35" cy="101.95" r="7.16"/><path class="bh" d="M685.38,141.14H715a0,0,0,0,1,0,0v6.31a13.94,13.94,0,0,1-13.94,13.94h-1.73a13.94,13.94,0,0,1-13.94-13.94v-6.31a0,0,0,0,1,0,0Z"/><path class="o" d="M715.47,144.76h27.38c7.52,0,12.2,8.38,8,14.63-.19.3-.4.59-.62.88"/><path class="f" d="M643.75,124c.69-.84,3.91-4.71,5.65-5.78,8.64-5.3,3.38-2.23,16.11-9.67C686.31,96.38,694.82,82.58,691,76a6.37,6.37,0,0,0-1.25-1.52c-4.29-3.87-16.06-4.27-32.77,11.16C642.46,99.08,638.6,106,636,109c-5.79,6.69-7.55,14.16-12.51,15.85"/><path class="bi" d="M596.38,113a24.94,24.94,0,1,1,49.88,0H569.37"/><g class="bj"><g class="bk"><rect class="i" x="605.39" y="170.34" width="26.79" height="26.79"/></g></g><circle class="j" cx="618.79" cy="183.74" r="6.87"/><g class="bl"><g class="bk"><rect class="i" x="605.39" y="178.72" width="26.79" height="26.79"/></g></g><circle class="f" cx="618.79" cy="192.11" r="6.87"/><g class="bm"><g class="bk"><rect class="i" x="605.39" y="170.34" width="26.79" height="26.79"/></g></g><circle class="f" cx="618.79" cy="183.74" r="6.87"/><circle class="f" cx="618.79" cy="175.36" r="6.87"/><path class="f" d="M593.23,353.22h49.82c8.89,0,16.1-9.67,16.1-21.59V251.92c0-30.37-18.36-55-41-55s-41,24.63-41,55v79.71C577.13,343.55,584.34,353.22,593.23,353.22Z"/><g class="bn"><g class="n"><line class="j" x1="646.91" y1="341.79" x2="560.68" y2="213.97"/><line class="j" x1="639.46" y1="341.79" x2="553.23" y2="213.97"/><line class="j" x1="632.01" y1="341.79" x2="545.77" y2="213.97"/><line class="j" x1="624.55" y1="341.79" x2="538.32" y2="213.97"/><line class="j" x1="617.1" y1="341.79" x2="530.86" y2="213.97"/><line class="j" x1="609.65" y1="341.79" x2="523.41" y2="213.97"/><line class="j" x1="602.19" y1="341.79" x2="515.96" y2="213.97"/><line class="j" x1="594.74" y1="341.79" x2="508.5" y2="213.97"/><line class="j" x1="706.54" y1="341.79" x2="620.31" y2="213.97"/><line class="j" x1="699.09" y1="341.79" x2="612.86" y2="213.97"/><line class="j" x1="691.64" y1="341.79" x2="605.4" y2="213.97"/><line class="j" x1="684.18" y1="341.79" x2="597.95" y2="213.97"/><line class="j" x1="676.73" y1="341.79" x2="590.49" y2="213.97"/><line class="j" x1="669.28" y1="341.79" x2="583.04" y2="213.97"/><line class="j" x1="661.82" y1="341.79" x2="575.59" y2="213.97"/><line class="j" x1="654.37" y1="341.79" x2="568.13" y2="213.97"/><line class="j" x1="587.28" y1="341.79" x2="501.05" y2="213.97"/><line class="j" x1="579.83" y1="341.79" x2="493.6" y2="213.97"/><line class="j" x1="572.38" y1="341.79" x2="486.14" y2="213.97"/><line class="j" x1="564.92" y1="341.79" x2="478.69" y2="213.97"/></g></g><path class="j" d="M579.19,234.22c2.6-2.35,6.15-3.05,10.22-2.85,13.5,0,24.45,16.23,24.45,36.25v48.14c0,13.59-7.43,24.6-16.6,24.6H578.75"/><circle class="f" cx="621.27" cy="225.04" r="6.87"/><circle class="f" cx="624.1" cy="232.02" r="6.87"/><circle class="f" cx="627.75" cy="239.58" r="6.87"/><circle class="f" cx="630.57" cy="246.74" r="6.87"/><circle class="f" cx="632.38" cy="254.07" r="6.87"/><circle class="f" cx="628.91" cy="260.71" r="6.87"/><circle class="f" cx="624.7" cy="267.56" r="6.87"/><circle class="f" cx="620.49" cy="274.4" r="6.87"/><circle class="f" cx="616.27" cy="281.24" r="6.87"/><path class="f" d="M590.67,311.56a19.47,19.47,0,1,1,10.48,6l9.39-15.26A6,6,0,1,0,600.28,296Z"/><path class="f" d="M630.92,134.16c.45-1,12.29-14.09,13.71-15.56,7-7.29,2.7-3,13.16-13.4,17.09-17,21.86-32.47,16.51-37.85a6.51,6.51,0,0,0-1.59-1.16c-5.12-2.67-16.62-.1-28.92,19-10.68,16.63-12.85,24.21-14.43,27.82-1.26,2.88.7.5-2.28,5.06-6.11-1-1.47,10.54-5.85,13.42"/><rect class="f" x="587.03" y="113.34" width="65.65" height="70.75" rx="21.25" transform="translate(1239.71 297.42) rotate(-180)"/><path class="j" d="M599.53,114.11c10.42,0,19.65,7,19.61,16.6l-.07,17.62L619,167.06c0,7.48-5.21,13.33-12.44,15.51l-4.89.24"/><path class="o" d="M598.07,152.53c-2.87,5.12-6.48,6.24-11,5.86"/><path class="j" d="M591.78,158.28v4.6a2.8,2.8,0,0,1-2.81,2.8h-1.05"/><circle class="o" cx="597.27" cy="140.39" r="5.71"/><path class="f" d="M944.28,136.58c-.1-1.13,3.74-19,4.25-21.08,2.53-10.19.88-4.1,4.88-18.85,6.54-24.09,2.8-40.48-4.79-42.54a6.74,6.74,0,0,0-2-.21c-6,.26-15,8.52-16.11,32.07-1,20.46,1,28.4,1.46,32.45.36,3.24.89.09.57,5.73-6,2.25,4.14,10.23,1.7,15.08"/><g class="bo"><g class="bp"><rect class="i" x="919.86" y="184.46" width="22.47" height="22.47"/></g></g><circle class="j" cx="931.09" cy="195.7" r="5.76"/><g class="bq"><g class="bp"><rect class="i" x="919.86" y="191.48" width="22.47" height="22.47"/></g></g><circle class="f" cx="931.09" cy="202.72" r="5.76"/><g class="br"><g class="bp"><rect class="i" x="919.86" y="184.46" width="22.47" height="22.47"/></g></g><circle class="f" cx="931.09" cy="195.7" r="5.76"/><circle class="f" cx="931.09" cy="188.67" r="5.76"/><path class="f" d="M909.66,337.83h41.78c7.46,0,13.5-8.11,13.5-18.11V252.88c0-25.48-15.39-46.13-34.39-46.13s-34.39,20.65-34.39,46.13v66.84C896.16,329.72,902.21,337.83,909.66,337.83Z"/><g class="bs"><g class="n"><line class="j" x1="954.68" y1="328.25" x2="882.36" y2="221.05"/><line class="j" x1="948.43" y1="328.25" x2="876.11" y2="221.05"/><line class="j" x1="942.18" y1="328.25" x2="869.86" y2="221.05"/><line class="j" x1="935.93" y1="328.25" x2="863.61" y2="221.05"/><line class="j" x1="929.68" y1="328.25" x2="857.36" y2="221.05"/><line class="j" x1="923.43" y1="328.25" x2="851.11" y2="221.05"/><line class="j" x1="917.18" y1="328.25" x2="844.86" y2="221.05"/><line class="j" x1="910.93" y1="328.25" x2="838.61" y2="221.05"/><line class="j" x1="1004.69" y1="328.25" x2="932.37" y2="221.05"/><line class="j" x1="998.44" y1="328.25" x2="926.12" y2="221.05"/><line class="j" x1="992.19" y1="328.25" x2="919.87" y2="221.05"/><line class="j" x1="985.94" y1="328.25" x2="913.62" y2="221.05"/><line class="j" x1="979.69" y1="328.25" x2="907.37" y2="221.05"/><line class="j" x1="973.44" y1="328.25" x2="901.12" y2="221.05"/><line class="j" x1="967.19" y1="328.25" x2="894.87" y2="221.05"/><line class="j" x1="960.94" y1="328.25" x2="888.62" y2="221.05"/><line class="j" x1="904.68" y1="328.25" x2="832.36" y2="221.05"/><line class="j" x1="898.43" y1="328.25" x2="826.1" y2="221.05"/><line class="j" x1="892.17" y1="328.25" x2="819.85" y2="221.05"/><line class="j" x1="885.92" y1="328.25" x2="813.6" y2="221.05"/></g></g><path class="j" d="M897.89,238c2.18-2,5.16-2.56,8.57-2.39,11.32,0,20.51,13.61,20.51,30.4v40.37c0,11.4-6.24,20.64-13.93,20.64H897.52"/><circle class="f" cx="933.18" cy="230.34" r="5.76"/><circle class="f" cx="935.55" cy="236.19" r="5.76"/><circle class="f" cx="938.62" cy="242.53" r="5.76"/><circle class="f" cx="940.98" cy="248.53" r="5.76"/><circle class="f" cx="942.5" cy="254.68" r="5.76"/><circle class="f" cx="939.59" cy="260.25" r="5.76"/><circle class="f" cx="936.05" cy="265.99" r="5.76"/><circle class="f" cx="932.52" cy="271.73" r="5.76"/><circle class="f" cx="928.99" cy="277.47" r="5.76"/><path class="f" d="M907.52,302.89a16.31,16.31,0,1,1,8.78,5l7.88-12.8a5.05,5.05,0,1,0-8.6-5.3Z"/><path class="f" d="M955.08,126.76c.46-1,2.63-5.78,4.08-7.32,7.2-7.65,2.77-3.15,13.49-14,17.51-17.8,22.27-33.92,16.66-39.43a6.47,6.47,0,0,0-1.66-1.18c-5.35-2.71-17.23.09-29.75,20.07-10.88,17.36-12.86,25.33-14.63,29-4,8.27-3.7,16.22-8.21,19.25"/><rect class="f" x="895.88" y="113.46" width="68.06" height="73.34" rx="21.25" transform="translate(1859.83 300.27) rotate(-180)"/><path class="j" d="M912.76,186.05l3.51-.8c7.49-2.3,12.83-8.39,12.83-16.14V131.43c0-8.68-7.35-15.28-16.43-16.8h-2.15"/><path class="o" d="M908.34,157.83c-3,5.31-6.72,6.46-11.46,6.07"/><path class="j" d="M902.68,163.78v4.77a2.91,2.91,0,0,1-2.91,2.91h-1.08"/><line class="j" x1="916.68" y1="91.11" x2="916.68" y2="113.8"/><circle class="f" cx="916.68" cy="91.95" r="7.16"/><circle class="j" cx="904.51" cy="142.46" r="4.71"/><path class="f" d="M835.25,146.43c.1-1,6.41-15.86,7.19-17.56,3.89-8.41,1.45-3.41,7.38-15.53,9.69-19.8,9.17-34.63,2.94-37.68a6,6,0,0,0-1.72-.52c-5.24-.78-14.41,4.89-19.31,25.12-4.27,17.57-3.87,24.78-4.15,28.37-.23,2.87.76.22-.46,5.06-5.59.95,1.88,9.56-1,13.36"/><g class="bt"><g class="bu"><rect class="i" x="818.95" y="195.11" width="20.91" height="20.91"/></g></g><circle class="j" cx="829.41" cy="205.57" r="5.36"/><g class="bv"><g class="bu"><rect class="i" x="818.95" y="201.65" width="20.91" height="20.91"/></g></g><circle class="f" cx="829.41" cy="212.1" r="5.36"/><g class="bw"><g class="bu"><rect class="i" x="818.95" y="195.11" width="20.91" height="20.91"/></g></g><circle class="f" cx="829.41" cy="205.57" r="5.36"/><circle class="f" cx="829.41" cy="199.03" r="5.36"/><path class="f" d="M809.47,337.83h38.87c6.94,0,12.57-7.54,12.57-16.85v-62.2c0-23.71-14.33-42.92-32-42.92s-32,19.21-32,42.92V321C796.9,330.29,802.53,337.83,809.47,337.83Z"/><g class="bx"><g class="n"><line class="j" x1="851.36" y1="328.91" x2="784.06" y2="229.16"/><line class="j" x1="845.54" y1="328.91" x2="778.25" y2="229.16"/><line class="j" x1="839.73" y1="328.91" x2="772.43" y2="229.16"/><line class="j" x1="833.91" y1="328.91" x2="766.61" y2="229.16"/><line class="j" x1="828.09" y1="328.91" x2="760.8" y2="229.16"/><line class="j" x1="822.28" y1="328.91" x2="754.98" y2="229.16"/><line class="j" x1="816.46" y1="328.91" x2="749.16" y2="229.16"/><line class="j" x1="810.64" y1="328.91" x2="743.35" y2="229.16"/><line class="j" x1="897.9" y1="328.91" x2="830.6" y2="229.16"/><line class="j" x1="892.08" y1="328.91" x2="824.78" y2="229.16"/><line class="j" x1="886.26" y1="328.91" x2="818.97" y2="229.16"/><line class="j" x1="880.45" y1="328.91" x2="813.15" y2="229.16"/><line class="j" x1="874.63" y1="328.91" x2="807.33" y2="229.16"/><line class="j" x1="868.81" y1="328.91" x2="801.51" y2="229.16"/><line class="j" x1="862.99" y1="328.91" x2="795.7" y2="229.16"/><line class="j" x1="857.18" y1="328.91" x2="789.88" y2="229.16"/><line class="j" x1="804.83" y1="328.91" x2="737.53" y2="229.16"/><line class="j" x1="799.01" y1="328.91" x2="731.71" y2="229.16"/><line class="j" x1="793.19" y1="328.91" x2="725.9" y2="229.16"/><line class="j" x1="787.38" y1="328.91" x2="720.08" y2="229.16"/></g></g><path class="j" d="M798.51,245c2-1.83,4.8-2.38,8-2.22,10.54,0,19.09,12.67,19.09,28.29V308.6c0,10.6-5.8,19.2-13,19.2H798.16"/><circle class="f" cx="831.35" cy="237.8" r="5.36"/><circle class="f" cx="833.56" cy="243.25" r="5.36"/><circle class="f" cx="836.41" cy="249.15" r="5.36"/><circle class="f" cx="838.61" cy="254.73" r="5.36"/><circle class="f" cx="838.5" cy="259.7" r="5.36"/><circle class="f" cx="837.86" cy="265.51" r="5.36"/><circle class="f" cx="836.72" cy="271.68" r="5.36"/><circle class="f" cx="835.59" cy="277.85" r="5.36"/><circle class="f" cx="834.45" cy="284.01" r="5.36"/><path class="f" d="M824.38,313.3a15.2,15.2,0,1,1,9.31,1.39l2.53-13.75a4.7,4.7,0,1,0-9.25-1.7Z"/><rect class="f" x="798.79" y="132.55" width="60.08" height="64.74" rx="21.25" transform="translate(1657.66 329.84) rotate(-180)"/><path class="j" d="M811.67,133.29c8.71,0,16.44,6.36,16.44,15.12v33.27a14.83,14.83,0,0,1-10.33,14.24l-2.68.43"/><path class="o" d="M818.51,176.13c-4.61,4.68-10.4,5.71-17.72,5.36"/><path class="j" d="M805.91,181.39v4.21a2.57,2.57,0,0,1-2.57,2.56h-1"/><line class="j" x1="817.14" y1="112.81" x2="817.14" y2="132.84"/><circle class="f" cx="817.14" cy="113.56" r="6.32"/><path class="o" d="M813,160.31a5,5,0,0,0-9.92,0"/><path class="f" d="M809.81,101.78h41.67a0,0,0,0,1,0,0v22.59a9.28,9.28,0,0,1-9.28,9.28H829.94a20.13,20.13,0,0,1-20.13-20.13V101.78a0,0,0,0,1,0,0Z" transform="translate(1661.3 235.43) rotate(-180)"/><path class="f" d="M841.69,134.72c.77-.64,4.34-3.55,6.1-4.2,8.68-3.24,3.42-1.41,16.16-5.84,20.83-7.24,30.9-18.13,28.62-24.68a5.83,5.83,0,0,0-.85-1.59c-3.17-4.23-13.68-6.67-31.4,4.24-15.4,9.49-20.09,15-22.92,17.24-6.39,5-9.28,11.38-14,12"/><path class="f" d="M809.2,128.81h41a9.81,9.81,0,0,1,9.81,9.81v.61a0,0,0,0,1,0,0H799.39a0,0,0,0,1,0,0v-.61A9.81,9.81,0,0,1,809.2,128.81Z" transform="translate(1659.44 268.04) rotate(-180)"/><path class="by" d="M981.5,305H2.5a1.5,1.5,0,0,1,0-3h979a1.5,1.5,0,0,1,0,3Z"/></svg>