<svg xmlns="http://www.w3.org/2000/svg" xmlns:xlink="http://www.w3.org/1999/xlink" viewBox="0 0 628 248"><defs><style>.a,.ai,.b,.g,.l,.m{fill:none;}.b{clip-rule:evenodd;}.c,.f,.n{fill:#fff;}.ai,.c,.g,.l,.m,.n{stroke:#ef6924;}.ai,.c,.g,.l,.n{stroke-miterlimit:10;}.c,.g,.l,.m,.n{stroke-width:2px;}.d{clip-path:url(#a);}.e{clip-path:url(#b);}.h{clip-path:url(#c);}.i{clip-path:url(#e);}.j{clip-path:url(#g);}.k{isolation:isolate;}.l,.m,.n{stroke-linecap:round;}.m{stroke-linejoin:round;}.o{clip-path:url(#h);}.p{clip-path:url(#i);}.q{clip-path:url(#j);}.r{clip-path:url(#l);}.s{clip-path:url(#n);}.t{clip-path:url(#o);}.u{clip-path:url(#p);}.v{clip-path:url(#q);}.w{clip-path:url(#s);}.x{clip-path:url(#u);}.y{clip-path:url(#v);}.z{clip-path:url(#w);}.aa{clip-path:url(#x);}.ab{clip-path:url(#z);}.ac{clip-path:url(#ab);}.ad{fill:#ef6924;}.ae{clip-path:url(#ac);}.af{clip-path:url(#ad);}.ag{clip-path:url(#ae);}.ah{clip-path:url(#af);}.ai{stroke-width:3px;}</style><clipPath id="a"><circle class="a" cx="456.68" cy="174.9" r="4.67" transform="translate(77.56 483.8) rotate(-60.13)"/></clipPath><clipPath id="b"><rect class="a" x="-11.99" y="57.03" width="550.55" height="170.65"/></clipPath><clipPath id="c"><circle class="a" cx="456.68" cy="179.57" r="4.67" transform="translate(147.38 560.53) rotate(-72.39)"/></clipPath><clipPath id="e"><path class="b" d="M452,174.9a4.67,4.67,0,1,1,9.33,0"/></clipPath><clipPath id="g"><path class="a" d="M433.65,206.29c1.14-5.28,4.55-4.85,6.35-4.85,7.52,0,13.62,9,13.62,20.19v26.81c0,7.57-4.14,13.71-9.25,13.71h-8.74C431.74,262.15,433.11,218.57,433.65,206.29Z"/></clipPath><clipPath id="h"><circle class="a" cx="378.65" cy="168.32" r="5.56" transform="translate(44.11 412.83) rotate(-60.13)"/></clipPath><clipPath id="i"><rect class="a" x="-180.19" y="27.76" width="656.47" height="203.48"/></clipPath><clipPath id="j"><circle class="a" cx="378.65" cy="173.88" r="5.56" transform="translate(98.37 482.19) rotate(-72.39)"/></clipPath><clipPath id="l"><path class="b" d="M373.09,168.32a5.56,5.56,0,1,1,11.12,0"/></clipPath><clipPath id="n"><path class="a" d="M351.19,205.74c1.36-6.29,5.43-5.78,7.57-5.78,9,0,16.24,10.77,16.24,24.07v32c0,9-4.93,16.34-11,16.34H353.54C348.91,272.35,350.54,220.39,351.19,205.74Z"/></clipPath><clipPath id="o"><circle class="a" cx="596.1" cy="176.26" r="4.67" transform="translate(146.37 605.37) rotate(-60.13)"/></clipPath><clipPath id="p"><rect class="a" x="127.43" y="58.38" width="550.55" height="170.65"/></clipPath><clipPath id="q"><circle class="a" cx="596.1" cy="180.92" r="4.67" transform="translate(243.32 694.36) rotate(-72.39)"/></clipPath><clipPath id="s"><path class="b" d="M591.43,176.26a4.67,4.67,0,1,1,9.33,0"/></clipPath><clipPath id="u"><path class="a" d="M573.07,207.64c1.14-5.27,4.55-4.85,6.35-4.85,7.52,0,13.62,9,13.62,20.19V249.8c0,7.57-4.14,13.71-9.25,13.71H575C571.16,263.51,572.53,219.93,573.07,207.64Z"/></clipPath><clipPath id="v"><circle class="a" cx="525.67" cy="185.82" r="4.34" transform="translate(102.73 549.1) rotate(-60.13)"/></clipPath><clipPath id="w"><rect class="a" x="89.55" y="76.13" width="512.31" height="158.79"/></clipPath><clipPath id="x"><circle class="a" cx="525.67" cy="190.16" r="4.34" transform="translate(185.4 633.67) rotate(-72.39)"/></clipPath><clipPath id="z"><path class="b" d="M521.33,185.82a4.34,4.34,0,1,1,8.68,0"/></clipPath><clipPath id="ab"><path class="a" d="M504.24,215c1.06-4.91,4.23-4.51,5.91-4.51,7,0,12.67,8.41,12.67,18.79v24.95c0,7.05-3.85,12.76-8.6,12.76h-8.14C502.46,267,503.73,226.45,504.24,215Z"/></clipPath><clipPath id="ac"><circle class="a" cx="-72.91" cy="195.7" r="7.02" transform="translate(-206.29 35.01) rotate(-60.13)"/></clipPath><clipPath id="ad"><circle class="a" cx="-72.91" cy="202.72" r="7.02" transform="translate(-244.07 71.9) rotate(-72.39)"/></clipPath><clipPath id="ae"><path class="b" d="M-79.93,195.7a7,7,0,0,1,7-7,7,7,0,0,1,7,7"/></clipPath><clipPath id="af"><path class="a" d="M-107.57,243c1.71-7.94,6.85-7.31,9.55-7.31,11.33,0,20.51,13.61,20.51,30.4v40.37c0,11.4-6.23,20.64-13.92,20.64H-104.6C-110.46,327.05-108.39,261.44-107.57,243Z"/></clipPath></defs><path class="c" d="M457.92,132c.13-.74,5.71-11.54,6.4-12.77,3.39-6.09,1.27-2.47,6.41-11.23,8.39-14.31,8.85-25.46,4.34-28.1a4.35,4.35,0,0,0-1.26-.49c-3.88-.88-11.09,2.85-15.91,17.75-4.2,13-4.31,18.38-4.72,21.06-.33,2.14.55.2-.63,3.77-4.25.39.87,7.27-1.54,10"/><g class="d"><g class="e"><rect class="f" x="449.22" y="167.44" width="14.93" height="14.93"/></g></g><circle class="g" cx="456.68" cy="174.9" r="3.83"/><g class="h"><g class="e"><rect class="f" x="449.22" y="172.1" width="14.93" height="14.93"/></g></g><circle class="c" cx="456.68" cy="179.57" r="3.83"/><g class="i"><g class="e"><rect class="f" x="449.22" y="167.44" width="14.93" height="14.93"/></g></g><circle class="c" cx="456.68" cy="174.9" r="3.83"/><circle class="c" cx="456.68" cy="170.23" r="3.83"/><path class="c" d="M442.45,269.31H470.2c4.95,0,9-5.38,9-12v-44.4c0-16.92-10.23-30.63-22.85-30.63S433.48,196,433.48,212.88v44.4C433.48,263.93,437.49,269.31,442.45,269.31Z"/><g class="j"><g class="k"><line class="g" x1="472.35" y1="262.95" x2="424.31" y2="191.74"/><line class="g" x1="468.2" y1="262.95" x2="420.16" y2="191.74"/><line class="g" x1="464.05" y1="262.95" x2="416.01" y2="191.74"/><line class="g" x1="459.89" y1="262.95" x2="411.86" y2="191.74"/><line class="g" x1="455.74" y1="262.95" x2="407.7" y2="191.74"/><line class="g" x1="451.59" y1="262.95" x2="403.55" y2="191.74"/><line class="g" x1="447.44" y1="262.95" x2="399.4" y2="191.74"/><line class="g" x1="443.29" y1="262.95" x2="395.25" y2="191.74"/><line class="g" x1="505.57" y1="262.95" x2="457.53" y2="191.74"/><line class="g" x1="501.42" y1="262.95" x2="453.38" y2="191.74"/><line class="g" x1="497.26" y1="262.95" x2="449.23" y2="191.74"/><line class="g" x1="493.11" y1="262.95" x2="445.07" y2="191.74"/><line class="g" x1="488.96" y1="262.95" x2="440.92" y2="191.74"/><line class="g" x1="484.81" y1="262.95" x2="436.77" y2="191.74"/><line class="g" x1="480.66" y1="262.95" x2="432.62" y2="191.74"/><line class="g" x1="476.5" y1="262.95" x2="428.47" y2="191.74"/><line class="g" x1="439.13" y1="262.95" x2="391.1" y2="191.74"/><line class="g" x1="434.98" y1="262.95" x2="386.94" y2="191.74"/><line class="g" x1="430.83" y1="262.95" x2="382.79" y2="191.74"/><line class="g" x1="426.68" y1="262.95" x2="378.64" y2="191.74"/></g></g><path class="g" d="M434.63,203a7.55,7.55,0,0,1,5.69-1.58c7.52,0,13.62,9,13.62,20.19v26.81c0,7.57-4.14,13.71-9.25,13.71H434.38"/><circle class="c" cx="462.82" cy="198.8" r="3.83"/><circle class="c" cx="462.66" cy="202.99" r="3.83"/><circle class="c" cx="462.78" cy="207.67" r="3.83"/><circle class="c" cx="462.56" cy="211.94" r="3.83"/><circle class="c" cx="462.56" cy="216.43" r="3.83"/><circle class="c" cx="462.71" cy="220.6" r="3.83"/><circle class="c" cx="462.54" cy="225.08" r="3.83"/><circle class="c" cx="462.38" cy="229.55" r="3.83"/><circle class="c" cx="462.22" cy="234.02" r="3.83"/><path class="c" d="M458.14,255.75a10.85,10.85,0,1,1,6.72,0l.36-10a3.36,3.36,0,0,0-6.71-.24Z"/><path class="c" d="M466.55,127.6a25.2,25.2,0,0,1,3.9-4c5.94-3.65,2.32-1.54,11.09-6.66,14.32-8.36,20.18-17.86,17.55-22.37a4.45,4.45,0,0,0-.86-1c-3-2.66-11.06-2.94-22.57,7.69-10,9.23-12.65,14-14.43,16-4,4.61-5.2,9.75-8.61,10.91"/><rect class="c" x="433.29" y="120.28" width="45.21" height="48.72" rx="14.12" transform="translate(911.8 289.27) rotate(-180)"/><path class="g" d="M443,120.84c6.55,0,12.36,4.78,12.36,11.37v25A11.16,11.16,0,0,1,447.58,168l-3.22.73"/><path class="l" d="M433.25,140.43c0-2.59,1.8-4.69,4-4.69s4,2.1,4,4.69"/><path class="l" d="M441.57,153.07c-2,3.52-4.47,4.29-7.61,4"/><path class="g" d="M437.81,157v3.17a1.93,1.93,0,0,1-1.93,1.93h-.73"/><line class="g" x1="447.11" y1="105.43" x2="447.11" y2="120.5"/><circle class="c" cx="447.11" cy="105.99" r="4.76"/><path class="m" d="M426.54,132h19.67a0,0,0,0,1,0,0v4.19a9.26,9.26,0,0,1-9.26,9.26H435.8a9.26,9.26,0,0,1-9.26-9.26V132a0,0,0,0,1,0,0Z"/><path class="l" d="M446.52,134.42h18.19a6.31,6.31,0,0,1,5.33,9.73c-.12.19-.26.38-.41.58"/><path class="c" d="M395.23,128.62a24.28,24.28,0,0,1,3.76-3.85c5.73-3.52,2.24-1.48,10.7-6.41,13.82-8.07,19.47-17.24,16.93-21.59a4.6,4.6,0,0,0-.83-1c-2.85-2.57-10.67-2.83-21.77,7.42a98.66,98.66,0,0,0-13.92,15.47c-3.85,4.45-5,9.41-8.31,10.53"/><path class="n" d="M363.77,121.34a16.57,16.57,0,1,1,33.13,0H345.83"/><g class="o"><g class="p"><rect class="f" x="369.75" y="159.42" width="17.8" height="17.8"/></g></g><circle class="g" cx="378.65" cy="168.32" r="4.56"/><g class="q"><g class="p"><rect class="f" x="369.75" y="164.98" width="17.8" height="17.8"/></g></g><circle class="c" cx="378.65" cy="173.88" r="4.56"/><g class="r"><g class="p"><rect class="f" x="369.75" y="159.42" width="17.8" height="17.8"/></g></g><circle class="c" cx="378.65" cy="168.32" r="4.56"/><circle class="c" cx="378.65" cy="162.75" r="4.56"/><path class="c" d="M361.68,280.89h33.09c5.9,0,10.69-6.42,10.69-14.34v-53c0-20.17-12.19-36.53-27.24-36.53S351,193.43,351,213.6v53C351,274.47,355.77,280.89,361.68,280.89Z"/><g class="s"><g class="k"><line class="g" x1="397.34" y1="273.3" x2="340.05" y2="188.4"/><line class="g" x1="392.38" y1="273.3" x2="335.1" y2="188.4"/><line class="g" x1="387.43" y1="273.3" x2="330.15" y2="188.4"/><line class="g" x1="382.48" y1="273.3" x2="325.2" y2="188.4"/><line class="g" x1="377.53" y1="273.3" x2="320.25" y2="188.4"/><line class="g" x1="372.58" y1="273.3" x2="315.3" y2="188.4"/><line class="g" x1="367.63" y1="273.3" x2="310.35" y2="188.4"/><line class="g" x1="362.68" y1="273.3" x2="305.4" y2="188.4"/><line class="g" x1="436.94" y1="273.3" x2="379.66" y2="188.4"/><line class="g" x1="431.99" y1="273.3" x2="374.71" y2="188.4"/><line class="g" x1="427.04" y1="273.3" x2="369.76" y2="188.4"/><line class="g" x1="422.09" y1="273.3" x2="364.81" y2="188.4"/><line class="g" x1="417.14" y1="273.3" x2="359.86" y2="188.4"/><line class="g" x1="412.19" y1="273.3" x2="354.91" y2="188.4"/><line class="g" x1="407.24" y1="273.3" x2="349.96" y2="188.4"/><line class="g" x1="402.29" y1="273.3" x2="345.01" y2="188.4"/><line class="g" x1="357.73" y1="273.3" x2="300.45" y2="188.4"/><line class="g" x1="352.78" y1="273.3" x2="295.5" y2="188.4"/><line class="g" x1="347.82" y1="273.3" x2="290.54" y2="188.4"/><line class="g" x1="342.87" y1="273.3" x2="285.59" y2="188.4"/></g></g><path class="g" d="M352.35,201.84c1.73-1.56,4.09-2,6.79-1.88,9,0,16.24,10.77,16.24,24.07v32c0,9-4.94,16.34-11,16.34H352.06"/><circle class="c" cx="380.3" cy="195.75" r="4.56"/><circle class="c" cx="382.18" cy="200.39" r="4.56"/><circle class="c" cx="384.61" cy="205.41" r="4.56"/><circle class="c" cx="386.48" cy="210.16" r="4.56"/><circle class="c" cx="387.68" cy="215.03" r="4.56"/><circle class="c" cx="385.38" cy="219.45" r="4.56"/><circle class="c" cx="382.58" cy="223.99" r="4.56"/><circle class="c" cx="379.78" cy="228.54" r="4.56"/><circle class="c" cx="376.98" cy="233.08" r="4.56"/><path class="c" d="M360,253.22a12.92,12.92,0,1,1,6.95,4l6.25-10.14a4,4,0,0,0-6.82-4.19Z"/><path class="c" d="M386.71,135.38c.3-.66,8.16-9.35,9.1-10.33,4.67-4.85,1.8-2,8.75-8.9,11.35-11.28,14.52-21.57,11-25.14a4.19,4.19,0,0,0-1.06-.77c-3.4-1.77-11-.07-19.21,12.64-7.1,11-8.54,16.08-9.58,18.48-.84,1.91.46.33-1.52,3.36-4.06-.68-1,7-3.89,8.91"/><rect class="c" x="357.56" y="121.55" width="43.61" height="46.99" rx="14.12" transform="translate(758.72 290.1) rotate(-180)"/><path class="g" d="M365.86,122.07c6.92,0,13.05,4.66,13,11l0,11.71,0,12.44c0,5-3.46,8.85-8.26,10.3l-3.25.16"/><path class="l" d="M364.89,147.59c-1.9,3.4-4.3,4.14-7.33,3.89"/><path class="g" d="M360.71,151.4v3.06a1.86,1.86,0,0,1-1.86,1.86h-.7"/><circle class="l" cx="364.36" cy="139.52" r="3.79"/><path class="c" d="M604.86,137c-.07-.75,2.48-12.63,2.82-14,1.68-6.77.58-2.72,3.24-12.52,4.35-16,1.86-26.89-3.18-28.26a4.55,4.55,0,0,0-1.35-.14c-4,.17-9.94,5.66-10.69,21.3-.66,13.6.66,18.87,1,21.56.25,2.15.59.06.39,3.81-4,1.49,2.75,6.79,1.12,10"/><g class="t"><g class="u"><rect class="f" x="588.64" y="168.79" width="14.93" height="14.93"/></g></g><circle class="g" cx="596.1" cy="176.26" r="3.83"/><g class="v"><g class="u"><rect class="f" x="588.64" y="173.46" width="14.93" height="14.93"/></g></g><circle class="c" cx="596.1" cy="180.92" r="3.83"/><g class="w"><g class="u"><rect class="f" x="588.64" y="168.79" width="14.93" height="14.93"/></g></g><circle class="c" cx="596.1" cy="176.26" r="3.83"/><circle class="c" cx="596.1" cy="171.59" r="3.83"/><path class="c" d="M581.86,270.67h27.75c5,0,9-5.39,9-12v-44.4c0-16.92-10.23-30.64-22.84-30.64s-22.85,13.72-22.85,30.64v44.4C572.89,265.28,576.91,270.67,581.86,270.67Z"/><g class="x"><g class="k"><line class="g" x1="611.77" y1="264.3" x2="563.73" y2="193.1"/><line class="g" x1="607.62" y1="264.3" x2="559.58" y2="193.1"/><line class="g" x1="603.46" y1="264.3" x2="555.43" y2="193.1"/><line class="g" x1="599.31" y1="264.3" x2="551.27" y2="193.1"/><line class="g" x1="595.16" y1="264.3" x2="547.12" y2="193.1"/><line class="g" x1="591.01" y1="264.3" x2="542.97" y2="193.1"/><line class="g" x1="586.85" y1="264.3" x2="538.82" y2="193.1"/><line class="g" x1="582.7" y1="264.3" x2="534.66" y2="193.1"/><line class="g" x1="644.99" y1="264.3" x2="596.95" y2="193.1"/><line class="g" x1="640.83" y1="264.3" x2="592.8" y2="193.1"/><line class="g" x1="636.68" y1="264.3" x2="588.64" y2="193.1"/><line class="g" x1="632.53" y1="264.3" x2="584.49" y2="193.1"/><line class="g" x1="628.38" y1="264.3" x2="580.34" y2="193.1"/><line class="g" x1="624.22" y1="264.3" x2="576.19" y2="193.1"/><line class="g" x1="620.07" y1="264.3" x2="572.03" y2="193.1"/><line class="g" x1="615.92" y1="264.3" x2="567.88" y2="193.1"/><line class="g" x1="578.55" y1="264.3" x2="530.51" y2="193.1"/><line class="g" x1="574.4" y1="264.3" x2="526.36" y2="193.1"/><line class="g" x1="570.25" y1="264.3" x2="522.21" y2="193.1"/><line class="g" x1="566.09" y1="264.3" x2="518.06" y2="193.1"/></g></g><path class="g" d="M574,204.38a7.62,7.62,0,0,1,5.69-1.59c7.53,0,13.63,9,13.63,20.19V249.8c0,7.57-4.14,13.71-9.25,13.71H573.79"/><circle class="c" cx="597.48" cy="199.27" r="3.83"/><circle class="c" cx="599.06" cy="203.16" r="3.83"/><circle class="c" cx="601.1" cy="207.37" r="3.83"/><circle class="c" cx="602.66" cy="211.35" r="3.83"/><circle class="c" cx="603.67" cy="215.44" r="3.83"/><circle class="c" cx="601.74" cy="219.14" r="3.83"/><circle class="c" cx="599.39" cy="222.95" r="3.83"/><circle class="c" cx="597.05" cy="226.76" r="3.83"/><circle class="c" cx="594.7" cy="230.57" r="3.83"/><path class="c" d="M580.44,247.46a10.84,10.84,0,1,1,5.83,3.33l5.24-8.5a3.36,3.36,0,1,0-5.72-3.52Z"/><path class="c" d="M612,130.47a25.27,25.27,0,0,1,2.71-4.86c4.78-5.08,1.84-2.1,9-9.33,11.63-11.83,14.79-22.54,11.07-26.2a4.2,4.2,0,0,0-1.1-.78c-3.56-1.8-11.45.06-19.77,13.33-7.22,11.53-8.54,16.83-9.71,19.27-2.64,5.49-2.46,10.77-5.46,12.79"/><rect class="c" x="572.71" y="121.64" width="45.21" height="48.72" rx="14.12" transform="translate(1190.63 291.99) rotate(-180)"/><path class="g" d="M583.92,169.85l2.33-.53c5-1.53,8.52-5.57,8.52-10.72v-25c0-5.77-4.88-10.15-10.91-11.16h-1.43"/><path class="l" d="M581,151.1c-2,3.53-4.46,4.3-7.61,4"/><path class="g" d="M577.23,155.06v3.17a1.93,1.93,0,0,1-1.94,1.93h-.72"/><line class="g" x1="586.52" y1="106.79" x2="586.52" y2="121.86"/><circle class="c" cx="586.52" cy="107.35" r="4.76"/><circle class="g" cx="578.44" cy="140.9" r="3.13"/><path class="c" d="M529.55,146.53c.06-.66,4.25-10.53,4.78-11.66,2.58-5.59.95-2.27,4.89-10.32,6.44-13.15,6.1-23,2-25a3.88,3.88,0,0,0-1.14-.35c-3.48-.52-9.57,3.25-12.83,16.68-2.83,11.68-2.57,16.47-2.76,18.85-.15,1.91.51.15-.3,3.36-3.71.63,1.25,6.35-.69,8.87"/><g class="y"><g class="z"><rect class="f" x="518.72" y="178.87" width="13.89" height="13.89"/></g></g><circle class="g" cx="525.67" cy="185.82" r="3.56"/><g class="aa"><g class="z"><rect class="f" x="518.72" y="183.21" width="13.89" height="13.89"/></g></g><circle class="c" cx="525.67" cy="190.16" r="3.56"/><g class="ab"><g class="z"><rect class="f" x="518.72" y="178.87" width="13.89" height="13.89"/></g></g><circle class="c" cx="525.67" cy="185.82" r="3.56"/><circle class="c" cx="525.67" cy="181.47" r="3.56"/><path class="c" d="M512.42,273.67h25.82c4.61,0,8.35-5,8.35-11.19V221.16c0-15.75-9.52-28.51-21.26-28.51s-21.26,12.76-21.26,28.51v41.32C504.07,268.66,507.81,273.67,512.42,273.67Z"/><g class="ac"><g class="k"><line class="g" x1="540.25" y1="267.74" x2="495.55" y2="201.49"/><line class="g" x1="536.39" y1="267.74" x2="491.68" y2="201.49"/><line class="g" x1="532.52" y1="267.74" x2="487.82" y2="201.49"/><line class="g" x1="528.66" y1="267.74" x2="483.96" y2="201.49"/><line class="g" x1="524.79" y1="267.74" x2="480.09" y2="201.49"/><line class="g" x1="520.93" y1="267.74" x2="476.23" y2="201.49"/><line class="g" x1="517.07" y1="267.74" x2="472.37" y2="201.49"/><line class="g" x1="513.2" y1="267.74" x2="468.5" y2="201.49"/><line class="g" x1="571.16" y1="267.74" x2="526.46" y2="201.49"/><line class="g" x1="567.3" y1="267.74" x2="522.6" y2="201.49"/><line class="g" x1="563.43" y1="267.74" x2="518.73" y2="201.49"/><line class="g" x1="559.57" y1="267.74" x2="514.87" y2="201.49"/><line class="g" x1="555.7" y1="267.74" x2="511" y2="201.49"/><line class="g" x1="551.84" y1="267.74" x2="507.14" y2="201.49"/><line class="g" x1="547.98" y1="267.74" x2="503.28" y2="201.49"/><line class="g" x1="544.11" y1="267.74" x2="499.41" y2="201.49"/><line class="g" x1="509.34" y1="267.74" x2="464.64" y2="201.49"/><line class="g" x1="505.48" y1="267.74" x2="460.77" y2="201.49"/><line class="g" x1="501.61" y1="267.74" x2="456.91" y2="201.49"/><line class="g" x1="497.75" y1="267.74" x2="453.05" y2="201.49"/></g></g><path class="g" d="M505.14,212a7.05,7.05,0,0,1,5.3-1.47c7,0,12.68,8.41,12.68,18.79v24.95c0,7.05-3.86,12.76-8.61,12.76h-9.6"/><circle class="c" cx="526.96" cy="207.23" r="3.56"/><circle class="c" cx="528.42" cy="210.85" r="3.56"/><circle class="c" cx="530.32" cy="214.76" r="3.56"/><circle class="c" cx="531.78" cy="218.47" r="3.56"/><circle class="c" cx="531.71" cy="221.77" r="3.56"/><circle class="c" cx="531.28" cy="225.63" r="3.56"/><circle class="c" cx="530.53" cy="229.73" r="3.56"/><circle class="c" cx="529.77" cy="233.83" r="3.56"/><circle class="c" cx="529.02" cy="237.92" r="3.56"/><path class="c" d="M522.33,257.37a10.09,10.09,0,1,1,6.18.93l1.68-9.14a3.12,3.12,0,0,0-6.14-1.13Z"/><rect class="c" x="505.33" y="137.31" width="39.91" height="43.01" rx="14.12" transform="translate(1050.57 317.63) rotate(-180)"/><path class="g" d="M513.89,137.81c5.78,0,10.91,4.22,10.91,10V170a9.85,9.85,0,0,1-6.86,9.46l-1.78.28"/><path class="l" d="M518.43,166.26c-3.06,3.11-6.91,3.79-11.77,3.56"/><path class="g" d="M510.06,169.75v2.8a1.72,1.72,0,0,1-1.71,1.71h-.64"/><line class="g" x1="517.52" y1="124.21" x2="517.52" y2="137.51"/><circle class="c" cx="517.52" cy="124.7" r="4.2"/><path class="l" d="M514.75,155.75a3.3,3.3,0,0,0-6.59,0"/><path class="c" d="M512.65,116.88h27.68a0,0,0,0,1,0,0v15a6.16,6.16,0,0,1-6.16,6.16H526a13.37,13.37,0,0,1-13.37-13.37v-7.79A0,0,0,0,1,512.65,116.88Z" transform="translate(1052.98 254.92) rotate(-180)"/><path class="c" d="M533.82,138.75a22.91,22.91,0,0,1,4.06-2.79c5.76-2.14,2.27-.93,10.74-3.87,13.82-4.81,20.52-12,19-16.4a3.81,3.81,0,0,0-.56-1c-2.11-2.81-9.09-4.43-20.86,2.82A90.15,90.15,0,0,0,531,128.9c-4.24,3.31-6.16,7.56-9.32,8"/><path class="c" d="M512.25,134.83H539.5a6.52,6.52,0,0,1,6.52,6.52v.4a0,0,0,0,1,0,0H505.73a0,0,0,0,1,0,0v-.4A6.52,6.52,0,0,1,512.25,134.83Z" transform="translate(1051.75 276.58) rotate(-180)"/><path class="ad" d="M624,248H4a1.5,1.5,0,0,1,0-3H624a1.5,1.5,0,0,1,0,3Z"/><g class="ah"><g class="k"><line class="ai" x1="0.69" y1="328.25" x2="-71.63" y2="221.05"/></g></g></svg>