<svg version="1.1" viewBox="0.0 0.0 1134.3464566929133 473.12335958005247" fill="none" stroke="none" stroke-linecap="square" stroke-miterlimit="10" xmlns:xlink="http://www.w3.org/1999/xlink" xmlns="http://www.w3.org/2000/svg"><clipPath id="p.0"><path d="m0 0l1134.3464 0l0 473.12335l-1134.3464 0l0 -473.12335z" clip-rule="nonzero"/></clipPath><g clip-path="url(#p.0)"><path fill="#000000" fill-opacity="0.0" d="m0 0l1134.3464 0l0 473.12335l-1134.3464 0z" fill-rule="evenodd"/><path fill="#000000" fill-opacity="0.0" d="m835.3132 40.000473l191.05511 0l0 56.314964l-191.05511 0z" fill-rule="evenodd"/><path fill="#002142" d="m903.8739 72.957954l-2.09375 0l-0.84375 -2.171875l-3.8125 0l-0.78125 2.171875l-2.046875 0l3.71875 -9.546875l2.03125 0l3.828125 9.546875zm-3.546875 -3.78125l-1.3125 -3.53125l-1.296875 3.53125l2.609375 0zm4.531372 3.78125l0 -9.546875l2.890625 0l1.734375 6.515625l1.703125 -6.515625l2.890625 0l0 9.546875l-1.78125 0l0 -7.515625l-1.90625 7.515625l-1.84375 0l-1.890625 -7.515625l0 7.515625l-1.796875 0zm18.821167 -1.203125q0.703125 0.5 1.53125 0.796875l-0.703125 1.359375q-0.4375 -0.125 -0.859375 -0.359375q-0.09375 -0.046875 -1.28125 -0.84375q-0.9375 0.40625 -2.078125 0.40625q-2.1875 0 -3.4375 -1.28125q-1.25 -1.296875 -1.25 -3.640625q0 -2.34375 1.25 -3.640625q1.25 -1.296875 3.390625 -1.296875q2.125 0 3.359375 1.296875q1.25 1.296875 1.25 3.640625q0 1.234375 -0.34375 2.171875q-0.265625 0.71875 -0.828125 1.390625zm-1.5625 -1.09375q0.375 -0.4375 0.5625 -1.046875q0.1875 -0.625 0.1875 -1.421875q0 -1.65625 -0.734375 -2.46875q-0.71875 -0.828125 -1.90625 -0.828125q-1.171875 0 -1.90625 0.828125q-0.734375 0.8125 -0.734375 2.46875q0 1.671875 0.734375 2.5q0.734375 0.828125 1.84375 0.828125q0.421875 0 0.796875 -0.140625q-0.59375 -0.375 -1.1875 -0.59375l0.53125 -1.109375q0.953125 0.328125 1.8125 0.984375zm4.2420654 2.296875l0 -9.546875l3.09375 0q1.75 0 2.296875 0.15625q0.8125 0.203125 1.359375 0.921875q0.5625 0.71875 0.5625 1.859375q0 0.875 -0.328125 1.484375q-0.3125 0.59375 -0.8125 0.9375q-0.484375 0.34375 -0.984375 0.453125q-0.703125 0.140625 -2.0 0.140625l-1.265625 0l0 3.59375l-1.921875 0zm1.921875 -7.921875l0 2.703125l1.0625 0q1.140625 0 1.515625 -0.140625q0.390625 -0.15625 0.609375 -0.46875q0.21875 -0.328125 0.21875 -0.75q0 -0.515625 -0.3125 -0.859375q-0.296875 -0.34375 -0.765625 -0.421875q-0.34375 -0.0625 -1.390625 -0.0625l-0.9375 0zm13.117493 -1.65625q1.390625 0 2.171875 0.984375q0.921875 1.171875 0.921875 3.890625q0 2.703125 -0.9375 3.890625q-0.765625 0.96875 -2.15625 0.96875q-1.390625 0 -2.25 -1.0625q-0.84375 -1.078125 -0.84375 -3.8125q0 -2.703125 0.9375 -3.890625q0.765625 -0.96875 2.15625 -0.96875zm0 1.515625q-0.328125 0 -0.59375 0.21875q-0.25 0.203125 -0.40625 0.75q-0.1875 0.703125 -0.1875 2.390625q0 1.671875 0.171875 2.3125q0.171875 0.625 0.421875 0.828125q0.265625 0.203125 0.59375 0.203125q0.328125 0 0.59375 -0.203125q0.265625 -0.21875 0.40625 -0.765625q0.1875 -0.703125 0.1875 -2.375q0 -1.6875 -0.171875 -2.3125q-0.171875 -0.625 -0.4375 -0.828125q-0.25 -0.21875 -0.578125 -0.21875zm4.7093506 8.0625l0 -1.828125l1.828125 0l0 1.828125l-1.828125 0zm3.359253 -2.203125l1.765625 -0.203125q0.0625 0.546875 0.328125 0.8125q0.28125 0.25 0.734375 0.25q0.5625 0 0.953125 -0.515625q0.40625 -0.515625 0.515625 -2.15625q-0.6875 0.796875 -1.71875 0.796875q-1.125 0 -1.953125 -0.859375q-0.8125 -0.875 -0.8125 -2.28125q0 -1.4375 0.859375 -2.328125q0.859375 -0.890625 2.203125 -0.890625q1.453125 0 2.375 1.125q0.9375 1.125 0.9375 3.6875q0 2.625 -0.96875 3.78125q-0.96875 1.15625 -2.53125 1.15625q-1.109375 0 -1.8125 -0.59375q-0.6875 -0.59375 -0.875 -1.78125zm4.140625 -4.0q0 -0.890625 -0.40625 -1.375q-0.40625 -0.484375 -0.953125 -0.484375q-0.5 0 -0.84375 0.40625q-0.328125 0.390625 -0.328125 1.296875q0 0.9375 0.359375 1.375q0.375 0.421875 0.921875 0.421875q0.515625 0 0.875 -0.40625q0.375 -0.421875 0.375 -1.234375zm3.6156006 6.203125l0 -1.828125l1.828125 0l0 1.828125l-1.828125 0zm7.999878 0l-1.828125 0l0 -6.890625q-1.000061 0.9375 -2.375061 1.390625l0 -1.671875q0.71875 -0.234375 1.5625 -0.875q0.84381104 -0.65625 1.156311 -1.53125l1.484375 0l0 9.578125z" fill-rule="nonzero"/><path fill="#0091da" d="m313.59058 225.7371l0 0c0 -12.637314 10.244568 -22.881897 22.881866 -22.881897l0 0c6.0686646 0 11.888763 2.4107666 16.179962 6.70195c4.291168 4.2911987 6.701935 10.111298 6.701935 16.179947l0 0c0 12.637314 -10.244568 22.881897 -22.881897 22.881897l0 0c-12.637299 0 -22.881866 -10.244583 -22.881866 -22.881897z" fill-rule="evenodd"/><path fill="#000000" fill-opacity="0.0" d="m320.2925 209.55716l32.359894 32.35988m0 -32.35988l-32.359894 32.35988" fill-rule="evenodd"/><path fill="#000000" fill-opacity="0.0" d="m313.59058 225.7371l0 0c0 -12.637314 10.244568 -22.881897 22.881866 -22.881897l0 0c6.0686646 0 11.888763 2.4107666 16.179962 6.70195c4.291168 4.2911987 6.701935 10.111298 6.701935 16.179947l0 0c0 12.637314 -10.244568 22.881897 -22.881897 22.881897l0 0c-12.637299 0 -22.881866 -10.244583 -22.881866 -22.881897z" fill-rule="evenodd"/><path stroke="#1a428a" stroke-width="2.0" stroke-linejoin="round" stroke-linecap="butt" d="m320.2925 209.55716l32.359894 32.35988m0 -32.35988l-32.359894 32.35988" fill-rule="evenodd"/><path stroke="#1a428a" stroke-width="2.0" stroke-linejoin="round" stroke-linecap="butt" d="m313.59058 225.7371l0 0c0 -12.637314 10.244568 -22.881897 22.881866 -22.881897l0 0c6.0686646 0 11.888763 2.4107666 16.179962 6.70195c4.291168 4.2911987 6.701935 10.111298 6.701935 16.179947l0 0c0 12.637314 -10.244568 22.881897 -22.881897 22.881897l0 0c-12.637299 0 -22.881866 -10.244583 -22.881866 -22.881897z" fill-rule="evenodd"/><path fill="#0091da" d="m627.03107 57.813652l0 0c7.2440796 0 13.116577 12.028381 13.116577 26.866142c0 14.837761 -5.8724976 26.866142 -13.116577 26.866142l213.57788 0c7.2440796 0 13.116577 -12.028381 13.116577 -26.866142c0 -14.837761 -5.8724976 -26.866142 -13.116577 -26.866142z" fill-rule="evenodd"/><path fill="#66bde8" d="m627.03107 57.813652l0 0c-7.2440796 0 -13.116577 12.028381 -13.116577 26.866142c0 14.837761 5.8724976 26.866142 13.116577 26.866142l0 0c7.2440796 0 13.116577 -12.028381 13.116577 -26.866142c0 -14.837761 -5.8724976 -26.866142 -13.116577 -26.866142z" fill-rule="evenodd"/><path fill="#000000" fill-opacity="0.0" d="m627.03107 111.54594l0 0c7.2440796 0 13.116577 -12.028381 13.116577 -26.866142c0 -14.837761 -5.8724976 -26.866142 -13.116577 -26.866142l0 0c-7.2440796 0 -13.116577 12.028381 -13.116577 26.866142c0 14.837761 5.8724976 26.866142 13.116577 26.866142l213.57788 0c7.2440796 0 13.116577 -12.028381 13.116577 -26.866142c0 -14.837761 -5.8724976 -26.866142 -13.116577 -26.866142l-213.57788 0" fill-rule="evenodd"/><path fill="#000000" fill-opacity="0.0" d="m359.35434 225.7371l254.67715 0" fill-rule="evenodd"/><path stroke="#0091da" stroke-width="2.0" stroke-linejoin="round" stroke-linecap="butt" d="m359.35434 225.7371l242.67715 0" fill-rule="evenodd"/><path fill="#0091da" stroke="#0091da" stroke-width="2.0" stroke-linecap="butt" d="m602.0315 229.04057l9.076172 -3.3034668l-9.076172 -3.3034668z" fill-rule="evenodd"/><path fill="#000000" fill-opacity="0.0" d="m164.3222 225.73872l149.25983 0" fill-rule="evenodd"/><path stroke="#0091da" stroke-width="2.0" stroke-linejoin="round" stroke-linecap="butt" d="m164.3222 225.73872l142.40567 0" fill-rule="evenodd"/><path fill="#0091da" stroke="#0091da" stroke-width="2.0" stroke-linecap="butt" d="m306.72787 225.73872l-2.249176 2.2491608l6.179535 -2.2491608l-6.179535 -2.249176z" fill-rule="evenodd"/><path fill="#0091da" d="m627.1492 200.7451l0 0c7.2441406 0 13.116638 12.028381 13.116638 26.866135c0 14.837769 -5.8724976 26.86615 -13.116638 26.86615l213.57788 0c7.2440796 0 13.116577 -12.028381 13.116577 -26.86615c0 -14.837753 -5.8724976 -26.866135 -13.116577 -26.866135z" fill-rule="evenodd"/><path fill="#66bde8" d="m627.1492 200.7451l0 0c-7.2440796 0 -13.116577 12.028381 -13.116577 26.866135c0 14.837769 5.8724976 26.86615 13.116577 26.86615l0 0c7.2441406 0 13.116638 -12.028381 13.116638 -26.86615c0 -14.837753 -5.8724976 -26.866135 -13.116638 -26.866135z" fill-rule="evenodd"/><path fill="#000000" fill-opacity="0.0" d="m627.1492 254.47739l0 0c7.2441406 0 13.116638 -12.028381 13.116638 -26.86615c0 -14.837753 -5.8724976 -26.866135 -13.116638 -26.866135l0 0c-7.2440796 0 -13.116577 12.028381 -13.116577 26.866135c0 14.837769 5.8724976 26.86615 13.116577 26.86615l213.57788 0c7.2440796 0 13.116577 -12.028381 13.116577 -26.86615c0 -14.837753 -5.8724976 -26.866135 -13.116577 -26.866135l-213.57788 0" fill-rule="evenodd"/><path fill="#000000" fill-opacity="0.0" d="m638.2975 101.41277l191.05511 0l0 56.314964l-191.05511 0z" fill-rule="evenodd"/><path fill="#002142" d="m719.32117 133.97713q0.84375 0.609375 1.84375 0.96875l-0.84375 1.640625q-0.53125 -0.15625 -1.03125 -0.4375q-0.109375 -0.046875 -1.53125 -1.015625q-1.125 0.5 -2.5 0.5q-2.640625 0 -4.140625 -1.5625q-1.484375 -1.5625 -1.484375 -4.375q0 -2.796875 1.5 -4.359375q1.5 -1.5625 4.0625 -1.5625q2.546875 0 4.03125 1.5625q1.5 1.5625 1.5 4.359375q0 1.484375 -0.40625 2.609375q-0.3125 0.859375 -1.0 1.671875zm-1.859375 -1.3125q0.4375 -0.515625 0.65625 -1.25q0.234375 -0.75 0.234375 -1.71875q0 -1.984375 -0.875 -2.953125q-0.875 -0.984375 -2.296875 -0.984375q-1.40625 0 -2.296875 0.984375q-0.875 0.984375 -0.875 2.953125q0 2.015625 0.875 3.015625q0.890625 0.984375 2.234375 0.984375q0.5 0 0.9375 -0.15625q-0.703125 -0.46875 -1.421875 -0.71875l0.640625 -1.328125q1.140625 0.390625 2.1875 1.171875zm10.5234375 2.765625l0 -1.25q-0.453125 0.671875 -1.1875 1.0625q-0.734375 0.375 -1.5625 0.375q-0.828125 0 -1.5 -0.359375q-0.65625 -0.375 -0.953125 -1.03125q-0.296875 -0.671875 -0.296875 -1.84375l0 -5.25l2.1875 0l0 3.8125q0 1.75 0.125 2.140625q0.125 0.390625 0.4375 0.625q0.328125 0.234375 0.8125 0.234375q0.5625 0 1.0 -0.3125q0.453125 -0.3125 0.609375 -0.765625q0.171875 -0.453125 0.171875 -2.234375l0 -3.5l2.203125 0l0 8.296875l-2.046875 0zm9.1171875 -2.640625l2.1875 0.359375q-0.421875 1.203125 -1.328125 1.84375q-0.90625 0.625 -2.28125 0.625q-2.15625 0 -3.203125 -1.421875q-0.8125 -1.125 -0.8125 -2.859375q0 -2.0625 1.078125 -3.21875q1.078125 -1.171875 2.71875 -1.171875q1.859375 0 2.921875 1.21875q1.078125 1.21875 1.03125 3.75l-5.5 0q0.015625 0.96875 0.515625 1.515625q0.515625 0.546875 1.28125 0.546875q0.515625 0 0.859375 -0.28125q0.359375 -0.28125 0.53125 -0.90625zm0.125 -2.21875q-0.015625 -0.953125 -0.484375 -1.453125q-0.46875 -0.5 -1.140625 -0.5q-0.71875 0 -1.1875 0.53125q-0.46875 0.515625 -0.46875 1.421875l3.28125 0zm9.4296875 4.859375l0 -1.25q-0.453125 0.671875 -1.1875 1.0625q-0.734375 0.375 -1.5625 0.375q-0.828125 0 -1.5 -0.359375q-0.65625 -0.375 -0.953125 -1.03125q-0.296875 -0.671875 -0.296875 -1.84375l0 -5.25l2.1875 0l0 3.8125q0 1.75 0.125 2.140625q0.125 0.390625 0.4375 0.625q0.328125 0.234375 0.8125 0.234375q0.5625 0 1.0 -0.3125q0.453125 -0.3125 0.609375 -0.765625q0.171875 -0.453125 0.171875 -2.234375l0 -3.5l2.203125 0l0 8.296875l-2.046875 0zm9.1171875 -2.640625l2.1875 0.359375q-0.421875 1.203125 -1.328125 1.84375q-0.90625 0.625 -2.28125 0.625q-2.15625 0 -3.203125 -1.421875q-0.8125 -1.125 -0.8125 -2.859375q0 -2.0625 1.078125 -3.21875q1.078125 -1.171875 2.71875 -1.171875q1.859375 0 2.921875 1.21875q1.078125 1.21875 1.03125 3.75l-5.5 0q0.015625 0.96875 0.515625 1.515625q0.515625 0.546875 1.28125 0.546875q0.515625 0 0.859375 -0.28125q0.359375 -0.28125 0.53125 -0.90625zm0.125 -2.21875q-0.015625 -0.953125 -0.484375 -1.453125q-0.46875 -0.5 -1.140625 -0.5q-0.71875 0 -1.1875 0.53125q-0.46875 0.515625 -0.46875 1.421875l3.28125 0z" fill-rule="nonzero"/><path fill="#0091da" d="m63.13713 106.736984l101.19685 0l0 56.314957l-101.19685 0z" fill-rule="evenodd"/><path fill="#ffffff" d="m84.33854 139.69446l0 -9.546875l3.09375 0q1.75 0 2.296875 0.15625q0.8125 0.203125 1.359375 0.921875q0.5625 0.71875 0.5625 1.859375q0 0.875 -0.328125 1.484375q-0.3125 0.59375 -0.8125 0.9375q-0.484375 0.34375 -0.984375 0.453125q-0.703125 0.140625 -2.0 0.140625l-1.265625 0l0 3.59375l-1.921875 0zm1.921875 -7.921875l0 2.703125l1.0625 0q1.140625 0 1.515625 -0.140625q0.390625 -0.15625 0.609375 -0.46875q0.21875 -0.328125 0.21875 -0.75q0 -0.515625 -0.3125 -0.859375q-0.296875 -0.34375 -0.765625 -0.421875q-0.34375 -0.0625 -1.390625 -0.0625l-0.9375 0zm11.49913 7.921875l0 -1.03125q-0.375 0.546875 -1.0 0.875q-0.609375 0.3125 -1.28125 0.3125q-0.703125 0 -1.265625 -0.296875q-0.546875 -0.3125 -0.796875 -0.859375q-0.234375 -0.5625 -0.234375 -1.53125l0 -4.375l1.828125 0l0 3.171875q0 1.453125 0.09375 1.78125q0.109375 0.328125 0.375 0.53125q0.265625 0.1875 0.671875 0.1875q0.46875 0 0.84375 -0.25q0.375 -0.265625 0.5 -0.640625q0.140625 -0.390625 0.140625 -1.875l0 -2.90625l1.828125 0l0 6.90625l-1.703125 0zm3.5163574 0l0 -9.546875l1.828125 0l0 3.4375q0.84375 -0.953125 2.015625 -0.953125q1.25 0 2.078125 0.921875q0.828125 0.90625 0.828125 2.609375q0 1.78125 -0.84375 2.734375q-0.84375 0.953125 -2.046875 0.953125q-0.59375 0 -1.171875 -0.296875q-0.5625 -0.296875 -0.984375 -0.875l0 1.015625l-1.703125 0zm1.8125 -3.609375q0 1.078125 0.34375 1.59375q0.46875 0.734375 1.265625 0.734375q0.609375 0 1.03125 -0.515625q0.421875 -0.53125 0.421875 -1.640625q0 -1.1875 -0.4375 -1.703125q-0.421875 -0.53125 -1.09375 -0.53125q-0.65625 0 -1.09375 0.515625q-0.4375 0.515625 -0.4375 1.546875zm6.4069824 3.609375l0 -9.546875l1.828125 0l0 9.546875l-1.828125 0zm3.7029877 -7.84375l0 -1.703125l1.828125 0l0 1.703125l-1.828125 0zm0 7.84375l0 -6.90625l1.828125 0l0 6.90625l-1.828125 0zm3.0623627 -1.96875l1.828125 -0.28125q0.125 0.53125 0.484375 0.8125q0.359375 0.265625 1.0 0.265625q0.703125 0 1.0625 -0.25q0.25 -0.1875 0.25 -0.484375q0 -0.21875 -0.140625 -0.359375q-0.125 -0.125 -0.609375 -0.234375q-2.203125 -0.484375 -2.796875 -0.890625q-0.828125 -0.5625 -0.828125 -1.5625q0 -0.890625 0.703125 -1.5q0.71875 -0.609375 2.203125 -0.609375q1.421875 0 2.109375 0.46875q0.703125 0.453125 0.953125 1.359375l-1.71875 0.3125q-0.109375 -0.40625 -0.421875 -0.609375q-0.3125 -0.21875 -0.890625 -0.21875q-0.71875 0 -1.03125 0.203125q-0.203125 0.140625 -0.203125 0.359375q0 0.203125 0.1875 0.34375q0.234375 0.171875 1.6875 0.515625q1.46875 0.328125 2.0625 0.8125q0.5625 0.484375 0.5625 1.359375q0 0.953125 -0.796875 1.640625q-0.78125 0.671875 -2.34375 0.671875q-1.40625 0 -2.234375 -0.5625q-0.828125 -0.578125 -1.078125 -1.5625zm9.881226 -7.578125l0 3.515625q0.875 -1.03125 2.1093674 -1.03125q0.640625 0 1.140625 0.234375q0.515625 0.234375 0.765625 0.59375q0.25 0.359375 0.34375 0.8125q0.109375 0.4375 0.109375 1.375l0 4.046875l-1.828125 0l0 -3.65625q0 -1.078125 -0.109375 -1.375q-0.109375 -0.296875 -0.375 -0.46875q-0.265625 -0.171875 -0.6562424 -0.171875q-0.453125 0 -0.8125 0.234375q-0.359375 0.21875 -0.53125 0.671875q-0.15625 0.4375 -0.15625 1.296875l0 3.46875l-1.828125 0l0 -9.546875l1.828125 0zm10.313225 7.34375l1.828125 0.3125q-0.34375 1.0 -1.109375 1.53125q-0.765625 0.515625 -1.890625 0.515625q-1.8125 0 -2.671875 -1.171875q-0.6875 -0.953125 -0.6875 -2.390625q0 -1.71875 0.890625 -2.6875q0.90625 -0.96875 2.28125 -0.96875q1.546875 0 2.4375 1.015625q0.890625 1.015625 0.84375 3.125l-4.578125 0q0.015625 0.8125 0.4375 1.265625q0.421875 0.453125 1.0625 0.453125q0.421875 0 0.71875 -0.234375q0.296875 -0.234375 0.4375 -0.765625zm0.109375 -1.84375q-0.015625 -0.796875 -0.40625 -1.203125q-0.390625 -0.421875 -0.953125 -0.421875q-0.59375 0 -0.984375 0.4375q-0.390625 0.4375 -0.390625 1.1875l2.734375 0zm5.0531006 4.046875l-1.828125 0l0 -6.90625l1.703125 0l0 0.984375q0.4375 -0.703125 0.78125 -0.921875q0.34375 -0.21875 0.796875 -0.21875q0.625 0 1.203125 0.34375l-0.5625 1.59375q-0.46875 -0.296875 -0.859375 -0.296875q-0.390625 0 -0.65625 0.21875q-0.265625 0.203125 -0.421875 0.765625q-0.15625 0.546875 -0.15625 2.296875l0 2.140625z" fill-rule="nonzero"/><path fill="#0091da" d="m63.13713 197.57936l101.19685 0l0 56.314957l-101.19685 0z" fill-rule="evenodd"/><path fill="#ffffff" d="m84.33854 230.53683l0 -9.546875l3.09375 0q1.75 0 2.296875 0.15625q0.8125 0.203125 1.359375 0.921875q0.5625 0.71875 0.5625 1.859375q0 0.875 -0.328125 1.484375q-0.3125 0.59375 -0.8125 0.9375q-0.484375 0.34375 -0.984375 0.453125q-0.703125 0.140625 -2.0 0.140625l-1.265625 0l0 3.59375l-1.921875 0zm1.921875 -7.921875l0 2.703125l1.0625 0q1.140625 0 1.515625 -0.140625q0.390625 -0.15625 0.609375 -0.46875q0.21875 -0.328125 0.21875 -0.75q0 -0.515625 -0.3125 -0.859375q-0.296875 -0.34375 -0.765625 -0.421875q-0.34375 -0.0625 -1.390625 -0.0625l-0.9375 0zm11.49913 7.921875l0 -1.03125q-0.375 0.546875 -1.0 0.875q-0.609375 0.3125 -1.28125 0.3125q-0.703125 0 -1.265625 -0.296875q-0.546875 -0.3125 -0.796875 -0.859375q-0.234375 -0.5625 -0.234375 -1.53125l0 -4.375l1.828125 0l0 3.171875q0 1.453125 0.09375 1.78125q0.109375 0.328125 0.375 0.53125q0.265625 0.1875 0.671875 0.1875q0.46875 0 0.84375 -0.25q0.375 -0.265625 0.5 -0.640625q0.140625 -0.390625 0.140625 -1.875l0 -2.90625l1.828125 0l0 6.90625l-1.703125 0zm3.5163574 0l0 -9.546875l1.828125 0l0 3.4375q0.84375 -0.953125 2.015625 -0.953125q1.25 0 2.078125 0.921875q0.828125 0.90625 0.828125 2.609375q0 1.78125 -0.84375 2.734375q-0.84375 0.953125 -2.046875 0.953125q-0.59375 0 -1.171875 -0.296875q-0.5625 -0.296875 -0.984375 -0.875l0 1.015625l-1.703125 0zm1.8125 -3.609375q0 1.078125 0.34375 1.59375q0.46875 0.734375 1.265625 0.734375q0.609375 0 1.03125 -0.515625q0.421875 -0.53125 0.421875 -1.640625q0 -1.1875 -0.4375 -1.703125q-0.421875 -0.53125 -1.09375 -0.53125q-0.65625 0 -1.09375 0.515625q-0.4375 0.515625 -0.4375 1.546875zm6.4069824 3.609375l0 -9.546875l1.828125 0l0 9.546875l-1.828125 0zm3.7029877 -7.84375l0 -1.703125l1.828125 0l0 1.703125l-1.828125 0zm0 7.84375l0 -6.90625l1.828125 0l0 6.90625l-1.828125 0zm3.0623627 -1.96875l1.828125 -0.28125q0.125 0.53125 0.484375 0.8125q0.359375 0.265625 1.0 0.265625q0.703125 0 1.0625 -0.25q0.25 -0.1875 0.25 -0.484375q0 -0.21875 -0.140625 -0.359375q-0.125 -0.125 -0.609375 -0.234375q-2.203125 -0.484375 -2.796875 -0.890625q-0.828125 -0.5625 -0.828125 -1.5625q0 -0.890625 0.703125 -1.5q0.71875 -0.609375 2.203125 -0.609375q1.421875 0 2.109375 0.46875q0.703125 0.453125 0.953125 1.359375l-1.71875 0.3125q-0.109375 -0.40625 -0.421875 -0.609375q-0.3125 -0.21875 -0.890625 -0.21875q-0.71875 0 -1.03125 0.203125q-0.203125 0.140625 -0.203125 0.359375q0 0.203125 0.1875 0.34375q0.234375 0.171875 1.6875 0.515625q1.46875 0.328125 2.0625 0.8125q0.5625 0.484375 0.5625 1.359375q0 0.953125 -0.796875 1.640625q-0.78125 0.671875 -2.34375 0.671875q-1.40625 0 -2.234375 -0.5625q-0.828125 -0.578125 -1.078125 -1.5625zm9.881226 -7.578125l0 3.515625q0.875 -1.03125 2.1093674 -1.03125q0.640625 0 1.140625 0.234375q0.515625 0.234375 0.765625 0.59375q0.25 0.359375 0.34375 0.8125q0.109375 0.4375 0.109375 1.375l0 4.046875l-1.828125 0l0 -3.65625q0 -1.078125 -0.109375 -1.375q-0.109375 -0.296875 -0.375 -0.46875q-0.265625 -0.171875 -0.6562424 -0.171875q-0.453125 0 -0.8125 0.234375q-0.359375 0.21875 -0.53125 0.671875q-0.15625 0.4375 -0.15625 1.296875l0 3.46875l-1.828125 0l0 -9.546875l1.828125 0zm10.313225 7.34375l1.828125 0.3125q-0.34375 1.0 -1.109375 1.53125q-0.765625 0.515625 -1.890625 0.515625q-1.8125 0 -2.671875 -1.171875q-0.6875 -0.953125 -0.6875 -2.390625q0 -1.71875 0.890625 -2.6875q0.90625 -0.96875 2.28125 -0.96875q1.546875 0 2.4375 1.015625q0.890625 1.015625 0.84375 3.125l-4.578125 0q0.015625 0.8125 0.4375 1.265625q0.421875 0.453125 1.0625 0.453125q0.421875 0 0.71875 -0.234375q0.296875 -0.234375 0.4375 -0.765625zm0.109375 -1.84375q-0.015625 -0.796875 -0.40625 -1.203125q-0.390625 -0.421875 -0.953125 -0.421875q-0.59375 0 -0.984375 0.4375q-0.390625 0.4375 -0.390625 1.1875l2.734375 0zm5.0531006 4.046875l-1.828125 0l0 -6.90625l1.703125 0l0 0.984375q0.4375 -0.703125 0.78125 -0.921875q0.34375 -0.21875 0.796875 -0.21875q0.625 0 1.203125 0.34375l-0.5625 1.59375q-0.46875 -0.296875 -0.859375 -0.296875q-0.390625 0 -0.65625 0.21875q-0.265625 0.203125 -0.421875 0.765625q-0.15625 0.546875 -0.15625 2.296875l0 2.140625z" fill-rule="nonzero"/><path fill="#0091da" d="m63.13713 288.41995l101.19685 0l0 56.31494l-101.19685 0z" fill-rule="evenodd"/><path fill="#ffffff" d="m84.33854 321.3774l0 -9.546875l3.09375 0q1.75 0 2.296875 0.15625q0.8125 0.203125 1.359375 0.921875q0.5625 0.71875 0.5625 1.859375q0 0.875 -0.328125 1.484375q-0.3125 0.59375 -0.8125 0.9375q-0.484375 0.34375 -0.984375 0.453125q-0.703125 0.140625 -2.0 0.140625l-1.265625 0l0 3.59375l-1.921875 0zm1.921875 -7.921875l0 2.703125l1.0625 0q1.140625 0 1.515625 -0.140625q0.390625 -0.15625 0.609375 -0.46875q0.21875 -0.328125 0.21875 -0.75q0 -0.515625 -0.3125 -0.859375q-0.296875 -0.34375 -0.765625 -0.421875q-0.34375 -0.0625 -1.390625 -0.0625l-0.9375 0zm11.49913 7.921875l0 -1.03125q-0.375 0.546875 -1.0 0.875q-0.609375 0.3125 -1.28125 0.3125q-0.703125 0 -1.265625 -0.296875q-0.546875 -0.3125 -0.796875 -0.859375q-0.234375 -0.5625 -0.234375 -1.53125l0 -4.375l1.828125 0l0 3.171875q0 1.453125 0.09375 1.78125q0.109375 0.328125 0.375 0.53125q0.265625 0.1875 0.671875 0.1875q0.46875 0 0.84375 -0.25q0.375 -0.265625 0.5 -0.640625q0.140625 -0.390625 0.140625 -1.875l0 -2.90625l1.828125 0l0 6.90625l-1.703125 0zm3.5163574 0l0 -9.546875l1.828125 0l0 3.4375q0.84375 -0.953125 2.015625 -0.953125q1.25 0 2.078125 0.921875q0.828125 0.90625 0.828125 2.609375q0 1.78125 -0.84375 2.734375q-0.84375 0.953125 -2.046875 0.953125q-0.59375 0 -1.171875 -0.296875q-0.5625 -0.296875 -0.984375 -0.875l0 1.015625l-1.703125 0zm1.8125 -3.609375q0 1.078125 0.34375 1.59375q0.46875 0.734375 1.265625 0.734375q0.609375 0 1.03125 -0.515625q0.421875 -0.53125 0.421875 -1.640625q0 -1.1875 -0.4375 -1.703125q-0.421875 -0.53125 -1.09375 -0.53125q-0.65625 0 -1.09375 0.515625q-0.4375 0.515625 -0.4375 1.546875zm6.4069824 3.609375l0 -9.546875l1.828125 0l0 9.546875l-1.828125 0zm3.7029877 -7.84375l0 -1.703125l1.828125 0l0 1.703125l-1.828125 0zm0 7.84375l0 -6.90625l1.828125 0l0 6.90625l-1.828125 0zm3.0623627 -1.96875l1.828125 -0.28125q0.125 0.53125 0.484375 0.8125q0.359375 0.265625 1.0 0.265625q0.703125 0 1.0625 -0.25q0.25 -0.1875 0.25 -0.484375q0 -0.21875 -0.140625 -0.359375q-0.125 -0.125 -0.609375 -0.234375q-2.203125 -0.484375 -2.796875 -0.890625q-0.828125 -0.5625 -0.828125 -1.5625q0 -0.890625 0.703125 -1.5q0.71875 -0.609375 2.203125 -0.609375q1.421875 0 2.109375 0.46875q0.703125 0.453125 0.953125 1.359375l-1.71875 0.3125q-0.109375 -0.40625 -0.421875 -0.609375q-0.3125 -0.21875 -0.890625 -0.21875q-0.71875 0 -1.03125 0.203125q-0.203125 0.140625 -0.203125 0.359375q0 0.203125 0.1875 0.34375q0.234375 0.171875 1.6875 0.515625q1.46875 0.328125 2.0625 0.8125q0.5625 0.484375 0.5625 1.359375q0 0.953125 -0.796875 1.640625q-0.78125 0.671875 -2.34375 0.671875q-1.40625 0 -2.234375 -0.5625q-0.828125 -0.578125 -1.078125 -1.5625zm9.881226 -7.578125l0 3.515625q0.875 -1.03125 2.1093674 -1.03125q0.640625 0 1.140625 0.234375q0.515625 0.234375 0.765625 0.59375q0.25 0.359375 0.34375 0.8125q0.109375 0.4375 0.109375 1.375l0 4.046875l-1.828125 0l0 -3.65625q0 -1.078125 -0.109375 -1.375q-0.109375 -0.296875 -0.375 -0.46875q-0.265625 -0.171875 -0.6562424 -0.171875q-0.453125 0 -0.8125 0.234375q-0.359375 0.21875 -0.53125 0.671875q-0.15625 0.4375 -0.15625 1.296875l0 3.46875l-1.828125 0l0 -9.546875l1.828125 0zm10.313225 7.34375l1.828125 0.3125q-0.34375 1.0 -1.109375 1.53125q-0.765625 0.515625 -1.890625 0.515625q-1.8125 0 -2.671875 -1.171875q-0.6875 -0.953125 -0.6875 -2.390625q0 -1.71875 0.890625 -2.6875q0.90625 -0.96875 2.28125 -0.96875q1.546875 0 2.4375 1.015625q0.890625 1.015625 0.84375 3.125l-4.578125 0q0.015625 0.8125 0.4375 1.265625q0.421875 0.453125 1.0625 0.453125q0.421875 0 0.71875 -0.234375q0.296875 -0.234375 0.4375 -0.765625zm0.109375 -1.84375q-0.015625 -0.796875 -0.40625 -1.203125q-0.390625 -0.421875 -0.953125 -0.421875q-0.59375 0 -0.984375 0.4375q-0.390625 0.4375 -0.390625 1.1875l2.734375 0zm5.0531006 4.046875l-1.828125 0l0 -6.90625l1.703125 0l0 0.984375q0.4375 -0.703125 0.78125 -0.921875q0.34375 -0.21875 0.796875 -0.21875q0.625 0 1.203125 0.34375l-0.5625 1.59375q-0.46875 -0.296875 -0.859375 -0.296875q-0.390625 0 -0.65625 0.21875q-0.265625 0.203125 -0.421875 0.765625q-0.15625 0.546875 -0.15625 2.296875l0 2.140625z" fill-rule="nonzero"/><path fill="#000000" fill-opacity="0.0" d="m164.33398 134.89445l149.25983 90.834656" fill-rule="evenodd"/><path stroke="#0091da" stroke-width="2.0" stroke-linejoin="round" stroke-linecap="butt" d="m164.33398 134.89445l143.4047 87.27139" fill-rule="evenodd"/><path fill="#0091da" stroke="#0091da" stroke-width="2.0" stroke-linecap="butt" d="m307.73868 222.16585l-3.0906067 0.7520752l6.44812 1.2911987l-4.1095886 -5.1338806z" fill-rule="evenodd"/><path fill="#000000" fill-opacity="0.0" d="m164.33398 316.57742l149.25983 -90.83464" fill-rule="evenodd"/><path stroke="#0091da" stroke-width="2.0" stroke-linejoin="round" stroke-linecap="butt" d="m164.33398 316.57742l143.4047 -87.27138" fill-rule="evenodd"/><path fill="#0091da" stroke="#0091da" stroke-width="2.0" stroke-linecap="butt" d="m307.73868 229.30605l-0.7520752 3.0906067l4.1095886 -5.1338806l-6.44812 1.2911835z" fill-rule="evenodd"/><path fill="#0091da" d="m627.03107 336.54794l0 0c7.2440796 0 13.116577 12.028381 13.116577 26.86612c0 14.837769 -5.8724976 26.86615 -13.116577 26.86615l213.57788 0c7.2440796 0 13.116577 -12.028381 13.116577 -26.86615c0 -14.837738 -5.8724976 -26.86612 -13.116577 -26.86612z" fill-rule="evenodd"/><path fill="#66bde8" d="m627.03107 336.54794l0 0c-7.2440796 0 -13.116577 12.028381 -13.116577 26.86612c0 14.837769 5.8724976 26.86615 13.116577 26.86615l0 0c7.2440796 0 13.116577 -12.028381 13.116577 -26.86615c0 -14.837738 -5.8724976 -26.86612 -13.116577 -26.86612z" fill-rule="evenodd"/><path fill="#000000" fill-opacity="0.0" d="m627.03107 390.2802l0 0c7.2440796 0 13.116577 -12.028381 13.116577 -26.86615c0 -14.837738 -5.8724976 -26.86612 -13.116577 -26.86612l0 0c-7.2440796 0 -13.116577 12.028381 -13.116577 26.86612c0 14.837769 5.8724976 26.86615 13.116577 26.86615l213.57788 0c7.2440796 0 13.116577 -12.028381 13.116577 -26.86615c0 -14.837738 -5.8724976 -26.86612 -13.116577 -26.86612l-213.57788 0" fill-rule="evenodd"/><path fill="#000000" fill-opacity="0.0" d="m359.41733 225.7371l253.98428 139.05513" fill-rule="evenodd"/><path stroke="#0091da" stroke-width="2.0" stroke-linejoin="round" stroke-linecap="butt" d="m359.41733 225.7371l243.45853 133.29237" fill-rule="evenodd"/><path fill="#0091da" stroke="#0091da" stroke-width="2.0" stroke-linecap="butt" d="m601.2894 361.92706l9.547546 1.4610901l-6.374695 -7.2562866z" fill-rule="evenodd"/><path fill="#000000" fill-opacity="0.0" d="m638.2975 249.13498l191.05511 0l0 56.31494l-191.05511 0z" fill-rule="evenodd"/><path fill="#002142" d="m719.32117 281.69934q0.84375 0.609375 1.84375 0.96875l-0.84375 1.640625q-0.53125 -0.15625 -1.03125 -0.4375q-0.109375 -0.046875 -1.53125 -1.015625q-1.125 0.5 -2.5 0.5q-2.640625 0 -4.140625 -1.5625q-1.484375 -1.5625 -1.484375 -4.375q0 -2.796875 1.5 -4.359375q1.5 -1.5625 4.0625 -1.5625q2.546875 0 4.03125 1.5625q1.5 1.5625 1.5 4.359375q0 1.484375 -0.40625 2.609375q-0.3125 0.859375 -1.0 1.671875zm-1.859375 -1.3125q0.4375 -0.515625 0.65625 -1.25q0.234375 -0.75 0.234375 -1.71875q0 -1.984375 -0.875 -2.953125q-0.875 -0.984375 -2.296875 -0.984375q-1.40625 0 -2.296875 0.984375q-0.875 0.984375 -0.875 2.953125q0 2.015625 0.875 3.015625q0.890625 0.984375 2.234375 0.984375q0.5 0 0.9375 -0.15625q-0.703125 -0.46875 -1.421875 -0.71875l0.640625 -1.328125q1.140625 0.390625 2.1875 1.171875zm10.5234375 2.765625l0 -1.25q-0.453125 0.671875 -1.1875 1.0625q-0.734375 0.375 -1.5625 0.375q-0.828125 0 -1.5 -0.359375q-0.65625 -0.375 -0.953125 -1.03125q-0.296875 -0.671875 -0.296875 -1.84375l0 -5.25l2.1875 0l0 3.8125q0 1.75 0.125 2.140625q0.125 0.390625 0.4375 0.625q0.328125 0.234375 0.8125 0.234375q0.5625 0 1.0 -0.3125q0.453125 -0.3125 0.609375 -0.765625q0.171875 -0.453125 0.171875 -2.234375l0 -3.5l2.203125 0l0 8.296875l-2.046875 0zm9.1171875 -2.640625l2.1875 0.359375q-0.421875 1.203125 -1.328125 1.84375q-0.90625 0.625 -2.28125 0.625q-2.15625 0 -3.203125 -1.421875q-0.8125 -1.125 -0.8125 -2.859375q0 -2.0625 1.078125 -3.21875q1.078125 -1.171875 2.71875 -1.171875q1.859375 0 2.921875 1.21875q1.078125 1.21875 1.03125 3.75l-5.5 0q0.015625 0.96875 0.515625 1.515625q0.515625 0.546875 1.28125 0.546875q0.515625 0 0.859375 -0.28125q0.359375 -0.28125 0.53125 -0.90625zm0.125 -2.21875q-0.015625 -0.953125 -0.484375 -1.453125q-0.46875 -0.5 -1.140625 -0.5q-0.71875 0 -1.1875 0.53125q-0.46875 0.515625 -0.46875 1.421875l3.28125 0zm9.4296875 4.859375l0 -1.25q-0.453125 0.671875 -1.1875 1.0625q-0.734375 0.375 -1.5625 0.375q-0.828125 0 -1.5 -0.359375q-0.65625 -0.375 -0.953125 -1.03125q-0.296875 -0.671875 -0.296875 -1.84375l0 -5.25l2.1875 0l0 3.8125q0 1.75 0.125 2.140625q0.125 0.390625 0.4375 0.625q0.328125 0.234375 0.8125 0.234375q0.5625 0 1.0 -0.3125q0.453125 -0.3125 0.609375 -0.765625q0.171875 -0.453125 0.171875 -2.234375l0 -3.5l2.203125 0l0 8.296875l-2.046875 0zm9.1171875 -2.640625l2.1875 0.359375q-0.421875 1.203125 -1.328125 1.84375q-0.90625 0.625 -2.28125 0.625q-2.15625 0 -3.203125 -1.421875q-0.8125 -1.125 -0.8125 -2.859375q0 -2.0625 1.078125 -3.21875q1.078125 -1.171875 2.71875 -1.171875q1.859375 0 2.921875 1.21875q1.078125 1.21875 1.03125 3.75l-5.5 0q0.015625 0.96875 0.515625 1.515625q0.515625 0.546875 1.28125 0.546875q0.515625 0 0.859375 -0.28125q0.359375 -0.28125 0.53125 -0.90625zm0.125 -2.21875q-0.015625 -0.953125 -0.484375 -1.453125q-0.46875 -0.5 -1.140625 -0.5q-0.71875 0 -1.1875 0.53125q-0.46875 0.515625 -0.46875 1.421875l3.28125 0z" fill-rule="nonzero"/><path fill="#000000" fill-opacity="0.0" d="m638.2975 380.85718l191.05511 0l0 56.314972l-191.05511 0z" fill-rule="evenodd"/><path fill="#002142" d="m719.32117 413.42154q0.84375 0.609375 1.84375 0.96875l-0.84375 1.640625q-0.53125 -0.15625 -1.03125 -0.4375q-0.109375 -0.046875 -1.53125 -1.015625q-1.125 0.5 -2.5 0.5q-2.640625 0 -4.140625 -1.5625q-1.484375 -1.5625 -1.484375 -4.375q0 -2.796875 1.5 -4.359375q1.5 -1.5625 4.0625 -1.5625q2.546875 0 4.03125 1.5625q1.5 1.5625 1.5 4.359375q0 1.484375 -0.40625 2.609375q-0.3125 0.859375 -1.0 1.671875zm-1.859375 -1.3125q0.4375 -0.515625 0.65625 -1.25q0.234375 -0.75 0.234375 -1.71875q0 -1.984375 -0.875 -2.953125q-0.875 -0.984375 -2.296875 -0.984375q-1.40625 0 -2.296875 0.984375q-0.875 0.984375 -0.875 2.953125q0 2.015625 0.875 3.015625q0.890625 0.984375 2.234375 0.984375q0.5 0 0.9375 -0.15625q-0.703125 -0.46875 -1.421875 -0.71875l0.640625 -1.328125q1.140625 0.390625 2.1875 1.171875zm10.5234375 2.765625l0 -1.25q-0.453125 0.671875 -1.1875 1.0625q-0.734375 0.375 -1.5625 0.375q-0.828125 0 -1.5 -0.359375q-0.65625 -0.375 -0.953125 -1.03125q-0.296875 -0.671875 -0.296875 -1.84375l0 -5.25l2.1875 0l0 3.8125q0 1.75 0.125 2.140625q0.125 0.390625 0.4375 0.625q0.328125 0.234375 0.8125 0.234375q0.5625 0 1.0 -0.3125q0.453125 -0.3125 0.609375 -0.765625q0.171875 -0.453125 0.171875 -2.234375l0 -3.5l2.203125 0l0 8.296875l-2.046875 0zm9.1171875 -2.640625l2.1875 0.359375q-0.421875 1.203125 -1.328125 1.84375q-0.90625 0.625 -2.28125 0.625q-2.15625 0 -3.203125 -1.421875q-0.8125 -1.125 -0.8125 -2.859375q0 -2.0625 1.078125 -3.21875q1.078125 -1.171875 2.71875 -1.171875q1.859375 0 2.921875 1.21875q1.078125 1.21875 1.03125 3.75l-5.5 0q0.015625 0.96875 0.515625 1.515625q0.515625 0.546875 1.28125 0.546875q0.515625 0 0.859375 -0.28125q0.359375 -0.28125 0.53125 -0.90625zm0.125 -2.21875q-0.015625 -0.953125 -0.484375 -1.453125q-0.46875 -0.5 -1.140625 -0.5q-0.71875 0 -1.1875 0.53125q-0.46875 0.515625 -0.46875 1.421875l3.28125 0zm9.4296875 4.859375l0 -1.25q-0.453125 0.671875 -1.1875 1.0625q-0.734375 0.375 -1.5625 0.375q-0.828125 0 -1.5 -0.359375q-0.65625 -0.375 -0.953125 -1.03125q-0.296875 -0.671875 -0.296875 -1.84375l0 -5.25l2.1875 0l0 3.8125q0 1.75 0.125 2.140625q0.125 0.390625 0.4375 0.625q0.328125 0.234375 0.8125 0.234375q0.5625 0 1.0 -0.3125q0.453125 -0.3125 0.609375 -0.765625q0.171875 -0.453125 0.171875 -2.234375l0 -3.5l2.203125 0l0 8.296875l-2.046875 0zm9.1171875 -2.640625l2.1875 0.359375q-0.421875 1.203125 -1.328125 1.84375q-0.90625 0.625 -2.28125 0.625q-2.15625 0 -3.203125 -1.421875q-0.8125 -1.125 -0.8125 -2.859375q0 -2.0625 1.078125 -3.21875q1.078125 -1.171875 2.71875 -1.171875q1.859375 0 2.921875 1.21875q1.078125 1.21875 1.03125 3.75l-5.5 0q0.015625 0.96875 0.515625 1.515625q0.515625 0.546875 1.28125 0.546875q0.515625 0 0.859375 -0.28125q0.359375 -0.28125 0.53125 -0.90625zm0.125 -2.21875q-0.015625 -0.953125 -0.484375 -1.453125q-0.46875 -0.5 -1.140625 -0.5q-0.71875 0 -1.1875 0.53125q-0.46875 0.515625 -0.46875 1.421875l3.28125 0z" fill-rule="nonzero"/><path fill="#000000" fill-opacity="0.0" d="m385.93573 157.60104l167.21259 -92.40945l27.24414 49.291344l-167.21262 92.40944z" fill-rule="evenodd"/><path fill="#002142" d="m457.39804 154.51608l-7.092041 0.67025757l-0.75582886 -1.3675079l4.3407288 -5.6480255l0.8994751 1.6273499l-3.1467285 3.7384796l4.870056 -0.62054443l0.8843384 1.5999908zm6.812317 -3.7648163l-7.0920105 0.6702728l-0.7558594 -1.3675232l4.3407593 -5.6480255l0.8994446 1.6273499l-3.1467285 3.7384796l4.870056 -0.62054443l0.8843384 1.5999908zm12.2690735 -5.530777l-1.83255 1.0127411l-1.789093 -1.4927368l-3.336853 1.8440857l0.3668518 2.2787476l-1.7914734 0.9900665l-1.3634644 -10.154282l1.777832 -0.98249817l7.96875 6.5038757zm-4.933502 -1.5937805l-2.856964 -2.4557343l0.5731201 3.7178802l2.283844 -1.262146zm5.7951965 1.117569l-4.618225 -8.35553l2.5299683 -1.3981781l4.669861 4.863632l-1.6612549 -6.5263367l2.5299988 -1.3981934l4.618225 8.35553l-1.559021 0.8615875l-3.63562 -6.577759l1.9671936 7.4998016l-1.6137085 0.8918152l-5.2903748 -5.663269l3.6356506 6.577759l-1.5726929 0.8691406zm9.744598 -5.38533l-4.618225 -8.355515l6.1950073 -3.4236603l0.7861023 1.4222107l-4.5129395 2.4940643l1.0203857 1.8461456l4.198395 -2.3202362l0.77853394 1.4085388l-4.198395 2.3202362l1.2546997 2.2700806l4.6633606 -2.5771942l0.77853394 1.4085388l-6.345459 3.5067902zm7.7806396 -4.2999268l-4.6182556 -8.35553l3.555664 -1.9650192q1.34021 -0.740654 2.070404 -0.84072113q0.73635864 -0.121292114 1.4093628 0.25656128q0.68670654 0.3703003 1.102417 1.1224289q0.51397705 0.9299164 0.2934265 1.8551636q-0.20690918 0.91768646 -1.2102356 1.686409q0.7208557 0.01222229 1.2880554 0.19862366q0.5671997 0.18640137 1.7055664 0.8247986l1.9114685 1.0680695l-2.010315 1.1109924l-2.222412 -1.1461487q-1.1930542 -0.60816956 -1.5752869 -0.71829224q-0.37609863 -0.1313324 -0.70251465 -0.075912476q-0.31274414 0.04786682 -0.8871155 0.3652954l-0.34188843 0.18894958l1.9274292 3.4871674l-1.6957703 0.9371643zm-0.96481323 -5.750824l1.2444763 -0.6877594q1.217102 -0.67263794 1.4650574 -0.93463135q0.24038696 -0.2756729 0.26846313 -0.6125183q0.03414917 -0.358078 -0.16992188 -0.7273102q-0.23431396 -0.4239273 -0.6104126 -0.55527496q-0.36239624 -0.13890076 -0.8104553 0.019454956q-0.22027588 0.086013794 -1.2459412 0.6528473l-1.3128357 0.72554016l1.1715698 2.1196518zm11.807678 -1.4732666l-0.89190674 -1.6136703l3.1240234 -3.7795029l-4.8549194 0.6478882l-0.8843384 -1.5999908l7.0981445 -0.6914902l0.7558594 1.3675156l-4.346863 5.6692505zm6.812317 -3.7648087l-0.89190674 -1.6136703l3.1240845 -3.7795105l-4.8549805 0.6478958l-0.8843384 -1.5999908l7.0981445 -0.6914978l0.7558594 1.3675156l-4.346863 5.669258z" fill-rule="nonzero"/><path fill="#000000" fill-opacity="0.0" d="m411.04446 182.92526l191.05515 0.09448242l0 56.314957l-191.05515 -0.09448242z" fill-rule="evenodd"/><path fill="#002142" d="m475.4523 214.82085l-6.53125 -2.8469849l0 -1.5625l6.53125 -2.8405151l0 1.859375l-4.5625 1.7477417l4.5625 1.8147583l0 1.828125zm7.7834167 0.0038452148l-6.53125 -2.8469849l0 -1.5625l6.53125 -2.8405151l0 1.859375l-4.5625 1.7477417l4.5625 1.8147583l0 1.828125zm5.2989197 1.0963745l0 -9.546875l7.078125 0.0034942627l0 1.625l-5.15625 -0.0025482178l0 2.109375l4.796875 0.0023651123l0 1.609375l-4.796875 -0.0023651123l0 2.59375l5.328125 0.0026397705l0 1.609375l-7.25 -0.0035858154zm8.85849 0.0043792725l0 -9.546875l2.890625 0.0014190674l1.734375 6.5164948l1.703125 -6.514786l2.890625 0.0014343262l0 9.546875l-1.78125 -8.8500977E-4l0 -7.515625l-1.90625 7.514679l-1.84375 -9.1552734E-4l-1.890625 -7.516556l0 7.515625l-1.796875 -8.8500977E-4zm11.1336975 0.005508423l0 -9.546875l7.0780945 0.0034942627l0 1.625l-5.1562195 -0.0025482178l0 2.109375l4.7968445 0.0023651123l0 1.609375l-4.7968445 -0.0023651123l0 2.59375l5.3280945 0.0026397705l0 1.609375l-7.2499695 -0.0035858154zm17.499115 0.008651733l-2.09375 -0.0010375977l-0.84375 -2.172287l-3.8125 -0.0018920898l-0.78125 2.1714935l-2.046875 -0.0010223389l3.71875 -9.545029l2.03125 0.0010070801l3.828125 9.548767zm-3.546875 -3.7830048l-1.3125 -3.5319061l-1.296875 3.5306091l2.609375 0.0012969971zm7.427124 2.7068024l0 -1.84375l4.5625 -1.794632l-4.5625 -1.783493l0 -1.828125l6.546875 2.8313599l0 1.5625l-6.546875 2.8561401zm7.783386 0.0038452148l0 -1.84375l4.5625 -1.7946167l-4.5625 -1.7835083l0 -1.828125l6.546875 2.8313599l0 1.5625l-6.546875 2.8561401z" fill-rule="nonzero"/><path fill="#000000" fill-opacity="0.0" d="m434.0789 215.33626l169.25986 88.535446l-26.078735 49.88974l-169.25989 -88.53543z" fill-rule="evenodd"/><path fill="#002142" d="m477.14447 273.81085l-4.4699707 -5.5474243l0.72384644 -1.3847351l7.104706 0.50701904l-0.86135864 1.6478271l-4.8535156 -0.56381226l3.2031555 3.7209778l-0.8468628 1.6201477zm6.8968506 3.6075745l-4.46994 -5.5474243l0.72384644 -1.3847046l7.104706 0.5069885l-0.86135864 1.6478271l-4.853546 -0.56381226l3.203186 3.7209778l-0.8468933 1.6201477zm11.378998 7.1864014l-1.8552551 -0.970459l0.2584839 -2.3158264l-3.3782654 -1.7670898l-1.6983948 1.5626831l-1.8137207 -0.94873047l7.717804 -6.7370605l1.7998962 0.9414673l-1.0305481 10.235016zm-1.3912048 -4.994995l0.47286987 -3.7378235l-2.7850342 2.5283813l2.3121643 1.2094421zm2.2912903 5.46579l4.422638 -8.460663l2.7413635 1.4339294q1.5506897 0.8111267 1.9628906 1.203064q0.6258545 0.5566101 0.7774658 1.447052q0.16546631 0.89767456 -0.36294556 1.9085388q-0.40533447 0.77545166 -0.97839355 1.1634216q-0.5519409 0.38134766 -1.1542358 0.45422363q-0.58847046 0.08013916 -1.0821838 -0.0546875q-0.6881714 -0.20126343 -1.8373413 -0.80233765l-1.12146 -0.5866394l-1.6648254 3.1848755l-1.7029724 -0.8907776zm5.3728027 -6.1297913l-1.2522278 2.3955994l0.9414978 0.49246216q1.0107117 0.528656 1.4081421 0.57785034q0.41851807 0.04257202 0.7571106 -0.13296509q0.3458252 -0.1894226 0.54125977 -0.56329346q0.23886108 -0.4569397 0.12121582 -0.9064331q-0.1038208 -0.44223022 -0.4830017 -0.72872925q-0.27563477 -0.21472168 -1.2032776 -0.6999512l-0.830719 -0.4345398zm9.256317 13.781891l-1.8552856 -0.97042847l0.2584839 -2.315857l-3.3782654 -1.7670593l-1.6983948 1.5626526l-1.8137207 -0.94869995l7.717804 -6.7370605l1.7998962 0.9414673l-1.0305176 10.234985zm-1.3912048 -4.994995l0.47283936 -3.7378235l-2.7850037 2.5283813l2.3121643 1.2094421zm9.326202 5.1956787l1.3797607 1.374176q-1.0976562 1.1891785 -2.33844 1.4042053q-1.2335815 0.20117188 -2.590393 -0.5085449q-1.689148 -0.8835449 -2.182129 -2.6049805q-0.47912598 -1.7142334 0.5631714 -3.7082214q1.1002197 -2.1047974 2.802063 -2.6958313q1.7089844 -0.6048889 3.4812012 0.32208252q1.5506592 0.8111267 2.0421143 2.2319946q0.29919434 0.84420776 0.05432129 2.020996l-1.8990479 -0.4819641q0.1951294 -0.74432373 -0.09399414 -1.3716736q-0.2680664 -0.63397217 -0.94647217 -0.98883057q-0.9414673 -0.49246216 -1.8915405 -0.12536621q-0.9361572 0.37435913 -1.7251587 1.8836975q-0.83966064 1.6062927 -0.61279297 2.5889893q0.22680664 0.982666 1.140625 1.4606628q0.69226074 0.36209106 1.4011841 0.18630981q0.7089844 -0.17578125 1.4155273 -0.9877014zm4.9699707 5.3328857l0.854126 -1.6339722l4.875244 0.5222473l-3.2176514 -3.6932983l0.8468628 -1.6201172l4.491028 5.540802l-0.7238159 1.3847351l-7.1257935 -0.5003967zm6.8968506 3.6075745l0.854126 -1.6339722l4.875244 0.5222473l-3.2176514 -3.6932678l0.8469238 -1.6201477l4.491028 5.540802l-0.7238159 1.3847351l-7.1258545 -0.5003967z" fill-rule="nonzero"/><path fill="#0091da" d="m1010.4872 56.52507l101.1969 0l0 56.314957l-101.1969 0z" fill-rule="evenodd"/><path fill="#ffffff" d="m1051.0425 81.48255l-2.09375 0l-0.84375 -2.171875l-3.8125 0l-0.78125 2.171875l-2.046875 0l3.71875 -9.546875l2.03125 0l3.828125 9.546875zm-3.546875 -3.78125l-1.3125 -3.53125l-1.296875 3.53125l2.609375 0zm4.531494 3.78125l0 -9.546875l2.890625 0l1.734375 6.515625l1.703125 -6.515625l2.890625 0l0 9.546875l-1.78125 0l0 -7.515625l-1.90625 7.515625l-1.84375 0l-1.890625 -7.515625l0 7.515625l-1.796875 0zm11.133667 0l0 -9.546875l7.078125 0l0 1.625l-5.15625 0l0 2.109375l4.796875 0l0 1.609375l-4.796875 0l0 2.59375l5.328125 0l0 1.609375l-7.25 0zm8.8897705 0l0 -9.546875l4.0625 0q1.53125 0 2.21875 0.265625q0.703125 0.25 1.109375 0.90625q0.421875 0.65625 0.421875 1.515625q0 1.0625 -0.640625 1.765625q-0.625 0.703125 -1.875 0.890625q0.625 0.359375 1.03125 0.796875q0.40625 0.4375 1.09375 1.546875l1.15625 1.859375l-2.296875 0l-1.390625 -2.078125q-0.75 -1.109375 -1.03125 -1.390625q-0.265625 -0.296875 -0.578125 -0.40625q-0.296875 -0.109375 -0.953125 -0.109375l-0.390625 0l0 3.984375l-1.9375 0zm1.9375 -5.5l1.421875 0q1.390625 0 1.734375 -0.109375q0.34375 -0.125 0.53125 -0.40625q0.203125 -0.296875 0.203125 -0.71875q0 -0.484375 -0.265625 -0.78125q-0.25 -0.296875 -0.71875 -0.375q-0.234375 -0.03125 -1.40625 -0.03125l-1.5 0l0 2.421875z" fill-rule="nonzero"/><path fill="#ffffff" d="m1026.4393 90.5763l1.703125 0l0 1.015625q0.328125 -0.53125 0.890625 -0.84375q0.578125 -0.328125 1.265625 -0.328125q1.203125 0 2.03125 0.9375q0.84375 0.9375 0.84375 2.625q0 1.734375 -0.84375 2.703125q-0.84375 0.953125 -2.046875 0.953125q-0.578125 0 -1.046875 -0.21875q-0.453125 -0.234375 -0.96875 -0.796875l0 3.484375l-1.828125 0l0 -9.53125zm1.8125 3.328125q0 1.171875 0.453125 1.734375q0.46875 0.546875 1.125 0.546875q0.640625 0 1.0625 -0.5q0.421875 -0.515625 0.421875 -1.6875q0 -1.078125 -0.4375 -1.609375q-0.4375 -0.53125 -1.078125 -0.53125q-0.671875 0 -1.109375 0.515625q-0.4375 0.515625 -0.4375 1.53125zm8.125732 3.578125l-1.828125 0l0 -6.90625l1.703125 0l0 0.984375q0.4375 -0.703125 0.78125 -0.921875q0.34375 -0.21875 0.796875 -0.21875q0.625 0 1.203125 0.34375l-0.5625 1.59375q-0.46875 -0.296875 -0.859375 -0.296875q-0.390625 0 -0.65625 0.21875q-0.265625 0.203125 -0.421875 0.765625q-0.15625 0.546875 -0.15625 2.296875l0 2.140625zm3.0148926 -3.546875q0 -0.921875 0.453125 -1.765625q0.453125 -0.859375 1.265625 -1.296875q0.828125 -0.453125 1.84375 -0.453125q1.5625 0 2.5625 1.015625q1.015625 1.015625 1.015625 2.578125q0 1.5625 -1.015625 2.59375q-1.015625 1.03125 -2.546875 1.03125q-0.953125 0 -1.8125 -0.421875q-0.859375 -0.4375 -1.3125 -1.265625q-0.453125 -0.828125 -0.453125 -2.015625zm1.875 0.09375q0 1.03125 0.484375 1.578125q0.5 0.546875 1.203125 0.546875q0.71875 0 1.203125 -0.546875q0.484375 -0.546875 0.484375 -1.59375q0 -1.015625 -0.484375 -1.5625q-0.484375 -0.546875 -1.203125 -0.546875q-0.703125 0 -1.203125 0.546875q-0.484375 0.546875 -0.484375 1.578125zm12.719482 -1.421875l-1.796875 0.328125q-0.09375 -0.53125 -0.421875 -0.796875q-0.328125 -0.28125 -0.828125 -0.28125q-0.6875 0 -1.09375 0.46875q-0.40625 0.46875 -0.40625 1.578125q0 1.234375 0.40625 1.75q0.421875 0.5 1.109375 0.5q0.53125 0 0.859375 -0.296875q0.328125 -0.296875 0.46875 -1.03125l1.796875 0.3125q-0.28125 1.234375 -1.078125 1.875q-0.796875 0.625 -2.125 0.625q-1.515625 0 -2.421875 -0.953125q-0.90625 -0.953125 -0.90625 -2.65625q0 -1.703125 0.90625 -2.65625q0.90625 -0.953125 2.453125 -0.953125q1.265625 0 2.0 0.546875q0.75 0.53125 1.078125 1.640625zm5.3812256 2.671875l1.828125 0.3125q-0.34375 1.0 -1.109375 1.53125q-0.765625 0.515625 -1.890625 0.515625q-1.8125 0 -2.671875 -1.171875q-0.6875 -0.953125 -0.6875 -2.390625q0 -1.71875 0.890625 -2.6875q0.90625 -0.96875 2.28125 -0.96875q1.546875 0 2.4375 1.015625q0.890625 1.015625 0.84375 3.125l-4.578125 0q0.015625 0.8125 0.4375 1.265625q0.421875 0.453125 1.0625 0.453125q0.421875 0 0.71875 -0.234375q0.296875 -0.234375 0.4375 -0.765625zm0.109375 -1.84375q-0.015625 -0.796875 -0.40625 -1.203125q-0.390625 -0.421875 -0.953125 -0.421875q-0.59375 0 -0.984375 0.4375q-0.390625 0.4375 -0.390625 1.1875l2.734375 0zm2.6624756 2.078125l1.828125 -0.28125q0.125 0.53125 0.484375 0.8125q0.359375 0.265625 1.0 0.265625q0.703125 0 1.0625 -0.25q0.25 -0.1875 0.25 -0.484375q0 -0.21875 -0.140625 -0.359375q-0.125 -0.125 -0.609375 -0.234375q-2.203125 -0.484375 -2.796875 -0.890625q-0.828125 -0.5625 -0.828125 -1.5625q0 -0.890625 0.703125 -1.5q0.71875 -0.609375 2.203125 -0.609375q1.421875 0 2.109375 0.46875q0.703125 0.453125 0.953125 1.359375l-1.71875 0.3125q-0.109375 -0.40625 -0.421875 -0.609375q-0.3125 -0.21875 -0.890625 -0.21875q-0.71875 0 -1.03125 0.203125q-0.203125 0.140625 -0.203125 0.359375q0 0.203125 0.1875 0.34375q0.234375 0.171875 1.6875 0.515625q1.46875 0.328125 2.0625 0.8125q0.5625 0.484375 0.5625 1.359375q0 0.953125 -0.796875 1.640625q-0.78125 0.671875 -2.34375 0.671875q-1.40625 0 -2.234375 -0.5625q-0.828125 -0.578125 -1.078125 -1.5625zm7.4124756 0l1.828125 -0.28125q0.125 0.53125 0.484375 0.8125q0.359375 0.265625 1.0 0.265625q0.703125 0 1.0625 -0.25q0.25 -0.1875 0.25 -0.484375q0 -0.21875 -0.140625 -0.359375q-0.125 -0.125 -0.609375 -0.234375q-2.203125 -0.484375 -2.796875 -0.890625q-0.828125 -0.5625 -0.828125 -1.5625q0 -0.890625 0.703125 -1.5q0.71875 -0.609375 2.203125 -0.609375q1.421875 0 2.109375 0.46875q0.703125 0.453125 0.953125 1.359375l-1.71875 0.3125q-0.109375 -0.40625 -0.421875 -0.609375q-0.3125 -0.21875 -0.890625 -0.21875q-0.71875 0 -1.03125 0.203125q-0.203125 0.140625 -0.203125 0.359375q0 0.203125 0.1875 0.34375q0.234375 0.171875 1.6875 0.515625q1.46875 0.328125 2.0625 0.8125q0.5625 0.484375 0.5625 1.359375q0 0.953125 -0.796875 1.640625q-0.78125 0.671875 -2.34375 0.671875q-1.40625 0 -2.234375 -0.5625q-0.828125 -0.578125 -1.078125 -1.5625zm8.053101 -5.875l0 -1.703125l1.828125 0l0 1.703125l-1.828125 0zm0 7.84375l0 -6.90625l1.828125 0l0 6.90625l-1.828125 0zm9.999878 0l-1.828125 0l0 -3.53125q0 -1.109375 -0.125 -1.4375q-0.109375 -0.328125 -0.375 -0.515625q-0.265625 -0.1875 -0.640625 -0.1875q-0.46875 0 -0.859375 0.265625q-0.375 0.265625 -0.515625 0.703125q-0.140625 0.421875 -0.140625 1.578125l0 3.125l-1.828125 0l0 -6.90625l1.703125 0l0 1.015625q0.90625 -1.171875 2.28125 -1.171875q0.609375 0 1.109375 0.21875q0.5 0.21875 0.75 0.5625q0.265625 0.328125 0.359375 0.765625q0.109375 0.421875 0.109375 1.21875l0 4.296875zm1.6726074 0.453125l2.09375 0.25q0.046875 0.375 0.25 0.5q0.25 0.203125 0.8125 0.203125q0.71875 0 1.078125 -0.21875q0.234375 -0.140625 0.359375 -0.453125q0.078125 -0.234375 0.078125 -0.84375l0 -1.015625q-0.8125 1.125 -2.0625 1.125q-1.390625 0 -2.203125 -1.171875q-0.640625 -0.9375 -0.640625 -2.328125q0 -1.734375 0.828125 -2.640625q0.84375 -0.921875 2.09375 -0.921875q1.28125 0 2.109375 1.125l0 -0.96875l1.703125 0l0 6.203125q0 1.21875 -0.203125 1.8125q-0.1875 0.609375 -0.5625 0.953125q-0.359375 0.359375 -0.96875 0.546875q-0.609375 0.203125 -1.53125 0.203125q-1.765625 0 -2.5 -0.609375q-0.734375 -0.609375 -0.734375 -1.53125q0 -0.09375 0 -0.21875zm1.640625 -4.046875q0 1.09375 0.421875 1.609375q0.4375 0.5 1.046875 0.5q0.671875 0 1.140625 -0.515625q0.46875 -0.53125 0.46875 -1.546875q0 -1.078125 -0.453125 -1.59375q-0.4375 -0.53125 -1.109375 -0.53125q-0.65625 0 -1.09375 0.515625q-0.421875 0.515625 -0.421875 1.5625z" fill-rule="nonzero"/><path fill="#0091da" d="m1010.60535 202.53172l101.19678 0l0 56.314957l-101.19678 0z" fill-rule="evenodd"/><path fill="#ffffff" d="m1042.919 227.4892l0 -9.546875l7.078125 0l0 1.625l-5.15625 0l0 2.109375l4.796875 0l0 1.609375l-4.796875 0l0 2.59375l5.328125 0l0 1.609375l-7.25 0zm8.8585205 0l0 -9.546875l2.890625 0l1.734375 6.515625l1.703125 -6.515625l2.890625 0l0 9.546875l-1.78125 0l0 -7.515625l-1.90625 7.515625l-1.84375 0l-1.890625 -7.515625l0 7.515625l-1.796875 0zm11.133667 0l0 -9.546875l7.078125 0l0 1.625l-5.15625 0l0 2.109375l4.796875 0l0 1.609375l-4.796875 0l0 2.59375l5.328125 0l0 1.609375l-7.25 0zm17.499146 0l-2.09375 0l-0.84375 -2.171875l-3.8125 0l-0.78125 2.171875l-2.046875 0l3.71875 -9.546875l2.03125 0l3.828125 9.546875zm-3.546875 -3.78125l-1.3125 -3.53125l-1.296875 3.53125l2.609375 0z" fill-rule="nonzero"/><path fill="#ffffff" d="m1026.5575 236.58295l1.703125 0l0 1.015625q0.328125 -0.53125 0.890625 -0.84375q0.578125 -0.328125 1.265625 -0.328125q1.203125 0 2.03125 0.9375q0.84375 0.9375 0.84375 2.625q0 1.734375 -0.84375 2.703125q-0.84375 0.953125 -2.046875 0.953125q-0.578125 0 -1.046875 -0.21875q-0.453125 -0.234375 -0.96875 -0.796875l0 3.484375l-1.828125 0l0 -9.53125zm1.8125 3.328125q0 1.171875 0.453125 1.734375q0.46875 0.546875 1.125 0.546875q0.640625 0 1.0625 -0.5q0.421875 -0.515625 0.421875 -1.6875q0 -1.078125 -0.4375 -1.609375q-0.4375 -0.53125 -1.078125 -0.53125q-0.671875 0 -1.109375 0.515625q-0.4375 0.515625 -0.4375 1.53125zm8.125732 3.578125l-1.828125 0l0 -6.90625l1.703125 0l0 0.984375q0.4375 -0.703125 0.78125 -0.921875q0.34375 -0.21875 0.796875 -0.21875q0.625 0 1.203125 0.34375l-0.5625 1.59375q-0.46875 -0.296875 -0.859375 -0.296875q-0.390625 0 -0.65625 0.21875q-0.265625 0.203125 -0.421875 0.765625q-0.15625 0.546875 -0.15625 2.296875l0 2.140625zm3.0148926 -3.546875q0 -0.921875 0.453125 -1.765625q0.453125 -0.859375 1.265625 -1.296875q0.828125 -0.453125 1.84375 -0.453125q1.5625 0 2.5625 1.015625q1.015625 1.015625 1.015625 2.578125q0 1.5625 -1.015625 2.59375q-1.015625 1.03125 -2.546875 1.03125q-0.953125 0 -1.8125 -0.421875q-0.859375 -0.4375 -1.3125 -1.265625q-0.453125 -0.828125 -0.453125 -2.015625zm1.875 0.09375q0 1.03125 0.484375 1.578125q0.5 0.546875 1.203125 0.546875q0.71875 0 1.203125 -0.546875q0.484375 -0.546875 0.484375 -1.59375q0 -1.015625 -0.484375 -1.5625q-0.484375 -0.546875 -1.203125 -0.546875q-0.703125 0 -1.203125 0.546875q-0.484375 0.546875 -0.484375 1.578125zm12.719482 -1.421875l-1.796875 0.328125q-0.09375 -0.53125 -0.421875 -0.796875q-0.328125 -0.28125 -0.828125 -0.28125q-0.6875 0 -1.09375 0.46875q-0.40625 0.46875 -0.40625 1.578125q0 1.234375 0.40625 1.75q0.421875 0.5 1.109375 0.5q0.53125 0 0.859375 -0.296875q0.328125 -0.296875 0.46875 -1.03125l1.796875 0.3125q-0.28125 1.234375 -1.078125 1.875q-0.796875 0.625 -2.125 0.625q-1.515625 0 -2.421875 -0.953125q-0.90625 -0.953125 -0.90625 -2.65625q0 -1.703125 0.90625 -2.65625q0.90625 -0.953125 2.453125 -0.953125q1.265625 0 2.0 0.546875q0.75 0.53125 1.078125 1.640625zm5.3812256 2.671875l1.828125 0.3125q-0.34375 1.0 -1.109375 1.53125q-0.765625 0.515625 -1.890625 0.515625q-1.8125 0 -2.671875 -1.171875q-0.6875 -0.953125 -0.6875 -2.390625q0 -1.71875 0.890625 -2.6875q0.90625 -0.96875 2.28125 -0.96875q1.546875 0 2.4375 1.015625q0.890625 1.015625 0.84375 3.125l-4.578125 0q0.015625 0.8125 0.4375 1.265625q0.421875 0.453125 1.0625 0.453125q0.421875 0 0.71875 -0.234375q0.296875 -0.234375 0.4375 -0.765625zm0.109375 -1.84375q-0.015625 -0.796875 -0.40625 -1.203125q-0.390625 -0.421875 -0.953125 -0.421875q-0.59375 0 -0.984375 0.4375q-0.390625 0.4375 -0.390625 1.1875l2.734375 0zm2.6624756 2.078125l1.828125 -0.28125q0.125 0.53125 0.484375 0.8125q0.359375 0.265625 1.0 0.265625q0.703125 0 1.0625 -0.25q0.25 -0.1875 0.25 -0.484375q0 -0.21875 -0.140625 -0.359375q-0.125 -0.125 -0.609375 -0.234375q-2.203125 -0.484375 -2.796875 -0.890625q-0.828125 -0.5625 -0.828125 -1.5625q0 -0.890625 0.703125 -1.5q0.71875 -0.609375 2.203125 -0.609375q1.421875 0 2.109375 0.46875q0.703125 0.453125 0.953125 1.359375l-1.71875 0.3125q-0.109375 -0.40625 -0.421875 -0.609375q-0.3125 -0.21875 -0.890625 -0.21875q-0.71875 0 -1.03125 0.203125q-0.203125 0.140625 -0.203125 0.359375q0 0.203125 0.1875 0.34375q0.234375 0.171875 1.6875 0.515625q1.46875 0.328125 2.0625 0.8125q0.5625 0.484375 0.5625 1.359375q0 0.953125 -0.796875 1.640625q-0.78125 0.671875 -2.34375 0.671875q-1.40625 0 -2.234375 -0.5625q-0.828125 -0.578125 -1.078125 -1.5625zm7.4124756 0l1.828125 -0.28125q0.125 0.53125 0.484375 0.8125q0.359375 0.265625 1.0 0.265625q0.703125 0 1.0625 -0.25q0.25 -0.1875 0.25 -0.484375q0 -0.21875 -0.140625 -0.359375q-0.125 -0.125 -0.609375 -0.234375q-2.203125 -0.484375 -2.796875 -0.890625q-0.828125 -0.5625 -0.828125 -1.5625q0 -0.890625 0.703125 -1.5q0.71875 -0.609375 2.203125 -0.609375q1.421875 0 2.109375 0.46875q0.703125 0.453125 0.953125 1.359375l-1.71875 0.3125q-0.109375 -0.40625 -0.421875 -0.609375q-0.3125 -0.21875 -0.890625 -0.21875q-0.71875 0 -1.03125 0.203125q-0.203125 0.140625 -0.203125 0.359375q0 0.203125 0.1875 0.34375q0.234375 0.171875 1.6875 0.515625q1.46875 0.328125 2.0625 0.8125q0.5625 0.484375 0.5625 1.359375q0 0.953125 -0.796875 1.640625q-0.78125 0.671875 -2.34375 0.671875q-1.40625 0 -2.234375 -0.5625q-0.828125 -0.578125 -1.078125 -1.5625zm8.053101 -5.875l0 -1.703125l1.828125 0l0 1.703125l-1.828125 0zm0 7.84375l0 -6.90625l1.828125 0l0 6.90625l-1.828125 0zm9.999878 0l-1.828125 0l0 -3.53125q0 -1.109375 -0.125 -1.4375q-0.109375 -0.328125 -0.375 -0.515625q-0.265625 -0.1875 -0.640625 -0.1875q-0.46875 0 -0.859375 0.265625q-0.375 0.265625 -0.515625 0.703125q-0.140625 0.421875 -0.140625 1.578125l0 3.125l-1.828125 0l0 -6.90625l1.703125 0l0 1.015625q0.90625 -1.171875 2.28125 -1.171875q0.609375 0 1.109375 0.21875q0.5 0.21875 0.75 0.5625q0.265625 0.328125 0.359375 0.765625q0.109375 0.421875 0.109375 1.21875l0 4.296875zm1.6726074 0.453125l2.09375 0.25q0.046875 0.375 0.25 0.5q0.25 0.203125 0.8125 0.203125q0.71875 0 1.078125 -0.21875q0.234375 -0.140625 0.359375 -0.453125q0.078125 -0.234375 0.078125 -0.84375l0 -1.015625q-0.8125 1.125 -2.0625 1.125q-1.390625 0 -2.203125 -1.171875q-0.640625 -0.9375 -0.640625 -2.328125q0 -1.734375 0.828125 -2.640625q0.84375 -0.921875 2.09375 -0.921875q1.28125 0 2.109375 1.125l0 -0.96875l1.703125 0l0 6.203125q0 1.21875 -0.203125 1.8125q-0.1875 0.609375 -0.5625 0.953125q-0.359375 0.359375 -0.96875 0.546875q-0.609375 0.203125 -1.53125 0.203125q-1.765625 0 -2.5 -0.609375q-0.734375 -0.609375 -0.734375 -1.53125q0 -0.09375 0 -0.21875zm1.640625 -4.046875q0 1.09375 0.421875 1.609375q0.4375 0.5 1.046875 0.5q0.671875 0 1.140625 -0.515625q0.46875 -0.53125 0.46875 -1.546875q0 -1.078125 -0.453125 -1.59375q-0.4375 -0.53125 -1.109375 -0.53125q-0.65625 0 -1.09375 0.515625q-0.421875 0.515625 -0.421875 1.5625z" fill-rule="nonzero"/><path fill="#0091da" d="m1010.4872 335.25815l101.1969 0l0 56.314972l-101.1969 0z" fill-rule="evenodd"/><path fill="#ffffff" d="m1052.276 360.21564l-2.09375 0l-0.84375 -2.171875l-3.8125 0l-0.78125 2.171875l-2.046875 0l3.71875 -9.546875l2.03125 0l3.828125 9.546875zm-3.546875 -3.78125l-1.3125 -3.53125l-1.296875 3.53125l2.609375 0zm4.562622 3.78125l0 -9.546875l3.09375 0q1.75 0 2.296875 0.15625q0.8125 0.203125 1.359375 0.921875q0.5625 0.71875 0.5625 1.859375q0 0.875 -0.328125 1.484375q-0.3125 0.59375 -0.8125 0.9375q-0.484375 0.34375 -0.984375 0.453125q-0.703125 0.140625 -2.0 0.140625l-1.265625 0l0 3.59375l-1.921875 0zm1.921875 -7.921875l0 2.703125l1.0625 0q1.140625 0 1.515625 -0.140625q0.390625 -0.15625 0.609375 -0.46875q0.21875 -0.328125 0.21875 -0.75q0 -0.515625 -0.3125 -0.859375q-0.296875 -0.34375 -0.765625 -0.421875q-0.34375 -0.0625 -1.390625 -0.0625l-0.9375 0zm14.5876465 7.921875l-2.09375 0l-0.84375 -2.171875l-3.8125 0l-0.78125 2.171875l-2.046875 0l3.71875 -9.546875l2.03125 0l3.828125 9.546875zm-3.546875 -3.78125l-1.3125 -3.53125l-1.296875 3.53125l2.609375 0zm10.671997 0.28125l1.859375 0.578125q-0.421875 1.5625 -1.421875 2.328125q-1.0 0.75 -2.53125 0.75q-1.90625 0 -3.140625 -1.296875q-1.21875 -1.296875 -1.21875 -3.546875q0 -2.375 1.234375 -3.6875q1.234375 -1.328125 3.234375 -1.328125q1.75 0 2.84375 1.03125q0.65625 0.609375 0.984375 1.765625l-1.90625 0.453125q-0.171875 -0.75 -0.71875 -1.171875q-0.53125 -0.4375 -1.296875 -0.4375q-1.0625 0 -1.734375 0.765625q-0.65625 0.765625 -0.65625 2.46875q0 1.8125 0.65625 2.578125q0.65625 0.765625 1.6875 0.765625q0.78125 0 1.328125 -0.484375q0.546875 -0.484375 0.796875 -1.53125z" fill-rule="nonzero"/><path fill="#ffffff" d="m1026.4393 369.3094l1.703125 0l0 1.015625q0.328125 -0.53125 0.890625 -0.84375q0.578125 -0.328125 1.265625 -0.328125q1.203125 0 2.03125 0.9375q0.84375 0.9375 0.84375 2.625q0 1.734375 -0.84375 2.703125q-0.84375 0.953125 -2.046875 0.953125q-0.578125 0 -1.046875 -0.21875q-0.453125 -0.234375 -0.96875 -0.796875l0 3.484375l-1.828125 0l0 -9.53125zm1.8125 3.328125q0 1.171875 0.453125 1.734375q0.46875 0.546875 1.125 0.546875q0.640625 0 1.0625 -0.5q0.421875 -0.515625 0.421875 -1.6875q0 -1.078125 -0.4375 -1.609375q-0.4375 -0.53125 -1.078125 -0.53125q-0.671875 0 -1.109375 0.515625q-0.4375 0.515625 -0.4375 1.53125zm8.125732 3.578125l-1.828125 0l0 -6.90625l1.703125 0l0 0.984375q0.4375 -0.703125 0.78125 -0.921875q0.34375 -0.21875 0.796875 -0.21875q0.625 0 1.203125 0.34375l-0.5625 1.59375q-0.46875 -0.296875 -0.859375 -0.296875q-0.390625 0 -0.65625 0.21875q-0.265625 0.203125 -0.421875 0.765625q-0.15625 0.546875 -0.15625 2.296875l0 2.140625zm3.0148926 -3.546875q0 -0.921875 0.453125 -1.765625q0.453125 -0.859375 1.265625 -1.296875q0.828125 -0.453125 1.84375 -0.453125q1.5625 0 2.5625 1.015625q1.015625 1.015625 1.015625 2.578125q0 1.5625 -1.015625 2.59375q-1.015625 1.03125 -2.546875 1.03125q-0.953125 0 -1.8125 -0.421875q-0.859375 -0.4375 -1.3125 -1.265625q-0.453125 -0.828125 -0.453125 -2.015625zm1.875 0.09375q0 1.03125 0.484375 1.578125q0.5 0.546875 1.203125 0.546875q0.71875 0 1.203125 -0.546875q0.484375 -0.546875 0.484375 -1.59375q0 -1.015625 -0.484375 -1.5625q-0.484375 -0.546875 -1.203125 -0.546875q-0.703125 0 -1.203125 0.546875q-0.484375 0.546875 -0.484375 1.578125zm12.719482 -1.421875l-1.796875 0.328125q-0.09375 -0.53125 -0.421875 -0.796875q-0.328125 -0.28125 -0.828125 -0.28125q-0.6875 0 -1.09375 0.46875q-0.40625 0.46875 -0.40625 1.578125q0 1.234375 0.40625 1.75q0.421875 0.5 1.109375 0.5q0.53125 0 0.859375 -0.296875q0.328125 -0.296875 0.46875 -1.03125l1.796875 0.3125q-0.28125 1.234375 -1.078125 1.875q-0.796875 0.625 -2.125 0.625q-1.515625 0 -2.421875 -0.953125q-0.90625 -0.953125 -0.90625 -2.65625q0 -1.703125 0.90625 -2.65625q0.90625 -0.953125 2.453125 -0.953125q1.265625 0 2.0 0.546875q0.75 0.53125 1.078125 1.640625zm5.3812256 2.671875l1.828125 0.3125q-0.34375 1.0 -1.109375 1.53125q-0.765625 0.515625 -1.890625 0.515625q-1.8125 0 -2.671875 -1.171875q-0.6875 -0.953125 -0.6875 -2.390625q0 -1.71875 0.890625 -2.6875q0.90625 -0.96875 2.28125 -0.96875q1.546875 0 2.4375 1.015625q0.890625 1.015625 0.84375 3.125l-4.578125 0q0.015625 0.8125 0.4375 1.265625q0.421875 0.453125 1.0625 0.453125q0.421875 0 0.71875 -0.234375q0.296875 -0.234375 0.4375 -0.765625zm0.109375 -1.84375q-0.015625 -0.796875 -0.40625 -1.203125q-0.390625 -0.421875 -0.953125 -0.421875q-0.59375 0 -0.984375 0.4375q-0.390625 0.4375 -0.390625 1.1875l2.734375 0zm2.6624756 2.078125l1.828125 -0.28125q0.125 0.53125 0.484375 0.8125q0.359375 0.265625 1.0 0.265625q0.703125 0 1.0625 -0.25q0.25 -0.1875 0.25 -0.484375q0 -0.21875 -0.140625 -0.359375q-0.125 -0.125 -0.609375 -0.234375q-2.203125 -0.484375 -2.796875 -0.890625q-0.828125 -0.5625 -0.828125 -1.5625q0 -0.890625 0.703125 -1.5q0.71875 -0.609375 2.203125 -0.609375q1.421875 0 2.109375 0.46875q0.703125 0.453125 0.953125 1.359375l-1.71875 0.3125q-0.109375 -0.40625 -0.421875 -0.609375q-0.3125 -0.21875 -0.890625 -0.21875q-0.71875 0 -1.03125 0.203125q-0.203125 0.140625 -0.203125 0.359375q0 0.203125 0.1875 0.34375q0.234375 0.171875 1.6875 0.515625q1.46875 0.328125 2.0625 0.8125q0.5625 0.484375 0.5625 1.359375q0 0.953125 -0.796875 1.640625q-0.78125 0.671875 -2.34375 0.671875q-1.40625 0 -2.234375 -0.5625q-0.828125 -0.578125 -1.078125 -1.5625zm7.4124756 0l1.828125 -0.28125q0.125 0.53125 0.484375 0.8125q0.359375 0.265625 1.0 0.265625q0.703125 0 1.0625 -0.25q0.25 -0.1875 0.25 -0.484375q0 -0.21875 -0.140625 -0.359375q-0.125 -0.125 -0.609375 -0.234375q-2.203125 -0.484375 -2.796875 -0.890625q-0.828125 -0.5625 -0.828125 -1.5625q0 -0.890625 0.703125 -1.5q0.71875 -0.609375 2.203125 -0.609375q1.421875 0 2.109375 0.46875q0.703125 0.453125 0.953125 1.359375l-1.71875 0.3125q-0.109375 -0.40625 -0.421875 -0.609375q-0.3125 -0.21875 -0.890625 -0.21875q-0.71875 0 -1.03125 0.203125q-0.203125 0.140625 -0.203125 0.359375q0 0.203125 0.1875 0.34375q0.234375 0.171875 1.6875 0.515625q1.46875 0.328125 2.0625 0.8125q0.5625 0.484375 0.5625 1.359375q0 0.953125 -0.796875 1.640625q-0.78125 0.671875 -2.34375 0.671875q-1.40625 0 -2.234375 -0.5625q-0.828125 -0.578125 -1.078125 -1.5625zm8.053101 -5.875l0 -1.703125l1.828125 0l0 1.703125l-1.828125 0zm0 7.84375l0 -6.90625l1.828125 0l0 6.90625l-1.828125 0zm9.999878 0l-1.828125 0l0 -3.53125q0 -1.109375 -0.125 -1.4375q-0.109375 -0.328125 -0.375 -0.515625q-0.265625 -0.1875 -0.640625 -0.1875q-0.46875 0 -0.859375 0.265625q-0.375 0.265625 -0.515625 0.703125q-0.140625 0.421875 -0.140625 1.578125l0 3.125l-1.828125 0l0 -6.90625l1.703125 0l0 1.015625q0.90625 -1.171875 2.28125 -1.171875q0.609375 0 1.109375 0.21875q0.5 0.21875 0.75 0.5625q0.265625 0.328125 0.359375 0.765625q0.109375 0.421875 0.109375 1.21875l0 4.296875zm1.6726074 0.453125l2.09375 0.25q0.046875 0.375 0.25 0.5q0.25 0.203125 0.8125 0.203125q0.71875 0 1.078125 -0.21875q0.234375 -0.140625 0.359375 -0.453125q0.078125 -0.234375 0.078125 -0.84375l0 -1.015625q-0.8125 1.125 -2.0625 1.125q-1.390625 0 -2.203125 -1.171875q-0.640625 -0.9375 -0.640625 -2.328125q0 -1.734375 0.828125 -2.640625q0.84375 -0.921875 2.09375 -0.921875q1.28125 0 2.109375 1.125l0 -0.96875l1.703125 0l0 6.203125q0 1.21875 -0.203125 1.8125q-0.1875 0.609375 -0.5625 0.953125q-0.359375 0.359375 -0.96875 0.546875q-0.609375 0.203125 -1.53125 0.203125q-1.765625 0 -2.5 -0.609375q-0.734375 -0.609375 -0.734375 -1.53125q0 -0.09375 0 -0.21875zm1.640625 -4.046875q0 1.09375 0.421875 1.609375q0.4375 0.5 1.046875 0.5q0.671875 0 1.140625 -0.515625q0.46875 -0.53125 0.46875 -1.546875q0 -1.078125 -0.453125 -1.59375q-0.4375 -0.53125 -1.109375 -0.53125q-0.65625 0 -1.09375 0.515625q-0.421875 0.515625 -0.421875 1.5625z" fill-rule="nonzero"/><path fill="#000000" fill-opacity="0.0" d="m852.4494 84.6898l156.78735 0" fill-rule="evenodd"/><path stroke="#0091da" stroke-width="2.0" stroke-linejoin="round" stroke-linecap="butt" d="m852.4494 84.6898l144.78741 0" fill-rule="evenodd"/><path fill="#0091da" stroke="#0091da" stroke-width="2.0" stroke-linecap="butt" d="m997.2368 87.99326l9.076172 -3.3034668l-9.076172 -3.3034668z" fill-rule="evenodd"/><path fill="#000000" fill-opacity="0.0" d="m852.5671 230.69287l156.78741 0" fill-rule="evenodd"/><path stroke="#0091da" stroke-width="2.0" stroke-linejoin="round" stroke-linecap="butt" d="m852.5671 230.69287l144.78741 0" fill-rule="evenodd"/><path fill="#0091da" stroke="#0091da" stroke-width="2.0" stroke-linecap="butt" d="m997.3545 233.99634l9.076172 -3.3034668l-9.076172 -3.3034668z" fill-rule="evenodd"/><path fill="#000000" fill-opacity="0.0" d="m852.449 363.4193l156.78741 0" fill-rule="evenodd"/><path stroke="#0091da" stroke-width="2.0" stroke-linejoin="round" stroke-linecap="butt" d="m852.449 363.41934l144.78741 0" fill-rule="evenodd"/><path fill="#0091da" stroke="#0091da" stroke-width="2.0" stroke-linecap="butt" d="m997.2364 366.7228l9.076172 -3.3034668l-9.076172 -3.3034668z" fill-rule="evenodd"/><path fill="#000000" fill-opacity="0.0" d="m835.4313 188.01059l191.05505 0l0 56.314957l-191.05505 0z" fill-rule="evenodd"/><path fill="#002142" d="m903.992 220.96808l-2.09375 0l-0.84375 -2.171875l-3.8125 0l-0.78125 2.171875l-2.046875 0l3.71875 -9.546875l2.03125 0l3.828125 9.546875zm-3.546875 -3.78125l-1.3125 -3.53125l-1.296875 3.53125l2.609375 0zm4.531372 3.78125l0 -9.546875l2.890625 0l1.734375 6.515625l1.703125 -6.515625l2.890625 0l0 9.546875l-1.78125 0l0 -7.515625l-1.90625 7.515625l-1.84375 0l-1.890625 -7.515625l0 7.515625l-1.796875 0zm18.821228 -1.203125q0.703125 0.5 1.53125 0.796875l-0.703125 1.359375q-0.4375 -0.125 -0.859375 -0.359375q-0.09375 -0.046875 -1.28125 -0.84375q-0.9375 0.40625 -2.078125 0.40625q-2.1875 0 -3.4375 -1.28125q-1.25 -1.296875 -1.25 -3.640625q0 -2.34375 1.25 -3.640625q1.25 -1.296875 3.390625 -1.296875q2.125 0 3.359375 1.296875q1.25 1.296875 1.25 3.640625q0 1.234375 -0.34375 2.171875q-0.265625 0.71875 -0.828125 1.390625zm-1.5625 -1.09375q0.375 -0.4375 0.5625 -1.046875q0.1875 -0.625 0.1875 -1.421875q0 -1.65625 -0.734375 -2.46875q-0.71875 -0.828125 -1.90625 -0.828125q-1.171875 0 -1.90625 0.828125q-0.734375 0.8125 -0.734375 2.46875q0 1.671875 0.734375 2.5q0.734375 0.828125 1.84375 0.828125q0.421875 0 0.796875 -0.140625q-0.59375 -0.375 -1.1875 -0.59375l0.53125 -1.109375q0.953125 0.328125 1.8125 0.984375zm4.2420044 2.296875l0 -9.546875l3.09375 0q1.75 0 2.296875 0.15625q0.8125 0.203125 1.359375 0.921875q0.5625 0.71875 0.5625 1.859375q0 0.875 -0.328125 1.484375q-0.3125 0.59375 -0.8125 0.9375q-0.484375 0.34375 -0.984375 0.453125q-0.703125 0.140625 -2.0 0.140625l-1.265625 0l0 3.59375l-1.921875 0zm1.921875 -7.921875l0 2.703125l1.0625 0q1.140625 0 1.515625 -0.140625q0.390625 -0.15625 0.609375 -0.46875q0.21875 -0.328125 0.21875 -0.75q0 -0.515625 -0.3125 -0.859375q-0.296875 -0.34375 -0.765625 -0.421875q-0.34375 -0.0625 -1.390625 -0.0625l-0.9375 0zm13.117493 -1.65625q1.390625 0 2.171875 0.984375q0.921875 1.171875 0.921875 3.890625q0 2.703125 -0.9375 3.890625q-0.765625 0.96875 -2.15625 0.96875q-1.390625 0 -2.25 -1.0625q-0.84375 -1.078125 -0.84375 -3.8125q0 -2.703125 0.9375 -3.890625q0.765625 -0.96875 2.15625 -0.96875zm0 1.515625q-0.328125 0 -0.59375 0.21875q-0.25 0.203125 -0.40625 0.75q-0.1875 0.703125 -0.1875 2.390625q0 1.671875 0.171875 2.3125q0.171875 0.625 0.421875 0.828125q0.265625 0.203125 0.59375 0.203125q0.328125 0 0.59375 -0.203125q0.265625 -0.21875 0.40625 -0.765625q0.1875 -0.703125 0.1875 -2.375q0 -1.6875 -0.171875 -2.3125q-0.171875 -0.625 -0.4375 -0.828125q-0.25 -0.21875 -0.578125 -0.21875zm4.7093506 8.0625l0 -1.828125l1.828125 0l0 1.828125l-1.828125 0zm3.359253 -2.203125l1.765625 -0.203125q0.0625 0.546875 0.328125 0.8125q0.28125 0.25 0.734375 0.25q0.5625 0 0.953125 -0.515625q0.40625 -0.515625 0.515625 -2.15625q-0.6875 0.796875 -1.71875 0.796875q-1.125 0 -1.953125 -0.859375q-0.8125 -0.875 -0.8125 -2.28125q0 -1.4375 0.859375 -2.328125q0.859375 -0.890625 2.203125 -0.890625q1.453125 0 2.375 1.125q0.9375 1.125 0.9375 3.6875q0 2.625 -0.96875 3.78125q-0.96875 1.15625 -2.53125 1.15625q-1.109375 0 -1.8125 -0.59375q-0.6875 -0.59375 -0.875 -1.78125zm4.140625 -4.0q0 -0.890625 -0.40625 -1.375q-0.40625 -0.484375 -0.953125 -0.484375q-0.5 0 -0.84375 0.40625q-0.328125 0.390625 -0.328125 1.296875q0 0.9375 0.359375 1.375q0.375 0.421875 0.921875 0.421875q0.515625 0 0.875 -0.40625q0.375 -0.421875 0.375 -1.234375zm3.6156006 6.203125l0 -1.828125l1.828125 0l0 1.828125l-1.828125 0zm7.999878 0l-1.828125 0l0 -6.890625q-1.0 0.9375 -2.375 1.390625l0 -1.671875q0.71875 -0.234375 1.5625 -0.875q0.84375 -0.65625 1.15625 -1.53125l1.484375 0l0 9.578125z" fill-rule="nonzero"/><path fill="#000000" fill-opacity="0.0" d="m835.3132 321.13202l191.05511 0l0 56.31494l-191.05511 0z" fill-rule="evenodd"/><path fill="#002142" d="m903.8739 354.08948l-2.09375 0l-0.84375 -2.171875l-3.8125 0l-0.78125 2.171875l-2.046875 0l3.71875 -9.546875l2.03125 0l3.828125 9.546875zm-3.546875 -3.78125l-1.3125 -3.53125l-1.296875 3.53125l2.609375 0zm4.531372 3.78125l0 -9.546875l2.890625 0l1.734375 6.515625l1.703125 -6.515625l2.890625 0l0 9.546875l-1.78125 0l0 -7.515625l-1.90625 7.515625l-1.84375 0l-1.890625 -7.515625l0 7.515625l-1.796875 0zm18.821167 -1.203125q0.703125 0.5 1.53125 0.796875l-0.703125 1.359375q-0.4375 -0.125 -0.859375 -0.359375q-0.09375 -0.046875 -1.28125 -0.84375q-0.9375 0.40625 -2.078125 0.40625q-2.1875 0 -3.4375 -1.28125q-1.25 -1.296875 -1.25 -3.640625q0 -2.34375 1.25 -3.640625q1.25 -1.296875 3.390625 -1.296875q2.125 0 3.359375 1.296875q1.25 1.296875 1.25 3.640625q0 1.234375 -0.34375 2.171875q-0.265625 0.71875 -0.828125 1.390625zm-1.5625 -1.09375q0.375 -0.4375 0.5625 -1.046875q0.1875 -0.625 0.1875 -1.421875q0 -1.65625 -0.734375 -2.46875q-0.71875 -0.828125 -1.90625 -0.828125q-1.171875 0 -1.90625 0.828125q-0.734375 0.8125 -0.734375 2.46875q0 1.671875 0.734375 2.5q0.734375 0.828125 1.84375 0.828125q0.421875 0 0.796875 -0.140625q-0.59375 -0.375 -1.1875 -0.59375l0.53125 -1.109375q0.953125 0.328125 1.8125 0.984375zm4.2420654 2.296875l0 -9.546875l3.09375 0q1.75 0 2.296875 0.15625q0.8125 0.203125 1.359375 0.921875q0.5625 0.71875 0.5625 1.859375q0 0.875 -0.328125 1.484375q-0.3125 0.59375 -0.8125 0.9375q-0.484375 0.34375 -0.984375 0.453125q-0.703125 0.140625 -2.0 0.140625l-1.265625 0l0 3.59375l-1.921875 0zm1.921875 -7.921875l0 2.703125l1.0625 0q1.140625 0 1.515625 -0.140625q0.390625 -0.15625 0.609375 -0.46875q0.21875 -0.328125 0.21875 -0.75q0 -0.515625 -0.3125 -0.859375q-0.296875 -0.34375 -0.765625 -0.421875q-0.34375 -0.0625 -1.390625 -0.0625l-0.9375 0zm13.117493 -1.65625q1.390625 0 2.171875 0.984375q0.921875 1.171875 0.921875 3.890625q0 2.703125 -0.9375 3.890625q-0.765625 0.96875 -2.15625 0.96875q-1.390625 0 -2.25 -1.0625q-0.84375 -1.078125 -0.84375 -3.8125q0 -2.703125 0.9375 -3.890625q0.765625 -0.96875 2.15625 -0.96875zm0 1.515625q-0.328125 0 -0.59375 0.21875q-0.25 0.203125 -0.40625 0.75q-0.1875 0.703125 -0.1875 2.390625q0 1.671875 0.171875 2.3125q0.171875 0.625 0.421875 0.828125q0.265625 0.203125 0.59375 0.203125q0.328125 0 0.59375 -0.203125q0.265625 -0.21875 0.40625 -0.765625q0.1875 -0.703125 0.1875 -2.375q0 -1.6875 -0.171875 -2.3125q-0.171875 -0.625 -0.4375 -0.828125q-0.25 -0.21875 -0.578125 -0.21875zm4.7093506 8.0625l0 -1.828125l1.828125 0l0 1.828125l-1.828125 0zm3.359253 -2.203125l1.765625 -0.203125q0.0625 0.546875 0.328125 0.8125q0.28125 0.25 0.734375 0.25q0.5625 0 0.953125 -0.515625q0.40625 -0.515625 0.515625 -2.15625q-0.6875 0.796875 -1.71875 0.796875q-1.125 0 -1.953125 -0.859375q-0.8125 -0.875 -0.8125 -2.28125q0 -1.4375 0.859375 -2.328125q0.859375 -0.890625 2.203125 -0.890625q1.453125 0 2.375 1.125q0.9375 1.125 0.9375 3.6875q0 2.625 -0.96875 3.78125q-0.96875 1.15625 -2.53125 1.15625q-1.109375 0 -1.8125 -0.59375q-0.6875 -0.59375 -0.875 -1.78125zm4.140625 -4.0q0 -0.890625 -0.40625 -1.375q-0.40625 -0.484375 -0.953125 -0.484375q-0.5 0 -0.84375 0.40625q-0.328125 0.390625 -0.328125 1.296875q0 0.9375 0.359375 1.375q0.375 0.421875 0.921875 0.421875q0.515625 0 0.875 -0.40625q0.375 -0.421875 0.375 -1.234375zm3.6156006 6.203125l0 -1.828125l1.828125 0l0 1.828125l-1.828125 0zm7.999878 0l-1.828125 0l0 -6.890625q-1.000061 0.9375 -2.375061 1.390625l0 -1.671875q0.71875 -0.234375 1.5625 -0.875q0.84381104 -0.65625 1.156311 -1.53125l1.484375 0l0 9.578125z" fill-rule="nonzero"/><path fill="#000000" fill-opacity="0.0" d="m-23.99963 379.26053l275.46457 0l0 56.314972l-275.46457 0z" fill-rule="evenodd"/><path fill="#002142" d="m24.306873 407.153l-1.515625 0q-1.1875 -1.8125 -1.8125 -3.75q-0.625 -1.953125 -0.625 -3.78125q0 -2.25 0.765625 -4.265625q0.671875 -1.75 1.703125 -3.234375l1.5 0q-1.0625 2.375 -1.46875 4.03125q-0.40625 1.65625 -0.40625 3.515625q0 1.28125 0.234375 2.625q0.25 1.34375 0.65625 2.5625q0.28125 0.796875 0.96875 2.296875zm1.703125 -3.375l0 -11.453125l3.703125 0q2.109375 0 2.75 0.171875q0.984375 0.25 1.640625 1.125q0.671875 0.859375 0.671875 2.21875q0 1.0625 -0.390625 1.78125q-0.375 0.71875 -0.96875 1.125q-0.578125 0.40625 -1.1875 0.546875q-0.828125 0.15625 -2.40625 0.15625l-1.5 0l0 4.328125l-2.3125 0zm2.3125 -9.515625l0 3.25l1.265625 0q1.359375 0 1.8125 -0.171875q0.46875 -0.1875 0.734375 -0.5625q0.265625 -0.390625 0.265625 -0.90625q0 -0.625 -0.375 -1.03125q-0.359375 -0.40625 -0.921875 -0.5q-0.421875 -0.078125 -1.671875 -0.078125l-1.109375 0zm7.828125 5.25q0 -1.09375 0.53125 -2.109375q0.546875 -1.03125 1.53125 -1.5625q1.0 -0.546875 2.21875 -0.546875q1.875 0 3.078125 1.21875q1.203125 1.21875 1.203125 3.09375q0 1.875 -1.21875 3.125q-1.203125 1.234375 -3.046875 1.234375q-1.140625 0 -2.1875 -0.515625q-1.03125 -0.515625 -1.578125 -1.515625q-0.53125 -1.0 -0.53125 -2.421875zm2.25 0.109375q0 1.234375 0.578125 1.890625q0.59375 0.65625 1.453125 0.65625q0.859375 0 1.4375 -0.65625q0.59375 -0.65625 0.59375 -1.90625q0 -1.21875 -0.59375 -1.875q-0.578125 -0.65625 -1.4375 -0.65625q-0.859375 0 -1.453125 0.65625q-0.578125 0.65625 -0.578125 1.890625zm7.2578125 1.78125l2.203125 -0.328125q0.140625 0.640625 0.5625 0.96875q0.4375 0.328125 1.21875 0.328125q0.84375 0 1.28125 -0.3125q0.28125 -0.21875 0.28125 -0.578125q0 -0.25 -0.15625 -0.421875q-0.15625 -0.15625 -0.734375 -0.28125q-2.65625 -0.59375 -3.359375 -1.078125q-0.984375 -0.671875 -0.984375 -1.859375q0 -1.078125 0.84375 -1.8125q0.859375 -0.734375 2.640625 -0.734375q1.703125 0 2.53125 0.5625q0.828125 0.546875 1.140625 1.625l-2.0625 0.390625q-0.140625 -0.484375 -0.515625 -0.734375q-0.359375 -0.265625 -1.046875 -0.265625q-0.875 0 -1.25 0.234375q-0.25 0.171875 -0.25 0.453125q0 0.234375 0.21875 0.390625q0.296875 0.21875 2.046875 0.625q1.765625 0.390625 2.453125 0.96875q0.6875 0.59375 0.6875 1.640625q0 1.140625 -0.953125 1.96875q-0.953125 0.8125 -2.8125 0.8125q-1.703125 0 -2.6875 -0.6875q-0.984375 -0.6875 -1.296875 -1.875zm8.8984375 0l2.203125 -0.328125q0.140625 0.640625 0.5625 0.96875q0.4375 0.328125 1.21875 0.328125q0.84375 0 1.28125 -0.3125q0.28125 -0.21875 0.28125 -0.578125q0 -0.25 -0.15625 -0.421875q-0.15625 -0.15625 -0.734375 -0.28125q-2.65625 -0.59375 -3.359375 -1.078125q-0.984375 -0.671875 -0.984375 -1.859375q0 -1.078125 0.84375 -1.8125q0.859375 -0.734375 2.640625 -0.734375q1.703125 0 2.53125 0.5625q0.828125 0.546875 1.140625 1.625l-2.0625 0.390625q-0.140625 -0.484375 -0.515625 -0.734375q-0.359375 -0.265625 -1.046875 -0.265625q-0.875 0 -1.25 0.234375q-0.25 0.171875 -0.25 0.453125q0 0.234375 0.21875 0.390625q0.296875 0.21875 2.046875 0.625q1.765625 0.390625 2.453125 0.96875q0.6875 0.59375 0.6875 1.640625q0 1.140625 -0.953125 1.96875q-0.953125 0.8125 -2.8125 0.8125q-1.703125 0 -2.6875 -0.6875q-0.984375 -0.6875 -1.296875 -1.875zm9.679684 -7.046875l0 -2.03125l2.1875 0l0 2.03125l-2.1875 0zm0 9.421875l0 -8.296875l2.1875 0l0 8.296875l-2.1875 0zm4.3515625 0l0 -11.453125l2.1875 0l0 4.125q1.015625 -1.15625 2.40625 -1.15625q1.515625 0 2.5 1.09375q1.0 1.09375 1.0 3.15625q0 2.125 -1.015625 3.28125q-1.0 1.140625 -2.453125 1.140625q-0.703125 0 -1.40625 -0.359375q-0.6875 -0.359375 -1.1875 -1.046875l0 1.21875l-2.03125 0zm2.171875 -4.328125q0 1.28125 0.40625 1.90625q0.578125 0.875 1.515625 0.875q0.734375 0 1.234375 -0.625q0.515625 -0.625 0.515625 -1.953125q0 -1.421875 -0.515625 -2.046875q-0.515625 -0.640625 -1.3125 -0.640625q-0.796875 0 -1.328125 0.625q-0.515625 0.609375 -0.515625 1.859375zm7.6953125 4.328125l0 -11.453125l2.1875 0l0 11.453125l-2.1875 0zm3.3984375 -8.296875l2.34375 0l1.984375 5.890625l1.9375 -5.890625l2.265625 0l-2.921875 7.984375l-0.53125 1.453125q-0.28125 0.71875 -0.546875 1.09375q-0.265625 0.390625 -0.609375 0.625q-0.328125 0.25 -0.828125 0.375q-0.5 0.140625 -1.125 0.140625q-0.625 0 -1.234375 -0.140625l-0.203125 -1.71875q0.515625 0.109375 0.9375 0.109375q0.765625 0 1.125 -0.453125q0.375 -0.453125 0.5625 -1.140625l-3.15625 -8.328125zm9.3359375 11.671875q0.640625 -1.390625 0.90625 -2.140625q0.265625 -0.734375 0.484375 -1.703125q0.234375 -0.984375 0.34375 -1.84375q0.109375 -0.875 0.109375 -1.796875q0 -1.859375 -0.40625 -3.515625q-0.390625 -1.65625 -1.453125 -4.03125l1.484375 0q1.1875 1.6875 1.828125 3.578125q0.65625 1.875 0.65625 3.8125q0 1.625 -0.515625 3.5q-0.578125 2.09375 -1.921875 4.140625l-1.515625 0zm10.2109375 -11.671875l2.03125 0l0 1.125q1.078125 -1.3125 2.578125 -1.3125q0.796875 0 1.375 0.328125q0.59375 0.328125 0.96875 0.984375q0.546875 -0.65625 1.171875 -0.984375q0.640625 -0.328125 1.359375 -0.328125q0.921875 0 1.546875 0.375q0.640625 0.359375 0.953125 1.078125q0.21875 0.53125 0.21875 1.71875l0 5.3125l-2.1875 0l0 -4.75q0 -1.234375 -0.234375 -1.59375q-0.296875 -0.46875 -0.9375 -0.46875q-0.453125 0 -0.859375 0.28125q-0.40625 0.28125 -0.59375 0.828125q-0.171875 0.546875 -0.171875 1.71875l0 3.984375l-2.203125 0l0 -4.546875q0 -1.21875 -0.125 -1.5625q-0.109375 -0.359375 -0.359375 -0.53125q-0.234375 -0.171875 -0.65625 -0.171875q-0.515625 0 -0.921875 0.28125q-0.40625 0.265625 -0.578125 0.78125q-0.171875 0.515625 -0.171875 1.71875l0 4.03125l-2.203125 0l0 -8.296875zm19.851562 8.296875l0 -1.25q-0.453125 0.671875 -1.1875 1.0625q-0.734375 0.375 -1.5625 0.375q-0.828125 0 -1.5 -0.359375q-0.65625 -0.375 -0.953125 -1.03125q-0.296875 -0.671875 -0.296875 -1.84375l0 -5.25l2.1875 0l0 3.8125q0 1.75 0.125 2.140625q0.125 0.390625 0.4375 0.625q0.328125 0.234375 0.8125 0.234375q0.5625 0 1.0 -0.3125q0.453125 -0.3125 0.609375 -0.765625q0.171875 -0.453125 0.171875 -2.234375l0 -3.5l2.203125 0l0 8.296875l-2.046875 0zm4.3203125 0l0 -11.453125l2.1875 0l0 11.453125l-2.1875 0zm8.2421875 -8.296875l0 1.75l-1.5 0l0 3.34375q0 1.015625 0.046875 1.1875q0.046875 0.15625 0.1875 0.265625q0.15625 0.109375 0.375 0.109375q0.3125 0 0.890625 -0.203125l0.1875 1.703125q-0.765625 0.328125 -1.734375 0.328125q-0.59375 0 -1.078125 -0.203125q-0.46875 -0.203125 -0.703125 -0.515625q-0.21875 -0.3125 -0.296875 -0.859375q-0.078125 -0.375 -0.078125 -1.546875l0 -3.609375l-1.0 0l0 -1.75l1.0 0l0 -1.65625l2.203125 -1.28125l0 2.9375l1.5 0zm1.53125 -1.125l0 -2.03125l2.1875 0l0 2.03125l-2.1875 0zm0 9.421875l0 -8.296875l2.1875 0l0 8.296875l-2.1875 0zm4.1953125 -3.0625l0 -2.1875l4.3125 0l0 2.1875l-4.3125 0zm5.515625 -5.234375l2.046875 0l0 1.21875q0.390625 -0.625 1.0625 -1.015625q0.6875 -0.390625 1.515625 -0.390625q1.453125 0 2.453125 1.140625q1.015625 1.125 1.015625 3.140625q0 2.078125 -1.015625 3.234375q-1.015625 1.15625 -2.46875 1.15625q-0.6875 0 -1.25 -0.265625q-0.546875 -0.28125 -1.171875 -0.953125l0 4.1875l-2.1875 0l0 -11.453125zm2.171875 4.0q0 1.40625 0.546875 2.078125q0.5625 0.65625 1.359375 0.65625q0.765625 0 1.265625 -0.609375q0.515625 -0.609375 0.515625 -2.015625q0 -1.296875 -0.53125 -1.921875q-0.515625 -0.640625 -1.296875 -0.640625q-0.796875 0 -1.328125 0.625q-0.53125 0.609375 -0.53125 1.828125zm9.7578125 4.296875l-2.1875 0l0 -8.296875l2.03125 0l0 1.171875q0.53125 -0.828125 0.9375 -1.09375q0.421875 -0.265625 0.953125 -0.265625q0.75 0 1.453125 0.40625l-0.6875 1.921875q-0.546875 -0.359375 -1.03125 -0.359375q-0.453125 0 -0.78125 0.25q-0.3125 0.25 -0.5 0.921875q-0.1875 0.65625 -0.1875 2.78125l0 2.5625zm3.6171875 -4.265625q0 -1.09375 0.53125 -2.109375q0.546875 -1.03125 1.53125 -1.5625q1.0 -0.546875 2.21875 -0.546875q1.875 0 3.078125 1.21875q1.203125 1.21875 1.203125 3.09375q0 1.875 -1.21875 3.125q-1.203125 1.234375 -3.046875 1.234375q-1.140625 0 -2.1875 -0.515625q-1.03125 -0.515625 -1.578125 -1.515625q-0.53125 -1.0 -0.53125 -2.421875zm2.25 0.109375q0 1.234375 0.578125 1.890625q0.59375 0.65625 1.453125 0.65625q0.859375 0 1.4375 -0.65625q0.59375 -0.65625 0.59375 -1.90625q0 -1.21875 -0.59375 -1.875q-0.578125 -0.65625 -1.4375 -0.65625q-0.859375 0 -1.453125 0.65625q-0.578125 0.65625 -0.578125 1.890625zm11.8359375 -4.140625l0 1.75l-1.5 0l0 3.34375q0 1.015625 0.046875 1.1875q0.046875 0.15625 0.1875 0.265625q0.15625 0.109375 0.375 0.109375q0.3125 0 0.890625 -0.203125l0.1875 1.703125q-0.765625 0.328125 -1.734375 0.328125q-0.59375 0 -1.078125 -0.203125q-0.46875 -0.203125 -0.703125 -0.515625q-0.21875 -0.3125 -0.296875 -0.859375q-0.078125 -0.375 -0.078125 -1.546875l0 -3.609375l-1.0 0l0 -1.75l1.0 0l0 -1.65625l2.203125 -1.28125l0 2.9375l1.5 0zm1.015625 4.03125q0 -1.09375 0.53125 -2.109375q0.546875 -1.03125 1.53125 -1.5625q1.0 -0.546875 2.21875 -0.546875q1.875 0 3.078125 1.21875q1.203125 1.21875 1.203125 3.09375q0 1.875 -1.21875 3.125q-1.203125 1.234375 -3.046875 1.234375q-1.140625 0 -2.1875 -0.515625q-1.03125 -0.515625 -1.578125 -1.515625q-0.53125 -1.0 -0.53125 -2.421875zm2.25 0.109375q0 1.234375 0.578125 1.890625q0.59375 0.65625 1.453125 0.65625q0.859375 0 1.4375 -0.65625q0.59375 -0.65625 0.59375 -1.90625q0 -1.21875 -0.59375 -1.875q-0.578125 -0.65625 -1.4375 -0.65625q-0.859375 0 -1.453125 0.65625q-0.578125 0.65625 -0.578125 1.890625zm15.2734375 -1.6875l-2.171875 0.390625q-0.109375 -0.65625 -0.5 -0.984375q-0.375 -0.328125 -1.0 -0.328125q-0.8125 0 -1.3125 0.578125q-0.484375 0.5625 -0.484375 1.890625q0 1.46875 0.5 2.078125q0.5 0.609375 1.328125 0.609375q0.625 0 1.015625 -0.34375q0.40625 -0.359375 0.578125 -1.234375l2.15625 0.375q-0.34375 1.484375 -1.296875 2.25q-0.953125 0.75 -2.546875 0.75q-1.828125 0 -2.90625 -1.140625q-1.078125 -1.15625 -1.078125 -3.1875q0 -2.0625 1.078125 -3.203125q1.09375 -1.140625 2.9375 -1.140625q1.515625 0 2.40625 0.65625q0.90625 0.640625 1.296875 1.984375zm1.1484375 1.578125q0 -1.09375 0.53125 -2.109375q0.546875 -1.03125 1.53125 -1.5625q1.0 -0.546875 2.21875 -0.546875q1.875 0 3.078125 1.21875q1.203125 1.21875 1.203125 3.09375q0 1.875 -1.21875 3.125q-1.203125 1.234375 -3.046875 1.234375q-1.140625 0 -2.1875 -0.515625q-1.03125 -0.515625 -1.578125 -1.515625q-0.53125 -1.0 -0.53125 -2.421875zm2.25 0.109375q0 1.234375 0.578125 1.890625q0.59375 0.65625 1.453125 0.65625q0.859375 0 1.4375 -0.65625q0.59375 -0.65625 0.59375 -1.90625q0 -1.21875 -0.59375 -1.875q-0.578125 -0.65625 -1.4375 -0.65625q-0.859375 0 -1.453125 0.65625q-0.578125 0.65625 -0.578125 1.890625zm8.0390625 4.15625l0 -11.453125l2.1875 0l0 11.453125l-2.1875 0z" fill-rule="nonzero"/><path fill="#002142" d="m74.373276 414.48114l2.046875 0l0 1.21875q0.390625 -0.625 1.0625 -1.015625q0.6875 -0.390625 1.515625 -0.390625q1.453125 0 2.453125 1.140625q1.015625 1.125 1.015625 3.140625q0 2.078125 -1.015625 3.234375q-1.015625 1.15625 -2.46875 1.15625q-0.6875 0 -1.25 -0.265625q-0.546875 -0.28125 -1.171875 -0.953125l0 4.1875l-2.1875 0l0 -11.453125zm2.171875 4.0q0 1.40625 0.546875 2.078125q0.5625 0.65625 1.359375 0.65625q0.765625 0 1.265625 -0.609375q0.515625 -0.609375 0.515625 -2.015625q0 -1.296875 -0.53125 -1.921875q-0.515625 -0.640625 -1.296875 -0.640625q-0.796875 0 -1.328125 0.625q-0.53125 0.609375 -0.53125 1.828125zm13.1171875 4.296875l0 -1.25q-0.453125 0.671875 -1.1875 1.0625q-0.734375 0.375 -1.5625 0.375q-0.828125 0 -1.5 -0.359375q-0.65625 -0.375 -0.953125 -1.03125q-0.296875 -0.671875 -0.296875 -1.84375l0 -5.25l2.1875 0l0 3.8125q0 1.75 0.125 2.140625q0.125 0.390625 0.4375 0.625q0.328125 0.234375 0.8125 0.234375q0.5625 0 1.0 -0.3125q0.453125 -0.3125 0.609375 -0.765625q0.171875 -0.453125 0.171875 -2.234375l0 -3.5l2.203125 0l0 8.296875l-2.046875 0zm4.2265625 0l0 -11.453125l2.1875 0l0 4.125q1.015625 -1.15625 2.40625 -1.15625q1.515625 0 2.5 1.09375q1.0 1.09375 1.0 3.15625q0 2.125 -1.015625 3.28125q-1.0 1.140625 -2.453125 1.140625q-0.703125 0 -1.40625 -0.359375q-0.6875 -0.359375 -1.1875 -1.046875l0 1.21875l-2.03125 0zm2.171875 -4.328125q0 1.28125 0.40625 1.90625q0.578125 0.875 1.515625 0.875q0.734375 0 1.234375 -0.625q0.515625 -0.625 0.515625 -1.953125q0 -1.421875 -0.515625 -2.046875q-0.515625 -0.640625 -1.3125 -0.640625q-0.796875 0 -1.328125 0.625q-0.515625 0.609375 -0.515625 1.859375zm7.6953125 4.328125l0 -11.453125l2.1875 0l0 11.453125l-2.1875 0zm4.4453125 -9.421875l0 -2.03125l2.1875 0l0 2.03125l-2.1875 0zm0 9.421875l0 -8.296875l2.1875 0l0 8.296875l-2.1875 0zm3.6640625 -2.375l2.203125 -0.328125q0.140625 0.640625 0.5625 0.96875q0.4375 0.328125 1.21875 0.328125q0.84375 0 1.28125 -0.3125q0.28125 -0.21875 0.28125 -0.578125q0 -0.25 -0.15625 -0.421875q-0.15625 -0.15625 -0.734375 -0.28125q-2.65625 -0.59375 -3.359375 -1.078125q-0.984375 -0.671875 -0.984375 -1.859375q0 -1.078125 0.84375 -1.8125q0.859375 -0.734375 2.640625 -0.734375q1.703125 0 2.53125 0.5625q0.828125 0.546875 1.140625 1.625l-2.0625 0.390625q-0.140625 -0.484375 -0.515625 -0.734375q-0.359375 -0.265625 -1.046875 -0.265625q-0.875 0 -1.25 0.234375q-0.25 0.171875 -0.25 0.453125q0 0.234375 0.21875 0.390625q0.296875 0.21875 2.046875 0.625q1.765625 0.390625 2.453125 0.96875q0.6875 0.59375 0.6875 1.640625q0 1.140625 -0.953125 1.96875q-0.953125 0.8125 -2.8125 0.8125q-1.703125 0 -2.6875 -0.6875q-0.984375 -0.6875 -1.296875 -1.875zm11.8671875 -9.078125l0 4.203125q1.0625 -1.234375 2.53125 -1.234375q0.765625 0 1.375 0.28125q0.609375 0.28125 0.90625 0.71875q0.3125 0.4375 0.421875 0.96875q0.125 0.53125 0.125 1.640625l0 4.875l-2.203125 0l0 -4.390625q0 -1.296875 -0.125 -1.640625q-0.125 -0.359375 -0.4375 -0.5625q-0.3125 -0.21875 -0.796875 -0.21875q-0.546875 0 -0.984375 0.265625q-0.421875 0.265625 -0.625 0.8125q-0.1875 0.53125 -0.1875 1.578125l0 4.15625l-2.203125 0l0 -11.453125l2.203125 0zm12.3828125 8.8125l2.1875 0.359375q-0.421875 1.203125 -1.328125 1.84375q-0.90625 0.625 -2.28125 0.625q-2.15625 0 -3.203125 -1.421875q-0.8125 -1.125 -0.8125 -2.859375q0 -2.0625 1.078125 -3.21875q1.078125 -1.171875 2.71875 -1.171875q1.859375 0 2.921875 1.21875q1.078125 1.21875 1.03125 3.75l-5.5 0q0.015625 0.96875 0.515625 1.515625q0.515625 0.546875 1.28125 0.546875q0.515625 0 0.859375 -0.28125q0.359375 -0.28125 0.53125 -0.90625zm0.125 -2.21875q-0.015625 -0.953125 -0.484375 -1.453125q-0.46875 -0.5 -1.140625 -0.5q-0.71875 0 -1.1875 0.53125q-0.46875 0.515625 -0.46875 1.421875l3.28125 0zm6.0703125 4.859375l-2.1875 0l0 -8.296875l2.03125 0l0 1.171875q0.53125 -0.828125 0.9375 -1.09375q0.421875 -0.265625 0.953125 -0.265625q0.75 0 1.453125 0.40625l-0.6875 1.921875q-0.546875 -0.359375 -1.03125 -0.359375q-0.453125 0 -0.78125 0.25q-0.3125 0.25 -0.5 0.921875q-0.1875 0.65625 -0.1875 2.78125l0 2.5625zm3.3515625 -2.375l2.203125 -0.328125q0.140625 0.640625 0.5625 0.96875q0.4375 0.328125 1.21875 0.328125q0.84375 0 1.28125 -0.3125q0.28125 -0.21875 0.28125 -0.578125q0 -0.25 -0.15625 -0.421875q-0.15625 -0.15625 -0.734375 -0.28125q-2.65625 -0.59375 -3.359375 -1.078125q-0.984375 -0.671875 -0.984375 -1.859375q0 -1.078125 0.84375 -1.8125q0.859375 -0.734375 2.640625 -0.734375q1.703125 0 2.53125 0.5625q0.828125 0.546875 1.140625 1.625l-2.0625 0.390625q-0.140625 -0.484375 -0.515625 -0.734375q-0.359375 -0.265625 -1.046875 -0.265625q-0.875 0 -1.25 0.234375q-0.25 0.171875 -0.25 0.453125q0 0.234375 0.21875 0.390625q0.296875 0.21875 2.046875 0.625q1.765625 0.390625 2.453125 0.96875q0.6875 0.59375 0.6875 1.640625q0 1.140625 -0.953125 1.96875q-0.953125 0.8125 -2.8125 0.8125q-1.703125 0 -2.6875 -0.6875q-0.984375 -0.6875 -1.296875 -1.875z" fill-rule="nonzero"/><path fill="#000000" fill-opacity="0.0" d="m240.94579 239.25613l191.05513 0l0 56.31494l-191.05513 0z" fill-rule="evenodd"/><path fill="#002142" d="m299.85226 273.27362l0 -11.453125l8.484375 0l0 1.9375l-6.171875 0l0 2.53125l5.75 0l0 1.9375l-5.75 0l0 3.109375l6.390625 0l0 1.9375l-8.703125 0zm9.59375 0l3.0 -4.28125l-2.875 -4.015625l2.6875 0l1.46875 2.28125l1.546875 -2.28125l2.578125 0l-2.8125 3.921875l3.0625 4.375l-2.6875 0l-1.6875 -2.578125l-1.703125 2.578125l-2.578125 0zm17.195312 -5.84375l-2.171875 0.390625q-0.109375 -0.65625 -0.5 -0.984375q-0.375 -0.328125 -1.0 -0.328125q-0.8125 0 -1.3125 0.578125q-0.484375 0.5625 -0.484375 1.890625q0 1.46875 0.5 2.078125q0.5 0.609375 1.328125 0.609375q0.625 0 1.015625 -0.34375q0.40625 -0.359375 0.578125 -1.234375l2.15625 0.375q-0.34375 1.484375 -1.296875 2.25q-0.953125 0.75 -2.546875 0.75q-1.828125 0 -2.90625 -1.140625q-1.078125 -1.15625 -1.078125 -3.1875q0 -2.0625 1.078125 -3.203125q1.09375 -1.140625 2.9375 -1.140625q1.515625 0 2.40625 0.65625q0.90625 0.640625 1.296875 1.984375zm3.8515625 -5.609375l0 4.203125q1.0625 -1.234375 2.53125 -1.234375q0.765625 0 1.375 0.28125q0.609375 0.28125 0.90625 0.71875q0.3125 0.4375 0.421875 0.96875q0.125 0.53125 0.125 1.640625l0 4.875l-2.203125 0l0 -4.390625q0 -1.296875 -0.125 -1.640625q-0.125 -0.359375 -0.4375 -0.5625q-0.3125 -0.21875 -0.796875 -0.21875q-0.546875 0 -0.984375 0.265625q-0.421875 0.265625 -0.625 0.8125q-0.1875 0.53125 -0.1875 1.578125l0 4.15625l-2.203125 0l0 -11.453125l2.203125 0zm9.2265625 5.6875l-2.0 -0.359375q0.34375 -1.203125 1.15625 -1.78125q0.828125 -0.578125 2.4375 -0.578125q1.46875 0 2.1875 0.34375q0.71875 0.34375 1.015625 0.890625q0.296875 0.53125 0.296875 1.953125l-0.03125 2.5625q0 1.09375 0.109375 1.625q0.109375 0.515625 0.390625 1.109375l-2.171875 0q-0.078125 -0.21875 -0.203125 -0.65625q-0.0625 -0.1875 -0.078125 -0.25q-0.5625 0.546875 -1.203125 0.828125q-0.640625 0.265625 -1.375 0.265625q-1.28125 0 -2.015625 -0.6875q-0.734375 -0.703125 -0.734375 -1.765625q0 -0.703125 0.328125 -1.25q0.34375 -0.5625 0.9375 -0.84375q0.609375 -0.296875 1.75 -0.515625q1.546875 -0.296875 2.140625 -0.546875l0 -0.21875q0 -0.625 -0.3125 -0.890625q-0.3125 -0.28125 -1.1875 -0.28125q-0.578125 0 -0.90625 0.234375q-0.328125 0.234375 -0.53125 0.8125zm2.9375 1.78125q-0.421875 0.140625 -1.34375 0.34375q-0.90625 0.1875 -1.1875 0.375q-0.4375 0.296875 -0.4375 0.765625q0 0.46875 0.34375 0.8125q0.34375 0.328125 0.875 0.328125q0.59375 0 1.140625 -0.390625q0.390625 -0.296875 0.515625 -0.734375q0.09375 -0.28125 0.09375 -1.0625l0 -0.4375zm11.8671875 3.984375l-2.203125 0l0 -4.234375q0 -1.34375 -0.140625 -1.734375q-0.140625 -0.40625 -0.453125 -0.625q-0.3125 -0.21875 -0.765625 -0.21875q-0.5625 0 -1.015625 0.3125q-0.453125 0.3125 -0.625 0.828125q-0.171875 0.515625 -0.171875 1.90625l0 3.765625l-2.1875 0l0 -8.296875l2.03125 0l0 1.21875q1.09375 -1.40625 2.734375 -1.40625q0.734375 0 1.328125 0.265625q0.609375 0.25 0.90625 0.65625q0.3125 0.40625 0.4375 0.921875q0.125 0.515625 0.125 1.484375l0 5.15625zm2.0234375 0.546875l2.5 0.3125q0.0625 0.4375 0.296875 0.59375q0.3125 0.234375 0.984375 0.234375q0.859375 0 1.28125 -0.25q0.296875 -0.171875 0.4375 -0.5625q0.109375 -0.265625 0.109375 -1.015625l0 -1.203125q-0.984375 1.34375 -2.484375 1.34375q-1.671875 0 -2.65625 -1.421875q-0.765625 -1.109375 -0.765625 -2.78125q0 -2.078125 1.0 -3.171875q1.015625 -1.109375 2.5 -1.109375q1.546875 0 2.546875 1.34375l0 -1.15625l2.046875 0l0 7.4375q0 1.484375 -0.25 2.203125q-0.234375 0.734375 -0.671875 1.140625q-0.4375 0.421875 -1.171875 0.65625q-0.71875 0.234375 -1.84375 0.234375q-2.109375 0 -3.0 -0.734375q-0.875 -0.71875 -0.875 -1.828125q0 -0.109375 0.015625 -0.265625zm1.953125 -4.875q0 1.328125 0.515625 1.9375q0.515625 0.609375 1.265625 0.609375q0.796875 0 1.34375 -0.625q0.5625 -0.625 0.5625 -1.859375q0 -1.296875 -0.53125 -1.921875q-0.53125 -0.625 -1.34375 -0.625q-0.78125 0 -1.296875 0.625q-0.515625 0.609375 -0.515625 1.859375zm12.8203125 1.6875l2.1875 0.359375q-0.421875 1.203125 -1.328125 1.84375q-0.90625 0.625 -2.28125 0.625q-2.15625 0 -3.203125 -1.421875q-0.8125 -1.125 -0.8125 -2.859375q0 -2.0625 1.078125 -3.21875q1.078125 -1.171875 2.71875 -1.171875q1.859375 0 2.921875 1.21875q1.078125 1.21875 1.03125 3.75l-5.5 0q0.015625 0.96875 0.515625 1.515625q0.515625 0.546875 1.28125 0.546875q0.515625 0 0.859375 -0.28125q0.359375 -0.28125 0.53125 -0.90625zm0.125 -2.21875q-0.015625 -0.953125 -0.484375 -1.453125q-0.46875 -0.5 -1.140625 -0.5q-0.71875 0 -1.1875 0.53125q-0.46875 0.515625 -0.46875 1.421875l3.28125 0z" fill-rule="nonzero"/><path fill="#000000" fill-opacity="0.0" d="m359.3622 225.74236l253.98428 -139.05511" fill-rule="evenodd"/><path stroke="#0091da" stroke-width="2.0" stroke-linejoin="round" stroke-linecap="butt" d="m359.3622 225.74236l243.45853 -133.29236" fill-rule="evenodd"/><path fill="#0091da" stroke="#0091da" stroke-width="2.0" stroke-linecap="butt" d="m604.40717 95.34761l6.374695 -7.256279l-9.547546 1.4610672z" fill-rule="evenodd"/></g></svg>